ISO-10303-21;
HEADER;
FILE_DESCRIPTION (( 'STEP AP203' ),
    '1' );
FILE_NAME ('90965A230_316 Stainless Steel Washer.STEP',
    '2022-11-23T20:09:14',
    ( 'Administrator' ),
    ( 'Managed by Terraform' ),
    'SwSTEP 2.0',
    'SolidWorks 2017',
    '' );
FILE_SCHEMA (( 'CONFIG_CONTROL_DESIGN' ));
ENDSEC;

DATA;
#1 = PERSON_AND_ORGANIZATION ( #94, #180 ) ;
#2 = CIRCLE ( 'NONE', #62, 8.830000000000001800 ) ;
#3 = PERSON_AND_ORGANIZATION_ROLE ( 'design_supplier' ) ;
#4 = CARTESIAN_POINT ( 'NONE',  ( 14.66999999999999800, 0.0000000000000000000, -1.319999999999995600 ) ) ;
#5 = ORIENTED_EDGE ( 'NONE', *, *, #43, .F. ) ;
#6 = VERTEX_POINT ( 'NONE', #346 ) ;
#7 = ORIENTED_EDGE ( 'NONE', *, *, #340, .F. ) ;
#8 = ORIENTED_EDGE ( 'NONE', *, *, #142, .T. ) ;
#9 = AXIS2_PLACEMENT_3D ( 'NONE', #210, #55, #305 ) ;
#10 = ORIENTED_EDGE ( 'NONE', *, *, #33, .F. ) ;
#11 = CARTESIAN_POINT ( 'NONE',  ( -8.500000000000000000, 1.040949779275250100E-015, 1.320000000000004300 ) ) ;
#12 = FACE_OUTER_BOUND ( 'NONE', #329, .T. ) ;
#13 = CYLINDRICAL_SURFACE ( 'NONE', #443, 8.500000000000000000 ) ;
#14 = CC_DESIGN_DATE_AND_TIME_ASSIGNMENT ( #96, #72, ( #422 ) ) ;
#15 = DIRECTION ( 'NONE',  ( 1.000000000000000000, 0.0000000000000000000, 0.0000000000000000000 ) ) ;
#16 = EDGE_CURVE ( 'NONE', #101, #393, #232, .T. ) ;
#17 = DIRECTION ( 'NONE',  ( 1.000000000000000000, 0.0000000000000000000, 0.0000000000000000000 ) ) ;
#18 = PLANE ( 'NONE',  #37 ) ;
#19 =( GEOMETRIC_REPRESENTATION_CONTEXT ( 3 ) GLOBAL_UNCERTAINTY_ASSIGNED_CONTEXT ( ( #155 ) ) GLOBAL_UNIT_ASSIGNED_CONTEXT ( ( #386, #349, #293 ) ) REPRESENTATION_CONTEXT ( 'NONE', 'WORKASPACE' ) );
#20 = CARTESIAN_POINT ( 'NONE',  ( 8.500000000000000000, 0.0000000000000000000, -1.649999999999995700 ) ) ;
#21 = ORIENTED_EDGE ( 'NONE', *, *, #394, .T. ) ;
#22 = ORIENTED_EDGE ( 'NONE', *, *, #423, .F. ) ;
#23 = DIRECTION ( 'NONE',  ( -1.000000000000000000, 1.224646799147353900E-016, 0.0000000000000000000 ) ) ;
#24 = CC_DESIGN_APPROVAL ( #448, ( #422 ) ) ;
#25 = DIRECTION ( 'NONE',  ( 1.000000000000000000, 0.0000000000000000000, 0.0000000000000000000 ) ) ;
#26 = DATE_AND_TIME ( #441, #449 ) ;
#27 = FACE_OUTER_BOUND ( 'NONE', #258, .T. ) ;
#28 = CARTESIAN_POINT ( 'NONE',  ( 0.0000000000000000000, 0.0000000000000000000, 1.650000000000004400 ) ) ;
#29 = EDGE_LOOP ( 'NONE', ( #444, #428, #134, #65 ) ) ;
#30 = ORIENTED_EDGE ( 'NONE', *, *, #43, .T. ) ;
#31 = CC_DESIGN_DATE_AND_TIME_ASSIGNMENT ( #47, #323, ( #390 ) ) ;
#32 = EDGE_LOOP ( 'NONE', ( #397, #333, #222, #10 ) ) ;
#33 = EDGE_CURVE ( 'NONE', #368, #90, #399, .T. ) ;
#34 = PERSON_AND_ORGANIZATION_ROLE ( 'design_owner' ) ;
#35 = ORIENTED_EDGE ( 'NONE', *, *, #247, .F. ) ;
#36 = DIRECTION ( 'NONE',  ( 1.000000000000000000, 0.0000000000000000000, 0.0000000000000000000 ) ) ;
#37 = AXIS2_PLACEMENT_3D ( 'NONE', #217, #150, #382 ) ;
#38 = DIRECTION ( 'NONE',  ( -1.000000000000000000, 1.224646799147348000E-016, 0.0000000000000000000 ) ) ;
#39 = TOROIDAL_SURFACE ( 'NONE', #300, 14.66999999999999800, 0.3300000000000000200 ) ;
#40 = SECURITY_CLASSIFICATION_LEVEL ( 'unclassified' ) ;
#41 = DIRECTION ( 'NONE',  ( 1.000000000000000000, 0.0000000000000000000, 0.0000000000000000000 ) ) ;
#42 = ORIENTED_EDGE ( 'NONE', *, *, #89, .F. ) ;
#43 = EDGE_CURVE ( 'NONE', #260, #212, #268, .T. ) ;
#44 = DESIGN_CONTEXT ( 'detailed design', #319, 'design' ) ;
#45 = VECTOR ( 'NONE', #309, 1000.000000000000000 ) ;
#46 = DIRECTION ( 'NONE',  ( 1.000000000000000000, 0.0000000000000000000, 0.0000000000000000000 ) ) ;
#47 = DATE_AND_TIME ( #344, #158 ) ;
#48 = APPROVAL ( #317, 'UNSPECIFIED' ) ;
#49 = FACE_OUTER_BOUND ( 'NONE', #262, .T. ) ;
#50 = CARTESIAN_POINT ( 'NONE',  ( 0.0000000000000000000, 0.0000000000000000000, -1.649999999999995700 ) ) ;
#51 = AXIS2_PLACEMENT_3D ( 'NONE', #324, #126, #46 ) ;
#52 = ORIENTED_EDGE ( 'NONE', *, *, #247, .T. ) ;
#53 = FACE_OUTER_BOUND ( 'NONE', #127, .T. ) ;
#54 = EDGE_CURVE ( 'NONE', #421, #241, #125, .T. ) ;
#55 = DIRECTION ( 'NONE',  ( 0.0000000000000000000, 0.0000000000000000000, 1.000000000000000000 ) ) ;
#56 = ADVANCED_FACE ( 'NONE', ( #68 ), #338, .T. ) ;
#57 = AXIS2_PLACEMENT_3D ( 'NONE', #442, #143, #281 ) ;
#58 = DIRECTION ( 'NONE',  ( 0.0000000000000000000, 0.0000000000000000000, 1.000000000000000000 ) ) ;
#59 = ADVANCED_FACE ( 'NONE', ( #274 ), #412, .T. ) ;
#60 = LOCAL_TIME ( 14, 9, 14.00000000000000000, #188 ) ;
#61 = CYLINDRICAL_SURFACE ( 'NONE', #257, 15.00000000000000000 ) ;
#62 = AXIS2_PLACEMENT_3D ( 'NONE', #64, #146, #216 ) ;
#63 = EDGE_LOOP ( 'NONE', ( #402, #171 ) ) ;
#64 = CARTESIAN_POINT ( 'NONE',  ( 0.0000000000000000000, 0.0000000000000000000, 1.650000000000004400 ) ) ;
#65 = ORIENTED_EDGE ( 'NONE', *, *, #201, .F. ) ;
#66 = ADVANCED_FACE ( 'NONE', ( #424 ), #245, .T. ) ;
#67 = EDGE_CURVE ( 'NONE', #6, #93, #321, .T. ) ;
#68 = FACE_OUTER_BOUND ( 'NONE', #234, .T. ) ;
#69 = AXIS2_PLACEMENT_3D ( 'NONE', #81, #233, #259 ) ;
#70 = DIRECTION ( 'NONE',  ( 0.0000000000000000000, 0.0000000000000000000, -1.000000000000000000 ) ) ;
#71 = VERTEX_POINT ( 'NONE', #357 ) ;
#72 = DATE_TIME_ROLE ( 'creation_date' ) ;
#73 = CARTESIAN_POINT ( 'NONE',  ( -14.66999999999999800, 1.796556854349167200E-015, 1.320000000000004300 ) ) ;
#74 = CALENDAR_DATE ( 2022, 23, 11 ) ;
#75 = FACE_OUTER_BOUND ( 'NONE', #184, .T. ) ;
#76 = APPLICATION_CONTEXT ( 'configuration controlled 3d designs of mechanical parts and assemblies' ) ;
#77 = CC_DESIGN_APPROVAL ( #48, ( #295 ) ) ;
#78 = ORIENTED_EDGE ( 'NONE', *, *, #195, .F. ) ;
#79 = APPROVAL_ROLE ( '' ) ;
#80 = VERTEX_POINT ( 'NONE', #167 ) ;
#81 = CARTESIAN_POINT ( 'NONE',  ( 0.0000000000000000000, 0.0000000000000000000, -1.649999999999995700 ) ) ;
#82 = AXIS2_PLACEMENT_3D ( 'NONE', #135, #237, #400 ) ;
#83 = SHAPE_DEFINITION_REPRESENTATION ( #87, #383 ) ;
#84 = TOROIDAL_SURFACE ( 'NONE', #82, 14.66999999999999800, 0.3300000000000000200 ) ;
#85 = AXIS2_PLACEMENT_3D ( 'NONE', #450, #242, #280 ) ;
#86 = EDGE_LOOP ( 'NONE', ( #454, #419 ) ) ;
#87 = PRODUCT_DEFINITION_SHAPE ( 'NONE', 'NONE',  #422 ) ;
#88 = ORIENTED_EDGE ( 'NONE', *, *, #367, .T. ) ;
#89 = EDGE_CURVE ( 'NONE', #393, #212, #189, .T. ) ;
#90 = VERTEX_POINT ( 'NONE', #404 ) ;
#91 = ORIENTED_EDGE ( 'NONE', *, *, #414, .T. ) ;
#92 = CLOSED_SHELL ( 'NONE', ( #334, #56, #66, #381, #117, #179, #353, #243, #151, #455, #111, #153, #379, #59 ) ) ;
#93 = VERTEX_POINT ( 'NONE', #95 ) ;
#94 = PERSON ( 'UNSPECIFIED', 'UNSPECIFIED', 'UNSPECIFIED', ('UNSPECIFIED'), ('UNSPECIFIED'), ('UNSPECIFIED') ) ;
#95 = CARTESIAN_POINT ( 'NONE',  ( 15.00000000000000000, 0.0000000000000000000, 1.320000000000004300 ) ) ;
#96 = DATE_AND_TIME ( #337, #255 ) ;
#97 = DIRECTION ( 'NONE',  ( 0.0000000000000000000, 0.0000000000000000000, 1.000000000000000000 ) ) ;
#98 = EDGE_CURVE ( 'NONE', #93, #446, #326, .T. ) ;
#99 = CARTESIAN_POINT ( 'NONE',  ( 0.0000000000000000000, 0.0000000000000000000, -1.319999999999995600 ) ) ;
#100 = ORIENTED_EDGE ( 'NONE', *, *, #16, .F. ) ;
#101 = VERTEX_POINT ( 'NONE', #178 ) ;
#102 = DIRECTION ( 'NONE',  ( 0.0000000000000000000, 0.0000000000000000000, 1.000000000000000000 ) ) ;
#103 = CARTESIAN_POINT ( 'NONE',  ( 14.66999999999999800, 0.0000000000000000000, -1.649999999999995700 ) ) ;
#104 = CARTESIAN_POINT ( 'NONE',  ( 0.0000000000000000000, 0.0000000000000000000, -1.319999999999995600 ) ) ;
#105 = DIRECTION ( 'NONE',  ( 0.0000000000000000000, 0.0000000000000000000, 1.000000000000000000 ) ) ;
#106 = ORIENTED_EDGE ( 'NONE', *, *, #391, .F. ) ;
#107 = EDGE_CURVE ( 'NONE', #393, #6, #251, .T. ) ;
#108 = CARTESIAN_POINT ( 'NONE',  ( 8.830000000000001800, 0.0000000000000000000, 1.320000000000004300 ) ) ;
#109 = CARTESIAN_POINT ( 'NONE',  ( -8.500000000000000000, 1.040949779275250100E-015, -1.319999999999995600 ) ) ;
#110 = LINE ( 'NONE', #20, #199 ) ;
#111 = ADVANCED_FACE ( 'NONE', ( #235 ), #84, .T. ) ;
#112 = AXIS2_PLACEMENT_3D ( 'NONE', #374, #174, #209 ) ;
#113 = CARTESIAN_POINT ( 'NONE',  ( -8.830000000000001800, 1.081363123647112900E-015, -1.319999999999995600 ) ) ;
#114 = EDGE_LOOP ( 'NONE', ( #35, #88, #350, #22 ) ) ;
#115 = CARTESIAN_POINT ( 'NONE',  ( 15.00000000000000000, 0.0000000000000000000, -1.649999999999995700 ) ) ;
#116 = DIRECTION ( 'NONE',  ( 0.0000000000000000000, 0.0000000000000000000, 1.000000000000000000 ) ) ;
#117 = ADVANCED_FACE ( 'NONE', ( #315 ), #13, .F. ) ;
#118 = PERSON_AND_ORGANIZATION ( #94, #180 ) ;
#119 = DIRECTION ( 'NONE',  ( 0.0000000000000000000, 0.0000000000000000000, 1.000000000000000000 ) ) ;
#120 = CC_DESIGN_PERSON_AND_ORGANIZATION_ASSIGNMENT ( #244, #200, ( #390 ) ) ;
#121 = EDGE_CURVE ( 'NONE', #266, #302, #238, .T. ) ;
#122 = DIRECTION ( 'NONE',  ( 1.000000000000000000, 0.0000000000000000000, 0.0000000000000000000 ) ) ;
#123 = ORIENTED_EDGE ( 'NONE', *, *, #376, .F. ) ;
#124 = APPLICATION_PROTOCOL_DEFINITION ( 'international standard', 'config_control_design', 1994, #319 ) ;
#125 = CIRCLE ( 'NONE', #226, 0.3300000000000000200 ) ;
#126 = DIRECTION ( 'NONE',  ( -0.0000000000000000000, -0.0000000000000000000, -1.000000000000000000 ) ) ;
#127 = EDGE_LOOP ( 'NONE', ( #7, #52, #313, #363 ) ) ;
#128 = PERSON_AND_ORGANIZATION ( #94, #180 ) ;
#129 = ORIENTED_EDGE ( 'NONE', *, *, #312, .F. ) ;
#130 = COORDINATED_UNIVERSAL_TIME_OFFSET ( 6, 0, .BEHIND. ) ;
#131 = CIRCLE ( 'NONE', #378, 8.830000000000001800 ) ;
#132 = EDGE_CURVE ( 'NONE', #241, #156, #392, .T. ) ;
#133 = AXIS2_PLACEMENT_3D ( 'NONE', #360, #197, #41 ) ;
#134 = ORIENTED_EDGE ( 'NONE', *, *, #224, .T. ) ;
#135 = CARTESIAN_POINT ( 'NONE',  ( 0.0000000000000000000, 0.0000000000000000000, -1.319999999999995600 ) ) ;
#136 = CARTESIAN_POINT ( 'NONE',  ( 0.0000000000000000000, 0.0000000000000000000, -1.649999999999995700 ) ) ;
#137 = CC_DESIGN_SECURITY_CLASSIFICATION ( #390, ( #295 ) ) ;
#138 = FACE_OUTER_BOUND ( 'NONE', #141, .T. ) ;
#139 = DIRECTION ( 'NONE',  ( 0.0000000000000000000, 0.0000000000000000000, 1.000000000000000000 ) ) ;
#140 = CARTESIAN_POINT ( 'NONE',  ( 0.0000000000000000000, 0.0000000000000000000, -1.649999999999995700 ) ) ;
#141 = EDGE_LOOP ( 'NONE', ( #211, #91, #106, #362 ) ) ;
#142 = EDGE_CURVE ( 'NONE', #212, #393, #159, .T. ) ;
#143 = DIRECTION ( 'NONE',  ( -0.0000000000000000000, -0.0000000000000000000, -1.000000000000000000 ) ) ;
#144 = FACE_BOUND ( 'NONE', #86, .T. ) ;
#145 = ORIENTED_EDGE ( 'NONE', *, *, #168, .F. ) ;
#146 = DIRECTION ( 'NONE',  ( -0.0000000000000000000, -0.0000000000000000000, -1.000000000000000000 ) ) ;
#147 = DIRECTION ( 'NONE',  ( 0.0000000000000000000, 0.0000000000000000000, -1.000000000000000000 ) ) ;
#148 = DIRECTION ( 'NONE',  ( 0.0000000000000000000, 0.0000000000000000000, 1.000000000000000000 ) ) ;
#149 = CC_DESIGN_PERSON_AND_ORGANIZATION_ASSIGNMENT ( #355, #34, ( #430 ) ) ;
#150 = DIRECTION ( 'NONE',  ( 0.0000000000000000000, 0.0000000000000000000, 1.000000000000000000 ) ) ;
#151 = ADVANCED_FACE ( 'NONE', ( #53 ), #310, .F. ) ;
#152 = TOROIDAL_SURFACE ( 'NONE', #328, 8.830000000000001800, 0.3300000000000000200 ) ;
#153 = ADVANCED_FACE ( 'NONE', ( #451 ), #152, .T. ) ;
#154 = APPLICATION_PROTOCOL_DEFINITION ( 'international standard', 'config_control_design', 1994, #76 ) ;
#155 = UNCERTAINTY_MEASURE_WITH_UNIT (LENGTH_MEASURE( 1.000000000000000100E-005 ), #386, 'distance_accuracy_value', 'NONE');
#156 = VERTEX_POINT ( 'NONE', #11 ) ;
#157 = CARTESIAN_POINT ( 'NONE',  ( 0.0000000000000000000, 0.0000000000000000000, 0.0000000000000000000 ) ) ;
#158 = LOCAL_TIME ( 14, 9, 14.00000000000000000, #194 ) ;
#159 = CIRCLE ( 'NONE', #162, 15.00000000000000000 ) ;
#160 = APPROVAL_ROLE ( '' ) ;
#161 = ORIENTED_EDGE ( 'NONE', *, *, #98, .T. ) ;
#162 = AXIS2_PLACEMENT_3D ( 'NONE', #276, #377, #431 ) ;
#163 = EDGE_LOOP ( 'NONE', ( #401, #236 ) ) ;
#164 = FACE_OUTER_BOUND ( 'NONE', #63, .T. ) ;
#165 = AXIS2_PLACEMENT_3D ( 'NONE', #252, #318, #191 ) ;
#166 = PRODUCT_RELATED_PRODUCT_CATEGORY ( 'detail', '', ( #430 ) ) ;
#167 = CARTESIAN_POINT ( 'NONE',  ( -8.830000000000001800, 1.081363123647112900E-015, 1.650000000000004400 ) ) ;
#168 = EDGE_CURVE ( 'NONE', #101, #260, #229, .T. ) ;
#169 = DATE_AND_TIME ( #279, #60 ) ;
#170 = CIRCLE ( 'NONE', #364, 0.3300000000000000200 ) ;
#171 = ORIENTED_EDGE ( 'NONE', *, *, #168, .T. ) ;
#172 = ORIENTED_EDGE ( 'NONE', *, *, #107, .F. ) ;
#173 = ORIENTED_EDGE ( 'NONE', *, *, #142, .F. ) ;
#174 = DIRECTION ( 'NONE',  ( -0.0000000000000000000, -0.0000000000000000000, -1.000000000000000000 ) ) ;
#175 = CC_DESIGN_PERSON_AND_ORGANIZATION_ASSIGNMENT ( #118, #453, ( #295 ) ) ;
#176 = CIRCLE ( 'NONE', #204, 14.66999999999999800 ) ;
#177 = EDGE_CURVE ( 'NONE', #90, #368, #287, .T. ) ;
#178 = CARTESIAN_POINT ( 'NONE',  ( -14.66999999999999800, 1.816763526535098200E-015, -1.649999999999995700 ) ) ;
#179 = ADVANCED_FACE ( 'NONE', ( #75 ), #61, .T. ) ;
#180 = ORGANIZATION ( 'UNSPECIFIED', 'UNSPECIFIED', '' ) ;
#181 = DIRECTION ( 'NONE',  ( -1.000000000000000000, 1.224646799147353900E-016, 0.0000000000000000000 ) ) ;
#182 = CIRCLE ( 'NONE', #396, 8.500000000000000000 ) ;
#183 = EDGE_LOOP ( 'NONE', ( #277, #123, #161, #387 ) ) ;
#184 = EDGE_LOOP ( 'NONE', ( #8, #205, #196, #432 ) ) ;
#185 = MANIFOLD_SOLID_BREP ( 'Fillet1', #92 ) ;
#186 = DIRECTION ( 'NONE',  ( 1.000000000000000000, 0.0000000000000000000, 0.0000000000000000000 ) ) ;
#187 = DIRECTION ( 'NONE',  ( 0.0000000000000000000, 0.0000000000000000000, 1.000000000000000000 ) ) ;
#188 = COORDINATED_UNIVERSAL_TIME_OFFSET ( 6, 0, .BEHIND. ) ;
#189 = CIRCLE ( 'NONE', #291, 15.00000000000000000 ) ;
#190 = AXIS2_PLACEMENT_3D ( 'NONE', #314, #413, #36 ) ;
#191 = DIRECTION ( 'NONE',  ( 1.000000000000000000, 0.0000000000000000000, 0.0000000000000000000 ) ) ;
#192 = CARTESIAN_POINT ( 'NONE',  ( 0.0000000000000000000, 0.0000000000000000000, 1.650000000000004400 ) ) ;
#193 = DIRECTION ( 'NONE',  ( 0.0000000000000000000, 0.0000000000000000000, 1.000000000000000000 ) ) ;
#194 = COORDINATED_UNIVERSAL_TIME_OFFSET ( 6, 0, .BEHIND. ) ;
#195 = EDGE_CURVE ( 'NONE', #421, #80, #131, .T. ) ;
#196 = ORIENTED_EDGE ( 'NONE', *, *, #67, .T. ) ;
#197 = DIRECTION ( 'NONE',  ( 0.0000000000000000000, 0.0000000000000000000, 1.000000000000000000 ) ) ;
#198 = COORDINATED_UNIVERSAL_TIME_OFFSET ( 6, 0, .BEHIND. ) ;
#199 = VECTOR ( 'NONE', #187, 1000.000000000000000 ) ;
#200 = PERSON_AND_ORGANIZATION_ROLE ( 'classification_officer' ) ;
#201 = EDGE_CURVE ( 'NONE', #266, #241, #110, .T. ) ;
#202 = ORIENTED_EDGE ( 'NONE', *, *, #391, .T. ) ;
#203 = AXIS2_PLACEMENT_3D ( 'NONE', #4, #263, #361 ) ;
#204 = AXIS2_PLACEMENT_3D ( 'NONE', #290, #254, #122 ) ;
#205 = ORIENTED_EDGE ( 'NONE', *, *, #107, .T. ) ;
#206 = CC_DESIGN_APPROVAL ( #436, ( #390 ) ) ;
#207 = APPROVAL_DATE_TIME ( #169, #48 ) ;
#208 = FACE_BOUND ( 'NONE', #163, .T. ) ;
#209 = DIRECTION ( 'NONE',  ( 1.000000000000000000, 0.0000000000000000000, 0.0000000000000000000 ) ) ;
#210 = CARTESIAN_POINT ( 'NONE',  ( 0.0000000000000000000, 0.0000000000000000000, 1.320000000000004300 ) ) ;
#211 = ORIENTED_EDGE ( 'NONE', *, *, #67, .F. ) ;
#212 = VERTEX_POINT ( 'NONE', #343 ) ;
#213 = DIRECTION ( 'NONE',  ( 0.0000000000000000000, 0.0000000000000000000, 1.000000000000000000 ) ) ;
#214 = CC_DESIGN_PERSON_AND_ORGANIZATION_ASSIGNMENT ( #365, #292, ( #422 ) ) ;
#215 = DIRECTION ( 'NONE',  ( -0.0000000000000000000, -0.0000000000000000000, -1.000000000000000000 ) ) ;
#216 = DIRECTION ( 'NONE',  ( 1.000000000000000000, 0.0000000000000000000, 0.0000000000000000000 ) ) ;
#217 = CARTESIAN_POINT ( 'NONE',  ( 0.0000000000000000000, 0.0000000000000000000, -1.649999999999995700 ) ) ;
#218 = CIRCLE ( 'NONE', #425, 0.3300000000000004000 ) ;
#219 = AXIS2_PLACEMENT_3D ( 'NONE', #407, #58, #411 ) ;
#220 = DIRECTION ( 'NONE',  ( 1.000000000000000000, 0.0000000000000000000, 0.0000000000000000000 ) ) ;
#221 = DIRECTION ( 'NONE',  ( 1.000000000000000000, 0.0000000000000000000, 0.0000000000000000000 ) ) ;
#222 = ORIENTED_EDGE ( 'NONE', *, *, #423, .T. ) ;
#223 = APPROVAL_STATUS ( 'not_yet_approved' ) ;
#224 = EDGE_CURVE ( 'NONE', #156, #241, #182, .T. ) ;
#225 = CARTESIAN_POINT ( 'NONE',  ( -15.00000000000000000, 1.836970198721029600E-015, -1.319999999999995600 ) ) ;
#226 = AXIS2_PLACEMENT_3D ( 'NONE', #108, #342, #147 ) ;
#227 = DIRECTION ( 'NONE',  ( 1.000000000000000000, 0.0000000000000000000, -0.0000000000000000000 ) ) ;
#228 = LOCAL_TIME ( 14, 9, 14.00000000000000000, #398 ) ;
#229 = CIRCLE ( 'NONE', #249, 14.66999999999999800 ) ;
#230 = AXIS2_PLACEMENT_3D ( 'NONE', #136, #434, #15 ) ;
#231 = EDGE_LOOP ( 'NONE', ( #145, #331, #173, #5 ) ) ;
#232 = CIRCLE ( 'NONE', #265, 0.3300000000000004000 ) ;
#233 = DIRECTION ( 'NONE',  ( 0.0000000000000000000, 0.0000000000000000000, 1.000000000000000000 ) ) ;
#234 = EDGE_LOOP ( 'NONE', ( #325, #289, #375, #261 ) ) ;
#235 = FACE_OUTER_BOUND ( 'NONE', #282, .T. ) ;
#236 = ORIENTED_EDGE ( 'NONE', *, *, #33, .T. ) ;
#237 = DIRECTION ( 'NONE',  ( 0.0000000000000000000, 0.0000000000000000000, 1.000000000000000000 ) ) ;
#238 = CIRCLE ( 'NONE', #112, 8.500000000000000000 ) ;
#239 = CARTESIAN_POINT ( 'NONE',  ( -15.00000000000000000, 1.836970198721029600E-015, -1.649999999999995700 ) ) ;
#240 = DIRECTION ( 'NONE',  ( 1.000000000000000000, 0.0000000000000000000, 0.0000000000000000000 ) ) ;
#241 = VERTEX_POINT ( 'NONE', #311 ) ;
#242 = DIRECTION ( 'NONE',  ( 0.0000000000000000000, 0.0000000000000000000, 1.000000000000000000 ) ) ;
#243 = ADVANCED_FACE ( 'NONE', ( #164, #208 ), #18, .F. ) ;
#244 = PERSON_AND_ORGANIZATION ( #94, #180 ) ;
#245 = TOROIDAL_SURFACE ( 'NONE', #433, 8.830000000000001800, 0.3300000000000000200 ) ;
#246 = CARTESIAN_POINT ( 'NONE',  ( 8.500000000000000000, 0.0000000000000000000, -1.319999999999995600 ) ) ;
#247 = EDGE_CURVE ( 'NONE', #302, #266, #427, .T. ) ;
#248 = CARTESIAN_POINT ( 'NONE',  ( -8.500000000000000000, 1.040949779275250100E-015, -1.649999999999995700 ) ) ;
#249 = AXIS2_PLACEMENT_3D ( 'NONE', #140, #215, #439 ) ;
#250 = DIRECTION ( 'NONE',  ( 0.0000000000000000000, 0.0000000000000000000, 1.000000000000000000 ) ) ;
#251 = LINE ( 'NONE', #239, #297 ) ;
#252 = CARTESIAN_POINT ( 'NONE',  ( 0.0000000000000000000, 0.0000000000000000000, 1.320000000000004300 ) ) ;
#253 = MECHANICAL_CONTEXT ( 'NONE', #76, 'mechanical' ) ;
#254 = DIRECTION ( 'NONE',  ( 0.0000000000000000000, 0.0000000000000000000, 1.000000000000000000 ) ) ;
#255 = LOCAL_TIME ( 14, 9, 14.00000000000000000, #130 ) ;
#256 = LINE ( 'NONE', #115, #330 ) ;
#257 = AXIS2_PLACEMENT_3D ( 'NONE', #50, #437, #240 ) ;
#258 = EDGE_LOOP ( 'NONE', ( #129, #78, #372, #373 ) ) ;
#259 = DIRECTION ( 'NONE',  ( 1.000000000000000000, 0.0000000000000000000, 0.0000000000000000000 ) ) ;
#260 = VERTEX_POINT ( 'NONE', #103 ) ;
#261 = ORIENTED_EDGE ( 'NONE', *, *, #54, .F. ) ;
#262 = EDGE_LOOP ( 'NONE', ( #172, #429, #21, #438 ) ) ;
#263 = DIRECTION ( 'NONE',  ( 0.0000000000000000000, -1.000000000000000000, 0.0000000000000000000 ) ) ;
#264 = LINE ( 'NONE', #248, #45 ) ;
#265 = AXIS2_PLACEMENT_3D ( 'NONE', #389, #299, #327 ) ;
#266 = VERTEX_POINT ( 'NONE', #246 ) ;
#267 = AXIS2_PLACEMENT_3D ( 'NONE', #73, #416, #38 ) ;
#268 = CIRCLE ( 'NONE', #203, 0.3300000000000000200 ) ;
#269 = ORIENTED_EDGE ( 'NONE', *, *, #298, .F. ) ;
#270 = DIRECTION ( 'NONE',  ( 1.000000000000000000, 0.0000000000000000000, 0.0000000000000000000 ) ) ;
#271 = EDGE_CURVE ( 'NONE', #80, #421, #2, .T. ) ;
#272 = CARTESIAN_POINT ( 'NONE',  ( 0.0000000000000000000, 0.0000000000000000000, -1.649999999999995700 ) ) ;
#273 = DATE_AND_TIME ( #74, #228 ) ;
#274 = FACE_OUTER_BOUND ( 'NONE', #183, .T. ) ;
#275 = DIRECTION ( 'NONE',  ( 0.0000000000000000000, 0.0000000000000000000, -1.000000000000000000 ) ) ;
#276 = CARTESIAN_POINT ( 'NONE',  ( 0.0000000000000000000, 0.0000000000000000000, -1.319999999999995600 ) ) ;
#277 = ORIENTED_EDGE ( 'NONE', *, *, #414, .F. ) ;
#278 = CARTESIAN_POINT ( 'NONE',  ( 0.0000000000000000000, 0.0000000000000000000, -1.649999999999995700 ) ) ;
#279 = CALENDAR_DATE ( 2022, 23, 11 ) ;
#280 = DIRECTION ( 'NONE',  ( 1.000000000000000000, 0.0000000000000000000, 0.0000000000000000000 ) ) ;
#281 = DIRECTION ( 'NONE',  ( 1.000000000000000000, 0.0000000000000000000, 0.0000000000000000000 ) ) ;
#282 = EDGE_LOOP ( 'NONE', ( #100, #269, #30, #42 ) ) ;
#283 = DIRECTION ( 'NONE',  ( -0.0000000000000000000, -0.0000000000000000000, -1.000000000000000000 ) ) ;
#284 = AXIS2_PLACEMENT_3D ( 'NONE', #410, #283, #285 ) ;
#285 = DIRECTION ( 'NONE',  ( 1.000000000000000000, 0.0000000000000000000, 0.0000000000000000000 ) ) ;
#286 = APPROVAL_PERSON_ORGANIZATION ( #128, #48, #354 ) ;
#287 = CIRCLE ( 'NONE', #352, 8.830000000000001800 ) ;
#288 = DIRECTION ( 'NONE',  ( 1.000000000000000000, 0.0000000000000000000, 0.0000000000000000000 ) ) ;
#289 = ORIENTED_EDGE ( 'NONE', *, *, #312, .T. ) ;
#290 = CARTESIAN_POINT ( 'NONE',  ( 0.0000000000000000000, 0.0000000000000000000, 1.650000000000004400 ) ) ;
#291 = AXIS2_PLACEMENT_3D ( 'NONE', #99, #97, #17 ) ;
#292 = PERSON_AND_ORGANIZATION_ROLE ( 'creator' ) ;
#293 =( NAMED_UNIT ( * ) SI_UNIT ( $, .STERADIAN. ) SOLID_ANGLE_UNIT ( ) );
#294 = AXIS2_PLACEMENT_3D ( 'NONE', #445, #339, #23 ) ;
#295 = PRODUCT_DEFINITION_FORMATION_WITH_SPECIFIED_SOURCE ( 'ANY', '', #430, .NOT_KNOWN. ) ;
#296 = APPROVAL_PERSON_ORGANIZATION ( #301, #448, #160 ) ;
#297 = VECTOR ( 'NONE', #308, 1000.000000000000000 ) ;
#298 = EDGE_CURVE ( 'NONE', #260, #101, #435, .T. ) ;
#299 = DIRECTION ( 'NONE',  ( 1.224646799147353200E-016, 1.000000000000000000, -0.0000000000000000000 ) ) ;
#300 = AXIS2_PLACEMENT_3D ( 'NONE', #380, #148, #220 ) ;
#301 = PERSON_AND_ORGANIZATION ( #94, #180 ) ;
#302 = VERTEX_POINT ( 'NONE', #109 ) ;
#303 = ORIENTED_EDGE ( 'NONE', *, *, #409, .T. ) ;
#304 = DIRECTION ( 'NONE',  ( 1.000000000000000000, 0.0000000000000000000, 0.0000000000000000000 ) ) ;
#305 = DIRECTION ( 'NONE',  ( 1.000000000000000000, 0.0000000000000000000, 0.0000000000000000000 ) ) ;
#306 = CIRCLE ( 'NONE', #267, 0.3300000000000004000 ) ;
#307 = AXIS2_PLACEMENT_3D ( 'NONE', #369, #332, #275 ) ;
#308 = DIRECTION ( 'NONE',  ( 0.0000000000000000000, 0.0000000000000000000, 1.000000000000000000 ) ) ;
#309 = DIRECTION ( 'NONE',  ( 0.0000000000000000000, 0.0000000000000000000, 1.000000000000000000 ) ) ;
#310 = CYLINDRICAL_SURFACE ( 'NONE', #230, 8.500000000000000000 ) ;
#311 = CARTESIAN_POINT ( 'NONE',  ( 8.500000000000000000, 0.0000000000000000000, 1.320000000000004300 ) ) ;
#312 = EDGE_CURVE ( 'NONE', #80, #156, #405, .T. ) ;
#313 = ORIENTED_EDGE ( 'NONE', *, *, #201, .T. ) ;
#314 = CARTESIAN_POINT ( 'NONE',  ( 0.0000000000000000000, 0.0000000000000000000, -1.319999999999995600 ) ) ;
#315 = FACE_OUTER_BOUND ( 'NONE', #29, .T. ) ;
#316 = AXIS2_PLACEMENT_3D ( 'NONE', #358, #119, #288 ) ;
#317 = APPROVAL_STATUS ( 'not_yet_approved' ) ;
#318 = DIRECTION ( 'NONE',  ( -0.0000000000000000000, -0.0000000000000000000, -1.000000000000000000 ) ) ;
#319 = APPLICATION_CONTEXT ( 'configuration controlled 3d designs of mechanical parts and assemblies' ) ;
#320 = APPROVAL_DATE_TIME ( #26, #436 ) ;
#321 = CIRCLE ( 'NONE', #51, 15.00000000000000000 ) ;
#322 = AXIS2_PLACEMENT_3D ( 'NONE', #452, #359, #418 ) ;
#323 = DATE_TIME_ROLE ( 'classification_date' ) ;
#324 = CARTESIAN_POINT ( 'NONE',  ( 0.0000000000000000000, 0.0000000000000000000, 1.320000000000004300 ) ) ;
#325 = ORIENTED_EDGE ( 'NONE', *, *, #271, .F. ) ;
#326 = CIRCLE ( 'NONE', #307, 0.3300000000000000200 ) ;
#327 = DIRECTION ( 'NONE',  ( -1.000000000000000000, 1.224646799147348000E-016, 0.0000000000000000000 ) ) ;
#328 = AXIS2_PLACEMENT_3D ( 'NONE', #403, #139, #270 ) ;
#329 = EDGE_LOOP ( 'NONE', ( #202, #303 ) ) ;
#330 = VECTOR ( 'NONE', #250, 1000.000000000000000 ) ;
#331 = ORIENTED_EDGE ( 'NONE', *, *, #16, .T. ) ;
#332 = DIRECTION ( 'NONE',  ( 0.0000000000000000000, -1.000000000000000000, 0.0000000000000000000 ) ) ;
#333 = ORIENTED_EDGE ( 'NONE', *, *, #121, .F. ) ;
#334 = ADVANCED_FACE ( 'NONE', ( #138 ), #39, .T. ) ;
#335 = FACE_OUTER_BOUND ( 'NONE', #231, .T. ) ;
#336 = DIRECTION ( 'NONE',  ( 1.000000000000000000, 0.0000000000000000000, 0.0000000000000000000 ) ) ;
#337 = CALENDAR_DATE ( 2022, 23, 11 ) ;
#338 = TOROIDAL_SURFACE ( 'NONE', #133, 8.830000000000001800, 0.3300000000000000200 ) ;
#339 = DIRECTION ( 'NONE',  ( 1.224646799147353200E-016, 1.000000000000000000, -0.0000000000000000000 ) ) ;
#340 = EDGE_CURVE ( 'NONE', #302, #156, #264, .T. ) ;
#341 = CARTESIAN_POINT ( 'NONE',  ( -8.830000000000001800, 1.081363123647112900E-015, -1.649999999999995700 ) ) ;
#342 = DIRECTION ( 'NONE',  ( 0.0000000000000000000, -1.000000000000000000, 0.0000000000000000000 ) ) ;
#343 = CARTESIAN_POINT ( 'NONE',  ( 15.00000000000000000, 0.0000000000000000000, -1.319999999999995600 ) ) ;
#344 = CALENDAR_DATE ( 2022, 23, 11 ) ;
#345 = DIRECTION ( 'NONE',  ( 1.224646799147353200E-016, 1.000000000000000000, -0.0000000000000000000 ) ) ;
#346 = CARTESIAN_POINT ( 'NONE',  ( -15.00000000000000000, 1.836970198721029600E-015, 1.320000000000004300 ) ) ;
#347 = TOROIDAL_SURFACE ( 'NONE', #190, 14.66999999999999800, 0.3300000000000000200 ) ;
#348 = AXIS2_PLACEMENT_3D ( 'NONE', #157, #116, #351 ) ;
#349 =( NAMED_UNIT ( * ) PLANE_ANGLE_UNIT ( ) SI_UNIT ( $, .RADIAN. ) );
#350 = ORIENTED_EDGE ( 'NONE', *, *, #177, .F. ) ;
#351 = DIRECTION ( 'NONE',  ( 1.000000000000000000, 0.0000000000000000000, 0.0000000000000000000 ) ) ;
#352 = AXIS2_PLACEMENT_3D ( 'NONE', #278, #102, #336 ) ;
#353 = ADVANCED_FACE ( 'NONE', ( #49 ), #384, .T. ) ;
#354 = APPROVAL_ROLE ( '' ) ;
#355 = PERSON_AND_ORGANIZATION ( #94, #180 ) ;
#356 = PLANE ( 'NONE',  #456 ) ;
#357 = CARTESIAN_POINT ( 'NONE',  ( -14.66999999999999800, 1.816763526535098200E-015, 1.650000000000004400 ) ) ;
#358 = CARTESIAN_POINT ( 'NONE',  ( 0.0000000000000000000, 0.0000000000000000000, 1.650000000000004400 ) ) ;
#359 = DIRECTION ( 'NONE',  ( 0.0000000000000000000, 0.0000000000000000000, 1.000000000000000000 ) ) ;
#360 = CARTESIAN_POINT ( 'NONE',  ( 0.0000000000000000000, 0.0000000000000000000, 1.320000000000004300 ) ) ;
#361 = DIRECTION ( 'NONE',  ( 0.0000000000000000000, 0.0000000000000000000, -1.000000000000000000 ) ) ;
#362 = ORIENTED_EDGE ( 'NONE', *, *, #98, .F. ) ;
#363 = ORIENTED_EDGE ( 'NONE', *, *, #132, .T. ) ;
#364 = AXIS2_PLACEMENT_3D ( 'NONE', #388, #385, #70 ) ;
#365 = PERSON_AND_ORGANIZATION ( #94, #180 ) ;
#366 = CC_DESIGN_PERSON_AND_ORGANIZATION_ASSIGNMENT ( #1, #3, ( #295 ) ) ;
#367 = EDGE_CURVE ( 'NONE', #302, #368, #218, .T. ) ;
#368 = VERTEX_POINT ( 'NONE', #341 ) ;
#369 = CARTESIAN_POINT ( 'NONE',  ( 14.66999999999999800, 0.0000000000000000000, 1.320000000000004300 ) ) ;
#370 = APPROVAL_PERSON_ORGANIZATION ( #408, #436, #79 ) ;
#371 = TOROIDAL_SURFACE ( 'NONE', #219, 8.830000000000001800, 0.3300000000000000200 ) ;
#372 = ORIENTED_EDGE ( 'NONE', *, *, #54, .T. ) ;
#373 = ORIENTED_EDGE ( 'NONE', *, *, #224, .F. ) ;
#374 = CARTESIAN_POINT ( 'NONE',  ( 0.0000000000000000000, 0.0000000000000000000, -1.319999999999995600 ) ) ;
#375 = ORIENTED_EDGE ( 'NONE', *, *, #132, .F. ) ;
#376 = EDGE_CURVE ( 'NONE', #93, #6, #395, .T. ) ;
#377 = DIRECTION ( 'NONE',  ( 0.0000000000000000000, 0.0000000000000000000, 1.000000000000000000 ) ) ;
#378 = AXIS2_PLACEMENT_3D ( 'NONE', #28, #447, #186 ) ;
#379 = ADVANCED_FACE ( 'NONE', ( #27 ), #371, .T. ) ;
#380 = CARTESIAN_POINT ( 'NONE',  ( 0.0000000000000000000, 0.0000000000000000000, 1.320000000000004300 ) ) ;
#381 = ADVANCED_FACE ( 'NONE', ( #335 ), #347, .T. ) ;
#382 = DIRECTION ( 'NONE',  ( 1.000000000000000000, 0.0000000000000000000, -0.0000000000000000000 ) ) ;
#383 = ADVANCED_BREP_SHAPE_REPRESENTATION ( '90965A230_316 Stainless Steel Washer', ( #185, #348 ), #19 ) ;
#384 = CYLINDRICAL_SURFACE ( 'NONE', #85, 15.00000000000000000 ) ;
#385 = DIRECTION ( 'NONE',  ( 0.0000000000000000000, -1.000000000000000000, 0.0000000000000000000 ) ) ;
#386 =( LENGTH_UNIT ( ) NAMED_UNIT ( * ) SI_UNIT ( .MILLI., .METRE. ) );
#387 = ORIENTED_EDGE ( 'NONE', *, *, #409, .F. ) ;
#388 = CARTESIAN_POINT ( 'NONE',  ( 8.830000000000001800, 0.0000000000000000000, -1.319999999999995600 ) ) ;
#389 = CARTESIAN_POINT ( 'NONE',  ( -14.66999999999999800, 1.796556854349167200E-015, -1.319999999999995600 ) ) ;
#390 = SECURITY_CLASSIFICATION ( '', '', #40 ) ;
#391 = EDGE_CURVE ( 'NONE', #446, #71, #417, .T. ) ;
#392 = CIRCLE ( 'NONE', #9, 8.500000000000000000 ) ;
#393 = VERTEX_POINT ( 'NONE', #225 ) ;
#394 = EDGE_CURVE ( 'NONE', #212, #93, #256, .T. ) ;
#395 = CIRCLE ( 'NONE', #165, 15.00000000000000000 ) ;
#396 = AXIS2_PLACEMENT_3D ( 'NONE', #440, #105, #25 ) ;
#397 = ORIENTED_EDGE ( 'NONE', *, *, #367, .F. ) ;
#398 = COORDINATED_UNIVERSAL_TIME_OFFSET ( 6, 0, .BEHIND. ) ;
#399 = CIRCLE ( 'NONE', #69, 8.830000000000001800 ) ;
#400 = DIRECTION ( 'NONE',  ( 1.000000000000000000, 0.0000000000000000000, 0.0000000000000000000 ) ) ;
#401 = ORIENTED_EDGE ( 'NONE', *, *, #177, .T. ) ;
#402 = ORIENTED_EDGE ( 'NONE', *, *, #298, .T. ) ;
#403 = CARTESIAN_POINT ( 'NONE',  ( 0.0000000000000000000, 0.0000000000000000000, -1.319999999999995600 ) ) ;
#404 = CARTESIAN_POINT ( 'NONE',  ( 8.830000000000001800, 0.0000000000000000000, -1.649999999999995700 ) ) ;
#405 = CIRCLE ( 'NONE', #294, 0.3300000000000004000 ) ;
#406 = DIRECTION ( 'NONE',  ( 0.0000000000000000000, 0.0000000000000000000, 1.000000000000000000 ) ) ;
#407 = CARTESIAN_POINT ( 'NONE',  ( 0.0000000000000000000, 0.0000000000000000000, 1.320000000000004300 ) ) ;
#408 = PERSON_AND_ORGANIZATION ( #94, #180 ) ;
#409 = EDGE_CURVE ( 'NONE', #71, #446, #176, .T. ) ;
#410 = CARTESIAN_POINT ( 'NONE',  ( 0.0000000000000000000, 0.0000000000000000000, -1.649999999999995700 ) ) ;
#411 = DIRECTION ( 'NONE',  ( 1.000000000000000000, 0.0000000000000000000, 0.0000000000000000000 ) ) ;
#412 = TOROIDAL_SURFACE ( 'NONE', #322, 14.66999999999999800, 0.3300000000000000200 ) ;
#413 = DIRECTION ( 'NONE',  ( 0.0000000000000000000, 0.0000000000000000000, 1.000000000000000000 ) ) ;
#414 = EDGE_CURVE ( 'NONE', #6, #71, #306, .T. ) ;
#415 = CARTESIAN_POINT ( 'NONE',  ( 14.66999999999999800, 0.0000000000000000000, 1.650000000000004400 ) ) ;
#416 = DIRECTION ( 'NONE',  ( 1.224646799147353200E-016, 1.000000000000000000, -0.0000000000000000000 ) ) ;
#417 = CIRCLE ( 'NONE', #316, 14.66999999999999800 ) ;
#418 = DIRECTION ( 'NONE',  ( 1.000000000000000000, 0.0000000000000000000, 0.0000000000000000000 ) ) ;
#419 = ORIENTED_EDGE ( 'NONE', *, *, #271, .T. ) ;
#420 = APPROVAL_STATUS ( 'not_yet_approved' ) ;
#421 = VERTEX_POINT ( 'NONE', #457 ) ;
#422 = PRODUCT_DEFINITION ( 'UNKNOWN', '', #295, #44 ) ;
#423 = EDGE_CURVE ( 'NONE', #266, #90, #170, .T. ) ;
#424 = FACE_OUTER_BOUND ( 'NONE', #114, .T. ) ;
#425 = AXIS2_PLACEMENT_3D ( 'NONE', #113, #345, #181 ) ;
#426 = APPROVAL_DATE_TIME ( #273, #448 ) ;
#427 = CIRCLE ( 'NONE', #57, 8.500000000000000000 ) ;
#428 = ORIENTED_EDGE ( 'NONE', *, *, #340, .T. ) ;
#429 = ORIENTED_EDGE ( 'NONE', *, *, #89, .T. ) ;
#430 = PRODUCT ( '90965A230_316 Stainless Steel Washer', '90965A230_316 Stainless Steel Washer', '', ( #253 ) ) ;
#431 = DIRECTION ( 'NONE',  ( 1.000000000000000000, 0.0000000000000000000, 0.0000000000000000000 ) ) ;
#432 = ORIENTED_EDGE ( 'NONE', *, *, #394, .F. ) ;
#433 = AXIS2_PLACEMENT_3D ( 'NONE', #104, #406, #221 ) ;
#434 = DIRECTION ( 'NONE',  ( 0.0000000000000000000, 0.0000000000000000000, 1.000000000000000000 ) ) ;
#435 = CIRCLE ( 'NONE', #284, 14.66999999999999800 ) ;
#436 = APPROVAL ( #420, 'UNSPECIFIED' ) ;
#437 = DIRECTION ( 'NONE',  ( 0.0000000000000000000, 0.0000000000000000000, 1.000000000000000000 ) ) ;
#438 = ORIENTED_EDGE ( 'NONE', *, *, #376, .T. ) ;
#439 = DIRECTION ( 'NONE',  ( 1.000000000000000000, 0.0000000000000000000, 0.0000000000000000000 ) ) ;
#440 = CARTESIAN_POINT ( 'NONE',  ( 0.0000000000000000000, 0.0000000000000000000, 1.320000000000004300 ) ) ;
#441 = CALENDAR_DATE ( 2022, 23, 11 ) ;
#442 = CARTESIAN_POINT ( 'NONE',  ( 0.0000000000000000000, 0.0000000000000000000, -1.319999999999995600 ) ) ;
#443 = AXIS2_PLACEMENT_3D ( 'NONE', #272, #213, #304 ) ;
#444 = ORIENTED_EDGE ( 'NONE', *, *, #121, .T. ) ;
#445 = CARTESIAN_POINT ( 'NONE',  ( -8.830000000000001800, 1.081363123647112900E-015, 1.320000000000004300 ) ) ;
#446 = VERTEX_POINT ( 'NONE', #415 ) ;
#447 = DIRECTION ( 'NONE',  ( -0.0000000000000000000, -0.0000000000000000000, -1.000000000000000000 ) ) ;
#448 = APPROVAL ( #223, 'UNSPECIFIED' ) ;
#449 = LOCAL_TIME ( 14, 9, 14.00000000000000000, #198 ) ;
#450 = CARTESIAN_POINT ( 'NONE',  ( 0.0000000000000000000, 0.0000000000000000000, -1.649999999999995700 ) ) ;
#451 = FACE_OUTER_BOUND ( 'NONE', #32, .T. ) ;
#452 = CARTESIAN_POINT ( 'NONE',  ( 0.0000000000000000000, 0.0000000000000000000, 1.320000000000004300 ) ) ;
#453 = PERSON_AND_ORGANIZATION_ROLE ( 'creator' ) ;
#454 = ORIENTED_EDGE ( 'NONE', *, *, #195, .T. ) ;
#455 = ADVANCED_FACE ( 'NONE', ( #144, #12 ), #356, .T. ) ;
#456 = AXIS2_PLACEMENT_3D ( 'NONE', #192, #193, #227 ) ;
#457 = CARTESIAN_POINT ( 'NONE',  ( 8.830000000000001800, 0.0000000000000000000, 1.650000000000004400 ) ) ;
ENDSEC;
END-ISO-10303-21;
