ISO-10303-21;
HEADER;
FILE_DESCRIPTION (( 'STEP AP203' ),
    '1' );
FILE_NAME ('93475A230_18-8 Stainless Steel Washer.STEP',
    '2021-09-09T01:14:08',
    ( 'Administrator' ),
    ( 'Managed by Terraform' ),
    'SwSTEP 2.0',
    'SolidWorks 2017',
    '' );
FILE_SCHEMA (( 'CONFIG_CONTROL_DESIGN' ));
ENDSEC;

DATA;
#1 = CARTESIAN_POINT ( 'NONE',  ( -2.149999999999999900, 0.0000000000000000000, 0.9000000000000000200 ) ) ;
#2 = VECTOR ( 'NONE', #182, 1000.000000000000000 ) ;
#3 = CLOSED_SHELL ( 'NONE', ( #199, #56, #232, #198, #233, #114 ) ) ;
#4 = CIRCLE ( 'NONE', #28, 2.149999999999999900 ) ;
#5 = DIRECTION ( 'NONE',  ( 0.0000000000000000000, 0.0000000000000000000, 1.000000000000000000 ) ) ;
#6 = AXIS2_PLACEMENT_3D ( 'NONE', #103, #236, #78 ) ;
#7 = DIRECTION ( 'NONE',  ( -1.000000000000000000, 0.0000000000000000000, 0.0000000000000000000 ) ) ;
#8 = PERSON_AND_ORGANIZATION_ROLE ( 'design_owner' ) ;
#9 = CARTESIAN_POINT ( 'NONE',  ( 0.0000000000000000000, 0.0000000000000000000, 0.9000000000000000200 ) ) ;
#10 = DIRECTION ( 'NONE',  ( -0.0000000000000000000, -0.0000000000000000000, -1.000000000000000000 ) ) ;
#11 = DIRECTION ( 'NONE',  ( 0.0000000000000000000, 0.0000000000000000000, 1.000000000000000000 ) ) ;
#12 = DIRECTION ( 'NONE',  ( 1.000000000000000000, 0.0000000000000000000, 0.0000000000000000000 ) ) ;
#13 = CC_DESIGN_DATE_AND_TIME_ASSIGNMENT ( #180, #246, ( #51 ) ) ;
#14 = MANIFOLD_SOLID_BREP ( 'Boss-Extrude1', #3 ) ;
#15 = ORIENTED_EDGE ( 'NONE', *, *, #191, .T. ) ;
#16 = ORIENTED_EDGE ( 'NONE', *, *, #127, .T. ) ;
#17 = LINE ( 'NONE', #108, #196 ) ;
#18 = CALENDAR_DATE ( 2021, 8, 9 ) ;
#19 = CC_DESIGN_PERSON_AND_ORGANIZATION_ASSIGNMENT ( #134, #129, ( #170 ) ) ;
#20 = CARTESIAN_POINT ( 'NONE',  ( 0.0000000000000000000, 0.0000000000000000000, 0.9000000000000000200 ) ) ;
#21 = ORIENTED_EDGE ( 'NONE', *, *, #84, .F. ) ;
#22 = PERSON_AND_ORGANIZATION ( #99, #160 ) ;
#23 = DIRECTION ( 'NONE',  ( 1.000000000000000000, 0.0000000000000000000, 0.0000000000000000000 ) ) ;
#24 = DIRECTION ( 'NONE',  ( 0.0000000000000000000, 0.0000000000000000000, 1.000000000000000000 ) ) ;
#25 = LOCAL_TIME ( 20, 14, 8.000000000000000000, #80 ) ;
#26 = CIRCLE ( 'NONE', #154, 2.149999999999999900 ) ;
#27 = APPLICATION_PROTOCOL_DEFINITION ( 'international standard', 'config_control_design', 1994, #48 ) ;
#28 = AXIS2_PLACEMENT_3D ( 'NONE', #162, #63, #118 ) ;
#29 = CARTESIAN_POINT ( 'NONE',  ( 0.0000000000000000000, 0.0000000000000000000, 0.0000000000000000000 ) ) ;
#30 = PERSON_AND_ORGANIZATION ( #99, #160 ) ;
#31 = EDGE_LOOP ( 'NONE', ( #151, #81 ) ) ;
#32 = AXIS2_PLACEMENT_3D ( 'NONE', #244, #11, #209 ) ;
#33 = ORIENTED_EDGE ( 'NONE', *, *, #234, .T. ) ;
#34 = DATE_AND_TIME ( #158, #172 ) ;
#35 = AXIS2_PLACEMENT_3D ( 'NONE', #45, #146, #92 ) ;
#36 = VERTEX_POINT ( 'NONE', #40 ) ;
#37 = ORIENTED_EDGE ( 'NONE', *, *, #41, .F. ) ;
#38 = APPROVAL_PERSON_ORGANIZATION ( #200, #223, #222 ) ;
#39 = DIRECTION ( 'NONE',  ( 1.000000000000000000, 0.0000000000000000000, 0.0000000000000000000 ) ) ;
#40 = CARTESIAN_POINT ( 'NONE',  ( -2.149999999999999900, 0.0000000000000000000, 0.0000000000000000000 ) ) ;
#41 = EDGE_CURVE ( 'NONE', #171, #36, #26, .T. ) ;
#42 = VECTOR ( 'NONE', #68, 1000.000000000000000 ) ;
#43 = CARTESIAN_POINT ( 'NONE',  ( -4.500000000000000000, 0.0000000000000000000, 0.9000000000000000200 ) ) ;
#44 = CC_DESIGN_PERSON_AND_ORGANIZATION_ASSIGNMENT ( #123, #109, ( #51 ) ) ;
#45 = CARTESIAN_POINT ( 'NONE',  ( 0.0000000000000000000, 0.0000000000000000000, 0.0000000000000000000 ) ) ;
#46 = CIRCLE ( 'NONE', #67, 4.500000000000000000 ) ;
#47 = DIRECTION ( 'NONE',  ( 0.0000000000000000000, 0.0000000000000000000, 1.000000000000000000 ) ) ;
#48 = APPLICATION_CONTEXT ( 'configuration controlled 3d designs of mechanical parts and assemblies' ) ;
#49 = APPLICATION_CONTEXT ( 'configuration controlled 3d designs of mechanical parts and assemblies' ) ;
#50 = CARTESIAN_POINT ( 'NONE',  ( 4.500000000000000000, 5.510910596163088600E-016, 0.0000000000000000000 ) ) ;
#51 = SECURITY_CLASSIFICATION ( '', '', #224 ) ;
#52 = VECTOR ( 'NONE', #168, 1000.000000000000000 ) ;
#53 = EDGE_CURVE ( 'NONE', #55, #139, #65, .T. ) ;
#54 = EDGE_CURVE ( 'NONE', #185, #94, #46, .T. ) ;
#55 = VERTEX_POINT ( 'NONE', #1 ) ;
#56 = ADVANCED_FACE ( 'NONE', ( #248 ), #202, .T. ) ;
#57 = FACE_OUTER_BOUND ( 'NONE', #31, .T. ) ;
#58 = CARTESIAN_POINT ( 'NONE',  ( 4.500000000000000000, 5.510910596163088600E-016, 0.9000000000000000200 ) ) ;
#59 = LINE ( 'NONE', #58, #2 ) ;
#60 = APPROVAL_DATE_TIME ( #174, #223 ) ;
#61 = ORIENTED_EDGE ( 'NONE', *, *, #53, .T. ) ;
#62 = CARTESIAN_POINT ( 'NONE',  ( 4.500000000000000000, 5.510910596163088600E-016, 0.9000000000000000200 ) ) ;
#63 = DIRECTION ( 'NONE',  ( 0.0000000000000000000, 0.0000000000000000000, 1.000000000000000000 ) ) ;
#64 = ORIENTED_EDGE ( 'NONE', *, *, #214, .F. ) ;
#65 = CIRCLE ( 'NONE', #179, 2.149999999999999900 ) ;
#66 = APPROVAL_STATUS ( 'not_yet_approved' ) ;
#67 = AXIS2_PLACEMENT_3D ( 'NONE', #20, #24, #39 ) ;
#68 = DIRECTION ( 'NONE',  ( -0.0000000000000000000, -0.0000000000000000000, -1.000000000000000000 ) ) ;
#69 =( LENGTH_UNIT ( ) NAMED_UNIT ( * ) SI_UNIT ( .MILLI., .METRE. ) );
#70 = PERSON_AND_ORGANIZATION ( #99, #160 ) ;
#71 = DIRECTION ( 'NONE',  ( 0.0000000000000000000, 0.0000000000000000000, 1.000000000000000000 ) ) ;
#72 = VERTEX_POINT ( 'NONE', #155 ) ;
#73 = PRODUCT_DEFINITION ( 'UNKNOWN', '', #170, #156 ) ;
#74 = FACE_BOUND ( 'NONE', #95, .T. ) ;
#75 = COORDINATED_UNIVERSAL_TIME_OFFSET ( 6, 0, .BEHIND. ) ;
#76 = ORIENTED_EDGE ( 'NONE', *, *, #228, .F. ) ;
#77 = CIRCLE ( 'NONE', #6, 4.500000000000000000 ) ;
#78 = DIRECTION ( 'NONE',  ( 1.000000000000000000, 0.0000000000000000000, 0.0000000000000000000 ) ) ;
#79 = AXIS2_PLACEMENT_3D ( 'NONE', #111, #206, #208 ) ;
#80 = COORDINATED_UNIVERSAL_TIME_OFFSET ( 6, 0, .BEHIND. ) ;
#81 = ORIENTED_EDGE ( 'NONE', *, *, #54, .T. ) ;
#82 = APPROVAL_DATE_TIME ( #216, #203 ) ;
#83 = CARTESIAN_POINT ( 'NONE',  ( 2.149999999999999900, 2.632990618166809200E-016, 0.9000000000000000200 ) ) ;
#84 = EDGE_CURVE ( 'NONE', #72, #219, #77, .T. ) ;
#85 = ORIENTED_EDGE ( 'NONE', *, *, #96, .F. ) ;
#86 = CC_DESIGN_SECURITY_CLASSIFICATION ( #51, ( #170 ) ) ;
#87 = DIRECTION ( 'NONE',  ( 1.000000000000000000, 0.0000000000000000000, 0.0000000000000000000 ) ) ;
#88 = PERSON_AND_ORGANIZATION_ROLE ( 'creator' ) ;
#89 = APPROVAL_ROLE ( '' ) ;
#90 = DIRECTION ( 'NONE',  ( -0.0000000000000000000, -0.0000000000000000000, -1.000000000000000000 ) ) ;
#91 = ORIENTED_EDGE ( 'NONE', *, *, #191, .F. ) ;
#92 = DIRECTION ( 'NONE',  ( 1.000000000000000000, 0.0000000000000000000, 0.0000000000000000000 ) ) ;
#93 = PRODUCT_RELATED_PRODUCT_CATEGORY ( 'detail', '', ( #152 ) ) ;
#94 = VERTEX_POINT ( 'NONE', #205 ) ;
#95 = EDGE_LOOP ( 'NONE', ( #163, #85 ) ) ;
#96 = EDGE_CURVE ( 'NONE', #139, #55, #4, .T. ) ;
#97 = AXIS2_PLACEMENT_3D ( 'NONE', #116, #102, #120 ) ;
#98 = CIRCLE ( 'NONE', #201, 4.500000000000000000 ) ;
#99 = PERSON ( 'UNSPECIFIED', 'UNSPECIFIED', 'UNSPECIFIED', ('UNSPECIFIED'), ('UNSPECIFIED'), ('UNSPECIFIED') ) ;
#100 = COORDINATED_UNIVERSAL_TIME_OFFSET ( 6, 0, .BEHIND. ) ;
#101 = EDGE_CURVE ( 'NONE', #185, #219, #59, .T. ) ;
#102 = DIRECTION ( 'NONE',  ( -0.0000000000000000000, -0.0000000000000000000, -1.000000000000000000 ) ) ;
#103 = CARTESIAN_POINT ( 'NONE',  ( 0.0000000000000000000, 0.0000000000000000000, 0.0000000000000000000 ) ) ;
#104 = ORIENTED_EDGE ( 'NONE', *, *, #84, .T. ) ;
#105 = ORIENTED_EDGE ( 'NONE', *, *, #228, .T. ) ;
#106 = LINE ( 'NONE', #112, #52 ) ;
#107 = CC_DESIGN_PERSON_AND_ORGANIZATION_ASSIGNMENT ( #30, #88, ( #170 ) ) ;
#108 = CARTESIAN_POINT ( 'NONE',  ( 2.149999999999999900, 2.632990618166809200E-016, 0.9000000000000000200 ) ) ;
#109 = PERSON_AND_ORGANIZATION_ROLE ( 'classification_officer' ) ;
#110 = ORIENTED_EDGE ( 'NONE', *, *, #127, .F. ) ;
#111 = CARTESIAN_POINT ( 'NONE',  ( 0.0000000000000000000, 0.0000000000000000000, 0.9000000000000000200 ) ) ;
#112 = CARTESIAN_POINT ( 'NONE',  ( -2.149999999999999900, 0.0000000000000000000, 0.9000000000000000200 ) ) ;
#113 = CALENDAR_DATE ( 2021, 8, 9 ) ;
#114 = ADVANCED_FACE ( 'NONE', ( #229 ), #211, .F. ) ;
#115 = LOCAL_TIME ( 20, 14, 8.000000000000000000, #132 ) ;
#116 = CARTESIAN_POINT ( 'NONE',  ( 0.0000000000000000000, 0.0000000000000000000, 0.9000000000000000200 ) ) ;
#117 = EDGE_LOOP ( 'NONE', ( #21, #110 ) ) ;
#118 = DIRECTION ( 'NONE',  ( 1.000000000000000000, 0.0000000000000000000, 0.0000000000000000000 ) ) ;
#119 = COORDINATED_UNIVERSAL_TIME_OFFSET ( 6, 0, .BEHIND. ) ;
#120 = DIRECTION ( 'NONE',  ( -1.000000000000000000, 0.0000000000000000000, 0.0000000000000000000 ) ) ;
#121 = EDGE_LOOP ( 'NONE', ( #197, #169, #16, #91 ) ) ;
#122 = APPROVAL ( #184, 'UNSPECIFIED' ) ;
#123 = PERSON_AND_ORGANIZATION ( #99, #160 ) ;
#124 = DIRECTION ( 'NONE',  ( 1.000000000000000000, 0.0000000000000000000, 0.0000000000000000000 ) ) ;
#125 = ORIENTED_EDGE ( 'NONE', *, *, #175, .F. ) ;
#126 = CIRCLE ( 'NONE', #243, 4.500000000000000000 ) ;
#127 = EDGE_CURVE ( 'NONE', #219, #72, #126, .T. ) ;
#128 = CARTESIAN_POINT ( 'NONE',  ( 0.0000000000000000000, 0.0000000000000000000, 0.9000000000000000200 ) ) ;
#129 = PERSON_AND_ORGANIZATION_ROLE ( 'design_supplier' ) ;
#130 = APPROVAL_PERSON_ORGANIZATION ( #70, #203, #147 ) ;
#131 = APPROVAL_STATUS ( 'not_yet_approved' ) ;
#132 = COORDINATED_UNIVERSAL_TIME_OFFSET ( 6, 0, .BEHIND. ) ;
#133 = CC_DESIGN_APPROVAL ( #122, ( #73 ) ) ;
#134 = PERSON_AND_ORGANIZATION ( #99, #160 ) ;
#135 = ORIENTED_EDGE ( 'NONE', *, *, #41, .T. ) ;
#136 = AXIS2_PLACEMENT_3D ( 'NONE', #29, #47, #210 ) ;
#137 = CARTESIAN_POINT ( 'NONE',  ( 0.0000000000000000000, 0.0000000000000000000, 0.0000000000000000000 ) ) ;
#138 = ORIENTED_EDGE ( 'NONE', *, *, #234, .F. ) ;
#139 = VERTEX_POINT ( 'NONE', #83 ) ;
#140 = CYLINDRICAL_SURFACE ( 'NONE', #239, 2.149999999999999900 ) ;
#141 = EDGE_LOOP ( 'NONE', ( #176, #125, #15, #104 ) ) ;
#142 = MECHANICAL_CONTEXT ( 'NONE', #49, 'mechanical' ) ;
#143 =( NAMED_UNIT ( * ) PLANE_ANGLE_UNIT ( ) SI_UNIT ( $, .RADIAN. ) );
#144 = FACE_OUTER_BOUND ( 'NONE', #117, .T. ) ;
#145 = CC_DESIGN_PERSON_AND_ORGANIZATION_ASSIGNMENT ( #238, #190, ( #73 ) ) ;
#146 = DIRECTION ( 'NONE',  ( 0.0000000000000000000, 0.0000000000000000000, 1.000000000000000000 ) ) ;
#147 = APPROVAL_ROLE ( '' ) ;
#148 = PLANE ( 'NONE',  #212 ) ;
#149 = PERSON_AND_ORGANIZATION ( #99, #160 ) ;
#150 = EDGE_LOOP ( 'NONE', ( #138, #247, #240, #37 ) ) ;
#151 = ORIENTED_EDGE ( 'NONE', *, *, #175, .T. ) ;
#152 = PRODUCT ( '93475A230_18-8 Stainless Steel Washer', '93475A230_18-8 Stainless Steel Washer', '', ( #142 ) ) ;
#153 = FACE_BOUND ( 'NONE', #188, .T. ) ;
#154 = AXIS2_PLACEMENT_3D ( 'NONE', #183, #5, #87 ) ;
#155 = CARTESIAN_POINT ( 'NONE',  ( -4.500000000000000000, 0.0000000000000000000, 0.0000000000000000000 ) ) ;
#156 = DESIGN_CONTEXT ( 'detailed design', #48, 'design' ) ;
#157 = CARTESIAN_POINT ( 'NONE',  ( 0.0000000000000000000, 0.0000000000000000000, 0.9000000000000000200 ) ) ;
#158 = CALENDAR_DATE ( 2021, 8, 9 ) ;
#159 = CC_DESIGN_DATE_AND_TIME_ASSIGNMENT ( #204, #164, ( #73 ) ) ;
#160 = ORGANIZATION ( 'UNSPECIFIED', 'UNSPECIFIED', '' ) ;
#161 = CARTESIAN_POINT ( 'NONE',  ( 2.149999999999999900, 2.632990618166809200E-016, 0.0000000000000000000 ) ) ;
#162 = CARTESIAN_POINT ( 'NONE',  ( 0.0000000000000000000, 0.0000000000000000000, 0.9000000000000000200 ) ) ;
#163 = ORIENTED_EDGE ( 'NONE', *, *, #53, .F. ) ;
#164 = DATE_TIME_ROLE ( 'creation_date' ) ;
#165 = PRODUCT_DEFINITION_SHAPE ( 'NONE', 'NONE',  #73 ) ;
#166 = PLANE ( 'NONE',  #136 ) ;
#167 = CALENDAR_DATE ( 2021, 8, 9 ) ;
#168 = DIRECTION ( 'NONE',  ( -0.0000000000000000000, -0.0000000000000000000, -1.000000000000000000 ) ) ;
#169 = ORIENTED_EDGE ( 'NONE', *, *, #101, .T. ) ;
#170 = PRODUCT_DEFINITION_FORMATION_WITH_SPECIFIED_SOURCE ( 'ANY', '', #152, .NOT_KNOWN. ) ;
#171 = VERTEX_POINT ( 'NONE', #161 ) ;
#172 = LOCAL_TIME ( 20, 14, 8.000000000000000000, #100 ) ;
#173 =( GEOMETRIC_REPRESENTATION_CONTEXT ( 3 ) GLOBAL_UNCERTAINTY_ASSIGNED_CONTEXT ( ( #231 ) ) GLOBAL_UNIT_ASSIGNED_CONTEXT ( ( #69, #143, #186 ) ) REPRESENTATION_CONTEXT ( 'NONE', 'WORKASPACE' ) );
#174 = DATE_AND_TIME ( #167, #115 ) ;
#175 = EDGE_CURVE ( 'NONE', #94, #185, #98, .T. ) ;
#176 = ORIENTED_EDGE ( 'NONE', *, *, #101, .F. ) ;
#177 = DIRECTION ( 'NONE',  ( 0.0000000000000000000, 0.0000000000000000000, 1.000000000000000000 ) ) ;
#178 = APPROVAL_PERSON_ORGANIZATION ( #149, #122, #89 ) ;
#179 = AXIS2_PLACEMENT_3D ( 'NONE', #157, #221, #23 ) ;
#180 = DATE_AND_TIME ( #230, #25 ) ;
#181 = AXIS2_PLACEMENT_3D ( 'NONE', #235, #217, #7 ) ;
#182 = DIRECTION ( 'NONE',  ( -0.0000000000000000000, -0.0000000000000000000, -1.000000000000000000 ) ) ;
#183 = CARTESIAN_POINT ( 'NONE',  ( 0.0000000000000000000, 0.0000000000000000000, 0.0000000000000000000 ) ) ;
#184 = APPROVAL_STATUS ( 'not_yet_approved' ) ;
#185 = VERTEX_POINT ( 'NONE', #62 ) ;
#186 =( NAMED_UNIT ( * ) SI_UNIT ( $, .STERADIAN. ) SOLID_ANGLE_UNIT ( ) );
#187 = LOCAL_TIME ( 20, 14, 8.000000000000000000, #119 ) ;
#188 = EDGE_LOOP ( 'NONE', ( #105, #135 ) ) ;
#189 = CARTESIAN_POINT ( 'NONE',  ( 0.0000000000000000000, 0.0000000000000000000, 0.9000000000000000200 ) ) ;
#190 = PERSON_AND_ORGANIZATION_ROLE ( 'creator' ) ;
#191 = EDGE_CURVE ( 'NONE', #94, #72, #215, .T. ) ;
#192 = DIRECTION ( 'NONE',  ( 1.000000000000000000, 0.0000000000000000000, -0.0000000000000000000 ) ) ;
#193 = EDGE_LOOP ( 'NONE', ( #61, #33, #76, #64 ) ) ;
#194 = FACE_OUTER_BOUND ( 'NONE', #193, .T. ) ;
#195 = CC_DESIGN_APPROVAL ( #203, ( #51 ) ) ;
#196 = VECTOR ( 'NONE', #90, 1000.000000000000000 ) ;
#197 = ORIENTED_EDGE ( 'NONE', *, *, #54, .F. ) ;
#198 = ADVANCED_FACE ( 'NONE', ( #144, #153 ), #166, .F. ) ;
#199 = ADVANCED_FACE ( 'NONE', ( #194 ), #140, .F. ) ;
#200 = PERSON_AND_ORGANIZATION ( #99, #160 ) ;
#201 = AXIS2_PLACEMENT_3D ( 'NONE', #128, #71, #12 ) ;
#202 = CYLINDRICAL_SURFACE ( 'NONE', #181, 4.500000000000000000 ) ;
#203 = APPROVAL ( #131, 'UNSPECIFIED' ) ;
#204 = DATE_AND_TIME ( #113, #187 ) ;
#205 = CARTESIAN_POINT ( 'NONE',  ( -4.500000000000000000, 0.0000000000000000000, 0.9000000000000000200 ) ) ;
#206 = DIRECTION ( 'NONE',  ( -0.0000000000000000000, -0.0000000000000000000, -1.000000000000000000 ) ) ;
#207 = CYLINDRICAL_SURFACE ( 'NONE', #79, 4.500000000000000000 ) ;
#208 = DIRECTION ( 'NONE',  ( -1.000000000000000000, 0.0000000000000000000, 0.0000000000000000000 ) ) ;
#209 = DIRECTION ( 'NONE',  ( 1.000000000000000000, 0.0000000000000000000, 0.0000000000000000000 ) ) ;
#210 = DIRECTION ( 'NONE',  ( 1.000000000000000000, 0.0000000000000000000, -0.0000000000000000000 ) ) ;
#211 = CYLINDRICAL_SURFACE ( 'NONE', #97, 2.149999999999999900 ) ;
#212 = AXIS2_PLACEMENT_3D ( 'NONE', #9, #226, #192 ) ;
#213 = SHAPE_DEFINITION_REPRESENTATION ( #165, #237 ) ;
#214 = EDGE_CURVE ( 'NONE', #55, #36, #106, .T. ) ;
#215 = LINE ( 'NONE', #43, #42 ) ;
#216 = DATE_AND_TIME ( #18, #225 ) ;
#217 = DIRECTION ( 'NONE',  ( -0.0000000000000000000, -0.0000000000000000000, -1.000000000000000000 ) ) ;
#218 = CC_DESIGN_APPROVAL ( #223, ( #170 ) ) ;
#219 = VERTEX_POINT ( 'NONE', #50 ) ;
#220 = APPROVAL_DATE_TIME ( #34, #122 ) ;
#221 = DIRECTION ( 'NONE',  ( 0.0000000000000000000, 0.0000000000000000000, 1.000000000000000000 ) ) ;
#222 = APPROVAL_ROLE ( '' ) ;
#223 = APPROVAL ( #66, 'UNSPECIFIED' ) ;
#224 = SECURITY_CLASSIFICATION_LEVEL ( 'unclassified' ) ;
#225 = LOCAL_TIME ( 20, 14, 8.000000000000000000, #75 ) ;
#226 = DIRECTION ( 'NONE',  ( 0.0000000000000000000, 0.0000000000000000000, 1.000000000000000000 ) ) ;
#227 = CC_DESIGN_PERSON_AND_ORGANIZATION_ASSIGNMENT ( #22, #8, ( #152 ) ) ;
#228 = EDGE_CURVE ( 'NONE', #36, #171, #241, .T. ) ;
#229 = FACE_OUTER_BOUND ( 'NONE', #150, .T. ) ;
#230 = CALENDAR_DATE ( 2021, 8, 9 ) ;
#231 = UNCERTAINTY_MEASURE_WITH_UNIT (LENGTH_MEASURE( 1.000000000000000100E-005 ), #69, 'distance_accuracy_value', 'NONE');
#232 = ADVANCED_FACE ( 'NONE', ( #57, #74 ), #148, .T. ) ;
#233 = ADVANCED_FACE ( 'NONE', ( #249 ), #207, .T. ) ;
#234 = EDGE_CURVE ( 'NONE', #139, #171, #17, .T. ) ;
#235 = CARTESIAN_POINT ( 'NONE',  ( 0.0000000000000000000, 0.0000000000000000000, 0.9000000000000000200 ) ) ;
#236 = DIRECTION ( 'NONE',  ( 0.0000000000000000000, 0.0000000000000000000, 1.000000000000000000 ) ) ;
#237 = ADVANCED_BREP_SHAPE_REPRESENTATION ( '93475A230_18-8 Stainless Steel Washer', ( #14, #32 ), #173 ) ;
#238 = PERSON_AND_ORGANIZATION ( #99, #160 ) ;
#239 = AXIS2_PLACEMENT_3D ( 'NONE', #189, #10, #245 ) ;
#240 = ORIENTED_EDGE ( 'NONE', *, *, #214, .T. ) ;
#241 = CIRCLE ( 'NONE', #35, 2.149999999999999900 ) ;
#242 = APPLICATION_PROTOCOL_DEFINITION ( 'international standard', 'config_control_design', 1994, #49 ) ;
#243 = AXIS2_PLACEMENT_3D ( 'NONE', #137, #177, #124 ) ;
#244 = CARTESIAN_POINT ( 'NONE',  ( 0.0000000000000000000, 0.0000000000000000000, 0.0000000000000000000 ) ) ;
#245 = DIRECTION ( 'NONE',  ( -1.000000000000000000, 0.0000000000000000000, 0.0000000000000000000 ) ) ;
#246 = DATE_TIME_ROLE ( 'classification_date' ) ;
#247 = ORIENTED_EDGE ( 'NONE', *, *, #96, .T. ) ;
#248 = FACE_OUTER_BOUND ( 'NONE', #121, .T. ) ;
#249 = FACE_OUTER_BOUND ( 'NONE', #141, .T. ) ;
ENDSEC;
END-ISO-10303-21;
