ISO-10303-21;
HEADER;
FILE_DESCRIPTION (( 'STEP AP203' ),
    '1' );
FILE_NAME ('93475A250_18-8 Stainless Steel Washer.STEP',
    '2021-09-09T01:11:30',
    ( 'Administrator' ),
    ( 'Managed by Terraform' ),
    'SwSTEP 2.0',
    'SolidWorks 2017',
    '' );
FILE_SCHEMA (( 'CONFIG_CONTROL_DESIGN' ));
ENDSEC;

DATA;
#1 = ORIENTED_EDGE ( 'NONE', *, *, #68, .F. ) ;
#2 = CARTESIAN_POINT ( 'NONE',  ( -3.200000000000000200, 0.0000000000000000000, 1.800000000000000000 ) ) ;
#3 = CARTESIAN_POINT ( 'NONE',  ( 0.0000000000000000000, 0.0000000000000000000, 1.800000000000000000 ) ) ;
#4 = CARTESIAN_POINT ( 'NONE',  ( 3.200000000000000200, 3.918869757271530500E-016, 1.800000000000000000 ) ) ;
#5 = DIRECTION ( 'NONE',  ( -0.0000000000000000000, -0.0000000000000000000, -1.000000000000000000 ) ) ;
#6 = ORIENTED_EDGE ( 'NONE', *, *, #107, .T. ) ;
#7 = CARTESIAN_POINT ( 'NONE',  ( 0.0000000000000000000, 0.0000000000000000000, 0.0000000000000000000 ) ) ;
#8 = PERSON_AND_ORGANIZATION_ROLE ( 'classification_officer' ) ;
#9 = CIRCLE ( 'NONE', #122, 3.200000000000000200 ) ;
#10 = APPROVAL ( #124, 'UNSPECIFIED' ) ;
#11 = CALENDAR_DATE ( 2021, 8, 9 ) ;
#12 = ORIENTED_EDGE ( 'NONE', *, *, #16, .F. ) ;
#13 = PRODUCT ( '93475A250_18-8 Stainless Steel Washer', '93475A250_18-8 Stainless Steel Washer', '', ( #95 ) ) ;
#14 = DIRECTION ( 'NONE',  ( 0.0000000000000000000, 0.0000000000000000000, 1.000000000000000000 ) ) ;
#15 = LINE ( 'NONE', #157, #105 ) ;
#16 = EDGE_CURVE ( 'NONE', #204, #156, #37, .T. ) ;
#17 = CARTESIAN_POINT ( 'NONE',  ( 0.0000000000000000000, 0.0000000000000000000, 1.800000000000000000 ) ) ;
#18 = EDGE_LOOP ( 'NONE', ( #1, #81 ) ) ;
#19 = DIRECTION ( 'NONE',  ( -0.0000000000000000000, -0.0000000000000000000, -1.000000000000000000 ) ) ;
#20 = DIRECTION ( 'NONE',  ( 1.000000000000000000, 0.0000000000000000000, 0.0000000000000000000 ) ) ;
#21 = DIRECTION ( 'NONE',  ( 0.0000000000000000000, 0.0000000000000000000, 1.000000000000000000 ) ) ;
#22 = CC_DESIGN_DATE_AND_TIME_ASSIGNMENT ( #179, #87, ( #139 ) ) ;
#23 = DIRECTION ( 'NONE',  ( 0.0000000000000000000, 0.0000000000000000000, 1.000000000000000000 ) ) ;
#24 = DIRECTION ( 'NONE',  ( 1.000000000000000000, 0.0000000000000000000, 0.0000000000000000000 ) ) ;
#25 = CALENDAR_DATE ( 2021, 8, 9 ) ;
#26 = APPROVAL_STATUS ( 'not_yet_approved' ) ;
#27 = ORIENTED_EDGE ( 'NONE', *, *, #107, .F. ) ;
#28 = AXIS2_PLACEMENT_3D ( 'NONE', #247, #112, #211 ) ;
#29 = DATE_AND_TIME ( #208, #103 ) ;
#30 = ORGANIZATION ( 'UNSPECIFIED', 'UNSPECIFIED', '' ) ;
#31 = AXIS2_PLACEMENT_3D ( 'NONE', #104, #83, #214 ) ;
#32 = ORIENTED_EDGE ( 'NONE', *, *, #16, .T. ) ;
#33 = EDGE_LOOP ( 'NONE', ( #50, #71, #135, #123 ) ) ;
#34 = PERSON_AND_ORGANIZATION ( #97, #30 ) ;
#35 = CIRCLE ( 'NONE', #209, 3.200000000000000200 ) ;
#36 = DIRECTION ( 'NONE',  ( 1.000000000000000000, 0.0000000000000000000, 0.0000000000000000000 ) ) ;
#37 = LINE ( 'NONE', #192, #210 ) ;
#38 = ORIENTED_EDGE ( 'NONE', *, *, #110, .T. ) ;
#39 = DIRECTION ( 'NONE',  ( -0.0000000000000000000, -0.0000000000000000000, -1.000000000000000000 ) ) ;
#40 = PRODUCT_RELATED_PRODUCT_CATEGORY ( 'detail', '', ( #13 ) ) ;
#41 = CARTESIAN_POINT ( 'NONE',  ( 3.200000000000000200, 3.918869757271530500E-016, 1.800000000000000000 ) ) ;
#42 = DIRECTION ( 'NONE',  ( 1.000000000000000000, 0.0000000000000000000, 0.0000000000000000000 ) ) ;
#43 = COORDINATED_UNIVERSAL_TIME_OFFSET ( 6, 0, .BEHIND. ) ;
#44 = CIRCLE ( 'NONE', #136, 3.200000000000000200 ) ;
#45 = CARTESIAN_POINT ( 'NONE',  ( 6.000000000000000900, 7.347880794884120700E-016, 1.800000000000000000 ) ) ;
#46 = APPLICATION_PROTOCOL_DEFINITION ( 'international standard', 'config_control_design', 1994, #47 ) ;
#47 = APPLICATION_CONTEXT ( 'configuration controlled 3d designs of mechanical parts and assemblies' ) ;
#48 = FACE_BOUND ( 'NONE', #98, .T. ) ;
#49 = APPROVAL_STATUS ( 'not_yet_approved' ) ;
#50 = ORIENTED_EDGE ( 'NONE', *, *, #110, .F. ) ;
#51 = LINE ( 'NONE', #41, #240 ) ;
#52 = LOCAL_TIME ( 20, 11, 30.00000000000000000, #152 ) ;
#53 = CC_DESIGN_PERSON_AND_ORGANIZATION_ASSIGNMENT ( #96, #8, ( #139 ) ) ;
#54 = PRODUCT_DEFINITION_SHAPE ( 'NONE', 'NONE',  #172 ) ;
#55 = EDGE_CURVE ( 'NONE', #216, #109, #9, .T. ) ;
#56 = EDGE_LOOP ( 'NONE', ( #175, #225, #144, #12 ) ) ;
#57 = ORIENTED_EDGE ( 'NONE', *, *, #125, .F. ) ;
#58 = DIRECTION ( 'NONE',  ( 1.000000000000000000, 0.0000000000000000000, 0.0000000000000000000 ) ) ;
#59 = DIRECTION ( 'NONE',  ( 1.000000000000000000, 0.0000000000000000000, 0.0000000000000000000 ) ) ;
#60 = DIRECTION ( 'NONE',  ( 1.000000000000000000, 0.0000000000000000000, 0.0000000000000000000 ) ) ;
#61 = CARTESIAN_POINT ( 'NONE',  ( 0.0000000000000000000, 0.0000000000000000000, 1.800000000000000000 ) ) ;
#62 = AXIS2_PLACEMENT_3D ( 'NONE', #198, #21, #20 ) ;
#63 = FACE_OUTER_BOUND ( 'NONE', #116, .T. ) ;
#64 = CARTESIAN_POINT ( 'NONE',  ( 0.0000000000000000000, 0.0000000000000000000, 0.0000000000000000000 ) ) ;
#65 = DIRECTION ( 'NONE',  ( 0.0000000000000000000, 0.0000000000000000000, 1.000000000000000000 ) ) ;
#66 = UNCERTAINTY_MEASURE_WITH_UNIT (LENGTH_MEASURE( 1.000000000000000100E-005 ), #141, 'distance_accuracy_value', 'NONE');
#67 = CARTESIAN_POINT ( 'NONE',  ( 0.0000000000000000000, 0.0000000000000000000, 0.0000000000000000000 ) ) ;
#68 = EDGE_CURVE ( 'NONE', #156, #183, #108, .T. ) ;
#69 = FACE_BOUND ( 'NONE', #221, .T. ) ;
#70 = DATE_TIME_ROLE ( 'creation_date' ) ;
#71 = ORIENTED_EDGE ( 'NONE', *, *, #128, .T. ) ;
#72 = CC_DESIGN_APPROVAL ( #86, ( #139 ) ) ;
#73 = APPROVAL_PERSON_ORGANIZATION ( #34, #10, #162 ) ;
#74 = CC_DESIGN_APPROVAL ( #10, ( #146 ) ) ;
#75 = PERSON_AND_ORGANIZATION ( #97, #30 ) ;
#76 = VERTEX_POINT ( 'NONE', #245 ) ;
#77 = AXIS2_PLACEMENT_3D ( 'NONE', #132, #238, #24 ) ;
#78 = CC_DESIGN_SECURITY_CLASSIFICATION ( #139, ( #146 ) ) ;
#79 = PERSON_AND_ORGANIZATION ( #97, #30 ) ;
#80 = LINE ( 'NONE', #235, #131 ) ;
#81 = ORIENTED_EDGE ( 'NONE', *, *, #115, .F. ) ;
#82 = CARTESIAN_POINT ( 'NONE',  ( -6.000000000000000900, 0.0000000000000000000, 0.0000000000000000000 ) ) ;
#83 = DIRECTION ( 'NONE',  ( -0.0000000000000000000, -0.0000000000000000000, -1.000000000000000000 ) ) ;
#84 = APPROVAL_DATE_TIME ( #186, #185 ) ;
#85 = ADVANCED_FACE ( 'NONE', ( #63, #48 ), #219, .T. ) ;
#86 = APPROVAL ( #26, 'UNSPECIFIED' ) ;
#87 = DATE_TIME_ROLE ( 'classification_date' ) ;
#88 = EDGE_LOOP ( 'NONE', ( #57, #27, #32, #171 ) ) ;
#89 = ORIENTED_EDGE ( 'NONE', *, *, #182, .F. ) ;
#90 = APPROVAL_ROLE ( '' ) ;
#91 = COORDINATED_UNIVERSAL_TIME_OFFSET ( 6, 0, .BEHIND. ) ;
#92 = FACE_OUTER_BOUND ( 'NONE', #56, .T. ) ;
#93 = APPROVAL_PERSON_ORGANIZATION ( #246, #185, #165 ) ;
#94 = VERTEX_POINT ( 'NONE', #174 ) ;
#95 = MECHANICAL_CONTEXT ( 'NONE', #178, 'mechanical' ) ;
#96 = PERSON_AND_ORGANIZATION ( #97, #30 ) ;
#97 = PERSON ( 'UNSPECIFIED', 'UNSPECIFIED', 'UNSPECIFIED', ('UNSPECIFIED'), ('UNSPECIFIED'), ('UNSPECIFIED') ) ;
#98 = EDGE_LOOP ( 'NONE', ( #143, #233 ) ) ;
#99 = AXIS2_PLACEMENT_3D ( 'NONE', #119, #117, #60 ) ;
#100 = CARTESIAN_POINT ( 'NONE',  ( 6.000000000000000900, 7.347880794884120700E-016, 0.0000000000000000000 ) ) ;
#101 = AXIS2_PLACEMENT_3D ( 'NONE', #155, #39, #201 ) ;
#102 = DIRECTION ( 'NONE',  ( -1.000000000000000000, 0.0000000000000000000, 0.0000000000000000000 ) ) ;
#103 = LOCAL_TIME ( 20, 11, 30.00000000000000000, #43 ) ;
#104 = CARTESIAN_POINT ( 'NONE',  ( 0.0000000000000000000, 0.0000000000000000000, 1.800000000000000000 ) ) ;
#105 = VECTOR ( 'NONE', #19, 1000.000000000000000 ) ;
#106 = DIRECTION ( 'NONE',  ( 1.000000000000000000, 0.0000000000000000000, 0.0000000000000000000 ) ) ;
#107 = EDGE_CURVE ( 'NONE', #204, #232, #188, .T. ) ;
#108 = CIRCLE ( 'NONE', #28, 6.000000000000000900 ) ;
#109 = VERTEX_POINT ( 'NONE', #4 ) ;
#110 = EDGE_CURVE ( 'NONE', #109, #76, #51, .T. ) ;
#111 = CC_DESIGN_PERSON_AND_ORGANIZATION_ASSIGNMENT ( #130, #145, ( #172 ) ) ;
#112 = DIRECTION ( 'NONE',  ( 0.0000000000000000000, 0.0000000000000000000, 1.000000000000000000 ) ) ;
#113 = CARTESIAN_POINT ( 'NONE',  ( 0.0000000000000000000, 0.0000000000000000000, 1.800000000000000000 ) ) ;
#114 = CALENDAR_DATE ( 2021, 8, 9 ) ;
#115 = EDGE_CURVE ( 'NONE', #183, #156, #148, .T. ) ;
#116 = EDGE_LOOP ( 'NONE', ( #6, #120 ) ) ;
#117 = DIRECTION ( 'NONE',  ( 0.0000000000000000000, 0.0000000000000000000, 1.000000000000000000 ) ) ;
#118 = CC_DESIGN_PERSON_AND_ORGANIZATION_ASSIGNMENT ( #228, #181, ( #146 ) ) ;
#119 = CARTESIAN_POINT ( 'NONE',  ( 0.0000000000000000000, 0.0000000000000000000, 1.800000000000000000 ) ) ;
#120 = ORIENTED_EDGE ( 'NONE', *, *, #207, .T. ) ;
#121 = SHAPE_DEFINITION_REPRESENTATION ( #54, #243 ) ;
#122 = AXIS2_PLACEMENT_3D ( 'NONE', #113, #14, #42 ) ;
#123 = ORIENTED_EDGE ( 'NONE', *, *, #241, .F. ) ;
#124 = APPROVAL_STATUS ( 'not_yet_approved' ) ;
#125 = EDGE_CURVE ( 'NONE', #232, #183, #80, .T. ) ;
#126 = CC_DESIGN_DATE_AND_TIME_ASSIGNMENT ( #212, #70, ( #172 ) ) ;
#127 = APPROVAL_PERSON_ORGANIZATION ( #193, #86, #90 ) ;
#128 = EDGE_CURVE ( 'NONE', #109, #216, #35, .T. ) ;
#129 = EDGE_LOOP ( 'NONE', ( #166, #38, #89, #197 ) ) ;
#130 = PERSON_AND_ORGANIZATION ( #97, #30 ) ;
#131 = VECTOR ( 'NONE', #177, 1000.000000000000000 ) ;
#132 = CARTESIAN_POINT ( 'NONE',  ( 0.0000000000000000000, 0.0000000000000000000, 1.800000000000000000 ) ) ;
#133 = CLOSED_SHELL ( 'NONE', ( #164, #161, #85, #149, #222, #168 ) ) ;
#134 = DIRECTION ( 'NONE',  ( 0.0000000000000000000, 0.0000000000000000000, 1.000000000000000000 ) ) ;
#135 = ORIENTED_EDGE ( 'NONE', *, *, #142, .T. ) ;
#136 = AXIS2_PLACEMENT_3D ( 'NONE', #7, #220, #106 ) ;
#137 =( NAMED_UNIT ( * ) SI_UNIT ( $, .STERADIAN. ) SOLID_ANGLE_UNIT ( ) );
#138 = APPROVAL_DATE_TIME ( #29, #10 ) ;
#139 = SECURITY_CLASSIFICATION ( '', '', #184 ) ;
#140 = CIRCLE ( 'NONE', #230, 3.200000000000000200 ) ;
#141 =( LENGTH_UNIT ( ) NAMED_UNIT ( * ) SI_UNIT ( .MILLI., .METRE. ) );
#142 = EDGE_CURVE ( 'NONE', #216, #94, #15, .T. ) ;
#143 = ORIENTED_EDGE ( 'NONE', *, *, #55, .F. ) ;
#144 = ORIENTED_EDGE ( 'NONE', *, *, #115, .T. ) ;
#145 = PERSON_AND_ORGANIZATION_ROLE ( 'creator' ) ;
#146 = PRODUCT_DEFINITION_FORMATION_WITH_SPECIFIED_SOURCE ( 'ANY', '', #13, .NOT_KNOWN. ) ;
#147 = LOCAL_TIME ( 20, 11, 30.00000000000000000, #242 ) ;
#148 = CIRCLE ( 'NONE', #62, 6.000000000000000900 ) ;
#149 = ADVANCED_FACE ( 'NONE', ( #163, #69 ), #236, .F. ) ;
#150 = ORIENTED_EDGE ( 'NONE', *, *, #182, .T. ) ;
#151 =( GEOMETRIC_REPRESENTATION_CONTEXT ( 3 ) GLOBAL_UNCERTAINTY_ASSIGNED_CONTEXT ( ( #66 ) ) GLOBAL_UNIT_ASSIGNED_CONTEXT ( ( #141, #160, #137 ) ) REPRESENTATION_CONTEXT ( 'NONE', 'WORKASPACE' ) );
#152 = COORDINATED_UNIVERSAL_TIME_OFFSET ( 6, 0, .BEHIND. ) ;
#153 = DESIGN_CONTEXT ( 'detailed design', #47, 'design' ) ;
#154 = CARTESIAN_POINT ( 'NONE',  ( 0.0000000000000000000, 0.0000000000000000000, 0.0000000000000000000 ) ) ;
#155 = CARTESIAN_POINT ( 'NONE',  ( 0.0000000000000000000, 0.0000000000000000000, 1.800000000000000000 ) ) ;
#156 = VERTEX_POINT ( 'NONE', #82 ) ;
#157 = CARTESIAN_POINT ( 'NONE',  ( -3.200000000000000200, 0.0000000000000000000, 1.800000000000000000 ) ) ;
#158 = AXIS2_PLACEMENT_3D ( 'NONE', #67, #23, #58 ) ;
#159 = DIRECTION ( 'NONE',  ( -0.0000000000000000000, -0.0000000000000000000, -1.000000000000000000 ) ) ;
#160 =( NAMED_UNIT ( * ) PLANE_ANGLE_UNIT ( ) SI_UNIT ( $, .RADIAN. ) );
#161 = ADVANCED_FACE ( 'NONE', ( #92 ), #244, .T. ) ;
#162 = APPROVAL_ROLE ( '' ) ;
#163 = FACE_OUTER_BOUND ( 'NONE', #18, .T. ) ;
#164 = ADVANCED_FACE ( 'NONE', ( #194 ), #169, .F. ) ;
#165 = APPROVAL_ROLE ( '' ) ;
#166 = ORIENTED_EDGE ( 'NONE', *, *, #55, .T. ) ;
#167 = AXIS2_PLACEMENT_3D ( 'NONE', #61, #199, #102 ) ;
#168 = ADVANCED_FACE ( 'NONE', ( #180 ), #249, .F. ) ;
#169 = CYLINDRICAL_SURFACE ( 'NONE', #31, 3.200000000000000200 ) ;
#170 = PERSON_AND_ORGANIZATION_ROLE ( 'design_owner' ) ;
#171 = ORIENTED_EDGE ( 'NONE', *, *, #68, .T. ) ;
#172 = PRODUCT_DEFINITION ( 'UNKNOWN', '', #146, #153 ) ;
#173 = CALENDAR_DATE ( 2021, 8, 9 ) ;
#174 = CARTESIAN_POINT ( 'NONE',  ( -3.200000000000000200, 0.0000000000000000000, 0.0000000000000000000 ) ) ;
#175 = ORIENTED_EDGE ( 'NONE', *, *, #207, .F. ) ;
#176 = DIRECTION ( 'NONE',  ( 1.000000000000000000, 0.0000000000000000000, -0.0000000000000000000 ) ) ;
#177 = DIRECTION ( 'NONE',  ( -0.0000000000000000000, -0.0000000000000000000, -1.000000000000000000 ) ) ;
#178 = APPLICATION_CONTEXT ( 'configuration controlled 3d designs of mechanical parts and assemblies' ) ;
#179 = DATE_AND_TIME ( #173, #52 ) ;
#180 = FACE_OUTER_BOUND ( 'NONE', #33, .T. ) ;
#181 = PERSON_AND_ORGANIZATION_ROLE ( 'creator' ) ;
#182 = EDGE_CURVE ( 'NONE', #94, #76, #140, .T. ) ;
#183 = VERTEX_POINT ( 'NONE', #100 ) ;
#184 = SECURITY_CLASSIFICATION_LEVEL ( 'unclassified' ) ;
#185 = APPROVAL ( #49, 'UNSPECIFIED' ) ;
#186 = DATE_AND_TIME ( #114, #248 ) ;
#187 = FACE_OUTER_BOUND ( 'NONE', #88, .T. ) ;
#188 = CIRCLE ( 'NONE', #99, 6.000000000000000900 ) ;
#189 = ORIENTED_EDGE ( 'NONE', *, *, #241, .T. ) ;
#190 = AXIS2_PLACEMENT_3D ( 'NONE', #200, #159, #231 ) ;
#191 = MANIFOLD_SOLID_BREP ( 'Boss-Extrude1', #133 ) ;
#192 = CARTESIAN_POINT ( 'NONE',  ( -6.000000000000000900, 0.0000000000000000000, 1.800000000000000000 ) ) ;
#193 = PERSON_AND_ORGANIZATION ( #97, #30 ) ;
#194 = FACE_OUTER_BOUND ( 'NONE', #129, .T. ) ;
#195 = CC_DESIGN_PERSON_AND_ORGANIZATION_ASSIGNMENT ( #75, #170, ( #13 ) ) ;
#196 = AXIS2_PLACEMENT_3D ( 'NONE', #17, #217, #176 ) ;
#197 = ORIENTED_EDGE ( 'NONE', *, *, #142, .F. ) ;
#198 = CARTESIAN_POINT ( 'NONE',  ( 0.0000000000000000000, 0.0000000000000000000, 0.0000000000000000000 ) ) ;
#199 = DIRECTION ( 'NONE',  ( -0.0000000000000000000, -0.0000000000000000000, -1.000000000000000000 ) ) ;
#200 = CARTESIAN_POINT ( 'NONE',  ( 0.0000000000000000000, 0.0000000000000000000, 1.800000000000000000 ) ) ;
#201 = DIRECTION ( 'NONE',  ( -1.000000000000000000, 0.0000000000000000000, 0.0000000000000000000 ) ) ;
#202 = LOCAL_TIME ( 20, 11, 30.00000000000000000, #91 ) ;
#203 = APPLICATION_PROTOCOL_DEFINITION ( 'international standard', 'config_control_design', 1994, #178 ) ;
#204 = VERTEX_POINT ( 'NONE', #213 ) ;
#205 = CC_DESIGN_APPROVAL ( #185, ( #172 ) ) ;
#206 = PERSON_AND_ORGANIZATION_ROLE ( 'design_supplier' ) ;
#207 = EDGE_CURVE ( 'NONE', #232, #204, #229, .T. ) ;
#208 = CALENDAR_DATE ( 2021, 8, 9 ) ;
#209 = AXIS2_PLACEMENT_3D ( 'NONE', #3, #134, #59 ) ;
#210 = VECTOR ( 'NONE', #227, 1000.000000000000000 ) ;
#211 = DIRECTION ( 'NONE',  ( 1.000000000000000000, 0.0000000000000000000, 0.0000000000000000000 ) ) ;
#212 = DATE_AND_TIME ( #11, #147 ) ;
#213 = CARTESIAN_POINT ( 'NONE',  ( -6.000000000000000900, 0.0000000000000000000, 1.800000000000000000 ) ) ;
#214 = DIRECTION ( 'NONE',  ( -1.000000000000000000, 0.0000000000000000000, 0.0000000000000000000 ) ) ;
#215 = CC_DESIGN_PERSON_AND_ORGANIZATION_ASSIGNMENT ( #79, #206, ( #146 ) ) ;
#216 = VERTEX_POINT ( 'NONE', #2 ) ;
#217 = DIRECTION ( 'NONE',  ( 0.0000000000000000000, 0.0000000000000000000, 1.000000000000000000 ) ) ;
#218 = DIRECTION ( 'NONE',  ( 0.0000000000000000000, 0.0000000000000000000, 1.000000000000000000 ) ) ;
#219 = PLANE ( 'NONE',  #196 ) ;
#220 = DIRECTION ( 'NONE',  ( 0.0000000000000000000, 0.0000000000000000000, 1.000000000000000000 ) ) ;
#221 = EDGE_LOOP ( 'NONE', ( #150, #189 ) ) ;
#222 = ADVANCED_FACE ( 'NONE', ( #187 ), #224, .T. ) ;
#223 = APPROVAL_DATE_TIME ( #237, #86 ) ;
#224 = CYLINDRICAL_SURFACE ( 'NONE', #167, 6.000000000000000900 ) ;
#225 = ORIENTED_EDGE ( 'NONE', *, *, #125, .T. ) ;
#226 = AXIS2_PLACEMENT_3D ( 'NONE', #64, #65, #234 ) ;
#227 = DIRECTION ( 'NONE',  ( -0.0000000000000000000, -0.0000000000000000000, -1.000000000000000000 ) ) ;
#228 = PERSON_AND_ORGANIZATION ( #97, #30 ) ;
#229 = CIRCLE ( 'NONE', #77, 6.000000000000000900 ) ;
#230 = AXIS2_PLACEMENT_3D ( 'NONE', #154, #218, #36 ) ;
#231 = DIRECTION ( 'NONE',  ( -1.000000000000000000, 0.0000000000000000000, 0.0000000000000000000 ) ) ;
#232 = VERTEX_POINT ( 'NONE', #45 ) ;
#233 = ORIENTED_EDGE ( 'NONE', *, *, #128, .F. ) ;
#234 = DIRECTION ( 'NONE',  ( 1.000000000000000000, 0.0000000000000000000, -0.0000000000000000000 ) ) ;
#235 = CARTESIAN_POINT ( 'NONE',  ( 6.000000000000000900, 7.347880794884120700E-016, 1.800000000000000000 ) ) ;
#236 = PLANE ( 'NONE',  #226 ) ;
#237 = DATE_AND_TIME ( #25, #202 ) ;
#238 = DIRECTION ( 'NONE',  ( 0.0000000000000000000, 0.0000000000000000000, 1.000000000000000000 ) ) ;
#239 = COORDINATED_UNIVERSAL_TIME_OFFSET ( 6, 0, .BEHIND. ) ;
#240 = VECTOR ( 'NONE', #5, 1000.000000000000000 ) ;
#241 = EDGE_CURVE ( 'NONE', #76, #94, #44, .T. ) ;
#242 = COORDINATED_UNIVERSAL_TIME_OFFSET ( 6, 0, .BEHIND. ) ;
#243 = ADVANCED_BREP_SHAPE_REPRESENTATION ( '93475A250_18-8 Stainless Steel Washer', ( #191, #158 ), #151 ) ;
#244 = CYLINDRICAL_SURFACE ( 'NONE', #190, 6.000000000000000900 ) ;
#245 = CARTESIAN_POINT ( 'NONE',  ( 3.200000000000000200, 3.918869757271530500E-016, 0.0000000000000000000 ) ) ;
#246 = PERSON_AND_ORGANIZATION ( #97, #30 ) ;
#247 = CARTESIAN_POINT ( 'NONE',  ( 0.0000000000000000000, 0.0000000000000000000, 0.0000000000000000000 ) ) ;
#248 = LOCAL_TIME ( 20, 11, 30.00000000000000000, #239 ) ;
#249 = CYLINDRICAL_SURFACE ( 'NONE', #101, 3.200000000000000200 ) ;
ENDSEC;
END-ISO-10303-21;
