ISO-10303-21;
HEADER;
FILE_DESCRIPTION (( 'STEP AP214' ),
    '1' );
FILE_NAME ('Amplifier Mount Block.STEP',
    '2026-05-17T05:46:41',
    ( '' ),
    ( '' ),
    'SwSTEP 2.0',
    'SolidWorks 2025',
    '' );
FILE_SCHEMA (( 'AUTOMOTIVE_DESIGN' ));
ENDSEC;

DATA;
#1 = CIRCLE ( 'NONE', #220, 2.749999999999999112 ) ;
#2 = CYLINDRICAL_SURFACE ( 'NONE', #50, 2.749999999999999112 ) ;
#3 = CARTESIAN_POINT ( 'NONE',  ( -24.23999999999999844, 12.50000000000000000, 0.000000000000000000 ) ) ;
#4 = ORIENTED_EDGE ( 'NONE', *, *, #331, .F. ) ;
#5 = CIRCLE ( 'NONE', #327, 2.749999999999999112 ) ;
#6 = DIRECTION ( 'NONE',  ( 1.000000000000000000, 0.000000000000000000, 0.000000000000000000 ) ) ;
#7 = PLANE ( 'NONE',  #100 ) ;
#8 = CARTESIAN_POINT ( 'NONE',  ( -19.23999999999999488, -12.50000000000000000, 8.000000000000000000 ) ) ;
#9 = DIRECTION ( 'NONE',  ( -0.000000000000000000, -0.000000000000000000, 1.000000000000000000 ) ) ;
#10 = ORIENTED_EDGE ( 'NONE', *, *, #70, .T. ) ;
#11 = EDGE_LOOP ( 'NONE', ( #58, #282, #182, #62 ) ) ;
#12 = PRESENTATION_LAYER_ASSIGNMENT (  '', '', ( #311 ) ) ;
#13 = EDGE_CURVE ( 'NONE', #255, #253, #265, .T. ) ;
#14 = DIRECTION ( 'NONE',  ( 1.000000000000000000, 0.000000000000000000, 0.000000000000000000 ) ) ;
#15 =( LENGTH_UNIT ( ) NAMED_UNIT ( * ) SI_UNIT ( .MILLI., .METRE. ) );
#16 = ADVANCED_FACE ( 'NONE', ( #236, #37, #291 ), #7, .T. ) ;
#17 = DIRECTION ( 'NONE',  ( 1.000000000000000000, 0.000000000000000000, 0.000000000000000000 ) ) ;
#18 = PRESENTATION_STYLE_ASSIGNMENT (( #139 ) ) ;
#19 = CARTESIAN_POINT ( 'NONE',  ( -19.23999999999999488, 12.50000000000000000, 0.000000000000000000 ) ) ;
#20 = ADVANCED_FACE ( 'NONE', ( #132 ), #318, .F. ) ;
#21 = CARTESIAN_POINT ( 'NONE',  ( -24.23999999999999844, 12.50000000000000000, 8.000000000000000000 ) ) ;
#22 = APPLICATION_CONTEXT ( 'automotive_design' ) ;
#23 = CIRCLE ( 'NONE', #38, 2.749999999999999112 ) ;
#24 = CARTESIAN_POINT ( 'NONE',  ( -21.48999999999999844, 12.50000000000000000, 0.000000000000000000 ) ) ;
#25 = ORIENTED_EDGE ( 'NONE', *, *, #172, .T. ) ;
#26 = DIRECTION ( 'NONE',  ( -0.000000000000000000, -0.000000000000000000, 1.000000000000000000 ) ) ;
#27 = DIRECTION ( 'NONE',  ( -0.000000000000000000, -0.000000000000000000, -1.000000000000000000 ) ) ;
#28 = ORIENTED_EDGE ( 'NONE', *, *, #82, .T. ) ;
#29 = CIRCLE ( 'NONE', #333, 5.000000000000004441 ) ;
#30 = CARTESIAN_POINT ( 'NONE',  ( -21.48999999999999844, 12.50000000000000000, 8.000000000000000000 ) ) ;
#31 = EDGE_LOOP ( 'NONE', ( #209, #317, #187, #60 ) ) ;
#32 = ADVANCED_FACE ( 'NONE', ( #223, #144, #71 ), #300, .F. ) ;
#33 = ORIENTED_EDGE ( 'NONE', *, *, #286, .F. ) ;
#34 =( NAMED_UNIT ( * ) SI_UNIT ( $, .STERADIAN. ) SOLID_ANGLE_UNIT ( ) );
#35 = EDGE_LOOP ( 'NONE', ( #90, #10, #84, #269 ) ) ;
#36 = APPLICATION_PROTOCOL_DEFINITION ( 'draft international standard', 'automotive_design', 1998, #155 ) ;
#37 = FACE_BOUND ( 'NONE', #164, .T. ) ;
#38 = AXIS2_PLACEMENT_3D ( 'NONE', #179, #287, #51 ) ;
#39 = ORIENTED_EDGE ( 'NONE', *, *, #247, .F. ) ;
#40 = AXIS2_PLACEMENT_3D ( 'NONE', #254, #26, #124 ) ;
#41 = DIRECTION ( 'NONE',  ( -0.000000000000000000, -0.000000000000000000, 1.000000000000000000 ) ) ;
#42 = DIRECTION ( 'NONE',  ( 1.000000000000000000, 0.000000000000000000, 0.000000000000000000 ) ) ;
#43 = DIRECTION ( 'NONE',  ( 0.000000000000000000, 1.000000000000000000, 0.000000000000000000 ) ) ;
#44 = VECTOR ( 'NONE', #67, 1000.000000000000000 ) ;
#45 = DIRECTION ( 'NONE',  ( 1.000000000000000000, 0.000000000000000000, -0.000000000000000000 ) ) ;
#46 = LINE ( 'NONE', #273, #190 ) ;
#47 = EDGE_CURVE ( 'NONE', #57, #162, #5, .T. ) ;
#48 = CARTESIAN_POINT ( 'NONE',  ( -24.23999999999999844, 12.50000000000000000, 8.000000000000000000 ) ) ;
#49 = CIRCLE ( 'NONE', #219, 2.749999999999999112 ) ;
#50 = AXIS2_PLACEMENT_3D ( 'NONE', #334, #198, #309 ) ;
#51 = DIRECTION ( 'NONE',  ( 1.000000000000000000, 0.000000000000000000, 0.000000000000000000 ) ) ;
#52 = DIRECTION ( 'NONE',  ( -0.000000000000000000, -0.000000000000000000, -1.000000000000000000 ) ) ;
#53 = EDGE_CURVE ( 'NONE', #105, #129, #169, .T. ) ;
#54 = CYLINDRICAL_SURFACE ( 'NONE', #143, 2.749999999999999112 ) ;
#55 = ORIENTED_EDGE ( 'NONE', *, *, #335, .F. ) ;
#56 = CIRCLE ( 'NONE', #87, 5.000000000000004441 ) ;
#57 = VERTEX_POINT ( 'NONE', #170 ) ;
#58 = ORIENTED_EDGE ( 'NONE', *, *, #247, .T. ) ;
#59 = CARTESIAN_POINT ( 'NONE',  ( -26.98999999999999488, 12.50000000000000000, 8.000000000000000000 ) ) ;
#60 = ORIENTED_EDGE ( 'NONE', *, *, #104, .T. ) ;
#61 = APPLICATION_PROTOCOL_DEFINITION ( 'draft international standard', 'automotive_design', 1998, #22 ) ;
#62 = ORIENTED_EDGE ( 'NONE', *, *, #224, .T. ) ;
#63 = EDGE_LOOP ( 'NONE', ( #25, #241, #257, #160 ) ) ;
#64 = AXIS2_PLACEMENT_3D ( 'NONE', #192, #330, #45 ) ;
#65 = CARTESIAN_POINT ( 'NONE',  ( -29.24000000000000199, -12.50000000000000000, 0.000000000000000000 ) ) ;
#66 = CYLINDRICAL_SURFACE ( 'NONE', #225, 5.000000000000004441 ) ;
#67 = DIRECTION ( 'NONE',  ( -0.000000000000000000, -0.000000000000000000, 1.000000000000000000 ) ) ;
#68 = AXIS2_PLACEMENT_3D ( 'NONE', #21, #52, #74 ) ;
#69 = EDGE_CURVE ( 'NONE', #57, #216, #94, .T. ) ;
#70 = EDGE_CURVE ( 'NONE', #75, #339, #277, .T. ) ;
#71 = FACE_OUTER_BOUND ( 'NONE', #157, .T. ) ;
#72 = DIRECTION ( 'NONE',  ( 0.000000000000000000, 0.000000000000000000, 1.000000000000000000 ) ) ;
#73 = ORIENTED_EDGE ( 'NONE', *, *, #293, .T. ) ;
#74 = DIRECTION ( 'NONE',  ( -1.000000000000000000, 0.000000000000000000, 0.000000000000000000 ) ) ;
#75 = VERTEX_POINT ( 'NONE', #332 ) ;
#76 = CIRCLE ( 'NONE', #117, 5.000000000000004441 ) ;
#77 = ORIENTED_EDGE ( 'NONE', *, *, #197, .T. ) ;
#78 = DIRECTION ( 'NONE',  ( -1.000000000000000000, 0.000000000000000000, 0.000000000000000000 ) ) ;
#79 = PRODUCT_RELATED_PRODUCT_CATEGORY ( 'part', '', ( #207 ) ) ;
#80 = FACE_OUTER_BOUND ( 'NONE', #319, .T. ) ;
#81 = EDGE_CURVE ( 'NONE', #108, #289, #56, .T. ) ;
#82 = EDGE_CURVE ( 'NONE', #280, #181, #46, .T. ) ;
#83 = VERTEX_POINT ( 'NONE', #19 ) ;
#84 = ORIENTED_EDGE ( 'NONE', *, *, #163, .T. ) ;
#85 = CARTESIAN_POINT ( 'NONE',  ( -24.23999999999999844, 12.50000000000000000, 0.000000000000000000 ) ) ;
#86 = DIRECTION ( 'NONE',  ( 0.000000000000000000, 0.000000000000000000, 1.000000000000000000 ) ) ;
#87 = AXIS2_PLACEMENT_3D ( 'NONE', #274, #303, #245 ) ;
#88 = DIRECTION ( 'NONE',  ( -0.000000000000000000, 0.000000000000000000, -1.000000000000000000 ) ) ;
#89 = CIRCLE ( 'NONE', #276, 2.749999999999999112 ) ;
#90 = ORIENTED_EDGE ( 'NONE', *, *, #315, .F. ) ;
#91 = VERTEX_POINT ( 'NONE', #244 ) ;
#92 = DIRECTION ( 'NONE',  ( -0.000000000000000000, -0.000000000000000000, -1.000000000000000000 ) ) ;
#93 = CARTESIAN_POINT ( 'NONE',  ( -24.23999999999999844, 12.50000000000000000, 8.000000000000000000 ) ) ;
#94 = LINE ( 'NONE', #278, #44 ) ;
#95 = DIRECTION ( 'NONE',  ( 0.000000000000000000, 0.000000000000000000, 1.000000000000000000 ) ) ;
#96 = FACE_OUTER_BOUND ( 'NONE', #213, .T. ) ;
#97 = CARTESIAN_POINT ( 'NONE',  ( -24.23999999999999844, -12.50000000000000000, 8.000000000000000000 ) ) ;
#98 = FACE_OUTER_BOUND ( 'NONE', #31, .T. ) ;
#99 = EDGE_LOOP ( 'NONE', ( #239, #295 ) ) ;
#100 = AXIS2_PLACEMENT_3D ( 'NONE', #323, #188, #211 ) ;
#101 = DIRECTION ( 'NONE',  ( -0.000000000000000000, -0.000000000000000000, -1.000000000000000000 ) ) ;
#102 = CARTESIAN_POINT ( 'NONE',  ( -29.24000000000000199, -12.50000000000000000, 8.000000000000000000 ) ) ;
#103 = ADVANCED_FACE ( 'NONE', ( #142 ), #218, .F. ) ;
#104 = EDGE_CURVE ( 'NONE', #216, #91, #49, .T. ) ;
#105 = VERTEX_POINT ( 'NONE', #118 ) ;
#106 = ORIENTED_EDGE ( 'NONE', *, *, #53, .T. ) ;
#107 = CARTESIAN_POINT ( 'NONE',  ( -29.24000000000000199, 12.50000000000000000, 8.000000000000000000 ) ) ;
#108 = VERTEX_POINT ( 'NONE', #65 ) ;
#109 = LINE ( 'NONE', #107, #203 ) ;
#110 = ORIENTED_EDGE ( 'NONE', *, *, #69, .F. ) ;
#111 = EDGE_CURVE ( 'NONE', #181, #105, #76, .T. ) ;
#112 = VECTOR ( 'NONE', #92, 1000.000000000000000 ) ;
#113 = CIRCLE ( 'NONE', #40, 2.749999999999999112 ) ;
#114 = ORIENTED_EDGE ( 'NONE', *, *, #197, .F. ) ;
#115 = CARTESIAN_POINT ( 'NONE',  ( -29.24000000000000199, 12.50000000000000000, 0.000000000000000000 ) ) ;
#116 = DIRECTION ( 'NONE',  ( -0.000000000000000000, -0.000000000000000000, 1.000000000000000000 ) ) ;
#117 = AXIS2_PLACEMENT_3D ( 'NONE', #221, #95, #306 ) ;
#118 = CARTESIAN_POINT ( 'NONE',  ( -29.24000000000000199, 12.50000000000000000, 8.000000000000000000 ) ) ;
#119 = DIRECTION ( 'NONE',  ( -0.000000000000000000, -0.000000000000000000, 1.000000000000000000 ) ) ;
#120 = FACE_OUTER_BOUND ( 'NONE', #234, .T. ) ;
#121 = VECTOR ( 'NONE', #199, 1000.000000000000000 ) ;
#122 = LINE ( 'NONE', #228, #121 ) ;
#123 = UNCERTAINTY_MEASURE_WITH_UNIT (LENGTH_MEASURE( 1.000000000000000082E-05 ), #15, 'distance_accuracy_value', 'NONE');
#124 = DIRECTION ( 'NONE',  ( 1.000000000000000000, 0.000000000000000000, 0.000000000000000000 ) ) ;
#125 = DIRECTION ( 'NONE',  ( 0.000000000000000000, 1.000000000000000000, 0.000000000000000000 ) ) ;
#126 = AXIS2_PLACEMENT_3D ( 'NONE', #248, #195, #14 ) ;
#127 = CARTESIAN_POINT ( 'NONE',  ( -19.23999999999999488, -12.50000000000000000, 8.000000000000000000 ) ) ;
#128 = EDGE_CURVE ( 'NONE', #253, #339, #321, .T. ) ;
#129 = VERTEX_POINT ( 'NONE', #115 ) ;
#130 = CARTESIAN_POINT ( 'NONE',  ( -29.24000000000000199, 12.50000000000000000, 8.000000000000000000 ) ) ;
#131 = ORIENTED_EDGE ( 'NONE', *, *, #172, .F. ) ;
#132 = FACE_OUTER_BOUND ( 'NONE', #63, .T. ) ;
#133 = DIRECTION ( 'NONE',  ( 1.000000000000000000, 0.000000000000000000, 0.000000000000000000 ) ) ;
#134 = EDGE_LOOP ( 'NONE', ( #73, #33, #4, #106 ) ) ;
#135 = ORIENTED_EDGE ( 'NONE', *, *, #81, .T. ) ;
#136 = ORIENTED_EDGE ( 'NONE', *, *, #286, .T. ) ;
#137 = EDGE_CURVE ( 'NONE', #305, #280, #29, .T. ) ;
#138 = MANIFOLD_SOLID_BREP ( 'M5 Clearance Hole1', #210 ) ;
#139 = SURFACE_STYLE_USAGE ( .BOTH. , #271 ) ;
#140 = PRODUCT_DEFINITION ( 'UNKNOWN', '', #175, #177 ) ;
#141 = CARTESIAN_POINT ( 'NONE',  ( -24.23999999999999844, -12.50000000000000000, 8.000000000000000000 ) ) ;
#142 = FACE_OUTER_BOUND ( 'NONE', #35, .T. ) ;
#143 = AXIS2_PLACEMENT_3D ( 'NONE', #48, #149, #336 ) ;
#144 = FACE_BOUND ( 'NONE', #99, .T. ) ;
#145 = LINE ( 'NONE', #146, #246 ) ;
#146 = CARTESIAN_POINT ( 'NONE',  ( -19.23999999999999488, -12.50000000000000000, 0.000000000000000000 ) ) ;
#147 = ORIENTED_EDGE ( 'NONE', *, *, #335, .T. ) ;
#148 = DIRECTION ( 'NONE',  ( -0.000000000000000000, -0.000000000000000000, -1.000000000000000000 ) ) ;
#149 = DIRECTION ( 'NONE',  ( -0.000000000000000000, -0.000000000000000000, 1.000000000000000000 ) ) ;
#150 = EDGE_LOOP ( 'NONE', ( #208, #114 ) ) ;
#151 = ADVANCED_FACE ( 'NONE', ( #80 ), #66, .T. ) ;
#152 = COLOUR_RGB ( '',0.7921568627450980005, 0.8196078431372548767, 0.9333333333333333481 ) ;
#153 =( GEOMETRIC_REPRESENTATION_CONTEXT ( 3 ) GLOBAL_UNCERTAINTY_ASSIGNED_CONTEXT ( ( #268 ) ) GLOBAL_UNIT_ASSIGNED_CONTEXT ( ( #296, #186, #34 ) ) REPRESENTATION_CONTEXT ( 'NONE', 'WORKASPACE' ) );
#154 = CARTESIAN_POINT ( 'NONE',  ( -29.24000000000000199, -12.50000000000000000, 8.000000000000000000 ) ) ;
#155 = APPLICATION_CONTEXT ( 'automotive_design' ) ;
#156 = DIRECTION ( 'NONE',  ( 0.000000000000000000, 0.000000000000000000, 1.000000000000000000 ) ) ;
#157 = EDGE_LOOP ( 'NONE', ( #39, #131, #292, #159 ) ) ;
#158 = SHAPE_DEFINITION_REPRESENTATION ( #168, #270 ) ;
#159 = ORIENTED_EDGE ( 'NONE', *, *, #293, .F. ) ;
#160 = ORIENTED_EDGE ( 'NONE', *, *, #299, .T. ) ;
#161 = CARTESIAN_POINT ( 'NONE',  ( 0.000000000000000000, 0.000000000000000000, 0.000000000000000000 ) ) ;
#162 = VERTEX_POINT ( 'NONE', #316 ) ;
#163 = EDGE_CURVE ( 'NONE', #339, #253, #23, .T. ) ;
#164 = EDGE_LOOP ( 'NONE', ( #193, #297 ) ) ;
#165 = AXIS2_PLACEMENT_3D ( 'NONE', #8, #298, #86 ) ;
#166 = SURFACE_STYLE_FILL_AREA ( #189 ) ;
#167 =( NAMED_UNIT ( * ) PLANE_ANGLE_UNIT ( ) SI_UNIT ( $, .RADIAN. ) );
#168 = PRODUCT_DEFINITION_SHAPE ( 'NONE', 'NONE',  #140 ) ;
#169 = LINE ( 'NONE', #194, #112 ) ;
#170 = CARTESIAN_POINT ( 'NONE',  ( -21.48999999999999844, -12.50000000000000000, 0.000000000000000000 ) ) ;
#171 = DIRECTION ( 'NONE',  ( -0.000000000000000000, -0.000000000000000000, 1.000000000000000000 ) ) ;
#172 = EDGE_CURVE ( 'NONE', #289, #83, #145, .T. ) ;
#173 = CARTESIAN_POINT ( 'NONE',  ( -19.23999999999999488, -12.50000000000000000, 8.000000000000000000 ) ) ;
#174 = ORIENTED_EDGE ( 'NONE', *, *, #47, .T. ) ;
#175 = PRODUCT_DEFINITION_FORMATION_WITH_SPECIFIED_SOURCE ( 'ANY', '', #207, .NOT_KNOWN. ) ;
#176 = CARTESIAN_POINT ( 'NONE',  ( -19.23999999999999488, 12.50000000000000000, 8.000000000000000000 ) ) ;
#177 = PRODUCT_DEFINITION_CONTEXT ( 'detailed design', #155, 'design' ) ;
#178 = DIRECTION ( 'NONE',  ( 1.000000000000000000, 0.000000000000000000, 0.000000000000000000 ) ) ;
#179 = CARTESIAN_POINT ( 'NONE',  ( -24.23999999999999844, 12.50000000000000000, 8.000000000000000000 ) ) ;
#180 = AXIS2_PLACEMENT_3D ( 'NONE', #3, #72, #178 ) ;
#181 = VERTEX_POINT ( 'NONE', #176 ) ;
#182 = ORIENTED_EDGE ( 'NONE', *, *, #111, .F. ) ;
#183 = DIRECTION ( 'NONE',  ( 1.000000000000000000, 0.000000000000000000, -0.000000000000000000 ) ) ;
#184 = ORIENTED_EDGE ( 'NONE', *, *, #302, .F. ) ;
#185 = CIRCLE ( 'NONE', #180, 5.000000000000004441 ) ;
#186 =( NAMED_UNIT ( * ) PLANE_ANGLE_UNIT ( ) SI_UNIT ( $, .RADIAN. ) );
#187 = ORIENTED_EDGE ( 'NONE', *, *, #69, .T. ) ;
#188 = DIRECTION ( 'NONE',  ( 0.000000000000000000, 0.000000000000000000, 1.000000000000000000 ) ) ;
#189 = FILL_AREA_STYLE ('',( #325 ) ) ;
#190 = VECTOR ( 'NONE', #43, 1000.000000000000000 ) ;
#191 = CARTESIAN_POINT ( 'NONE',  ( -24.23999999999999844, -12.50000000000000000, 8.000000000000000000 ) ) ;
#192 = CARTESIAN_POINT ( 'NONE',  ( -24.23999999999999844, 12.50000000000000000, 0.000000000000000000 ) ) ;
#193 = ORIENTED_EDGE ( 'NONE', *, *, #128, .F. ) ;
#194 = CARTESIAN_POINT ( 'NONE',  ( -29.24000000000000199, 12.50000000000000000, 8.000000000000000000 ) ) ;
#195 = DIRECTION ( 'NONE',  ( -0.000000000000000000, -0.000000000000000000, 1.000000000000000000 ) ) ;
#196 = AXIS2_PLACEMENT_3D ( 'NONE', #161, #156, #266 ) ;
#197 = EDGE_CURVE ( 'NONE', #91, #216, #89, .T. ) ;
#198 = DIRECTION ( 'NONE',  ( -0.000000000000000000, -0.000000000000000000, 1.000000000000000000 ) ) ;
#199 = DIRECTION ( 'NONE',  ( 0.000000000000000000, -1.000000000000000000, 0.000000000000000000 ) ) ;
#200 = ORIENTED_EDGE ( 'NONE', *, *, #299, .F. ) ;
#201 = DIRECTION ( 'NONE',  ( -0.000000000000000000, -0.000000000000000000, 1.000000000000000000 ) ) ;
#202 = VECTOR ( 'NONE', #267, 1000.000000000000000 ) ;
#203 = VECTOR ( 'NONE', #212, 1000.000000000000000 ) ;
#204 = CARTESIAN_POINT ( 'NONE',  ( -19.23999999999999488, -12.50000000000000000, 0.000000000000000000 ) ) ;
#205 = ORIENTED_EDGE ( 'NONE', *, *, #137, .F. ) ;
#206 =( NAMED_UNIT ( * ) SI_UNIT ( $, .STERADIAN. ) SOLID_ANGLE_UNIT ( ) );
#207 = PRODUCT ( 'Amplifier Mount Block', 'Amplifier Mount Block', '', ( #240 ) ) ;
#208 = ORIENTED_EDGE ( 'NONE', *, *, #104, .F. ) ;
#209 = ORIENTED_EDGE ( 'NONE', *, *, #304, .F. ) ;
#210 = CLOSED_SHELL ( 'NONE', ( #237, #103, #222, #324, #151, #20, #16, #32, #242, #272 ) ) ;
#211 = DIRECTION ( 'NONE',  ( 1.000000000000000000, 0.000000000000000000, -0.000000000000000000 ) ) ;
#212 = DIRECTION ( 'NONE',  ( 0.000000000000000000, -1.000000000000000000, 0.000000000000000000 ) ) ;
#213 = EDGE_LOOP ( 'NONE', ( #259, #184, #232, #214 ) ) ;
#214 = ORIENTED_EDGE ( 'NONE', *, *, #128, .T. ) ;
#215 = VECTOR ( 'NONE', #101, 1000.000000000000000 ) ;
#216 = VERTEX_POINT ( 'NONE', #314 ) ;
#217 = DIRECTION ( 'NONE',  ( 1.000000000000000000, 0.000000000000000000, 0.000000000000000000 ) ) ;
#218 = CYLINDRICAL_SURFACE ( 'NONE', #275, 2.749999999999999112 ) ;
#219 = AXIS2_PLACEMENT_3D ( 'NONE', #141, #119, #17 ) ;
#220 = AXIS2_PLACEMENT_3D ( 'NONE', #261, #235, #6 ) ;
#221 = CARTESIAN_POINT ( 'NONE',  ( -24.23999999999999844, 12.50000000000000000, 8.000000000000000000 ) ) ;
#222 = ADVANCED_FACE ( 'NONE', ( #285 ), #250, .T. ) ;
#223 = FACE_BOUND ( 'NONE', #337, .T. ) ;
#224 = EDGE_CURVE ( 'NONE', #181, #83, #227, .T. ) ;
#225 = AXIS2_PLACEMENT_3D ( 'NONE', #281, #27, #78 ) ;
#226 = CIRCLE ( 'NONE', #264, 2.749999999999999112 ) ;
#227 = LINE ( 'NONE', #230, #215 ) ;
#228 = CARTESIAN_POINT ( 'NONE',  ( -29.24000000000000199, 12.50000000000000000, 0.000000000000000000 ) ) ;
#229 = ORIENTED_EDGE ( 'NONE', *, *, #137, .T. ) ;
#230 = CARTESIAN_POINT ( 'NONE',  ( -19.23999999999999488, 12.50000000000000000, 8.000000000000000000 ) ) ;
#231 = VECTOR ( 'NONE', #116, 1000.000000000000000 ) ;
#232 = ORIENTED_EDGE ( 'NONE', *, *, #13, .T. ) ;
#233 = LINE ( 'NONE', #102, #312 ) ;
#234 = EDGE_LOOP ( 'NONE', ( #55, #263, #77, #110 ) ) ;
#235 = DIRECTION ( 'NONE',  ( -0.000000000000000000, -0.000000000000000000, 1.000000000000000000 ) ) ;
#236 = FACE_BOUND ( 'NONE', #150, .T. ) ;
#237 = ADVANCED_FACE ( 'NONE', ( #120 ), #2, .F. ) ;
#238 = ORIENTED_EDGE ( 'NONE', *, *, #331, .T. ) ;
#239 = ORIENTED_EDGE ( 'NONE', *, *, #302, .T. ) ;
#240 = PRODUCT_CONTEXT ( 'NONE', #22, 'mechanical' ) ;
#241 = ORIENTED_EDGE ( 'NONE', *, *, #224, .F. ) ;
#242 = ADVANCED_FACE ( 'NONE', ( #96 ), #54, .F. ) ;
#243 = MECHANICAL_DESIGN_GEOMETRIC_PRESENTATION_REPRESENTATION (  '', ( #311 ), #288 ) ;
#244 = CARTESIAN_POINT ( 'NONE',  ( -26.98999999999999488, -12.50000000000000000, 8.000000000000000000 ) ) ;
#245 = DIRECTION ( 'NONE',  ( 1.000000000000000000, 0.000000000000000000, 0.000000000000000000 ) ) ;
#246 = VECTOR ( 'NONE', #125, 1000.000000000000000 ) ;
#247 = EDGE_CURVE ( 'NONE', #83, #129, #185, .T. ) ;
#248 = CARTESIAN_POINT ( 'NONE',  ( -24.23999999999999844, 12.50000000000000000, 8.000000000000000000 ) ) ;
#249 = CARTESIAN_POINT ( 'NONE',  ( -26.98999999999999488, 12.50000000000000000, 8.000000000000000000 ) ) ;
#250 = CYLINDRICAL_SURFACE ( 'NONE', #68, 5.000000000000004441 ) ;
#251 = AXIS2_PLACEMENT_3D ( 'NONE', #256, #201, #258 ) ;
#252 = DIRECTION ( 'NONE',  ( 1.000000000000000000, 0.000000000000000000, 0.000000000000000000 ) ) ;
#253 = VERTEX_POINT ( 'NONE', #30 ) ;
#254 = CARTESIAN_POINT ( 'NONE',  ( -24.23999999999999844, 12.50000000000000000, 0.000000000000000000 ) ) ;
#255 = VERTEX_POINT ( 'NONE', #24 ) ;
#256 = CARTESIAN_POINT ( 'NONE',  ( -24.23999999999999844, -12.50000000000000000, 8.000000000000000000 ) ) ;
#257 = ORIENTED_EDGE ( 'NONE', *, *, #82, .F. ) ;
#258 = DIRECTION ( 'NONE',  ( 1.000000000000000000, 0.000000000000000000, 0.000000000000000000 ) ) ;
#259 = ORIENTED_EDGE ( 'NONE', *, *, #70, .F. ) ;
#260 = VECTOR ( 'NONE', #148, 1000.000000000000000 ) ;
#261 = CARTESIAN_POINT ( 'NONE',  ( -24.23999999999999844, -12.50000000000000000, 0.000000000000000000 ) ) ;
#262 = EDGE_LOOP ( 'NONE', ( #284, #238, #229, #28 ) ) ;
#263 = ORIENTED_EDGE ( 'NONE', *, *, #304, .T. ) ;
#264 = AXIS2_PLACEMENT_3D ( 'NONE', #85, #290, #133 ) ;
#265 = LINE ( 'NONE', #320, #202 ) ;
#266 = DIRECTION ( 'NONE',  ( 1.000000000000000000, 0.000000000000000000, 0.000000000000000000 ) ) ;
#267 = DIRECTION ( 'NONE',  ( -0.000000000000000000, -0.000000000000000000, 1.000000000000000000 ) ) ;
#268 = UNCERTAINTY_MEASURE_WITH_UNIT (LENGTH_MEASURE( 1.000000000000000082E-05 ), #296, 'distance_accuracy_value', 'NONE');
#269 = ORIENTED_EDGE ( 'NONE', *, *, #13, .F. ) ;
#270 = ADVANCED_BREP_SHAPE_REPRESENTATION ( 'Amplifier Mount Block', ( #138, #196 ), #153 ) ;
#271 = SURFACE_SIDE_STYLE ('',( #166 ) ) ;
#272 = ADVANCED_FACE ( 'NONE', ( #98 ), #338, .F. ) ;
#273 = CARTESIAN_POINT ( 'NONE',  ( -19.23999999999999488, -12.50000000000000000, 8.000000000000000000 ) ) ;
#274 = CARTESIAN_POINT ( 'NONE',  ( -24.23999999999999844, -12.50000000000000000, 0.000000000000000000 ) ) ;
#275 = AXIS2_PLACEMENT_3D ( 'NONE', #93, #308, #42 ) ;
#276 = AXIS2_PLACEMENT_3D ( 'NONE', #97, #171, #252 ) ;
#277 = LINE ( 'NONE', #249, #231 ) ;
#278 = CARTESIAN_POINT ( 'NONE',  ( -21.48999999999999844, -12.50000000000000000, 8.000000000000000000 ) ) ;
#279 = DIRECTION ( 'NONE',  ( -0.000000000000000000, -0.000000000000000000, -1.000000000000000000 ) ) ;
#280 = VERTEX_POINT ( 'NONE', #127 ) ;
#281 = CARTESIAN_POINT ( 'NONE',  ( -24.23999999999999844, -12.50000000000000000, 8.000000000000000000 ) ) ;
#282 = ORIENTED_EDGE ( 'NONE', *, *, #53, .F. ) ;
#283 = CARTESIAN_POINT ( 'NONE',  ( -26.98999999999999488, -12.50000000000000000, 8.000000000000000000 ) ) ;
#284 = ORIENTED_EDGE ( 'NONE', *, *, #111, .T. ) ;
#285 = FACE_OUTER_BOUND ( 'NONE', #11, .T. ) ;
#286 = EDGE_CURVE ( 'NONE', #305, #108, #233, .T. ) ;
#287 = DIRECTION ( 'NONE',  ( -0.000000000000000000, -0.000000000000000000, 1.000000000000000000 ) ) ;
#288 =( GEOMETRIC_REPRESENTATION_CONTEXT ( 3 ) GLOBAL_UNCERTAINTY_ASSIGNED_CONTEXT ( ( #123 ) ) GLOBAL_UNIT_ASSIGNED_CONTEXT ( ( #15, #167, #206 ) ) REPRESENTATION_CONTEXT ( 'NONE', 'WORKASPACE' ) );
#289 = VERTEX_POINT ( 'NONE', #204 ) ;
#290 = DIRECTION ( 'NONE',  ( -0.000000000000000000, -0.000000000000000000, 1.000000000000000000 ) ) ;
#291 = FACE_OUTER_BOUND ( 'NONE', #262, .T. ) ;
#292 = ORIENTED_EDGE ( 'NONE', *, *, #81, .F. ) ;
#293 = EDGE_CURVE ( 'NONE', #129, #108, #122, .T. ) ;
#294 = FACE_OUTER_BOUND ( 'NONE', #134, .T. ) ;
#295 = ORIENTED_EDGE ( 'NONE', *, *, #315, .T. ) ;
#296 =( LENGTH_UNIT ( ) NAMED_UNIT ( * ) SI_UNIT ( .MILLI., .METRE. ) );
#297 = ORIENTED_EDGE ( 'NONE', *, *, #163, .F. ) ;
#298 = DIRECTION ( 'NONE',  ( -1.000000000000000000, 0.000000000000000000, 0.000000000000000000 ) ) ;
#299 = EDGE_CURVE ( 'NONE', #280, #289, #310, .T. ) ;
#300 = PLANE ( 'NONE',  #64 ) ;
#301 = DIRECTION ( 'NONE',  ( 0.000000000000000000, 0.000000000000000000, 1.000000000000000000 ) ) ;
#302 = EDGE_CURVE ( 'NONE', #255, #75, #113, .T. ) ;
#303 = DIRECTION ( 'NONE',  ( 0.000000000000000000, 0.000000000000000000, 1.000000000000000000 ) ) ;
#304 = EDGE_CURVE ( 'NONE', #162, #91, #313, .T. ) ;
#305 = VERTEX_POINT ( 'NONE', #154 ) ;
#306 = DIRECTION ( 'NONE',  ( 1.000000000000000000, 0.000000000000000000, 0.000000000000000000 ) ) ;
#307 = VECTOR ( 'NONE', #9, 1000.000000000000000 ) ;
#308 = DIRECTION ( 'NONE',  ( -0.000000000000000000, -0.000000000000000000, 1.000000000000000000 ) ) ;
#309 = DIRECTION ( 'NONE',  ( 1.000000000000000000, 0.000000000000000000, 0.000000000000000000 ) ) ;
#310 = LINE ( 'NONE', #173, #260 ) ;
#311 = STYLED_ITEM ( 'NONE', ( #18 ), #138 ) ;
#312 = VECTOR ( 'NONE', #279, 1000.000000000000000 ) ;
#313 = LINE ( 'NONE', #283, #307 ) ;
#314 = CARTESIAN_POINT ( 'NONE',  ( -21.48999999999999844, -12.50000000000000000, 8.000000000000000000 ) ) ;
#315 = EDGE_CURVE ( 'NONE', #75, #255, #226, .T. ) ;
#316 = CARTESIAN_POINT ( 'NONE',  ( -26.98999999999999488, -12.50000000000000000, 0.000000000000000000 ) ) ;
#317 = ORIENTED_EDGE ( 'NONE', *, *, #47, .F. ) ;
#318 = PLANE ( 'NONE',  #165 ) ;
#319 = EDGE_LOOP ( 'NONE', ( #135, #200, #205, #136 ) ) ;
#320 = CARTESIAN_POINT ( 'NONE',  ( -21.48999999999999844, 12.50000000000000000, 8.000000000000000000 ) ) ;
#321 = CIRCLE ( 'NONE', #126, 2.749999999999999112 ) ;
#322 = PLANE ( 'NONE',  #328 ) ;
#323 = CARTESIAN_POINT ( 'NONE',  ( -24.23999999999999844, 12.50000000000000000, 8.000000000000000000 ) ) ;
#324 = ADVANCED_FACE ( 'NONE', ( #294 ), #322, .F. ) ;
#325 = FILL_AREA_STYLE_COLOUR ( '', #152 ) ;
#326 = CARTESIAN_POINT ( 'NONE',  ( -24.23999999999999844, -12.50000000000000000, 0.000000000000000000 ) ) ;
#327 = AXIS2_PLACEMENT_3D ( 'NONE', #326, #41, #329 ) ;
#328 = AXIS2_PLACEMENT_3D ( 'NONE', #130, #183, #88 ) ;
#329 = DIRECTION ( 'NONE',  ( 1.000000000000000000, 0.000000000000000000, 0.000000000000000000 ) ) ;
#330 = DIRECTION ( 'NONE',  ( 0.000000000000000000, 0.000000000000000000, 1.000000000000000000 ) ) ;
#331 = EDGE_CURVE ( 'NONE', #105, #305, #109, .T. ) ;
#332 = CARTESIAN_POINT ( 'NONE',  ( -26.98999999999999488, 12.50000000000000000, 0.000000000000000000 ) ) ;
#333 = AXIS2_PLACEMENT_3D ( 'NONE', #191, #301, #217 ) ;
#334 = CARTESIAN_POINT ( 'NONE',  ( -24.23999999999999844, -12.50000000000000000, 8.000000000000000000 ) ) ;
#335 = EDGE_CURVE ( 'NONE', #162, #57, #1, .T. ) ;
#336 = DIRECTION ( 'NONE',  ( 1.000000000000000000, 0.000000000000000000, 0.000000000000000000 ) ) ;
#337 = EDGE_LOOP ( 'NONE', ( #174, #147 ) ) ;
#338 = CYLINDRICAL_SURFACE ( 'NONE', #251, 2.749999999999999112 ) ;
#339 = VERTEX_POINT ( 'NONE', #59 ) ;
ENDSEC;
END-ISO-10303-21;
