ISO-10303-21;
HEADER;
FILE_DESCRIPTION (( 'STEP AP214' ),
    '1' );
FILE_NAME ('Gripper Insert.STEP',
    '2026-05-26T05:12:03',
    ( '' ),
    ( '' ),
    'SwSTEP 2.0',
    'SolidWorks 2025',
    '' );
FILE_SCHEMA (( 'AUTOMOTIVE_DESIGN' ));
ENDSEC;

DATA;
#1 = ORIENTED_EDGE ( 'NONE', *, *, #433, .T. ) ;
#2 = CARTESIAN_POINT ( 'NONE',  ( 7.495090081878235999, -5.099999999999995204, 2.000000000000000000 ) ) ;
#3 = CARTESIAN_POINT ( 'NONE',  ( 2.606755855829173463, -30.93666666666667453, 2.000000000000000000 ) ) ;
#4 = EDGE_CURVE ( 'NONE', #444, #1128, #840, .T. ) ;
#5 = CIRCLE ( 'NONE', #985, 2.100000000000000089 ) ;
#6 = ORIENTED_EDGE ( 'NONE', *, *, #1072, .T. ) ;
#7 = VERTEX_POINT ( 'NONE', #271 ) ;
#8 = CARTESIAN_POINT ( 'NONE',  ( 11.64544826719042980, -31.95000000000001350, 0.000000000000000000 ) ) ;
#9 = ADVANCED_FACE ( 'NONE', ( #635 ), #944, .T. ) ;
#10 = DIRECTION ( 'NONE',  ( 0.5000000000000012212, 0.8660254037844380415, 0.000000000000000000 ) ) ;
#11 = VERTEX_POINT ( 'NONE', #223 ) ;
#12 = AXIS2_PLACEMENT_3D ( 'NONE', #234, #239, #373 ) ;
#13 = VECTOR ( 'NONE', #1190, 1000.000000000000000 ) ;
#14 = ORIENTED_EDGE ( 'NONE', *, *, #1079, .F. ) ;
#15 = CARTESIAN_POINT ( 'NONE',  ( 7.495090081878235999, -3.099999999999994316, 2.000000000000000000 ) ) ;
#16 = DIRECTION ( 'NONE',  ( 1.000000000000000000, 0.000000000000000000, 0.000000000000000000 ) ) ;
#17 = CARTESIAN_POINT ( 'NONE',  ( -7.183360820271017744, -5.956469107249132477, -44.89999999999999858 ) ) ;
#18 = ORIENTED_EDGE ( 'NONE', *, *, #711, .T. ) ;
#19 = VERTEX_POINT ( 'NONE', #404 ) ;
#20 = EDGE_CURVE ( 'NONE', #437, #296, #950, .T. ) ;
#21 = FACE_OUTER_BOUND ( 'NONE', #182, .T. ) ;
#22 = DIRECTION ( 'NONE',  ( 1.000000000000000000, 0.000000000000000000, 0.000000000000000000 ) ) ;
#23 = FACE_OUTER_BOUND ( 'NONE', #474, .T. ) ;
#24 = EDGE_CURVE ( 'NONE', #872, #1128, #117, .T. ) ;
#25 = VERTEX_POINT ( 'NONE', #301 ) ;
#26 = DIRECTION ( 'NONE',  ( 0.000000000000000000, 0.000000000000000000, -1.000000000000000000 ) ) ;
#27 = EDGE_CURVE ( 'NONE', #829, #827, #368, .T. ) ;
#28 = PLANE ( 'NONE',  #942 ) ;
#29 = AXIS2_PLACEMENT_3D ( 'NONE', #748, #1123, #136 ) ;
#30 = CARTESIAN_POINT ( 'NONE',  ( 5.683174119116800149, -1.099999999999994982, -44.58885438199982332 ) ) ;
#31 = AXIS2_PLACEMENT_3D ( 'NONE', #304, #390, #22 ) ;
#32 = ORIENTED_EDGE ( 'NONE', *, *, #1131, .T. ) ;
#33 = DIRECTION ( 'NONE',  ( -0.000000000000000000, -0.000000000000000000, -1.000000000000000000 ) ) ;
#34 = EDGE_CURVE ( 'NONE', #159, #415, #978, .T. ) ;
#35 = CARTESIAN_POINT ( 'NONE',  ( 21.32264973081040793, -12.00000000000000000, 0.000000000000000000 ) ) ;
#36 = CARTESIAN_POINT ( 'NONE',  ( -9.422649730810416457, -11.99999999999999822, -98.22634748102971969 ) ) ;
#37 = VERTEX_POINT ( 'NONE', #229 ) ;
#38 = LINE ( 'NONE', #297, #888 ) ;
#39 = DIRECTION ( 'NONE',  ( 0.000000000000000000, 0.000000000000000000, 1.000000000000000000 ) ) ;
#40 = EDGE_CURVE ( 'NONE', #1087, #11, #756, .T. ) ;
#41 = DIRECTION ( 'NONE',  ( 0.000000000000000000, 0.000000000000000000, 1.000000000000000000 ) ) ;
#42 = ORIENTED_EDGE ( 'NONE', *, *, #602, .T. ) ;
#43 = DIRECTION ( 'NONE',  ( -1.000000000000000000, 0.000000000000000000, 0.000000000000000000 ) ) ;
#44 = DIRECTION ( 'NONE',  ( -0.000000000000000000, -0.000000000000000000, -1.000000000000000000 ) ) ;
#45 = EDGE_CURVE ( 'NONE', #910, #213, #674, .T. ) ;
#46 = DIRECTION ( 'NONE',  ( 1.000000000000000000, 0.000000000000000000, 0.000000000000000000 ) ) ;
#47 = DIRECTION ( 'NONE',  ( 0.000000000000000000, 0.000000000000000000, -1.000000000000000000 ) ) ;
#48 = ORIENTED_EDGE ( 'NONE', *, *, #192, .T. ) ;
#49 = APPLICATION_CONTEXT ( 'automotive_design' ) ;
#50 =( LENGTH_UNIT ( ) NAMED_UNIT ( * ) SI_UNIT ( .MILLI., .METRE. ) );
#51 = ADVANCED_FACE ( 'NONE', ( #491 ), #295, .T. ) ;
#52 = DIRECTION ( 'NONE',  ( -0.000000000000000000, -0.000000000000000000, 1.000000000000000000 ) ) ;
#53 = AXIS2_PLACEMENT_3D ( 'NONE', #167, #185, #371 ) ;
#54 = CARTESIAN_POINT ( 'NONE',  ( 3.606666962989321767, -31.95000000000000639, -98.22634748102971969 ) ) ;
#55 = CARTESIAN_POINT ( 'NONE',  ( -9.422649730810421786, 2.899999999999999911, 2.000000000000000000 ) ) ;
#56 = ORIENTED_EDGE ( 'NONE', *, *, #116, .F. ) ;
#57 = CARTESIAN_POINT ( 'NONE',  ( -9.422649730810423563, -2.199999999999996181, -42.79999999999999716 ) ) ;
#58 = VERTEX_POINT ( 'NONE', #591 ) ;
#59 = EDGE_CURVE ( 'NONE', #1142, #123, #498, .T. ) ;
#60 = VECTOR ( 'NONE', #987, 1000.000000000000000 ) ;
#61 = DIRECTION ( 'NONE',  ( 0.5000000000000012212, -0.8660254037844380415, 0.000000000000000000 ) ) ;
#62 = CYLINDRICAL_SURFACE ( 'NONE', #760, 2.100000000000000089 ) ;
#63 = PRESENTATION_STYLE_ASSIGNMENT (( #108 ) ) ;
#64 = ORIENTED_EDGE ( 'NONE', *, *, #732, .T. ) ;
#65 = ORIENTED_EDGE ( 'NONE', *, *, #1095, .T. ) ;
#66 = DIRECTION ( 'NONE',  ( 1.337612095876981819E-16, 1.000000000000000000, -0.000000000000000000 ) ) ;
#67 = AXIS2_PLACEMENT_3D ( 'NONE', #303, #26, #1035 ) ;
#68 = EDGE_CURVE ( 'NONE', #464, #415, #1141, .T. ) ;
#69 = DIRECTION ( 'NONE',  ( 0.000000000000000000, 0.000000000000000000, 1.000000000000000000 ) ) ;
#70 = PRODUCT_DEFINITION_SHAPE ( 'NONE', 'NONE',  #1102 ) ;
#71 = CARTESIAN_POINT ( 'NONE',  ( 7.495090081878235999, -3.099999999999994760, -44.89999999999999858 ) ) ;
#72 = ORIENTED_EDGE ( 'NONE', *, *, #870, .F. ) ;
#73 = DIRECTION ( 'NONE',  ( 0.000000000000000000, 0.000000000000000000, 1.000000000000000000 ) ) ;
#74 = ORIENTED_EDGE ( 'NONE', *, *, #633, .F. ) ;
#75 = VECTOR ( 'NONE', #1134, 1000.000000000000000 ) ;
#76 = CARTESIAN_POINT ( 'NONE',  ( -11.64544826719044046, -31.94999999999999929, -98.22634748102971969 ) ) ;
#77 = AXIS2_PLACEMENT_3D ( 'NONE', #1015, #355, #1191 ) ;
#78 = FACE_OUTER_BOUND ( 'NONE', #499, .T. ) ;
#79 = ORIENTED_EDGE ( 'NONE', *, *, #403, .T. ) ;
#80 = ORIENTED_EDGE ( 'NONE', *, *, #628, .T. ) ;
#81 = DIRECTION ( 'NONE',  ( -1.000000000000000000, 0.000000000000000000, 0.000000000000000000 ) ) ;
#82 = CIRCLE ( 'NONE', #1056, 11.89999999999999680 ) ;
#83 = PLANE ( 'NONE',  #477 ) ;
#84 = ADVANCED_FACE ( 'NONE', ( #23 ), #858, .T. ) ;
#85 = VERTEX_POINT ( 'NONE', #387 ) ;
#86 = DIRECTION ( 'NONE',  ( -0.000000000000000000, -0.000000000000000000, 1.000000000000000000 ) ) ;
#87 = CARTESIAN_POINT ( 'NONE',  ( 15.10954988232819218, -31.94999999999999929, 2.000000000000000000 ) ) ;
#88 = CARTESIAN_POINT ( 'NONE',  ( 9.422649730810384483, 2.900000000000001688, 2.000000000000000000 ) ) ;
#89 = EDGE_LOOP ( 'NONE', ( #933, #380, #588, #1034 ) ) ;
#90 = DIRECTION ( 'NONE',  ( 1.000000000000000000, 0.000000000000000000, 0.000000000000000000 ) ) ;
#91 = VECTOR ( 'NONE', #678, 1000.000000000000000 ) ;
#92 = CARTESIAN_POINT ( 'NONE',  ( 78.60000000000000853, -31.94999999999999929, -44.89999999999999858 ) ) ;
#93 = ORIENTED_EDGE ( 'NONE', *, *, #911, .F. ) ;
#94 = ORIENTED_EDGE ( 'NONE', *, *, #305, .T. ) ;
#95 = FACE_OUTER_BOUND ( 'NONE', #1086, .T. ) ;
#96 = EDGE_CURVE ( 'NONE', #110, #577, #391, .T. ) ;
#97 = B_SPLINE_CURVE_WITH_KNOTS ( 'NONE', 3,
 ( #409, #767, #681, #1051, #962, #746, #138, #508, #751, #1126 ),
 .UNSPECIFIED., .F., .F.,
 ( 4, 2, 2, 2, 4 ),
 ( 1.563658610346375187E-18, 0.0005549131754065612151, 0.001109826350813120912, 0.001664739526219680609, 0.002219652701626240524 ),
 .UNSPECIFIED. ) ;
#98 = CARTESIAN_POINT ( 'NONE',  ( -22.32642824719854957, -19.45000000000000995, 2.000000000000000000 ) ) ;
#99 = EDGE_LOOP ( 'NONE', ( #74, #556, #593, #1182 ) ) ;
#100 = ORIENTED_EDGE ( 'NONE', *, *, #1143, .T. ) ;
#101 = DIRECTION ( 'NONE',  ( -1.000000000000000000, 0.000000000000000000, -0.000000000000000000 ) ) ;
#102 = EDGE_CURVE ( 'NONE', #7, #774, #97, .T. ) ;
#103 = CARTESIAN_POINT ( 'NONE',  ( -5.495090081878235999, -1.099999999999994982, 2.000000000000000000 ) ) ;
#104 = AXIS2_PLACEMENT_3D ( 'NONE', #266, #124, #566 ) ;
#105 = ORIENTED_EDGE ( 'NONE', *, *, #784, .T. ) ;
#106 = ORIENTED_EDGE ( 'NONE', *, *, #473, .F. ) ;
#107 = CARTESIAN_POINT ( 'NONE',  ( -7.495090081878235999, -5.099999999999995204, 2.000000000000000000 ) ) ;
#108 = SURFACE_STYLE_USAGE ( .BOTH. , #931 ) ;
#109 = ADVANCED_FACE ( 'NONE', ( #772 ), #428, .T. ) ;
#110 = VERTEX_POINT ( 'NONE', #801 ) ;
#111 = AXIS2_PLACEMENT_3D ( 'NONE', #615, #44, #516 ) ;
#112 = ORIENTED_EDGE ( 'NONE', *, *, #918, .T. ) ;
#113 = DIRECTION ( 'NONE',  ( 0.000000000000000000, 0.000000000000000000, 1.000000000000000000 ) ) ;
#114 = FACE_OUTER_BOUND ( 'NONE', #1106, .T. ) ;
#115 = DIRECTION ( 'NONE',  ( -0.000000000000000000, -0.000000000000000000, 1.000000000000000000 ) ) ;
#116 = EDGE_CURVE ( 'NONE', #655, #890, #1077, .T. ) ;
#117 = CIRCLE ( 'NONE', #156, 14.90000000000000036 ) ;
#118 = ORIENTED_EDGE ( 'NONE', *, *, #359, .F. ) ;
#119 = DIRECTION ( 'NONE',  ( -5.958460116521814421E-16, -1.000000000000000000, 0.000000000000000000 ) ) ;
#120 = DIRECTION ( 'NONE',  ( 1.000000000000000000, 0.000000000000000000, 0.000000000000000000 ) ) ;
#121 = DIRECTION ( 'NONE',  ( 1.000000000000000000, -0.000000000000000000, 0.000000000000000000 ) ) ;
#122 = VECTOR ( 'NONE', #273, 1000.000000000000000 ) ;
#123 = VERTEX_POINT ( 'NONE', #877 ) ;
#124 = DIRECTION ( 'NONE',  ( -0.000000000000000000, -1.000000000000000000, -0.000000000000000000 ) ) ;
#125 = CARTESIAN_POINT ( 'NONE',  ( 15.10954988232819218, -31.94999999999999929, 2.000000000000000000 ) ) ;
#126 = AXIS2_PLACEMENT_3D ( 'NONE', #981, #970, #589 ) ;
#127 = CARTESIAN_POINT ( 'NONE',  ( 5.870365701112759460, -1.127043502546081433, -44.60612445398274417 ) ) ;
#128 = VECTOR ( 'NONE', #856, 1000.000000000000000 ) ;
#129 = VECTOR ( 'NONE', #998, 999.9999999999998863 ) ;
#130 = ORIENTED_EDGE ( 'NONE', *, *, #204, .T. ) ;
#131 = LINE ( 'NONE', #562, #915 ) ;
#132 = LINE ( 'NONE', #657, #458 ) ;
#133 = EDGE_CURVE ( 'NONE', #463, #25, #174, .T. ) ;
#134 = CARTESIAN_POINT ( 'NONE',  ( 5.495090081878235999, -1.099999999999995426, -44.58885438199982332 ) ) ;
#135 = EDGE_LOOP ( 'NONE', ( #990, #714, #631, #1017 ) ) ;
#136 = DIRECTION ( 'NONE',  ( 1.000000000000000000, 0.000000000000000000, 0.000000000000000000 ) ) ;
#137 = CARTESIAN_POINT ( 'NONE',  ( 7.495090081878235999, -3.099999999999994316, -44.89999999999999858 ) ) ;
#138 = CARTESIAN_POINT ( 'NONE',  ( -6.221680399886812651, -1.227713792975635210, -44.66225151908466984 ) ) ;
#139 = ORIENTED_EDGE ( 'NONE', *, *, #192, .F. ) ;
#140 = DIRECTION ( 'NONE',  ( -0.3420201433256543355, 0.9396926207859136460, 0.000000000000000000 ) ) ;
#141 = DIRECTION ( 'NONE',  ( 1.000000000000000000, -1.337612095876981819E-16, -0.000000000000000000 ) ) ;
#142 = CARTESIAN_POINT ( 'NONE',  ( 17.90969868789789388, -16.90000000000001990, -42.79999999999999716 ) ) ;
#143 = EDGE_CURVE ( 'NONE', #1122, #338, #518, .T. ) ;
#144 = CARTESIAN_POINT ( 'NONE',  ( 9.422649730810384483, 2.900000000000001688, 2.000000000000000000 ) ) ;
#145 = ORIENTED_EDGE ( 'NONE', *, *, #359, .T. ) ;
#146 = VECTOR ( 'NONE', #228, 1000.000000000000000 ) ;
#147 = LINE ( 'NONE', #438, #337 ) ;
#148 = CYLINDRICAL_SURFACE ( 'NONE', #717, 14.89999999999999680 ) ;
#149 = DIRECTION ( 'NONE',  ( 0.000000000000000000, 0.000000000000000000, 1.000000000000000000 ) ) ;
#150 = CARTESIAN_POINT ( 'NONE',  ( 9.422649730810393365, -0.09999999999999845124, -42.79999999999999716 ) ) ;
#151 = ORIENTED_EDGE ( 'NONE', *, *, #1168, .F. ) ;
#152 = ADVANCED_FACE ( 'NONE', ( #973 ), #62, .T. ) ;
#153 = DIRECTION ( 'NONE',  ( 0.5000000000000013323, 0.8660254037844380415, -0.000000000000000000 ) ) ;
#154 = EDGE_LOOP ( 'NONE', ( #603, #810, #1105, #1133 ) ) ;
#155 = CARTESIAN_POINT ( 'NONE',  ( 7.495090081878235999, -3.099999999999994760, -44.89999999999999858 ) ) ;
#156 = AXIS2_PLACEMENT_3D ( 'NONE', #216, #851, #957 ) ;
#157 = DIRECTION ( 'NONE',  ( -1.000000000000000000, 0.000000000000000000, 0.000000000000000000 ) ) ;
#158 = PLANE ( 'NONE',  #521 ) ;
#159 = VERTEX_POINT ( 'NONE', #532 ) ;
#160 = CARTESIAN_POINT ( 'NONE',  ( 3.606666962989319991, -31.94999999999999929, 2.000000000000000000 ) ) ;
#161 = PLANE ( 'NONE',  #936 ) ;
#162 = AXIS2_PLACEMENT_3D ( 'NONE', #712, #650, #807 ) ;
#163 = DIRECTION ( 'NONE',  ( 1.000000000000000000, 0.000000000000000000, 0.000000000000000000 ) ) ;
#164 = CARTESIAN_POINT ( 'NONE',  ( -2.606755855829173463, -30.93666666666666742, -44.89999999999999858 ) ) ;
#165 = ORIENTED_EDGE ( 'NONE', *, *, #96, .T. ) ;
#166 = EDGE_LOOP ( 'NONE', ( #225, #550, #72, #815, #526 ) ) ;
#167 = CARTESIAN_POINT ( 'NONE',  ( 17.90969868789789388, -16.90000000000002345, -42.79999999999999716 ) ) ;
#168 = CIRCLE ( 'NONE', #77, 75.99999999999998579 ) ;
#169 = VECTOR ( 'NONE', #506, 1000.000000000000000 ) ;
#170 = EDGE_CURVE ( 'NONE', #85, #37, #1078, .T. ) ;
#171 = FACE_OUTER_BOUND ( 'NONE', #154, .T. ) ;
#172 = ORIENTED_EDGE ( 'NONE', *, *, #825, .F. ) ;
#173 = SHAPE_DEFINITION_REPRESENTATION ( #70, #1179 ) ;
#174 =( BOUNDED_CURVE ( )  B_SPLINE_CURVE ( 3, ( #351, #1161, #336, #967 ),
 .UNSPECIFIED., .F., .F. ) 
 B_SPLINE_CURVE_WITH_KNOTS ( ( 4, 4 ),
 ( 4.712388980384687898, 6.283185307179586232 ),
 .UNSPECIFIED. ) 
 CURVE ( )  GEOMETRIC_REPRESENTATION_ITEM ( )  RATIONAL_B_SPLINE_CURVE ( ( 1.000000000000000000, 0.8047378541243646044, 0.8047378541243646044, 1.000000000000000000 ) ) 
 REPRESENTATION_ITEM ( '' )  );
#175 = CARTESIAN_POINT ( 'NONE',  ( -9.422649730810416457, -11.99999999999999822, 2.000000000000000000 ) ) ;
#176 = EDGE_CURVE ( 'NONE', #1128, #85, #778, .T. ) ;
#177 = AXIS2_PLACEMENT_3D ( 'NONE', #87, #454, #813 ) ;
#178 = DIRECTION ( 'NONE',  ( -0.000000000000000000, -0.000000000000000000, -1.000000000000000000 ) ) ;
#179 = VERTEX_POINT ( 'NONE', #252 ) ;
#180 = DIRECTION ( 'NONE',  ( -0.000000000000000000, -0.000000000000000000, 1.000000000000000000 ) ) ;
#181 = CARTESIAN_POINT ( 'NONE',  ( -22.32642824719854957, -19.45000000000000995, 0.000000000000000000 ) ) ;
#182 = EDGE_LOOP ( 'NONE', ( #923, #637, #288, #833 ) ) ;
#183 = ADVANCED_FACE ( 'NONE', ( #78 ), #257, .T. ) ;
#184 = ORIENTED_EDGE ( 'NONE', *, *, #1131, .F. ) ;
#185 = DIRECTION ( 'NONE',  ( -0.5000000000000011102, -0.8660254037844380415, -0.000000000000000000 ) ) ;
#186 = AXIS2_PLACEMENT_3D ( 'NONE', #291, #656, #758 ) ;
#187 = AXIS2_PLACEMENT_3D ( 'NONE', #1037, #221, #501 ) ;
#188 = CARTESIAN_POINT ( 'NONE',  ( -3.606666962989321767, -31.95000000000000639, -98.22634748102971969 ) ) ;
#189 = ORIENTED_EDGE ( 'NONE', *, *, #802, .T. ) ;
#190 = EDGE_CURVE ( 'NONE', #740, #457, #926, .T. ) ;
#191 = ORIENTED_EDGE ( 'NONE', *, *, #664, .T. ) ;
#192 = EDGE_CURVE ( 'NONE', #520, #811, #480, .T. ) ;
#193 = FACE_OUTER_BOUND ( 'NONE', #1114, .T. ) ;
#194 = CARTESIAN_POINT ( 'NONE',  ( 9.422649730810393365, -2.200000000000000622, -44.89999999999999858 ) ) ;
#195 = EDGE_LOOP ( 'NONE', ( #492, #151, #706, #886 ) ) ;
#196 = VECTOR ( 'NONE', #1045, 1000.000000000000000 ) ;
#197 = EDGE_LOOP ( 'NONE', ( #716, #189, #1023, #130, #540, #780, #79, #334, #547, #768, #988, #18, #848, #1149, #65, #565, #1158, #145, #388, #710 ) ) ;
#198 = CARTESIAN_POINT ( 'NONE',  ( 7.183360820271017744, -5.956469107249132477, -44.89999999999999858 ) ) ;
#199 = CARTESIAN_POINT ( 'NONE',  ( 0.000000000000000000, 0.000000000000000000, -44.89999999999999858 ) ) ;
#200 = ORIENTED_EDGE ( 'NONE', *, *, #456, .T. ) ;
#201 = EDGE_LOOP ( 'NONE', ( #94, #249, #332, #564 ) ) ;
#202 = DIRECTION ( 'NONE',  ( 0.000000000000000000, 0.000000000000000000, 1.000000000000000000 ) ) ;
#203 = CARTESIAN_POINT ( 'NONE',  ( -9.220577136594007683, -31.94999999999999929, -44.89999999999999858 ) ) ;
#204 = EDGE_CURVE ( 'NONE', #649, #1005, #607, .T. ) ;
#205 = DIRECTION ( 'NONE',  ( -0.000000000000000000, -0.000000000000000000, 1.000000000000000000 ) ) ;
#206 = TOROIDAL_SURFACE ( 'NONE', #416, 9.799999999999995381, 2.100000000000000089 ) ;
#207 = ORIENTED_EDGE ( 'NONE', *, *, #683, .T. ) ;
#208 = LINE ( 'NONE', #495, #128 ) ;
#209 = EDGE_CURVE ( 'NONE', #338, #464, #1019, .T. ) ;
#210 = CARTESIAN_POINT ( 'NONE',  ( 7.196451352227546394, -2.031920437221715225, -44.90000000000000568 ) ) ;
#211 = CIRCLE ( 'NONE', #267, 2.099999999999997868 ) ;
#212 = AXIS2_PLACEMENT_3D ( 'NONE', #512, #895, #883 ) ;
#213 = VERTEX_POINT ( 'NONE', #524 ) ;
#214 = CARTESIAN_POINT ( 'NONE',  ( -9.422649730810421786, 2.899999999999999911, 2.000000000000000000 ) ) ;
#215 = CARTESIAN_POINT ( 'NONE',  ( 5.495090081878235999, -1.099999999999995426, -44.89999999999999858 ) ) ;
#216 = CARTESIAN_POINT ( 'NONE',  ( 9.422649730810407576, -12.00000000000000000, 0.000000000000000000 ) ) ;
#217 = AXIS2_PLACEMENT_3D ( 'NONE', #175, #354, #1088 ) ;
#218 = ORIENTED_EDGE ( 'NONE', *, *, #1115, .T. ) ;
#219 = ADVANCED_FACE ( 'NONE', ( #1057 ), #986, .T. ) ;
#220 = CARTESIAN_POINT ( 'NONE',  ( -78.60000000000000853, -31.94999999999999929, -44.89999999999999858 ) ) ;
#221 = DIRECTION ( 'NONE',  ( 0.000000000000000000, 0.000000000000000000, -1.000000000000000000 ) ) ;
#222 = AXIS2_PLACEMENT_3D ( 'NONE', #1157, #1053, #798 ) ;
#223 = CARTESIAN_POINT ( 'NONE',  ( -9.422649730810423563, -0.1000000000000011297, 0.000000000000000000 ) ) ;
#224 = VECTOR ( 'NONE', #554, 1000.000000000000000 ) ;
#225 = ORIENTED_EDGE ( 'NONE', *, *, #545, .T. ) ;
#226 = DIRECTION ( 'NONE',  ( 0.000000000000000000, 0.000000000000000000, -1.000000000000000000 ) ) ;
#227 = AXIS2_PLACEMENT_3D ( 'NONE', #515, #769, #320 ) ;
#228 = DIRECTION ( 'NONE',  ( -0.000000000000000000, -0.000000000000000000, -1.000000000000000000 ) ) ;
#229 = CARTESIAN_POINT ( 'NONE',  ( -24.32264973081041859, -11.99999999999999822, 0.000000000000000000 ) ) ;
#230 = ORIENTED_EDGE ( 'NONE', *, *, #1119, .F. ) ;
#231 = VECTOR ( 'NONE', #258, 1000.000000000000000 ) ;
#232 = FACE_OUTER_BOUND ( 'NONE', #452, .T. ) ;
#233 = ADVANCED_FACE ( 'NONE', ( #794 ), #442, .T. ) ;
#234 = CARTESIAN_POINT ( 'NONE',  ( -22.32642824719854957, -19.45000000000000995, 2.000000000000000000 ) ) ;
#235 = CARTESIAN_POINT ( 'NONE',  ( 21.32264973081040793, -12.00000000000000000, -98.22634748102971969 ) ) ;
#236 = VERTEX_POINT ( 'NONE', #1062 ) ;
#237 = DIRECTION ( 'NONE',  ( 0.000000000000000000, 0.000000000000000000, -1.000000000000000000 ) ) ;
#238 = CYLINDRICAL_SURFACE ( 'NONE', #111, 14.90000000000000036 ) ;
#239 = DIRECTION ( 'NONE',  ( 0.8660254037844378194, 0.5000000000000016653, -0.000000000000000000 ) ) ;
#240 = AXIS2_PLACEMENT_3D ( 'NONE', #220, #202, #583 ) ;
#241 = LINE ( 'NONE', #1148, #60 ) ;
#242 = ORIENTED_EDGE ( 'NONE', *, *, #676, .F. ) ;
#243 = VECTOR ( 'NONE', #309, 1000.000000000000000 ) ;
#244 = CARTESIAN_POINT ( 'NONE',  ( -3.606666962989321767, -30.95000000000000284, -44.89999999999999858 ) ) ;
#245 = ORIENTED_EDGE ( 'NONE', *, *, #761, .F. ) ;
#246 = DIRECTION ( 'NONE',  ( -1.000000000000000000, 1.337612095876981819E-16, 0.000000000000000000 ) ) ;
#247 = DIRECTION ( 'NONE',  ( 1.000000000000000000, 0.000000000000000000, 0.000000000000000000 ) ) ;
#248 = FACE_OUTER_BOUND ( 'NONE', #254, .T. ) ;
#249 = ORIENTED_EDGE ( 'NONE', *, *, #689, .F. ) ;
#250 = CARTESIAN_POINT ( 'NONE',  ( 5.495090081878235999, -3.099999999999994760, -44.89999999999999858 ) ) ;
#251 = VECTOR ( 'NONE', #596, 1000.000000000000000 ) ;
#252 = CARTESIAN_POINT ( 'NONE',  ( -15.10954988232820106, -31.94999999999999929, 2.000000000000000000 ) ) ;
#253 = VERTEX_POINT ( 'NONE', #992 ) ;
#254 = EDGE_LOOP ( 'NONE', ( #318, #341, #958, #172 ) ) ;
#255 = ADVANCED_FACE ( 'NONE', ( #171 ), #539, .F. ) ;
#256 = CARTESIAN_POINT ( 'NONE',  ( 7.281147191827412435, -2.199999999999998401, -44.89999999999999858 ) ) ;
#257 = CYLINDRICAL_SURFACE ( 'NONE', #289, 1.000000000000000000 ) ;
#258 = DIRECTION ( 'NONE',  ( 1.000000000000000000, 0.000000000000000000, 0.000000000000000000 ) ) ;
#259 = EDGE_LOOP ( 'NONE', ( #945, #912, #482, #605 ) ) ;
#260 = DIRECTION ( 'NONE',  ( 0.9396926207859137570, 0.3420201433256543355, 0.000000000000000000 ) ) ;
#261 = PRODUCT_DEFINITION_CONTEXT ( 'detailed design', #49, 'design' ) ;
#262 = VECTOR ( 'NONE', #531, 1000.000000000000000 ) ;
#263 = LINE ( 'NONE', #98, #834 ) ;
#264 = ORIENTED_EDGE ( 'NONE', *, *, #1020, .T. ) ;
#265 = ORIENTED_EDGE ( 'NONE', *, *, #24, .F. ) ;
#266 = CARTESIAN_POINT ( 'NONE',  ( -19.22264973081041362, -11.99999999999999822, -42.79999999999999716 ) ) ;
#267 = AXIS2_PLACEMENT_3D ( 'NONE', #686, #421, #1058 ) ;
#268 = VECTOR ( 'NONE', #306, 1000.000000000000000 ) ;
#269 = LINE ( 'NONE', #188, #224 ) ;
#270 = EDGE_CURVE ( 'NONE', #1065, #464, #993, .T. ) ;
#271 = CARTESIAN_POINT ( 'NONE',  ( -7.281147191827411547, -2.199999999999996181, -44.89999999999999858 ) ) ;
#272 = ORIENTED_EDGE ( 'NONE', *, *, #633, .T. ) ;
#273 = DIRECTION ( 'NONE',  ( -0.000000000000000000, -0.000000000000000000, -1.000000000000000000 ) ) ;
#274 = CIRCLE ( 'NONE', #948, 11.90000000000000036 ) ;
#275 = CARTESIAN_POINT ( 'NONE',  ( -17.90969868789790809, -16.90000000000000924, -44.89999999999999858 ) ) ;
#276 = ADVANCED_FACE ( 'NONE', ( #1003 ), #378, .T. ) ;
#277 = ORIENTED_EDGE ( 'NONE', *, *, #1072, .F. ) ;
#278 = ORIENTED_EDGE ( 'NONE', *, *, #847, .T. ) ;
#279 = LINE ( 'NONE', #465, #122 ) ;
#280 = VECTOR ( 'NONE', #835, 1000.000000000000000 ) ;
#281 = VECTOR ( 'NONE', #914, 1000.000000000000000 ) ;
#282 = DIRECTION ( 'NONE',  ( 0.5000000000000014433, 0.8660254037844378194, 0.000000000000000000 ) ) ;
#283 = ORIENTED_EDGE ( 'NONE', *, *, #727, .F. ) ;
#284 = ORIENTED_EDGE ( 'NONE', *, *, #96, .F. ) ;
#285 = DIRECTION ( 'NONE',  ( -8.260587980841937794E-16, 1.000000000000000000, 0.000000000000000000 ) ) ;
#286 = DIRECTION ( 'NONE',  ( 1.000000000000000000, 0.000000000000000000, 0.000000000000000000 ) ) ;
#287 = MECHANICAL_DESIGN_GEOMETRIC_PRESENTATION_REPRESENTATION (  '', ( #863 ), #327 ) ;
#288 = ORIENTED_EDGE ( 'NONE', *, *, #802, .F. ) ;
#289 = AXIS2_PLACEMENT_3D ( 'NONE', #1169, #343, #247 ) ;
#290 = ORIENTED_EDGE ( 'NONE', *, *, #366, .F. ) ;
#291 = CARTESIAN_POINT ( 'NONE',  ( 9.422649730810407576, -12.00000000000000000, -44.89999999999999858 ) ) ;
#292 = EDGE_CURVE ( 'NONE', #469, #1137, #559, .T. ) ;
#293 = DIRECTION ( 'NONE',  ( 1.000000000000000000, 2.301268121938894640E-16, 0.000000000000000000 ) ) ;
#294 = FILL_AREA_STYLE_COLOUR ( '', #844 ) ;
#295 = PLANE ( 'NONE',  #652 ) ;
#296 = VERTEX_POINT ( 'NONE', #1021 ) ;
#297 = CARTESIAN_POINT ( 'NONE',  ( -9.422649730810423563, -0.1000000000000011297, -98.22634748102971969 ) ) ;
#298 = CYLINDRICAL_SURFACE ( 'NONE', #1127, 14.89999999999999680 ) ;
#299 = CIRCLE ( 'NONE', #600, 1.000000000000000000 ) ;
#300 = EDGE_CURVE ( 'NONE', #1100, #1000, #795, .T. ) ;
#301 = CARTESIAN_POINT ( 'NONE',  ( 11.64544826719042980, -31.95000000000001350, -42.79999999999999716 ) ) ;
#302 = ORIENTED_EDGE ( 'NONE', *, *, #946, .F. ) ;
#303 = CARTESIAN_POINT ( 'NONE',  ( 9.422649730810407576, -12.00000000000000000, -42.79999999999999716 ) ) ;
#304 = CARTESIAN_POINT ( 'NONE',  ( -5.495090081878235999, -3.099999999999994760, 2.000000000000000000 ) ) ;
#305 = EDGE_CURVE ( 'NONE', #213, #872, #647, .T. ) ;
#306 = DIRECTION ( 'NONE',  ( -1.000000000000000000, 1.337612095876981819E-16, -0.000000000000000000 ) ) ;
#307 = ORIENTED_EDGE ( 'NONE', *, *, #932, .F. ) ;
#308 = DIRECTION ( 'NONE',  ( -1.000000000000000000, 0.000000000000000000, 0.000000000000000000 ) ) ;
#309 = DIRECTION ( 'NONE',  ( -0.000000000000000000, -0.000000000000000000, 1.000000000000000000 ) ) ;
#310 = ADVANCED_FACE ( 'NONE', ( #713 ), #83, .T. ) ;
#311 = DIRECTION ( 'NONE',  ( 1.000000000000000000, 0.000000000000000000, 0.000000000000000000 ) ) ;
#312 = CIRCLE ( 'NONE', #729, 11.89999999999999680 ) ;
#313 = ORIENTED_EDGE ( 'NONE', *, *, #300, .T. ) ;
#314 = DIRECTION ( 'NONE',  ( 1.000000000000000000, 0.000000000000000000, -0.000000000000000000 ) ) ;
#315 = CARTESIAN_POINT ( 'NONE',  ( 22.32642824719852825, -19.45000000000002771, 2.000000000000000000 ) ) ;
#316 = CARTESIAN_POINT ( 'NONE',  ( 2.606755855829173463, -30.93666666666667453, -44.89999999999999858 ) ) ;
#317 = CIRCLE ( 'NONE', #1048, 14.89999999999999858 ) ;
#318 = ORIENTED_EDGE ( 'NONE', *, *, #478, .F. ) ;
#319 = CIRCLE ( 'NONE', #53, 2.100000000000000089 ) ;
#320 = DIRECTION ( 'NONE',  ( 1.000000000000000000, 0.000000000000000000, 0.000000000000000000 ) ) ;
#321 = EDGE_CURVE ( 'NONE', #1122, #649, #1009, .T. ) ;
#322 = CARTESIAN_POINT ( 'NONE',  ( -2.606666962989321767, -30.95000000000000284, -44.89999999999999858 ) ) ;
#323 = DIRECTION ( 'NONE',  ( -1.000000000000000000, 0.000000000000000000, 0.000000000000000000 ) ) ;
#324 = LINE ( 'NONE', #436, #365 ) ;
#325 = EDGE_LOOP ( 'NONE', ( #363, #1046, #278, #752 ) ) ;
#326 = DIRECTION ( 'NONE',  ( -1.000000000000000000, 0.000000000000000000, 0.000000000000000000 ) ) ;
#327 =( GEOMETRIC_REPRESENTATION_CONTEXT ( 3 ) GLOBAL_UNCERTAINTY_ASSIGNED_CONTEXT ( ( #517 ) ) GLOBAL_UNIT_ASSIGNED_CONTEXT ( ( #1064, #1080, #443 ) ) REPRESENTATION_CONTEXT ( 'NONE', 'WORKASPACE' ) );
#328 = CARTESIAN_POINT ( 'NONE',  ( -9.422649730810423563, -0.09999999999999592548, -42.79999999999999716 ) ) ;
#329 = EDGE_CURVE ( 'NONE', #763, #463, #367, .T. ) ;
#330 = DIRECTION ( 'NONE',  ( -0.000000000000000000, -0.000000000000000000, 1.000000000000000000 ) ) ;
#331 = DIRECTION ( 'NONE',  ( -0.000000000000000000, -0.000000000000000000, -1.000000000000000000 ) ) ;
#332 = ORIENTED_EDGE ( 'NONE', *, *, #204, .F. ) ;
#333 = CARTESIAN_POINT ( 'NONE',  ( -5.495090081878235999, -1.099999999999995426, 2.000000000000000000 ) ) ;
#334 = ORIENTED_EDGE ( 'NONE', *, *, #938, .T. ) ;
#335 = CARTESIAN_POINT ( 'NONE',  ( 21.32264973081040793, -12.00000000000000000, -42.79999999999999716 ) ) ;
#336 = CARTESIAN_POINT ( 'NONE',  ( 11.64544826719043158, -31.95000000000000995, -44.03015151901651336 ) ) ;
#337 = VECTOR ( 'NONE', #140, 999.9999999999998863 ) ;
#338 = VERTEX_POINT ( 'NONE', #826 ) ;
#339 = VECTOR ( 'NONE', #141, 1000.000000000000000 ) ;
#340 = APPLICATION_PROTOCOL_DEFINITION ( 'draft international standard', 'automotive_design', 1998, #1181 ) ;
#341 = ORIENTED_EDGE ( 'NONE', *, *, #818, .T. ) ;
#342 = LINE ( 'NONE', #694, #552 ) ;
#343 = DIRECTION ( 'NONE',  ( -0.000000000000000000, -0.000000000000000000, 1.000000000000000000 ) ) ;
#344 = EDGE_CURVE ( 'NONE', #721, #58, #739, .T. ) ;
#345 = DIRECTION ( 'NONE',  ( 1.000000000000000000, 0.000000000000000000, 0.000000000000000000 ) ) ;
#346 = ORIENTED_EDGE ( 'NONE', *, *, #906, .F. ) ;
#347 = ORIENTED_EDGE ( 'NONE', *, *, #1020, .F. ) ;
#348 =( BOUNDED_CURVE ( )  B_SPLINE_CURVE ( 3, ( #1085, #609, #623, #979 ),
 .UNSPECIFIED., .F., .F. ) 
 B_SPLINE_CURVE_WITH_KNOTS ( ( 4, 4 ),
 ( 3.141592653589793116, 4.712388980384690562 ),
 .UNSPECIFIED. ) 
 CURVE ( )  GEOMETRIC_REPRESENTATION_ITEM ( )  RATIONAL_B_SPLINE_CURVE ( ( 1.000000000000000000, 0.8047378541243648264, 0.8047378541243648264, 1.000000000000000000 ) ) 
 REPRESENTATION_ITEM ( '' )  );
#349 = CARTESIAN_POINT ( 'NONE',  ( -5.495090081878235999, -1.099999999999994982, -44.58885438199983042 ) ) ;
#350 = AXIS2_PLACEMENT_3D ( 'NONE', #1084, #1147, #323 ) ;
#351 = CARTESIAN_POINT ( 'NONE',  ( 9.220577136593998802, -31.95000000000001350, -44.89999999999999858 ) ) ;
#352 = DIRECTION ( 'NONE',  ( 0.000000000000000000, 0.000000000000000000, 1.000000000000000000 ) ) ;
#353 = VERTEX_POINT ( 'NONE', #103 ) ;
#354 = DIRECTION ( 'NONE',  ( 0.000000000000000000, 0.000000000000000000, 1.000000000000000000 ) ) ;
#355 = DIRECTION ( 'NONE',  ( 0.000000000000000000, 0.000000000000000000, 1.000000000000000000 ) ) ;
#356 = ORIENTED_EDGE ( 'NONE', *, *, #27, .T. ) ;
#357 = ORIENTED_EDGE ( 'NONE', *, *, #1150, .T. ) ;
#358 = CARTESIAN_POINT ( 'NONE',  ( -20.75018867790192445, -11.98012701892224108, -44.89999999999999858 ) ) ;
#359 = EDGE_CURVE ( 'NONE', #900, #1040, #586, .T. ) ;
#360 = CIRCLE ( 'NONE', #537, 11.90000000000000036 ) ;
#361 = CARTESIAN_POINT ( 'NONE',  ( 20.75018867790192445, -11.98012701892224108, -44.89999999999999858 ) ) ;
#362 = DIRECTION ( 'NONE',  ( -0.000000000000000000, -0.000000000000000000, -1.000000000000000000 ) ) ;
#363 = ORIENTED_EDGE ( 'NONE', *, *, #133, .F. ) ;
#364 = FACE_OUTER_BOUND ( 'NONE', #705, .T. ) ;
#365 = VECTOR ( 'NONE', #796, 1000.000000000000000 ) ;
#366 = EDGE_CURVE ( 'NONE', #455, #296, #168, .T. ) ;
#367 = LINE ( 'NONE', #361, #129 ) ;
#368 = B_SPLINE_CURVE_WITH_KNOTS ( 'NONE', 3,
 ( #587, #210, #660, #1028, #569, #869, #1121, #127, #30, #134 ),
 .UNSPECIFIED., .F., .F.,
 ( 4, 2, 2, 2, 4 ),
 ( 1.939479807224432123E-18, 0.0005549131754065622993, 0.001109826350813122647, 0.001664739526219682995, 0.002219652701626243126 ),
 .UNSPECIFIED. ) ;
#369 = VERTEX_POINT ( 'NONE', #194 ) ;
#370 = ORIENTED_EDGE ( 'NONE', *, *, #870, .T. ) ;
#371 = DIRECTION ( 'NONE',  ( 0.8660254037844381525, -0.5000000000000011102, 0.000000000000000000 ) ) ;
#372 = VECTOR ( 'NONE', #1129, 1000.000000000000000 ) ;
#373 = DIRECTION ( 'NONE',  ( -0.5000000000000015543, 0.8660254037844377084, 0.000000000000000000 ) ) ;
#374 = ORIENTED_EDGE ( 'NONE', *, *, #59, .F. ) ;
#375 = VERTEX_POINT ( 'NONE', #275 ) ;
#376 = DIRECTION ( 'NONE',  ( -0.000000000000000000, -0.000000000000000000, 1.000000000000000000 ) ) ;
#377 = AXIS2_PLACEMENT_3D ( 'NONE', #927, #733, #472 ) ;
#378 = PLANE ( 'NONE',  #645 ) ;
#379 = AXIS2_PLACEMENT_3D ( 'NONE', #250, #52, #432 ) ;
#380 = ORIENTED_EDGE ( 'NONE', *, *, #4, .F. ) ;
#381 = EDGE_CURVE ( 'NONE', #890, #253, #269, .T. ) ;
#382 = ORIENTED_EDGE ( 'NONE', *, *, #523, .F. ) ;
#383 = CYLINDRICAL_SURFACE ( 'NONE', #696, 1.999999999999999556 ) ;
#384 = DIRECTION ( 'NONE',  ( -0.3420201433256543355, -0.9396926207859136460, 0.000000000000000000 ) ) ;
#385 = DIRECTION ( 'NONE',  ( 1.000000000000000000, 0.000000000000000000, 0.000000000000000000 ) ) ;
#386 = AXIS2_PLACEMENT_3D ( 'NONE', #720, #745, #385 ) ;
#387 = CARTESIAN_POINT ( 'NONE',  ( -9.422649730810421786, 2.899999999999999911, 0.000000000000000000 ) ) ;
#388 = ORIENTED_EDGE ( 'NONE', *, *, #825, .T. ) ;
#389 = CYLINDRICAL_SURFACE ( 'NONE', #29, 1.000000000000000000 ) ;
#390 = DIRECTION ( 'NONE',  ( 0.000000000000000000, 0.000000000000000000, 1.000000000000000000 ) ) ;
#391 = LINE ( 'NONE', #502, #575 ) ;
#392 = ORIENTED_EDGE ( 'NONE', *, *, #102, .T. ) ;
#393 = FACE_OUTER_BOUND ( 'NONE', #1171, .T. ) ;
#394 = CARTESIAN_POINT ( 'NONE',  ( 9.422649730810384483, 2.900000000000001688, 2.000000000000000000 ) ) ;
#395 = AXIS2_PLACEMENT_3D ( 'NONE', #424, #226, #43 ) ;
#396 = ADVANCED_FACE ( 'NONE', ( #922 ), #1090, .T. ) ;
#397 = AXIS2_PLACEMENT_3D ( 'NONE', #800, #783, #991 ) ;
#398 = DIRECTION ( 'NONE',  ( 1.000000000000000000, 0.000000000000000000, 0.000000000000000000 ) ) ;
#399 = ORIENTED_EDGE ( 'NONE', *, *, #459, .F. ) ;
#400 = CARTESIAN_POINT ( 'NONE',  ( -11.64544826719044046, -31.94999999999999929, -98.22634748102971969 ) ) ;
#401 = CARTESIAN_POINT ( 'NONE',  ( 19.72835203584521224, -17.95000000000002416, 0.000000000000000000 ) ) ;
#402 = EDGE_CURVE ( 'NONE', #747, #469, #263, .T. ) ;
#403 = EDGE_CURVE ( 'NONE', #1059, #917, #317, .T. ) ;
#404 = CARTESIAN_POINT ( 'NONE',  ( -2.606666962989321767, -30.95000000000000284, -44.89999999999999858 ) ) ;
#405 = VECTOR ( 'NONE', #977, 999.9999999999998863 ) ;
#406 = ORIENTED_EDGE ( 'NONE', *, *, #1025, .F. ) ;
#407 = CARTESIAN_POINT ( 'NONE',  ( -19.72835203584522290, -17.95000000000000639, -98.22634748102971969 ) ) ;
#408 = LINE ( 'NONE', #1140, #916 ) ;
#409 = CARTESIAN_POINT ( 'NONE',  ( -7.281147191827411547, -2.199999999999996181, -44.89999999999999858 ) ) ;
#410 = ORIENTED_EDGE ( 'NONE', *, *, #68, .T. ) ;
#411 = FACE_OUTER_BOUND ( 'NONE', #995, .T. ) ;
#412 = DIRECTION ( 'NONE',  ( -1.000000000000000000, 0.000000000000000000, 0.000000000000000000 ) ) ;
#413 = CARTESIAN_POINT ( 'NONE',  ( -9.422649730810416457, -11.99999999999999822, 0.000000000000000000 ) ) ;
#414 = LINE ( 'NONE', #773, #1036 ) ;
#415 = VERTEX_POINT ( 'NONE', #3 ) ;
#416 = AXIS2_PLACEMENT_3D ( 'NONE', #1083, #439, #412 ) ;
#417 = ADVANCED_FACE ( 'NONE', ( #544 ), #909, .F. ) ;
#418 = CARTESIAN_POINT ( 'NONE',  ( -15.10954988232820106, -31.94999999999999929, 0.000000000000000000 ) ) ;
#419 = LINE ( 'NONE', #322, #836 ) ;
#420 = DIRECTION ( 'NONE',  ( -0.8660254037844381525, 0.5000000000000011102, 0.000000000000000000 ) ) ;
#421 = DIRECTION ( 'NONE',  ( 1.000000000000000000, -0.000000000000000000, 0.000000000000000000 ) ) ;
#422 = ORIENTED_EDGE ( 'NONE', *, *, #523, .T. ) ;
#423 = EDGE_CURVE ( 'NONE', #253, #881, #905, .T. ) ;
#424 = CARTESIAN_POINT ( 'NONE',  ( -3.606666962989321767, -30.95000000000000284, -44.89999999999999858 ) ) ;
#425 = VECTOR ( 'NONE', #362, 1000.000000000000000 ) ;
#426 = EDGE_LOOP ( 'NONE', ( #648, #522, #42, #804, #6, #816, #242 ) ) ;
#427 = CARTESIAN_POINT ( 'NONE',  ( 17.90969868789789388, -16.90000000000002345, -44.89999999999999858 ) ) ;
#428 = CYLINDRICAL_SURFACE ( 'NONE', #212, 2.100000000000000089 ) ;
#429 = ORIENTED_EDGE ( 'NONE', *, *, #989, .T. ) ;
#430 = AXIS2_PLACEMENT_3D ( 'NONE', #724, #180, #1185 ) ;
#431 = ORIENTED_EDGE ( 'NONE', *, *, #45, .F. ) ;
#432 = DIRECTION ( 'NONE',  ( 1.000000000000000000, 0.000000000000000000, 0.000000000000000000 ) ) ;
#433 = EDGE_CURVE ( 'NONE', #11, #520, #82, .T. ) ;
#434 = CARTESIAN_POINT ( 'NONE',  ( -11.64544826719044046, -31.94999999999999929, -44.89999999999999858 ) ) ;
#435 = VECTOR ( 'NONE', #789, 1000.000000000000000 ) ;
#436 = CARTESIAN_POINT ( 'NONE',  ( -7.495090081878235999, -3.099999999999994760, -44.89999999999999858 ) ) ;
#437 = VERTEX_POINT ( 'NONE', #17 ) ;
#438 = CARTESIAN_POINT ( 'NONE',  ( -7.183360820271017744, -5.956469107249132477, -44.89999999999999858 ) ) ;
#439 = DIRECTION ( 'NONE',  ( 0.000000000000000000, 0.000000000000000000, -1.000000000000000000 ) ) ;
#440 = MANIFOLD_SOLID_BREP ( 'Fillet2', #485 ) ;
#441 = EDGE_CURVE ( 'NONE', #7, #58, #651, .T. ) ;
#442 = CYLINDRICAL_SURFACE ( 'NONE', #497, 1.000000000000000000 ) ;
#443 =( NAMED_UNIT ( * ) SI_UNIT ( $, .STERADIAN. ) SOLID_ANGLE_UNIT ( ) );
#444 = VERTEX_POINT ( 'NONE', #144 ) ;
#445 = ORIENTED_EDGE ( 'NONE', *, *, #642, .F. ) ;
#446 = PLANE ( 'NONE',  #162 ) ;
#447 = CIRCLE ( 'NONE', #592, 9.799999999999995381 ) ;
#448 = VECTOR ( 'NONE', #616, 999.9999999999997726 ) ;
#449 = DIRECTION ( 'NONE',  ( -1.000000000000000000, 0.000000000000000000, 0.000000000000000000 ) ) ;
#450 = ORIENTED_EDGE ( 'NONE', *, *, #170, .T. ) ;
#451 = EDGE_CURVE ( 'NONE', #740, #670, #617, .T. ) ;
#452 = EDGE_LOOP ( 'NONE', ( #347, #929, #207, #139 ) ) ;
#453 = CYLINDRICAL_SURFACE ( 'NONE', #1146, 75.99999999999998579 ) ;
#454 = DIRECTION ( 'NONE',  ( -0.8660254037844378194, 0.5000000000000014433, 0.000000000000000000 ) ) ;
#455 = VERTEX_POINT ( 'NONE', #803 ) ;
#456 = EDGE_CURVE ( 'NONE', #827, #774, #974, .T. ) ;
#457 = VERTEX_POINT ( 'NONE', #150 ) ;
#458 = VECTOR ( 'NONE', #1043, 1000.000000000000000 ) ;
#459 = EDGE_CURVE ( 'NONE', #375, #1100, #447, .T. ) ;
#460 = CARTESIAN_POINT ( 'NONE',  ( -2.942746610929356699E-16, -2.199999999999997513, -44.89999999999999858 ) ) ;
#461 = DIRECTION ( 'NONE',  ( 0.000000000000000000, 0.000000000000000000, 1.000000000000000000 ) ) ;
#462 = AXIS2_PLACEMENT_3D ( 'NONE', #612, #73, #1006 ) ;
#463 = VERTEX_POINT ( 'NONE', #898 ) ;
#464 = VERTEX_POINT ( 'NONE', #519 ) ;
#465 = CARTESIAN_POINT ( 'NONE',  ( -24.32264973081041504, -11.99999999999999822, 2.000000000000000000 ) ) ;
#466 = VECTOR ( 'NONE', #576, 1000.000000000000000 ) ;
#467 = DIRECTION ( 'NONE',  ( -0.000000000000000000, -0.000000000000000000, -1.000000000000000000 ) ) ;
#468 = ORIENTED_EDGE ( 'NONE', *, *, #966, .T. ) ;
#469 = VERTEX_POINT ( 'NONE', #691 ) ;
#470 = CARTESIAN_POINT ( 'NONE',  ( -9.422649730810416457, -11.99999999999999822, 2.000000000000000000 ) ) ;
#471 = AXIS2_PLACEMENT_3D ( 'NONE', #812, #627, #908 ) ;
#472 = DIRECTION ( 'NONE',  ( 1.000000000000000000, 0.000000000000000000, -0.000000000000000000 ) ) ;
#473 = EDGE_CURVE ( 'NONE', #179, #253, #709, .T. ) ;
#474 = EDGE_LOOP ( 'NONE', ( #728, #1183, #112, #264, #757 ) ) ;
#475 = ORIENTED_EDGE ( 'NONE', *, *, #1115, .F. ) ;
#476 = FACE_OUTER_BOUND ( 'NONE', #504, .T. ) ;
#477 = AXIS2_PLACEMENT_3D ( 'NONE', #1186, #549, #10 ) ;
#478 = EDGE_CURVE ( 'NONE', #625, #1040, #241, .T. ) ;
#479 = DIRECTION ( 'NONE',  ( 0.000000000000000000, 0.000000000000000000, 1.000000000000000000 ) ) ;
#480 = LINE ( 'NONE', #704, #448 ) ;
#481 = PRODUCT_DEFINITION_FORMATION_WITH_SPECIFIED_SOURCE ( 'ANY', '', #873, .NOT_KNOWN. ) ;
#482 = ORIENTED_EDGE ( 'NONE', *, *, #1004, .T. ) ;
#483 = DIRECTION ( 'NONE',  ( 0.5000000000000015543, -0.8660254037844377084, 0.000000000000000000 ) ) ;
#484 = LINE ( 'NONE', #125, #754 ) ;
#485 = CLOSED_SHELL ( 'NONE', ( #233, #841, #824, #1188, #276, #920, #1055, #1125, #396, #310, #219, #749, #84, #719, #109, #608, #1160, #983, #152, #1039, #766, #590, #703, #255, #417, #568, #862, #51, #1032, #9, #776, #494, #902, #857, #1110, #183 ) ) ;
#486 = DIRECTION ( 'NONE',  ( 0.000000000000000000, 0.000000000000000000, 1.000000000000000000 ) ) ;
#487 = ORIENTED_EDGE ( 'NONE', *, *, #305, .F. ) ;
#488 = EDGE_CURVE ( 'NONE', #820, #655, #348, .T. ) ;
#489 = PLANE ( 'NONE',  #893 ) ;
#490 = LINE ( 'NONE', #755, #243 ) ;
#491 = FACE_OUTER_BOUND ( 'NONE', #99, .T. ) ;
#492 = ORIENTED_EDGE ( 'NONE', *, *, #611, .T. ) ;
#493 = CARTESIAN_POINT ( 'NONE',  ( 11.64544826719042980, -31.95000000000001350, -98.22634748102971969 ) ) ;
#494 = ADVANCED_FACE ( 'NONE', ( #248 ), #158, .T. ) ;
#495 = CARTESIAN_POINT ( 'NONE',  ( -11.64544826719044046, -31.94999999999999929, -98.22634748102971969 ) ) ;
#496 = CIRCLE ( 'NONE', #126, 14.89999999999999858 ) ;
#497 = AXIS2_PLACEMENT_3D ( 'NONE', #622, #330, #46 ) ;
#498 = LINE ( 'NONE', #665, #196 ) ;
#499 = EDGE_LOOP ( 'NONE', ( #551, #475, #382, #1074 ) ) ;
#500 = CARTESIAN_POINT ( 'NONE',  ( -9.422649730810423563, -0.1000000000000011297, -42.79999999999999716 ) ) ;
#501 = DIRECTION ( 'NONE',  ( -1.000000000000000000, 0.000000000000000000, 0.000000000000000000 ) ) ;
#502 = CARTESIAN_POINT ( 'NONE',  ( 19.72835203584521224, -17.95000000000002416, -98.22634748102971969 ) ) ;
#503 = AXIS2_PLACEMENT_3D ( 'NONE', #601, #690, #157 ) ;
#504 = EDGE_LOOP ( 'NONE', ( #899, #904, #106, #546, #32, #510, #1192 ) ) ;
#505 = CARTESIAN_POINT ( 'NONE',  ( -5.495090081878235999, -1.099999999999994982, -44.89999999999999858 ) ) ;
#506 = DIRECTION ( 'NONE',  ( -1.000000000000000000, -2.301268121938894640E-16, 0.000000000000000000 ) ) ;
#507 = EDGE_CURVE ( 'NONE', #58, #560, #324, .T. ) ;
#508 = CARTESIAN_POINT ( 'NONE',  ( -5.870365701112757684, -1.127043502546081655, -44.60612445398273707 ) ) ;
#509 = LINE ( 'NONE', #871, #722 ) ;
#510 = ORIENTED_EDGE ( 'NONE', *, *, #683, .F. ) ;
#511 = CARTESIAN_POINT ( 'NONE',  ( -9.422649730810423563, -0.09999999999999592548, -98.22634748102971969 ) ) ;
#512 = CARTESIAN_POINT ( 'NONE',  ( -9.826794919243120319, -30.89999999999999858, -42.79999999999999716 ) ) ;
#513 = DIRECTION ( 'NONE',  ( -0.000000000000000000, 0.000000000000000000, 1.000000000000000000 ) ) ;
#514 = VERTEX_POINT ( 'NONE', #164 ) ;
#515 = CARTESIAN_POINT ( 'NONE',  ( 9.422649730810407576, -12.00000000000000000, -98.22634748102971969 ) ) ;
#516 = DIRECTION ( 'NONE',  ( -1.000000000000000000, 0.000000000000000000, 0.000000000000000000 ) ) ;
#517 = UNCERTAINTY_MEASURE_WITH_UNIT (LENGTH_MEASURE( 1.000000000000000082E-05 ), #1064, 'distance_accuracy_value', 'NONE');
#518 = LINE ( 'NONE', #54, #1153 ) ;
#519 = CARTESIAN_POINT ( 'NONE',  ( 2.606755855829173463, -30.93666666666667453, -44.89999999999999858 ) ) ;
#520 = VERTEX_POINT ( 'NONE', #994 ) ;
#521 = AXIS2_PLACEMENT_3D ( 'NONE', #71, #968, #513 ) ;
#522 = ORIENTED_EDGE ( 'NONE', *, *, #143, .T. ) ;
#523 = EDGE_CURVE ( 'NONE', #455, #514, #509, .T. ) ;
#524 = CARTESIAN_POINT ( 'NONE',  ( 15.10954988232819218, -31.94999999999999929, 0.000000000000000000 ) ) ;
#525 = DIRECTION ( 'NONE',  ( 0.000000000000000000, 0.000000000000000000, 1.000000000000000000 ) ) ;
#526 = ORIENTED_EDGE ( 'NONE', *, *, #1063, .F. ) ;
#527 = TOROIDAL_SURFACE ( 'NONE', #67, 9.799999999999998934, 2.100000000000000089 ) ;
#528 = FACE_OUTER_BOUND ( 'NONE', #797, .T. ) ;
#529 = EDGE_CURVE ( 'NONE', #179, #1137, #414, .T. ) ;
#530 = EDGE_LOOP ( 'NONE', ( #1098, #357, #272, #406 ) ) ;
#531 = DIRECTION ( 'NONE',  ( -1.000000000000000000, 1.337612095876981819E-16, 0.000000000000000000 ) ) ;
#532 = CARTESIAN_POINT ( 'NONE',  ( 7.183360820271017744, -5.956469107249132477, 2.000000000000000000 ) ) ;
#533 = CARTESIAN_POINT ( 'NONE',  ( -9.422649730810416457, -11.99999999999999822, -44.89999999999999858 ) ) ;
#534 = ORIENTED_EDGE ( 'NONE', *, *, #952, .F. ) ;
#535 = VECTOR ( 'NONE', #1108, 1000.000000000000000 ) ;
#536 = EDGE_LOOP ( 'NONE', ( #14, #218, #100, #56, #940, #1162, #313, #866, #610, #790, #618 ) ) ;
#537 = AXIS2_PLACEMENT_3D ( 'NONE', #632, #86, #822 ) ;
#538 = CARTESIAN_POINT ( 'NONE',  ( -7.183360820271017744, -5.956469107249132477, -44.89999999999999858 ) ) ;
#539 = PLANE ( 'NONE',  #12 ) ;
#540 = ORIENTED_EDGE ( 'NONE', *, *, #715, .T. ) ;
#541 = ORIENTED_EDGE ( 'NONE', *, *, #664, .F. ) ;
#542 = LINE ( 'NONE', #358, #1139 ) ;
#543 = PRESENTATION_LAYER_ASSIGNMENT (  '', '', ( #863 ) ) ;
#544 = FACE_OUTER_BOUND ( 'NONE', #201, .T. ) ;
#545 = EDGE_CURVE ( 'NONE', #369, #457, #211, .T. ) ;
#546 = ORIENTED_EDGE ( 'NONE', *, *, #529, .T. ) ;
#547 = ORIENTED_EDGE ( 'NONE', *, *, #1089, .T. ) ;
#548 = DIRECTION ( 'NONE',  ( -0.3420201433256543355, -0.9396926207859136460, 0.000000000000000000 ) ) ;
#549 = DIRECTION ( 'NONE',  ( 0.8660254037844380415, -0.5000000000000012212, 0.000000000000000000 ) ) ;
#550 = ORIENTED_EDGE ( 'NONE', *, *, #190, .F. ) ;
#551 = ORIENTED_EDGE ( 'NONE', *, *, #784, .F. ) ;
#552 = VECTOR ( 'NONE', #882, 999.9999999999998863 ) ;
#553 = FACE_OUTER_BOUND ( 'NONE', #530, .T. ) ;
#554 = DIRECTION ( 'NONE',  ( 0.000000000000000000, 0.000000000000000000, 1.000000000000000000 ) ) ;
#555 = ORIENTED_EDGE ( 'NONE', *, *, #507, .F. ) ;
#556 = ORIENTED_EDGE ( 'NONE', *, *, #344, .T. ) ;
#557 = CARTESIAN_POINT ( 'NONE',  ( 0.000000000000000000, 0.000000000000000000, -44.89999999999999858 ) ) ;
#558 = EDGE_CURVE ( 'NONE', #1059, #85, #878, .T. ) ;
#559 = LINE ( 'NONE', #181, #737 ) ;
#560 = VERTEX_POINT ( 'NONE', #1155 ) ;
#561 = ORIENTED_EDGE ( 'NONE', *, *, #558, .F. ) ;
#562 = CARTESIAN_POINT ( 'NONE',  ( -22.32642824719854957, -19.45000000000000995, 2.000000000000000000 ) ) ;
#563 = FILL_AREA_STYLE ('',( #294 ) ) ;
#564 = ORIENTED_EDGE ( 'NONE', *, *, #676, .T. ) ;
#565 = ORIENTED_EDGE ( 'NONE', *, *, #695, .F. ) ;
#566 = DIRECTION ( 'NONE',  ( 0.000000000000000000, 0.000000000000000000, -1.000000000000000000 ) ) ;
#567 = DIRECTION ( 'NONE',  ( 2.301268121938894640E-16, -1.000000000000000000, 0.000000000000000000 ) ) ;
#568 = ADVANCED_FACE ( 'NONE', ( #114 ), #1031, .T. ) ;
#569 = CARTESIAN_POINT ( 'NONE',  ( 6.700098322957766861, -1.493432602029197254, -44.78026476468347994 ) ) ;
#570 =( GEOMETRIC_REPRESENTATION_CONTEXT ( 3 ) GLOBAL_UNCERTAINTY_ASSIGNED_CONTEXT ( ( #785 ) ) GLOBAL_UNIT_ASSIGNED_CONTEXT ( ( #50, #1151, #1066 ) ) REPRESENTATION_CONTEXT ( 'NONE', 'WORKASPACE' ) );
#571 = ORIENTED_EDGE ( 'NONE', *, *, #946, .T. ) ;
#572 = FACE_OUTER_BOUND ( 'NONE', #166, .T. ) ;
#573 = CARTESIAN_POINT ( 'NONE',  ( -19.72835203584522290, -17.95000000000000639, -42.79999999999999716 ) ) ;
#574 = AXIS2_PLACEMENT_3D ( 'NONE', #943, #668, #120 ) ;
#575 = VECTOR ( 'NONE', #486, 1000.000000000000000 ) ;
#576 = DIRECTION ( 'NONE',  ( 1.000000000000000000, 0.000000000000000000, 0.000000000000000000 ) ) ;
#577 = VERTEX_POINT ( 'NONE', #401 ) ;
#578 = DIRECTION ( 'NONE',  ( 0.000000000000000000, 0.000000000000000000, 1.000000000000000000 ) ) ;
#579 = DIRECTION ( 'NONE',  ( -0.000000000000000000, -0.000000000000000000, 1.000000000000000000 ) ) ;
#580 = CIRCLE ( 'NONE', #217, 14.89999999999999858 ) ;
#581 = DIRECTION ( 'NONE',  ( 0.000000000000000000, -1.000000000000000000, 0.000000000000000000 ) ) ;
#582 = ORIENTED_EDGE ( 'NONE', *, *, #102, .F. ) ;
#583 = DIRECTION ( 'NONE',  ( 1.000000000000000000, 0.000000000000000000, 0.000000000000000000 ) ) ;
#584 = FACE_OUTER_BOUND ( 'NONE', #891, .T. ) ;
#585 = VECTOR ( 'NONE', #153, 999.9999999999997726 ) ;
#586 = CIRCLE ( 'NONE', #955, 1.999999999999999556 ) ;
#587 = CARTESIAN_POINT ( 'NONE',  ( 7.281147191827412435, -2.199999999999998401, -44.89999999999999858 ) ) ;
#588 = ORIENTED_EDGE ( 'NONE', *, *, #715, .F. ) ;
#589 = DIRECTION ( 'NONE',  ( 1.000000000000000000, 0.000000000000000000, 0.000000000000000000 ) ) ;
#590 = ADVANCED_FACE ( 'NONE', ( #845 ), #28, .F. ) ;
#591 = CARTESIAN_POINT ( 'NONE',  ( -7.495090081878235999, -3.099999999999994760, -44.89999999999999858 ) ) ;
#592 = AXIS2_PLACEMENT_3D ( 'NONE', #533, #1073, #1176 ) ;
#593 = ORIENTED_EDGE ( 'NONE', *, *, #507, .T. ) ;
#594 = CARTESIAN_POINT ( 'NONE',  ( 19.72835203584521224, -17.95000000000002061, 0.000000000000000000 ) ) ;
#595 = CARTESIAN_POINT ( 'NONE',  ( -7.495090081878235999, -5.099999999999995204, -44.89999999999999858 ) ) ;
#596 = DIRECTION ( 'NONE',  ( -1.000000000000000000, -2.301268121938894640E-16, 0.000000000000000000 ) ) ;
#597 = ORIENTED_EDGE ( 'NONE', *, *, #190, .T. ) ;
#598 = CYLINDRICAL_SURFACE ( 'NONE', #227, 11.90000000000000036 ) ;
#599 = LINE ( 'NONE', #971, #1091 ) ;
#600 = AXIS2_PLACEMENT_3D ( 'NONE', #837, #744, #892 ) ;
#601 = CARTESIAN_POINT ( 'NONE',  ( 3.606666962989321767, -30.95000000000000995, -44.89999999999999858 ) ) ;
#602 = EDGE_CURVE ( 'NONE', #338, #463, #132, .T. ) ;
#603 = ORIENTED_EDGE ( 'NONE', *, *, #292, .T. ) ;
#604 = PLANE ( 'NONE',  #222 ) ;
#605 = ORIENTED_EDGE ( 'NONE', *, *, #40, .F. ) ;
#606 = FACE_OUTER_BOUND ( 'NONE', #842, .T. ) ;
#607 = LINE ( 'NONE', #685, #405 ) ;
#608 = ADVANCED_FACE ( 'NONE', ( #765 ), #697, .T. ) ;
#609 = CARTESIAN_POINT ( 'NONE',  ( -11.64544826719044046, -31.94999999999999929, -44.03015151901649915 ) ) ;
#610 = ORIENTED_EDGE ( 'NONE', *, *, #441, .T. ) ;
#611 = EDGE_CURVE ( 'NONE', #827, #900, #759, .T. ) ;
#612 = CARTESIAN_POINT ( 'NONE',  ( 0.000000000000000000, 0.000000000000000000, 0.000000000000000000 ) ) ;
#613 = VECTOR ( 'NONE', #115, 1000.000000000000000 ) ;
#614 = ORIENTED_EDGE ( 'NONE', *, *, #698, .T. ) ;
#615 = CARTESIAN_POINT ( 'NONE',  ( 9.422649730810407576, -12.00000000000000000, 2.000000000000000000 ) ) ;
#616 = DIRECTION ( 'NONE',  ( 0.5000000000000013323, -0.8660254037844380415, -0.000000000000000000 ) ) ;
#617 = LINE ( 'NONE', #235, #743 ) ;
#618 = ORIENTED_EDGE ( 'NONE', *, *, #1150, .F. ) ;
#619 = CIRCLE ( 'NONE', #104, 2.099999999999997868 ) ;
#620 = ORIENTED_EDGE ( 'NONE', *, *, #611, .F. ) ;
#621 = FACE_OUTER_BOUND ( 'NONE', #135, .T. ) ;
#622 = CARTESIAN_POINT ( 'NONE',  ( -3.606666962989321767, -30.95000000000000284, -44.89999999999999858 ) ) ;
#623 = CARTESIAN_POINT ( 'NONE',  ( -10.64103375789041905, -31.94999999999999929, -44.90000000000000568 ) ) ;
#624 = EDGE_LOOP ( 'NONE', ( #431, #666, #191, #741, #1081, #1, #48, #184, #640, #701, #885, #736, #265, #487 ) ) ;
#625 = VERTEX_POINT ( 'NONE', #137 ) ;
#626 = AXIS2_PLACEMENT_3D ( 'NONE', #1061, #707, #984 ) ;
#627 = DIRECTION ( 'NONE',  ( -0.5000000000000003331, 0.8660254037844384856, 0.000000000000000000 ) ) ;
#628 = EDGE_CURVE ( 'NONE', #1142, #1065, #1124, .T. ) ;
#629 = DIRECTION ( 'NONE',  ( 1.000000000000000000, 0.000000000000000000, 0.000000000000000000 ) ) ;
#630 = ORIENTED_EDGE ( 'NONE', *, *, #478, .T. ) ;
#631 = ORIENTED_EDGE ( 'NONE', *, *, #1167, .T. ) ;
#632 = CARTESIAN_POINT ( 'NONE',  ( 9.422649730810407576, -12.00000000000000000, -42.79999999999999716 ) ) ;
#633 = EDGE_CURVE ( 'NONE', #721, #236, #490, .T. ) ;
#634 = DIRECTION ( 'NONE',  ( 0.000000000000000000, 0.000000000000000000, -1.000000000000000000 ) ) ;
#635 = FACE_OUTER_BOUND ( 'NONE', #195, .T. ) ;
#636 = CIRCLE ( 'NONE', #786, 1.999999999999999556 ) ;
#637 = ORIENTED_EDGE ( 'NONE', *, *, #143, .F. ) ;
#638 = CARTESIAN_POINT ( 'NONE',  ( -3.606666962989321767, -31.95000000000000639, -44.89999999999999858 ) ) ;
#639 = CARTESIAN_POINT ( 'NONE',  ( -15.10954988232820106, -31.94999999999999929, 2.000000000000000000 ) ) ;
#640 = ORIENTED_EDGE ( 'NONE', *, *, #292, .F. ) ;
#641 = AXIS2_PLACEMENT_3D ( 'NONE', #400, #119, #662 ) ;
#642 = EDGE_CURVE ( 'NONE', #682, #820, #408, .T. ) ;
#643 = ORIENTED_EDGE ( 'NONE', *, *, #451, .T. ) ;
#644 = AXIS2_PLACEMENT_3D ( 'NONE', #1049, #39, #16 ) ;
#645 = AXIS2_PLACEMENT_3D ( 'NONE', #199, #634, #1103 ) ;
#646 = CARTESIAN_POINT ( 'NONE',  ( -24.32264973081041859, -11.99999999999999822, 2.000000000000000000 ) ) ;
#647 = LINE ( 'NONE', #808, #679 ) ;
#648 = ORIENTED_EDGE ( 'NONE', *, *, #321, .F. ) ;
#649 = VERTEX_POINT ( 'NONE', #1026 ) ;
#650 = DIRECTION ( 'NONE',  ( -0.9396926207859137570, 0.3420201433256543355, 0.000000000000000000 ) ) ;
#651 = CIRCLE ( 'NONE', #805, 1.999999999999999556 ) ;
#652 = AXIS2_PLACEMENT_3D ( 'NONE', #1038, #121, #1136 ) ;
#653 = CARTESIAN_POINT ( 'NONE',  ( -9.422649730810416457, -11.99999999999999822, 2.000000000000000000 ) ) ;
#654 = ORIENTED_EDGE ( 'NONE', *, *, #918, .F. ) ;
#655 = VERTEX_POINT ( 'NONE', #203 ) ;
#656 = DIRECTION ( 'NONE',  ( 0.000000000000000000, 0.000000000000000000, -1.000000000000000000 ) ) ;
#657 = CARTESIAN_POINT ( 'NONE',  ( -11.64544826719044046, -31.94999999999999929, -44.89999999999999858 ) ) ;
#658 = EDGE_CURVE ( 'NONE', #457, #1087, #937, .T. ) ;
#659 = SURFACE_STYLE_FILL_AREA ( #563 ) ;
#660 = CARTESIAN_POINT ( 'NONE',  ( 7.091316013730953216, -1.880984711199884973, -44.88026475342962129 ) ) ;
#661 = ORIENTED_EDGE ( 'NONE', *, *, #27, .F. ) ;
#662 = DIRECTION ( 'NONE',  ( 1.000000000000000000, -5.958460116521814421E-16, 0.000000000000000000 ) ) ;
#663 = CARTESIAN_POINT ( 'NONE',  ( 9.422649730810393365, -0.09999999999999845124, -98.22634748102971969 ) ) ;
#664 = EDGE_CURVE ( 'NONE', #577, #670, #855, .T. ) ;
#665 = CARTESIAN_POINT ( 'NONE',  ( 7.495090081878235999, -5.099999999999995204, -44.89999999999999858 ) ) ;
#666 = ORIENTED_EDGE ( 'NONE', *, *, #1119, .T. ) ;
#667 = CARTESIAN_POINT ( 'NONE',  ( -5.495090081878235999, -3.099999999999994760, -44.89999999999999858 ) ) ;
#668 = DIRECTION ( 'NONE',  ( -0.000000000000000000, -0.000000000000000000, 1.000000000000000000 ) ) ;
#669 = CARTESIAN_POINT ( 'NONE',  ( -15.10954988232820106, -31.94999999999999929, 0.000000000000000000 ) ) ;
#670 = VERTEX_POINT ( 'NONE', #35 ) ;
#671 = CARTESIAN_POINT ( 'NONE',  ( -9.422649730810421786, -2.199999999999996181, -44.89999999999999858 ) ) ;
#672 = DIRECTION ( 'NONE',  ( -0.000000000000000000, -0.000000000000000000, -1.000000000000000000 ) ) ;
#673 = CIRCLE ( 'NONE', #471, 2.100000000000000089 ) ;
#674 = LINE ( 'NONE', #669, #466 ) ;
#675 = EDGE_LOOP ( 'NONE', ( #919, #561, #245, #1052 ) ) ;
#676 = EDGE_CURVE ( 'NONE', #649, #213, #484, .T. ) ;
#677 = DIRECTION ( 'NONE',  ( -1.000000000000000000, 1.337612095876981819E-16, 0.000000000000000000 ) ) ;
#678 = DIRECTION ( 'NONE',  ( 0.000000000000000000, 0.000000000000000000, 1.000000000000000000 ) ) ;
#679 = VECTOR ( 'NONE', #282, 999.9999999999998863 ) ;
#680 = CIRCLE ( 'NONE', #430, 11.89999999999999680 ) ;
#681 = CARTESIAN_POINT ( 'NONE',  ( -7.091316013730952328, -1.880984711199883641, -44.88026475342962129 ) ) ;
#682 = VERTEX_POINT ( 'NONE', #573 ) ;
#683 = EDGE_CURVE ( 'NONE', #820, #811, #208, .T. ) ;
#684 = CARTESIAN_POINT ( 'NONE',  ( -11.64544826719044046, -31.94999999999999929, -42.79999999999999716 ) ) ;
#685 = CARTESIAN_POINT ( 'NONE',  ( 15.10954988232819218, -31.94999999999999929, 2.000000000000000000 ) ) ;
#686 = CARTESIAN_POINT ( 'NONE',  ( 9.422649730810393365, -2.199999999999998845, -42.79999999999999716 ) ) ;
#687 = ORIENTED_EDGE ( 'NONE', *, *, #602, .F. ) ;
#688 = CARTESIAN_POINT ( 'NONE',  ( -11.64544826719044224, -31.94999999999999929, 0.000000000000000000 ) ) ;
#689 = EDGE_CURVE ( 'NONE', #1005, #872, #850, .T. ) ;
#690 = DIRECTION ( 'NONE',  ( 0.000000000000000000, 0.000000000000000000, -1.000000000000000000 ) ) ;
#691 = CARTESIAN_POINT ( 'NONE',  ( -22.32642824719854957, -19.45000000000000995, 0.000000000000000000 ) ) ;
#692 = ORIENTED_EDGE ( 'NONE', *, *, #403, .F. ) ;
#693 = DIRECTION ( 'NONE',  ( 1.000000000000000000, 0.000000000000000000, 0.000000000000000000 ) ) ;
#694 = CARTESIAN_POINT ( 'NONE',  ( 19.72835203584521224, -17.95000000000002061, -42.79999999999999716 ) ) ;
#695 = EDGE_CURVE ( 'NONE', #353, #560, #814, .T. ) ;
#696 = AXIS2_PLACEMENT_3D ( 'NONE', #667, #1138, #941 ) ;
#697 = TOROIDAL_SURFACE ( 'NONE', #187, 9.799999999999995381, 2.100000000000000089 ) ;
#698 = EDGE_CURVE ( 'NONE', #1065, #159, #1135, .T. ) ;
#699 = DIRECTION ( 'NONE',  ( 0.5000000000000012212, 0.8660254037844379305, 0.000000000000000000 ) ) ;
#700 = ORIENTED_EDGE ( 'NONE', *, *, #20, .T. ) ;
#701 = ORIENTED_EDGE ( 'NONE', *, *, #1167, .F. ) ;
#702 = PLANE ( 'NONE',  #1070 ) ;
#703 = ADVANCED_FACE ( 'NONE', ( #584 ), #298, .T. ) ;
#704 = CARTESIAN_POINT ( 'NONE',  ( -11.64544826719044046, -31.94999999999999929, 0.000000000000000000 ) ) ;
#705 = EDGE_LOOP ( 'NONE', ( #832, #410, #1022, #1011 ) ) ;
#706 = ORIENTED_EDGE ( 'NONE', *, *, #1184, .F. ) ;
#707 = DIRECTION ( 'NONE',  ( 0.000000000000000000, 0.000000000000000000, 1.000000000000000000 ) ) ;
#708 = DIRECTION ( 'NONE',  ( 1.000000000000000000, -5.958460116521814421E-16, 0.000000000000000000 ) ) ;
#709 = LINE ( 'NONE', #787, #231 ) ;
#710 = ORIENTED_EDGE ( 'NONE', *, *, #906, .T. ) ;
#711 = EDGE_CURVE ( 'NONE', #881, #455, #299, .T. ) ;
#712 = CARTESIAN_POINT ( 'NONE',  ( 7.495090081878235999, -5.099999999999995204, -44.89999999999999858 ) ) ;
#713 = FACE_OUTER_BOUND ( 'NONE', #1116, .T. ) ;
#714 = ORIENTED_EDGE ( 'NONE', *, *, #911, .T. ) ;
#715 = EDGE_CURVE ( 'NONE', #1005, #444, #972, .T. ) ;
#716 = ORIENTED_EDGE ( 'NONE', *, *, #34, .T. ) ;
#717 = AXIS2_PLACEMENT_3D ( 'NONE', #470, #913, #81 ) ;
#718 = DIRECTION ( 'NONE',  ( -0.5000000000000012212, 0.8660254037844380415, -0.000000000000000000 ) ) ;
#719 = ADVANCED_FACE ( 'NONE', ( #232 ), #702, .T. ) ;
#720 = CARTESIAN_POINT ( 'NONE',  ( -3.606666962989321767, -30.95000000000000284, 2.000000000000001776 ) ) ;
#721 = VERTEX_POINT ( 'NONE', #595 ) ;
#722 = VECTOR ( 'NONE', #47, 1000.000000000000000 ) ;
#723 = ORIENTED_EDGE ( 'NONE', *, *, #695, .T. ) ;
#724 = CARTESIAN_POINT ( 'NONE',  ( -9.422649730810416457, -11.99999999999999822, -42.79999999999999716 ) ) ;
#725 = AXIS2_PLACEMENT_3D ( 'NONE', #1154, #69, #889 ) ;
#726 = DIRECTION ( 'NONE',  ( -1.000000000000000000, 0.000000000000000000, 0.000000000000000000 ) ) ;
#727 = EDGE_CURVE ( 'NONE', #1000, #7, #1076, .T. ) ;
#728 = ORIENTED_EDGE ( 'NONE', *, *, #1004, .F. ) ;
#729 = AXIS2_PLACEMENT_3D ( 'NONE', #1014, #376, #1178 ) ;
#730 = ORIENTED_EDGE ( 'NONE', *, *, #441, .F. ) ;
#731 = CARTESIAN_POINT ( 'NONE',  ( 78.60000000000000853, -31.94999999999999929, -44.89999999999999858 ) ) ;
#732 = EDGE_CURVE ( 'NONE', #25, #110, #342, .T. ) ;
#733 = DIRECTION ( 'NONE',  ( 0.000000000000000000, 0.000000000000000000, 1.000000000000000000 ) ) ;
#734 = ORIENTED_EDGE ( 'NONE', *, *, #423, .F. ) ;
#735 = AXIS2_PLACEMENT_3D ( 'NONE', #244, #237, #326 ) ;
#736 = ORIENTED_EDGE ( 'NONE', *, *, #176, .F. ) ;
#737 = VECTOR ( 'NONE', #1096, 1000.000000000000227 ) ;
#738 = CARTESIAN_POINT ( 'NONE',  ( -9.422649730810421786, -2.200000000000001510, -42.79999999999999716 ) ) ;
#739 = LINE ( 'NONE', #1113, #281 ) ;
#740 = VERTEX_POINT ( 'NONE', #335 ) ;
#741 = ORIENTED_EDGE ( 'NONE', *, *, #999, .T. ) ;
#742 = CARTESIAN_POINT ( 'NONE',  ( -19.22264973081041362, -11.99999999999999822, -44.89999999999999858 ) ) ;
#743 = VECTOR ( 'NONE', #525, 1000.000000000000000 ) ;
#744 = DIRECTION ( 'NONE',  ( 0.000000000000000000, 0.000000000000000000, 1.000000000000000000 ) ) ;
#745 = DIRECTION ( 'NONE',  ( 0.000000000000000000, 0.000000000000000000, 1.000000000000000000 ) ) ;
#746 = CARTESIAN_POINT ( 'NONE',  ( -6.390410674839960947, -1.302361354134006000, -44.70129715919684799 ) ) ;
#747 = VERTEX_POINT ( 'NONE', #770 ) ;
#748 = CARTESIAN_POINT ( 'NONE',  ( 3.606666962989321767, -30.95000000000000995, -44.89999999999999858 ) ) ;
#749 = ADVANCED_FACE ( 'NONE', ( #777 ), #161, .T. ) ;
#750 = CARTESIAN_POINT ( 'NONE',  ( 7.183360820271017744, -5.956469107249132477, -44.89999999999999858 ) ) ;
#751 = CARTESIAN_POINT ( 'NONE',  ( -5.683174119116798373, -1.099999999999994760, -44.58885438199983753 ) ) ;
#752 = ORIENTED_EDGE ( 'NONE', *, *, #732, .F. ) ;
#753 = CARTESIAN_POINT ( 'NONE',  ( 22.32642824719852825, -19.45000000000002771, 2.000000000000000000 ) ) ;
#754 = VECTOR ( 'NONE', #672, 1000.000000000000000 ) ;
#755 = CARTESIAN_POINT ( 'NONE',  ( -7.495090081878235999, -5.099999999999995204, -44.89999999999999858 ) ) ;
#756 = LINE ( 'NONE', #939, #268 ) ;
#757 = ORIENTED_EDGE ( 'NONE', *, *, #433, .F. ) ;
#758 = DIRECTION ( 'NONE',  ( -1.000000000000000000, 0.000000000000000000, 0.000000000000000000 ) ) ;
#759 = LINE ( 'NONE', #215, #793 ) ;
#760 = AXIS2_PLACEMENT_3D ( 'NONE', #142, #699, #420 ) ;
#761 = EDGE_CURVE ( 'NONE', #444, #1059, #1159, .T. ) ;
#762 = DIRECTION ( 'NONE',  ( 0.000000000000000000, 0.000000000000000000, 1.000000000000000000 ) ) ;
#763 = VERTEX_POINT ( 'NONE', #427 ) ;
#764 = CARTESIAN_POINT ( 'NONE',  ( -7.183360820271017744, -5.956469107249132477, 2.000000000000000000 ) ) ;
#765 = FACE_OUTER_BOUND ( 'NONE', #1029, .T. ) ;
#766 = ADVANCED_FACE ( 'NONE', ( #1145 ), #238, .T. ) ;
#767 = CARTESIAN_POINT ( 'NONE',  ( -7.196451352227545506, -2.031920437221712561, -44.90000000000000568 ) ) ;
#768 = ORIENTED_EDGE ( 'NONE', *, *, #473, .T. ) ;
#769 = DIRECTION ( 'NONE',  ( 0.000000000000000000, 0.000000000000000000, 1.000000000000000000 ) ) ;
#770 = CARTESIAN_POINT ( 'NONE',  ( -22.32642824719854957, -19.45000000000000995, 2.000000000000000000 ) ) ;
#771 = VECTOR ( 'NONE', #791, 1000.000000000000000 ) ;
#772 = FACE_OUTER_BOUND ( 'NONE', #1016, .T. ) ;
#773 = CARTESIAN_POINT ( 'NONE',  ( -15.10954988232820106, -31.94999999999999929, 2.000000000000000000 ) ) ;
#774 = VERTEX_POINT ( 'NONE', #349 ) ;
#775 = CYLINDRICAL_SURFACE ( 'NONE', #1163, 2.100000000000000089 ) ;
#776 = ADVANCED_FACE ( 'NONE', ( #606 ), #875, .F. ) ;
#777 = FACE_OUTER_BOUND ( 'NONE', #259, .T. ) ;
#778 = LINE ( 'NONE', #1071, #251 ) ;
#779 = DIRECTION ( 'NONE',  ( -0.000000000000000000, -0.000000000000000000, -1.000000000000000000 ) ) ;
#780 = ORIENTED_EDGE ( 'NONE', *, *, #761, .T. ) ;
#781 = DIRECTION ( 'NONE',  ( 0.000000000000000000, -1.000000000000000000, 0.000000000000000000 ) ) ;
#782 = ORIENTED_EDGE ( 'NONE', *, *, #818, .F. ) ;
#783 = DIRECTION ( 'NONE',  ( 0.000000000000000000, 0.000000000000000000, 1.000000000000000000 ) ) ;
#784 = EDGE_CURVE ( 'NONE', #19, #881, #419, .T. ) ;
#785 = UNCERTAINTY_MEASURE_WITH_UNIT (LENGTH_MEASURE( 1.000000000000000082E-05 ), #50, 'distance_accuracy_value', 'NONE');
#786 = AXIS2_PLACEMENT_3D ( 'NONE', #849, #33, #308 ) ;
#787 = CARTESIAN_POINT ( 'NONE',  ( -15.10954988232820106, -31.94999999999999929, 2.000000000000000000 ) ) ;
#788 = ORIENTED_EDGE ( 'NONE', *, *, #809, .F. ) ;
#789 = DIRECTION ( 'NONE',  ( 1.000000000000000000, 0.000000000000000000, 0.000000000000000000 ) ) ;
#790 = ORIENTED_EDGE ( 'NONE', *, *, #344, .F. ) ;
#791 = DIRECTION ( 'NONE',  ( 0.000000000000000000, -1.000000000000000000, 0.000000000000000000 ) ) ;
#792 = CIRCLE ( 'NONE', #240, 75.99999999999998579 ) ;
#793 = VECTOR ( 'NONE', #579, 1000.000000000000000 ) ;
#794 = FACE_OUTER_BOUND ( 'NONE', #821, .T. ) ;
#795 = CIRCLE ( 'NONE', #896, 9.799999999999995381 ) ;
#796 = DIRECTION ( 'NONE',  ( -0.000000000000000000, -0.000000000000000000, 1.000000000000000000 ) ) ;
#797 = EDGE_LOOP ( 'NONE', ( #582, #283, #934, #788, #924, #1007, #356, #200 ) ) ;
#798 = DIRECTION ( 'NONE',  ( 1.000000000000000000, -5.958460116521814421E-16, 0.000000000000000000 ) ) ;
#799 = ORIENTED_EDGE ( 'NONE', *, *, #628, .F. ) ;
#800 = CARTESIAN_POINT ( 'NONE',  ( 9.422649730810407576, -12.00000000000000000, 2.000000000000000000 ) ) ;
#801 = CARTESIAN_POINT ( 'NONE',  ( 19.72835203584521224, -17.95000000000002416, -42.79999999999999716 ) ) ;
#802 = EDGE_CURVE ( 'NONE', #415, #1122, #897, .T. ) ;
#803 = CARTESIAN_POINT ( 'NONE',  ( -2.606755855829173463, -30.93666666666666742, 2.000000000000000000 ) ) ;
#804 = ORIENTED_EDGE ( 'NONE', *, *, #133, .T. ) ;
#805 = AXIS2_PLACEMENT_3D ( 'NONE', #1027, #352, #345 ) ;
#806 = VECTOR ( 'NONE', #708, 1000.000000000000000 ) ;
#807 = DIRECTION ( 'NONE',  ( -0.3420201433256543355, -0.9396926207859137570, 0.000000000000000000 ) ) ;
#808 = CARTESIAN_POINT ( 'NONE',  ( 15.10954988232819218, -31.94999999999999929, 0.000000000000000000 ) ) ;
#809 = EDGE_CURVE ( 'NONE', #457, #982, #868, .T. ) ;
#810 = ORIENTED_EDGE ( 'NONE', *, *, #529, .F. ) ;
#811 = VERTEX_POINT ( 'NONE', #688 ) ;
#812 = CARTESIAN_POINT ( 'NONE',  ( -17.90969868789790098, -16.90000000000000568, -42.79999999999999716 ) ) ;
#813 = DIRECTION ( 'NONE',  ( -0.5000000000000014433, -0.8660254037844378194, 0.000000000000000000 ) ) ;
#814 = CIRCLE ( 'NONE', #31, 1.999999999999999556 ) ;
#815 = ORIENTED_EDGE ( 'NONE', *, *, #847, .F. ) ;
#816 = ORIENTED_EDGE ( 'NONE', *, *, #45, .T. ) ;
#817 = CARTESIAN_POINT ( 'NONE',  ( -2.606666962989321767, -30.95000000000000284, 2.000000000000001776 ) ) ;
#818 = EDGE_CURVE ( 'NONE', #625, #1142, #976, .T. ) ;
#819 = CARTESIAN_POINT ( 'NONE',  ( 5.495090081878235999, -3.099999999999994760, 2.000000000000000000 ) ) ;
#820 = VERTEX_POINT ( 'NONE', #684 ) ;
#821 = EDGE_LOOP ( 'NONE', ( #1156, #105, #734, #1177 ) ) ;
#822 = DIRECTION ( 'NONE',  ( -1.000000000000000000, 0.000000000000000000, 0.000000000000000000 ) ) ;
#823 = AXIS2_PLACEMENT_3D ( 'NONE', #36, #762, #311 ) ;
#824 = ADVANCED_FACE ( 'NONE', ( #1164 ), #206, .T. ) ;
#825 = EDGE_CURVE ( 'NONE', #1040, #123, #599, .T. ) ;
#826 = CARTESIAN_POINT ( 'NONE',  ( 3.606666962989321767, -31.95000000000000639, -44.89999999999999858 ) ) ;
#827 = VERTEX_POINT ( 'NONE', #1054 ) ;
#828 = VECTOR ( 'NONE', #548, 999.9999999999998863 ) ;
#829 = VERTEX_POINT ( 'NONE', #256 ) ;
#830 = DIRECTION ( 'NONE',  ( -0.000000000000000000, -0.000000000000000000, 1.000000000000000000 ) ) ;
#831 = DIRECTION ( 'NONE',  ( 0.000000000000000000, 0.000000000000000000, 1.000000000000000000 ) ) ;
#832 = ORIENTED_EDGE ( 'NONE', *, *, #270, .T. ) ;
#833 = ORIENTED_EDGE ( 'NONE', *, *, #68, .F. ) ;
#834 = VECTOR ( 'NONE', #467, 1000.000000000000000 ) ;
#835 = DIRECTION ( 'NONE',  ( 0.000000000000000000, 1.000000000000000000, 0.000000000000000000 ) ) ;
#836 = VECTOR ( 'NONE', #1152, 1000.000000000000000 ) ;
#837 = CARTESIAN_POINT ( 'NONE',  ( -3.606666962989321767, -30.95000000000000284, 2.000000000000001776 ) ) ;
#838 = VECTOR ( 'NONE', #693, 1000.000000000000000 ) ;
#839 = CARTESIAN_POINT ( 'NONE',  ( -9.422649730810416457, -11.99999999999999822, 0.000000000000000000 ) ) ;
#840 = LINE ( 'NONE', #88, #425 ) ;
#841 = ADVANCED_FACE ( 'NONE', ( #621 ), #148, .T. ) ;
#842 = EDGE_LOOP ( 'NONE', ( #429, #630, #118, #620, #661 ) ) ;
#843 = DIRECTION ( 'NONE',  ( -0.3420201433256543355, 0.9396926207859136460, 0.000000000000000000 ) ) ;
#844 = COLOUR_RGB ( '',0.7921568627450980005, 0.8196078431372548767, 0.9333333333333333481 ) ;
#845 = FACE_OUTER_BOUND ( 'NONE', #675, .T. ) ;
#846 = CARTESIAN_POINT ( 'NONE',  ( 78.60000000000000853, -31.94999999999999929, 2.000000000000000000 ) ) ;
#847 = EDGE_CURVE ( 'NONE', #763, #110, #319, .T. ) ;
#848 = ORIENTED_EDGE ( 'NONE', *, *, #366, .T. ) ;
#849 = CARTESIAN_POINT ( 'NONE',  ( 5.495090081878235999, -3.099999999999994760, -44.89999999999999858 ) ) ;
#850 = LINE ( 'NONE', #315, #146 ) ;
#851 = DIRECTION ( 'NONE',  ( 0.000000000000000000, 0.000000000000000000, 1.000000000000000000 ) ) ;
#852 = ORIENTED_EDGE ( 'NONE', *, *, #989, .F. ) ;
#853 = CIRCLE ( 'NONE', #186, 9.799999999999998934 ) ;
#854 = PLANE ( 'NONE',  #641 ) ;
#855 = CIRCLE ( 'NONE', #644, 11.90000000000000036 ) ;
#856 = DIRECTION ( 'NONE',  ( 0.000000000000000000, 0.000000000000000000, 1.000000000000000000 ) ) ;
#857 = ADVANCED_FACE ( 'NONE', ( #364 ), #453, .T. ) ;
#858 = CYLINDRICAL_SURFACE ( 'NONE', #823, 11.89999999999999680 ) ;
#859 = ORIENTED_EDGE ( 'NONE', *, *, #209, .T. ) ;
#860 = DIRECTION ( 'NONE',  ( 1.000000000000000000, 0.000000000000000000, 0.000000000000000000 ) ) ;
#861 = DIRECTION ( 'NONE',  ( -1.000000000000000000, 0.000000000000000000, 0.000000000000000000 ) ) ;
#862 = ADVANCED_FACE ( 'NONE', ( #553 ), #997, .T. ) ;
#863 = STYLED_ITEM ( 'NONE', ( #63 ), #440 ) ;
#864 = AXIS2_PLACEMENT_3D ( 'NONE', #413, #149, #163 ) ;
#865 = CARTESIAN_POINT ( 'NONE',  ( -7.183360820271017744, -5.956469107249132477, -44.89999999999999858 ) ) ;
#866 = ORIENTED_EDGE ( 'NONE', *, *, #727, .T. ) ;
#867 = CARTESIAN_POINT ( 'NONE',  ( 9.422649730810384483, 2.900000000000001688, 0.000000000000000000 ) ) ;
#868 = LINE ( 'NONE', #328, #262 ) ;
#869 = CARTESIAN_POINT ( 'NONE',  ( 6.390410674839960947, -1.302361354134006000, -44.70129715919684799 ) ) ;
#870 = EDGE_CURVE ( 'NONE', #110, #740, #360, .T. ) ;
#871 = CARTESIAN_POINT ( 'NONE',  ( -2.606755855829173463, -30.93666666666666742, -44.89999999999999858 ) ) ;
#872 = VERTEX_POINT ( 'NONE', #1002 ) ;
#873 = PRODUCT ( 'Gripper Insert', 'Gripper Insert', '', ( #1012 ) ) ;
#874 = CARTESIAN_POINT ( 'NONE',  ( 7.495090081878235999, -5.099999999999995204, -44.89999999999999858 ) ) ;
#875 = CYLINDRICAL_SURFACE ( 'NONE', #379, 2.000000000000000000 ) ;
#876 = AXIS2_PLACEMENT_3D ( 'NONE', #538, #260, #901 ) ;
#877 = CARTESIAN_POINT ( 'NONE',  ( 7.495090081878235999, -5.099999999999995204, 2.000000000000000000 ) ) ;
#878 = LINE ( 'NONE', #55, #1097 ) ;
#879 = ORIENTED_EDGE ( 'NONE', *, *, #999, .F. ) ;
#880 = EDGE_CURVE ( 'NONE', #829, #369, #1107, .T. ) ;
#881 = VERTEX_POINT ( 'NONE', #817 ) ;
#882 = DIRECTION ( 'NONE',  ( 0.5000000000000012212, 0.8660254037844380415, 0.000000000000000000 ) ) ;
#883 = DIRECTION ( 'NONE',  ( 0.8660254037844381525, 0.5000000000000011102, 0.000000000000000000 ) ) ;
#884 = CARTESIAN_POINT ( 'NONE',  ( -9.422649730810423563, -1.099999999999995426, -44.58885438199983042 ) ) ;
#885 = ORIENTED_EDGE ( 'NONE', *, *, #170, .F. ) ;
#886 = ORIENTED_EDGE ( 'NONE', *, *, #456, .F. ) ;
#887 = DIRECTION ( 'NONE',  ( 0.000000000000000000, -1.000000000000000000, 0.000000000000000000 ) ) ;
#888 = VECTOR ( 'NONE', #1018, 1000.000000000000000 ) ;
#889 = DIRECTION ( 'NONE',  ( 1.000000000000000000, 0.000000000000000000, 0.000000000000000000 ) ) ;
#890 = VERTEX_POINT ( 'NONE', #638 ) ;
#891 = EDGE_LOOP ( 'NONE', ( #93, #692, #1111, #450 ) ) ;
#892 = DIRECTION ( 'NONE',  ( 1.000000000000000000, 0.000000000000000000, 0.000000000000000000 ) ) ;
#893 = AXIS2_PLACEMENT_3D ( 'NONE', #935, #113, #314 ) ;
#894 = EDGE_CURVE ( 'NONE', #982, #963, #680, .T. ) ;
#895 = DIRECTION ( 'NONE',  ( 0.5000000000000012212, -0.8660254037844379305, 0.000000000000000000 ) ) ;
#896 = AXIS2_PLACEMENT_3D ( 'NONE', #1180, #903, #449 ) ;
#897 = CIRCLE ( 'NONE', #626, 1.000000000000000000 ) ;
#898 = CARTESIAN_POINT ( 'NONE',  ( 9.220577136593998802, -31.95000000000001350, -44.89999999999999858 ) ) ;
#899 = ORIENTED_EDGE ( 'NONE', *, *, #116, .T. ) ;
#900 = VERTEX_POINT ( 'NONE', #921 ) ;
#901 = DIRECTION ( 'NONE',  ( -0.3420201433256543355, 0.9396926207859137570, 0.000000000000000000 ) ) ;
#902 = ADVANCED_FACE ( 'NONE', ( #95 ), #446, .T. ) ;
#903 = DIRECTION ( 'NONE',  ( 0.000000000000000000, 0.000000000000000000, -1.000000000000000000 ) ) ;
#904 = ORIENTED_EDGE ( 'NONE', *, *, #381, .T. ) ;
#905 = CIRCLE ( 'NONE', #386, 1.000000000000000000 ) ;
#906 = EDGE_CURVE ( 'NONE', #123, #159, #1101, .T. ) ;
#907 = ORIENTED_EDGE ( 'NONE', *, *, #894, .F. ) ;
#908 = DIRECTION ( 'NONE',  ( -0.8660254037844381525, -0.5000000000000011102, 0.000000000000000000 ) ) ;
#909 = PLANE ( 'NONE',  #177 ) ;
#910 = VERTEX_POINT ( 'NONE', #8 ) ;
#911 = EDGE_CURVE ( 'NONE', #917, #37, #279, .T. ) ;
#912 = ORIENTED_EDGE ( 'NONE', *, *, #809, .T. ) ;
#913 = DIRECTION ( 'NONE',  ( -0.000000000000000000, -0.000000000000000000, -1.000000000000000000 ) ) ;
#914 = DIRECTION ( 'NONE',  ( 0.000000000000000000, 1.000000000000000000, 0.000000000000000000 ) ) ;
#915 = VECTOR ( 'NONE', #483, 1000.000000000000227 ) ;
#916 = VECTOR ( 'NONE', #1118, 999.9999999999998863 ) ;
#917 = VERTEX_POINT ( 'NONE', #646 ) ;
#918 = EDGE_CURVE ( 'NONE', #963, #682, #312, .T. ) ;
#919 = ORIENTED_EDGE ( 'NONE', *, *, #176, .T. ) ;
#920 = ADVANCED_FACE ( 'NONE', ( #193 ), #1008, .T. ) ;
#921 = CARTESIAN_POINT ( 'NONE',  ( 5.495090081878235999, -1.099999999999995426, 2.000000000000000000 ) ) ;
#922 = FACE_OUTER_BOUND ( 'NONE', #197, .T. ) ;
#923 = ORIENTED_EDGE ( 'NONE', *, *, #209, .F. ) ;
#924 = ORIENTED_EDGE ( 'NONE', *, *, #545, .F. ) ;
#925 = DIRECTION ( 'NONE',  ( 0.000000000000000000, 0.000000000000000000, -1.000000000000000000 ) ) ;
#926 = CIRCLE ( 'NONE', #350, 11.90000000000000036 ) ;
#927 = CARTESIAN_POINT ( 'NONE',  ( 9.422649730810407576, -12.00000000000000000, 2.000000000000000000 ) ) ;
#928 = ORIENTED_EDGE ( 'NONE', *, *, #966, .F. ) ;
#929 = ORIENTED_EDGE ( 'NONE', *, *, #642, .T. ) ;
#930 = LINE ( 'NONE', #107, #280 ) ;
#931 = SURFACE_SIDE_STYLE ('',( #659 ) ) ;
#932 = EDGE_CURVE ( 'NONE', #1000, #982, #5, .T. ) ;
#933 = ORIENTED_EDGE ( 'NONE', *, *, #24, .T. ) ;
#934 = ORIENTED_EDGE ( 'NONE', *, *, #932, .T. ) ;
#935 = CARTESIAN_POINT ( 'NONE',  ( 9.422649730810407576, -12.00000000000000000, 0.000000000000000000 ) ) ;
#936 = AXIS2_PLACEMENT_3D ( 'NONE', #511, #66, #246 ) ;
#937 = LINE ( 'NONE', #663, #91 ) ;
#938 = EDGE_CURVE ( 'NONE', #917, #747, #580, .T. ) ;
#939 = CARTESIAN_POINT ( 'NONE',  ( -9.422649730810423563, -0.09999999999999592548, 0.000000000000000000 ) ) ;
#940 = ORIENTED_EDGE ( 'NONE', *, *, #952, .T. ) ;
#941 = DIRECTION ( 'NONE',  ( 1.000000000000000000, 0.000000000000000000, 0.000000000000000000 ) ) ;
#942 = AXIS2_PLACEMENT_3D ( 'NONE', #394, #567, #293 ) ;
#943 = CARTESIAN_POINT ( 'NONE',  ( -78.60000000000000853, -31.94999999999999929, -44.89999999999999858 ) ) ;
#944 = PLANE ( 'NONE',  #1001 ) ;
#945 = ORIENTED_EDGE ( 'NONE', *, *, #658, .F. ) ;
#946 = EDGE_CURVE ( 'NONE', #375, #682, #673, .T. ) ;
#947 = LINE ( 'NONE', #493, #75 ) ;
#948 = AXIS2_PLACEMENT_3D ( 'NONE', #1041, #578, #860 ) ;
#949 = CARTESIAN_POINT ( 'NONE',  ( 7.495090081878235999, -5.099999999999995204, -44.89999999999999858 ) ) ;
#950 = LINE ( 'NONE', #865, #1175 ) ;
#951 = ORIENTED_EDGE ( 'NONE', *, *, #451, .F. ) ;
#952 = EDGE_CURVE ( 'NONE', #655, #375, #542, .T. ) ;
#953 = CIRCLE ( 'NONE', #395, 1.000000000000000000 ) ;
#954 = CARTESIAN_POINT ( 'NONE',  ( 9.422649730810393365, -0.09999999999999845124, 0.000000000000000000 ) ) ;
#955 = AXIS2_PLACEMENT_3D ( 'NONE', #819, #178, #726 ) ;
#956 = CARTESIAN_POINT ( 'NONE',  ( -9.422649730810416457, -11.99999999999999822, 2.000000000000000000 ) ) ;
#957 = DIRECTION ( 'NONE',  ( 1.000000000000000000, 0.000000000000000000, 0.000000000000000000 ) ) ;
#958 = ORIENTED_EDGE ( 'NONE', *, *, #59, .T. ) ;
#959 = LINE ( 'NONE', #505, #1050 ) ;
#960 = DIRECTION ( 'NONE',  ( -0.000000000000000000, -0.000000000000000000, -1.000000000000000000 ) ) ;
#961 = VECTOR ( 'NONE', #1170, 1000.000000000000000 ) ;
#962 = CARTESIAN_POINT ( 'NONE',  ( -6.700098322957766861, -1.493432602029197032, -44.78026476468347994 ) ) ;
#963 = VERTEX_POINT ( 'NONE', #1094 ) ;
#964 = CARTESIAN_POINT ( 'NONE',  ( -15.10954988232820106, -31.94999999999999929, 0.000000000000000000 ) ) ;
#965 = CARTESIAN_POINT ( 'NONE',  ( -2.942746610929356699E-16, -2.199999999999997513, -44.89999999999999858 ) ) ;
#966 = EDGE_CURVE ( 'NONE', #963, #1100, #619, .T. ) ;
#967 = CARTESIAN_POINT ( 'NONE',  ( 11.64544826719042980, -31.95000000000001350, -42.79999999999999716 ) ) ;
#968 = DIRECTION ( 'NONE',  ( -1.000000000000000000, 0.000000000000000000, -0.000000000000000000 ) ) ;
#969 = ORIENTED_EDGE ( 'NONE', *, *, #1184, .T. ) ;
#970 = DIRECTION ( 'NONE',  ( 0.000000000000000000, 0.000000000000000000, 1.000000000000000000 ) ) ;
#971 = CARTESIAN_POINT ( 'NONE',  ( 7.495090081878235999, -3.099999999999994760, 2.000000000000000000 ) ) ;
#972 = CIRCLE ( 'NONE', #397, 14.90000000000000036 ) ;
#973 = FACE_OUTER_BOUND ( 'NONE', #325, .T. ) ;
#974 = LINE ( 'NONE', #884, #961 ) ;
#975 = ORIENTED_EDGE ( 'NONE', *, *, #1063, .T. ) ;
#976 = LINE ( 'NONE', #155, #771 ) ;
#977 = DIRECTION ( 'NONE',  ( 0.5000000000000014433, 0.8660254037844378194, 0.000000000000000000 ) ) ;
#978 = CIRCLE ( 'NONE', #1099, 75.99999999999998579 ) ;
#979 = CARTESIAN_POINT ( 'NONE',  ( -9.220577136594007683, -31.94999999999999929, -44.89999999999999858 ) ) ;
#980 = ORIENTED_EDGE ( 'NONE', *, *, #270, .F. ) ;
#981 = CARTESIAN_POINT ( 'NONE',  ( -9.422649730810416457, -11.99999999999999822, 0.000000000000000000 ) ) ;
#982 = VERTEX_POINT ( 'NONE', #500 ) ;
#983 = ADVANCED_FACE ( 'NONE', ( #572 ), #527, .T. ) ;
#984 = DIRECTION ( 'NONE',  ( 1.000000000000000000, 0.000000000000000000, 0.000000000000000000 ) ) ;
#985 = AXIS2_PLACEMENT_3D ( 'NONE', #738, #1112, #285 ) ;
#986 = CYLINDRICAL_SURFACE ( 'NONE', #725, 11.90000000000000036 ) ;
#987 = DIRECTION ( 'NONE',  ( -0.000000000000000000, -0.000000000000000000, 1.000000000000000000 ) ) ;
#988 = ORIENTED_EDGE ( 'NONE', *, *, #423, .T. ) ;
#989 = EDGE_CURVE ( 'NONE', #829, #625, #636, .T. ) ;
#990 = ORIENTED_EDGE ( 'NONE', *, *, #938, .F. ) ;
#991 = DIRECTION ( 'NONE',  ( 1.000000000000000000, 0.000000000000000000, 0.000000000000000000 ) ) ;
#992 = CARTESIAN_POINT ( 'NONE',  ( -3.606666962989321767, -31.94999999999999929, 2.000000000000000000 ) ) ;
#993 = CIRCLE ( 'NONE', #1166, 75.99999999999998579 ) ;
#994 = CARTESIAN_POINT ( 'NONE',  ( -19.72835203584522290, -17.95000000000000639, 0.000000000000000000 ) ) ;
#995 = EDGE_LOOP ( 'NONE', ( #370, #643, #541, #284 ) ) ;
#996 = ORIENTED_EDGE ( 'NONE', *, *, #329, .T. ) ;
#997 = PLANE ( 'NONE',  #876 ) ;
#998 = DIRECTION ( 'NONE',  ( -0.5000000000000012212, -0.8660254037844380415, -0.000000000000000000 ) ) ;
#999 = EDGE_CURVE ( 'NONE', #670, #1087, #274, .T. ) ;
#1000 = VERTEX_POINT ( 'NONE', #671 ) ;
#1001 = AXIS2_PLACEMENT_3D ( 'NONE', #1033, #581, #1132 ) ;
#1002 = CARTESIAN_POINT ( 'NONE',  ( 22.32642824719852825, -19.45000000000002771, 0.000000000000000000 ) ) ;
#1003 = FACE_OUTER_BOUND ( 'NONE', #536, .T. ) ;
#1004 = EDGE_CURVE ( 'NONE', #982, #11, #38, .T. ) ;
#1005 = VERTEX_POINT ( 'NONE', #753 ) ;
#1006 = DIRECTION ( 'NONE',  ( 1.000000000000000000, 0.000000000000000000, 0.000000000000000000 ) ) ;
#1007 = ORIENTED_EDGE ( 'NONE', *, *, #880, .F. ) ;
#1008 = PLANE ( 'NONE',  #1104 ) ;
#1009 = LINE ( 'NONE', #639, #535 ) ;
#1010 = VECTOR ( 'NONE', #1130, 1000.000000000000000 ) ;
#1011 = ORIENTED_EDGE ( 'NONE', *, *, #698, .F. ) ;
#1012 = PRODUCT_CONTEXT ( 'NONE', #1181, 'mechanical' ) ;
#1013 = ORIENTED_EDGE ( 'NONE', *, *, #658, .T. ) ;
#1014 = CARTESIAN_POINT ( 'NONE',  ( -9.422649730810416457, -11.99999999999999822, -42.79999999999999716 ) ) ;
#1015 = CARTESIAN_POINT ( 'NONE',  ( -78.60000000000000853, -31.94999999999999929, 2.000000000000000000 ) ) ;
#1016 = EDGE_LOOP ( 'NONE', ( #1092, #445, #302, #534 ) ) ;
#1017 = ORIENTED_EDGE ( 'NONE', *, *, #402, .F. ) ;
#1018 = DIRECTION ( 'NONE',  ( 0.000000000000000000, 0.000000000000000000, 1.000000000000000000 ) ) ;
#1019 = CIRCLE ( 'NONE', #503, 1.000000000000000000 ) ;
#1020 = EDGE_CURVE ( 'NONE', #682, #520, #1030, .T. ) ;
#1021 = CARTESIAN_POINT ( 'NONE',  ( -7.183360820271017744, -5.956469107249132477, 2.000000000000000000 ) ) ;
#1022 = ORIENTED_EDGE ( 'NONE', *, *, #34, .F. ) ;
#1023 = ORIENTED_EDGE ( 'NONE', *, *, #321, .T. ) ;
#1024 = FACE_OUTER_BOUND ( 'NONE', #624, .T. ) ;
#1025 = EDGE_CURVE ( 'NONE', #296, #236, #1117, .T. ) ;
#1026 = CARTESIAN_POINT ( 'NONE',  ( 15.10954988232819218, -31.94999999999999929, 2.000000000000000000 ) ) ;
#1027 = CARTESIAN_POINT ( 'NONE',  ( -5.495090081878235999, -3.099999999999994760, -44.89999999999999858 ) ) ;
#1028 = CARTESIAN_POINT ( 'NONE',  ( 6.841786622182550737, -1.609918147154362877, -44.82016722223483640 ) ) ;
#1029 = EDGE_LOOP ( 'NONE', ( #928, #907, #307, #1067 ) ) ;
#1030 = LINE ( 'NONE', #407, #372 ) ;
#1031 = CYLINDRICAL_SURFACE ( 'NONE', #574, 75.99999999999998579 ) ;
#1032 = ADVANCED_FACE ( 'NONE', ( #393 ), #383, .F. ) ;
#1033 = CARTESIAN_POINT ( 'NONE',  ( -5.495090081878235999, -1.099999999999995426, -44.89999999999999858 ) ) ;
#1034 = ORIENTED_EDGE ( 'NONE', *, *, #689, .T. ) ;
#1035 = DIRECTION ( 'NONE',  ( -1.000000000000000000, 0.000000000000000000, 0.000000000000000000 ) ) ;
#1036 = VECTOR ( 'NONE', #331, 1000.000000000000000 ) ;
#1037 = CARTESIAN_POINT ( 'NONE',  ( -9.422649730810416457, -11.99999999999999822, -42.79999999999999716 ) ) ;
#1038 = CARTESIAN_POINT ( 'NONE',  ( -7.495090081878235999, -5.099999999999995204, -44.89999999999999858 ) ) ;
#1039 = ADVANCED_FACE ( 'NONE', ( #1024 ), #489, .F. ) ;
#1040 = VERTEX_POINT ( 'NONE', #15 ) ;
#1041 = CARTESIAN_POINT ( 'NONE',  ( 9.422649730810407576, -12.00000000000000000, 0.000000000000000000 ) ) ;
#1042 = VECTOR ( 'NONE', #843, 999.9999999999998863 ) ;
#1043 = DIRECTION ( 'NONE',  ( 1.000000000000000000, -5.958460116521814421E-16, 0.000000000000000000 ) ) ;
#1044 = PRODUCT_RELATED_PRODUCT_CATEGORY ( 'part', '', ( #873 ) ) ;
#1045 = DIRECTION ( 'NONE',  ( -0.000000000000000000, -0.000000000000000000, 1.000000000000000000 ) ) ;
#1046 = ORIENTED_EDGE ( 'NONE', *, *, #329, .F. ) ;
#1047 = LINE ( 'NONE', #964, #435 ) ;
#1048 = AXIS2_PLACEMENT_3D ( 'NONE', #653, #831, #286 ) ;
#1049 = CARTESIAN_POINT ( 'NONE',  ( 9.422649730810407576, -12.00000000000000000, 0.000000000000000000 ) ) ;
#1050 = VECTOR ( 'NONE', #1144, 1000.000000000000000 ) ;
#1051 = CARTESIAN_POINT ( 'NONE',  ( -6.841786622182551625, -1.609918147154361767, -44.82016722223483640 ) ) ;
#1052 = ORIENTED_EDGE ( 'NONE', *, *, #4, .T. ) ;
#1053 = DIRECTION ( 'NONE',  ( -5.958460116521814421E-16, -1.000000000000000000, 0.000000000000000000 ) ) ;
#1054 = CARTESIAN_POINT ( 'NONE',  ( 5.495090081878235999, -1.099999999999995426, -44.58885438199982332 ) ) ;
#1055 = ADVANCED_FACE ( 'NONE', ( #476 ), #854, .T. ) ;
#1056 = AXIS2_PLACEMENT_3D ( 'NONE', #839, #479, #1120 ) ;
#1057 = FACE_OUTER_BOUND ( 'NONE', #1082, .T. ) ;
#1058 = DIRECTION ( 'NONE',  ( 0.000000000000000000, 0.000000000000000000, -1.000000000000000000 ) ) ;
#1059 = VERTEX_POINT ( 'NONE', #214 ) ;
#1060 = LINE ( 'NONE', #594, #585 ) ;
#1061 = CARTESIAN_POINT ( 'NONE',  ( 3.606666962989321767, -30.95000000000000995, 2.000000000000001776 ) ) ;
#1062 = CARTESIAN_POINT ( 'NONE',  ( -7.495090081878235999, -5.099999999999995204, 2.000000000000000000 ) ) ;
#1063 = EDGE_CURVE ( 'NONE', #369, #763, #853, .T. ) ;
#1064 =( LENGTH_UNIT ( ) NAMED_UNIT ( * ) SI_UNIT ( .MILLI., .METRE. ) );
#1065 = VERTEX_POINT ( 'NONE', #198 ) ;
#1066 =( NAMED_UNIT ( * ) SI_UNIT ( $, .STERADIAN. ) SOLID_ANGLE_UNIT ( ) );
#1067 = ORIENTED_EDGE ( 'NONE', *, *, #300, .F. ) ;
#1068 = CIRCLE ( 'NONE', #735, 1.000000000000000000 ) ;
#1069 = CARTESIAN_POINT ( 'NONE',  ( 9.422649730810384483, 2.900000000000001688, 2.000000000000000000 ) ) ;
#1070 = AXIS2_PLACEMENT_3D ( 'NONE', #76, #1173, #61 ) ;
#1071 = CARTESIAN_POINT ( 'NONE',  ( 9.422649730810384483, 2.900000000000001688, 0.000000000000000000 ) ) ;
#1072 = EDGE_CURVE ( 'NONE', #25, #910, #947, .T. ) ;
#1073 = DIRECTION ( 'NONE',  ( 0.000000000000000000, 0.000000000000000000, -1.000000000000000000 ) ) ;
#1074 = ORIENTED_EDGE ( 'NONE', *, *, #711, .F. ) ;
#1075 = LINE ( 'NONE', #333, #838 ) ;
#1076 = LINE ( 'NONE', #965, #339 ) ;
#1077 = LINE ( 'NONE', #434, #806 ) ;
#1078 = CIRCLE ( 'NONE', #864, 14.89999999999999858 ) ;
#1079 = EDGE_CURVE ( 'NONE', #514, #437, #792, .T. ) ;
#1080 =( NAMED_UNIT ( * ) PLANE_ANGLE_UNIT ( ) SI_UNIT ( $, .RADIAN. ) );
#1081 = ORIENTED_EDGE ( 'NONE', *, *, #40, .T. ) ;
#1082 = EDGE_LOOP ( 'NONE', ( #951, #597, #1013, #879 ) ) ;
#1083 = CARTESIAN_POINT ( 'NONE',  ( -9.422649730810416457, -11.99999999999999822, -42.79999999999999716 ) ) ;
#1084 = CARTESIAN_POINT ( 'NONE',  ( 9.422649730810407576, -12.00000000000000000, -42.79999999999999716 ) ) ;
#1085 = CARTESIAN_POINT ( 'NONE',  ( -11.64544826719044046, -31.94999999999999929, -42.79999999999999716 ) ) ;
#1086 = EDGE_LOOP ( 'NONE', ( #374, #80, #614, #346 ) ) ;
#1087 = VERTEX_POINT ( 'NONE', #954 ) ;
#1088 = DIRECTION ( 'NONE',  ( 1.000000000000000000, 0.000000000000000000, 0.000000000000000000 ) ) ;
#1089 = EDGE_CURVE ( 'NONE', #747, #179, #131, .T. ) ;
#1090 = PLANE ( 'NONE',  #377 ) ;
#1091 = VECTOR ( 'NONE', #887, 1000.000000000000000 ) ;
#1092 = ORIENTED_EDGE ( 'NONE', *, *, #488, .F. ) ;
#1093 = APPLICATION_PROTOCOL_DEFINITION ( 'draft international standard', 'automotive_design', 1998, #49 ) ;
#1094 = CARTESIAN_POINT ( 'NONE',  ( -21.32264973081041504, -11.99999999999999822, -42.79999999999999716 ) ) ;
#1095 = EDGE_CURVE ( 'NONE', #236, #560, #930, .T. ) ;
#1096 = DIRECTION ( 'NONE',  ( 0.5000000000000015543, -0.8660254037844377084, 0.000000000000000000 ) ) ;
#1097 = VECTOR ( 'NONE', #779, 1000.000000000000000 ) ;
#1098 = ORIENTED_EDGE ( 'NONE', *, *, #20, .F. ) ;
#1099 = AXIS2_PLACEMENT_3D ( 'NONE', #846, #41, #398 ) ;
#1100 = VERTEX_POINT ( 'NONE', #742 ) ;
#1101 = LINE ( 'NONE', #2, #828 ) ;
#1102 = PRODUCT_DEFINITION ( 'UNKNOWN', '', #481, #261 ) ;
#1103 = DIRECTION ( 'NONE',  ( -1.000000000000000000, 0.000000000000000000, -0.000000000000000000 ) ) ;
#1104 = AXIS2_PLACEMENT_3D ( 'NONE', #557, #925, #101 ) ;
#1105 = ORIENTED_EDGE ( 'NONE', *, *, #1089, .F. ) ;
#1106 = EDGE_LOOP ( 'NONE', ( #290, #422, #1109, #700 ) ) ;
#1107 = LINE ( 'NONE', #460, #13 ) ;
#1108 = DIRECTION ( 'NONE',  ( 1.000000000000000000, 0.000000000000000000, 0.000000000000000000 ) ) ;
#1109 = ORIENTED_EDGE ( 'NONE', *, *, #1079, .T. ) ;
#1110 = ADVANCED_FACE ( 'NONE', ( #21 ), #389, .T. ) ;
#1111 = ORIENTED_EDGE ( 'NONE', *, *, #558, .T. ) ;
#1112 = DIRECTION ( 'NONE',  ( 1.000000000000000000, 8.260587980841937794E-16, 0.000000000000000000 ) ) ;
#1113 = CARTESIAN_POINT ( 'NONE',  ( -7.495090081878235999, -5.099999999999995204, -44.89999999999999858 ) ) ;
#1114 = EDGE_LOOP ( 'NONE', ( #687, #859, #980, #799, #782, #852, #1187, #975, #996 ) ) ;
#1115 = EDGE_CURVE ( 'NONE', #514, #19, #953, .T. ) ;
#1116 = EDGE_LOOP ( 'NONE', ( #277, #64, #165, #230 ) ) ;
#1117 = LINE ( 'NONE', #764, #1042 ) ;
#1118 = DIRECTION ( 'NONE',  ( 0.5000000000000012212, -0.8660254037844380415, 0.000000000000000000 ) ) ;
#1119 = EDGE_CURVE ( 'NONE', #910, #577, #1060, .T. ) ;
#1120 = DIRECTION ( 'NONE',  ( 1.000000000000000000, 0.000000000000000000, 0.000000000000000000 ) ) ;
#1121 = CARTESIAN_POINT ( 'NONE',  ( 6.221680399886813539, -1.227713792975634988, -44.66225151908466984 ) ) ;
#1122 = VERTEX_POINT ( 'NONE', #160 ) ;
#1123 = DIRECTION ( 'NONE',  ( -0.000000000000000000, -0.000000000000000000, 1.000000000000000000 ) ) ;
#1124 = LINE ( 'NONE', #949, #1165 ) ;
#1125 = ADVANCED_FACE ( 'NONE', ( #1172 ), #604, .T. ) ;
#1126 = CARTESIAN_POINT ( 'NONE',  ( -5.495090081878235999, -1.099999999999994982, -44.58885438199983042 ) ) ;
#1127 = AXIS2_PLACEMENT_3D ( 'NONE', #956, #960, #861 ) ;
#1128 = VERTEX_POINT ( 'NONE', #867 ) ;
#1129 = DIRECTION ( 'NONE',  ( 0.000000000000000000, 0.000000000000000000, 1.000000000000000000 ) ) ;
#1130 = DIRECTION ( 'NONE',  ( -0.000000000000000000, -0.000000000000000000, 1.000000000000000000 ) ) ;
#1131 = EDGE_CURVE ( 'NONE', #1137, #811, #1047, .T. ) ;
#1132 = DIRECTION ( 'NONE',  ( 0.000000000000000000, -0.000000000000000000, -1.000000000000000000 ) ) ;
#1133 = ORIENTED_EDGE ( 'NONE', *, *, #402, .T. ) ;
#1134 = DIRECTION ( 'NONE',  ( 0.000000000000000000, 0.000000000000000000, 1.000000000000000000 ) ) ;
#1135 = LINE ( 'NONE', #750, #1010 ) ;
#1136 = DIRECTION ( 'NONE',  ( 0.000000000000000000, 0.000000000000000000, -1.000000000000000000 ) ) ;
#1137 = VERTEX_POINT ( 'NONE', #418 ) ;
#1138 = DIRECTION ( 'NONE',  ( -0.000000000000000000, -0.000000000000000000, 1.000000000000000000 ) ) ;
#1139 = VECTOR ( 'NONE', #718, 999.9999999999998863 ) ;
#1140 = CARTESIAN_POINT ( 'NONE',  ( -11.64544826719044046, -31.94999999999999929, -42.79999999999999716 ) ) ;
#1141 = LINE ( 'NONE', #316, #613 ) ;
#1142 = VERTEX_POINT ( 'NONE', #874 ) ;
#1143 = EDGE_CURVE ( 'NONE', #19, #890, #1068, .T. ) ;
#1144 = DIRECTION ( 'NONE',  ( -0.000000000000000000, -0.000000000000000000, 1.000000000000000000 ) ) ;
#1145 = FACE_OUTER_BOUND ( 'NONE', #89, .T. ) ;
#1146 = AXIS2_PLACEMENT_3D ( 'NONE', #731, #830, #90 ) ;
#1147 = DIRECTION ( 'NONE',  ( -0.000000000000000000, -0.000000000000000000, 1.000000000000000000 ) ) ;
#1148 = CARTESIAN_POINT ( 'NONE',  ( 7.495090081878235999, -3.099999999999994316, -44.89999999999999858 ) ) ;
#1149 = ORIENTED_EDGE ( 'NONE', *, *, #1025, .T. ) ;
#1150 = EDGE_CURVE ( 'NONE', #437, #721, #147, .T. ) ;
#1151 =( NAMED_UNIT ( * ) PLANE_ANGLE_UNIT ( ) SI_UNIT ( $, .RADIAN. ) );
#1152 = DIRECTION ( 'NONE',  ( -0.000000000000000000, -0.000000000000000000, 1.000000000000000000 ) ) ;
#1153 = VECTOR ( 'NONE', #1174, 1000.000000000000000 ) ;
#1154 = CARTESIAN_POINT ( 'NONE',  ( 9.422649730810407576, -12.00000000000000000, -98.22634748102971969 ) ) ;
#1155 = CARTESIAN_POINT ( 'NONE',  ( -7.495090081878235999, -3.099999999999994760, 2.000000000000000000 ) ) ;
#1156 = ORIENTED_EDGE ( 'NONE', *, *, #1143, .F. ) ;
#1157 = CARTESIAN_POINT ( 'NONE',  ( -11.64544826719044046, -31.94999999999999929, -98.22634748102971969 ) ) ;
#1158 = ORIENTED_EDGE ( 'NONE', *, *, #1168, .T. ) ;
#1159 = LINE ( 'NONE', #1069, #169 ) ;
#1160 = ADVANCED_FACE ( 'NONE', ( #528 ), #775, .T. ) ;
#1161 = CARTESIAN_POINT ( 'NONE',  ( 10.64103375789040840, -31.95000000000000995, -44.89999999999999858 ) ) ;
#1162 = ORIENTED_EDGE ( 'NONE', *, *, #459, .T. ) ;
#1163 = AXIS2_PLACEMENT_3D ( 'NONE', #57, #677, #781 ) ;
#1164 = FACE_OUTER_BOUND ( 'NONE', #1189, .T. ) ;
#1165 = VECTOR ( 'NONE', #384, 999.9999999999998863 ) ;
#1166 = AXIS2_PLACEMENT_3D ( 'NONE', #92, #461, #629 ) ;
#1167 = EDGE_CURVE ( 'NONE', #37, #469, #496, .T. ) ;
#1168 = EDGE_CURVE ( 'NONE', #353, #900, #1075, .T. ) ;
#1169 = CARTESIAN_POINT ( 'NONE',  ( -3.606666962989321767, -30.95000000000000284, -44.89999999999999858 ) ) ;
#1170 = DIRECTION ( 'NONE',  ( -1.000000000000000000, 1.337612095876981819E-16, 0.000000000000000000 ) ) ;
#1171 = EDGE_LOOP ( 'NONE', ( #392, #969, #723, #555, #730 ) ) ;
#1172 = FACE_OUTER_BOUND ( 'NONE', #426, .T. ) ;
#1173 = DIRECTION ( 'NONE',  ( -0.8660254037844380415, -0.5000000000000012212, 0.000000000000000000 ) ) ;
#1174 = DIRECTION ( 'NONE',  ( -0.000000000000000000, -0.000000000000000000, -1.000000000000000000 ) ) ;
#1175 = VECTOR ( 'NONE', #205, 1000.000000000000000 ) ;
#1176 = DIRECTION ( 'NONE',  ( -1.000000000000000000, 0.000000000000000000, 0.000000000000000000 ) ) ;
#1177 = ORIENTED_EDGE ( 'NONE', *, *, #381, .F. ) ;
#1178 = DIRECTION ( 'NONE',  ( -1.000000000000000000, 0.000000000000000000, 0.000000000000000000 ) ) ;
#1179 = ADVANCED_BREP_SHAPE_REPRESENTATION ( 'Gripper Insert', ( #440, #462 ), #570 ) ;
#1180 = CARTESIAN_POINT ( 'NONE',  ( -9.422649730810416457, -11.99999999999999822, -44.89999999999999858 ) ) ;
#1181 = APPLICATION_CONTEXT ( 'automotive_design' ) ;
#1182 = ORIENTED_EDGE ( 'NONE', *, *, #1095, .F. ) ;
#1183 = ORIENTED_EDGE ( 'NONE', *, *, #894, .T. ) ;
#1184 = EDGE_CURVE ( 'NONE', #774, #353, #959, .T. ) ;
#1185 = DIRECTION ( 'NONE',  ( -1.000000000000000000, -1.749300984178293359E-15, 0.000000000000000000 ) ) ;
#1186 = CARTESIAN_POINT ( 'NONE',  ( 19.72835203584521224, -17.95000000000002061, -98.22634748102971969 ) ) ;
#1187 = ORIENTED_EDGE ( 'NONE', *, *, #880, .T. ) ;
#1188 = ADVANCED_FACE ( 'NONE', ( #411 ), #598, .T. ) ;
#1189 = EDGE_LOOP ( 'NONE', ( #654, #468, #399, #571 ) ) ;
#1190 = DIRECTION ( 'NONE',  ( 1.000000000000000000, -1.337612095876981819E-16, -0.000000000000000000 ) ) ;
#1191 = DIRECTION ( 'NONE',  ( 1.000000000000000000, 0.000000000000000000, 0.000000000000000000 ) ) ;
#1192 = ORIENTED_EDGE ( 'NONE', *, *, #488, .T. ) ;
ENDSEC;
END-ISO-10303-21;
