ISO-10303-21;
HEADER;
FILE_DESCRIPTION (( 'STEP AP214' ),
    '1' );
FILE_NAME ('Gripper.STEP',
    '2026-05-25T21:21:13',
    ( '' ),
    ( '' ),
    'SwSTEP 2.0',
    'SolidWorks 2025',
    '' );
FILE_SCHEMA (( 'AUTOMOTIVE_DESIGN' ));
ENDSEC;

DATA;
#1 = ORIENTED_EDGE ( 'NONE', *, *, #933, .T. ) ;
#2 = EDGE_CURVE ( 'NONE', #814, #247, #5, .T. ) ;
#3 = CYLINDRICAL_SURFACE ( 'NONE', #989, 6.999999999999988454 ) ;
#4 = CARTESIAN_POINT ( 'NONE',  ( -23.95886589889649798, -32.99999999999999289, 45.00000000000000000 ) ) ;
#5 = LINE ( 'NONE', #723, #947 ) ;
#6 = VECTOR ( 'NONE', #605, 999.9999999999997726 ) ;
#7 = AXIS2_PLACEMENT_3D ( 'NONE', #1165, #630, #341 ) ;
#8 = VERTEX_POINT ( 'NONE', #739 ) ;
#9 = CARTESIAN_POINT ( 'NONE',  ( -18.08290376865479132, -17.00000000000000711, 2.000000000000001776 ) ) ;
#10 = VERTEX_POINT ( 'NONE', #749 ) ;
#11 = LINE ( 'NONE', #102, #109 ) ;
#12 = ORIENTED_EDGE ( 'NONE', *, *, #1001, .F. ) ;
#13 = DIRECTION ( 'NONE',  ( -1.000000000000000000, 0.000000000000000000, 0.000000000000000000 ) ) ;
#14 = ORIENTED_EDGE ( 'NONE', *, *, #532, .F. ) ;
#15 = EDGE_CURVE ( 'NONE', #247, #123, #418, .T. ) ;
#16 = ORIENTED_EDGE ( 'NONE', *, *, #584, .T. ) ;
#17 = CARTESIAN_POINT ( 'NONE',  ( -9.422649730810411128, -11.99999999999999822, 0.000000000000000000 ) ) ;
#18 = ORIENTED_EDGE ( 'NONE', *, *, #1061, .T. ) ;
#19 = EDGE_CURVE ( 'NONE', #868, #346, #370, .T. ) ;
#20 = VECTOR ( 'NONE', #447, 1000.000000000000227 ) ;
#21 = AXIS2_PLACEMENT_3D ( 'NONE', #658, #932, #1014 ) ;
#22 = DIRECTION ( 'NONE',  ( -1.000000000000000000, 0.000000000000000000, 0.000000000000000000 ) ) ;
#23 = VECTOR ( 'NONE', #598, 1000.000000000000000 ) ;
#24 = DIRECTION ( 'NONE',  ( 0.000000000000000000, 0.000000000000000000, -1.000000000000000000 ) ) ;
#25 = VECTOR ( 'NONE', #567, 1000.000000000000000 ) ;
#26 = DIRECTION ( 'NONE',  ( 1.000000000000000000, 0.000000000000000000, 0.000000000000000000 ) ) ;
#27 = ORIENTED_EDGE ( 'NONE', *, *, #475, .T. ) ;
#28 = DIRECTION ( 'NONE',  ( -0.000000000000000000, -0.000000000000000000, 1.000000000000000000 ) ) ;
#29 = ORIENTED_EDGE ( 'NONE', *, *, #505, .F. ) ;
#30 = DIRECTION ( 'NONE',  ( -1.000000000000000000, 0.000000000000000000, 0.000000000000000000 ) ) ;
#31 = LINE ( 'NONE', #583, #965 ) ;
#32 = EDGE_CURVE ( 'NONE', #123, #1100, #907, .T. ) ;
#33 = CARTESIAN_POINT ( 'NONE',  ( -13.22280328851577202, -35.00000000000000000, 1.758702276377031248 ) ) ;
#34 = VERTEX_POINT ( 'NONE', #163 ) ;
#35 = CARTESIAN_POINT ( 'NONE',  ( 13.46410161513775883, -33.00000000000001421, 45.00000000000000000 ) ) ;
#36 = CIRCLE ( 'NONE', #276, 4.000000000000000000 ) ;
#37 = CIRCLE ( 'NONE', #571, 20.00000000000000000 ) ;
#38 = VECTOR ( 'NONE', #794, 1000.000000000000000 ) ;
#39 = EDGE_CURVE ( 'NONE', #814, #731, #444, .T. ) ;
#40 = DIRECTION ( 'NONE',  ( 1.000000000000000000, 0.000000000000000000, 0.000000000000000000 ) ) ;
#41 = VERTEX_POINT ( 'NONE', #820 ) ;
#42 = FACE_OUTER_BOUND ( 'NONE', #174, .T. ) ;
#43 = CARTESIAN_POINT ( 'NONE',  ( 17.50000000000000000, 24.99999999999999289, -5.000000000000000000 ) ) ;
#44 = EDGE_CURVE ( 'NONE', #560, #1100, #1010, .T. ) ;
#45 = VERTEX_POINT ( 'NONE', #291 ) ;
#46 = CARTESIAN_POINT ( 'NONE',  ( -8.915063315200429273, 24.99999999999999289, 45.00000000000000000 ) ) ;
#47 = CARTESIAN_POINT ( 'NONE',  ( 18.08290376865479487, -17.00000000000000711, 2.000000000000001776 ) ) ;
#48 = CARTESIAN_POINT ( 'NONE',  ( 19.81495457622366985, -18.00000000000001421, 0.000000000000000000 ) ) ;
#49 = CARTESIAN_POINT ( 'NONE',  ( -11.73205080756888563, -32.00000000000000000, 2.000000000000001776 ) ) ;
#50 = ORIENTED_EDGE ( 'NONE', *, *, #995, .F. ) ;
#51 = CARTESIAN_POINT ( 'NONE',  ( 9.422649730810414681, -11.99999999999999645, 45.00000000000000000 ) ) ;
#52 = EDGE_CURVE ( 'NONE', #694, #1118, #215, .T. ) ;
#53 = LINE ( 'NONE', #1163, #651 ) ;
#54 = VECTOR ( 'NONE', #733, 1000.000000000000000 ) ;
#55 = AXIS2_PLACEMENT_3D ( 'NONE', #857, #307, #949 ) ;
#56 = PLANE ( 'NONE',  #437 ) ;
#57 = VECTOR ( 'NONE', #1170, 1000.000000000000114 ) ;
#58 = AXIS2_PLACEMENT_3D ( 'NONE', #144, #515, #336 ) ;
#59 = EDGE_LOOP ( 'NONE', ( #812, #759, #1081, #609 ) ) ;
#60 = CARTESIAN_POINT ( 'NONE',  ( 9.464101615137758827, -33.00000000000001421, 8.673617379884035472E-16 ) ) ;
#61 = CARTESIAN_POINT ( 'NONE',  ( 8.915063315200429273, 24.99999999999999289, 45.00000000000000000 ) ) ;
#62 = CARTESIAN_POINT ( 'NONE',  ( -8.915063315200429273, 4.999999999999996447, 45.00000000000000000 ) ) ;
#63 = ORIENTED_EDGE ( 'NONE', *, *, #522, .T. ) ;
#64 = FACE_OUTER_BOUND ( 'NONE', #278, .T. ) ;
#65 = LINE ( 'NONE', #244, #545 ) ;
#66 = ADVANCED_FACE ( 'NONE', ( #566 ), #717, .T. ) ;
#67 = CYLINDRICAL_SURFACE ( 'NONE', #199, 1.999999999999999334 ) ;
#68 = ORIENTED_EDGE ( 'NONE', *, *, #1160, .F. ) ;
#69 = CARTESIAN_POINT ( 'NONE',  ( 17.50000000000000000, 24.99999999999999289, 45.00000000000000000 ) ) ;
#70 = ORIENTED_EDGE ( 'NONE', *, *, #39, .F. ) ;
#71 = DIRECTION ( 'NONE',  ( 0.000000000000000000, 1.000000000000000000, 0.000000000000000000 ) ) ;
#72 = EDGE_CURVE ( 'NONE', #688, #817, #384, .T. ) ;
#73 = AXIS2_PLACEMENT_3D ( 'NONE', #380, #268, #1098 ) ;
#74 = CIRCLE ( 'NONE', #809, 35.00000000000000000 ) ;
#75 = ORIENTED_EDGE ( 'NONE', *, *, #161, .T. ) ;
#76 = DIRECTION ( 'NONE',  ( -1.000000000000000000, 0.000000000000000000, 0.000000000000000000 ) ) ;
#77 = CIRCLE ( 'NONE', #1072, 6.999999999999988454 ) ;
#78 = DIRECTION ( 'NONE',  ( -1.000000000000000000, 0.000000000000000000, 0.000000000000000000 ) ) ;
#79 = DIRECTION ( 'NONE',  ( 1.000000000000000000, 0.000000000000000000, 0.000000000000000000 ) ) ;
#80 = EDGE_CURVE ( 'NONE', #730, #817, #395, .T. ) ;
#81 = MANIFOLD_SOLID_BREP ( 'Fillet8', #333 ) ;
#82 = CARTESIAN_POINT ( 'NONE',  ( -23.95886589889649798, -34.99999999999999289, 45.00000000000000000 ) ) ;
#83 = DIRECTION ( 'NONE',  ( 0.000000000000000000, 0.000000000000000000, -1.000000000000000000 ) ) ;
#84 = PRODUCT_RELATED_PRODUCT_CATEGORY ( 'part', '', ( #446 ) ) ;
#85 = ORIENTED_EDGE ( 'NONE', *, *, #532, .T. ) ;
#86 = AXIS2_PLACEMENT_3D ( 'NONE', #1039, #392, #674 ) ;
#87 = CARTESIAN_POINT ( 'NONE',  ( 23.41354938290800902, 18.77657075416408006, 45.00000000000000000 ) ) ;
#88 = EDGE_LOOP ( 'NONE', ( #476, #50, #355, #536 ) ) ;
#89 = CIRCLE ( 'NONE', #788, 2.000000000000000000 ) ;
#90 = AXIS2_PLACEMENT_3D ( 'NONE', #312, #873, #514 ) ;
#91 = CARTESIAN_POINT ( 'NONE',  ( -11.73205080756888563, -32.00000000000000000, 45.00000000000000000 ) ) ;
#92 = EDGE_CURVE ( 'NONE', #697, #905, #632, .T. ) ;
#93 = DIRECTION ( 'NONE',  ( 1.000000000000000000, -4.625929269271485914E-16, 0.000000000000000000 ) ) ;
#94 = DIRECTION ( 'NONE',  ( 0.000000000000000000, 0.000000000000000000, -1.000000000000000000 ) ) ;
#95 = EDGE_LOOP ( 'NONE', ( #455, #1116, #457, #1089 ) ) ;
#96 = VERTEX_POINT ( 'NONE', #224 ) ;
#97 = CARTESIAN_POINT ( 'NONE',  ( 0.9228553599670199503, -8.365088278966190671, 45.00000000000000000 ) ) ;
#98 = ORIENTED_EDGE ( 'NONE', *, *, #856, .T. ) ;
#99 = DIRECTION ( 'NONE',  ( 0.000000000000000000, 0.000000000000000000, -1.000000000000000000 ) ) ;
#100 = ADVANCED_FACE ( 'NONE', ( #42 ), #135, .T. ) ;
#101 = DIRECTION ( 'NONE',  ( -0.000000000000000000, -0.000000000000000000, 1.000000000000000000 ) ) ;
#102 = CARTESIAN_POINT ( 'NONE',  ( 13.46410161513775883, -35.00000000000001421, 45.00000000000000000 ) ) ;
#103 = DIRECTION ( 'NONE',  ( 0.000000000000000000, 0.000000000000000000, -1.000000000000000000 ) ) ;
#104 = CARTESIAN_POINT ( 'NONE',  ( -19.42264973081041290, -11.99999999999999822, 2.000000000000001776 ) ) ;
#105 = FACE_OUTER_BOUND ( 'NONE', #612, .T. ) ;
#106 = TOROIDAL_SURFACE ( 'NONE', #86, 4.000000000000000000, 2.000000000000000000 ) ;
#107 = EDGE_LOOP ( 'NONE', ( #98, #557, #203, #771, #795 ) ) ;
#108 = B_SPLINE_CURVE_WITH_KNOTS ( 'NONE', 3,
 ( #413, #317, #211, #407, #303, #424, #226, #1122, #33, #675 ),
 .UNSPECIFIED., .F., .F.,
 ( 4, 2, 2, 2, 4 ),
 ( 0.000000000000000000, 0.001023740819106966262, 0.002047481638213932524, 0.003071222457320898786, 0.004094963276427865048 ),
 .UNSPECIFIED. ) ;
#109 = VECTOR ( 'NONE', #836, 1000.000000000000000 ) ;
#110 = VECTOR ( 'NONE', #122, 1000.000000000000227 ) ;
#111 = DIRECTION ( 'NONE',  ( 0.000000000000000000, 0.000000000000000000, -1.000000000000000000 ) ) ;
#112 = ORIENTED_EDGE ( 'NONE', *, *, #818, .F. ) ;
#113 = ORIENTED_EDGE ( 'NONE', *, *, #195, .T. ) ;
#114 =( NAMED_UNIT ( * ) PLANE_ANGLE_UNIT ( ) SI_UNIT ( $, .RADIAN. ) );
#115 = DIRECTION ( 'NONE',  ( -0.5735764363510417185, 0.8191520442889947962, 0.000000000000000000 ) ) ;
#116 = ORIENTED_EDGE ( 'NONE', *, *, #1091, .F. ) ;
#117 = EDGE_CURVE ( 'NONE', #886, #441, #31, .T. ) ;
#118 = FACE_OUTER_BOUND ( 'NONE', #564, .T. ) ;
#119 = CARTESIAN_POINT ( 'NONE',  ( 0.000000000000000000, 0.000000000000000000, 45.00000000000000000 ) ) ;
#120 = FACE_OUTER_BOUND ( 'NONE', #366, .T. ) ;
#121 = ORIENTED_EDGE ( 'NONE', *, *, #1168, .T. ) ;
#122 = DIRECTION ( 'NONE',  ( 0.6888285377082042915, -0.7249243033853789431, 0.000000000000000000 ) ) ;
#123 = VERTEX_POINT ( 'NONE', #402 ) ;
#124 = AXIS2_PLACEMENT_3D ( 'NONE', #597, #1133, #508 ) ;
#125 = CIRCLE ( 'NONE', #1145, 4.000000000000001776 ) ;
#126 = LINE ( 'NONE', #48, #860 ) ;
#127 = ADVANCED_FACE ( 'NONE', ( #205 ), #106, .F. ) ;
#128 = CARTESIAN_POINT ( 'NONE',  ( 9.422649730810414681, -2.000000000000000000, 2.000000000000001776 ) ) ;
#129 = ORIENTED_EDGE ( 'NONE', *, *, #543, .T. ) ;
#130 = FACE_OUTER_BOUND ( 'NONE', #1119, .T. ) ;
#131 = CYLINDRICAL_SURFACE ( 'NONE', #746, 2.000000000000000000 ) ;
#132 = FACE_OUTER_BOUND ( 'NONE', #1065, .T. ) ;
#133 = EDGE_CURVE ( 'NONE', #212, #96, #1032, .T. ) ;
#134 = ORIENTED_EDGE ( 'NONE', *, *, #1091, .T. ) ;
#135 = CYLINDRICAL_SURFACE ( 'NONE', #124, 20.00000000000000000 ) ;
#136 = CARTESIAN_POINT ( 'NONE',  ( 0.000000000000000000, 0.000000000000000000, 0.000000000000000000 ) ) ;
#137 = ORIENTED_EDGE ( 'NONE', *, *, #1012, .T. ) ;
#138 = DIRECTION ( 'NONE',  ( 0.000000000000000000, 0.000000000000000000, -1.000000000000000000 ) ) ;
#139 = VECTOR ( 'NONE', #655, 1000.000000000000000 ) ;
#140 = DIRECTION ( 'NONE',  ( 0.000000000000000000, 0.000000000000000000, -1.000000000000000000 ) ) ;
#141 = VERTEX_POINT ( 'NONE', #592 ) ;
#142 = CIRCLE ( 'NONE', #1002, 2.000000000000000444 ) ;
#143 = VECTOR ( 'NONE', #722, 1000.000000000000000 ) ;
#144 = CARTESIAN_POINT ( 'NONE',  ( -9.422649730810411128, -1.999999999999998224, 2.000000000000001776 ) ) ;
#145 = VECTOR ( 'NONE', #607, 1000.000000000000114 ) ;
#146 = ORIENTED_EDGE ( 'NONE', *, *, #385, .F. ) ;
#147 = DIRECTION ( 'NONE',  ( -0.7249243033853789431, -0.6888285377082042915, 0.000000000000000000 ) ) ;
#148 = PRODUCT_DEFINITION_SHAPE ( 'NONE', 'NONE',  #292 ) ;
#149 = EDGE_CURVE ( 'NONE', #34, #337, #953, .T. ) ;
#150 = CARTESIAN_POINT ( 'NONE',  ( -10.00000000000000000, -35.00000000000000000, 45.00000000000000000 ) ) ;
#151 = DIRECTION ( 'NONE',  ( -1.000000000000000000, -0.000000000000000000, -0.000000000000000000 ) ) ;
#152 = VERTEX_POINT ( 'NONE', #841 ) ;
#153 = PLANE ( 'NONE',  #218 ) ;
#154 = DIRECTION ( 'NONE',  ( -0.8660254037844373753, 0.5000000000000021094, 0.000000000000000000 ) ) ;
#155 = EDGE_CURVE ( 'NONE', #540, #41, #787, .T. ) ;
#156 = DIRECTION ( 'NONE',  ( 1.000000000000000000, 0.000000000000000000, 0.000000000000000000 ) ) ;
#157 = EDGE_LOOP ( 'NONE', ( #146, #1140, #939, #1131 ) ) ;
#158 = CYLINDRICAL_SURFACE ( 'NONE', #375, 12.00000000000000000 ) ;
#159 = COLOUR_RGB ( '',0.7921568627450980005, 0.8196078431372548767, 0.9333333333333333481 ) ;
#160 = AXIS2_PLACEMENT_3D ( 'NONE', #482, #94, #539 ) ;
#161 = EDGE_CURVE ( 'NONE', #886, #638, #1134, .T. ) ;
#162 = CIRCLE ( 'NONE', #198, 2.000000000000000000 ) ;
#163 = CARTESIAN_POINT ( 'NONE',  ( 10.00000000000000355, -35.00000000000002132, 0.000000000000000000 ) ) ;
#164 = CARTESIAN_POINT ( 'NONE',  ( 9.422649730810414681, -11.99999999999999645, 0.000000000000000000 ) ) ;
#165 = EDGE_CURVE ( 'NONE', #654, #892, #126, .T. ) ;
#166 = ORIENTED_EDGE ( 'NONE', *, *, #286, .F. ) ;
#167 = DIRECTION ( 'NONE',  ( 0.000000000000000000, -0.000000000000000000, 1.000000000000000000 ) ) ;
#168 = LINE ( 'NONE', #757, #668 ) ;
#169 = DIRECTION ( 'NONE',  ( -0.8660254037844384856, 0.5000000000000004441, 0.000000000000000000 ) ) ;
#170 = ORIENTED_EDGE ( 'NONE', *, *, #781, .T. ) ;
#171 = FACE_BOUND ( 'NONE', #1018, .T. ) ;
#172 = AXIS2_PLACEMENT_3D ( 'NONE', #378, #103, #190 ) ;
#173 = DIRECTION ( 'NONE',  ( -0.000000000000000000, -0.000000000000000000, 1.000000000000000000 ) ) ;
#174 = EDGE_LOOP ( 'NONE', ( #897, #754, #1158, #705 ) ) ;
#175 = AXIS2_PLACEMENT_3D ( 'NONE', #574, #760, #477 ) ;
#176 = AXIS2_PLACEMENT_3D ( 'NONE', #164, #891, #252 ) ;
#177 = CIRCLE ( 'NONE', #58, 2.000000000000000000 ) ;
#178 = DIRECTION ( 'NONE',  ( -1.000000000000000000, -0.000000000000000000, -0.000000000000000000 ) ) ;
#179 = ADVANCED_FACE ( 'NONE', ( #412 ), #1143, .F. ) ;
#180 = ORIENTED_EDGE ( 'NONE', *, *, #270, .T. ) ;
#181 = FACE_OUTER_BOUND ( 'NONE', #348, .T. ) ;
#182 = CARTESIAN_POINT ( 'NONE',  ( -0.9228553599670181740, -8.365088278966183566, 45.00000000000000000 ) ) ;
#183 = CARTESIAN_POINT ( 'NONE',  ( -9.422649730810411128, -1.999999999999999556, 0.000000000000000000 ) ) ;
#184 = VERTEX_POINT ( 'NONE', #659 ) ;
#185 = EDGE_CURVE ( 'NONE', #414, #1123, #466, .T. ) ;
#186 = DIRECTION ( 'NONE',  ( -1.000000000000000000, 0.000000000000000000, 0.000000000000000000 ) ) ;
#187 = DIRECTION ( 'NONE',  ( -0.5735764363510414965, -0.8191520442889950182, 0.000000000000000000 ) ) ;
#188 = UNCERTAINTY_MEASURE_WITH_UNIT (LENGTH_MEASURE( 1.000000000000000082E-05 ), #1144, 'distance_accuracy_value', 'NONE');
#189 = LINE ( 'NONE', #1124, #1048 ) ;
#190 = DIRECTION ( 'NONE',  ( 1.000000000000000000, -8.673617379884035472E-16, 0.000000000000000000 ) ) ;
#191 = ORIENTED_EDGE ( 'NONE', *, *, #535, .F. ) ;
#192 = VERTEX_POINT ( 'NONE', #1015 ) ;
#193 = CARTESIAN_POINT ( 'NONE',  ( -9.422649730810411128, -11.99999999999999822, 2.000000000000001776 ) ) ;
#194 = DIRECTION ( 'NONE',  ( 0.8191520442889947962, 0.5735764363510417185, -0.000000000000000000 ) ) ;
#195 = EDGE_CURVE ( 'NONE', #488, #731, #848, .T. ) ;
#196 = CIRCLE ( 'NONE', #335, 6.999999999999988454 ) ;
#197 = ORIENTED_EDGE ( 'NONE', *, *, #628, .F. ) ;
#198 = AXIS2_PLACEMENT_3D ( 'NONE', #973, #1074, #229 ) ;
#199 = AXIS2_PLACEMENT_3D ( 'NONE', #1177, #433, #347 ) ;
#200 = DIRECTION ( 'NONE',  ( -1.000000000000000000, 0.000000000000000000, 0.000000000000000000 ) ) ;
#201 = CIRCLE ( 'NONE', #825, 12.00000000000000000 ) ;
#202 = CARTESIAN_POINT ( 'NONE',  ( -29.59317691008183360, -28.44026355125264516, -5.000000000000000000 ) ) ;
#203 = ORIENTED_EDGE ( 'NONE', *, *, #584, .F. ) ;
#204 = DIRECTION ( 'NONE',  ( -0.5735764363510416075, -0.8191520442889949072, 0.000000000000000000 ) ) ;
#205 = FACE_OUTER_BOUND ( 'NONE', #506, .T. ) ;
#206 = FACE_OUTER_BOUND ( 'NONE', #480, .T. ) ;
#207 = ORIENTED_EDGE ( 'NONE', *, *, #279, .T. ) ;
#208 = LINE ( 'NONE', #46, #472 ) ;
#209 = DIRECTION ( 'NONE',  ( 0.000000000000000000, 0.000000000000000000, -1.000000000000000000 ) ) ;
#210 = ADVANCED_FACE ( 'NONE', ( #626 ), #900, .F. ) ;
#211 = CARTESIAN_POINT ( 'NONE',  ( -10.68181426984947890, -35.00000000000000000, 0.06578696071946658896 ) ) ;
#212 = VERTEX_POINT ( 'NONE', #633 ) ;
#213 = ORIENTED_EDGE ( 'NONE', *, *, #946, .T. ) ;
#214 = CARTESIAN_POINT ( 'NONE',  ( 9.999999999999996447, -31.00000000000002842, 0.000000000000000000 ) ) ;
#215 = CIRCLE ( 'NONE', #172, 12.00000000000000000 ) ;
#216 = AXIS2_PLACEMENT_3D ( 'NONE', #831, #360, #920 ) ;
#217 = LINE ( 'NONE', #978, #767 ) ;
#218 = AXIS2_PLACEMENT_3D ( 'NONE', #69, #147, #1162 ) ;
#219 = EDGE_CURVE ( 'NONE', #184, #1059, #11, .T. ) ;
#220 = APPLICATION_PROTOCOL_DEFINITION ( 'draft international standard', 'automotive_design', 1998, #538 ) ;
#221 =( GEOMETRIC_REPRESENTATION_CONTEXT ( 3 ) GLOBAL_UNCERTAINTY_ASSIGNED_CONTEXT ( ( #188 ) ) GLOBAL_UNIT_ASSIGNED_CONTEXT ( ( #1144, #114, #486 ) ) REPRESENTATION_CONTEXT ( 'NONE', 'WORKASPACE' ) );
#222 = LINE ( 'NONE', #491, #314 ) ;
#223 = ORIENTED_EDGE ( 'NONE', *, *, #315, .T. ) ;
#224 = CARTESIAN_POINT ( 'NONE',  ( 3.089976191583687637E-15, 24.99999999999999289, 26.99999999999998934 ) ) ;
#225 = DIRECTION ( 'NONE',  ( 1.000000000000000000, 0.000000000000000000, 0.000000000000000000 ) ) ;
#226 = CARTESIAN_POINT ( 'NONE',  ( -12.47070976015644739, -35.00000000000000000, 1.054701182818196470 ) ) ;
#227 = VERTEX_POINT ( 'NONE', #1096 ) ;
#228 = CARTESIAN_POINT ( 'NONE',  ( -13.46410161513776238, -35.00000000000000000, 2.000000000000001776 ) ) ;
#229 = DIRECTION ( 'NONE',  ( 1.000000000000000000, 0.000000000000000000, 0.000000000000000000 ) ) ;
#230 = ORIENTED_EDGE ( 'NONE', *, *, #117, .T. ) ;
#231 = CARTESIAN_POINT ( 'NONE',  ( -9.422649730810411128, 3.830875953839375356E-17, 0.000000000000000000 ) ) ;
#232 = EDGE_CURVE ( 'NONE', #1101, #829, #383, .T. ) ;
#233 = ORIENTED_EDGE ( 'NONE', *, *, #44, .T. ) ;
#234 = DIRECTION ( 'NONE',  ( -0.000000000000000000, 1.000000000000000000, -0.000000000000000000 ) ) ;
#235 = CARTESIAN_POINT ( 'NONE',  ( 25.59716998747449068, -34.14715287270210808, -5.000000000000000000 ) ) ;
#236 = DIRECTION ( 'NONE',  ( 0.000000000000000000, 0.000000000000000000, 1.000000000000000000 ) ) ;
#237 = AXIS2_PLACEMENT_3D ( 'NONE', #958, #328, #1053 ) ;
#238 = VECTOR ( 'NONE', #40, 1000.000000000000000 ) ;
#239 = LINE ( 'NONE', #324, #791 ) ;
#240 = TOROIDAL_SURFACE ( 'NONE', #864, 10.00000000000000000, 2.000000000000000000 ) ;
#241 = ORIENTED_EDGE ( 'NONE', *, *, #922, .F. ) ;
#242 = CARTESIAN_POINT ( 'NONE',  ( 13.46410161513775883, -33.00000000000001421, 2.000000000000001776 ) ) ;
#243 = EDGE_CURVE ( 'NONE', #540, #325, #1026, .T. ) ;
#244 = CARTESIAN_POINT ( 'NONE',  ( 18.08290376865479132, -17.00000000000001776, 0.000000000000000000 ) ) ;
#245 = ORIENTED_EDGE ( 'NONE', *, *, #19, .T. ) ;
#246 = LINE ( 'NONE', #623, #971 ) ;
#247 = VERTEX_POINT ( 'NONE', #935 ) ;
#248 = DIRECTION ( 'NONE',  ( 0.6888285377082042915, 0.7249243033853789431, 0.000000000000000000 ) ) ;
#249 = VERTEX_POINT ( 'NONE', #271 ) ;
#250 = ORIENTED_EDGE ( 'NONE', *, *, #755, .T. ) ;
#251 = ADVANCED_FACE ( 'NONE', ( #118 ), #1003, .F. ) ;
#252 = DIRECTION ( 'NONE',  ( -1.000000000000000000, 8.673617379884035472E-16, 0.000000000000000000 ) ) ;
#253 = ORIENTED_EDGE ( 'NONE', *, *, #1020, .F. ) ;
#254 = DIRECTION ( 'NONE',  ( 0.8660254037844381525, 0.5000000000000007772, 0.000000000000000000 ) ) ;
#255 = ORIENTED_EDGE ( 'NONE', *, *, #149, .F. ) ;
#256 = EDGE_CURVE ( 'NONE', #192, #1082, #1024, .T. ) ;
#257 = AXIS2_PLACEMENT_3D ( 'NONE', #911, #1110, #169 ) ;
#258 = CARTESIAN_POINT ( 'NONE',  ( 29.59317691008183715, -28.44026355125264871, 45.00000000000000000 ) ) ;
#259 = AXIS2_PLACEMENT_3D ( 'NONE', #1038, #417, #410 ) ;
#260 = AXIS2_PLACEMENT_3D ( 'NONE', #966, #903, #78 ) ;
#261 = ORIENTED_EDGE ( 'NONE', *, *, #955, .T. ) ;
#262 = VERTEX_POINT ( 'NONE', #665 ) ;
#263 = DIRECTION ( 'NONE',  ( -1.000000000000000000, 0.000000000000000000, 0.000000000000000000 ) ) ;
#264 = FACE_OUTER_BOUND ( 'NONE', #983, .T. ) ;
#265 = EDGE_LOOP ( 'NONE', ( #741, #456, #116, #830 ) ) ;
#266 = ORIENTED_EDGE ( 'NONE', *, *, #52, .T. ) ;
#267 = CARTESIAN_POINT ( 'NONE',  ( 3.089976191583687637E-15, 24.99999999999999289, 20.00000000000000000 ) ) ;
#268 = DIRECTION ( 'NONE',  ( -1.000000000000000000, 0.000000000000000000, 0.000000000000000000 ) ) ;
#269 = ORIENTED_EDGE ( 'NONE', *, *, #928, .T. ) ;
#270 = EDGE_CURVE ( 'NONE', #699, #886, #808, .T. ) ;
#271 = CARTESIAN_POINT ( 'NONE',  ( -25.59716998747449068, -34.14715287270207966, -5.000000000000000000 ) ) ;
#272 = DIRECTION ( 'NONE',  ( 0.000000000000000000, 0.000000000000000000, 1.000000000000000000 ) ) ;
#273 = VECTOR ( 'NONE', #1035, 1000.000000000000000 ) ;
#274 = CARTESIAN_POINT ( 'NONE',  ( -46.00622614629106266, -4.999999999999993783, 45.00000000000000000 ) ) ;
#275 = ORIENTED_EDGE ( 'NONE', *, *, #404, .F. ) ;
#276 = AXIS2_PLACEMENT_3D ( 'NONE', #742, #462, #391 ) ;
#277 = AXIS2_PLACEMENT_3D ( 'NONE', #242, #977, #516 ) ;
#278 = EDGE_LOOP ( 'NONE', ( #821, #75, #1076, #170 ) ) ;
#279 = EDGE_CURVE ( 'NONE', #524, #337, #125, .T. ) ;
#280 = DIRECTION ( 'NONE',  ( -0.000000000000000000, -0.000000000000000000, 1.000000000000000000 ) ) ;
#281 = ORIENTED_EDGE ( 'NONE', *, *, #755, .F. ) ;
#282 = CARTESIAN_POINT ( 'NONE',  ( 8.915063315200429273, 24.99999999999999289, -5.000000000000000000 ) ) ;
#283 = ORIENTED_EDGE ( 'NONE', *, *, #1047, .F. ) ;
#284 = CARTESIAN_POINT ( 'NONE',  ( 12.47068947225152868, -35.00000000000002132, 1.054684142241384404 ) ) ;
#285 = EDGE_LOOP ( 'NONE', ( #872, #166, #1023, #1016 ) ) ;
#286 = EDGE_CURVE ( 'NONE', #34, #697, #36, .T. ) ;
#287 = DIRECTION ( 'NONE',  ( 0.000000000000000000, 0.000000000000000000, -1.000000000000000000 ) ) ;
#288 = FACE_OUTER_BOUND ( 'NONE', #986, .T. ) ;
#289 = VERTEX_POINT ( 'NONE', #467 ) ;
#290 = DIRECTION ( 'NONE',  ( -0.8191520442889949072, 0.5735764363510416075, 0.000000000000000000 ) ) ;
#291 = CARTESIAN_POINT ( 'NONE',  ( -13.46410161513776593, -35.00000000000000000, 45.00000000000000000 ) ) ;
#292 = PRODUCT_DEFINITION ( 'UNKNOWN', '', #496, #558 ) ;
#293 = DIRECTION ( 'NONE',  ( 0.000000000000000000, 0.000000000000000000, -1.000000000000000000 ) ) ;
#294 = VECTOR ( 'NONE', #432, 1000.000000000000000 ) ;
#295 = ORIENTED_EDGE ( 'NONE', *, *, #1061, .F. ) ;
#296 = AXIS2_PLACEMENT_3D ( 'NONE', #1146, #576, #510 ) ;
#297 = DIRECTION ( 'NONE',  ( -0.000000000000000000, -0.000000000000000000, 1.000000000000000000 ) ) ;
#298 = SURFACE_SIDE_STYLE ('',( #1044 ) ) ;
#299 = DIRECTION ( 'NONE',  ( 0.000000000000000000, 0.000000000000000000, 1.000000000000000000 ) ) ;
#300 = ORIENTED_EDGE ( 'NONE', *, *, #243, .T. ) ;
#301 = DIRECTION ( 'NONE',  ( -0.6888285377082042915, 0.7249243033853789431, -0.000000000000000000 ) ) ;
#302 = DIRECTION ( 'NONE',  ( 0.5000000000000012212, -0.8660254037844379305, 0.000000000000000000 ) ) ;
#303 = CARTESIAN_POINT ( 'NONE',  ( -11.63404138882314776, -35.00000000000000000, 0.4572258730388041870 ) ) ;
#304 = ORIENTED_EDGE ( 'NONE', *, *, #1012, .F. ) ;
#305 = EDGE_CURVE ( 'NONE', #141, #999, #189, .T. ) ;
#306 = CARTESIAN_POINT ( 'NONE',  ( -19.81495457622367340, -18.00000000000000355, 2.000000000000001776 ) ) ;
#307 = DIRECTION ( 'NONE',  ( 0.000000000000000000, 0.000000000000000000, -1.000000000000000000 ) ) ;
#308 = ORIENTED_EDGE ( 'NONE', *, *, #428, .F. ) ;
#309 = CYLINDRICAL_SURFACE ( 'NONE', #259, 1.999999999999998224 ) ;
#310 = AXIS2_PLACEMENT_3D ( 'NONE', #1025, #361, #200 ) ;
#311 = AXIS2_PLACEMENT_3D ( 'NONE', #604, #489, #944 ) ;
#312 = CARTESIAN_POINT ( 'NONE',  ( -25.00000000000000000, -34.99999999999999289, 45.00000000000000000 ) ) ;
#313 = CARTESIAN_POINT ( 'NONE',  ( -10.00000000000000000, -35.00000000000000000, 45.00000000000000000 ) ) ;
#314 = VECTOR ( 'NONE', #403, 999.9999999999997726 ) ;
#315 = EDGE_CURVE ( 'NONE', #832, #362, #673, .T. ) ;
#316 = SHAPE_DEFINITION_REPRESENTATION ( #148, #887 ) ;
#317 = CARTESIAN_POINT ( 'NONE',  ( -10.34665366658978769, -35.00000000000000711, 2.286988957586610299E-17 ) ) ;
#318 = ORIENTED_EDGE ( 'NONE', *, *, #543, .F. ) ;
#319 = DIRECTION ( 'NONE',  ( -0.000000000000000000, 0.000000000000000000, 1.000000000000000000 ) ) ;
#320 = FACE_BOUND ( 'NONE', #720, .T. ) ;
#321 = DIRECTION ( 'NONE',  ( 0.000000000000000000, 0.000000000000000000, 1.000000000000000000 ) ) ;
#322 = ORIENTED_EDGE ( 'NONE', *, *, #133, .T. ) ;
#323 = EDGE_CURVE ( 'NONE', #638, #289, #861, .T. ) ;
#324 = CARTESIAN_POINT ( 'NONE',  ( -17.50000000000000000, 24.99999999999999289, 45.00000000000000000 ) ) ;
#325 = VERTEX_POINT ( 'NONE', #559 ) ;
#326 = CARTESIAN_POINT ( 'NONE',  ( 3.089976191583687637E-15, 24.99999999999999289, 20.00000000000000000 ) ) ;
#327 = CARTESIAN_POINT ( 'NONE',  ( 11.33325805280760612, -35.00000000000001421, 0.2969716501143917498 ) ) ;
#328 = DIRECTION ( 'NONE',  ( -0.000000000000000000, -0.000000000000000000, 1.000000000000000000 ) ) ;
#329 = VERTEX_POINT ( 'NONE', #551 ) ;
#330 = DIRECTION ( 'NONE',  ( -0.000000000000000000, -0.000000000000000000, 1.000000000000000000 ) ) ;
#331 = EDGE_LOOP ( 'NONE', ( #16, #646, #342, #519 ) ) ;
#332 = FACE_OUTER_BOUND ( 'NONE', #544, .T. ) ;
#333 = CLOSED_SHELL ( 'NONE', ( #834, #941, #1054, #1078, #752, #715, #251, #704, #376, #751, #490, #671, #179, #1083, #513, #1174, #692, #766, #1136, #100, #896, #629, #365, #776, #339, #1113, #601, #127, #210, #420, #449, #641, #984, #798, #357, #66 ) ) ;
#334 = CARTESIAN_POINT ( 'NONE',  ( 9.422649730810414681, -11.99999999999999645, 2.000000000000001776 ) ) ;
#335 = AXIS2_PLACEMENT_3D ( 'NONE', #870, #427, #321 ) ;
#336 = DIRECTION ( 'NONE',  ( 0.000000000000000000, 0.000000000000000000, 1.000000000000000000 ) ) ;
#337 = VERTEX_POINT ( 'NONE', #940 ) ;
#338 = DIRECTION ( 'NONE',  ( 0.000000000000000000, 0.000000000000000000, -1.000000000000000000 ) ) ;
#339 = ADVANCED_FACE ( 'NONE', ( #377 ), #753, .F. ) ;
#340 = ORIENTED_EDGE ( 'NONE', *, *, #1103, .T. ) ;
#341 = DIRECTION ( 'NONE',  ( -1.000000000000000000, 0.000000000000000000, 0.000000000000000000 ) ) ;
#342 = ORIENTED_EDGE ( 'NONE', *, *, #19, .F. ) ;
#343 = EDGE_CURVE ( 'NONE', #1059, #34, #876, .T. ) ;
#344 = DIRECTION ( 'NONE',  ( 0.5000000000000013323, -0.8660254037844379305, 0.000000000000000000 ) ) ;
#345 = ORIENTED_EDGE ( 'NONE', *, *, #32, .F. ) ;
#346 = VERTEX_POINT ( 'NONE', #214 ) ;
#347 = DIRECTION ( 'NONE',  ( -0.8660254037844379305, 0.5000000000000014433, 0.000000000000000000 ) ) ;
#348 = EDGE_LOOP ( 'NONE', ( #709, #664, #991, #304 ) ) ;
#349 = AXIS2_PLACEMENT_3D ( 'NONE', #645, #354, #534 ) ;
#350 = CIRCLE ( 'NONE', #237, 2.000000000000000000 ) ;
#351 = DIRECTION ( 'NONE',  ( 0.000000000000000000, 0.000000000000000000, 1.000000000000000000 ) ) ;
#352 = CIRCLE ( 'NONE', #1127, 12.00000000000000000 ) ;
#353 = CYLINDRICAL_SURFACE ( 'NONE', #73, 2.000000000000000000 ) ;
#354 = DIRECTION ( 'NONE',  ( 0.000000000000000000, 0.000000000000000000, -1.000000000000000000 ) ) ;
#355 = ORIENTED_EDGE ( 'NONE', *, *, #323, .F. ) ;
#356 = DIRECTION ( 'NONE',  ( 0.8660254037844373753, 0.5000000000000021094, 0.000000000000000000 ) ) ;
#357 = ADVANCED_FACE ( 'NONE', ( #952 ), #701, .T. ) ;
#358 = CARTESIAN_POINT ( 'NONE',  ( 9.422649730810414681, 3.830875953839375356E-17, 45.00000000000000000 ) ) ;
#359 = ORIENTED_EDGE ( 'NONE', *, *, #475, .F. ) ;
#360 = DIRECTION ( 'NONE',  ( -0.000000000000000000, 0.000000000000000000, 1.000000000000000000 ) ) ;
#361 = DIRECTION ( 'NONE',  ( -0.000000000000000000, -0.000000000000000000, 1.000000000000000000 ) ) ;
#362 = VERTEX_POINT ( 'NONE', #235 ) ;
#363 = DIRECTION ( 'NONE',  ( -0.000000000000000000, -0.000000000000000000, 1.000000000000000000 ) ) ;
#364 = CARTESIAN_POINT ( 'NONE',  ( 11.46410161513775883, -33.00000000000001421, 45.00000000000000000 ) ) ;
#365 = ADVANCED_FACE ( 'NONE', ( #130 ), #309, .T. ) ;
#366 = EDGE_LOOP ( 'NONE', ( #255, #589, #460, #622, #388, #849, #121, #1155, #865, #207 ) ) ;
#367 = DIRECTION ( 'NONE',  ( 1.000000000000000000, 0.000000000000000000, 0.000000000000000000 ) ) ;
#368 = EDGE_LOOP ( 'NONE', ( #318, #442, #661, #743 ) ) ;
#369 = CARTESIAN_POINT ( 'NONE',  ( -9.422649730810411128, -11.99999999999999822, 45.00000000000000000 ) ) ;
#370 = CIRCLE ( 'NONE', #257, 2.000000000000000000 ) ;
#371 = DIRECTION ( 'NONE',  ( 0.000000000000000000, 0.000000000000000000, -1.000000000000000000 ) ) ;
#372 = CIRCLE ( 'NONE', #570, 35.00000000000000000 ) ;
#373 = ORIENTED_EDGE ( 'NONE', *, *, #219, .T. ) ;
#374 = UNCERTAINTY_MEASURE_WITH_UNIT (LENGTH_MEASURE( 1.000000000000000082E-05 ), #783, 'distance_accuracy_value', 'NONE');
#375 = AXIS2_PLACEMENT_3D ( 'NONE', #603, #319, #700 ) ;
#376 = ADVANCED_FACE ( 'NONE', ( #320, #972 ), #1057, .F. ) ;
#377 = FACE_OUTER_BOUND ( 'NONE', #59, .T. ) ;
#378 = CARTESIAN_POINT ( 'NONE',  ( 9.422649730810414681, -11.99999999999999645, 45.00000000000000000 ) ) ;
#379 = DIRECTION ( 'NONE',  ( 0.000000000000000000, 0.000000000000000000, -1.000000000000000000 ) ) ;
#380 = CARTESIAN_POINT ( 'NONE',  ( -30.20725942163697653, -1.999999999999999556, 2.000000000000001776 ) ) ;
#381 = CARTESIAN_POINT ( 'NONE',  ( -10.00000000000000000, -35.00000000000000000, 0.000000000000000000 ) ) ;
#382 = ORIENTED_EDGE ( 'NONE', *, *, #465, .F. ) ;
#383 = LINE ( 'NONE', #183, #1087 ) ;
#384 = LINE ( 'NONE', #91, #1000 ) ;
#385 = EDGE_CURVE ( 'NONE', #499, #184, #724, .T. ) ;
#386 = ORIENTED_EDGE ( 'NONE', *, *, #80, .T. ) ;
#387 = LINE ( 'NONE', #150, #23 ) ;
#388 = ORIENTED_EDGE ( 'NONE', *, *, #914, .T. ) ;
#389 = ORIENTED_EDGE ( 'NONE', *, *, #458, .T. ) ;
#390 = ORIENTED_EDGE ( 'NONE', *, *, #92, .T. ) ;
#391 = DIRECTION ( 'NONE',  ( -1.000000000000000000, 0.000000000000000000, 0.000000000000000000 ) ) ;
#392 = DIRECTION ( 'NONE',  ( 0.000000000000000000, 0.000000000000000000, -1.000000000000000000 ) ) ;
#393 = PRODUCT_CONTEXT ( 'NONE', #538, 'mechanical' ) ;
#394 = CARTESIAN_POINT ( 'NONE',  ( -10.00000000000001066, -30.99999999999999645, 0.000000000000000000 ) ) ;
#395 = CIRCLE ( 'NONE', #310, 2.000000000000000000 ) ;
#396 = ORIENTED_EDGE ( 'NONE', *, *, #804, .F. ) ;
#397 = AXIS2_PLACEMENT_3D ( 'NONE', #792, #507, #782 ) ;
#398 = ORIENTED_EDGE ( 'NONE', *, *, #72, .T. ) ;
#399 = AXIS2_PLACEMENT_3D ( 'NONE', #801, #1150, #248 ) ;
#400 = LINE ( 'NONE', #772, #707 ) ;
#401 = CIRCLE ( 'NONE', #636, 12.00000000000000000 ) ;
#402 = CARTESIAN_POINT ( 'NONE',  ( -8.915063315200429273, 24.99999999999999289, -5.000000000000000000 ) ) ;
#403 = DIRECTION ( 'NONE',  ( -0.5000000000000013323, -0.8660254037844380415, 0.000000000000000000 ) ) ;
#404 = EDGE_CURVE ( 'NONE', #325, #405, #400, .T. ) ;
#405 = VERTEX_POINT ( 'NONE', #869 ) ;
#406 = FILL_AREA_STYLE ('',( #648 ) ) ;
#407 = CARTESIAN_POINT ( 'NONE',  ( -11.33327014040499492, -35.00000000000000000, 0.2969769917283706651 ) ) ;
#408 = EDGE_CURVE ( 'NONE', #123, #262, #208, .T. ) ;
#409 = VERTEX_POINT ( 'NONE', #569 ) ;
#410 = DIRECTION ( 'NONE',  ( -1.000000000000000000, 0.000000000000000000, 0.000000000000000000 ) ) ;
#411 = FACE_OUTER_BOUND ( 'NONE', #1171, .T. ) ;
#412 = FACE_OUTER_BOUND ( 'NONE', #631, .T. ) ;
#413 = CARTESIAN_POINT ( 'NONE',  ( -10.00000000000000711, -35.00000000000000000, 0.000000000000000000 ) ) ;
#414 = VERTEX_POINT ( 'NONE', #1007 ) ;
#415 =( GEOMETRIC_REPRESENTATION_CONTEXT ( 3 ) GLOBAL_UNCERTAINTY_ASSIGNED_CONTEXT ( ( #374 ) ) GLOBAL_UNIT_ASSIGNED_CONTEXT ( ( #783, #773, #678 ) ) REPRESENTATION_CONTEXT ( 'NONE', 'WORKASPACE' ) );
#416 = DIRECTION ( 'NONE',  ( 0.8660254037844384856, 0.5000000000000004441, 0.000000000000000000 ) ) ;
#417 = DIRECTION ( 'NONE',  ( 0.000000000000000000, 0.000000000000000000, -1.000000000000000000 ) ) ;
#418 = CIRCLE ( 'NONE', #349, 20.00000000000000000 ) ;
#419 = AXIS2_PLACEMENT_3D ( 'NONE', #4, #729, #464 ) ;
#420 = ADVANCED_FACE ( 'NONE', ( #652 ), #527, .F. ) ;
#421 = FACE_OUTER_BOUND ( 'NONE', #1036, .T. ) ;
#422 = CIRCLE ( 'NONE', #277, 2.000000000000000000 ) ;
#423 = AXIS2_PLACEMENT_3D ( 'NONE', #119, #481, #680 ) ;
#424 = CARTESIAN_POINT ( 'NONE',  ( -12.20313516226515560, -35.00000000000000711, 0.8357826620109966020 ) ) ;
#425 = ORIENTED_EDGE ( 'NONE', *, *, #149, .T. ) ;
#426 = PLANE ( 'NONE',  #1027 ) ;
#427 = DIRECTION ( 'NONE',  ( 0.000000000000000000, 1.000000000000000000, 0.000000000000000000 ) ) ;
#428 = EDGE_CURVE ( 'NONE', #832, #699, #168, .T. ) ;
#429 = DIRECTION ( 'NONE',  ( 0.000000000000000000, 0.000000000000000000, -1.000000000000000000 ) ) ;
#430 = ORIENTED_EDGE ( 'NONE', *, *, #721, .T. ) ;
#431 = FACE_OUTER_BOUND ( 'NONE', #713, .T. ) ;
#432 = DIRECTION ( 'NONE',  ( -0.000000000000000000, -0.000000000000000000, 1.000000000000000000 ) ) ;
#433 = DIRECTION ( 'NONE',  ( 0.5000000000000013323, 0.8660254037844379305, 0.000000000000000000 ) ) ;
#434 = ORIENTED_EDGE ( 'NONE', *, *, #428, .T. ) ;
#435 = CARTESIAN_POINT ( 'NONE',  ( 13.46410161513775883, -33.00000000000001421, 45.00000000000000000 ) ) ;
#436 = AXIS2_PLACEMENT_3D ( 'NONE', #1109, #371, #924 ) ;
#437 = AXIS2_PLACEMENT_3D ( 'NONE', #136, #862, #959 ) ;
#438 = CARTESIAN_POINT ( 'NONE',  ( 19.81495457622366985, -18.00000000000001421, 2.000000000000001776 ) ) ;
#439 = CIRCLE ( 'NONE', #1128, 6.999999999999988454 ) ;
#440 = EDGE_CURVE ( 'NONE', #852, #1111, #899, .T. ) ;
#441 = VERTEX_POINT ( 'NONE', #87 ) ;
#442 = ORIENTED_EDGE ( 'NONE', *, *, #305, .F. ) ;
#443 = CARTESIAN_POINT ( 'NONE',  ( -0.9228553599670181740, -8.365088278966183566, 45.00000000000000000 ) ) ;
#444 = LINE ( 'NONE', #816, #20 ) ;
#445 = CARTESIAN_POINT ( 'NONE',  ( -9.422649730810411128, -11.99999999999999822, 2.000000000000001776 ) ) ;
#446 = PRODUCT ( 'Gripper', 'Gripper', '', ( #393 ) ) ;
#447 = DIRECTION ( 'NONE',  ( -0.6888285377082042915, -0.7249243033853789431, 0.000000000000000000 ) ) ;
#448 = EDGE_LOOP ( 'NONE', ( #840, #233, #345, #824 ) ) ;
#449 = ADVANCED_FACE ( 'NONE', ( #264 ), #353, .F. ) ;
#450 = AXIS2_PLACEMENT_3D ( 'NONE', #104, #826, #774 ) ;
#451 = CIRCLE ( 'NONE', #877, 1.999999999999998224 ) ;
#452 = PLANE ( 'NONE',  #1051 ) ;
#453 = CIRCLE ( 'NONE', #913, 20.00000000000000000 ) ;
#454 = CIRCLE ( 'NONE', #616, 1.999999999999998224 ) ;
#455 = ORIENTED_EDGE ( 'NONE', *, *, #684, .T. ) ;
#456 = ORIENTED_EDGE ( 'NONE', *, *, #781, .F. ) ;
#457 = ORIENTED_EDGE ( 'NONE', *, *, #1103, .F. ) ;
#458 = EDGE_CURVE ( 'NONE', #10, #677, #372, .T. ) ;
#459 = DIRECTION ( 'NONE',  ( 0.5000000000000021094, -0.8660254037844374864, 0.000000000000000000 ) ) ;
#460 = ORIENTED_EDGE ( 'NONE', *, *, #1020, .T. ) ;
#461 = ORIENTED_EDGE ( 'NONE', *, *, #960, .T. ) ;
#462 = DIRECTION ( 'NONE',  ( 0.000000000000000000, 0.000000000000000000, -1.000000000000000000 ) ) ;
#463 = CYLINDRICAL_SURFACE ( 'NONE', #1028, 12.00000000000000000 ) ;
#464 = DIRECTION ( 'NONE',  ( 1.000000000000000000, 0.000000000000000000, 0.000000000000000000 ) ) ;
#465 = EDGE_CURVE ( 'NONE', #289, #362, #1021, .T. ) ;
#466 = LINE ( 'NONE', #1022, #273 ) ;
#467 = CARTESIAN_POINT ( 'NONE',  ( 29.59317691008184070, -28.44026355125265226, -5.000000000000000000 ) ) ;
#468 = CARTESIAN_POINT ( 'NONE',  ( 8.915063315200429273, 24.99999999999999289, 45.00000000000000000 ) ) ;
#469 = ORIENTED_EDGE ( 'NONE', *, *, #856, .F. ) ;
#470 = DIRECTION ( 'NONE',  ( -0.000000000000000000, 1.000000000000000000, -0.000000000000000000 ) ) ;
#471 = DIRECTION ( 'NONE',  ( 0.5735764363510416075, 0.8191520442889949072, -0.000000000000000000 ) ) ;
#472 = VECTOR ( 'NONE', #644, 1000.000000000000000 ) ;
#473 = ORIENTED_EDGE ( 'NONE', *, *, #839, .T. ) ;
#474 = CIRCLE ( 'NONE', #176, 10.00000000000000000 ) ;
#475 = EDGE_CURVE ( 'NONE', #152, #499, #89, .T. ) ;
#476 = ORIENTED_EDGE ( 'NONE', *, *, #270, .F. ) ;
#477 = DIRECTION ( 'NONE',  ( -1.000000000000000000, 0.000000000000000000, 0.000000000000000000 ) ) ;
#478 = DIRECTION ( 'NONE',  ( -1.000000000000000000, 0.000000000000000000, 0.000000000000000000 ) ) ;
#479 = EDGE_LOOP ( 'NONE', ( #1095, #926, #1055, #711 ) ) ;
#480 = EDGE_LOOP ( 'NONE', ( #552, #805, #837, #582 ) ) ;
#481 = DIRECTION ( 'NONE',  ( 0.000000000000000000, -0.000000000000000000, 1.000000000000000000 ) ) ;
#482 = CARTESIAN_POINT ( 'NONE',  ( 9.422649730810414681, -11.99999999999999645, 2.000000000000001776 ) ) ;
#483 = ORIENTED_EDGE ( 'NONE', *, *, #165, .T. ) ;
#484 = EDGE_LOOP ( 'NONE', ( #434, #180, #230, #1030, #269, #213, #961, #261, #389, #981, #908, #550, #1176, #606, #672, #934, #266, #642, #618, #27, #1079, #18, #129 ) ) ;
#485 = DIRECTION ( 'NONE',  ( -0.000000000000000000, 1.000000000000000000, -0.000000000000000000 ) ) ;
#486 =( NAMED_UNIT ( * ) SI_UNIT ( $, .STERADIAN. ) SOLID_ANGLE_UNIT ( ) );
#487 = CYLINDRICAL_SURFACE ( 'NONE', #1105, 2.000000000000000000 ) ;
#488 = VERTEX_POINT ( 'NONE', #663 ) ;
#489 = DIRECTION ( 'NONE',  ( 0.000000000000000000, -1.000000000000000000, 0.000000000000000000 ) ) ;
#490 = ADVANCED_FACE ( 'NONE', ( #288 ), #747, .F. ) ;
#491 = CARTESIAN_POINT ( 'NONE',  ( 11.73205080756887853, -32.00000000000002132, 2.000000000000001776 ) ) ;
#492 = PRESENTATION_LAYER_ASSIGNMENT (  '', '', ( #649 ) ) ;
#493 = AXIS2_PLACEMENT_3D ( 'NONE', #1117, #290, #204 ) ;
#494 = ORIENTED_EDGE ( 'NONE', *, *, #133, .F. ) ;
#495 = AXIS2_PLACEMENT_3D ( 'NONE', #443, #330, #906 ) ;
#496 = PRODUCT_DEFINITION_FORMATION_WITH_SPECIFIED_SOURCE ( 'ANY', '', #446, .NOT_KNOWN. ) ;
#497 = EDGE_CURVE ( 'NONE', #405, #734, #929, .T. ) ;
#498 = LINE ( 'NONE', #43, #110 ) ;
#499 = VERTEX_POINT ( 'NONE', #364 ) ;
#500 = DIRECTION ( 'NONE',  ( -0.000000000000000000, -0.000000000000000000, 1.000000000000000000 ) ) ;
#501 = PRESENTATION_STYLE_ASSIGNMENT (( #1138 ) ) ;
#502 = DIRECTION ( 'NONE',  ( 0.000000000000000000, 0.000000000000000000, -1.000000000000000000 ) ) ;
#503 = CARTESIAN_POINT ( 'NONE',  ( 26.29520597845528584, 15.74391054082096453, 45.00000000000000000 ) ) ;
#504 = DIRECTION ( 'NONE',  ( -1.000000000000000000, 0.000000000000000000, 0.000000000000000000 ) ) ;
#505 = EDGE_CURVE ( 'NONE', #8, #976, #1068, .T. ) ;
#506 = EDGE_LOOP ( 'NONE', ( #112, #1070, #541, #789 ) ) ;
#507 = DIRECTION ( 'NONE',  ( 0.000000000000000000, 0.000000000000000000, -1.000000000000000000 ) ) ;
#508 = DIRECTION ( 'NONE',  ( -1.000000000000000000, 0.000000000000000000, 0.000000000000000000 ) ) ;
#509 = CARTESIAN_POINT ( 'NONE',  ( 19.81495457622366985, -18.00000000000001421, 45.00000000000000000 ) ) ;
#510 = DIRECTION ( 'NONE',  ( -1.000000000000000000, 0.000000000000000000, 0.000000000000000000 ) ) ;
#511 = ORIENTED_EDGE ( 'NONE', *, *, #637, .T. ) ;
#512 = DIRECTION ( 'NONE',  ( 0.000000000000000000, 0.000000000000000000, -1.000000000000000000 ) ) ;
#513 = ADVANCED_FACE ( 'NONE', ( #1092 ), #640, .F. ) ;
#514 = DIRECTION ( 'NONE',  ( -1.000000000000000000, 4.625929269271486900E-16, 0.000000000000000000 ) ) ;
#515 = DIRECTION ( 'NONE',  ( -1.000000000000000000, 0.000000000000000000, 0.000000000000000000 ) ) ;
#516 = DIRECTION ( 'NONE',  ( -1.000000000000000000, -6.938893903907228378E-15, 0.000000000000000000 ) ) ;
#517 = DIRECTION ( 'NONE',  ( -1.000000000000000000, 0.000000000000000000, 0.000000000000000000 ) ) ;
#518 = FACE_OUTER_BOUND ( 'NONE', #331, .T. ) ;
#519 = ORIENTED_EDGE ( 'NONE', *, *, #890, .F. ) ;
#520 = CARTESIAN_POINT ( 'NONE',  ( 21.42264973081041290, -11.99999999999999645, 2.000000000000001776 ) ) ;
#521 = CARTESIAN_POINT ( 'NONE',  ( -26.29520597845528229, 15.74391054082096453, 45.00000000000000000 ) ) ;
#522 = EDGE_CURVE ( 'NONE', #405, #694, #910, .T. ) ;
#523 = DIRECTION ( 'NONE',  ( -1.000000000000000000, 9.251858538542971828E-16, 0.000000000000000000 ) ) ;
#524 = VERTEX_POINT ( 'NONE', #998 ) ;
#525 = CARTESIAN_POINT ( 'NONE',  ( 29.59317691008184070, -28.44026355125264516, 45.00000000000000000 ) ) ;
#526 = ORIENTED_EDGE ( 'NONE', *, *, #904, .F. ) ;
#527 = TOROIDAL_SURFACE ( 'NONE', #436, 10.00000000000000000, 2.000000000000000000 ) ;
#528 = VECTOR ( 'NONE', #1029, 1000.000000000000000 ) ;
#529 = DIRECTION ( 'NONE',  ( 1.000000000000000000, 0.000000000000000000, 0.000000000000000000 ) ) ;
#530 = EDGE_CURVE ( 'NONE', #212, #192, #196, .T. ) ;
#531 = ORIENTED_EDGE ( 'NONE', *, *, #1073, .T. ) ;
#532 = EDGE_CURVE ( 'NONE', #249, #8, #217, .T. ) ;
#533 = FACE_OUTER_BOUND ( 'NONE', #1149, .T. ) ;
#534 = DIRECTION ( 'NONE',  ( -1.000000000000000000, 0.000000000000000000, 0.000000000000000000 ) ) ;
#535 = EDGE_CURVE ( 'NONE', #868, #152, #696, .T. ) ;
#536 = ORIENTED_EDGE ( 'NONE', *, *, #161, .F. ) ;
#537 = CARTESIAN_POINT ( 'NONE',  ( 9.422649730810414681, -1.999999999999999556, 0.000000000000000000 ) ) ;
#538 = APPLICATION_CONTEXT ( 'automotive_design' ) ;
#539 = DIRECTION ( 'NONE',  ( -1.000000000000000000, 0.000000000000000000, 0.000000000000000000 ) ) ;
#540 = VERTEX_POINT ( 'NONE', #797 ) ;
#541 = ORIENTED_EDGE ( 'NONE', *, *, #684, .F. ) ;
#542 = ORIENTED_EDGE ( 'NONE', *, *, #72, .F. ) ;
#543 = EDGE_CURVE ( 'NONE', #999, #832, #451, .T. ) ;
#544 = EDGE_LOOP ( 'NONE', ( #1011, #1, #919, #938 ) ) ;
#545 = VECTOR ( 'NONE', #593, 999.9999999999997726 ) ;
#546 = DIRECTION ( 'NONE',  ( 0.000000000000000000, 0.000000000000000000, -1.000000000000000000 ) ) ;
#547 = AXIS2_PLACEMENT_3D ( 'NONE', #1056, #1071, #416 ) ;
#548 = CARTESIAN_POINT ( 'NONE',  ( 46.00622614629106266, -4.999999999999993783, -5.000000000000000000 ) ) ;
#549 = CIRCLE ( 'NONE', #882, 10.00000000000000178 ) ;
#550 = ORIENTED_EDGE ( 'NONE', *, *, #676, .T. ) ;
#551 = CARTESIAN_POINT ( 'NONE',  ( 23.41354938290800902, 18.77657075416408006, -5.000000000000000000 ) ) ;
#552 = ORIENTED_EDGE ( 'NONE', *, *, #458, .F. ) ;
#553 = EDGE_CURVE ( 'NONE', #905, #1059, #350, .T. ) ;
#554 = DIRECTION ( 'NONE',  ( 0.000000000000000000, 1.000000000000000000, 0.000000000000000000 ) ) ;
#555 = DIRECTION ( 'NONE',  ( 1.000000000000000000, 0.000000000000000000, 0.000000000000000000 ) ) ;
#556 = ORIENTED_EDGE ( 'NONE', *, *, #883, .T. ) ;
#557 = ORIENTED_EDGE ( 'NONE', *, *, #914, .F. ) ;
#558 = PRODUCT_DEFINITION_CONTEXT ( 'detailed design', #608, 'design' ) ;
#559 = CARTESIAN_POINT ( 'NONE',  ( -9.422649730810411128, 3.830875953839375356E-17, 2.000000000000001776 ) ) ;
#560 = VERTEX_POINT ( 'NONE', #61 ) ;
#561 = FACE_OUTER_BOUND ( 'NONE', #1169, .T. ) ;
#562 = EDGE_CURVE ( 'NONE', #817, #414, #1157, .T. ) ;
#563 = CARTESIAN_POINT ( 'NONE',  ( 13.46410161513775883, -33.00000000000001421, 45.00000000000000000 ) ) ;
#564 = EDGE_LOOP ( 'NONE', ( #382, #964, #308, #223 ) ) ;
#565 = CARTESIAN_POINT ( 'NONE',  ( 12.97887073396830360, -35.00000000000002132, 1.514787292884008929 ) ) ;
#566 = FACE_OUTER_BOUND ( 'NONE', #479, .T. ) ;
#567 = DIRECTION ( 'NONE',  ( 0.000000000000000000, 0.000000000000000000, -1.000000000000000000 ) ) ;
#568 = AXIS2_PLACEMENT_3D ( 'NONE', #274, #194, #115 ) ;
#569 = CARTESIAN_POINT ( 'NONE',  ( 18.08290376865479843, -17.00000000000000711, 0.000000000000000000 ) ) ;
#570 = AXIS2_PLACEMENT_3D ( 'NONE', #182, #173, #555 ) ;
#571 = AXIS2_PLACEMENT_3D ( 'NONE', #595, #871, #1135 ) ;
#572 = ORIENTED_EDGE ( 'NONE', *, *, #594, .F. ) ;
#573 = VECTOR ( 'NONE', #799, 1000.000000000000000 ) ;
#574 = CARTESIAN_POINT ( 'NONE',  ( -9.422649730810411128, -11.99999999999999822, 2.000000000000001776 ) ) ;
#575 = CARTESIAN_POINT ( 'NONE',  ( -0.9228553599670181740, -8.365088278966183566, 45.00000000000000000 ) ) ;
#576 = DIRECTION ( 'NONE',  ( 0.000000000000000000, 0.000000000000000000, -1.000000000000000000 ) ) ;
#577 = ORIENTED_EDGE ( 'NONE', *, *, #740, .F. ) ;
#578 = EDGE_CURVE ( 'NONE', #346, #409, #65, .T. ) ;
#579 = DIRECTION ( 'NONE',  ( 0.000000000000000000, 0.000000000000000000, -1.000000000000000000 ) ) ;
#580 = APPLICATION_PROTOCOL_DEFINITION ( 'draft international standard', 'automotive_design', 1998, #608 ) ;
#581 = CARTESIAN_POINT ( 'NONE',  ( 11.73205080756887675, -32.00000000000002132, 2.000000000000001776 ) ) ;
#582 = ORIENTED_EDGE ( 'NONE', *, *, #1153, .F. ) ;
#583 = CARTESIAN_POINT ( 'NONE',  ( 17.50000000000000000, 24.99999999999999289, 45.00000000000000000 ) ) ;
#584 = EDGE_CURVE ( 'NONE', #892, #409, #142, .T. ) ;
#585 = ORIENTED_EDGE ( 'NONE', *, *, #839, .F. ) ;
#586 = DIRECTION ( 'NONE',  ( 0.000000000000000000, 0.000000000000000000, -1.000000000000000000 ) ) ;
#587 = CYLINDRICAL_SURFACE ( 'NONE', #55, 35.00000000000000000 ) ;
#588 = VECTOR ( 'NONE', #842, 1000.000000000000000 ) ;
#589 = ORIENTED_EDGE ( 'NONE', *, *, #286, .T. ) ;
#590 = AXIS2_PLACEMENT_3D ( 'NONE', #326, #234, #610 ) ;
#591 = CARTESIAN_POINT ( 'NONE',  ( 10.68180749011662378, -35.00000000000002132, 0.06578560668603186667 ) ) ;
#592 = CARTESIAN_POINT ( 'NONE',  ( 23.95886589889649088, -35.00000000000001421, -5.000000000000000000 ) ) ;
#593 = DIRECTION ( 'NONE',  ( 0.5000000000000013323, 0.8660254037844380415, -0.000000000000000000 ) ) ;
#594 = EDGE_CURVE ( 'NONE', #41, #1052, #1166, .T. ) ;
#595 = CARTESIAN_POINT ( 'NONE',  ( 8.915063315200429273, 4.999999999999997335, 45.00000000000000000 ) ) ;
#596 = ORIENTED_EDGE ( 'NONE', *, *, #440, .T. ) ;
#597 = CARTESIAN_POINT ( 'NONE',  ( -8.915063315200429273, 4.999999999999996447, 45.00000000000000000 ) ) ;
#598 = DIRECTION ( 'NONE',  ( -0.5000000000000013323, 0.8660254037844379305, 0.000000000000000000 ) ) ;
#599 = DIRECTION ( 'NONE',  ( 0.000000000000000000, 0.000000000000000000, 1.000000000000000000 ) ) ;
#600 = CARTESIAN_POINT ( 'NONE',  ( 25.59716998747448358, -34.14715287270210808, 45.00000000000000000 ) ) ;
#601 = ADVANCED_FACE ( 'NONE', ( #708 ), #702, .F. ) ;
#602 = ORIENTED_EDGE ( 'NONE', *, *, #185, .T. ) ;
#603 = CARTESIAN_POINT ( 'NONE',  ( 9.422649730810414681, -11.99999999999999645, 45.00000000000000000 ) ) ;
#604 = CARTESIAN_POINT ( 'NONE',  ( -17.50000000000000000, 24.99999999999999289, 45.00000000000000000 ) ) ;
#605 = DIRECTION ( 'NONE',  ( -0.5000000000000013323, 0.8660254037844380415, 0.000000000000000000 ) ) ;
#606 = ORIENTED_EDGE ( 'NONE', *, *, #628, .T. ) ;
#607 = DIRECTION ( 'NONE',  ( 0.5735764363510417185, -0.8191520442889947962, 0.000000000000000000 ) ) ;
#608 = APPLICATION_CONTEXT ( 'automotive_design' ) ;
#609 = ORIENTED_EDGE ( 'NONE', *, *, #735, .F. ) ;
#610 = DIRECTION ( 'NONE',  ( 0.000000000000000000, 0.000000000000000000, 1.000000000000000000 ) ) ;
#611 = AXIS2_PLACEMENT_3D ( 'NONE', #97, #280, #367 ) ;
#612 = EDGE_LOOP ( 'NONE', ( #283, #682, #1042, #494 ) ) ;
#613 = TOROIDAL_SURFACE ( 'NONE', #1167, 10.00000000000000000, 2.000000000000000000 ) ;
#614 = DIRECTION ( 'NONE',  ( -1.000000000000000000, 0.000000000000000000, 0.000000000000000000 ) ) ;
#615 = ORIENTED_EDGE ( 'NONE', *, *, #761, .F. ) ;
#616 = AXIS2_PLACEMENT_3D ( 'NONE', #639, #379, #186 ) ;
#617 = LINE ( 'NONE', #231, #573 ) ;
#618 = ORIENTED_EDGE ( 'NONE', *, *, #727, .T. ) ;
#619 = DIRECTION ( 'NONE',  ( -0.5000000000000013323, -0.8660254037844379305, 0.000000000000000000 ) ) ;
#620 = EDGE_CURVE ( 'NONE', #45, #688, #162, .T. ) ;
#621 = CARTESIAN_POINT ( 'NONE',  ( 23.95886589889649088, -33.00000000000001421, 45.00000000000000000 ) ) ;
#622 = ORIENTED_EDGE ( 'NONE', *, *, #578, .T. ) ;
#623 = CARTESIAN_POINT ( 'NONE',  ( 25.00000000000000000, -35.00000000000001421, -5.000000000000000000 ) ) ;
#624 = ORIENTED_EDGE ( 'NONE', *, *, #1047, .T. ) ;
#625 = DIRECTION ( 'NONE',  ( 1.000000000000000000, 0.000000000000000000, 0.000000000000000000 ) ) ;
#626 = FACE_OUTER_BOUND ( 'NONE', #95, .T. ) ;
#627 = ORIENTED_EDGE ( 'NONE', *, *, #620, .F. ) ;
#628 = EDGE_CURVE ( 'NONE', #688, #1123, #387, .T. ) ;
#629 = ADVANCED_FACE ( 'NONE', ( #421 ), #131, .T. ) ;
#630 = DIRECTION ( 'NONE',  ( 0.000000000000000000, 0.000000000000000000, -1.000000000000000000 ) ) ;
#631 = EDGE_LOOP ( 'NONE', ( #398, #765, #602, #197 ) ) ;
#632 = CIRCLE ( 'NONE', #874, 2.000000000000000000 ) ;
#633 = CARTESIAN_POINT ( 'NONE',  ( 3.089976191583687637E-15, 0.000000000000000000, 26.99999999999998934 ) ) ;
#634 = TOROIDAL_SURFACE ( 'NONE', #260, 4.000000000000000000, 2.000000000000000000 ) ;
#635 = CARTESIAN_POINT ( 'NONE',  ( 23.95886589889648732, -35.00000000000000711, 45.00000000000000000 ) ) ;
#636 = AXIS2_PLACEMENT_3D ( 'NONE', #193, #99, #13 ) ;
#637 = EDGE_CURVE ( 'NONE', #1111, #488, #74, .T. ) ;
#638 = VERTEX_POINT ( 'NONE', #802 ) ;
#639 = CARTESIAN_POINT ( 'NONE',  ( 23.95886589889649088, -33.00000000000001421, -4.999999999999997335 ) ) ;
#640 = PLANE ( 'NONE',  #1086 ) ;
#641 = ADVANCED_FACE ( 'NONE', ( #1045 ), #613, .F. ) ;
#642 = ORIENTED_EDGE ( 'NONE', *, *, #735, .T. ) ;
#643 = DIRECTION ( 'NONE',  ( -0.000000000000000000, 1.000000000000000000, -0.000000000000000000 ) ) ;
#644 = DIRECTION ( 'NONE',  ( -0.000000000000000000, -0.000000000000000000, 1.000000000000000000 ) ) ;
#645 = CARTESIAN_POINT ( 'NONE',  ( -8.915063315200429273, 4.999999999999996447, -4.999999999999997335 ) ) ;
#646 = ORIENTED_EDGE ( 'NONE', *, *, #578, .F. ) ;
#647 = DIRECTION ( 'NONE',  ( 0.000000000000000000, 0.000000000000000000, -1.000000000000000000 ) ) ;
#648 = FILL_AREA_STYLE_COLOUR ( '', #159 ) ;
#649 = STYLED_ITEM ( 'NONE', ( #501 ), #81 ) ;
#650 = CARTESIAN_POINT ( 'NONE',  ( 9.422649730810414681, -11.99999999999999645, 2.000000000000001776 ) ) ;
#651 = VECTOR ( 'NONE', #793, 1000.000000000000000 ) ;
#652 = FACE_OUTER_BOUND ( 'NONE', #1106, .T. ) ;
#653 = AXIS2_PLACEMENT_3D ( 'NONE', #923, #927, #1090 ) ;
#654 = VERTEX_POINT ( 'NONE', #509 ) ;
#655 = DIRECTION ( 'NONE',  ( -1.000000000000000000, 9.251858538542971828E-16, 0.000000000000000000 ) ) ;
#656 = ORIENTED_EDGE ( 'NONE', *, *, #867, .F. ) ;
#657 = CARTESIAN_POINT ( 'NONE',  ( -35.92285535996701640, -8.365088278966183566, -4.999999999999997335 ) ) ;
#658 = CARTESIAN_POINT ( 'NONE',  ( -0.9228553599670181740, -8.365088278966183566, -4.999999999999997335 ) ) ;
#659 = CARTESIAN_POINT ( 'NONE',  ( 13.46410161513775527, -35.00000000000000000, 45.00000000000000000 ) ) ;
#660 = CARTESIAN_POINT ( 'NONE',  ( 12.20311657085959212, -35.00000000000001421, 0.8357687303133993773 ) ) ;
#661 = ORIENTED_EDGE ( 'NONE', *, *, #1073, .F. ) ;
#662 = CARTESIAN_POINT ( 'NONE',  ( 11.46410161513775883, -33.00000000000001421, 45.00000000000000000 ) ) ;
#663 = CARTESIAN_POINT ( 'NONE',  ( -26.29520597845527874, 15.74391054082096453, -5.000000000000000000 ) ) ;
#664 = ORIENTED_EDGE ( 'NONE', *, *, #155, .T. ) ;
#665 = CARTESIAN_POINT ( 'NONE',  ( -8.915063315200429273, 24.99999999999999289, 45.00000000000000000 ) ) ;
#666 = DIRECTION ( 'NONE',  ( 0.000000000000000000, 0.000000000000000000, -1.000000000000000000 ) ) ;
#667 = VECTOR ( 'NONE', #683, 1000.000000000000000 ) ;
#668 = VECTOR ( 'NONE', #471, 1000.000000000000000 ) ;
#669 = DIRECTION ( 'NONE',  ( -1.000000000000000000, 0.000000000000000000, 0.000000000000000000 ) ) ;
#670 = VECTOR ( 'NONE', #619, 1000.000000000000000 ) ;
#671 = ADVANCED_FACE ( 'NONE', ( #411 ), #1142, .F. ) ;
#672 = ORIENTED_EDGE ( 'NONE', *, *, #922, .T. ) ;
#673 = LINE ( 'NONE', #1104, #588 ) ;
#674 = DIRECTION ( 'NONE',  ( -1.000000000000000000, 0.000000000000000000, 0.000000000000000000 ) ) ;
#675 = CARTESIAN_POINT ( 'NONE',  ( -13.46410161513776238, -35.00000000000000000, 2.000000000000001776 ) ) ;
#676 = EDGE_CURVE ( 'NONE', #976, #45, #53, .T. ) ;
#677 = VERTEX_POINT ( 'NONE', #1152 ) ;
#678 =( NAMED_UNIT ( * ) SI_UNIT ( $, .STERADIAN. ) SOLID_ANGLE_UNIT ( ) );
#679 = DIRECTION ( 'NONE',  ( -0.8660254037844379305, -0.5000000000000012212, 0.000000000000000000 ) ) ;
#680 = DIRECTION ( 'NONE',  ( 1.000000000000000000, 0.000000000000000000, 0.000000000000000000 ) ) ;
#681 = CARTESIAN_POINT ( 'NONE',  ( -30.20725942163697653, 3.830875953839375356E-17, 45.00000000000000000 ) ) ;
#682 = ORIENTED_EDGE ( 'NONE', *, *, #256, .T. ) ;
#683 = DIRECTION ( 'NONE',  ( -0.000000000000000000, 1.000000000000000000, -0.000000000000000000 ) ) ;
#684 = EDGE_CURVE ( 'NONE', #817, #524, #1069, .T. ) ;
#685 = DIRECTION ( 'NONE',  ( 0.000000000000000000, 0.000000000000000000, -1.000000000000000000 ) ) ;
#686 = LINE ( 'NONE', #394, #689 ) ;
#687 = VECTOR ( 'NONE', #187, 1000.000000000000000 ) ;
#688 = VERTEX_POINT ( 'NONE', #970 ) ;
#689 = VECTOR ( 'NONE', #942, 999.9999999999997726 ) ;
#690 = DIRECTION ( 'NONE',  ( -0.000000000000000000, -1.000000000000000000, -0.000000000000000000 ) ) ;
#691 = CARTESIAN_POINT ( 'NONE',  ( -0.9228553599670181740, -8.365088278966183566, -4.999999999999997335 ) ) ;
#692 = ADVANCED_FACE ( 'NONE', ( #982 ), #426, .T. ) ;
#693 = CARTESIAN_POINT ( 'NONE',  ( -9.422649730810411128, -1.999999999999997780, 0.000000000000000000 ) ) ;
#694 = VERTEX_POINT ( 'NONE', #1156 ) ;
#695 = LINE ( 'NONE', #962, #1050 ) ;
#696 = LINE ( 'NONE', #954, #294 ) ;
#697 = VERTEX_POINT ( 'NONE', #60 ) ;
#698 = CARTESIAN_POINT ( 'NONE',  ( 21.42264973081041290, -11.99999999999999645, 45.00000000000000000 ) ) ;
#699 = VERTEX_POINT ( 'NONE', #525 ) ;
#700 = DIRECTION ( 'NONE',  ( 1.000000000000000000, 0.000000000000000000, 0.000000000000000000 ) ) ;
#701 = CYLINDRICAL_SURFACE ( 'NONE', #397, 35.00000000000000000 ) ;
#702 = CYLINDRICAL_SURFACE ( 'NONE', #931, 6.999999999999988454 ) ;
#703 = CARTESIAN_POINT ( 'NONE',  ( -46.00622614629106266, -4.999999999999993783, 45.00000000000000000 ) ) ;
#704 = ADVANCED_FACE ( 'NONE', ( #64 ), #153, .F. ) ;
#705 = ORIENTED_EDGE ( 'NONE', *, *, #2, .F. ) ;
#706 = LINE ( 'NONE', #807, #670 ) ;
#707 = VECTOR ( 'NONE', #1132, 1000.000000000000000 ) ;
#708 = FACE_OUTER_BOUND ( 'NONE', #1164, .T. ) ;
#709 = ORIENTED_EDGE ( 'NONE', *, *, #243, .F. ) ;
#710 = AXIS2_PLACEMENT_3D ( 'NONE', #909, #838, #263 ) ;
#711 = ORIENTED_EDGE ( 'NONE', *, *, #637, .F. ) ;
#712 = DIRECTION ( 'NONE',  ( 0.000000000000000000, 0.000000000000000000, -1.000000000000000000 ) ) ;
#713 = EDGE_LOOP ( 'NONE', ( #396, #113, #70, #758 ) ) ;
#714 = DIRECTION ( 'NONE',  ( 0.000000000000000000, 0.000000000000000000, -1.000000000000000000 ) ) ;
#715 = ADVANCED_FACE ( 'NONE', ( #790 ), #898, .T. ) ;
#716 = EDGE_LOOP ( 'NONE', ( #737, #974, #300, #750, #241 ) ) ;
#717 = CYLINDRICAL_SURFACE ( 'NONE', #844, 35.00000000000000000 ) ;
#718 = LINE ( 'NONE', #698, #1147 ) ;
#719 = EDGE_LOOP ( 'NONE', ( #483, #994, #1173, #1114 ) ) ;
#720 = EDGE_LOOP ( 'NONE', ( #68, #615 ) ) ;
#721 = EDGE_CURVE ( 'NONE', #868, #905, #422, .T. ) ;
#722 = DIRECTION ( 'NONE',  ( -0.000000000000000000, -0.000000000000000000, 1.000000000000000000 ) ) ;
#723 = CARTESIAN_POINT ( 'NONE',  ( -23.41354938290800902, 18.77657075416408006, 45.00000000000000000 ) ) ;
#724 = CIRCLE ( 'NONE', #744, 2.000000000000000000 ) ;
#725 = AXIS2_PLACEMENT_3D ( 'NONE', #866, #293, #669 ) ;
#726 = VECTOR ( 'NONE', #775, 1000.000000000000000 ) ;
#727 = EDGE_CURVE ( 'NONE', #654, #152, #706, .T. ) ;
#728 = CARTESIAN_POINT ( 'NONE',  ( 13.46410161513775883, -35.00000000000001421, 2.000000000000001776 ) ) ;
#729 = DIRECTION ( 'NONE',  ( -0.000000000000000000, -0.000000000000000000, 1.000000000000000000 ) ) ;
#730 = VERTEX_POINT ( 'NONE', #228 ) ;
#731 = VERTEX_POINT ( 'NONE', #888 ) ;
#732 = CARTESIAN_POINT ( 'NONE',  ( -29.59317691008183360, -28.44026355125264516, 45.00000000000000000 ) ) ;
#733 = DIRECTION ( 'NONE',  ( -0.000000000000000000, -0.000000000000000000, 1.000000000000000000 ) ) ;
#734 = VERTEX_POINT ( 'NONE', #520 ) ;
#735 = EDGE_CURVE ( 'NONE', #1118, #654, #352, .T. ) ;
#736 = CARTESIAN_POINT ( 'NONE',  ( 9.464101615137758827, -33.00000000000001421, 2.000000000000001776 ) ) ;
#737 = ORIENTED_EDGE ( 'NONE', *, *, #185, .F. ) ;
#738 = LINE ( 'NONE', #1108, #915 ) ;
#739 = CARTESIAN_POINT ( 'NONE',  ( -25.59716998747448713, -34.14715287270209387, 45.00000000000000000 ) ) ;
#740 = EDGE_CURVE ( 'NONE', #249, #852, #893, .T. ) ;
#741 = ORIENTED_EDGE ( 'NONE', *, *, #813, .F. ) ;
#742 = CARTESIAN_POINT ( 'NONE',  ( 13.46410161513775883, -33.00000000000001421, 0.000000000000000000 ) ) ;
#743 = ORIENTED_EDGE ( 'NONE', *, *, #315, .F. ) ;
#744 = AXIS2_PLACEMENT_3D ( 'NONE', #35, #500, #859 ) ;
#745 = LINE ( 'NONE', #732, #25 ) ;
#746 = AXIS2_PLACEMENT_3D ( 'NONE', #763, #140, #517 ) ;
#747 = PLANE ( 'NONE',  #568 ) ;
#748 = VECTOR ( 'NONE', #429, 1000.000000000000000 ) ;
#749 = CARTESIAN_POINT ( 'NONE',  ( -35.92285535996701640, -8.365088278966183566, 45.00000000000000000 ) ) ;
#750 = ORIENTED_EDGE ( 'NONE', *, *, #960, .F. ) ;
#751 = ADVANCED_FACE ( 'NONE', ( #431 ), #1077, .F. ) ;
#752 = ADVANCED_FACE ( 'NONE', ( #332 ), #158, .F. ) ;
#753 = CYLINDRICAL_SURFACE ( 'NONE', #216, 12.00000000000000000 ) ;
#754 = ORIENTED_EDGE ( 'NONE', *, *, #408, .F. ) ;
#755 = EDGE_CURVE ( 'NONE', #976, #901, #695, .T. ) ;
#756 = LINE ( 'NONE', #662, #1107 ) ;
#757 = CARTESIAN_POINT ( 'NONE',  ( 46.00622614629106266, -4.999999999999993783, 45.00000000000000000 ) ) ;
#758 = ORIENTED_EDGE ( 'NONE', *, *, #2, .T. ) ;
#759 = ORIENTED_EDGE ( 'NONE', *, *, #1094, .T. ) ;
#760 = DIRECTION ( 'NONE',  ( 0.000000000000000000, 0.000000000000000000, -1.000000000000000000 ) ) ;
#761 = EDGE_CURVE ( 'NONE', #1082, #96, #950, .T. ) ;
#762 = CARTESIAN_POINT ( 'NONE',  ( 0.000000000000000000, 0.000000000000000000, 0.000000000000000000 ) ) ;
#763 = CARTESIAN_POINT ( 'NONE',  ( 13.46410161513775883, -33.00000000000001421, 45.00000000000000000 ) ) ;
#764 = EDGE_LOOP ( 'NONE', ( #556, #969, #1062, #531, #1005, #473, #951, #596, #511, #1161, #921, #854, #134 ) ) ;
#765 = ORIENTED_EDGE ( 'NONE', *, *, #562, .T. ) ;
#766 = ADVANCED_FACE ( 'NONE', ( #120 ), #56, .F. ) ;
#767 = VECTOR ( 'NONE', #28, 1000.000000000000000 ) ;
#768 = LINE ( 'NONE', #875, #528 ) ;
#769 = TOROIDAL_SURFACE ( 'NONE', #296, 4.000000000000000000, 2.000000000000000000 ) ;
#770 = CIRCLE ( 'NONE', #847, 2.000000000000000444 ) ;
#771 = ORIENTED_EDGE ( 'NONE', *, *, #1094, .F. ) ;
#772 = CARTESIAN_POINT ( 'NONE',  ( 9.422649730810416457, 3.830875953839375356E-17, 2.000000000000001776 ) ) ;
#773 =( NAMED_UNIT ( * ) PLANE_ANGLE_UNIT ( ) SI_UNIT ( $, .RADIAN. ) );
#774 = DIRECTION ( 'NONE',  ( 0.000000000000000000, 0.000000000000000000, -1.000000000000000000 ) ) ;
#775 = DIRECTION ( 'NONE',  ( -0.000000000000000000, -0.000000000000000000, 1.000000000000000000 ) ) ;
#776 = ADVANCED_FACE ( 'NONE', ( #132 ), #487, .T. ) ;
#777 = ORIENTED_EDGE ( 'NONE', *, *, #721, .F. ) ;
#778 = CARTESIAN_POINT ( 'NONE',  ( 3.089976191583687637E-15, 24.99999999999999289, 26.99999999999998934 ) ) ;
#779 = DIRECTION ( 'NONE',  ( 0.000000000000000000, 0.000000000000000000, -1.000000000000000000 ) ) ;
#780 = ORIENTED_EDGE ( 'NONE', *, *, #530, .F. ) ;
#781 = EDGE_CURVE ( 'NONE', #329, #441, #1041, .T. ) ;
#782 = DIRECTION ( 'NONE',  ( -1.000000000000000000, 0.000000000000000000, 0.000000000000000000 ) ) ;
#783 =( LENGTH_UNIT ( ) NAMED_UNIT ( * ) SI_UNIT ( .MILLI., .METRE. ) );
#784 = CARTESIAN_POINT ( 'NONE',  ( 3.089976191583687637E-15, 24.99999999999999289, 20.00000000000000000 ) ) ;
#785 = DIRECTION ( 'NONE',  ( 0.000000000000000000, 0.000000000000000000, -1.000000000000000000 ) ) ;
#786 = FACE_OUTER_BOUND ( 'NONE', #285, .T. ) ;
#787 = CIRCLE ( 'NONE', #450, 2.000000000000000000 ) ;
#788 = AXIS2_PLACEMENT_3D ( 'NONE', #563, #101, #917 ) ;
#789 = ORIENTED_EDGE ( 'NONE', *, *, #80, .F. ) ;
#790 = FACE_OUTER_BOUND ( 'NONE', #157, .T. ) ;
#791 = VECTOR ( 'NONE', #151, 1000.000000000000000 ) ;
#792 = CARTESIAN_POINT ( 'NONE',  ( 0.9228553599670199503, -8.365088278966190671, 45.00000000000000000 ) ) ;
#793 = DIRECTION ( 'NONE',  ( 1.000000000000000000, -4.625929269271485914E-16, 0.000000000000000000 ) ) ;
#794 = DIRECTION ( 'NONE',  ( -0.000000000000000000, -0.000000000000000000, 1.000000000000000000 ) ) ;
#795 = ORIENTED_EDGE ( 'NONE', *, *, #497, .F. ) ;
#796 = CARTESIAN_POINT ( 'NONE',  ( -25.00000000000000000, -34.99999999999999289, -5.000000000000000000 ) ) ;
#797 = CARTESIAN_POINT ( 'NONE',  ( -21.42264973081041290, -11.99999999999999822, 2.000000000000001776 ) ) ;
#798 = ADVANCED_FACE ( 'NONE', ( #786 ), #769, .F. ) ;
#799 = DIRECTION ( 'NONE',  ( 0.000000000000000000, 0.000000000000000000, -1.000000000000000000 ) ) ;
#800 = ORIENTED_EDGE ( 'NONE', *, *, #676, .F. ) ;
#801 = CARTESIAN_POINT ( 'NONE',  ( -17.50000000000000000, 24.99999999999999289, 45.00000000000000000 ) ) ;
#802 = CARTESIAN_POINT ( 'NONE',  ( 26.29520597845528584, 15.74391054082096097, -5.000000000000000000 ) ) ;
#803 = CARTESIAN_POINT ( 'NONE',  ( -13.46410161513776238, -35.00000000000000000, 45.00000000000000000 ) ) ;
#804 = EDGE_CURVE ( 'NONE', #488, #247, #768, .T. ) ;
#805 = ORIENTED_EDGE ( 'NONE', *, *, #979, .T. ) ;
#806 = AXIS2_PLACEMENT_3D ( 'NONE', #313, #679, #302 ) ;
#807 = CARTESIAN_POINT ( 'NONE',  ( 30.20725942163697653, 3.830875953839375356E-17, 45.00000000000000000 ) ) ;
#808 = CIRCLE ( 'NONE', #611, 35.00000000000000000 ) ;
#809 = AXIS2_PLACEMENT_3D ( 'NONE', #691, #685, #889 ) ;
#810 = ORIENTED_EDGE ( 'NONE', *, *, #530, .T. ) ;
#811 = FACE_OUTER_BOUND ( 'NONE', #368, .T. ) ;
#812 = ORIENTED_EDGE ( 'NONE', *, *, #933, .F. ) ;
#813 = EDGE_CURVE ( 'NONE', #441, #560, #37, .T. ) ;
#814 = VERTEX_POINT ( 'NONE', #1034 ) ;
#815 = CARTESIAN_POINT ( 'NONE',  ( -35.92285535996701640, -8.365088278966183566, 45.00000000000000000 ) ) ;
#816 = CARTESIAN_POINT ( 'NONE',  ( -17.50000000000000000, 24.99999999999999289, 45.00000000000000000 ) ) ;
#817 = VERTEX_POINT ( 'NONE', #49 ) ;
#818 = EDGE_CURVE ( 'NONE', #337, #730, #108, .T. ) ;
#819 = CARTESIAN_POINT ( 'NONE',  ( -30.20725942163697653, 3.830875953839375356E-17, 45.00000000000000000 ) ) ;
#820 = CARTESIAN_POINT ( 'NONE',  ( -19.42264973081041290, -11.99999999999999822, 0.000000000000000000 ) ) ;
#821 = ORIENTED_EDGE ( 'NONE', *, *, #117, .F. ) ;
#822 = AXIS2_PLACEMENT_3D ( 'NONE', #853, #963, #614 ) ;
#823 = CIRCLE ( 'NONE', #968, 12.00000000000000000 ) ;
#824 = ORIENTED_EDGE ( 'NONE', *, *, #408, .T. ) ;
#825 = AXIS2_PLACEMENT_3D ( 'NONE', #650, #546, #827 ) ;
#826 = DIRECTION ( 'NONE',  ( -0.000000000000000000, -1.000000000000000000, -0.000000000000000000 ) ) ;
#827 = DIRECTION ( 'NONE',  ( -1.000000000000000000, 0.000000000000000000, 0.000000000000000000 ) ) ;
#828 = DIRECTION ( 'NONE',  ( 0.5000000000000012212, 0.8660254037844379305, 0.000000000000000000 ) ) ;
#829 = VERTEX_POINT ( 'NONE', #693 ) ;
#830 = ORIENTED_EDGE ( 'NONE', *, *, #44, .F. ) ;
#831 = CARTESIAN_POINT ( 'NONE',  ( 9.422649730810414681, -11.99999999999999645, 45.00000000000000000 ) ) ;
#832 = VERTEX_POINT ( 'NONE', #600 ) ;
#833 = CARTESIAN_POINT ( 'NONE',  ( 3.089976191583687637E-15, 24.99999999999999289, 20.00000000000000000 ) ) ;
#834 = ADVANCED_FACE ( 'NONE', ( #206 ), #587, .T. ) ;
#835 = CARTESIAN_POINT ( 'NONE',  ( 30.20725942163697653, 3.830875953839375356E-17, 45.00000000000000000 ) ) ;
#836 = DIRECTION ( 'NONE',  ( 0.000000000000000000, 0.000000000000000000, -1.000000000000000000 ) ) ;
#837 = ORIENTED_EDGE ( 'NONE', *, *, #440, .F. ) ;
#838 = DIRECTION ( 'NONE',  ( 0.000000000000000000, 0.000000000000000000, -1.000000000000000000 ) ) ;
#839 = EDGE_CURVE ( 'NONE', #901, #249, #846, .T. ) ;
#840 = ORIENTED_EDGE ( 'NONE', *, *, #928, .F. ) ;
#841 = CARTESIAN_POINT ( 'NONE',  ( 11.73205080756887675, -32.00000000000001421, 45.00000000000000000 ) ) ;
#842 = DIRECTION ( 'NONE',  ( 0.000000000000000000, 0.000000000000000000, -1.000000000000000000 ) ) ;
#843 = ORIENTED_EDGE ( 'NONE', *, *, #155, .F. ) ;
#844 = AXIS2_PLACEMENT_3D ( 'NONE', #575, #111, #478 ) ;
#845 = CARTESIAN_POINT ( 'NONE',  ( 21.42264973081041290, -11.99999999999999645, 45.00000000000000000 ) ) ;
#846 = CIRCLE ( 'NONE', #725, 1.999999999999998224 ) ;
#847 = AXIS2_PLACEMENT_3D ( 'NONE', #9, #459, #356 ) ;
#848 = LINE ( 'NONE', #521, #1102 ) ;
#849 = ORIENTED_EDGE ( 'NONE', *, *, #232, .T. ) ;
#850 = EDGE_CURVE ( 'NONE', #1052, #524, #686, .T. ) ;
#851 = CARTESIAN_POINT ( 'NONE',  ( 3.947228950986832885E-15, 24.99999999999999289, 13.00000000000001243 ) ) ;
#852 = VERTEX_POINT ( 'NONE', #202 ) ;
#853 = CARTESIAN_POINT ( 'NONE',  ( -9.422649730810411128, -11.99999999999999822, 0.000000000000000000 ) ) ;
#854 = ORIENTED_EDGE ( 'NONE', *, *, #32, .T. ) ;
#855 = CARTESIAN_POINT ( 'NONE',  ( -13.46410161513776060, -33.00000000000000000, 0.000000000000000000 ) ) ;
#856 = EDGE_CURVE ( 'NONE', #405, #1101, #988, .T. ) ;
#857 = CARTESIAN_POINT ( 'NONE',  ( -0.9228553599670181740, -8.365088278966183566, 45.00000000000000000 ) ) ;
#858 = ORIENTED_EDGE ( 'NONE', *, *, #1037, .F. ) ;
#859 = DIRECTION ( 'NONE',  ( 1.000000000000000000, 0.000000000000000000, 0.000000000000000000 ) ) ;
#860 = VECTOR ( 'NONE', #785, 1000.000000000000000 ) ;
#861 = CIRCLE ( 'NONE', #948, 35.00000000000000000 ) ;
#862 = DIRECTION ( 'NONE',  ( 0.000000000000000000, 0.000000000000000000, -1.000000000000000000 ) ) ;
#863 = CIRCLE ( 'NONE', #495, 35.00000000000000000 ) ;
#864 = AXIS2_PLACEMENT_3D ( 'NONE', #445, #287, #1006 ) ;
#865 = ORIENTED_EDGE ( 'NONE', *, *, #850, .T. ) ;
#866 = CARTESIAN_POINT ( 'NONE',  ( -23.95886589889649798, -32.99999999999999289, -4.999999999999997335 ) ) ;
#867 = EDGE_CURVE ( 'NONE', #227, #694, #937, .T. ) ;
#868 = VERTEX_POINT ( 'NONE', #581 ) ;
#869 = CARTESIAN_POINT ( 'NONE',  ( 9.422649730810414681, 3.830875953839375356E-17, 2.000000000000001776 ) ) ;
#870 = CARTESIAN_POINT ( 'NONE',  ( 3.089976191583687637E-15, 0.000000000000000000, 20.00000000000000000 ) ) ;
#871 = DIRECTION ( 'NONE',  ( -0.000000000000000000, -0.000000000000000000, 1.000000000000000000 ) ) ;
#872 = ORIENTED_EDGE ( 'NONE', *, *, #92, .F. ) ;
#873 = DIRECTION ( 'NONE',  ( 4.625929269271486900E-16, 1.000000000000000000, -0.000000000000000000 ) ) ;
#874 = AXIS2_PLACEMENT_3D ( 'NONE', #736, #690, #209 ) ;
#875 = CARTESIAN_POINT ( 'NONE',  ( -46.00622614629106266, -5.000000000000006217, -5.000000000000000000 ) ) ;
#876 = B_SPLINE_CURVE_WITH_KNOTS ( 'NONE', 3,
 ( #1009, #1112, #565, #284, #660, #1017, #327, #591, #1151, #1043 ),
 .UNSPECIFIED., .F., .F.,
 ( 4, 2, 2, 2, 4 ),
 ( -8.944271910602721566E-06, 0.001019331502940711270, 0.002047607277792024959, 0.003075883052643339083, 0.004104158827494652773 ),
 .UNSPECIFIED. ) ;
#877 = AXIS2_PLACEMENT_3D ( 'NONE', #621, #1058, #225 ) ;
#878 = AXIS2_PLACEMENT_3D ( 'NONE', #128, #1129, #299 ) ;
#879 = ORIENTED_EDGE ( 'NONE', *, *, #818, .T. ) ;
#880 = CARTESIAN_POINT ( 'NONE',  ( 0.000000000000000000, 0.000000000000000000, -5.000000000000000000 ) ) ;
#881 = CIRCLE ( 'NONE', #653, 20.00000000000000000 ) ;
#882 = AXIS2_PLACEMENT_3D ( 'NONE', #17, #363, #1033 ) ;
#883 = EDGE_CURVE ( 'NONE', #329, #638, #498, .T. ) ;
#884 = DIRECTION ( 'NONE',  ( -1.000000000000000000, 0.000000000000000000, 0.000000000000000000 ) ) ;
#885 = CARTESIAN_POINT ( 'NONE',  ( -9.422649730810411128, -11.99999999999999822, 45.00000000000000000 ) ) ;
#886 = VERTEX_POINT ( 'NONE', #1049 ) ;
#887 = ADVANCED_BREP_SHAPE_REPRESENTATION ( 'Gripper', ( #81, #1088 ), #221 ) ;
#888 = CARTESIAN_POINT ( 'NONE',  ( -26.29520597845528584, 15.74391054082096453, 45.00000000000000000 ) ) ;
#889 = DIRECTION ( 'NONE',  ( -1.000000000000000000, 0.000000000000000000, 0.000000000000000000 ) ) ;
#890 = EDGE_CURVE ( 'NONE', #892, #868, #222, .T. ) ;
#891 = DIRECTION ( 'NONE',  ( -0.000000000000000000, -0.000000000000000000, 1.000000000000000000 ) ) ;
#892 = VERTEX_POINT ( 'NONE', #438 ) ;
#893 = LINE ( 'NONE', #796, #57 ) ;
#894 = DIRECTION ( 'NONE',  ( -0.000000000000000000, -0.000000000000000000, 1.000000000000000000 ) ) ;
#895 = CARTESIAN_POINT ( 'NONE',  ( 3.089976191583687637E-15, 0.000000000000000000, 20.00000000000000000 ) ) ;
#896 = ADVANCED_FACE ( 'NONE', ( #811 ), #1172, .T. ) ;
#897 = ORIENTED_EDGE ( 'NONE', *, *, #946, .F. ) ;
#898 = CYLINDRICAL_SURFACE ( 'NONE', #1004, 2.000000000000000000 ) ;
#899 = CIRCLE ( 'NONE', #21, 35.00000000000000000 ) ;
#900 = CYLINDRICAL_SURFACE ( 'NONE', #967, 1.999999999999998668 ) ;
#901 = VERTEX_POINT ( 'NONE', #990 ) ;
#902 = AXIS2_PLACEMENT_3D ( 'NONE', #1067, #712, #1075 ) ;
#903 = DIRECTION ( 'NONE',  ( 0.000000000000000000, 0.000000000000000000, -1.000000000000000000 ) ) ;
#904 = EDGE_CURVE ( 'NONE', #730, #45, #975, .T. ) ;
#905 = VERTEX_POINT ( 'NONE', #985 ) ;
#906 = DIRECTION ( 'NONE',  ( 1.000000000000000000, 0.000000000000000000, 0.000000000000000000 ) ) ;
#907 = LINE ( 'NONE', #1085, #1125 ) ;
#908 = ORIENTED_EDGE ( 'NONE', *, *, #505, .T. ) ;
#909 = CARTESIAN_POINT ( 'NONE',  ( 8.915063315200429273, 4.999999999999997335, 45.00000000000000000 ) ) ;
#910 = LINE ( 'NONE', #358, #54 ) ;
#911 = CARTESIAN_POINT ( 'NONE',  ( 10.00000000000000355, -31.00000000000002132, 2.000000000000001776 ) ) ;
#912 = ORIENTED_EDGE ( 'NONE', *, *, #1153, .T. ) ;
#913 = AXIS2_PLACEMENT_3D ( 'NONE', #62, #1060, #529 ) ;
#914 = EDGE_CURVE ( 'NONE', #409, #1101, #474, .T. ) ;
#915 = VECTOR ( 'NONE', #93, 1000.000000000000000 ) ;
#916 = CYLINDRICAL_SURFACE ( 'NONE', #710, 20.00000000000000000 ) ;
#917 = DIRECTION ( 'NONE',  ( 1.000000000000000000, 0.000000000000000000, 0.000000000000000000 ) ) ;
#918 = ORIENTED_EDGE ( 'NONE', *, *, #343, .T. ) ;
#919 = ORIENTED_EDGE ( 'NONE', *, *, #52, .F. ) ;
#920 = DIRECTION ( 'NONE',  ( 1.000000000000000000, 0.000000000000000000, 0.000000000000000000 ) ) ;
#921 = ORIENTED_EDGE ( 'NONE', *, *, #15, .T. ) ;
#922 = EDGE_CURVE ( 'NONE', #1123, #227, #823, .T. ) ;
#923 = CARTESIAN_POINT ( 'NONE',  ( 8.915063315200429273, 4.999999999999997335, -4.999999999999997335 ) ) ;
#924 = DIRECTION ( 'NONE',  ( -1.000000000000000000, 0.000000000000000000, 0.000000000000000000 ) ) ;
#925 = ORIENTED_EDGE ( 'NONE', *, *, #305, .T. ) ;
#926 = ORIENTED_EDGE ( 'NONE', *, *, #955, .F. ) ;
#927 = DIRECTION ( 'NONE',  ( 0.000000000000000000, 0.000000000000000000, -1.000000000000000000 ) ) ;
#928 = EDGE_CURVE ( 'NONE', #560, #262, #239, .T. ) ;
#929 = CIRCLE ( 'NONE', #160, 12.00000000000000000 ) ;
#930 = DIRECTION ( 'NONE',  ( 0.000000000000000000, 0.000000000000000000, 1.000000000000000000 ) ) ;
#931 = AXIS2_PLACEMENT_3D ( 'NONE', #784, #1064, #236 ) ;
#932 = DIRECTION ( 'NONE',  ( 0.000000000000000000, 0.000000000000000000, -1.000000000000000000 ) ) ;
#933 = EDGE_CURVE ( 'NONE', #734, #1118, #718, .T. ) ;
#934 = ORIENTED_EDGE ( 'NONE', *, *, #867, .T. ) ;
#935 = CARTESIAN_POINT ( 'NONE',  ( -23.41354938290800547, 18.77657075416407650, -5.000000000000000000 ) ) ;
#936 = FACE_OUTER_BOUND ( 'NONE', #484, .T. ) ;
#937 = LINE ( 'NONE', #681, #238 ) ;
#938 = ORIENTED_EDGE ( 'NONE', *, *, #522, .F. ) ;
#939 = ORIENTED_EDGE ( 'NONE', *, *, #553, .T. ) ;
#940 = CARTESIAN_POINT ( 'NONE',  ( -10.00000000000000711, -35.00000000000000000, 0.000000000000000000 ) ) ;
#941 = ADVANCED_FACE ( 'NONE', ( #533 ), #634, .F. ) ;
#942 = DIRECTION ( 'NONE',  ( 0.5000000000000013323, -0.8660254037844380415, -0.000000000000000000 ) ) ;
#943 = ORIENTED_EDGE ( 'NONE', *, *, #1160, .T. ) ;
#944 = DIRECTION ( 'NONE',  ( 0.000000000000000000, -0.000000000000000000, -1.000000000000000000 ) ) ;
#945 = ORIENTED_EDGE ( 'NONE', *, *, #904, .T. ) ;
#946 = EDGE_CURVE ( 'NONE', #262, #814, #453, .T. ) ;
#947 = VECTOR ( 'NONE', #83, 1000.000000000000000 ) ;
#948 = AXIS2_PLACEMENT_3D ( 'NONE', #1031, #579, #22 ) ;
#949 = DIRECTION ( 'NONE',  ( -1.000000000000000000, 0.000000000000000000, 0.000000000000000000 ) ) ;
#950 = CIRCLE ( 'NONE', #590, 6.999999999999988454 ) ;
#951 = ORIENTED_EDGE ( 'NONE', *, *, #740, .T. ) ;
#952 = FACE_OUTER_BOUND ( 'NONE', #88, .T. ) ;
#953 = LINE ( 'NONE', #381, #139 ) ;
#954 = CARTESIAN_POINT ( 'NONE',  ( 11.73205080756887675, -32.00000000000002132, 45.00000000000000000 ) ) ;
#955 = EDGE_CURVE ( 'NONE', #731, #10, #863, .T. ) ;
#956 = CARTESIAN_POINT ( 'NONE',  ( -13.46410161513776060, -33.00000000000000000, 45.00000000000000000 ) ) ;
#957 = ORIENTED_EDGE ( 'NONE', *, *, #256, .F. ) ;
#958 = CARTESIAN_POINT ( 'NONE',  ( 13.46410161513775883, -33.00000000000001421, 2.000000000000001776 ) ) ;
#959 = DIRECTION ( 'NONE',  ( -1.000000000000000000, 0.000000000000000000, -0.000000000000000000 ) ) ;
#960 = EDGE_CURVE ( 'NONE', #227, #325, #617, .T. ) ;
#961 = ORIENTED_EDGE ( 'NONE', *, *, #39, .T. ) ;
#962 = CARTESIAN_POINT ( 'NONE',  ( -23.95886589889649798, -34.99999999999999289, 45.00000000000000000 ) ) ;
#963 = DIRECTION ( 'NONE',  ( -0.000000000000000000, -0.000000000000000000, 1.000000000000000000 ) ) ;
#964 = ORIENTED_EDGE ( 'NONE', *, *, #995, .T. ) ;
#965 = VECTOR ( 'NONE', #301, 1000.000000000000227 ) ;
#966 = CARTESIAN_POINT ( 'NONE',  ( 13.46410161513775883, -33.00000000000001421, 2.000000000000001776 ) ) ;
#967 = AXIS2_PLACEMENT_3D ( 'NONE', #1175, #344, #254 ) ;
#968 = AXIS2_PLACEMENT_3D ( 'NONE', #885, #1154, #156 ) ;
#969 = ORIENTED_EDGE ( 'NONE', *, *, #323, .T. ) ;
#970 = CARTESIAN_POINT ( 'NONE',  ( -11.73205080756888563, -32.00000000000000000, 45.00000000000000000 ) ) ;
#971 = VECTOR ( 'NONE', #523, 1000.000000000000000 ) ;
#972 = FACE_OUTER_BOUND ( 'NONE', #448, .T. ) ;
#973 = CARTESIAN_POINT ( 'NONE',  ( -13.46410161513776060, -33.00000000000000000, 45.00000000000000000 ) ) ;
#974 = ORIENTED_EDGE ( 'NONE', *, *, #1141, .T. ) ;
#975 = LINE ( 'NONE', #803, #143 ) ;
#976 = VERTEX_POINT ( 'NONE', #82 ) ;
#977 = DIRECTION ( 'NONE',  ( -0.000000000000000000, -0.000000000000000000, 1.000000000000000000 ) ) ;
#978 = CARTESIAN_POINT ( 'NONE',  ( -25.59716998747449068, -34.14715287270207966, 45.00000000000000000 ) ) ;
#979 = EDGE_CURVE ( 'NONE', #10, #1111, #980, .T. ) ;
#980 = LINE ( 'NONE', #815, #748 ) ;
#981 = ORIENTED_EDGE ( 'NONE', *, *, #1001, .T. ) ;
#982 = FACE_OUTER_BOUND ( 'NONE', #764, .T. ) ;
#983 = EDGE_LOOP ( 'NONE', ( #137, #1137, #469, #275 ) ) ;
#984 = ADVANCED_FACE ( 'NONE', ( #518 ), #67, .F. ) ;
#985 = CARTESIAN_POINT ( 'NONE',  ( 11.46410161513775883, -33.00000000000001421, 2.000000000000001776 ) ) ;
#986 = EDGE_LOOP ( 'NONE', ( #12, #912, #577, #85 ) ) ;
#987 = MECHANICAL_DESIGN_GEOMETRIC_PRESENTATION_REPRESENTATION (  '', ( #649 ), #415 ) ;
#988 = CIRCLE ( 'NONE', #878, 2.000000000000000000 ) ;
#989 = AXIS2_PLACEMENT_3D ( 'NONE', #833, #470, #992 ) ;
#990 = CARTESIAN_POINT ( 'NONE',  ( -23.95886589889648732, -34.99999999999997158, -5.000000000000000000 ) ) ;
#991 = ORIENTED_EDGE ( 'NONE', *, *, #1168, .F. ) ;
#992 = DIRECTION ( 'NONE',  ( 0.000000000000000000, 0.000000000000000000, 1.000000000000000000 ) ) ;
#993 = DIRECTION ( 'NONE',  ( 0.8660254037844379305, -0.5000000000000012212, 0.000000000000000000 ) ) ;
#994 = ORIENTED_EDGE ( 'NONE', *, *, #890, .T. ) ;
#995 = EDGE_CURVE ( 'NONE', #289, #699, #1084, .T. ) ;
#996 = ORIENTED_EDGE ( 'NONE', *, *, #404, .T. ) ;
#997 = CARTESIAN_POINT ( 'NONE',  ( -18.08290376865479132, -17.00000000000000711, 0.000000000000000000 ) ) ;
#998 = CARTESIAN_POINT ( 'NONE',  ( -10.00000000000000888, -31.00000000000000000, 0.000000000000000000 ) ) ;
#999 = VERTEX_POINT ( 'NONE', #635 ) ;
#1000 = VECTOR ( 'NONE', #666, 1000.000000000000000 ) ;
#1001 = EDGE_CURVE ( 'NONE', #677, #8, #1159, .T. ) ;
#1002 = AXIS2_PLACEMENT_3D ( 'NONE', #47, #1121, #154 ) ;
#1003 = PLANE ( 'NONE',  #493 ) ;
#1004 = AXIS2_PLACEMENT_3D ( 'NONE', #435, #714, #76 ) ;
#1005 = ORIENTED_EDGE ( 'NONE', *, *, #1037, .T. ) ;
#1006 = DIRECTION ( 'NONE',  ( -1.000000000000000000, 0.000000000000000000, 0.000000000000000000 ) ) ;
#1007 = CARTESIAN_POINT ( 'NONE',  ( -19.81495457622366629, -18.00000000000001421, 2.000000000000001776 ) ) ;
#1008 = ORIENTED_EDGE ( 'NONE', *, *, #1130, .F. ) ;
#1009 = CARTESIAN_POINT ( 'NONE',  ( 13.46410161513775883, -35.00000000000001421, 2.000000000000001776 ) ) ;
#1010 = LINE ( 'NONE', #468, #1046 ) ;
#1011 = ORIENTED_EDGE ( 'NONE', *, *, #497, .T. ) ;
#1012 = EDGE_CURVE ( 'NONE', #325, #829, #177, .T. ) ;
#1013 = FACE_OUTER_BOUND ( 'NONE', #716, .T. ) ;
#1014 = DIRECTION ( 'NONE',  ( -1.000000000000000000, 0.000000000000000000, 0.000000000000000000 ) ) ;
#1015 = CARTESIAN_POINT ( 'NONE',  ( 3.947228950986832885E-15, 0.000000000000000000, 13.00000000000001243 ) ) ;
#1016 = ORIENTED_EDGE ( 'NONE', *, *, #553, .F. ) ;
#1017 = CARTESIAN_POINT ( 'NONE',  ( 11.63402701626417013, -35.00000000000000711, 0.4572178774520752054 ) ) ;
#1018 = EDGE_LOOP ( 'NONE', ( #810, #624 ) ) ;
#1019 = FACE_OUTER_BOUND ( 'NONE', #265, .T. ) ;
#1020 = EDGE_CURVE ( 'NONE', #697, #346, #1148, .T. ) ;
#1021 = LINE ( 'NONE', #548, #687 ) ;
#1022 = CARTESIAN_POINT ( 'NONE',  ( -19.81495457622366629, -18.00000000000001421, 45.00000000000000000 ) ) ;
#1023 = ORIENTED_EDGE ( 'NONE', *, *, #343, .F. ) ;
#1024 = LINE ( 'NONE', #851, #1126 ) ;
#1025 = CARTESIAN_POINT ( 'NONE',  ( -13.46410161513776060, -33.00000000000000000, 2.000000000000001776 ) ) ;
#1026 = CIRCLE ( 'NONE', #175, 12.00000000000000000 ) ;
#1027 = AXIS2_PLACEMENT_3D ( 'NONE', #880, #512, #1063 ) ;
#1028 = AXIS2_PLACEMENT_3D ( 'NONE', #369, #272, #26 ) ;
#1029 = DIRECTION ( 'NONE',  ( 0.6888285377082041805, 0.7249243033853790541, 0.000000000000000000 ) ) ;
#1030 = ORIENTED_EDGE ( 'NONE', *, *, #813, .T. ) ;
#1031 = CARTESIAN_POINT ( 'NONE',  ( 0.9228553599670199503, -8.365088278966190671, -4.999999999999997335 ) ) ;
#1032 = LINE ( 'NONE', #778, #667 ) ;
#1033 = DIRECTION ( 'NONE',  ( -1.000000000000000000, 0.000000000000000000, 0.000000000000000000 ) ) ;
#1034 = CARTESIAN_POINT ( 'NONE',  ( -23.41354938290800902, 18.77657075416408006, 45.00000000000000000 ) ) ;
#1035 = DIRECTION ( 'NONE',  ( -0.000000000000000000, -0.000000000000000000, 1.000000000000000000 ) ) ;
#1036 = EDGE_LOOP ( 'NONE', ( #1008, #359, #191, #430 ) ) ;
#1037 = EDGE_CURVE ( 'NONE', #141, #901, #246, .T. ) ;
#1038 = CARTESIAN_POINT ( 'NONE',  ( -23.95886589889649798, -32.99999999999999289, 45.00000000000000000 ) ) ;
#1039 = CARTESIAN_POINT ( 'NONE',  ( -13.46410161513776060, -33.00000000000000000, 2.000000000000001776 ) ) ;
#1040 = PLANE ( 'NONE',  #423 ) ;
#1041 = LINE ( 'NONE', #1139, #726 ) ;
#1042 = ORIENTED_EDGE ( 'NONE', *, *, #761, .T. ) ;
#1043 = CARTESIAN_POINT ( 'NONE',  ( 10.00000000000000355, -35.00000000000002132, 0.000000000000000000 ) ) ;
#1044 = SURFACE_STYLE_FILL_AREA ( #406 ) ;
#1045 = FACE_OUTER_BOUND ( 'NONE', #107, .T. ) ;
#1046 = VECTOR ( 'NONE', #24, 1000.000000000000000 ) ;
#1047 = EDGE_CURVE ( 'NONE', #192, #212, #439, .T. ) ;
#1048 = VECTOR ( 'NONE', #297, 1000.000000000000000 ) ;
#1049 = CARTESIAN_POINT ( 'NONE',  ( 26.29520597845528584, 15.74391054082096097, 45.00000000000000000 ) ) ;
#1050 = VECTOR ( 'NONE', #138, 1000.000000000000000 ) ;
#1051 = AXIS2_PLACEMENT_3D ( 'NONE', #819, #554, #167 ) ;
#1052 = VERTEX_POINT ( 'NONE', #997 ) ;
#1053 = DIRECTION ( 'NONE',  ( -1.000000000000000000, 0.000000000000000000, 0.000000000000000000 ) ) ;
#1054 = ADVANCED_FACE ( 'NONE', ( #181 ), #240, .F. ) ;
#1055 = ORIENTED_EDGE ( 'NONE', *, *, #195, .F. ) ;
#1056 = CARTESIAN_POINT ( 'NONE',  ( -10.00000000000000711, -31.00000000000000000, 2.000000000000001776 ) ) ;
#1057 = PLANE ( 'NONE',  #311 ) ;
#1058 = DIRECTION ( 'NONE',  ( -0.000000000000000000, -0.000000000000000000, 1.000000000000000000 ) ) ;
#1059 = VERTEX_POINT ( 'NONE', #728 ) ;
#1060 = DIRECTION ( 'NONE',  ( -0.000000000000000000, -0.000000000000000000, 1.000000000000000000 ) ) ;
#1061 = EDGE_CURVE ( 'NONE', #184, #999, #738, .T. ) ;
#1062 = ORIENTED_EDGE ( 'NONE', *, *, #465, .T. ) ;
#1063 = DIRECTION ( 'NONE',  ( -1.000000000000000000, 0.000000000000000000, -0.000000000000000000 ) ) ;
#1064 = DIRECTION ( 'NONE',  ( -0.000000000000000000, 1.000000000000000000, -0.000000000000000000 ) ) ;
#1065 = EDGE_LOOP ( 'NONE', ( #526, #386, #542, #627 ) ) ;
#1066 = VECTOR ( 'NONE', #586, 1000.000000000000000 ) ;
#1067 = CARTESIAN_POINT ( 'NONE',  ( 13.46410161513775883, -33.00000000000001421, 0.000000000000000000 ) ) ;
#1068 = CIRCLE ( 'NONE', #419, 1.999999999999998224 ) ;
#1069 = CIRCLE ( 'NONE', #547, 2.000000000000000000 ) ;
#1070 = ORIENTED_EDGE ( 'NONE', *, *, #279, .F. ) ;
#1071 = DIRECTION ( 'NONE',  ( 0.5000000000000005551, -0.8660254037844384856, 0.000000000000000000 ) ) ;
#1072 = AXIS2_PLACEMENT_3D ( 'NONE', #267, #643, #930 ) ;
#1073 = EDGE_CURVE ( 'NONE', #362, #141, #454, .T. ) ;
#1074 = DIRECTION ( 'NONE',  ( -0.000000000000000000, -0.000000000000000000, 1.000000000000000000 ) ) ;
#1075 = DIRECTION ( 'NONE',  ( -1.000000000000000000, 0.000000000000000000, 0.000000000000000000 ) ) ;
#1076 = ORIENTED_EDGE ( 'NONE', *, *, #883, .F. ) ;
#1077 = PLANE ( 'NONE',  #399 ) ;
#1078 = ADVANCED_FACE ( 'NONE', ( #105 ), #3, .F. ) ;
#1079 = ORIENTED_EDGE ( 'NONE', *, *, #385, .T. ) ;
#1080 = DIRECTION ( 'NONE',  ( -0.000000000000000000, 0.000000000000000000, 1.000000000000000000 ) ) ;
#1081 = ORIENTED_EDGE ( 'NONE', *, *, #165, .F. ) ;
#1082 = VERTEX_POINT ( 'NONE', #1097 ) ;
#1083 = ADVANCED_FACE ( 'NONE', ( #171, #561 ), #452, .F. ) ;
#1084 = LINE ( 'NONE', #258, #38 ) ;
#1085 = CARTESIAN_POINT ( 'NONE',  ( -17.50000000000000000, 24.99999999999999289, -5.000000000000000000 ) ) ;
#1086 = AXIS2_PLACEMENT_3D ( 'NONE', #835, #993, #828 ) ;
#1087 = VECTOR ( 'NONE', #178, 1000.000000000000000 ) ;
#1088 = AXIS2_PLACEMENT_3D ( 'NONE', #762, #599, #1120 ) ;
#1089 = ORIENTED_EDGE ( 'NONE', *, *, #562, .F. ) ;
#1090 = DIRECTION ( 'NONE',  ( -1.000000000000000000, 0.000000000000000000, 0.000000000000000000 ) ) ;
#1091 = EDGE_CURVE ( 'NONE', #1100, #329, #881, .T. ) ;
#1092 = FACE_OUTER_BOUND ( 'NONE', #719, .T. ) ;
#1093 = CARTESIAN_POINT ( 'NONE',  ( -19.81495457622366985, -18.00000000000001066, 45.00000000000000000 ) ) ;
#1094 = EDGE_CURVE ( 'NONE', #734, #892, #201, .T. ) ;
#1095 = ORIENTED_EDGE ( 'NONE', *, *, #979, .F. ) ;
#1096 = CARTESIAN_POINT ( 'NONE',  ( -9.422649730810411128, 3.830875953839375356E-17, 45.00000000000000000 ) ) ;
#1097 = CARTESIAN_POINT ( 'NONE',  ( 3.947228950986832885E-15, 24.99999999999999289, 13.00000000000001066 ) ) ;
#1098 = DIRECTION ( 'NONE',  ( 0.000000000000000000, 0.000000000000000000, 1.000000000000000000 ) ) ;
#1099 = ORIENTED_EDGE ( 'NONE', *, *, #1141, .F. ) ;
#1100 = VERTEX_POINT ( 'NONE', #282 ) ;
#1101 = VERTEX_POINT ( 'NONE', #537 ) ;
#1102 = VECTOR ( 'NONE', #894, 1000.000000000000000 ) ;
#1103 = EDGE_CURVE ( 'NONE', #414, #1052, #770, .T. ) ;
#1104 = CARTESIAN_POINT ( 'NONE',  ( 25.59716998747448358, -34.14715287270210098, 45.00000000000000000 ) ) ;
#1105 = AXIS2_PLACEMENT_3D ( 'NONE', #956, #779, #504 ) ;
#1106 = EDGE_LOOP ( 'NONE', ( #843, #1099, #340, #572 ) ) ;
#1107 = VECTOR ( 'NONE', #1115, 1000.000000000000000 ) ;
#1108 = CARTESIAN_POINT ( 'NONE',  ( 10.00000000000000000, -35.00000000000000000, 45.00000000000000000 ) ) ;
#1109 = CARTESIAN_POINT ( 'NONE',  ( -9.422649730810411128, -11.99999999999999822, 2.000000000000001776 ) ) ;
#1110 = DIRECTION ( 'NONE',  ( 0.5000000000000008882, 0.8660254037844382635, -4.739352673451123185E-15 ) ) ;
#1111 = VERTEX_POINT ( 'NONE', #657 ) ;
#1112 = CARTESIAN_POINT ( 'NONE',  ( 13.22173438785245736, -35.00000000000001421, 1.757633378400868862 ) ) ;
#1113 = ADVANCED_FACE ( 'NONE', ( #1013 ), #463, .F. ) ;
#1114 = ORIENTED_EDGE ( 'NONE', *, *, #727, .F. ) ;
#1115 = DIRECTION ( 'NONE',  ( 0.000000000000000000, 0.000000000000000000, -1.000000000000000000 ) ) ;
#1116 = ORIENTED_EDGE ( 'NONE', *, *, #850, .F. ) ;
#1117 = CARTESIAN_POINT ( 'NONE',  ( 46.00622614629106266, -4.999999999999993783, 45.00000000000000000 ) ) ;
#1118 = VERTEX_POINT ( 'NONE', #845 ) ;
#1119 = EDGE_LOOP ( 'NONE', ( #29, #14, #585, #281 ) ) ;
#1120 = DIRECTION ( 'NONE',  ( 1.000000000000000000, 0.000000000000000000, 0.000000000000000000 ) ) ;
#1121 = DIRECTION ( 'NONE',  ( 0.5000000000000021094, 0.8660254037844374864, 8.673617379884064068E-16 ) ) ;
#1122 = CARTESIAN_POINT ( 'NONE',  ( -12.97889459992065042, -35.00000000000000711, 1.514810228963161753 ) ) ;
#1123 = VERTEX_POINT ( 'NONE', #1093 ) ;
#1124 = CARTESIAN_POINT ( 'NONE',  ( 23.95886589889648732, -35.00000000000001421, 45.00000000000000000 ) ) ;
#1125 = VECTOR ( 'NONE', #79, 1000.000000000000000 ) ;
#1126 = VECTOR ( 'NONE', #485, 1000.000000000000000 ) ;
#1127 = AXIS2_PLACEMENT_3D ( 'NONE', #51, #338, #625 ) ;
#1128 = AXIS2_PLACEMENT_3D ( 'NONE', #895, #71, #351 ) ;
#1129 = DIRECTION ( 'NONE',  ( -1.000000000000000000, 0.000000000000000000, 0.000000000000000000 ) ) ;
#1130 = EDGE_CURVE ( 'NONE', #499, #905, #756, .T. ) ;
#1131 = ORIENTED_EDGE ( 'NONE', *, *, #219, .F. ) ;
#1132 = DIRECTION ( 'NONE',  ( 1.000000000000000000, -0.000000000000000000, 0.000000000000000000 ) ) ;
#1133 = DIRECTION ( 'NONE',  ( 0.000000000000000000, 0.000000000000000000, -1.000000000000000000 ) ) ;
#1134 = LINE ( 'NONE', #503, #1066 ) ;
#1135 = DIRECTION ( 'NONE',  ( 1.000000000000000000, 0.000000000000000000, 0.000000000000000000 ) ) ;
#1136 = ADVANCED_FACE ( 'NONE', ( #1019 ), #916, .T. ) ;
#1137 = ORIENTED_EDGE ( 'NONE', *, *, #232, .F. ) ;
#1138 = SURFACE_STYLE_USAGE ( .BOTH. , #298 ) ;
#1139 = CARTESIAN_POINT ( 'NONE',  ( 23.41354938290800902, 18.77657075416408006, 45.00000000000000000 ) ) ;
#1140 = ORIENTED_EDGE ( 'NONE', *, *, #1130, .T. ) ;
#1141 = EDGE_CURVE ( 'NONE', #414, #540, #401, .T. ) ;
#1142 = PLANE ( 'NONE',  #90 ) ;
#1143 = PLANE ( 'NONE',  #806 ) ;
#1144 =( LENGTH_UNIT ( ) NAMED_UNIT ( * ) SI_UNIT ( .MILLI., .METRE. ) );
#1145 = AXIS2_PLACEMENT_3D ( 'NONE', #855, #647, #30 ) ;
#1146 = CARTESIAN_POINT ( 'NONE',  ( 13.46410161513775883, -33.00000000000001421, 2.000000000000001776 ) ) ;
#1147 = VECTOR ( 'NONE', #1080, 1000.000000000000000 ) ;
#1148 = CIRCLE ( 'NONE', #902, 4.000000000000000000 ) ;
#1149 = EDGE_LOOP ( 'NONE', ( #253, #390, #777, #245 ) ) ;
#1150 = DIRECTION ( 'NONE',  ( 0.7249243033853789431, -0.6888285377082042915, 0.000000000000000000 ) ) ;
#1151 = CARTESIAN_POINT ( 'NONE',  ( 10.34665032002170015, -35.00000000000002132, -1.524659305057739871E-16 ) ) ;
#1152 = CARTESIAN_POINT ( 'NONE',  ( -29.59317691008183004, -28.44026355125265226, 45.00000000000000000 ) ) ;
#1153 = EDGE_CURVE ( 'NONE', #677, #852, #745, .T. ) ;
#1154 = DIRECTION ( 'NONE',  ( 0.000000000000000000, 0.000000000000000000, -1.000000000000000000 ) ) ;
#1155 = ORIENTED_EDGE ( 'NONE', *, *, #594, .T. ) ;
#1156 = CARTESIAN_POINT ( 'NONE',  ( 9.422649730810416457, 3.830875953839375356E-17, 45.00000000000000000 ) ) ;
#1157 = LINE ( 'NONE', #306, #6 ) ;
#1158 = ORIENTED_EDGE ( 'NONE', *, *, #15, .F. ) ;
#1159 = LINE ( 'NONE', #703, #145 ) ;
#1160 = EDGE_CURVE ( 'NONE', #96, #1082, #77, .T. ) ;
#1161 = ORIENTED_EDGE ( 'NONE', *, *, #804, .T. ) ;
#1162 = DIRECTION ( 'NONE',  ( 0.6888285377082042915, -0.7249243033853789431, 0.000000000000000000 ) ) ;
#1163 = CARTESIAN_POINT ( 'NONE',  ( -25.00000000000000000, -34.99999999999999289, 45.00000000000000000 ) ) ;
#1164 = EDGE_LOOP ( 'NONE', ( #957, #780, #322, #943 ) ) ;
#1165 = CARTESIAN_POINT ( 'NONE',  ( 23.95886589889649088, -33.00000000000001421, 45.00000000000000000 ) ) ;
#1166 = CIRCLE ( 'NONE', #822, 10.00000000000000178 ) ;
#1167 = AXIS2_PLACEMENT_3D ( 'NONE', #334, #502, #884 ) ;
#1168 = EDGE_CURVE ( 'NONE', #829, #41, #549, .T. ) ;
#1169 = EDGE_LOOP ( 'NONE', ( #461, #996, #63, #656 ) ) ;
#1170 = DIRECTION ( 'NONE',  ( -0.5735764363510419406, 0.8191520442889945741, 0.000000000000000000 ) ) ;
#1171 = EDGE_LOOP ( 'NONE', ( #858, #925, #295, #373, #918, #425, #879, #945, #800, #250 ) ) ;
#1172 = CYLINDRICAL_SURFACE ( 'NONE', #7, 1.999999999999998224 ) ;
#1173 = ORIENTED_EDGE ( 'NONE', *, *, #535, .T. ) ;
#1174 = ADVANCED_FACE ( 'NONE', ( #936 ), #1040, .T. ) ;
#1175 = CARTESIAN_POINT ( 'NONE',  ( -8.267949192431125027, -34.00000000000000000, 2.000000000000001776 ) ) ;
#1176 = ORIENTED_EDGE ( 'NONE', *, *, #620, .T. ) ;
#1177 = CARTESIAN_POINT ( 'NONE',  ( 28.47520861406810155, 1.000000000000002442, 2.000000000000001776 ) ) ;
ENDSEC;
END-ISO-10303-21;
