ISO-10303-21;
HEADER;
FILE_DESCRIPTION (( 'STEP AP214' ),
    '1' );
FILE_NAME ('Gripper Insert 3mm.STEP',
    '2026-05-30T04:45:18',
    ( '' ),
    ( '' ),
    'SwSTEP 2.0',
    'SolidWorks 2025',
    '' );
FILE_SCHEMA (( 'AUTOMOTIVE_DESIGN' ));
ENDSEC;

DATA;
#1 = AXIS2_PLACEMENT_3D ( 'NONE', #568, #932, #19 ) ;
#2 = ORIENTED_EDGE ( 'NONE', *, *, #939, .F. ) ;
#3 = DIRECTION ( 'NONE',  ( -1.000000000000000000, -7.586993339517289199E-17, 0.000000000000000000 ) ) ;
#4 = DIRECTION ( 'NONE',  ( -0.000000000000000000, -0.000000000000000000, 1.000000000000000000 ) ) ;
#5 = EDGE_CURVE ( 'NONE', #687, #626, #154, .T. ) ;
#6 = VECTOR ( 'NONE', #576, 1000.000000000000000 ) ;
#7 = EDGE_CURVE ( 'NONE', #405, #915, #74, .T. ) ;
#8 = PRESENTATION_STYLE_ASSIGNMENT (( #814 ) ) ;
#9 = CARTESIAN_POINT ( 'NONE',  ( 22.36972951738774995, -19.47500000000002629, 2.000000000000000000 ) ) ;
#10 = ADVANCED_FACE ( 'NONE', ( #1074 ), #791, .T. ) ;
#11 = CARTESIAN_POINT ( 'NONE',  ( -6.447387849448178443, -3.049999999999996714, -44.89999999999999858 ) ) ;
#12 = DIRECTION ( 'NONE',  ( 1.000000000000000000, 0.000000000000000000, 0.000000000000000000 ) ) ;
#13 = EDGE_CURVE ( 'NONE', #170, #204, #974, .T. ) ;
#14 = CYLINDRICAL_SURFACE ( 'NONE', #573, 76.00000000000000000 ) ;
#15 = DIRECTION ( 'NONE',  ( -0.000000000000000000, -0.000000000000000000, -1.000000000000000000 ) ) ;
#16 = PLANE ( 'NONE',  #881 ) ;
#17 = AXIS2_PLACEMENT_3D ( 'NONE', #943, #870, #769 ) ;
#18 = VERTEX_POINT ( 'NONE', #993 ) ;
#19 = DIRECTION ( 'NONE',  ( -0.8660254037844381525, -0.5000000000000011102, 0.000000000000000000 ) ) ;
#20 = DIRECTION ( 'NONE',  ( -1.000000000000000000, -7.586993339517289199E-17, -0.000000000000000000 ) ) ;
#21 = VECTOR ( 'NONE', #229, 1000.000000000000000 ) ;
#22 = LINE ( 'NONE', #572, #934 ) ;
#23 = ORIENTED_EDGE ( 'NONE', *, *, #349, .T. ) ;
#24 = DIRECTION ( 'NONE',  ( 0.5000000000000012212, -0.8660254037844379305, 0.000000000000000000 ) ) ;
#25 = FACE_OUTER_BOUND ( 'NONE', #358, .T. ) ;
#26 = FACE_OUTER_BOUND ( 'NONE', #1171, .T. ) ;
#27 = CIRCLE ( 'NONE', #493, 11.94999999999999574 ) ;
#28 = VECTOR ( 'NONE', #981, 1000.000000000000000 ) ;
#29 = ORIENTED_EDGE ( 'NONE', *, *, #662, .T. ) ;
#30 = DIRECTION ( 'NONE',  ( -1.000000000000000000, 0.000000000000000000, 0.000000000000000000 ) ) ;
#31 = CARTESIAN_POINT ( 'NONE',  ( -9.422649730810423563, -0.05000000000000316691, -42.79999999999999716 ) ) ;
#32 = EDGE_CURVE ( 'NONE', #828, #890, #345, .T. ) ;
#33 = CARTESIAN_POINT ( 'NONE',  ( -6.108360820270982927, -5.981469107249125727, -44.89999999999999858 ) ) ;
#34 = DIRECTION ( 'NONE',  ( 1.000000000000000000, 0.000000000000000000, 0.000000000000000000 ) ) ;
#35 = EDGE_CURVE ( 'NONE', #204, #135, #1092, .T. ) ;
#36 = ORIENTED_EDGE ( 'NONE', *, *, #81, .F. ) ;
#37 = DIRECTION ( 'NONE',  ( 0.000000000000000000, 0.000000000000000000, -1.000000000000000000 ) ) ;
#38 = CYLINDRICAL_SURFACE ( 'NONE', #397, 14.94999999999999396 ) ;
#39 = ORIENTED_EDGE ( 'NONE', *, *, #261, .F. ) ;
#40 = CARTESIAN_POINT ( 'NONE',  ( 9.422649730810407576, -12.00000000000000000, 2.000000000000000000 ) ) ;
#41 = CARTESIAN_POINT ( 'NONE',  ( -22.36972951738776771, -19.47500000000000497, 0.000000000000000000 ) ) ;
#42 = ORIENTED_EDGE ( 'NONE', *, *, #7, .F. ) ;
#43 = CIRCLE ( 'NONE', #510, 2.000000000000000000 ) ;
#44 = DIRECTION ( 'NONE',  ( 1.000000000000000000, 0.000000000000000000, 0.000000000000000000 ) ) ;
#45 = ORIENTED_EDGE ( 'NONE', *, *, #933, .T. ) ;
#46 = CARTESIAN_POINT ( 'NONE',  ( -6.447387849448179331, -5.049999999999997158, 2.000000000000000000 ) ) ;
#47 = DIRECTION ( 'NONE',  ( -0.3420201433256687129, 0.9396926207859083169, 0.000000000000000000 ) ) ;
#48 = CIRCLE ( 'NONE', #412, 14.94999999999999396 ) ;
#49 = CARTESIAN_POINT ( 'NONE',  ( 77.52499999999999147, -31.97500000000000497, 2.000000000000000000 ) ) ;
#50 = EDGE_CURVE ( 'NONE', #152, #834, #1114, .T. ) ;
#51 = ORIENTED_EDGE ( 'NONE', *, *, #560, .F. ) ;
#52 = ORIENTED_EDGE ( 'NONE', *, *, #770, .F. ) ;
#53 = CARTESIAN_POINT ( 'NONE',  ( -21.37264973081041219, -11.99999999999999822, -42.79999999999999716 ) ) ;
#54 = VERTEX_POINT ( 'NONE', #442 ) ;
#55 = EDGE_CURVE ( 'NONE', #129, #739, #696, .T. ) ;
#56 = CIRCLE ( 'NONE', #419, 2.000000000000000000 ) ;
#57 = CARTESIAN_POINT ( 'NONE',  ( 6.108360820270982927, -5.981469107249125727, 2.000000000000000000 ) ) ;
#58 = DIRECTION ( 'NONE',  ( -0.5000000000000013323, -0.8660254037844379305, -0.000000000000000000 ) ) ;
#59 = CYLINDRICAL_SURFACE ( 'NONE', #381, 2.000000000000000000 ) ;
#60 = ORIENTED_EDGE ( 'NONE', *, *, #1118, .F. ) ;
#61 = VERTEX_POINT ( 'NONE', #887 ) ;
#62 = CARTESIAN_POINT ( 'NONE',  ( 4.447387849448178443, -3.049999999999996714, -44.89999999999999858 ) ) ;
#63 = ORIENTED_EDGE ( 'NONE', *, *, #613, .T. ) ;
#64 = DIRECTION ( 'NONE',  ( -0.8660254037844381525, 0.5000000000000011102, 0.000000000000000000 ) ) ;
#65 = CARTESIAN_POINT ( 'NONE',  ( 9.422649730810407576, -12.00000000000000000, 0.000000000000000000 ) ) ;
#66 = CARTESIAN_POINT ( 'NONE',  ( -9.422649730810423563, -2.150000000000001688, -42.79999999999999716 ) ) ;
#67 = CIRCLE ( 'NONE', #903, 2.099999999999997868 ) ;
#68 = ORIENTED_EDGE ( 'NONE', *, *, #682, .T. ) ;
#69 = VECTOR ( 'NONE', #815, 1000.000000000000000 ) ;
#70 = ORIENTED_EDGE ( 'NONE', *, *, #274, .T. ) ;
#71 = CARTESIAN_POINT ( 'NONE',  ( 11.68874953737964795, -31.97500000000001563, -42.79999999999999716 ) ) ;
#72 = ORIENTED_EDGE ( 'NONE', *, *, #1056, .T. ) ;
#73 = CARTESIAN_POINT ( 'NONE',  ( 2.531666962989301162, -31.97500000000000497, 2.000000000000000000 ) ) ;
#74 = LINE ( 'NONE', #417, #854 ) ;
#75 = DIRECTION ( 'NONE',  ( -0.000000000000000000, -0.000000000000000000, -1.000000000000000000 ) ) ;
#76 = ORIENTED_EDGE ( 'NONE', *, *, #827, .T. ) ;
#77 = LINE ( 'NONE', #803, #561 ) ;
#78 = ORIENTED_EDGE ( 'NONE', *, *, #274, .F. ) ;
#79 = CARTESIAN_POINT ( 'NONE',  ( 9.422649730810407576, -12.00000000000000000, -98.35134722819698538 ) ) ;
#80 = CARTESIAN_POINT ( 'NONE',  ( -22.36972951738776771, -19.47500000000000497, 2.000000000000000000 ) ) ;
#81 = EDGE_CURVE ( 'NONE', #1062, #272, #216, .T. ) ;
#82 =( BOUNDED_CURVE ( )  B_SPLINE_CURVE ( 3, ( #668, #375, #562, #1037 ),
 .UNSPECIFIED., .F., .F. ) 
 B_SPLINE_CURVE_WITH_KNOTS ( ( 4, 4 ),
 ( 3.141592653589793116, 4.712388980384687898 ),
 .UNSPECIFIED. ) 
 CURVE ( )  GEOMETRIC_REPRESENTATION_ITEM ( )  RATIONAL_B_SPLINE_CURVE ( ( 1.000000000000000000, 0.8047378541243654926, 0.8047378541243654926, 1.000000000000000000 ) ) 
 REPRESENTATION_ITEM ( '' )  );
#83 = ORIENTED_EDGE ( 'NONE', *, *, #1067, .F. ) ;
#84 =( NAMED_UNIT ( * ) SI_UNIT ( $, .STERADIAN. ) SOLID_ANGLE_UNIT ( ) );
#85 = ORIENTED_EDGE ( 'NONE', *, *, #477, .F. ) ;
#86 = LINE ( 'NONE', #922, #608 ) ;
#87 = DIRECTION ( 'NONE',  ( -0.5000000000000012212, 0.8660254037844380415, -0.000000000000000000 ) ) ;
#88 = ADVANCED_FACE ( 'NONE', ( #327 ), #630, .T. ) ;
#89 = AXIS2_PLACEMENT_3D ( 'NONE', #280, #1015, #730 ) ;
#90 = EDGE_LOOP ( 'NONE', ( #1029, #701, #1088, #646 ) ) ;
#91 = CARTESIAN_POINT ( 'NONE',  ( -19.77165330603444815, -17.97500000000000853, -42.79999999999999716 ) ) ;
#92 = DIRECTION ( 'NONE',  ( 1.000000000000000000, 0.000000000000000000, 0.000000000000000000 ) ) ;
#93 = ADVANCED_FACE ( 'NONE', ( #896 ), #262, .T. ) ;
#94 = AXIS2_PLACEMENT_3D ( 'NONE', #137, #636, #237 ) ;
#95 = CIRCLE ( 'NONE', #766, 2.000000000000000000 ) ;
#96 = CARTESIAN_POINT ( 'NONE',  ( -9.422649730810423563, -1.049999999999996714, -44.58885438199982332 ) ) ;
#97 = CARTESIAN_POINT ( 'NONE',  ( -77.52499999999999147, -31.97500000000000497, -44.89999999999999858 ) ) ;
#98 = DIRECTION ( 'NONE',  ( 1.000000000000000000, -4.336808689942016750E-16, 0.000000000000000000 ) ) ;
#99 = EDGE_CURVE ( 'NONE', #54, #898, #426, .T. ) ;
#100 = CARTESIAN_POINT ( 'NONE',  ( 6.447387849448178443, -3.049999999999996714, -44.89999999999999858 ) ) ;
#101 = AXIS2_PLACEMENT_3D ( 'NONE', #33, #392, #215 ) ;
#102 = AXIS2_PLACEMENT_3D ( 'NONE', #844, #935, #113 ) ;
#103 = FACE_OUTER_BOUND ( 'NONE', #399, .T. ) ;
#104 = FACE_OUTER_BOUND ( 'NONE', #1014, .T. ) ;
#105 = DIRECTION ( 'NONE',  ( 0.8660254037844379305, -0.5000000000000013323, 0.000000000000000000 ) ) ;
#106 = VERTEX_POINT ( 'NONE', #508 ) ;
#107 = DIRECTION ( 'NONE',  ( 1.000000000000000000, 0.000000000000000000, 0.000000000000000000 ) ) ;
#108 = DIRECTION ( 'NONE',  ( -0.000000000000000000, -0.000000000000000000, -1.000000000000000000 ) ) ;
#109 = DIRECTION ( 'NONE',  ( -0.000000000000000000, -0.000000000000000000, 1.000000000000000000 ) ) ;
#110 = AXIS2_PLACEMENT_3D ( 'NONE', #114, #675, #407 ) ;
#111 = ADVANCED_FACE ( 'NONE', ( #1000 ), #798, .F. ) ;
#112 = ORIENTED_EDGE ( 'NONE', *, *, #1027, .F. ) ;
#113 = DIRECTION ( 'NONE',  ( -8.260587980841937794E-16, 1.000000000000000000, 0.000000000000000000 ) ) ;
#114 = CARTESIAN_POINT ( 'NONE',  ( -9.422649730810416457, -11.99999999999999822, -42.79999999999999716 ) ) ;
#115 = VECTOR ( 'NONE', #589, 1000.000000000000000 ) ;
#116 = PLANE ( 'NONE',  #833 ) ;
#117 = EDGE_CURVE ( 'NONE', #170, #787, #913, .T. ) ;
#118 = VERTEX_POINT ( 'NONE', #1149 ) ;
#119 = CARTESIAN_POINT ( 'NONE',  ( -9.422649730810416457, -11.99999999999999822, -42.79999999999999716 ) ) ;
#120 = LINE ( 'NONE', #775, #1013 ) ;
#121 = EDGE_CURVE ( 'NONE', #875, #634, #807, .T. ) ;
#122 = DIRECTION ( 'NONE',  ( -1.000000000000000000, 0.000000000000000000, 0.000000000000000000 ) ) ;
#123 = DIRECTION ( 'NONE',  ( 0.000000000000000000, 0.000000000000000000, 1.000000000000000000 ) ) ;
#124 = AXIS2_PLACEMENT_3D ( 'NONE', #563, #824, #659 ) ;
#125 = AXIS2_PLACEMENT_3D ( 'NONE', #593, #294, #960 ) ;
#126 = VERTEX_POINT ( 'NONE', #722 ) ;
#127 = CARTESIAN_POINT ( 'NONE',  ( -11.68874953737966393, -31.97500000000000497, -44.89999999999999858 ) ) ;
#128 = LINE ( 'NONE', #219, #1164 ) ;
#129 = VERTEX_POINT ( 'NONE', #642 ) ;
#130 = CARTESIAN_POINT ( 'NONE',  ( 6.447387849448179331, -5.049999999999997158, 2.000000000000000000 ) ) ;
#131 = LINE ( 'NONE', #1135, #142 ) ;
#132 = EDGE_CURVE ( 'NONE', #965, #1062, #27, .T. ) ;
#133 = ORIENTED_EDGE ( 'NONE', *, *, #391, .F. ) ;
#134 = LINE ( 'NONE', #524, #661 ) ;
#135 = VERTEX_POINT ( 'NONE', #737 ) ;
#136 = DIRECTION ( 'NONE',  ( 0.5000000000000013323, -0.8660254037844380415, -0.000000000000000000 ) ) ;
#137 = CARTESIAN_POINT ( 'NONE',  ( 0.000000000000000000, 0.000000000000000000, -44.89999999999999858 ) ) ;
#138 = FACE_OUTER_BOUND ( 'NONE', #233, .T. ) ;
#139 = EDGE_CURVE ( 'NONE', #965, #911, #1016, .T. ) ;
#140 = EDGE_LOOP ( 'NONE', ( #871, #331, #1069, #149 ) ) ;
#141 = ORIENTED_EDGE ( 'NONE', *, *, #526, .F. ) ;
#142 = VECTOR ( 'NONE', #681, 999.9999999999998863 ) ;
#143 = CARTESIAN_POINT ( 'NONE',  ( -6.447387849448178443, -3.049999999999996714, -44.89999999999999858 ) ) ;
#144 = ORIENTED_EDGE ( 'NONE', *, *, #1034, .T. ) ;
#145 = DIRECTION ( 'NONE',  ( 0.000000000000000000, 0.000000000000000000, -1.000000000000000000 ) ) ;
#146 = DIRECTION ( 'NONE',  ( -1.000000000000000000, 0.000000000000000000, 0.000000000000000000 ) ) ;
#147 = AXIS2_PLACEMENT_3D ( 'NONE', #389, #469, #107 ) ;
#148 = PLANE ( 'NONE',  #180 ) ;
#149 = ORIENTED_EDGE ( 'NONE', *, *, #404, .T. ) ;
#150 = ORIENTED_EDGE ( 'NONE', *, *, #553, .F. ) ;
#151 = CARTESIAN_POINT ( 'NONE',  ( 2.531666962989301162, -31.97500000000001208, -98.35134722819698538 ) ) ;
#152 = VERTEX_POINT ( 'NONE', #1191 ) ;
#153 = CARTESIAN_POINT ( 'NONE',  ( 21.37264973081040509, -12.00000000000000000, -98.35134722819698538 ) ) ;
#154 = LINE ( 'NONE', #168, #186 ) ;
#155 = CARTESIAN_POINT ( 'NONE',  ( -4.447387849448179331, -1.049999999999996714, -44.89999999999999858 ) ) ;
#156 = VERTEX_POINT ( 'NONE', #9 ) ;
#157 = ORIENTED_EDGE ( 'NONE', *, *, #785, .T. ) ;
#158 = CARTESIAN_POINT ( 'NONE',  ( 1.631203567996218367E-16, -2.150000000000001243, -44.89999999999999858 ) ) ;
#159 = ORIENTED_EDGE ( 'NONE', *, *, #1056, .F. ) ;
#160 = DIRECTION ( 'NONE',  ( 1.000000000000000000, -5.936386849352206738E-16, 0.000000000000000000 ) ) ;
#161 = CARTESIAN_POINT ( 'NONE',  ( -2.531666962989301162, -30.97500000000000853, -44.89999999999999858 ) ) ;
#162 = DIRECTION ( 'NONE',  ( -1.000000000000000000, 0.000000000000000000, 0.000000000000000000 ) ) ;
#163 = ORIENTED_EDGE ( 'NONE', *, *, #182, .T. ) ;
#164 = VERTEX_POINT ( 'NONE', #550 ) ;
#165 = LINE ( 'NONE', #342, #574 ) ;
#166 = ORIENTED_EDGE ( 'NONE', *, *, #991, .F. ) ;
#167 = DIRECTION ( 'NONE',  ( 1.000000000000000000, 0.000000000000000000, 0.000000000000000000 ) ) ;
#168 = CARTESIAN_POINT ( 'NONE',  ( -6.108360820270982927, -5.981469107249125727, 2.000000000000000000 ) ) ;
#169 = EDGE_CURVE ( 'NONE', #921, #156, #179, .T. ) ;
#170 = VERTEX_POINT ( 'NONE', #750 ) ;
#171 = ORIENTED_EDGE ( 'NONE', *, *, #378, .T. ) ;
#172 = CARTESIAN_POINT ( 'NONE',  ( 5.173978167456755095, -1.177713792975637386, -44.66225151908466984 ) ) ;
#173 = PLANE ( 'NONE',  #660 ) ;
#174 = ADVANCED_FACE ( 'NONE', ( #1097 ), #747, .T. ) ;
#175 = ORIENTED_EDGE ( 'NONE', *, *, #832, .F. ) ;
#176 = CARTESIAN_POINT ( 'NONE',  ( 0.000000000000000000, 0.000000000000000000, 0.000000000000000000 ) ) ;
#177 = VERTEX_POINT ( 'NONE', #1111 ) ;
#178 = CARTESIAN_POINT ( 'NONE',  ( -11.68874953737966393, -31.97500000000000497, -44.89999999999999858 ) ) ;
#179 = LINE ( 'NONE', #923, #1078 ) ;
#180 = AXIS2_PLACEMENT_3D ( 'NONE', #519, #888, #246 ) ;
#181 = ADVANCED_FACE ( 'NONE', ( #461 ), #285, .T. ) ;
#182 = EDGE_CURVE ( 'NONE', #388, #698, #648, .T. ) ;
#183 = AXIS2_PLACEMENT_3D ( 'NONE', #1006, #541, #641 ) ;
#184 = VECTOR ( 'NONE', #1165, 1000.000000000000227 ) ;
#185 = ORIENTED_EDGE ( 'NONE', *, *, #121, .T. ) ;
#186 = VECTOR ( 'NONE', #47, 1000.000000000000227 ) ;
#187 = FILL_AREA_STYLE ('',( #534 ) ) ;
#188 = DIRECTION ( 'NONE',  ( -1.000000000000000000, 0.000000000000000000, 0.000000000000000000 ) ) ;
#189 = VECTOR ( 'NONE', #1175, 1000.000000000000000 ) ;
#190 = VECTOR ( 'NONE', #44, 1000.000000000000000 ) ;
#191 = CARTESIAN_POINT ( 'NONE',  ( -6.447387849448179331, -5.049999999999997158, -44.89999999999999858 ) ) ;
#192 = DIRECTION ( 'NONE',  ( 0.000000000000000000, 0.000000000000000000, 1.000000000000000000 ) ) ;
#193 = PRODUCT_RELATED_PRODUCT_CATEGORY ( 'part', '', ( #964 ) ) ;
#194 = CARTESIAN_POINT ( 'NONE',  ( 4.447387849448178443, -3.049999999999996714, 2.000000000000000000 ) ) ;
#195 = CARTESIAN_POINT ( 'NONE',  ( 15.15285115251741566, -31.97500000000000497, 0.000000000000000000 ) ) ;
#196 = PLANE ( 'NONE',  #976 ) ;
#197 = AXIS2_PLACEMENT_3D ( 'NONE', #777, #483, #851 ) ;
#198 = CIRCLE ( 'NONE', #367, 9.849999999999997868 ) ;
#199 = EDGE_LOOP ( 'NONE', ( #68, #990, #1139, #693 ) ) ;
#200 = CARTESIAN_POINT ( 'NONE',  ( 4.447387849448179331, -1.049999999999996714, -44.89999999999999858 ) ) ;
#201 = LINE ( 'NONE', #1054, #1179 ) ;
#202 = LINE ( 'NONE', #321, #637 ) ;
#203 = ADVANCED_FACE ( 'NONE', ( #268 ), #1012, .T. ) ;
#204 = VERTEX_POINT ( 'NONE', #1107 ) ;
#205 = CARTESIAN_POINT ( 'NONE',  ( -77.52499999999999147, -31.97500000000000497, 2.000000000000000000 ) ) ;
#206 = CARTESIAN_POINT ( 'NONE',  ( 9.263878406783218722, -31.97500000000001563, -44.89999999999999858 ) ) ;
#207 = FACE_OUTER_BOUND ( 'NONE', #428, .T. ) ;
#208 = EDGE_CURVE ( 'NONE', #834, #767, #620, .T. ) ;
#209 = EDGE_CURVE ( 'NONE', #152, #970, #559, .T. ) ;
#210 = ORIENTED_EDGE ( 'NONE', *, *, #564, .T. ) ;
#211 = CARTESIAN_POINT ( 'NONE',  ( -4.822663468682699239, -1.077043502546082943, -44.60612445398274417 ) ) ;
#212 = CARTESIAN_POINT ( 'NONE',  ( -9.422649730810416457, -11.99999999999999822, 2.000000000000000000 ) ) ;
#213 = FACE_OUTER_BOUND ( 'NONE', #732, .T. ) ;
#214 = AXIS2_PLACEMENT_3D ( 'NONE', #688, #1050, #1064 ) ;
#215 = DIRECTION ( 'NONE',  ( -0.3420201433256687129, 0.9396926207859083169, 0.000000000000000000 ) ) ;
#216 = CIRCLE ( 'NONE', #752, 2.099999999999997868 ) ;
#217 = ORIENTED_EDGE ( 'NONE', *, *, #748, .F. ) ;
#218 = DIRECTION ( 'NONE',  ( -1.000000000000000000, 0.000000000000000000, 0.000000000000000000 ) ) ;
#219 = CARTESIAN_POINT ( 'NONE',  ( 9.422649730810384483, 2.949999999999997957, 2.000000000000000000 ) ) ;
#220 = ORIENTED_EDGE ( 'NONE', *, *, #356, .T. ) ;
#221 = ADVANCED_FACE ( 'NONE', ( #373 ), #173, .F. ) ;
#222 = LINE ( 'NONE', #153, #852 ) ;
#223 = CYLINDRICAL_SURFACE ( 'NONE', #1192, 1.000000000000000000 ) ;
#224 = ORIENTED_EDGE ( 'NONE', *, *, #564, .F. ) ;
#225 = DIRECTION ( 'NONE',  ( -0.000000000000000000, -0.000000000000000000, 1.000000000000000000 ) ) ;
#226 = EDGE_CURVE ( 'NONE', #106, #228, #535, .T. ) ;
#227 = CARTESIAN_POINT ( 'NONE',  ( 6.108360820270982927, -5.981469107249125727, -44.89999999999999858 ) ) ;
#228 = VERTEX_POINT ( 'NONE', #831 ) ;
#229 = DIRECTION ( 'NONE',  ( -1.000000000000000000, -1.380760873163336883E-16, 0.000000000000000000 ) ) ;
#230 = CARTESIAN_POINT ( 'NONE',  ( 9.422649730810393365, -0.05000000000000000278, -98.35134722819698538 ) ) ;
#231 = CARTESIAN_POINT ( 'NONE',  ( -22.36972951738776771, -19.47500000000000497, 0.000000000000000000 ) ) ;
#232 = TOROIDAL_SURFACE ( 'NONE', #604, 9.849999999999997868, 2.100000000000000089 ) ;
#233 = EDGE_LOOP ( 'NONE', ( #1085, #891, #413, #318 ) ) ;
#234 = CARTESIAN_POINT ( 'NONE',  ( 11.68874953737964972, -31.97500000000001918, -44.03015151901649915 ) ) ;
#235 = EDGE_LOOP ( 'NONE', ( #909, #862, #531, #273 ) ) ;
#236 = DIRECTION ( 'NONE',  ( 1.000000000000000000, 0.000000000000000000, 0.000000000000000000 ) ) ;
#237 = DIRECTION ( 'NONE',  ( -1.000000000000000000, 0.000000000000000000, -0.000000000000000000 ) ) ;
#238 = DIRECTION ( 'NONE',  ( 0.000000000000000000, 0.000000000000000000, 1.000000000000000000 ) ) ;
#239 = CIRCLE ( 'NONE', #89, 14.94999999999999396 ) ;
#240 = ORIENTED_EDGE ( 'NONE', *, *, #560, .T. ) ;
#241 = ORIENTED_EDGE ( 'NONE', *, *, #347, .F. ) ;
#242 = CARTESIAN_POINT ( 'NONE',  ( 10.68433502807962654, -31.97500000000001918, -44.90000000000000568 ) ) ;
#243 = VERTEX_POINT ( 'NONE', #73 ) ;
#244 = CARTESIAN_POINT ( 'NONE',  ( -11.68874953737966393, -31.97500000000000497, -42.79999999999999716 ) ) ;
#245 = DIRECTION ( 'NONE',  ( 0.5000000000000011102, -0.8660254037844379305, 0.000000000000000000 ) ) ;
#246 = DIRECTION ( 'NONE',  ( 0.000000000000000000, -0.000000000000000000, -1.000000000000000000 ) ) ;
#247 = VECTOR ( 'NONE', #918, 1000.000000000000000 ) ;
#248 = VECTOR ( 'NONE', #15, 1000.000000000000000 ) ;
#249 = ADVANCED_FACE ( 'NONE', ( #741 ), #457, .T. ) ;
#250 = ORIENTED_EDGE ( 'NONE', *, *, #35, .F. ) ;
#251 = VERTEX_POINT ( 'NONE', #91 ) ;
#252 = DIRECTION ( 'NONE',  ( -1.000000000000000000, 0.000000000000000000, 0.000000000000000000 ) ) ;
#253 = VERTEX_POINT ( 'NONE', #627 ) ;
#254 = DIRECTION ( 'NONE',  ( 0.000000000000000000, 0.000000000000000000, 1.000000000000000000 ) ) ;
#255 = CARTESIAN_POINT ( 'NONE',  ( -1.531666962989301162, -30.97500000000000853, -44.89999999999999858 ) ) ;
#256 = EDGE_CURVE ( 'NONE', #228, #272, #1116, .T. ) ;
#257 = VERTEX_POINT ( 'NONE', #1011 ) ;
#258 = ORIENTED_EDGE ( 'NONE', *, *, #1160, .F. ) ;
#259 = LINE ( 'NONE', #795, #786 ) ;
#260 = ORIENTED_EDGE ( 'NONE', *, *, #557, .T. ) ;
#261 = EDGE_CURVE ( 'NONE', #921, #698, #354, .T. ) ;
#262 = PLANE ( 'NONE',  #94 ) ;
#263 = ORIENTED_EDGE ( 'NONE', *, *, #256, .T. ) ;
#264 = APPLICATION_PROTOCOL_DEFINITION ( 'draft international standard', 'automotive_design', 1998, #907 ) ;
#265 = VERTEX_POINT ( 'NONE', #912 ) ;
#266 = LINE ( 'NONE', #96, #1068 ) ;
#267 = AXIS2_PLACEMENT_3D ( 'NONE', #578, #1130, #1039 ) ;
#268 = FACE_OUTER_BOUND ( 'NONE', #902, .T. ) ;
#269 = EDGE_CURVE ( 'NONE', #106, #767, #736, .T. ) ;
#270 = AXIS2_PLACEMENT_3D ( 'NONE', #674, #663, #1023 ) ;
#271 =( GEOMETRIC_REPRESENTATION_CONTEXT ( 3 ) GLOBAL_UNCERTAINTY_ASSIGNED_CONTEXT ( ( #840 ) ) GLOBAL_UNIT_ASSIGNED_CONTEXT ( ( #733, #278, #84 ) ) REPRESENTATION_CONTEXT ( 'NONE', 'WORKASPACE' ) );
#272 = VERTEX_POINT ( 'NONE', #549 ) ;
#273 = ORIENTED_EDGE ( 'NONE', *, *, #899, .F. ) ;
#274 = EDGE_CURVE ( 'NONE', #767, #253, #86, .T. ) ;
#275 = CYLINDRICAL_SURFACE ( 'NONE', #183, 1.000000000000000000 ) ;
#276 = DIRECTION ( 'NONE',  ( 0.5000000000000013323, 0.8660254037844379305, 0.000000000000000000 ) ) ;
#277 = EDGE_CURVE ( 'NONE', #18, #170, #239, .T. ) ;
#278 =( NAMED_UNIT ( * ) PLANE_ANGLE_UNIT ( ) SI_UNIT ( $, .RADIAN. ) );
#279 = ORIENTED_EDGE ( 'NONE', *, *, #649, .F. ) ;
#280 = CARTESIAN_POINT ( 'NONE',  ( -9.422649730810416457, -11.99999999999999822, 2.000000000000000000 ) ) ;
#281 = CARTESIAN_POINT ( 'NONE',  ( -9.422649730810423563, -0.05000000000000316691, -98.35134722819698538 ) ) ;
#282 = VECTOR ( 'NONE', #792, 1000.000000000000000 ) ;
#283 = VECTOR ( 'NONE', #495, 999.9999999999998863 ) ;
#284 = CARTESIAN_POINT ( 'NONE',  ( 9.422649730810407576, -12.00000000000000000, 0.000000000000000000 ) ) ;
#285 = CYLINDRICAL_SURFACE ( 'NONE', #124, 11.94999999999999574 ) ;
#286 = VECTOR ( 'NONE', #87, 999.9999999999998863 ) ;
#287 = AXIS2_PLACEMENT_3D ( 'NONE', #989, #439, #892 ) ;
#288 = FACE_OUTER_BOUND ( 'NONE', #958, .T. ) ;
#289 = DIRECTION ( 'NONE',  ( 0.8660254037844381525, -0.5000000000000011102, 0.000000000000000000 ) ) ;
#290 = EDGE_CURVE ( 'NONE', #915, #1100, #924, .T. ) ;
#291 = CIRCLE ( 'NONE', #110, 11.94999999999999574 ) ;
#292 = ORIENTED_EDGE ( 'NONE', *, *, #1108, .F. ) ;
#293 = CARTESIAN_POINT ( 'NONE',  ( -9.422649730810421786, -2.150000000000001688, -44.89999999999999858 ) ) ;
#294 = DIRECTION ( 'NONE',  ( 0.000000000000000000, 0.000000000000000000, 1.000000000000000000 ) ) ;
#295 = EDGE_CURVE ( 'NONE', #333, #164, #266, .T. ) ;
#296 = CARTESIAN_POINT ( 'NONE',  ( 6.233444959397354879, -2.150000000000000799, -44.89999999999999858 ) ) ;
#297 = AXIS2_PLACEMENT_3D ( 'NONE', #702, #433, #236 ) ;
#298 = VECTOR ( 'NONE', #1115, 1000.000000000000000 ) ;
#299 = ORIENTED_EDGE ( 'NONE', *, *, #763, .F. ) ;
#300 = DIRECTION ( 'NONE',  ( -1.000000000000000000, 0.000000000000000000, 0.000000000000000000 ) ) ;
#301 = ADVANCED_FACE ( 'NONE', ( #359 ), #275, .T. ) ;
#302 = DIRECTION ( 'NONE',  ( 1.000000000000000000, 0.000000000000000000, 0.000000000000000000 ) ) ;
#303 = ORIENTED_EDGE ( 'NONE', *, *, #503, .T. ) ;
#304 = FACE_OUTER_BOUND ( 'NONE', #1083, .T. ) ;
#305 = CARTESIAN_POINT ( 'NONE',  ( -6.108360820270982927, -5.981469107249125727, 2.000000000000000000 ) ) ;
#306 = AXIS2_PLACEMENT_3D ( 'NONE', #355, #703, #731 ) ;
#307 = EDGE_CURVE ( 'NONE', #690, #333, #384, .T. ) ;
#308 = ORIENTED_EDGE ( 'NONE', *, *, #349, .F. ) ;
#309 = CARTESIAN_POINT ( 'NONE',  ( -9.422649730810416457, -11.99999999999999822, 0.000000000000000000 ) ) ;
#310 = DIRECTION ( 'NONE',  ( 0.000000000000000000, 0.000000000000000000, 1.000000000000000000 ) ) ;
#311 = ORIENTED_EDGE ( 'NONE', *, *, #208, .T. ) ;
#312 = CARTESIAN_POINT ( 'NONE',  ( 17.95299995808711557, -16.92500000000001847, -42.79999999999999716 ) ) ;
#313 = DIRECTION ( 'NONE',  ( -0.8660254037844380415, -0.5000000000000012212, 0.000000000000000000 ) ) ;
#314 = VECTOR ( 'NONE', #621, 1000.000000000000227 ) ;
#315 = ORIENTED_EDGE ( 'NONE', *, *, #347, .T. ) ;
#316 = CARTESIAN_POINT ( 'NONE',  ( -5.342708442409906056, -1.252361354134008398, -44.70129715919684799 ) ) ;
#317 = CARTESIAN_POINT ( 'NONE',  ( 9.422649730810407576, -12.00000000000000000, -42.79999999999999716 ) ) ;
#318 = ORIENTED_EDGE ( 'NONE', *, *, #117, .F. ) ;
#319 = CARTESIAN_POINT ( 'NONE',  ( -11.68874953737966393, -31.97500000000000497, 0.000000000000000000 ) ) ;
#320 = DIRECTION ( 'NONE',  ( 0.000000000000000000, 0.000000000000000000, -1.000000000000000000 ) ) ;
#321 = CARTESIAN_POINT ( 'NONE',  ( -9.422649730810423563, -0.05000000000000143219, -42.79999999999999716 ) ) ;
#322 = MANIFOLD_SOLID_BREP ( 'Fillet2', #716 ) ;
#323 = ORIENTED_EDGE ( 'NONE', *, *, #424, .F. ) ;
#324 = CARTESIAN_POINT ( 'NONE',  ( -9.422649730810416457, -11.99999999999999822, -44.89999999999999858 ) ) ;
#325 = ORIENTED_EDGE ( 'NONE', *, *, #763, .T. ) ;
#326 = CYLINDRICAL_SURFACE ( 'NONE', #297, 76.00000000000000000 ) ;
#327 = FACE_OUTER_BOUND ( 'NONE', #140, .T. ) ;
#328 = FACE_OUTER_BOUND ( 'NONE', #718, .T. ) ;
#329 = VECTOR ( 'NONE', #1075, 1000.000000000000000 ) ;
#330 = ORIENTED_EDGE ( 'NONE', *, *, #1113, .T. ) ;
#331 = ORIENTED_EDGE ( 'NONE', *, *, #81, .T. ) ;
#332 = DIRECTION ( 'NONE',  ( -0.000000000000000000, -0.000000000000000000, 1.000000000000000000 ) ) ;
#333 = VERTEX_POINT ( 'NONE', #545 ) ;
#334 = CARTESIAN_POINT ( 'NONE',  ( -1.531666962989301162, -30.97500000000000853, 2.000000000000001776 ) ) ;
#335 = CARTESIAN_POINT ( 'NONE',  ( 19.77165330603443394, -17.97500000000002629, -98.35134722819698538 ) ) ;
#336 = DIRECTION ( 'NONE',  ( 1.000000000000000000, 0.000000000000000000, 0.000000000000000000 ) ) ;
#337 = EDGE_CURVE ( 'NONE', #890, #946, #889, .T. ) ;
#338 = AXIS2_PLACEMENT_3D ( 'NONE', #409, #973, #122 ) ;
#339 = AXIS2_PLACEMENT_3D ( 'NONE', #619, #628, #600 ) ;
#340 = ORIENTED_EDGE ( 'NONE', *, *, #554, .F. ) ;
#341 = ORIENTED_EDGE ( 'NONE', *, *, #566, .F. ) ;
#342 = CARTESIAN_POINT ( 'NONE',  ( -6.447387849448179331, -5.049999999999997158, -44.89999999999999858 ) ) ;
#343 = ORIENTED_EDGE ( 'NONE', *, *, #602, .T. ) ;
#344 = DIRECTION ( 'NONE',  ( 1.000000000000000000, 0.000000000000000000, 0.000000000000000000 ) ) ;
#345 = LINE ( 'NONE', #335, #488 ) ;
#346 = CARTESIAN_POINT ( 'NONE',  ( -6.447387849448178443, -3.049999999999996714, 2.000000000000000000 ) ) ;
#347 = EDGE_CURVE ( 'NONE', #333, #614, #1025, .T. ) ;
#348 = CIRCLE ( 'NONE', #1021, 9.849999999999994316 ) ;
#349 = EDGE_CURVE ( 'NONE', #614, #118, #56, .T. ) ;
#350 = EDGE_LOOP ( 'NONE', ( #369, #1089, #311, #810, #734, #263, #717, #544, #1079, #224, #729 ) ) ;
#351 = ORIENTED_EDGE ( 'NONE', *, *, #827, .F. ) ;
#352 = CARTESIAN_POINT ( 'NONE',  ( 6.447387849448178443, -3.049999999999996270, -44.89999999999999858 ) ) ;
#353 = EDGE_LOOP ( 'NONE', ( #537, #1186, #29, #855, #794 ) ) ;
#354 = LINE ( 'NONE', #460, #551 ) ;
#355 = CARTESIAN_POINT ( 'NONE',  ( -9.422649730810416457, -11.99999999999999822, -42.79999999999999716 ) ) ;
#356 = EDGE_CURVE ( 'NONE', #1010, #177, #377, .T. ) ;
#357 = ORIENTED_EDGE ( 'NONE', *, *, #13, .F. ) ;
#358 = EDGE_LOOP ( 'NONE', ( #133, #610, #905, #1081 ) ) ;
#359 = FACE_OUTER_BOUND ( 'NONE', #235, .T. ) ;
#360 = CARTESIAN_POINT ( 'NONE',  ( -20.79348994809115325, -12.00512701892224321, -44.89999999999999858 ) ) ;
#361 = EDGE_CURVE ( 'NONE', #1100, #779, #581, .T. ) ;
#362 = VERTEX_POINT ( 'NONE', #474 ) ;
#363 = ORIENTED_EDGE ( 'NONE', *, *, #603, .F. ) ;
#364 = CARTESIAN_POINT ( 'NONE',  ( 4.447387849448179331, -1.049999999999996714, -44.58885438199982332 ) ) ;
#365 = CIRCLE ( 'NONE', #267, 11.94999999999999574 ) ;
#366 = CARTESIAN_POINT ( 'NONE',  ( 9.422649730810407576, -12.00000000000000000, -98.35134722819698538 ) ) ;
#367 = AXIS2_PLACEMENT_3D ( 'NONE', #1133, #37, #218 ) ;
#368 = CIRCLE ( 'NONE', #926, 1.000000000000000000 ) ;
#369 = ORIENTED_EDGE ( 'NONE', *, *, #209, .F. ) ;
#370 = CARTESIAN_POINT ( 'NONE',  ( 6.233444959397354879, -2.150000000000000799, -44.89999999999999858 ) ) ;
#371 = CARTESIAN_POINT ( 'NONE',  ( -11.68874953737966393, -31.97500000000000497, -98.35134722819698538 ) ) ;
#372 = CARTESIAN_POINT ( 'NONE',  ( -22.36972951738776771, -19.47500000000000497, 2.000000000000000000 ) ) ;
#373 = FACE_OUTER_BOUND ( 'NONE', #514, .T. ) ;
#374 = PRODUCT_DEFINITION ( 'UNKNOWN', '', #937, #383 ) ;
#375 = CARTESIAN_POINT ( 'NONE',  ( -11.68874953737966393, -31.97500000000000497, -44.03015151901649205 ) ) ;
#376 = ADVANCED_FACE ( 'NONE', ( #288 ), #658, .T. ) ;
#377 = LINE ( 'NONE', #100, #1104 ) ;
#378 = EDGE_CURVE ( 'NONE', #946, #634, #462, .T. ) ;
#379 = DIRECTION ( 'NONE',  ( -0.000000000000000000, -0.000000000000000000, 1.000000000000000000 ) ) ;
#380 = CARTESIAN_POINT ( 'NONE',  ( -6.108360820270982927, -5.981469107249125727, -44.89999999999999858 ) ) ;
#381 = AXIS2_PLACEMENT_3D ( 'NONE', #427, #1167, #336 ) ;
#382 = CARTESIAN_POINT ( 'NONE',  ( -11.68874953737966393, -31.97500000000000497, 0.000000000000000000 ) ) ;
#383 = PRODUCT_DEFINITION_CONTEXT ( 'detailed design', #907, 'design' ) ;
#384 = B_SPLINE_CURVE_WITH_KNOTS ( 'NONE', 3,
 ( #370, #917, #1096, #465, #451, #823, #172, #746, #1106, #364 ),
 .UNSPECIFIED., .F., .F.,
 ( 4, 2, 2, 2, 4 ),
 ( 1.939479807224432123E-18, 0.0005549131754065627330, 0.001109826350813123514, 0.001664739526219684296, 0.002219652701626244860 ),
 .UNSPECIFIED. ) ;
#385 = EDGE_CURVE ( 'NONE', #966, #614, #931, .T. ) ;
#386 = AXIS2_PLACEMENT_3D ( 'NONE', #927, #999, #167 ) ;
#387 = AXIS2_PLACEMENT_3D ( 'NONE', #40, #1073, #416 ) ;
#388 = VERTEX_POINT ( 'NONE', #565 ) ;
#389 = CARTESIAN_POINT ( 'NONE',  ( 9.422649730810407576, -12.00000000000000000, 0.000000000000000000 ) ) ;
#390 = LINE ( 'NONE', #1030, #248 ) ;
#391 = EDGE_CURVE ( 'NONE', #18, #513, #839, .T. ) ;
#392 = DIRECTION ( 'NONE',  ( 0.9396926207859084279, 0.3420201433256687684, 0.000000000000000000 ) ) ;
#393 = ORIENTED_EDGE ( 'NONE', *, *, #503, .F. ) ;
#394 = DIRECTION ( 'NONE',  ( 0.8660254037844381525, 0.5000000000000011102, 0.000000000000000000 ) ) ;
#395 = DIRECTION ( 'NONE',  ( -1.000000000000000000, -1.380760873163336883E-16, 0.000000000000000000 ) ) ;
#396 = AXIS2_PLACEMENT_3D ( 'NONE', #366, #466, #92 ) ;
#397 = AXIS2_PLACEMENT_3D ( 'NONE', #212, #781, #300 ) ;
#398 = DIRECTION ( 'NONE',  ( 0.5000000000000011102, -0.8660254037844379305, 0.000000000000000000 ) ) ;
#399 = EDGE_LOOP ( 'NONE', ( #673, #822, #744, #1095 ) ) ;
#400 = CARTESIAN_POINT ( 'NONE',  ( -4.447387849448179331, -1.049999999999996714, -44.58885438199982332 ) ) ;
#401 = FACE_OUTER_BOUND ( 'NONE', #916, .T. ) ;
#402 = DIRECTION ( 'NONE',  ( 1.000000000000000000, -0.000000000000000000, 0.000000000000000000 ) ) ;
#403 = DIRECTION ( 'NONE',  ( 0.000000000000000000, 0.000000000000000000, -1.000000000000000000 ) ) ;
#404 = EDGE_CURVE ( 'NONE', #228, #251, #1129, .T. ) ;
#405 = VERTEX_POINT ( 'NONE', #293 ) ;
#406 = CARTESIAN_POINT ( 'NONE',  ( -4.635471886686742593, -1.049999999999996936, -44.58885438199982332 ) ) ;
#407 = DIRECTION ( 'NONE',  ( -1.000000000000000000, 0.000000000000000000, 0.000000000000000000 ) ) ;
#408 = ORIENTED_EDGE ( 'NONE', *, *, #5, .F. ) ;
#409 = CARTESIAN_POINT ( 'NONE',  ( 9.422649730810407576, -12.00000000000000000, -42.79999999999999716 ) ) ;
#410 = CYLINDRICAL_SURFACE ( 'NONE', #411, 2.000000000000000000 ) ;
#411 = AXIS2_PLACEMENT_3D ( 'NONE', #590, #873, #1151 ) ;
#412 = AXIS2_PLACEMENT_3D ( 'NONE', #309, #1144, #1053 ) ;
#413 = ORIENTED_EDGE ( 'NONE', *, *, #945, .T. ) ;
#414 = LINE ( 'NONE', #1153, #190 ) ;
#415 = EDGE_LOOP ( 'NONE', ( #363, #952, #996, #144, #260, #163, #39 ) ) ;
#416 = DIRECTION ( 'NONE',  ( 1.000000000000000000, 0.000000000000000000, 0.000000000000000000 ) ) ;
#417 = CARTESIAN_POINT ( 'NONE',  ( 1.631203567996218367E-16, -2.150000000000001243, -44.89999999999999858 ) ) ;
#418 = CARTESIAN_POINT ( 'NONE',  ( 6.447387849448179331, -5.049999999999997158, -44.89999999999999858 ) ) ;
#419 = AXIS2_PLACEMENT_3D ( 'NONE', #194, #942, #1018 ) ;
#420 = ORIENTED_EDGE ( 'NONE', *, *, #1142, .T. ) ;
#421 = EDGE_LOOP ( 'NONE', ( #323, #279, #1152, #459 ) ) ;
#422 = DIRECTION ( 'NONE',  ( -0.000000000000000000, -0.000000000000000000, -1.000000000000000000 ) ) ;
#423 = ORIENTED_EDGE ( 'NONE', *, *, #139, .F. ) ;
#424 = EDGE_CURVE ( 'NONE', #129, #106, #82, .T. ) ;
#425 = LINE ( 'NONE', #501, #655 ) ;
#426 = LINE ( 'NONE', #1058, #723 ) ;
#427 = CARTESIAN_POINT ( 'NONE',  ( 4.447387849448178443, -3.049999999999996714, -44.89999999999999858 ) ) ;
#428 = EDGE_LOOP ( 'NONE', ( #479, #829, #1105, #141 ) ) ;
#429 = EDGE_CURVE ( 'NONE', #61, #687, #472, .T. ) ;
#430 = ORIENTED_EDGE ( 'NONE', *, *, #35, .T. ) ;
#431 = DIRECTION ( 'NONE',  ( -0.000000000000000000, -0.000000000000000000, -1.000000000000000000 ) ) ;
#432 = ORIENTED_EDGE ( 'NONE', *, *, #678, .T. ) ;
#433 = DIRECTION ( 'NONE',  ( -0.000000000000000000, -0.000000000000000000, 1.000000000000000000 ) ) ;
#434 = DIRECTION ( 'NONE',  ( -0.000000000000000000, -0.000000000000000000, -1.000000000000000000 ) ) ;
#435 = CARTESIAN_POINT ( 'NONE',  ( 19.77165330603443394, -17.97500000000002274, -42.79999999999999716 ) ) ;
#436 = CIRCLE ( 'NONE', #214, 1.000000000000000000 ) ;
#437 = ORIENTED_EDGE ( 'NONE', *, *, #32, .F. ) ;
#438 = ORIENTED_EDGE ( 'NONE', *, *, #945, .F. ) ;
#439 = DIRECTION ( 'NONE',  ( 0.000000000000000000, 0.000000000000000000, 1.000000000000000000 ) ) ;
#440 = ORIENTED_EDGE ( 'NONE', *, *, #1121, .T. ) ;
#441 = SURFACE_STYLE_FILL_AREA ( #187 ) ;
#442 = CARTESIAN_POINT ( 'NONE',  ( 17.95299995808711557, -16.92500000000002203, -44.89999999999999858 ) ) ;
#443 = FACE_OUTER_BOUND ( 'NONE', #90, .T. ) ;
#444 = AXIS2_PLACEMENT_3D ( 'NONE', #65, #1166, #714 ) ;
#445 = EDGE_CURVE ( 'NONE', #405, #965, #835, .T. ) ;
#446 = CIRCLE ( 'NONE', #494, 14.94999999999999396 ) ;
#447 =( BOUNDED_CURVE ( )  B_SPLINE_CURVE ( 3, ( #1082, #242, #234, #71 ),
 .UNSPECIFIED., .F., .F. ) 
 B_SPLINE_CURVE_WITH_KNOTS ( ( 4, 4 ),
 ( 4.712388980384688786, 6.283185307179586232 ),
 .UNSPECIFIED. ) 
 CURVE ( )  GEOMETRIC_REPRESENTATION_ITEM ( )  RATIONAL_B_SPLINE_CURVE ( ( 1.000000000000000000, 0.8047378541243648264, 0.8047378541243648264, 1.000000000000000000 ) ) 
 REPRESENTATION_ITEM ( '' )  );
#448 = ORIENTED_EDGE ( 'NONE', *, *, #1160, .T. ) ;
#449 = DIRECTION ( 'NONE',  ( 4.336808689942016750E-16, 1.000000000000000000, 0.000000000000000000 ) ) ;
#450 = ORIENTED_EDGE ( 'NONE', *, *, #785, .F. ) ;
#451 = CARTESIAN_POINT ( 'NONE',  ( 5.652396090527709305, -1.443432602029199874, -44.78026476468347994 ) ) ;
#452 = DIRECTION ( 'NONE',  ( -0.000000000000000000, -0.000000000000000000, -1.000000000000000000 ) ) ;
#453 = ADVANCED_FACE ( 'NONE', ( #749 ), #753, .T. ) ;
#454 = CIRCLE ( 'NONE', #650, 1.000000000000000000 ) ;
#455 = EDGE_LOOP ( 'NONE', ( #423, #490, #802, #420, #217 ) ) ;
#456 = EDGE_LOOP ( 'NONE', ( #1052, #448, #623, #450, #679, #607, #1178, #303, #504 ) ) ;
#457 = CYLINDRICAL_SURFACE ( 'NONE', #765, 11.94999999999999929 ) ;
#458 = DIRECTION ( 'NONE',  ( -5.936386849352206738E-16, -1.000000000000000000, 0.000000000000000000 ) ) ;
#459 = ORIENTED_EDGE ( 'NONE', *, *, #226, .F. ) ;
#460 = CARTESIAN_POINT ( 'NONE',  ( 15.15285115251741566, -31.97500000000000497, 2.000000000000000000 ) ) ;
#461 = FACE_OUTER_BOUND ( 'NONE', #455, .T. ) ;
#462 = CIRCLE ( 'NONE', #147, 11.94999999999999929 ) ;
#463 = AXIS2_PLACEMENT_3D ( 'NONE', #371, #458, #1019 ) ;
#464 = VECTOR ( 'NONE', #1061, 1000.000000000000000 ) ;
#465 = CARTESIAN_POINT ( 'NONE',  ( 5.794084389752495845, -1.559918147154364831, -44.82016722223483640 ) ) ;
#466 = DIRECTION ( 'NONE',  ( 0.000000000000000000, 0.000000000000000000, 1.000000000000000000 ) ) ;
#467 = ADVANCED_FACE ( 'NONE', ( #486 ), #856, .F. ) ;
#468 = EDGE_CURVE ( 'NONE', #54, #828, #1099, .T. ) ;
#469 = DIRECTION ( 'NONE',  ( 0.000000000000000000, 0.000000000000000000, 1.000000000000000000 ) ) ;
#470 = ADVANCED_FACE ( 'NONE', ( #103 ), #14, .T. ) ;
#471 = CARTESIAN_POINT ( 'NONE',  ( -4.447387849448179331, -1.049999999999996714, 2.000000000000000000 ) ) ;
#472 = CIRCLE ( 'NONE', #640, 76.00000000000000000 ) ;
#473 = EDGE_CURVE ( 'NONE', #883, #513, #48, .T. ) ;
#474 = CARTESIAN_POINT ( 'NONE',  ( 9.422649730810393365, -2.150000000000002132, -44.89999999999999858 ) ) ;
#475 = DIRECTION ( 'NONE',  ( -0.000000000000000000, -0.000000000000000000, 1.000000000000000000 ) ) ;
#476 = DIRECTION ( 'NONE',  ( 0.5000000000000013323, 0.8660254037844379305, 0.000000000000000000 ) ) ;
#477 = EDGE_CURVE ( 'NONE', #915, #164, #567, .T. ) ;
#478 = ADVANCED_FACE ( 'NONE', ( #1047 ), #1137, .T. ) ;
#479 = ORIENTED_EDGE ( 'NONE', *, *, #1142, .F. ) ;
#480 = DIRECTION ( 'NONE',  ( 1.000000000000000000, 0.000000000000000000, 0.000000000000000000 ) ) ;
#481 = DIRECTION ( 'NONE',  ( -0.3420201433256687129, 0.9396926207859083169, 0.000000000000000000 ) ) ;
#482 = VECTOR ( 'NONE', #481, 1000.000000000000227 ) ;
#483 = DIRECTION ( 'NONE',  ( -0.9396926207859084279, 0.3420201433256687684, 0.000000000000000000 ) ) ;
#484 = CIRCLE ( 'NONE', #387, 14.94999999999999751 ) ;
#485 = VERTEX_POINT ( 'NONE', #869 ) ;
#486 = FACE_OUTER_BOUND ( 'NONE', #530, .T. ) ;
#487 = DIRECTION ( 'NONE',  ( 1.000000000000000000, 0.000000000000000000, 0.000000000000000000 ) ) ;
#488 = VECTOR ( 'NONE', #254, 1000.000000000000000 ) ;
#489 = CARTESIAN_POINT ( 'NONE',  ( 2.531666962989301162, -30.97500000000000853, -44.89999999999999858 ) ) ;
#490 = ORIENTED_EDGE ( 'NONE', *, *, #132, .T. ) ;
#491 = CARTESIAN_POINT ( 'NONE',  ( -6.148749119797487950, -1.981920437221716957, -44.90000000000000568 ) ) ;
#492 = CARTESIAN_POINT ( 'NONE',  ( -6.233444959397355767, -2.150000000000001243, -44.89999999999999858 ) ) ;
#493 = AXIS2_PLACEMENT_3D ( 'NONE', #742, #4, #1103 ) ;
#494 = AXIS2_PLACEMENT_3D ( 'NONE', #1071, #901, #971 ) ;
#495 = DIRECTION ( 'NONE',  ( 0.5000000000000012212, -0.8660254037844380415, 0.000000000000000000 ) ) ;
#496 = CARTESIAN_POINT ( 'NONE',  ( -11.68874953737966393, -31.97500000000000497, -98.35134722819698538 ) ) ;
#497 = ORIENTED_EDGE ( 'NONE', *, *, #295, .F. ) ;
#498 = CARTESIAN_POINT ( 'NONE',  ( -24.37264973081041219, -11.99999999999999822, 0.000000000000000000 ) ) ;
#499 = DIRECTION ( 'NONE',  ( 0.000000000000000000, 0.000000000000000000, 1.000000000000000000 ) ) ;
#500 = ORIENTED_EDGE ( 'NONE', *, *, #445, .F. ) ;
#501 = CARTESIAN_POINT ( 'NONE',  ( -6.447387849448179331, -5.049999999999997158, -44.89999999999999858 ) ) ;
#502 = FACE_OUTER_BOUND ( 'NONE', #353, .T. ) ;
#503 = EDGE_CURVE ( 'NONE', #362, #54, #198, .T. ) ;
#504 = ORIENTED_EDGE ( 'NONE', *, *, #99, .T. ) ;
#505 = LINE ( 'NONE', #606, #1117 ) ;
#506 = ORIENTED_EDGE ( 'NONE', *, *, #32, .T. ) ;
#507 = CARTESIAN_POINT ( 'NONE',  ( 11.68874953737964795, -31.97500000000001563, -98.35134722819698538 ) ) ;
#508 = CARTESIAN_POINT ( 'NONE',  ( -9.263878406783234709, -31.97500000000000497, -44.89999999999999858 ) ) ;
#509 = CYLINDRICAL_SURFACE ( 'NONE', #1120, 2.100000000000000089 ) ;
#510 = AXIS2_PLACEMENT_3D ( 'NONE', #806, #1174, #344 ) ;
#511 = EDGE_CURVE ( 'NONE', #1163, #898, #592, .T. ) ;
#512 = VECTOR ( 'NONE', #379, 1000.000000000000000 ) ;
#513 = VERTEX_POINT ( 'NONE', #498 ) ;
#514 = EDGE_LOOP ( 'NONE', ( #1049, #60, #1180, #1035 ) ) ;
#515 = LINE ( 'NONE', #352, #28 ) ;
#516 = ORIENTED_EDGE ( 'NONE', *, *, #361, .T. ) ;
#517 = CARTESIAN_POINT ( 'NONE',  ( 9.422649730810384483, 2.949999999999997957, 0.000000000000000000 ) ) ;
#518 = CARTESIAN_POINT ( 'NONE',  ( -22.36972951738776771, -19.47500000000000497, 2.000000000000000000 ) ) ;
#519 = CARTESIAN_POINT ( 'NONE',  ( -4.447387849448179331, -1.049999999999996714, -44.89999999999999858 ) ) ;
#520 = ADVANCED_FACE ( 'NONE', ( #304 ), #712, .T. ) ;
#521 = PRESENTATION_LAYER_ASSIGNMENT (  '', '', ( #1124 ) ) ;
#522 = ORIENTED_EDGE ( 'NONE', *, *, #678, .F. ) ;
#523 = ORIENTED_EDGE ( 'NONE', *, *, #132, .F. ) ;
#524 = CARTESIAN_POINT ( 'NONE',  ( -15.15285115251742454, -31.97500000000000497, 2.000000000000000000 ) ) ;
#525 = EDGE_LOOP ( 'NONE', ( #76, #63, #820, #437 ) ) ;
#526 = EDGE_CURVE ( 'NONE', #257, #739, #586, .T. ) ;
#527 = DIRECTION ( 'NONE',  ( 0.000000000000000000, 0.000000000000000000, 1.000000000000000000 ) ) ;
#528 = DIRECTION ( 'NONE',  ( 1.000000000000000000, 7.586993339517289199E-17, -0.000000000000000000 ) ) ;
#529 = CYLINDRICAL_SURFACE ( 'NONE', #800, 14.94999999999999396 ) ;
#530 = EDGE_LOOP ( 'NONE', ( #325, #250, #357, #1004 ) ) ;
#531 = ORIENTED_EDGE ( 'NONE', *, *, #683, .F. ) ;
#532 = DIRECTION ( 'NONE',  ( -1.000000000000000000, 0.000000000000000000, 0.000000000000000000 ) ) ;
#533 = ORIENTED_EDGE ( 'NONE', *, *, #13, .T. ) ;
#534 = FILL_AREA_STYLE_COLOUR ( '', #711 ) ;
#535 = LINE ( 'NONE', #360, #286 ) ;
#536 = DIRECTION ( 'NONE',  ( 1.000000000000000000, 0.000000000000000000, 0.000000000000000000 ) ) ;
#537 = ORIENTED_EDGE ( 'NONE', *, *, #477, .T. ) ;
#538 = ORIENTED_EDGE ( 'NONE', *, *, #1118, .T. ) ;
#539 = FACE_OUTER_BOUND ( 'NONE', #639, .T. ) ;
#540 = ORIENTED_EDGE ( 'NONE', *, *, #819, .T. ) ;
#541 = DIRECTION ( 'NONE',  ( -0.000000000000000000, -0.000000000000000000, 1.000000000000000000 ) ) ;
#542 = EDGE_LOOP ( 'NONE', ( #760, #45, #1154, #408 ) ) ;
#543 = DIRECTION ( 'NONE',  ( 0.000000000000000000, 0.000000000000000000, 1.000000000000000000 ) ) ;
#544 = ORIENTED_EDGE ( 'NONE', *, *, #7, .T. ) ;
#545 = CARTESIAN_POINT ( 'NONE',  ( 4.447387849448179331, -1.049999999999996714, -44.58885438199982332 ) ) ;
#546 = DIRECTION ( 'NONE',  ( -0.5000000000000013323, -0.8660254037844379305, 0.000000000000000000 ) ) ;
#547 = CIRCLE ( 'NONE', #1063, 76.00000000000000000 ) ;
#548 = ORIENTED_EDGE ( 'NONE', *, *, #745, .T. ) ;
#549 = CARTESIAN_POINT ( 'NONE',  ( -19.27264973081041433, -11.99999999999999822, -44.89999999999999858 ) ) ;
#550 = CARTESIAN_POINT ( 'NONE',  ( -4.447387849448179331, -1.049999999999996714, -44.58885438199982332 ) ) ;
#551 = VECTOR ( 'NONE', #836, 1000.000000000000000 ) ;
#552 = AXIS2_PLACEMENT_3D ( 'NONE', #599, #872, #695 ) ;
#553 = EDGE_CURVE ( 'NONE', #868, #883, #609, .T. ) ;
#554 = EDGE_CURVE ( 'NONE', #708, #875, #805, .T. ) ;
#555 = ORIENTED_EDGE ( 'NONE', *, *, #468, .T. ) ;
#556 = DIRECTION ( 'NONE',  ( 0.000000000000000000, 0.000000000000000000, 1.000000000000000000 ) ) ;
#557 = EDGE_CURVE ( 'NONE', #1003, #388, #776, .T. ) ;
#558 = APPLICATION_CONTEXT ( 'automotive_design' ) ;
#559 = CIRCLE ( 'NONE', #1020, 76.00000000000000000 ) ;
#560 = EDGE_CURVE ( 'NONE', #362, #875, #67, .T. ) ;
#561 = VECTOR ( 'NONE', #422, 1000.000000000000000 ) ;
#562 = CARTESIAN_POINT ( 'NONE',  ( -10.68433502807964253, -31.97500000000000497, -44.89999999999999147 ) ) ;
#563 = CARTESIAN_POINT ( 'NONE',  ( -9.422649730810416457, -11.99999999999999822, -98.35134722819698538 ) ) ;
#564 = EDGE_CURVE ( 'NONE', #740, #1100, #425, .T. ) ;
#565 = CARTESIAN_POINT ( 'NONE',  ( 11.68874953737964795, -31.97500000000001563, 0.000000000000000000 ) ) ;
#566 = EDGE_CURVE ( 'NONE', #1091, #632, #1148, .T. ) ;
#567 = B_SPLINE_CURVE_WITH_KNOTS ( 'NONE', 3,
 ( #685, #491, #959, #768, #691, #316, #1042, #211, #406, #400 ),
 .UNSPECIFIED., .F., .F.,
 ( 4, 2, 2, 2, 4 ),
 ( 1.226634733346699349E-18, 0.0005549131754065619740, 0.001109826350813122864, 0.001664739526219683645, 0.002219652701626244427 ),
 .UNSPECIFIED. ) ;
#568 = CARTESIAN_POINT ( 'NONE',  ( -17.95299995808712623, -16.92500000000000426, -42.79999999999999716 ) ) ;
#569 = DIRECTION ( 'NONE',  ( 0.5000000000000013323, 0.8660254037844379305, 0.000000000000000000 ) ) ;
#570 = ADVANCED_FACE ( 'NONE', ( #213 ), #618, .T. ) ;
#571 = AXIS2_PLACEMENT_3D ( 'NONE', #846, #123, #302 ) ;
#572 = CARTESIAN_POINT ( 'NONE',  ( 6.108360820270982927, -5.981469107249125727, -44.89999999999999858 ) ) ;
#573 = AXIS2_PLACEMENT_3D ( 'NONE', #756, #225, #774 ) ;
#574 = VECTOR ( 'NONE', #332, 1000.000000000000000 ) ;
#575 = ORIENTED_EDGE ( 'NONE', *, *, #894, .T. ) ;
#576 = DIRECTION ( 'NONE',  ( -0.000000000000000000, -0.000000000000000000, 1.000000000000000000 ) ) ;
#577 = CARTESIAN_POINT ( 'NONE',  ( -6.108360820270982927, -5.981469107249125727, -44.89999999999999858 ) ) ;
#578 = CARTESIAN_POINT ( 'NONE',  ( -9.422649730810416457, -11.99999999999999822, 0.000000000000000000 ) ) ;
#579 = MECHANICAL_DESIGN_GEOMETRIC_PRESENTATION_REPRESENTATION (  '', ( #1124 ), #677 ) ;
#580 = ORIENTED_EDGE ( 'NONE', *, *, #554, .T. ) ;
#581 = LINE ( 'NONE', #11, #512 ) ;
#582 = CARTESIAN_POINT ( 'NONE',  ( 22.36972951738774995, -19.47500000000002629, 0.000000000000000000 ) ) ;
#583 = PLANE ( 'NONE',  #197 ) ;
#584 = AXIS2_PLACEMENT_3D ( 'NONE', #312, #797, #64 ) ;
#585 = ORIENTED_EDGE ( 'NONE', *, *, #429, .T. ) ;
#586 = LINE ( 'NONE', #319, #1112 ) ;
#587 = DIRECTION ( 'NONE',  ( 0.000000000000000000, 0.000000000000000000, -1.000000000000000000 ) ) ;
#588 = AXIS2_PLACEMENT_3D ( 'NONE', #161, #968, #146 ) ;
#589 = DIRECTION ( 'NONE',  ( 1.000000000000000000, 0.000000000000000000, 0.000000000000000000 ) ) ;
#590 = CARTESIAN_POINT ( 'NONE',  ( -4.447387849448178443, -3.049999999999996714, -44.89999999999999858 ) ) ;
#591 = ORIENTED_EDGE ( 'NONE', *, *, #1155, .F. ) ;
#592 = LINE ( 'NONE', #127, #925 ) ;
#593 = CARTESIAN_POINT ( 'NONE',  ( 9.422649730810407576, -12.00000000000000000, 2.000000000000000000 ) ) ;
#594 = ORIENTED_EDGE ( 'NONE', *, *, #468, .F. ) ;
#595 = FACE_OUTER_BOUND ( 'NONE', #1136, .T. ) ;
#596 = DIRECTION ( 'NONE',  ( -1.000000000000000000, -7.586993339517289199E-17, 0.000000000000000000 ) ) ;
#597 = EDGE_LOOP ( 'NONE', ( #258, #982, #522, #605 ) ) ;
#598 = ORIENTED_EDGE ( 'NONE', *, *, #337, .T. ) ;
#599 = CARTESIAN_POINT ( 'NONE',  ( -2.531666962989301162, -30.97500000000000853, -44.89999999999999858 ) ) ;
#600 = DIRECTION ( 'NONE',  ( -1.000000000000000000, 0.000000000000000000, -0.000000000000000000 ) ) ;
#601 = CARTESIAN_POINT ( 'NONE',  ( 19.77165330603443394, -17.97500000000002629, -42.79999999999999716 ) ) ;
#602 = EDGE_CURVE ( 'NONE', #253, #638, #436, .T. ) ;
#603 = EDGE_CURVE ( 'NONE', #243, #921, #878, .T. ) ;
#604 = AXIS2_PLACEMENT_3D ( 'NONE', #317, #587, #948 ) ;
#605 = ORIENTED_EDGE ( 'NONE', *, *, #654, .F. ) ;
#606 = CARTESIAN_POINT ( 'NONE',  ( 6.447387849448179331, -5.049999999999997158, -44.89999999999999858 ) ) ;
#607 = ORIENTED_EDGE ( 'NONE', *, *, #1121, .F. ) ;
#608 = VECTOR ( 'NONE', #904, 1000.000000000000000 ) ;
#609 = LINE ( 'NONE', #517, #21 ) ;
#610 = ORIENTED_EDGE ( 'NONE', *, *, #1087, .F. ) ;
#611 = PLANE ( 'NONE',  #755 ) ;
#612 = ADVANCED_FACE ( 'NONE', ( #595 ), #713, .T. ) ;
#613 = EDGE_CURVE ( 'NONE', #708, #946, #222, .T. ) ;
#614 = VERTEX_POINT ( 'NONE', #1057 ) ;
#615 = ORIENTED_EDGE ( 'NONE', *, *, #819, .F. ) ;
#616 = LINE ( 'NONE', #151, #818 ) ;
#617 = ORIENTED_EDGE ( 'NONE', *, *, #99, .F. ) ;
#618 = CYLINDRICAL_SURFACE ( 'NONE', #584, 2.100000000000000089 ) ;
#619 = CARTESIAN_POINT ( 'NONE',  ( 0.000000000000000000, 0.000000000000000000, -44.89999999999999858 ) ) ;
#620 = CIRCLE ( 'NONE', #816, 1.000000000000000000 ) ;
#621 = DIRECTION ( 'NONE',  ( -0.3420201433256687129, -0.9396926207859083169, 0.000000000000000000 ) ) ;
#622 = CIRCLE ( 'NONE', #287, 14.94999999999999751 ) ;
#623 = ORIENTED_EDGE ( 'NONE', *, *, #682, .F. ) ;
#624 = ORIENTED_EDGE ( 'NONE', *, *, #644, .F. ) ;
#625 = CARTESIAN_POINT ( 'NONE',  ( 2.531666962989301162, -31.97500000000001208, -44.89999999999999858 ) ) ;
#626 = VERTEX_POINT ( 'NONE', #46 ) ;
#627 = CARTESIAN_POINT ( 'NONE',  ( -2.531666962989301162, -31.97500000000000497, 2.000000000000000000 ) ) ;
#628 = DIRECTION ( 'NONE',  ( 0.000000000000000000, 0.000000000000000000, -1.000000000000000000 ) ) ;
#629 = CARTESIAN_POINT ( 'NONE',  ( -9.422649730810416457, -11.99999999999999822, 2.000000000000000000 ) ) ;
#630 = TOROIDAL_SURFACE ( 'NONE', #306, 9.849999999999994316, 2.100000000000000089 ) ;
#631 = ORIENTED_EDGE ( 'NONE', *, *, #169, .T. ) ;
#632 = VERTEX_POINT ( 'NONE', #57 ) ;
#633 = DIRECTION ( 'NONE',  ( 0.000000000000000000, 0.000000000000000000, 1.000000000000000000 ) ) ;
#634 = VERTEX_POINT ( 'NONE', #962 ) ;
#635 =( NAMED_UNIT ( * ) SI_UNIT ( $, .STERADIAN. ) SOLID_ANGLE_UNIT ( ) );
#636 = DIRECTION ( 'NONE',  ( 0.000000000000000000, 0.000000000000000000, -1.000000000000000000 ) ) ;
#637 = VECTOR ( 'NONE', #596, 1000.000000000000000 ) ;
#638 = VERTEX_POINT ( 'NONE', #334 ) ;
#639 = EDGE_LOOP ( 'NONE', ( #884, #1132, #1173, #166 ) ) ;
#640 = AXIS2_PLACEMENT_3D ( 'NONE', #205, #761, #947 ) ;
#641 = DIRECTION ( 'NONE',  ( 1.000000000000000000, 0.000000000000000000, 0.000000000000000000 ) ) ;
#642 = CARTESIAN_POINT ( 'NONE',  ( -11.68874953737966393, -31.97500000000000497, -42.79999999999999716 ) ) ;
#643 = AXIS2_PLACEMENT_3D ( 'NONE', #821, #1185, #692 ) ;
#644 = EDGE_CURVE ( 'NONE', #156, #126, #484, .T. ) ;
#645 = ORIENTED_EDGE ( 'NONE', *, *, #385, .F. ) ;
#646 = ORIENTED_EDGE ( 'NONE', *, *, #939, .T. ) ;
#647 = DIRECTION ( 'NONE',  ( 0.000000000000000000, 0.000000000000000000, 1.000000000000000000 ) ) ;
#648 = LINE ( 'NONE', #837, #247 ) ;
#649 = EDGE_CURVE ( 'NONE', #251, #129, #865, .T. ) ;
#650 = AXIS2_PLACEMENT_3D ( 'NONE', #1134, #499, #487 ) ;
#651 = ORIENTED_EDGE ( 'NONE', *, *, #1005, .F. ) ;
#652 = CARTESIAN_POINT ( 'NONE',  ( -9.422649730810416457, -11.99999999999999822, -44.89999999999999858 ) ) ;
#653 = DIRECTION ( 'NONE',  ( 0.000000000000000000, 0.000000000000000000, -1.000000000000000000 ) ) ;
#654 = EDGE_CURVE ( 'NONE', #265, #710, #783, .T. ) ;
#655 = VECTOR ( 'NONE', #1140, 1000.000000000000000 ) ;
#656 = ADVANCED_FACE ( 'NONE', ( #895 ), #326, .T. ) ;
#657 = APPLICATION_PROTOCOL_DEFINITION ( 'draft international standard', 'automotive_design', 1998, #558 ) ;
#658 = PLANE ( 'NONE',  #977 ) ;
#659 = DIRECTION ( 'NONE',  ( 1.000000000000000000, 0.000000000000000000, 0.000000000000000000 ) ) ;
#660 = AXIS2_PLACEMENT_3D ( 'NONE', #838, #1187, #546 ) ;
#661 = VECTOR ( 'NONE', #812, 1000.000000000000000 ) ;
#662 = EDGE_CURVE ( 'NONE', #966, #779, #43, .T. ) ;
#663 = DIRECTION ( 'NONE',  ( -0.000000000000000000, -0.000000000000000000, -1.000000000000000000 ) ) ;
#664 = ADVANCED_BREP_SHAPE_REPRESENTATION ( 'Gripper Insert 3mm', ( #322, #809 ), #271 ) ;
#665 = ADVANCED_FACE ( 'NONE', ( #1044 ), #955, .T. ) ;
#666 = DIRECTION ( 'NONE',  ( 0.000000000000000000, 0.000000000000000000, 1.000000000000000000 ) ) ;
#667 = ORIENTED_EDGE ( 'NONE', *, *, #473, .F. ) ;
#668 = CARTESIAN_POINT ( 'NONE',  ( -11.68874953737966393, -31.97500000000000497, -42.79999999999999716 ) ) ;
#669 = CARTESIAN_POINT ( 'NONE',  ( -9.422649730810423563, -0.05000000000000143219, 0.000000000000000000 ) ) ;
#670 = VECTOR ( 'NONE', #398, 1000.000000000000114 ) ;
#671 = FACE_OUTER_BOUND ( 'NONE', #415, .T. ) ;
#672 = AXIS2_PLACEMENT_3D ( 'NONE', #372, #842, #1110 ) ;
#673 = ORIENTED_EDGE ( 'NONE', *, *, #429, .F. ) ;
#674 = CARTESIAN_POINT ( 'NONE',  ( 9.422649730810407576, -12.00000000000000000, 2.000000000000000000 ) ) ;
#675 = DIRECTION ( 'NONE',  ( -0.000000000000000000, -0.000000000000000000, 1.000000000000000000 ) ) ;
#676 = DIRECTION ( 'NONE',  ( 0.000000000000000000, 0.000000000000000000, 1.000000000000000000 ) ) ;
#677 =( GEOMETRIC_REPRESENTATION_CONTEXT ( 3 ) GLOBAL_UNCERTAINTY_ASSIGNED_CONTEXT ( ( #1040 ) ) GLOBAL_UNIT_ASSIGNED_CONTEXT ( ( #721, #1084, #635 ) ) REPRESENTATION_CONTEXT ( 'NONE', 'WORKASPACE' ) );
#678 = EDGE_CURVE ( 'NONE', #710, #243, #1028, .T. ) ;
#679 = ORIENTED_EDGE ( 'NONE', *, *, #356, .F. ) ;
#680 = CARTESIAN_POINT ( 'NONE',  ( -9.422649730810423563, -0.05000000000000316691, 0.000000000000000000 ) ) ;
#681 = DIRECTION ( 'NONE',  ( 0.5000000000000013323, 0.8660254037844379305, -0.000000000000000000 ) ) ;
#682 = EDGE_CURVE ( 'NONE', #1159, #265, #1098, .T. ) ;
#683 = EDGE_CURVE ( 'NONE', #61, #152, #1125, .T. ) ;
#684 = ORIENTED_EDGE ( 'NONE', *, *, #526, .T. ) ;
#685 = CARTESIAN_POINT ( 'NONE',  ( -6.233444959397355767, -2.150000000000001243, -44.89999999999999858 ) ) ;
#686 = PLANE ( 'NONE',  #125 ) ;
#687 = VERTEX_POINT ( 'NONE', #305 ) ;
#688 = CARTESIAN_POINT ( 'NONE',  ( -2.531666962989301162, -30.97500000000000853, 2.000000000000001776 ) ) ;
#689 = CARTESIAN_POINT ( 'NONE',  ( 1.531755855829153301, -30.96166666666667666, 2.000000000000000000 ) ) ;
#690 = VERTEX_POINT ( 'NONE', #296 ) ;
#691 = CARTESIAN_POINT ( 'NONE',  ( -5.652396090527709305, -1.443432602029200096, -44.78026476468347994 ) ) ;
#692 = DIRECTION ( 'NONE',  ( -1.000000000000000000, -7.586993339517289199E-17, 0.000000000000000000 ) ) ;
#693 = ORIENTED_EDGE ( 'NONE', *, *, #745, .F. ) ;
#694 = ADVANCED_FACE ( 'NONE', ( #26 ), #583, .T. ) ;
#695 = DIRECTION ( 'NONE',  ( 1.000000000000000000, 0.000000000000000000, 0.000000000000000000 ) ) ;
#696 = LINE ( 'NONE', #1065, #69 ) ;
#697 = FACE_OUTER_BOUND ( 'NONE', #1094, .T. ) ;
#698 = VERTEX_POINT ( 'NONE', #784 ) ;
#699 = ADVANCED_FACE ( 'NONE', ( #671 ), #16, .T. ) ;
#700 = DIRECTION ( 'NONE',  ( 1.000000000000000000, 7.586993339517289199E-17, -0.000000000000000000 ) ) ;
#701 = ORIENTED_EDGE ( 'NONE', *, *, #1022, .F. ) ;
#702 = CARTESIAN_POINT ( 'NONE',  ( 77.52499999999999147, -31.97500000000000497, -44.89999999999999858 ) ) ;
#703 = DIRECTION ( 'NONE',  ( 0.000000000000000000, 0.000000000000000000, -1.000000000000000000 ) ) ;
#704 = DIRECTION ( 'NONE',  ( 0.000000000000000000, -1.000000000000000000, 0.000000000000000000 ) ) ;
#705 = ADVANCED_FACE ( 'NONE', ( #207 ), #116, .T. ) ;
#706 = CIRCLE ( 'NONE', #920, 11.94999999999999929 ) ;
#707 = ORIENTED_EDGE ( 'NONE', *, *, #770, .T. ) ;
#708 = VERTEX_POINT ( 'NONE', #1033 ) ;
#709 = LINE ( 'NONE', #158, #957 ) ;
#710 = VERTEX_POINT ( 'NONE', #689 ) ;
#711 = COLOUR_RGB ( '',0.7921568627450980005, 0.8196078431372548767, 0.9333333333333333481 ) ;
#712 = TOROIDAL_SURFACE ( 'NONE', #1169, 9.849999999999994316, 2.100000000000000089 ) ;
#713 = CYLINDRICAL_SURFACE ( 'NONE', #552, 1.000000000000000000 ) ;
#714 = DIRECTION ( 'NONE',  ( 1.000000000000000000, 0.000000000000000000, -0.000000000000000000 ) ) ;
#715 = CARTESIAN_POINT ( 'NONE',  ( 9.422649730810393365, -0.05000000000000000278, -42.79999999999999716 ) ) ;
#716 = CLOSED_SHELL ( 'NONE', ( #612, #843, #88, #174, #10, #93, #203, #699, #978, #778, #249, #1168, #181, #705, #478, #520, #847, #919, #570, #111, #453, #858, #986, #467, #221, #470, #665, #376, #772, #867, #874, #914, #694, #656, #735, #301 ) ) ;
#717 = ORIENTED_EDGE ( 'NONE', *, *, #1067, .T. ) ;
#718 = EDGE_LOOP ( 'NONE', ( #85, #42, #979, #813, #51, #292, #726, #1046 ) ) ;
#719 = DIRECTION ( 'NONE',  ( 0.000000000000000000, 0.000000000000000000, -1.000000000000000000 ) ) ;
#720 = ORIENTED_EDGE ( 'NONE', *, *, #1087, .T. ) ;
#721 =( LENGTH_UNIT ( ) NAMED_UNIT ( * ) SI_UNIT ( .MILLI., .METRE. ) );
#722 = CARTESIAN_POINT ( 'NONE',  ( 9.422649730810384483, 2.949999999999997957, 2.000000000000000000 ) ) ;
#723 = VECTOR ( 'NONE', #58, 1000.000000000000000 ) ;
#724 = DIRECTION ( 'NONE',  ( -1.000000000000000000, -7.586993339517289199E-17, 0.000000000000000000 ) ) ;
#725 = VECTOR ( 'NONE', #475, 1000.000000000000000 ) ;
#726 = ORIENTED_EDGE ( 'NONE', *, *, #307, .T. ) ;
#727 = ORIENTED_EDGE ( 'NONE', *, *, #378, .F. ) ;
#728 = CARTESIAN_POINT ( 'NONE',  ( -1.531666962989301162, -30.97500000000000853, -44.89999999999999858 ) ) ;
#729 = ORIENTED_EDGE ( 'NONE', *, *, #933, .F. ) ;
#730 = DIRECTION ( 'NONE',  ( 1.000000000000000000, 0.000000000000000000, 0.000000000000000000 ) ) ;
#731 = DIRECTION ( 'NONE',  ( -1.000000000000000000, 0.000000000000000000, 0.000000000000000000 ) ) ;
#732 = EDGE_LOOP ( 'NONE', ( #1072, #617, #555, #1008 ) ) ;
#733 =( LENGTH_UNIT ( ) NAMED_UNIT ( * ) SI_UNIT ( .MILLI., .METRE. ) );
#734 = ORIENTED_EDGE ( 'NONE', *, *, #226, .T. ) ;
#735 = ADVANCED_FACE ( 'NONE', ( #1051 ), #223, .T. ) ;
#736 = LINE ( 'NONE', #178, #759 ) ;
#737 = CARTESIAN_POINT ( 'NONE',  ( -15.15285115251742454, -31.97500000000000497, 0.000000000000000000 ) ) ;
#738 = AXIS2_PLACEMENT_3D ( 'NONE', #758, #676, #34 ) ;
#739 = VERTEX_POINT ( 'NONE', #382 ) ;
#740 = VERTEX_POINT ( 'NONE', #859 ) ;
#741 = FACE_OUTER_BOUND ( 'NONE', #1041, .T. ) ;
#742 = CARTESIAN_POINT ( 'NONE',  ( -9.422649730810416457, -11.99999999999999822, -42.79999999999999716 ) ) ;
#743 = EDGE_CURVE ( 'NONE', #875, #965, #202, .T. ) ;
#744 = ORIENTED_EDGE ( 'NONE', *, *, #209, .T. ) ;
#745 = EDGE_CURVE ( 'NONE', #1159, #632, #22, .T. ) ;
#746 = CARTESIAN_POINT ( 'NONE',  ( 4.822663468682700127, -1.077043502546083387, -44.60612445398274417 ) ) ;
#747 = CYLINDRICAL_SURFACE ( 'NONE', #396, 11.94999999999999929 ) ;
#748 = EDGE_CURVE ( 'NONE', #911, #257, #365, .T. ) ;
#749 = FACE_OUTER_BOUND ( 'NONE', #998, .T. ) ;
#750 = CARTESIAN_POINT ( 'NONE',  ( -22.36972951738776771, -19.47500000000000497, 2.000000000000000000 ) ) ;
#751 = VECTOR ( 'NONE', #983, 1000.000000000000000 ) ;
#752 = AXIS2_PLACEMENT_3D ( 'NONE', #1183, #984, #320 ) ;
#753 = CYLINDRICAL_SURFACE ( 'NONE', #270, 14.94999999999999751 ) ;
#754 = CARTESIAN_POINT ( 'NONE',  ( 17.95299995808711557, -16.92500000000002203, -42.79999999999999716 ) ) ;
#755 = AXIS2_PLACEMENT_3D ( 'NONE', #817, #880, #808 ) ;
#756 = CARTESIAN_POINT ( 'NONE',  ( -77.52499999999999147, -31.97500000000000497, -44.89999999999999858 ) ) ;
#757 = PLANE ( 'NONE',  #17 ) ;
#758 = CARTESIAN_POINT ( 'NONE',  ( 77.52499999999999147, -31.97500000000000497, -44.89999999999999858 ) ) ;
#759 = VECTOR ( 'NONE', #160, 1000.000000000000000 ) ;
#760 = ORIENTED_EDGE ( 'NONE', *, *, #1001, .F. ) ;
#761 = DIRECTION ( 'NONE',  ( 0.000000000000000000, 0.000000000000000000, 1.000000000000000000 ) ) ;
#762 = CARTESIAN_POINT ( 'NONE',  ( -6.108360820270982927, -5.981469107249125727, -44.89999999999999858 ) ) ;
#763 = EDGE_CURVE ( 'NONE', #787, #135, #963, .T. ) ;
#764 = DIRECTION ( 'NONE',  ( 1.000000000000000000, 0.000000000000000000, 0.000000000000000000 ) ) ;
#765 = AXIS2_PLACEMENT_3D ( 'NONE', #79, #647, #992 ) ;
#766 = AXIS2_PLACEMENT_3D ( 'NONE', #62, #1090, #1172 ) ;
#767 = VERTEX_POINT ( 'NONE', #771 ) ;
#768 = CARTESIAN_POINT ( 'NONE',  ( -5.794084389752495845, -1.559918147154365275, -44.82016722223483640 ) ) ;
#769 = DIRECTION ( 'NONE',  ( 4.336808689942016750E-16, -1.000000000000000000, 0.000000000000000000 ) ) ;
#770 = EDGE_CURVE ( 'NONE', #388, #890, #131, .T. ) ;
#771 = CARTESIAN_POINT ( 'NONE',  ( -2.531666962989301162, -31.97500000000001208, -44.89999999999999858 ) ) ;
#772 = ADVANCED_FACE ( 'NONE', ( #502 ), #410, .F. ) ;
#773 = ORIENTED_EDGE ( 'NONE', *, *, #748, .T. ) ;
#774 = DIRECTION ( 'NONE',  ( 1.000000000000000000, 0.000000000000000000, 0.000000000000000000 ) ) ;
#775 = CARTESIAN_POINT ( 'NONE',  ( 9.422649730810384483, 2.949999999999997957, 2.000000000000000000 ) ) ;
#776 = LINE ( 'NONE', #507, #751 ) ;
#777 = CARTESIAN_POINT ( 'NONE',  ( 6.447387849448179331, -5.049999999999997158, -44.89999999999999858 ) ) ;
#778 = ADVANCED_FACE ( 'NONE', ( #697 ), #196, .T. ) ;
#779 = VERTEX_POINT ( 'NONE', #346 ) ;
#780 = CARTESIAN_POINT ( 'NONE',  ( -9.870096189432343792, -30.92500000000000071, -42.79999999999999716 ) ) ;
#781 = DIRECTION ( 'NONE',  ( -0.000000000000000000, -0.000000000000000000, -1.000000000000000000 ) ) ;
#782 = ORIENTED_EDGE ( 'NONE', *, *, #826, .T. ) ;
#783 = LINE ( 'NONE', #790, #950 ) ;
#784 = CARTESIAN_POINT ( 'NONE',  ( 15.15285115251741566, -31.97500000000000497, 0.000000000000000000 ) ) ;
#785 = EDGE_CURVE ( 'NONE', #177, #1159, #994, .T. ) ;
#786 = VECTOR ( 'NONE', #633, 1000.000000000000000 ) ;
#787 = VERTEX_POINT ( 'NONE', #231 ) ;
#788 = DIRECTION ( 'NONE',  ( -0.000000000000000000, -0.000000000000000000, 1.000000000000000000 ) ) ;
#789 = ORIENTED_EDGE ( 'NONE', *, *, #277, .T. ) ;
#790 = CARTESIAN_POINT ( 'NONE',  ( 1.531755855829153301, -30.96166666666667666, -44.89999999999999858 ) ) ;
#791 = PLANE ( 'NONE',  #339 ) ;
#792 = DIRECTION ( 'NONE',  ( 0.5000000000000013323, 0.8660254037844379305, 0.000000000000000000 ) ) ;
#793 = EDGE_LOOP ( 'NONE', ( #315, #645, #175, #497 ) ) ;
#794 = ORIENTED_EDGE ( 'NONE', *, *, #290, .F. ) ;
#795 = CARTESIAN_POINT ( 'NONE',  ( -19.77165330603444815, -17.97500000000000853, -98.35134722819698538 ) ) ;
#796 = ORIENTED_EDGE ( 'NONE', *, *, #566, .T. ) ;
#797 = DIRECTION ( 'NONE',  ( 0.5000000000000013323, 0.8660254037844379305, 0.000000000000000000 ) ) ;
#798 = PLANE ( 'NONE',  #444 ) ;
#799 = CARTESIAN_POINT ( 'NONE',  ( 6.447387849448178443, -3.049999999999996714, 2.000000000000000000 ) ) ;
#800 = AXIS2_PLACEMENT_3D ( 'NONE', #629, #75, #162 ) ;
#801 = ORIENTED_EDGE ( 'NONE', *, *, #662, .F. ) ;
#802 = ORIENTED_EDGE ( 'NONE', *, *, #940, .T. ) ;
#803 = CARTESIAN_POINT ( 'NONE',  ( 22.36972951738774995, -19.47500000000002629, 2.000000000000000000 ) ) ;
#804 = EDGE_LOOP ( 'NONE', ( #440, #1182, #308, #241, #1170 ) ) ;
#805 = CIRCLE ( 'NONE', #338, 11.94999999999999929 ) ;
#806 = CARTESIAN_POINT ( 'NONE',  ( -4.447387849448178443, -3.049999999999996714, 2.000000000000000000 ) ) ;
#807 = LINE ( 'NONE', #230, #189 ) ;
#808 = DIRECTION ( 'NONE',  ( 1.000000000000000000, 1.380760873163336883E-16, 0.000000000000000000 ) ) ;
#809 = AXIS2_PLACEMENT_3D ( 'NONE', #176, #543, #841 ) ;
#810 = ORIENTED_EDGE ( 'NONE', *, *, #269, .F. ) ;
#811 = ORIENTED_EDGE ( 'NONE', *, *, #1077, .F. ) ;
#812 = DIRECTION ( 'NONE',  ( 1.000000000000000000, 0.000000000000000000, 0.000000000000000000 ) ) ;
#813 = ORIENTED_EDGE ( 'NONE', *, *, #743, .F. ) ;
#814 = SURFACE_STYLE_USAGE ( .BOTH. , #1190 ) ;
#815 = DIRECTION ( 'NONE',  ( 0.000000000000000000, 0.000000000000000000, 1.000000000000000000 ) ) ;
#816 = AXIS2_PLACEMENT_3D ( 'NONE', #1007, #653, #188 ) ;
#817 = CARTESIAN_POINT ( 'NONE',  ( 9.422649730810384483, 2.949999999999997957, 2.000000000000000000 ) ) ;
#818 = VECTOR ( 'NONE', #431, 1000.000000000000000 ) ;
#819 = EDGE_CURVE ( 'NONE', #118, #1091, #897, .T. ) ;
#820 = ORIENTED_EDGE ( 'NONE', *, *, #337, .F. ) ;
#821 = CARTESIAN_POINT ( 'NONE',  ( -9.422649730810423563, -0.05000000000000143219, -98.35134722819698538 ) ) ;
#822 = ORIENTED_EDGE ( 'NONE', *, *, #683, .T. ) ;
#823 = CARTESIAN_POINT ( 'NONE',  ( 5.342708442409904279, -1.252361354134008176, -44.70129715919684799 ) ) ;
#824 = DIRECTION ( 'NONE',  ( 0.000000000000000000, 0.000000000000000000, 1.000000000000000000 ) ) ;
#825 = CIRCLE ( 'NONE', #861, 14.94999999999999396 ) ;
#826 = EDGE_CURVE ( 'NONE', #1003, #828, #1059, .T. ) ;
#827 = EDGE_CURVE ( 'NONE', #828, #708, #706, .T. ) ;
#828 = VERTEX_POINT ( 'NONE', #601 ) ;
#829 = ORIENTED_EDGE ( 'NONE', *, *, #649, .T. ) ;
#830 = DIRECTION ( 'NONE',  ( -1.000000000000000000, 0.000000000000000000, 0.000000000000000000 ) ) ;
#831 = CARTESIAN_POINT ( 'NONE',  ( -17.95299995808712623, -16.92500000000000426, -44.89999999999999858 ) ) ;
#832 = EDGE_CURVE ( 'NONE', #164, #966, #969, .T. ) ;
#833 = AXIS2_PLACEMENT_3D ( 'NONE', #866, #313, #1045 ) ;
#834 = VERTEX_POINT ( 'NONE', #255 ) ;
#835 = CIRCLE ( 'NONE', #102, 2.100000000000000089 ) ;
#836 = DIRECTION ( 'NONE',  ( -0.000000000000000000, -0.000000000000000000, -1.000000000000000000 ) ) ;
#837 = CARTESIAN_POINT ( 'NONE',  ( -15.15285115251742454, -31.97500000000000497, 0.000000000000000000 ) ) ;
#838 = CARTESIAN_POINT ( 'NONE',  ( 15.15285115251741566, -31.97500000000000497, 2.000000000000000000 ) ) ;
#839 = LINE ( 'NONE', #849, #298 ) ;
#840 = UNCERTAINTY_MEASURE_WITH_UNIT (LENGTH_MEASURE( 1.000000000000000082E-05 ), #733, 'distance_accuracy_value', 'NONE');
#841 = DIRECTION ( 'NONE',  ( 1.000000000000000000, 0.000000000000000000, 0.000000000000000000 ) ) ;
#842 = DIRECTION ( 'NONE',  ( 0.8660254037844380415, 0.5000000000000012212, -0.000000000000000000 ) ) ;
#843 = ADVANCED_FACE ( 'NONE', ( #138 ), #529, .T. ) ;
#844 = CARTESIAN_POINT ( 'NONE',  ( -9.422649730810421786, -2.150000000000003464, -42.79999999999999716 ) ) ;
#845 = CARTESIAN_POINT ( 'NONE',  ( 6.447387849448178443, -3.049999999999996270, -44.89999999999999858 ) ) ;
#846 = CARTESIAN_POINT ( 'NONE',  ( 2.531666962989301162, -30.97500000000000853, 2.000000000000001776 ) ) ;
#847 = ADVANCED_FACE ( 'NONE', ( #328 ), #509, .T. ) ;
#848 = ORIENTED_EDGE ( 'NONE', *, *, #853, .T. ) ;
#849 = CARTESIAN_POINT ( 'NONE',  ( -24.37264973081041219, -11.99999999999999822, 2.000000000000000000 ) ) ;
#850 = LINE ( 'NONE', #669, #930 ) ;
#851 = DIRECTION ( 'NONE',  ( -0.3420201433256687129, -0.9396926207859083169, 0.000000000000000000 ) ) ;
#852 = VECTOR ( 'NONE', #527, 1000.000000000000000 ) ;
#853 = EDGE_CURVE ( 'NONE', #632, #710, #547, .T. ) ;
#854 = VECTOR ( 'NONE', #528, 1000.000000000000000 ) ;
#855 = ORIENTED_EDGE ( 'NONE', *, *, #361, .F. ) ;
#856 = PLANE ( 'NONE',  #672 ) ;
#857 = DIRECTION ( 'NONE',  ( 1.000000000000000000, 0.000000000000000000, 0.000000000000000000 ) ) ;
#858 = ADVANCED_FACE ( 'NONE', ( #443 ), #611, .F. ) ;
#859 = CARTESIAN_POINT ( 'NONE',  ( -6.447387849448179331, -5.049999999999997158, -44.89999999999999858 ) ) ;
#860 = VECTOR ( 'NONE', #192, 1000.000000000000000 ) ;
#861 = AXIS2_PLACEMENT_3D ( 'NONE', #1043, #310, #857 ) ;
#862 = ORIENTED_EDGE ( 'NONE', *, *, #50, .F. ) ;
#863 = DIRECTION ( 'NONE',  ( 0.000000000000000000, 0.000000000000000000, -1.000000000000000000 ) ) ;
#864 = LINE ( 'NONE', #577, #482 ) ;
#865 = LINE ( 'NONE', #244, #283 ) ;
#866 = CARTESIAN_POINT ( 'NONE',  ( -11.68874953737966393, -31.97500000000000497, -98.35134722819698538 ) ) ;
#867 = ADVANCED_FACE ( 'NONE', ( #975 ), #148, .T. ) ;
#868 = VERTEX_POINT ( 'NONE', #1176 ) ;
#869 = CARTESIAN_POINT ( 'NONE',  ( -9.422649730810421786, 2.949999999999996181, 2.000000000000000000 ) ) ;
#870 = DIRECTION ( 'NONE',  ( -1.000000000000000000, -4.336808689942016750E-16, 0.000000000000000000 ) ) ;
#871 = ORIENTED_EDGE ( 'NONE', *, *, #940, .F. ) ;
#872 = DIRECTION ( 'NONE',  ( -0.000000000000000000, -0.000000000000000000, 1.000000000000000000 ) ) ;
#873 = DIRECTION ( 'NONE',  ( -0.000000000000000000, -0.000000000000000000, 1.000000000000000000 ) ) ;
#874 = ADVANCED_FACE ( 'NONE', ( #1086 ), #59, .F. ) ;
#875 = VERTEX_POINT ( 'NONE', #715 ) ;
#876 = CARTESIAN_POINT ( 'NONE',  ( 6.447387849448179331, -5.049999999999997158, 2.000000000000000000 ) ) ;
#877 = ORIENTED_EDGE ( 'NONE', *, *, #208, .F. ) ;
#878 = LINE ( 'NONE', #886, #115 ) ;
#879 = ORIENTED_EDGE ( 'NONE', *, *, #1077, .T. ) ;
#880 = DIRECTION ( 'NONE',  ( 1.380760873163336883E-16, -1.000000000000000000, 0.000000000000000000 ) ) ;
#881 = AXIS2_PLACEMENT_3D ( 'NONE', #496, #1141, #949 ) ;
#882 = AXIS2_PLACEMENT_3D ( 'NONE', #780, #24, #394 ) ;
#883 = VERTEX_POINT ( 'NONE', #1048 ) ;
#884 = ORIENTED_EDGE ( 'NONE', *, *, #121, .F. ) ;
#885 = EDGE_LOOP ( 'NONE', ( #1189, #707, #598, #171, #961, #773, #684, #159, #299, #438, #667, #150, #893, #651 ) ) ;
#886 = CARTESIAN_POINT ( 'NONE',  ( -15.15285115251742454, -31.97500000000000497, 2.000000000000000000 ) ) ;
#887 = CARTESIAN_POINT ( 'NONE',  ( -1.531755855829153301, -30.96166666666667666, 2.000000000000000000 ) ) ;
#888 = DIRECTION ( 'NONE',  ( 0.000000000000000000, -1.000000000000000000, 0.000000000000000000 ) ) ;
#889 = CIRCLE ( 'NONE', #1036, 11.94999999999999929 ) ;
#890 = VERTEX_POINT ( 'NONE', #1138 ) ;
#891 = ORIENTED_EDGE ( 'NONE', *, *, #391, .T. ) ;
#892 = DIRECTION ( 'NONE',  ( 1.000000000000000000, 0.000000000000000000, 0.000000000000000000 ) ) ;
#893 = ORIENTED_EDGE ( 'NONE', *, *, #1093, .F. ) ;
#894 = EDGE_CURVE ( 'NONE', #126, #485, #120, .T. ) ;
#895 = FACE_OUTER_BOUND ( 'NONE', #199, .T. ) ;
#896 = FACE_OUTER_BOUND ( 'NONE', #456, .T. ) ;
#897 = LINE ( 'NONE', #799, #1002 ) ;
#898 = VERTEX_POINT ( 'NONE', #206 ) ;
#899 = EDGE_CURVE ( 'NONE', #638, #61, #454, .T. ) ;
#900 = EDGE_LOOP ( 'NONE', ( #240, #340, #351, #594, #393 ) ) ;
#901 = DIRECTION ( 'NONE',  ( 0.000000000000000000, 0.000000000000000000, 1.000000000000000000 ) ) ;
#902 = EDGE_LOOP ( 'NONE', ( #1143, #70, #811, #430, #72, #1188, #1055 ) ) ;
#903 = AXIS2_PLACEMENT_3D ( 'NONE', #967, #402, #145 ) ;
#904 = DIRECTION ( 'NONE',  ( 0.000000000000000000, 0.000000000000000000, 1.000000000000000000 ) ) ;
#905 = ORIENTED_EDGE ( 'NONE', *, *, #1022, .T. ) ;
#906 = DIRECTION ( 'NONE',  ( 4.336808689942016750E-16, -1.000000000000000000, 0.000000000000000000 ) ) ;
#907 = APPLICATION_CONTEXT ( 'automotive_design' ) ;
#908 = ORIENTED_EDGE ( 'NONE', *, *, #603, .T. ) ;
#909 = ORIENTED_EDGE ( 'NONE', *, *, #1113, .F. ) ;
#910 = PLANE ( 'NONE',  #643 ) ;
#911 = VERTEX_POINT ( 'NONE', #680 ) ;
#912 = CARTESIAN_POINT ( 'NONE',  ( 1.531755855829153301, -30.96166666666667666, -44.89999999999999858 ) ) ;
#913 = LINE ( 'NONE', #80, #1131 ) ;
#914 = ADVANCED_FACE ( 'NONE', ( #104 ), #757, .T. ) ;
#915 = VERTEX_POINT ( 'NONE', #492 ) ;
#916 = EDGE_LOOP ( 'NONE', ( #848, #432, #908, #631, #1126, #575, #720, #789, #533, #879, #343, #988, #585, #941, #1070, #801, #1184, #23, #540, #796 ) ) ;
#917 = CARTESIAN_POINT ( 'NONE',  ( 6.148749119797488838, -1.981920437221716069, -44.90000000000000568 ) ) ;
#918 = DIRECTION ( 'NONE',  ( 1.000000000000000000, 0.000000000000000000, 0.000000000000000000 ) ) ;
#919 = ADVANCED_FACE ( 'NONE', ( #1128 ), #232, .T. ) ;
#920 = AXIS2_PLACEMENT_3D ( 'NONE', #985, #1066, #1158 ) ;
#921 = VERTEX_POINT ( 'NONE', #1038 ) ;
#922 = CARTESIAN_POINT ( 'NONE',  ( -2.531666962989301162, -31.97500000000001208, -98.35134722819698538 ) ) ;
#923 = CARTESIAN_POINT ( 'NONE',  ( 15.15285115251741566, -31.97500000000000497, 2.000000000000000000 ) ) ;
#924 = CIRCLE ( 'NONE', #386, 2.000000000000000000 ) ;
#925 = VECTOR ( 'NONE', #953, 1000.000000000000000 ) ;
#926 = AXIS2_PLACEMENT_3D ( 'NONE', #997, #719, #252 ) ;
#927 = CARTESIAN_POINT ( 'NONE',  ( -4.447387849448178443, -3.049999999999996714, -44.89999999999999858 ) ) ;
#928 = DIRECTION ( 'NONE',  ( 1.000000000000000000, 0.000000000000000000, 0.000000000000000000 ) ) ;
#929 = AXIS2_PLACEMENT_3D ( 'NONE', #652, #1102, #830 ) ;
#930 = VECTOR ( 'NONE', #20, 1000.000000000000000 ) ;
#931 = LINE ( 'NONE', #471, #1150 ) ;
#932 = DIRECTION ( 'NONE',  ( -0.5000000000000011102, 0.8660254037844380415, 0.000000000000000000 ) ) ;
#933 = EDGE_CURVE ( 'NONE', #970, #740, #864, .T. ) ;
#934 = VECTOR ( 'NONE', #944, 1000.000000000000000 ) ;
#935 = DIRECTION ( 'NONE',  ( 1.000000000000000000, 8.260587980841937794E-16, 0.000000000000000000 ) ) ;
#936 = CARTESIAN_POINT ( 'NONE',  ( 21.37264973081040509, -12.00000000000000000, 0.000000000000000000 ) ) ;
#937 = PRODUCT_DEFINITION_FORMATION_WITH_SPECIFIED_SOURCE ( 'ANY', '', #964, .NOT_KNOWN. ) ;
#938 = CARTESIAN_POINT ( 'NONE',  ( 19.77165330603443394, -17.97500000000002274, -98.35134722819698538 ) ) ;
#939 = EDGE_CURVE ( 'NONE', #126, #868, #128, .T. ) ;
#940 = EDGE_CURVE ( 'NONE', #1062, #251, #291, .T. ) ;
#941 = ORIENTED_EDGE ( 'NONE', *, *, #5, .T. ) ;
#942 = DIRECTION ( 'NONE',  ( -0.000000000000000000, -0.000000000000000000, -1.000000000000000000 ) ) ;
#943 = CARTESIAN_POINT ( 'NONE',  ( 6.447387849448178443, -3.049999999999996714, -44.89999999999999858 ) ) ;
#944 = DIRECTION ( 'NONE',  ( -0.000000000000000000, -0.000000000000000000, 1.000000000000000000 ) ) ;
#945 = EDGE_CURVE ( 'NONE', #513, #787, #825, .T. ) ;
#946 = VERTEX_POINT ( 'NONE', #936 ) ;
#947 = DIRECTION ( 'NONE',  ( 1.000000000000000000, 0.000000000000000000, 0.000000000000000000 ) ) ;
#948 = DIRECTION ( 'NONE',  ( -1.000000000000000000, 0.000000000000000000, 0.000000000000000000 ) ) ;
#949 = DIRECTION ( 'NONE',  ( 1.000000000000000000, -5.936386849352206738E-16, 0.000000000000000000 ) ) ;
#950 = VECTOR ( 'NONE', #1156, 1000.000000000000000 ) ;
#951 = VECTOR ( 'NONE', #434, 1000.000000000000000 ) ;
#952 = ORIENTED_EDGE ( 'NONE', *, *, #1076, .T. ) ;
#953 = DIRECTION ( 'NONE',  ( 1.000000000000000000, -5.936386849352206738E-16, 0.000000000000000000 ) ) ;
#954 = LINE ( 'NONE', #380, #725 ) ;
#955 = PLANE ( 'NONE',  #101 ) ;
#956 = CARTESIAN_POINT ( 'NONE',  ( -1.531755855829153301, -30.96166666666667666, -44.89999999999999858 ) ) ;
#957 = VECTOR ( 'NONE', #700, 1000.000000000000000 ) ;
#958 = EDGE_LOOP ( 'NONE', ( #591, #210, #516, #1147 ) ) ;
#959 = CARTESIAN_POINT ( 'NONE',  ( -6.043613781300896548, -1.830984711199887816, -44.88026475342962129 ) ) ;
#960 = DIRECTION ( 'NONE',  ( 1.000000000000000000, 0.000000000000000000, -0.000000000000000000 ) ) ;
#961 = ORIENTED_EDGE ( 'NONE', *, *, #991, .T. ) ;
#962 = CARTESIAN_POINT ( 'NONE',  ( 9.422649730810393365, -0.05000000000000000278, 0.000000000000000000 ) ) ;
#963 = LINE ( 'NONE', #41, #670 ) ;
#964 = PRODUCT ( 'Gripper Insert 3mm', 'Gripper Insert 3mm', '', ( #1009 ) ) ;
#965 = VERTEX_POINT ( 'NONE', #31 ) ;
#966 = VERTEX_POINT ( 'NONE', #1123 ) ;
#967 = CARTESIAN_POINT ( 'NONE',  ( 9.422649730810393365, -2.150000000000000355, -42.79999999999999716 ) ) ;
#968 = DIRECTION ( 'NONE',  ( 0.000000000000000000, 0.000000000000000000, -1.000000000000000000 ) ) ;
#969 = LINE ( 'NONE', #155, #329 ) ;
#970 = VERTEX_POINT ( 'NONE', #762 ) ;
#971 = DIRECTION ( 'NONE',  ( 1.000000000000000000, 0.000000000000000000, 0.000000000000000000 ) ) ;
#972 = VERTEX_POINT ( 'NONE', #582 ) ;
#973 = DIRECTION ( 'NONE',  ( -0.000000000000000000, -0.000000000000000000, 1.000000000000000000 ) ) ;
#974 = LINE ( 'NONE', #518, #1017 ) ;
#975 = FACE_OUTER_BOUND ( 'NONE', #793, .T. ) ;
#976 = AXIS2_PLACEMENT_3D ( 'NONE', #938, #105, #476 ) ;
#977 = AXIS2_PLACEMENT_3D ( 'NONE', #191, #98, #1122 ) ;
#978 = ADVANCED_FACE ( 'NONE', ( #401 ), #686, .T. ) ;
#979 = ORIENTED_EDGE ( 'NONE', *, *, #445, .T. ) ;
#980 = ORIENTED_EDGE ( 'NONE', *, *, #1032, .F. ) ;
#981 = DIRECTION ( 'NONE',  ( -0.000000000000000000, -0.000000000000000000, 1.000000000000000000 ) ) ;
#982 = ORIENTED_EDGE ( 'NONE', *, *, #1076, .F. ) ;
#983 = DIRECTION ( 'NONE',  ( 0.000000000000000000, 0.000000000000000000, 1.000000000000000000 ) ) ;
#984 = DIRECTION ( 'NONE',  ( -0.000000000000000000, -1.000000000000000000, -0.000000000000000000 ) ) ;
#985 = CARTESIAN_POINT ( 'NONE',  ( 9.422649730810407576, -12.00000000000000000, -42.79999999999999716 ) ) ;
#986 = ADVANCED_FACE ( 'NONE', ( #25 ), #38, .T. ) ;
#987 = ORIENTED_EDGE ( 'NONE', *, *, #1093, .T. ) ;
#988 = ORIENTED_EDGE ( 'NONE', *, *, #899, .T. ) ;
#989 = CARTESIAN_POINT ( 'NONE',  ( 9.422649730810407576, -12.00000000000000000, 0.000000000000000000 ) ) ;
#990 = ORIENTED_EDGE ( 'NONE', *, *, #654, .T. ) ;
#991 = EDGE_CURVE ( 'NONE', #634, #911, #850, .T. ) ;
#992 = DIRECTION ( 'NONE',  ( 1.000000000000000000, 0.000000000000000000, 0.000000000000000000 ) ) ;
#993 = CARTESIAN_POINT ( 'NONE',  ( -24.37264973081041219, -11.99999999999999822, 2.000000000000000000 ) ) ;
#994 = LINE ( 'NONE', #418, #314 ) ;
#995 = ORIENTED_EDGE ( 'NONE', *, *, #613, .F. ) ;
#996 = ORIENTED_EDGE ( 'NONE', *, *, #511, .T. ) ;
#997 = CARTESIAN_POINT ( 'NONE',  ( 2.531666962989301162, -30.97500000000000853, -44.89999999999999858 ) ) ;
#998 = EDGE_LOOP ( 'NONE', ( #987, #2, #624, #538 ) ) ;
#999 = DIRECTION ( 'NONE',  ( 0.000000000000000000, 0.000000000000000000, 1.000000000000000000 ) ) ;
#1000 = FACE_OUTER_BOUND ( 'NONE', #885, .T. ) ;
#1001 = EDGE_CURVE ( 'NONE', #970, #687, #954, .T. ) ;
#1002 = VECTOR ( 'NONE', #906, 1000.000000000000000 ) ;
#1003 = VERTEX_POINT ( 'NONE', #1146 ) ;
#1004 = ORIENTED_EDGE ( 'NONE', *, *, #117, .T. ) ;
#1005 = EDGE_CURVE ( 'NONE', #698, #972, #1026, .T. ) ;
#1006 = CARTESIAN_POINT ( 'NONE',  ( -2.531666962989301162, -30.97500000000000853, -44.89999999999999858 ) ) ;
#1007 = CARTESIAN_POINT ( 'NONE',  ( -2.531666962989301162, -30.97500000000000853, -44.89999999999999858 ) ) ;
#1008 = ORIENTED_EDGE ( 'NONE', *, *, #826, .F. ) ;
#1009 = PRODUCT_CONTEXT ( 'NONE', #558, 'mechanical' ) ;
#1010 = VERTEX_POINT ( 'NONE', #845 ) ;
#1011 = CARTESIAN_POINT ( 'NONE',  ( -19.77165330603444815, -17.97500000000000853, 0.000000000000000000 ) ) ;
#1012 = PLANE ( 'NONE',  #463 ) ;
#1013 = VECTOR ( 'NONE', #395, 1000.000000000000000 ) ;
#1014 = EDGE_LOOP ( 'NONE', ( #980, #220, #1060, #615 ) ) ;
#1015 = DIRECTION ( 'NONE',  ( 0.000000000000000000, 0.000000000000000000, 1.000000000000000000 ) ) ;
#1016 = LINE ( 'NONE', #281, #860 ) ;
#1017 = VECTOR ( 'NONE', #245, 1000.000000000000114 ) ;
#1018 = DIRECTION ( 'NONE',  ( -1.000000000000000000, 0.000000000000000000, 0.000000000000000000 ) ) ;
#1019 = DIRECTION ( 'NONE',  ( 1.000000000000000000, -5.936386849352206738E-16, 0.000000000000000000 ) ) ;
#1020 = AXIS2_PLACEMENT_3D ( 'NONE', #97, #556, #928 ) ;
#1021 = AXIS2_PLACEMENT_3D ( 'NONE', #324, #1162, #532 ) ;
#1022 = EDGE_CURVE ( 'NONE', #485, #883, #390, .T. ) ;
#1023 = DIRECTION ( 'NONE',  ( -1.000000000000000000, 0.000000000000000000, 0.000000000000000000 ) ) ;
#1024 = EDGE_CURVE ( 'NONE', #626, #779, #201, .T. ) ;
#1025 = LINE ( 'NONE', #200, #6 ) ;
#1026 = LINE ( 'NONE', #195, #1080 ) ;
#1027 = EDGE_CURVE ( 'NONE', #177, #1091, #505, .T. ) ;
#1028 = CIRCLE ( 'NONE', #571, 1.000000000000000000 ) ;
#1029 = ORIENTED_EDGE ( 'NONE', *, *, #553, .T. ) ;
#1030 = CARTESIAN_POINT ( 'NONE',  ( -9.422649730810421786, 2.949999999999996181, 2.000000000000000000 ) ) ;
#1031 = AXIS2_PLACEMENT_3D ( 'NONE', #754, #1119, #289 ) ;
#1032 = EDGE_CURVE ( 'NONE', #1010, #118, #515, .T. ) ;
#1033 = CARTESIAN_POINT ( 'NONE',  ( 21.37264973081040509, -12.00000000000000000, -42.79999999999999716 ) ) ;
#1034 = EDGE_CURVE ( 'NONE', #898, #1003, #447, .T. ) ;
#1035 = ORIENTED_EDGE ( 'NONE', *, *, #261, .T. ) ;
#1036 = AXIS2_PLACEMENT_3D ( 'NONE', #284, #666, #12 ) ;
#1037 = CARTESIAN_POINT ( 'NONE',  ( -9.263878406783234709, -31.97500000000000497, -44.89999999999999858 ) ) ;
#1038 = CARTESIAN_POINT ( 'NONE',  ( 15.15285115251741566, -31.97500000000000497, 2.000000000000000000 ) ) ;
#1039 = DIRECTION ( 'NONE',  ( 1.000000000000000000, 0.000000000000000000, 0.000000000000000000 ) ) ;
#1040 = UNCERTAINTY_MEASURE_WITH_UNIT (LENGTH_MEASURE( 1.000000000000000082E-05 ), #721, 'distance_accuracy_value', 'NONE');
#1041 = EDGE_LOOP ( 'NONE', ( #995, #580, #185, #727 ) ) ;
#1042 = CARTESIAN_POINT ( 'NONE',  ( -5.173978167456753319, -1.177713792975636498, -44.66225151908466984 ) ) ;
#1043 = CARTESIAN_POINT ( 'NONE',  ( -9.422649730810416457, -11.99999999999999822, 0.000000000000000000 ) ) ;
#1044 = FACE_OUTER_BOUND ( 'NONE', #542, .T. ) ;
#1045 = DIRECTION ( 'NONE',  ( 0.5000000000000012212, -0.8660254037844380415, 0.000000000000000000 ) ) ;
#1046 = ORIENTED_EDGE ( 'NONE', *, *, #295, .T. ) ;
#1047 = FACE_OUTER_BOUND ( 'NONE', #421, .T. ) ;
#1048 = CARTESIAN_POINT ( 'NONE',  ( -9.422649730810421786, 2.949999999999996181, 0.000000000000000000 ) ) ;
#1049 = ORIENTED_EDGE ( 'NONE', *, *, #1005, .T. ) ;
#1050 = DIRECTION ( 'NONE',  ( 0.000000000000000000, 0.000000000000000000, 1.000000000000000000 ) ) ;
#1051 = FACE_OUTER_BOUND ( 'NONE', #597, .T. ) ;
#1052 = ORIENTED_EDGE ( 'NONE', *, *, #511, .F. ) ;
#1053 = DIRECTION ( 'NONE',  ( 1.000000000000000000, 0.000000000000000000, 0.000000000000000000 ) ) ;
#1054 = CARTESIAN_POINT ( 'NONE',  ( -6.447387849448179331, -5.049999999999997158, 2.000000000000000000 ) ) ;
#1055 = ORIENTED_EDGE ( 'NONE', *, *, #424, .T. ) ;
#1056 = EDGE_CURVE ( 'NONE', #135, #739, #414, .T. ) ;
#1057 = CARTESIAN_POINT ( 'NONE',  ( 4.447387849448179331, -1.049999999999996714, 2.000000000000000000 ) ) ;
#1058 = CARTESIAN_POINT ( 'NONE',  ( 20.79348994809114970, -12.00512701892224321, -44.89999999999999858 ) ) ;
#1059 = LINE ( 'NONE', #435, #282 ) ;
#1060 = ORIENTED_EDGE ( 'NONE', *, *, #1027, .T. ) ;
#1061 = DIRECTION ( 'NONE',  ( -0.000000000000000000, -0.000000000000000000, 1.000000000000000000 ) ) ;
#1062 = VERTEX_POINT ( 'NONE', #53 ) ;
#1063 = AXIS2_PLACEMENT_3D ( 'NONE', #49, #238, #536 ) ;
#1064 = DIRECTION ( 'NONE',  ( 1.000000000000000000, 0.000000000000000000, 0.000000000000000000 ) ) ;
#1065 = CARTESIAN_POINT ( 'NONE',  ( -11.68874953737966393, -31.97500000000000497, -98.35134722819698538 ) ) ;
#1066 = DIRECTION ( 'NONE',  ( -0.000000000000000000, -0.000000000000000000, 1.000000000000000000 ) ) ;
#1067 = EDGE_CURVE ( 'NONE', #272, #405, #348, .T. ) ;
#1068 = VECTOR ( 'NONE', #3, 1000.000000000000000 ) ;
#1069 = ORIENTED_EDGE ( 'NONE', *, *, #256, .F. ) ;
#1070 = ORIENTED_EDGE ( 'NONE', *, *, #1024, .T. ) ;
#1071 = CARTESIAN_POINT ( 'NONE',  ( -9.422649730810416457, -11.99999999999999822, 2.000000000000000000 ) ) ;
#1072 = ORIENTED_EDGE ( 'NONE', *, *, #1034, .F. ) ;
#1073 = DIRECTION ( 'NONE',  ( 0.000000000000000000, 0.000000000000000000, 1.000000000000000000 ) ) ;
#1074 = FACE_OUTER_BOUND ( 'NONE', #350, .T. ) ;
#1075 = DIRECTION ( 'NONE',  ( -0.000000000000000000, -0.000000000000000000, 1.000000000000000000 ) ) ;
#1076 = EDGE_CURVE ( 'NONE', #243, #1163, #616, .T. ) ;
#1077 = EDGE_CURVE ( 'NONE', #204, #253, #134, .T. ) ;
#1078 = VECTOR ( 'NONE', #276, 1000.000000000000000 ) ;
#1079 = ORIENTED_EDGE ( 'NONE', *, *, #290, .T. ) ;
#1080 = VECTOR ( 'NONE', #569, 1000.000000000000000 ) ;
#1081 = ORIENTED_EDGE ( 'NONE', *, *, #473, .T. ) ;
#1082 = CARTESIAN_POINT ( 'NONE',  ( 9.263878406783218722, -31.97500000000001563, -44.89999999999999858 ) ) ;
#1083 = EDGE_LOOP ( 'NONE', ( #36, #523, #500, #83 ) ) ;
#1084 =( NAMED_UNIT ( * ) PLANE_ANGLE_UNIT ( ) SI_UNIT ( $, .RADIAN. ) );
#1085 = ORIENTED_EDGE ( 'NONE', *, *, #277, .F. ) ;
#1086 = FACE_OUTER_BOUND ( 'NONE', #804, .T. ) ;
#1087 = EDGE_CURVE ( 'NONE', #485, #18, #446, .T. ) ;
#1088 = ORIENTED_EDGE ( 'NONE', *, *, #894, .F. ) ;
#1089 = ORIENTED_EDGE ( 'NONE', *, *, #50, .T. ) ;
#1090 = DIRECTION ( 'NONE',  ( -0.000000000000000000, -0.000000000000000000, -1.000000000000000000 ) ) ;
#1091 = VERTEX_POINT ( 'NONE', #876 ) ;
#1092 = LINE ( 'NONE', #1157, #951 ) ;
#1093 = EDGE_CURVE ( 'NONE', #972, #868, #622, .T. ) ;
#1094 = EDGE_LOOP ( 'NONE', ( #1161, #782, #506, #52 ) ) ;
#1095 = ORIENTED_EDGE ( 'NONE', *, *, #1001, .T. ) ;
#1096 = CARTESIAN_POINT ( 'NONE',  ( 6.043613781300897436, -1.830984711199887816, -44.88026475342962129 ) ) ;
#1097 = FACE_OUTER_BOUND ( 'NONE', #525, .T. ) ;
#1098 = CIRCLE ( 'NONE', #738, 76.00000000000000000 ) ;
#1099 = CIRCLE ( 'NONE', #1031, 2.100000000000000089 ) ;
#1100 = VERTEX_POINT ( 'NONE', #143 ) ;
#1101 = ORIENTED_EDGE ( 'NONE', *, *, #602, .F. ) ;
#1102 = DIRECTION ( 'NONE',  ( 0.000000000000000000, 0.000000000000000000, -1.000000000000000000 ) ) ;
#1103 = DIRECTION ( 'NONE',  ( -1.000000000000000000, -1.741981733198467939E-15, 0.000000000000000000 ) ) ;
#1104 = VECTOR ( 'NONE', #1127, 1000.000000000000000 ) ;
#1105 = ORIENTED_EDGE ( 'NONE', *, *, #55, .T. ) ;
#1106 = CARTESIAN_POINT ( 'NONE',  ( 4.635471886686741705, -1.049999999999996714, -44.58885438199982332 ) ) ;
#1107 = CARTESIAN_POINT ( 'NONE',  ( -15.15285115251742454, -31.97500000000000497, 2.000000000000000000 ) ) ;
#1108 = EDGE_CURVE ( 'NONE', #690, #362, #709, .T. ) ;
#1109 = SHAPE_DEFINITION_REPRESENTATION ( #1177, #664 ) ;
#1110 = DIRECTION ( 'NONE',  ( -0.5000000000000011102, 0.8660254037844379305, 0.000000000000000000 ) ) ;
#1111 = CARTESIAN_POINT ( 'NONE',  ( 6.447387849448179331, -5.049999999999997158, -44.89999999999999858 ) ) ;
#1112 = VECTOR ( 'NONE', #136, 999.9999999999997726 ) ;
#1113 = EDGE_CURVE ( 'NONE', #834, #638, #1181, .T. ) ;
#1114 = CIRCLE ( 'NONE', #588, 1.000000000000000000 ) ;
#1115 = DIRECTION ( 'NONE',  ( -0.000000000000000000, -0.000000000000000000, -1.000000000000000000 ) ) ;
#1116 = CIRCLE ( 'NONE', #929, 9.849999999999994316 ) ;
#1117 = VECTOR ( 'NONE', #788, 1000.000000000000000 ) ;
#1118 = EDGE_CURVE ( 'NONE', #156, #972, #77, .T. ) ;
#1119 = DIRECTION ( 'NONE',  ( -0.5000000000000011102, -0.8660254037844380415, -0.000000000000000000 ) ) ;
#1120 = AXIS2_PLACEMENT_3D ( 'NONE', #66, #724, #704 ) ;
#1121 = EDGE_CURVE ( 'NONE', #690, #1010, #95, .T. ) ;
#1122 = DIRECTION ( 'NONE',  ( 4.336808689942016750E-16, 1.000000000000000000, 0.000000000000000000 ) ) ;
#1123 = CARTESIAN_POINT ( 'NONE',  ( -4.447387849448179331, -1.049999999999996714, 2.000000000000000000 ) ) ;
#1124 = STYLED_ITEM ( 'NONE', ( #8 ), #322 ) ;
#1125 = LINE ( 'NONE', #956, #1145 ) ;
#1126 = ORIENTED_EDGE ( 'NONE', *, *, #644, .T. ) ;
#1127 = DIRECTION ( 'NONE',  ( 4.336808689942016750E-16, -1.000000000000000000, 0.000000000000000000 ) ) ;
#1128 = FACE_OUTER_BOUND ( 'NONE', #900, .T. ) ;
#1129 = CIRCLE ( 'NONE', #1, 2.100000000000000089 ) ;
#1130 = DIRECTION ( 'NONE',  ( 0.000000000000000000, 0.000000000000000000, 1.000000000000000000 ) ) ;
#1131 = VECTOR ( 'NONE', #452, 1000.000000000000000 ) ;
#1132 = ORIENTED_EDGE ( 'NONE', *, *, #743, .T. ) ;
#1133 = CARTESIAN_POINT ( 'NONE',  ( 9.422649730810407576, -12.00000000000000000, -44.89999999999999858 ) ) ;
#1134 = CARTESIAN_POINT ( 'NONE',  ( -2.531666962989301162, -30.97500000000000853, 2.000000000000001776 ) ) ;
#1135 = CARTESIAN_POINT ( 'NONE',  ( 19.77165330603443394, -17.97500000000002274, 0.000000000000000000 ) ) ;
#1136 = EDGE_LOOP ( 'NONE', ( #877, #330, #1101, #78 ) ) ;
#1137 = CYLINDRICAL_SURFACE ( 'NONE', #882, 2.100000000000000089 ) ;
#1138 = CARTESIAN_POINT ( 'NONE',  ( 19.77165330603443394, -17.97500000000002629, 0.000000000000000000 ) ) ;
#1139 = ORIENTED_EDGE ( 'NONE', *, *, #853, .F. ) ;
#1140 = DIRECTION ( 'NONE',  ( 4.336808689942016750E-16, 1.000000000000000000, 0.000000000000000000 ) ) ;
#1141 = DIRECTION ( 'NONE',  ( -5.936386849352206738E-16, -1.000000000000000000, 0.000000000000000000 ) ) ;
#1142 = EDGE_CURVE ( 'NONE', #251, #257, #259, .T. ) ;
#1143 = ORIENTED_EDGE ( 'NONE', *, *, #269, .T. ) ;
#1144 = DIRECTION ( 'NONE',  ( 0.000000000000000000, 0.000000000000000000, 1.000000000000000000 ) ) ;
#1145 = VECTOR ( 'NONE', #403, 1000.000000000000000 ) ;
#1146 = CARTESIAN_POINT ( 'NONE',  ( 11.68874953737964795, -31.97500000000001563, -42.79999999999999716 ) ) ;
#1147 = ORIENTED_EDGE ( 'NONE', *, *, #1024, .F. ) ;
#1148 = LINE ( 'NONE', #130, #184 ) ;
#1149 = CARTESIAN_POINT ( 'NONE',  ( 6.447387849448178443, -3.049999999999996270, 2.000000000000000000 ) ) ;
#1150 = VECTOR ( 'NONE', #480, 1000.000000000000000 ) ;
#1151 = DIRECTION ( 'NONE',  ( 1.000000000000000000, 0.000000000000000000, 0.000000000000000000 ) ) ;
#1152 = ORIENTED_EDGE ( 'NONE', *, *, #404, .F. ) ;
#1153 = CARTESIAN_POINT ( 'NONE',  ( -15.15285115251742454, -31.97500000000000497, 0.000000000000000000 ) ) ;
#1154 = ORIENTED_EDGE ( 'NONE', *, *, #1155, .T. ) ;
#1155 = EDGE_CURVE ( 'NONE', #740, #626, #165, .T. ) ;
#1156 = DIRECTION ( 'NONE',  ( -0.000000000000000000, -0.000000000000000000, 1.000000000000000000 ) ) ;
#1157 = CARTESIAN_POINT ( 'NONE',  ( -15.15285115251742454, -31.97500000000000497, 2.000000000000000000 ) ) ;
#1158 = DIRECTION ( 'NONE',  ( -1.000000000000000000, 0.000000000000000000, 0.000000000000000000 ) ) ;
#1159 = VERTEX_POINT ( 'NONE', #227 ) ;
#1160 = EDGE_CURVE ( 'NONE', #1163, #265, #368, .T. ) ;
#1161 = ORIENTED_EDGE ( 'NONE', *, *, #557, .F. ) ;
#1162 = DIRECTION ( 'NONE',  ( 0.000000000000000000, 0.000000000000000000, -1.000000000000000000 ) ) ;
#1163 = VERTEX_POINT ( 'NONE', #625 ) ;
#1164 = VECTOR ( 'NONE', #108, 1000.000000000000000 ) ;
#1165 = DIRECTION ( 'NONE',  ( -0.3420201433256687129, -0.9396926207859083169, 0.000000000000000000 ) ) ;
#1166 = DIRECTION ( 'NONE',  ( 0.000000000000000000, 0.000000000000000000, 1.000000000000000000 ) ) ;
#1167 = DIRECTION ( 'NONE',  ( -0.000000000000000000, -0.000000000000000000, 1.000000000000000000 ) ) ;
#1168 = ADVANCED_FACE ( 'NONE', ( #539 ), #910, .T. ) ;
#1169 = AXIS2_PLACEMENT_3D ( 'NONE', #119, #863, #30 ) ;
#1170 = ORIENTED_EDGE ( 'NONE', *, *, #307, .F. ) ;
#1171 = EDGE_LOOP ( 'NONE', ( #112, #157, #548, #341 ) ) ;
#1172 = DIRECTION ( 'NONE',  ( -1.000000000000000000, 0.000000000000000000, 0.000000000000000000 ) ) ;
#1173 = ORIENTED_EDGE ( 'NONE', *, *, #139, .T. ) ;
#1174 = DIRECTION ( 'NONE',  ( 0.000000000000000000, 0.000000000000000000, 1.000000000000000000 ) ) ;
#1175 = DIRECTION ( 'NONE',  ( 0.000000000000000000, 0.000000000000000000, 1.000000000000000000 ) ) ;
#1176 = CARTESIAN_POINT ( 'NONE',  ( 9.422649730810384483, 2.949999999999997957, 0.000000000000000000 ) ) ;
#1177 = PRODUCT_DEFINITION_SHAPE ( 'NONE', 'NONE',  #374 ) ;
#1178 = ORIENTED_EDGE ( 'NONE', *, *, #1108, .T. ) ;
#1179 = VECTOR ( 'NONE', #449, 1000.000000000000000 ) ;
#1180 = ORIENTED_EDGE ( 'NONE', *, *, #169, .F. ) ;
#1181 = LINE ( 'NONE', #728, #464 ) ;
#1182 = ORIENTED_EDGE ( 'NONE', *, *, #1032, .T. ) ;
#1183 = CARTESIAN_POINT ( 'NONE',  ( -19.27264973081041077, -11.99999999999999822, -42.79999999999999716 ) ) ;
#1184 = ORIENTED_EDGE ( 'NONE', *, *, #385, .T. ) ;
#1185 = DIRECTION ( 'NONE',  ( -7.586993339517289199E-17, 1.000000000000000000, 0.000000000000000000 ) ) ;
#1186 = ORIENTED_EDGE ( 'NONE', *, *, #832, .T. ) ;
#1187 = DIRECTION ( 'NONE',  ( -0.8660254037844379305, 0.5000000000000013323, 0.000000000000000000 ) ) ;
#1188 = ORIENTED_EDGE ( 'NONE', *, *, #55, .F. ) ;
#1189 = ORIENTED_EDGE ( 'NONE', *, *, #182, .F. ) ;
#1190 = SURFACE_SIDE_STYLE ('',( #441 ) ) ;
#1191 = CARTESIAN_POINT ( 'NONE',  ( -1.531755855829153301, -30.96166666666667666, -44.89999999999999858 ) ) ;
#1192 = AXIS2_PLACEMENT_3D ( 'NONE', #489, #109, #764 ) ;
ENDSEC;
END-ISO-10303-21;
