ISO-10303-21;
HEADER;
FILE_DESCRIPTION (( 'STEP AP214' ),
    '1' );
FILE_NAME ('Lap Shear Coupon 7x7mm.STEP',
    '2026-06-27T05:49:25',
    ( '' ),
    ( '' ),
    'SwSTEP 2.0',
    'SolidWorks 2025',
    '' );
FILE_SCHEMA (( 'AUTOMOTIVE_DESIGN' ));
ENDSEC;

DATA;
#1 = ORIENTED_EDGE ( 'NONE', *, *, #562, .T. ) ;
#2 = DIRECTION ( 'NONE',  ( -0.000000000000000000, -0.000000000000000000, -1.000000000000000000 ) ) ;
#3 = CARTESIAN_POINT ( 'NONE',  ( 3.500000000000003109, -36.84152883506278187, 6.875440510832781627 ) ) ;
#4 = AXIS2_PLACEMENT_3D ( 'NONE', #447, #1007, #771 ) ;
#5 = FACE_OUTER_BOUND ( 'NONE', #226, .T. ) ;
#6 = ADVANCED_FACE ( 'NONE', ( #266 ), #91, .F. ) ;
#7 = CARTESIAN_POINT ( 'NONE',  ( 4.561484760697135599, -44.33227839365724066, 4.712467430016790360 ) ) ;
#8 = ORIENTED_EDGE ( 'NONE', *, *, #393, .F. ) ;
#9 = DIRECTION ( 'NONE',  ( 1.214271186538564186E-14, -1.000000000000000000, 0.000000000000000000 ) ) ;
#10 = ORIENTED_EDGE ( 'NONE', *, *, #435, .F. ) ;
#11 = VECTOR ( 'NONE', #460, 1000.000000000000000 ) ;
#12 = EDGE_CURVE ( 'NONE', #951, #1004, #347, .T. ) ;
#13 = PLANE ( 'NONE',  #937 ) ;
#14 = CARTESIAN_POINT ( 'NONE',  ( -13.50000000000000533, -0.3772233983161953352, 7.000000000000000000 ) ) ;
#15 = VERTEX_POINT ( 'NONE', #596 ) ;
#16 = VECTOR ( 'NONE', #65, 1000.000000000000000 ) ;
#17 = EDGE_LOOP ( 'NONE', ( #911, #579, #927, #120 ) ) ;
#18 = ADVANCED_FACE ( 'NONE', ( #841 ), #588, .F. ) ;
#19 = DIRECTION ( 'NONE',  ( -1.000000000000000000, 0.000000000000000000, 0.000000000000000000 ) ) ;
#20 = CARTESIAN_POINT ( 'NONE',  ( -5.499999999999998224, -54.89289031656714712, -2.449293598294708880E-16 ) ) ;
#21 = CARTESIAN_POINT ( 'NONE',  ( -4.999999999999994671, -50.14289031656715423, 0.000000000000000000 ) ) ;
#22 = ORIENTED_EDGE ( 'NONE', *, *, #23, .T. ) ;
#23 = EDGE_CURVE ( 'NONE', #343, #273, #184, .T. ) ;
#24 = ORIENTED_EDGE ( 'NONE', *, *, #67, .F. ) ;
#25 = CARTESIAN_POINT ( 'NONE',  ( 3.826039558048548006, -40.10184128716212371, 6.058515600265235612 ) ) ;
#26 = DIRECTION ( 'NONE',  ( 0.000000000000000000, -1.000000000000000000, 0.000000000000000000 ) ) ;
#27 = VERTEX_POINT ( 'NONE', #813 ) ;
#28 = PLANE ( 'NONE',  #701 ) ;
#29 = LINE ( 'NONE', #443, #788 ) ;
#30 = VERTEX_POINT ( 'NONE', #970 ) ;
#31 = VECTOR ( 'NONE', #453, 1000.000000000000000 ) ;
#32 = LINE ( 'NONE', #442, #134 ) ;
#33 = DIRECTION ( 'NONE',  ( -1.000000000000000000, -0.000000000000000000, -0.000000000000000000 ) ) ;
#34 = ORIENTED_EDGE ( 'NONE', *, *, #352, .F. ) ;
#35 = EDGE_CURVE ( 'NONE', #339, #452, #82, .T. ) ;
#36 = LINE ( 'NONE', #432, #846 ) ;
#37 = ORIENTED_EDGE ( 'NONE', *, *, #53, .F. ) ;
#38 = EDGE_CURVE ( 'NONE', #452, #258, #905, .T. ) ;
#39 = VERTEX_POINT ( 'NONE', #801 ) ;
#40 = CYLINDRICAL_SURFACE ( 'NONE', #820, 37.87500000000014211 ) ;
#41 = VERTEX_POINT ( 'NONE', #247 ) ;
#42 = ORIENTED_EDGE ( 'NONE', *, *, #733, .F. ) ;
#43 = CARTESIAN_POINT ( 'NONE',  ( -5.499999999999998224, -54.89289031656714712, -2.449293598294708880E-16 ) ) ;
#44 = EDGE_CURVE ( 'NONE', #187, #948, #766, .T. ) ;
#45 = ORIENTED_EDGE ( 'NONE', *, *, #242, .F. ) ;
#46 = DIRECTION ( 'NONE',  ( -3.469446951953611033E-15, 1.000000000000000000, -0.000000000000000000 ) ) ;
#47 = DIRECTION ( 'NONE',  ( -0.000000000000000000, -0.000000000000000000, -1.000000000000000000 ) ) ;
#48 = VECTOR ( 'NONE', #499, 1000.000000000000000 ) ;
#49 = ORIENTED_EDGE ( 'NONE', *, *, #497, .F. ) ;
#50 = CARTESIAN_POINT ( 'NONE',  ( 3.500000000000008438, -1.520113714883359224, 7.000000000000000000 ) ) ;
#51 = AXIS2_PLACEMENT_3D ( 'NONE', #1020, #282, #385 ) ;
#52 = VERTEX_POINT ( 'NONE', #163 ) ;
#53 = EDGE_CURVE ( 'NONE', #534, #830, #662, .T. ) ;
#54 = DIRECTION ( 'NONE',  ( 1.000000000000000000, 0.000000000000000000, -0.000000000000000000 ) ) ;
#55 = CARTESIAN_POINT ( 'NONE',  ( -3.499999999999997335, -35.14289031656714712, 7.000000000000000000 ) ) ;
#56 = LINE ( 'NONE', #388, #803 ) ;
#57 = CIRCLE ( 'NONE', #281, 45.00000000000000000 ) ;
#58 = ORIENTED_EDGE ( 'NONE', *, *, #733, .T. ) ;
#59 = DIRECTION ( 'NONE',  ( -0.000000000000000000, 0.000000000000000000, -1.000000000000000000 ) ) ;
#60 = DIRECTION ( 'NONE',  ( 0.000000000000000000, 1.000000000000000000, 0.000000000000000000 ) ) ;
#61 = VECTOR ( 'NONE', #233, 1000.000000000000000 ) ;
#62 = CARTESIAN_POINT ( 'NONE',  ( -3.500000000000003109, -33.14289031656714002, 0.000000000000000000 ) ) ;
#63 = VECTOR ( 'NONE', #547, 1000.000000000000000 ) ;
#64 = EDGE_LOOP ( 'NONE', ( #138, #1049, #211, #22 ) ) ;
#65 = DIRECTION ( 'NONE',  ( -0.000000000000000000, -0.000000000000000000, -1.000000000000000000 ) ) ;
#66 = CYLINDRICAL_SURFACE ( 'NONE', #743, 20.00000000000000000 ) ;
#67 = EDGE_CURVE ( 'NONE', #652, #774, #145, .T. ) ;
#68 = LINE ( 'NONE', #399, #617 ) ;
#69 = VERTEX_POINT ( 'NONE', #254 ) ;
#70 = LINE ( 'NONE', #559, #856 ) ;
#71 = CARTESIAN_POINT ( 'NONE',  ( 5.499999999999998224, -54.89289031656714712, -2.449293598294708880E-16 ) ) ;
#72 = LINE ( 'NONE', #591, #196 ) ;
#73 = EDGE_CURVE ( 'NONE', #640, #839, #407, .T. ) ;
#74 = ORIENTED_EDGE ( 'NONE', *, *, #1006, .T. ) ;
#75 = DIRECTION ( 'NONE',  ( 1.000000000000000000, 0.000000000000000000, 0.000000000000000000 ) ) ;
#76 = CARTESIAN_POINT ( 'NONE',  ( -3.613681998047578947, -38.49387910578391825, 6.570139930703757791 ) ) ;
#77 = CARTESIAN_POINT ( 'NONE',  ( 3.499999999999996003, -33.14289031656714712, 7.000000000000000000 ) ) ;
#78 = CARTESIAN_POINT ( 'NONE',  ( -3.826039558048541345, -40.10184128716211660, 6.058515600265236500 ) ) ;
#79 = EDGE_LOOP ( 'NONE', ( #322, #155, #286, #1 ) ) ;
#80 = DIRECTION ( 'NONE',  ( 0.000000000000000000, -0.000000000000000000, -1.000000000000000000 ) ) ;
#81 = EDGE_CURVE ( 'NONE', #182, #1033, #477, .T. ) ;
#82 = LINE ( 'NONE', #982, #61 ) ;
#83 = CARTESIAN_POINT ( 'NONE',  ( 3.500000000000008438, -1.520113714883359224, 7.000000000000000000 ) ) ;
#84 = CYLINDRICAL_SURFACE ( 'NONE', #524, 37.87500000000012790 ) ;
#85 = CARTESIAN_POINT ( 'NONE',  ( 5.499999999999998224, -54.89289031656714712, -2.449293598294708880E-16 ) ) ;
#86 = ORIENTED_EDGE ( 'NONE', *, *, #875, .F. ) ;
#87 = EDGE_CURVE ( 'NONE', #542, #52, #391, .T. ) ;
#88 = LINE ( 'NONE', #164, #48 ) ;
#89 = DIRECTION ( 'NONE',  ( 0.000000000000000000, -1.000000000000000000, 0.000000000000000000 ) ) ;
#90 = CARTESIAN_POINT ( 'NONE',  ( -5.499999999999998224, -54.89289031656714712, -2.449293598294708880E-16 ) ) ;
#91 = PLANE ( 'NONE',  #528 ) ;
#92 = DIRECTION ( 'NONE',  ( 1.000000000000000000, -4.336808689942020201E-17, -0.000000000000000000 ) ) ;
#93 = VERTEX_POINT ( 'NONE', #655 ) ;
#94 = VECTOR ( 'NONE', #750, 1000.000000000000000 ) ;
#95 = VERTEX_POINT ( 'NONE', #898 ) ;
#96 = DIRECTION ( 'NONE',  ( -0.000000000000000000, -0.000000000000000000, -1.000000000000000000 ) ) ;
#97 = DIRECTION ( 'NONE',  ( -0.000000000000000000, -0.000000000000000000, -1.000000000000000000 ) ) ;
#98 = EDGE_LOOP ( 'NONE', ( #865, #1005, #782, #572 ) ) ;
#99 = ADVANCED_FACE ( 'NONE', ( #318 ), #151, .T. ) ;
#100 = VECTOR ( 'NONE', #1010, 1000.000000000000000 ) ;
#101 = ORIENTED_EDGE ( 'NONE', *, *, #867, .T. ) ;
#102 = CARTESIAN_POINT ( 'NONE',  ( -3.500000000000000444, -34.03776814162318232, 7.000000000000000000 ) ) ;
#103 = CARTESIAN_POINT ( 'NONE',  ( -13.49999999999999112, -1.520113714883358558, 7.000000000000000000 ) ) ;
#104 = ORIENTED_EDGE ( 'NONE', *, *, #67, .T. ) ;
#105 = CIRCLE ( 'NONE', #706, 37.87500000000012079 ) ;
#106 =( BOUNDED_CURVE ( )  B_SPLINE_CURVE ( 3, ( #118, #110, #687, #691 ),
 .UNSPECIFIED., .F., .F. ) 
 B_SPLINE_CURVE_WITH_KNOTS ( ( 4, 4 ),
 ( 1.371459021812573953, 1.439489936401159520 ),
 .UNSPECIFIED. ) 
 CURVE ( )  GEOMETRIC_REPRESENTATION_ITEM ( )  RATIONAL_B_SPLINE_CURVE ( ( 1.000000000000000000, 0.9996143534082465587, 0.9996143534082465587, 1.000000000000000000 ) ) 
 REPRESENTATION_ITEM ( '' )  );
#107 = APPLICATION_CONTEXT ( 'automotive_design' ) ;
#108 = CARTESIAN_POINT ( 'NONE',  ( -48.50000000000000000, -33.14289031656714712, 0.000000000000000000 ) ) ;
#109 = VECTOR ( 'NONE', #395, 1000.000000000000000 ) ;
#110 = CARTESIAN_POINT ( 'NONE',  ( -4.079889907278874794, -41.80084535759760200, 5.517923396035767425 ) ) ;
#111 = ORIENTED_EDGE ( 'NONE', *, *, #756, .T. ) ;
#112 = EDGE_CURVE ( 'NONE', #474, #604, #1069, .T. ) ;
#113 = PLANE ( 'NONE',  #4 ) ;
#114 = CARTESIAN_POINT ( 'NONE',  ( 13.49999999999999467, -0.3772233983161950022, 0.000000000000000000 ) ) ;
#115 = ORIENTED_EDGE ( 'NONE', *, *, #946, .T. ) ;
#116 = VECTOR ( 'NONE', #129, 1000.000000000000000 ) ;
#117 = EDGE_CURVE ( 'NONE', #692, #15, #808, .T. ) ;
#118 = CARTESIAN_POINT ( 'NONE',  ( -4.249999999999990230, -42.64289031656714002, 5.250000000000002665 ) ) ;
#119 = EDGE_LOOP ( 'NONE', ( #350, #533, #942, #918, #623, #785, #169, #360, #294, #507, #311, #708 ) ) ;
#120 = ORIENTED_EDGE ( 'NONE', *, *, #73, .T. ) ;
#121 = CARTESIAN_POINT ( 'NONE',  ( -48.50000000000000000, -33.14289031656714712, 7.000000000000000000 ) ) ;
#122 = ORIENTED_EDGE ( 'NONE', *, *, #677, .T. ) ;
#123 = ADVANCED_FACE ( 'NONE', ( #966 ), #66, .T. ) ;
#124 = EDGE_LOOP ( 'NONE', ( #436, #1057, #936, #24, #685, #502, #230, #695, #595, #674, #222, #710, #330, #678, #126, #515, #537, #811, #177, #688, #778, #510, #872, #491, #1017, #389 ) ) ;
#125 = DIRECTION ( 'NONE',  ( -1.000000000000000000, 0.000000000000000000, 0.000000000000000000 ) ) ;
#126 = ORIENTED_EDGE ( 'NONE', *, *, #862, .F. ) ;
#127 = CIRCLE ( 'NONE', #648, 1.999999999999998224 ) ;
#128 =( GEOMETRIC_REPRESENTATION_CONTEXT ( 3 ) GLOBAL_UNCERTAINTY_ASSIGNED_CONTEXT ( ( #518 ) ) GLOBAL_UNIT_ASSIGNED_CONTEXT ( ( #789, #221, #206 ) ) REPRESENTATION_CONTEXT ( 'NONE', 'WORKASPACE' ) );
#129 = DIRECTION ( 'NONE',  ( 0.000000000000000000, 0.000000000000000000, 1.000000000000000000 ) ) ;
#130 = EDGE_CURVE ( 'NONE', #845, #732, #990, .T. ) ;
#131 = ORIENTED_EDGE ( 'NONE', *, *, #928, .T. ) ;
#132 = CARTESIAN_POINT ( 'NONE',  ( -4.420110092721117212, -43.48493527553668514, 4.982076603964240569 ) ) ;
#133 = CARTESIAN_POINT ( 'NONE',  ( -4.999999999999994671, -55.39289031656714712, 2.500000000000000444 ) ) ;
#134 = VECTOR ( 'NONE', #275, 1000.000000000000000 ) ;
#135 = DIRECTION ( 'NONE',  ( 0.000000000000000000, 0.000000000000000000, 1.000000000000000000 ) ) ;
#136 = VECTOR ( 'NONE', #1012, 1000.000000000000000 ) ;
#137 = PRODUCT_DEFINITION ( 'UNKNOWN', '', #544, #373 ) ;
#138 = ORIENTED_EDGE ( 'NONE', *, *, #367, .T. ) ;
#139 = CARTESIAN_POINT ( 'NONE',  ( 11.68181818181818166, -7.269709460644049770, 0.000000000000000000 ) ) ;
#140 = CARTESIAN_POINT ( 'NONE',  ( 11.68181818181818166, -7.269709460644049770, 7.000000000000000000 ) ) ;
#141 = PLANE ( 'NONE',  #445 ) ;
#142 = DIRECTION ( 'NONE',  ( -1.000000000000000000, 0.000000000000000000, 0.000000000000000000 ) ) ;
#143 = VERTEX_POINT ( 'NONE', #140 ) ;
#144 = CARTESIAN_POINT ( 'NONE',  ( -13.50000000000000533, -70.14289031656714712, 3.500000000000000000 ) ) ;
#145 = LINE ( 'NONE', #71, #199 ) ;
#146 = EDGE_CURVE ( 'NONE', #258, #825, #470, .T. ) ;
#147 = ORIENTED_EDGE ( 'NONE', *, *, #697, .F. ) ;
#148 = DIRECTION ( 'NONE',  ( -0.000000000000000000, -0.000000000000000000, -1.000000000000000000 ) ) ;
#149 = ORIENTED_EDGE ( 'NONE', *, *, #38, .F. ) ;
#150 = CYLINDRICAL_SURFACE ( 'NONE', #941, 44.99999999999995737 ) ;
#151 = PLANE ( 'NONE',  #786 ) ;
#152 = EDGE_CURVE ( 'NONE', #343, #143, #380, .T. ) ;
#153 = AXIS2_PLACEMENT_3D ( 'NONE', #108, #185, #925 ) ;
#154 = CARTESIAN_POINT ( 'NONE',  ( 3.499999999999996003, -33.14289031656714712, 0.000000000000000000 ) ) ;
#155 = ORIENTED_EDGE ( 'NONE', *, *, #374, .T. ) ;
#156 = CARTESIAN_POINT ( 'NONE',  ( -13.49999999999999112, -1.520113714883358558, 7.000000000000000000 ) ) ;
#157 = CARTESIAN_POINT ( 'NONE',  ( 13.49999999999999467, -0.3772233983161950022, 7.000000000000000000 ) ) ;
#158 = CARTESIAN_POINT ( 'NONE',  ( 5.499999999999998224, -54.89289031656714712, 2.500000000000000444 ) ) ;
#159 = DIRECTION ( 'NONE',  ( 2.818925648462309162E-15, -1.000000000000000000, -0.000000000000000000 ) ) ;
#160 = EDGE_CURVE ( 'NONE', #640, #791, #57, .T. ) ;
#161 = EDGE_LOOP ( 'NONE', ( #101, #1060, #631, #396 ) ) ;
#162 = CARTESIAN_POINT ( 'NONE',  ( -11.68181818181817633, -7.269709460644047105, 7.000000000000000000 ) ) ;
#163 = CARTESIAN_POINT ( 'NONE',  ( 11.49999999999999645, 1.622776601683803666, 0.000000000000000000 ) ) ;
#164 = CARTESIAN_POINT ( 'NONE',  ( -4.999999999999997335, -54.89289031656714712, -2.449293598294708880E-16 ) ) ;
#165 = APPLICATION_CONTEXT ( 'automotive_design' ) ;
#166 = CARTESIAN_POINT ( 'NONE',  ( 4.250000000000003553, -42.64289031656716134, 5.249999999999995559 ) ) ;
#167 = ADVANCED_FACE ( 'NONE', ( #978 ), #577, .F. ) ;
#168 = AXIS2_PLACEMENT_3D ( 'NONE', #55, #795, #864 ) ;
#169 = ORIENTED_EDGE ( 'NONE', *, *, #598, .T. ) ;
#170 = DIRECTION ( 'NONE',  ( 0.000000000000000000, -0.000000000000000000, -1.000000000000000000 ) ) ;
#171 = ORIENTED_EDGE ( 'NONE', *, *, #400, .T. ) ;
#172 = DIRECTION ( 'NONE',  ( -4.336808689942020818E-17, 1.000000000000000000, 0.000000000000000000 ) ) ;
#173 = DIRECTION ( 'NONE',  ( -0.000000000000000000, -0.000000000000000000, -1.000000000000000000 ) ) ;
#174 = SURFACE_STYLE_USAGE ( .BOTH. , #914 ) ;
#175 = ORIENTED_EDGE ( 'NONE', *, *, #578, .F. ) ;
#176 = CARTESIAN_POINT ( 'NONE',  ( -13.50000000000000533, -70.14289031656714712, 3.500000000000000000 ) ) ;
#177 = ORIENTED_EDGE ( 'NONE', *, *, #867, .F. ) ;
#178 = DIRECTION ( 'NONE',  ( 4.336808689942020818E-17, 1.000000000000000000, -0.000000000000000000 ) ) ;
#179 = CARTESIAN_POINT ( 'NONE',  ( 5.000000000000004441, -51.24801249151111904, 23.50000000000000000 ) ) ;
#180 = ADVANCED_FACE ( 'NONE', ( #809 ), #13, .T. ) ;
#181 = DIRECTION ( 'NONE',  ( 2.818925648462309162E-15, -1.000000000000000000, -0.000000000000000000 ) ) ;
#182 = VERTEX_POINT ( 'NONE', #243 ) ;
#183 = VECTOR ( 'NONE', #793, 1000.000000000000000 ) ;
#184 = LINE ( 'NONE', #512, #835 ) ;
#185 = DIRECTION ( 'NONE',  ( -0.000000000000000000, -0.000000000000000000, -1.000000000000000000 ) ) ;
#186 = DIRECTION ( 'NONE',  ( 1.000000000000000000, 1.214271186538565764E-14, -0.000000000000000000 ) ) ;
#187 = VERTEX_POINT ( 'NONE', #78 ) ;
#188 = EDGE_CURVE ( 'NONE', #536, #692, #409, .T. ) ;
#189 = VECTOR ( 'NONE', #489, 1000.000000000000000 ) ;
#190 = DIRECTION ( 'NONE',  ( -0.000000000000000000, 0.000000000000000000, -1.000000000000000000 ) ) ;
#191 = DIRECTION ( 'NONE',  ( -1.214271186538564186E-14, 1.000000000000000000, -0.000000000000000000 ) ) ;
#192 = VERTEX_POINT ( 'NONE', #321 ) ;
#193 = AXIS2_PLACEMENT_3D ( 'NONE', #622, #960, #947 ) ;
#194 = EDGE_CURVE ( 'NONE', #791, #799, #72, .T. ) ;
#195 = CARTESIAN_POINT ( 'NONE',  ( 4.250000000000003553, -42.64289031656716134, 5.249999999999995559 ) ) ;
#196 = VECTOR ( 'NONE', #159, 1000.000000000000000 ) ;
#197 = LINE ( 'NONE', #618, #381 ) ;
#198 = EDGE_LOOP ( 'NONE', ( #459, #728, #552, #1027 ) ) ;
#199 = VECTOR ( 'NONE', #493, 1000.000000000000000 ) ;
#200 = EDGE_CURVE ( 'NONE', #495, #564, #570, .T. ) ;
#201 = DIRECTION ( 'NONE',  ( -4.336808689942020818E-17, -1.000000000000000000, 0.000000000000000000 ) ) ;
#202 = DIRECTION ( 'NONE',  ( 1.000000000000000000, 0.000000000000000000, 0.000000000000000000 ) ) ;
#203 = ORIENTED_EDGE ( 'NONE', *, *, #598, .F. ) ;
#204 = AXIS2_PLACEMENT_3D ( 'NONE', #967, #874, #714 ) ;
#205 = ORIENTED_EDGE ( 'NONE', *, *, #548, .T. ) ;
#206 =( NAMED_UNIT ( * ) SI_UNIT ( $, .STERADIAN. ) SOLID_ANGLE_UNIT ( ) );
#207 = ADVANCED_FACE ( 'NONE', ( #490 ), #84, .F. ) ;
#208 = ORIENTED_EDGE ( 'NONE', *, *, #194, .F. ) ;
#209 = ORIENTED_EDGE ( 'NONE', *, *, #796, .T. ) ;
#210 = FACE_OUTER_BOUND ( 'NONE', #371, .T. ) ;
#211 = ORIENTED_EDGE ( 'NONE', *, *, #152, .F. ) ;
#212 = EDGE_CURVE ( 'NONE', #791, #288, #731, .T. ) ;
#213 = CARTESIAN_POINT ( 'NONE',  ( 3.499999999999999112, -34.03776814162318232, 7.000000000000000000 ) ) ;
#214 = ORIENTED_EDGE ( 'NONE', *, *, #704, .F. ) ;
#215 = DIRECTION ( 'NONE',  ( 4.336808689942020818E-17, -1.000000000000000000, 0.000000000000000000 ) ) ;
#216 = PLANE ( 'NONE',  #168 ) ;
#217 = VERTEX_POINT ( 'NONE', #327 ) ;
#218 = CARTESIAN_POINT ( 'NONE',  ( 5.000000000000005329, -70.14289031656714712, 0.000000000000000000 ) ) ;
#219 = VERTEX_POINT ( 'NONE', #500 ) ;
#220 = CARTESIAN_POINT ( 'NONE',  ( -4.999999999999994671, -50.14289031656715423, 7.000000000000000000 ) ) ;
#221 =( NAMED_UNIT ( * ) PLANE_ANGLE_UNIT ( ) SI_UNIT ( $, .RADIAN. ) );
#222 = ORIENTED_EDGE ( 'NONE', *, *, #386, .F. ) ;
#223 = LINE ( 'NONE', #300, #109 ) ;
#224 = VECTOR ( 'NONE', #1051, 1000.000000000000000 ) ;
#225 = ADVANCED_FACE ( 'NONE', ( #494 ), #415, .T. ) ;
#226 = EDGE_LOOP ( 'NONE', ( #751, #269, #715, #619 ) ) ;
#227 = CARTESIAN_POINT ( 'NONE',  ( 3.826039558048548006, -40.10184128716212371, 6.058515600265235612 ) ) ;
#228 = DIRECTION ( 'NONE',  ( 1.000000000000000000, 0.000000000000000000, 0.000000000000000000 ) ) ;
#229 = DIRECTION ( 'NONE',  ( -0.000000000000000000, -0.000000000000000000, -1.000000000000000000 ) ) ;
#230 = ORIENTED_EDGE ( 'NONE', *, *, #720, .F. ) ;
#231 = EDGE_CURVE ( 'NONE', #780, #245, #284, .T. ) ;
#232 = CARTESIAN_POINT ( 'NONE',  ( 5.499999999999998224, -55.39289031656714712, -2.449293598294708880E-16 ) ) ;
#233 = DIRECTION ( 'NONE',  ( -1.000000000000000000, -4.336808689942020201E-17, -0.000000000000000000 ) ) ;
#234 = VECTOR ( 'NONE', #342, 1000.000000000000000 ) ;
#235 = CARTESIAN_POINT ( 'NONE',  ( -11.50000000000000533, -0.3772233983161953352, 0.000000000000000000 ) ) ;
#236 = EDGE_LOOP ( 'NONE', ( #909, #676, #616, #265, #58, #1036, #777, #554, #722 ) ) ;
#237 = DIRECTION ( 'NONE',  ( 1.000000000000000000, 4.336808689942020818E-17, 0.000000000000000000 ) ) ;
#238 = CARTESIAN_POINT ( 'NONE',  ( 3.826039558048548006, -40.10184128716212371, 6.058515600265235612 ) ) ;
#239 = PRODUCT_CONTEXT ( 'NONE', #107, 'mechanical' ) ;
#240 = DIRECTION ( 'NONE',  ( -0.000000000000000000, -0.000000000000000000, -1.000000000000000000 ) ) ;
#241 = VECTOR ( 'NONE', #438, 1000.000000000000000 ) ;
#242 = EDGE_CURVE ( 'NONE', #95, #863, #907, .T. ) ;
#243 = CARTESIAN_POINT ( 'NONE',  ( -4.999999999999997335, -55.39289031656714712, -2.449293598294708880E-16 ) ) ;
#244 = VECTOR ( 'NONE', #838, 1000.000000000000000 ) ;
#245 = VERTEX_POINT ( 'NONE', #584 ) ;
#246 = DIRECTION ( 'NONE',  ( -0.000000000000000000, -0.000000000000000000, -1.000000000000000000 ) ) ;
#247 = CARTESIAN_POINT ( 'NONE',  ( -4.673960441951452438, -45.18393934597217765, 4.441484399734763500 ) ) ;
#248 =( NAMED_UNIT ( * ) SI_UNIT ( $, .STERADIAN. ) SOLID_ANGLE_UNIT ( ) );
#249 = EDGE_CURVE ( 'NONE', #861, #355, #913, .T. ) ;
#250 = PRODUCT ( 'Lap Shear Coupon 7x7mm', 'Lap Shear Coupon 7x7mm', '', ( #239 ) ) ;
#251 = CIRCLE ( 'NONE', #576, 9.999999999999998224 ) ;
#252 = VERTEX_POINT ( 'NONE', #797 ) ;
#253 = CARTESIAN_POINT ( 'NONE',  ( -4.886318001952417944, -46.79190152735039021, 3.929860069296240876 ) ) ;
#254 = CARTESIAN_POINT ( 'NONE',  ( 5.499999999999998224, -54.89289031656714712, 2.500000000000000444 ) ) ;
#255 = DIRECTION ( 'NONE',  ( 0.000000000000000000, -1.000000000000000000, 0.000000000000000000 ) ) ;
#256 = AXIS2_PLACEMENT_3D ( 'NONE', #235, #894, #19 ) ;
#257 = CARTESIAN_POINT ( 'NONE',  ( -4.999999999999997335, -50.14289031656714712, 3.530555716834604230 ) ) ;
#258 = VERTEX_POINT ( 'NONE', #563 ) ;
#259 = CARTESIAN_POINT ( 'NONE',  ( -4.999999999999994671, -51.24801249151111904, 3.500000000000000000 ) ) ;
#260 = EDGE_LOOP ( 'NONE', ( #546, #609, #614, #765 ) ) ;
#261 = DIRECTION ( 'NONE',  ( -0.000000000000000000, -0.000000000000000000, -1.000000000000000000 ) ) ;
#262 = DIRECTION ( 'NONE',  ( -1.000000000000000000, 0.000000000000000000, 0.000000000000000000 ) ) ;
#263 = DIRECTION ( 'NONE',  ( 0.000000000000000000, -1.000000000000000000, 0.000000000000000000 ) ) ;
#264 = DIRECTION ( 'NONE',  ( -3.469446951953611033E-15, 1.000000000000000000, -0.000000000000000000 ) ) ;
#265 = ORIENTED_EDGE ( 'NONE', *, *, #462, .F. ) ;
#266 = FACE_OUTER_BOUND ( 'NONE', #963, .T. ) ;
#267 = ADVANCED_FACE ( 'NONE', ( #784 ), #881, .F. ) ;
#268 = LINE ( 'NONE', #769, #899 ) ;
#269 = ORIENTED_EDGE ( 'NONE', *, *, #400, .F. ) ;
#270 = AXIS2_PLACEMENT_3D ( 'NONE', #121, #293, #953 ) ;
#271 = CARTESIAN_POINT ( 'NONE',  ( -4.999999999999997335, -50.14289031656714712, 7.000000000000000000 ) ) ;
#272 = DIRECTION ( 'NONE',  ( 3.469446951953613400E-15, -1.000000000000000000, 1.864827736675067311E-14 ) ) ;
#273 = VERTEX_POINT ( 'NONE', #154 ) ;
#274 = EDGE_CURVE ( 'NONE', #252, #219, #851, .T. ) ;
#275 = DIRECTION ( 'NONE',  ( 1.214271186538565606E-14, -1.000000000000000000, -0.000000000000000000 ) ) ;
#276 = CARTESIAN_POINT ( 'NONE',  ( 3.500000000000003109, -35.14289031656714712, 0.000000000000000000 ) ) ;
#277 = EDGE_LOOP ( 'NONE', ( #1040, #115, #645, #882, #480, #590, #876, #214, #49 ) ) ;
#278 = CIRCLE ( 'NONE', #437, 37.87500000000013500 ) ;
#279 = EDGE_CURVE ( 'NONE', #143, #536, #251, .T. ) ;
#280 = CARTESIAN_POINT ( 'NONE',  ( -3.500000000000003109, -33.14289031656714002, 7.000000000000000000 ) ) ;
#281 = AXIS2_PLACEMENT_3D ( 'NONE', #324, #555, #885 ) ;
#282 = DIRECTION ( 'NONE',  ( -1.000000000000000000, -2.818925648462309556E-15, 0.000000000000000000 ) ) ;
#283 = VERTEX_POINT ( 'NONE', #213 ) ;
#284 =( BOUNDED_CURVE ( )  B_SPLINE_CURVE ( 3, ( #166, #742, #7, #334 ),
 .UNSPECIFIED., .F., .T. ) 
 B_SPLINE_CURVE_WITH_KNOTS ( ( 4, 4 ),
 ( 4.513051675402366847, 4.581082589990952414 ),
 .UNSPECIFIED. ) 
 CURVE ( )  GEOMETRIC_REPRESENTATION_ITEM ( )  RATIONAL_B_SPLINE_CURVE ( ( 1.000000000000000000, 0.9996143534082465587, 0.9996143534082465587, 1.000000000000000000 ) ) 
 REPRESENTATION_ITEM ( '' )  );
#285 = AXIS2_PLACEMENT_3D ( 'NONE', #573, #989, #904 ) ;
#286 = ORIENTED_EDGE ( 'NONE', *, *, #310, .T. ) ;
#287 = CARTESIAN_POINT ( 'NONE',  ( -3.552842142468918940, -40.10184128716212371, 6.058515600265235612 ) ) ;
#288 = VERTEX_POINT ( 'NONE', #62 ) ;
#289 = AXIS2_PLACEMENT_3D ( 'NONE', #974, #897, #1050 ) ;
#290 = VECTOR ( 'NONE', #1003, 1000.000000000000000 ) ;
#291 = ORIENTED_EDGE ( 'NONE', *, *, #568, .T. ) ;
#292 = EDGE_CURVE ( 'NONE', #863, #604, #223, .T. ) ;
#293 = DIRECTION ( 'NONE',  ( -0.000000000000000000, -0.000000000000000000, -1.000000000000000000 ) ) ;
#294 = ORIENTED_EDGE ( 'NONE', *, *, #274, .T. ) ;
#295 = LINE ( 'NONE', #218, #63 ) ;
#296 = ORIENTED_EDGE ( 'NONE', *, *, #455, .F. ) ;
#297 = LINE ( 'NONE', #626, #183 ) ;
#298 = DIRECTION ( 'NONE',  ( 1.000000000000000000, 0.000000000000000000, -0.000000000000000000 ) ) ;
#299 = ORIENTED_EDGE ( 'NONE', *, *, #421, .T. ) ;
#300 = CARTESIAN_POINT ( 'NONE',  ( 5.000000000000005329, -70.14289031656714712, 7.000000000000000000 ) ) ;
#301 = VERTEX_POINT ( 'NONE', #726 ) ;
#302 = DIRECTION ( 'NONE',  ( 1.000000000000000000, 0.000000000000000000, -0.000000000000000000 ) ) ;
#303 = CARTESIAN_POINT ( 'NONE',  ( 3.500000000000008438, -1.520113714883359224, 0.000000000000000000 ) ) ;
#304 = EDGE_CURVE ( 'NONE', #652, #339, #1034, .T. ) ;
#305 = LINE ( 'NONE', #479, #116 ) ;
#306 = B_SPLINE_CURVE_WITH_KNOTS ( 'NONE', 3,
 ( #469, #632, #377, #464 ),
 .UNSPECIFIED., .F., .F.,
 ( 4, 4 ),
 ( 1.414624184311812917E-17, 0.005052453620520188336 ),
 .UNSPECIFIED. ) ;
#307 = ORIENTED_EDGE ( 'NONE', *, *, #594, .F. ) ;
#308 = DIRECTION ( 'NONE',  ( 0.000000000000000000, 0.000000000000000000, 1.000000000000000000 ) ) ;
#309 = CARTESIAN_POINT ( 'NONE',  ( 3.499999999999996003, -33.14289031656714712, 7.000000000000000000 ) ) ;
#310 = EDGE_CURVE ( 'NONE', #217, #951, #624, .T. ) ;
#311 = ORIENTED_EDGE ( 'NONE', *, *, #455, .T. ) ;
#312 = DIRECTION ( 'NONE',  ( -1.000000000000000000, 0.000000000000000000, 0.000000000000000000 ) ) ;
#313 = CARTESIAN_POINT ( 'NONE',  ( 48.49999999999995026, -33.14289031656714712, 7.000000000000000000 ) ) ;
#314 = LINE ( 'NONE', #1053, #335 ) ;
#315 = ORIENTED_EDGE ( 'NONE', *, *, #1067, .T. ) ;
#316 = CARTESIAN_POINT ( 'NONE',  ( -4.673960441951452438, -45.18393934597217765, 4.441484399734763500 ) ) ;
#317 = EDGE_CURVE ( 'NONE', #252, #30, #314, .T. ) ;
#318 = FACE_OUTER_BOUND ( 'NONE', #79, .T. ) ;
#319 = LINE ( 'NONE', #741, #189 ) ;
#320 = STYLED_ITEM ( 'NONE', ( #501 ), #643 ) ;
#321 = CARTESIAN_POINT ( 'NONE',  ( 5.000000000000005329, -50.14289031656715423, 3.530555716834604230 ) ) ;
#322 = ORIENTED_EDGE ( 'NONE', *, *, #386, .T. ) ;
#323 = CARTESIAN_POINT ( 'NONE',  ( 11.49999999999999645, -0.3772233983161945581, 7.000000000000000000 ) ) ;
#324 = CARTESIAN_POINT ( 'NONE',  ( -48.50000000000000000, -33.14289031656714712, 7.000000000000000000 ) ) ;
#325 = PLANE ( 'NONE',  #1032 ) ;
#326 = VECTOR ( 'NONE', #857, 1000.000000000000000 ) ;
#327 = CARTESIAN_POINT ( 'NONE',  ( -5.499999999999998224, -55.39289031656714712, 2.500000000000000444 ) ) ;
#328 = VECTOR ( 'NONE', #413, 1000.000000000000000 ) ;
#329 = AXIS2_PLACEMENT_3D ( 'NONE', #103, #186, #684 ) ;
#330 = ORIENTED_EDGE ( 'NONE', *, *, #249, .F. ) ;
#331 = CARTESIAN_POINT ( 'NONE',  ( 4.079889907278885453, -41.80084535759761621, 5.517923396035759431 ) ) ;
#332 = DIRECTION ( 'NONE',  ( -0.000000000000000000, -0.000000000000000000, -1.000000000000000000 ) ) ;
#333 =( NAMED_UNIT ( * ) PLANE_ANGLE_UNIT ( ) SI_UNIT ( $, .RADIAN. ) );
#334 = CARTESIAN_POINT ( 'NONE',  ( 4.673960441951452438, -45.18393934597216344, 4.441484399734767941 ) ) ;
#335 = VECTOR ( 'NONE', #229, 1000.000000000000000 ) ;
#336 = FACE_OUTER_BOUND ( 'NONE', #625, .T. ) ;
#337 = ORIENTED_EDGE ( 'NONE', *, *, #231, .T. ) ;
#338 = FACE_OUTER_BOUND ( 'NONE', #806, .T. ) ;
#339 = VERTEX_POINT ( 'NONE', #790 ) ;
#340 = CARTESIAN_POINT ( 'NONE',  ( -4.999999999999994671, -70.14289031656714712, 7.000000000000000000 ) ) ;
#341 = EDGE_CURVE ( 'NONE', #15, #52, #472, .T. ) ;
#342 = DIRECTION ( 'NONE',  ( -0.000000000000000000, -0.000000000000000000, -1.000000000000000000 ) ) ;
#343 = VERTEX_POINT ( 'NONE', #309 ) ;
#344 = LINE ( 'NONE', #575, #620 ) ;
#345 = EDGE_LOOP ( 'NONE', ( #149, #916, #746, #700 ) ) ;
#346 = ADVANCED_FACE ( 'NONE', ( #541 ), #644, .F. ) ;
#347 = LINE ( 'NONE', #431, #798 ) ;
#348 = PLANE ( 'NONE',  #929 ) ;
#349 = CARTESIAN_POINT ( 'NONE',  ( -3.499999999999997335, -35.14289031656714712, 6.969444283165395326 ) ) ;
#350 = ORIENTED_EDGE ( 'NONE', *, *, #194, .T. ) ;
#351 = CARTESIAN_POINT ( 'NONE',  ( -11.50000000000000533, 1.622776601683803666, 7.000000000000000000 ) ) ;
#352 = EDGE_CURVE ( 'NONE', #339, #301, #305, .T. ) ;
#353 = CARTESIAN_POINT ( 'NONE',  ( 41.37500000000014921, -35.14289031656714712, 7.000000000000000000 ) ) ;
#354 = LINE ( 'NONE', #287, #136 ) ;
#355 = VERTEX_POINT ( 'NONE', #971 ) ;
#356 = CIRCLE ( 'NONE', #1014, 9.999999999999998224 ) ;
#357 = DIRECTION ( 'NONE',  ( -1.000000000000000000, 0.000000000000000000, 0.000000000000000000 ) ) ;
#358 = EDGE_CURVE ( 'NONE', #774, #39, #295, .T. ) ;
#359 = CARTESIAN_POINT ( 'NONE',  ( 32.87500000000014921, -50.14289031656715423, 0.000000000000000000 ) ) ;
#360 = ORIENTED_EDGE ( 'NONE', *, *, #993, .T. ) ;
#361 = DIRECTION ( 'NONE',  ( 1.000000000000000000, 0.000000000000000000, -0.000000000000000000 ) ) ;
#362 = LINE ( 'NONE', #509, #878 ) ;
#363 = VERTEX_POINT ( 'NONE', #961 ) ;
#364 = PLANE ( 'NONE',  #1035 ) ;
#365 = ORIENTED_EDGE ( 'NONE', *, *, #548, .F. ) ;
#366 = ORIENTED_EDGE ( 'NONE', *, *, #962, .F. ) ;
#367 = EDGE_CURVE ( 'NONE', #273, #454, #585, .T. ) ;
#368 = VECTOR ( 'NONE', #170, 1000.000000000000000 ) ;
#369 = ORIENTED_EDGE ( 'NONE', *, *, #804, .F. ) ;
#370 = DIRECTION ( 'NONE',  ( -1.000000000000000000, 0.000000000000000000, 0.000000000000000000 ) ) ;
#371 = EDGE_LOOP ( 'NONE', ( #1031, #998, #923, #34 ) ) ;
#372 = DIRECTION ( 'NONE',  ( -1.000000000000000000, 0.000000000000000000, 0.000000000000000000 ) ) ;
#373 = PRODUCT_DEFINITION_CONTEXT ( 'detailed design', #165, 'design' ) ;
#374 = EDGE_CURVE ( 'NONE', #600, #217, #68, .T. ) ;
#375 = AXIS2_PLACEMENT_3D ( 'NONE', #83, #96, #583 ) ;
#376 = ORIENTED_EDGE ( 'NONE', *, *, #497, .T. ) ;
#377 = CARTESIAN_POINT ( 'NONE',  ( 4.999999999999994671, -48.44425179807152659, 3.624559489167217929 ) ) ;
#378 = CYLINDRICAL_SURFACE ( 'NONE', #270, 45.00000000000000000 ) ;
#379 = ORIENTED_EDGE ( 'NONE', *, *, #915, .F. ) ;
#380 = CIRCLE ( 'NONE', #611, 44.99999999999996447 ) ;
#381 = VECTOR ( 'NONE', #181, 1000.000000000000000 ) ;
#382 = CARTESIAN_POINT ( 'NONE',  ( 5.000000000000005329, -70.14289031656714712, 7.000000000000000000 ) ) ;
#383 = ORIENTED_EDGE ( 'NONE', *, *, #200, .T. ) ;
#384 = DIRECTION ( 'NONE',  ( 0.000000000000000000, 0.000000000000000000, 1.000000000000000000 ) ) ;
#385 = DIRECTION ( 'NONE',  ( -2.818925648462311528E-15, 1.000000000000000000, 3.729655473350135253E-14 ) ) ;
#386 = EDGE_CURVE ( 'NONE', #802, #600, #466, .T. ) ;
#387 = AXIS2_PLACEMENT_3D ( 'NONE', #637, #1041, #805 ) ;
#388 = CARTESIAN_POINT ( 'NONE',  ( 4.947157857531081504, -45.18393934597217765, 4.441484399734763500 ) ) ;
#389 = ORIENTED_EDGE ( 'NONE', *, *, #517, .F. ) ;
#390 = CARTESIAN_POINT ( 'NONE',  ( 11.49999999999999645, 1.622776601683803666, 7.000000000000000000 ) ) ;
#391 = LINE ( 'NONE', #734, #328 ) ;
#392 = DIRECTION ( 'NONE',  ( 0.000000000000000000, 0.000000000000000000, 1.000000000000000000 ) ) ;
#393 = EDGE_CURVE ( 'NONE', #41, #245, #56, .T. ) ;
#394 = AXIS2_PLACEMENT_3D ( 'NONE', #220, #302, #59 ) ;
#395 = DIRECTION ( 'NONE',  ( -0.000000000000000000, -0.000000000000000000, -1.000000000000000000 ) ) ;
#396 = ORIENTED_EDGE ( 'NONE', *, *, #578, .T. ) ;
#397 = PLANE ( 'NONE',  #892 ) ;
#398 = CARTESIAN_POINT ( 'NONE',  ( -4.999999999999994671, -50.14289031656715423, 3.500000000000000000 ) ) ;
#399 = CARTESIAN_POINT ( 'NONE',  ( -5.499999999999998224, -55.39289031656714712, -2.449293598294708880E-16 ) ) ;
#400 = EDGE_CURVE ( 'NONE', #536, #980, #557, .T. ) ;
#401 = ORIENTED_EDGE ( 'NONE', *, *, #840, .T. ) ;
#402 = FACE_OUTER_BOUND ( 'NONE', #277, .T. ) ;
#403 = DIRECTION ( 'NONE',  ( 0.000000000000000000, 0.000000000000000000, -1.000000000000000000 ) ) ;
#404 = CARTESIAN_POINT ( 'NONE',  ( -41.37500000000013500, -35.14289031656714712, 7.000000000000000000 ) ) ;
#405 = ORIENTED_EDGE ( 'NONE', *, *, #727, .F. ) ;
#406 = FACE_OUTER_BOUND ( 'NONE', #866, .T. ) ;
#407 = LINE ( 'NONE', #1062, #964 ) ;
#408 = DIRECTION ( 'NONE',  ( -0.000000000000000000, -0.000000000000000000, -1.000000000000000000 ) ) ;
#409 = LINE ( 'NONE', #1064, #664 ) ;
#410 = AXIS2_PLACEMENT_3D ( 'NONE', #871, #707, #370 ) ;
#411 = ORIENTED_EDGE ( 'NONE', *, *, #1000, .F. ) ;
#412 = CARTESIAN_POINT ( 'NONE',  ( -4.999999999999994671, -48.44425179807151949, 3.624559489167217929 ) ) ;
#413 = DIRECTION ( 'NONE',  ( -0.000000000000000000, -0.000000000000000000, -1.000000000000000000 ) ) ;
#414 = DIRECTION ( 'NONE',  ( -1.000000000000000000, 0.000000000000000000, 0.000000000000000000 ) ) ;
#415 = CYLINDRICAL_SURFACE ( 'NONE', #792, 37.87500000000014211 ) ;
#416 = CIRCLE ( 'NONE', #985, 20.00000000000000355 ) ;
#417 = DIRECTION ( 'NONE',  ( -1.000000000000000000, -1.214271186538564186E-14, 0.000000000000000000 ) ) ;
#418 = EDGE_LOOP ( 'NONE', ( #869, #527, #111, #754 ) ) ;
#419 = SHAPE_DEFINITION_REPRESENTATION ( #603, #823 ) ;
#420 = LINE ( 'NONE', #821, #895 ) ;
#421 = EDGE_CURVE ( 'NONE', #30, #945, #719, .T. ) ;
#422 = CARTESIAN_POINT ( 'NONE',  ( -13.49999999999999112, -1.520113714883358558, 7.000000000000000000 ) ) ;
#423 = VECTOR ( 'NONE', #255, 1000.000000000000000 ) ;
#424 = CARTESIAN_POINT ( 'NONE',  ( -13.49999999999999112, -1.520113714883358558, 0.000000000000000000 ) ) ;
#425 = ORIENTED_EDGE ( 'NONE', *, *, #341, .T. ) ;
#426 = PLANE ( 'NONE',  #979 ) ;
#427 = ORIENTED_EDGE ( 'NONE', *, *, #87, .T. ) ;
#428 = ADVANCED_FACE ( 'NONE', ( #566 ), #150, .F. ) ;
#429 = PRESENTATION_LAYER_ASSIGNMENT (  '', '', ( #320 ) ) ;
#430 = VECTOR ( 'NONE', #148, 1000.000000000000000 ) ;
#431 = CARTESIAN_POINT ( 'NONE',  ( -5.499999999999998224, -54.89289031656714712, 2.500000000000000444 ) ) ;
#432 = CARTESIAN_POINT ( 'NONE',  ( 4.250000000000003553, -42.64289031656716134, 7.000000000000000000 ) ) ;
#433 = ORIENTED_EDGE ( 'NONE', *, *, #23, .F. ) ;
#434 = VECTOR ( 'NONE', #1019, 1000.000000000000000 ) ;
#435 = EDGE_CURVE ( 'NONE', #41, #27, #950, .T. ) ;
#436 = ORIENTED_EDGE ( 'NONE', *, *, #615, .F. ) ;
#437 = AXIS2_PLACEMENT_3D ( 'NONE', #359, #939, #202 ) ;
#438 = DIRECTION ( 'NONE',  ( -0.000000000000000000, -0.000000000000000000, -1.000000000000000000 ) ) ;
#439 = DIRECTION ( 'NONE',  ( -0.000000000000000000, -0.000000000000000000, -1.000000000000000000 ) ) ;
#440 = ORIENTED_EDGE ( 'NONE', *, *, #441, .F. ) ;
#441 = EDGE_CURVE ( 'NONE', #732, #855, #1029, .T. ) ;
#442 = CARTESIAN_POINT ( 'NONE',  ( -13.49999999999999112, -1.520113714883358558, 7.000000000000000000 ) ) ;
#443 = CARTESIAN_POINT ( 'NONE',  ( 3.552842142468926045, -34.03776814162318232, 7.000000000000000000 ) ) ;
#444 = ORIENTED_EDGE ( 'NONE', *, *, #393, .T. ) ;
#445 = AXIS2_PLACEMENT_3D ( 'NONE', #458, #298, #718 ) ;
#446 = VECTOR ( 'NONE', #633, 1000.000000000000000 ) ;
#447 = CARTESIAN_POINT ( 'NONE',  ( 41.37500000000014921, -35.14289031656714712, 0.000000000000000000 ) ) ;
#448 = LINE ( 'NONE', #114, #520 ) ;
#449 = ORIENTED_EDGE ( 'NONE', *, *, #976, .T. ) ;
#450 = CARTESIAN_POINT ( 'NONE',  ( -4.999999999999997335, -50.14289031656714712, 3.530555716834604230 ) ) ;
#451 = ORIENTED_EDGE ( 'NONE', *, *, #44, .F. ) ;
#452 = VERTEX_POINT ( 'NONE', #807 ) ;
#453 = DIRECTION ( 'NONE',  ( -1.000000000000000000, -0.000000000000000000, -0.000000000000000000 ) ) ;
#454 = VERTEX_POINT ( 'NONE', #139 ) ;
#455 = EDGE_CURVE ( 'NONE', #495, #640, #478, .T. ) ;
#456 = AXIS2_PLACEMENT_3D ( 'NONE', #910, #2, #580 ) ;
#457 = ORIENTED_EDGE ( 'NONE', *, *, #12, .F. ) ;
#458 = CARTESIAN_POINT ( 'NONE',  ( 5.499999999999998224, 2.168404344971010101E-17, 0.000000000000000000 ) ) ;
#459 = ORIENTED_EDGE ( 'NONE', *, *, #81, .T. ) ;
#460 = DIRECTION ( 'NONE',  ( 0.000000000000000000, -1.000000000000000000, 0.000000000000000000 ) ) ;
#461 = AXIS2_PLACEMENT_3D ( 'NONE', #753, #240, #1072 ) ;
#462 = EDGE_CURVE ( 'NONE', #192, #39, #712, .T. ) ;
#463 = ORIENTED_EDGE ( 'NONE', *, *, #317, .F. ) ;
#464 = CARTESIAN_POINT ( 'NONE',  ( 5.000000000000005329, -50.14289031656715423, 3.530555716834604230 ) ) ;
#465 = CIRCLE ( 'NONE', #51, 20.00000000000000000 ) ;
#466 = LINE ( 'NONE', #43, #446 ) ;
#467 = ORIENTED_EDGE ( 'NONE', *, *, #852, .F. ) ;
#468 = ADVANCED_FACE ( 'NONE', ( #647 ), #800, .T. ) ;
#469 = CARTESIAN_POINT ( 'NONE',  ( 4.673960441951452438, -45.18393934597216344, 4.441484399734767941 ) ) ;
#470 = LINE ( 'NONE', #794, #828 ) ;
#471 = DIRECTION ( 'NONE',  ( -1.000000000000000000, 0.000000000000000000, 0.000000000000000000 ) ) ;
#472 = CIRCLE ( 'NONE', #755, 1.999999999999998224 ) ;
#473 = CARTESIAN_POINT ( 'NONE',  ( 5.499999999999998224, -54.89289031656714712, -2.449293598294708880E-16 ) ) ;
#474 = VERTEX_POINT ( 'NONE', #481 ) ;
#475 = CLOSED_SHELL ( 'NONE', ( #503, #1023, #901, #428, #656, #629, #1011, #6, #646, #955, #610, #1046, #1059, #207, #225, #167, #346, #468, #761, #847, #665, #267, #123, #639, #18, #832, #816, #99, #693, #180, #483, #1030 ) ) ;
#476 = CARTESIAN_POINT ( 'NONE',  ( 3.938515239302868398, -40.95350223947706780, 5.787532569983211417 ) ) ;
#477 = LINE ( 'NONE', #819, #1018 ) ;
#478 = CIRCLE ( 'NONE', #997, 10.00000000000000178 ) ;
#479 = CARTESIAN_POINT ( 'NONE',  ( 5.499999999999998224, -55.39289031656714712, -2.449293598294708880E-16 ) ) ;
#480 = ORIENTED_EDGE ( 'NONE', *, *, #441, .T. ) ;
#481 = CARTESIAN_POINT ( 'NONE',  ( -4.999999999999994671, -70.14289031656714712, 0.000000000000000000 ) ) ;
#482 = DIRECTION ( 'NONE',  ( 0.000000000000000000, 0.000000000000000000, 1.000000000000000000 ) ) ;
#483 = ADVANCED_FACE ( 'NONE', ( #952 ), #397, .T. ) ;
#484 = CARTESIAN_POINT ( 'NONE',  ( -11.50000000000000533, -0.3772233983161953352, 7.000000000000000000 ) ) ;
#485 = EDGE_LOOP ( 'NONE', ( #45, #1013, #549, #1024 ) ) ;
#486 = CARTESIAN_POINT ( 'NONE',  ( -3.499999999999993339, -1.520113714883358558, 7.000000000000000000 ) ) ;
#487 = DIRECTION ( 'NONE',  ( 0.000000000000000000, 1.000000000000000000, 0.000000000000000000 ) ) ;
#488 = APPLICATION_PROTOCOL_DEFINITION ( 'draft international standard', 'automotive_design', 1998, #107 ) ;
#489 = DIRECTION ( 'NONE',  ( -1.000000000000000000, -4.336808689942020201E-17, -0.000000000000000000 ) ) ;
#490 = FACE_OUTER_BOUND ( 'NONE', #932, .T. ) ;
#491 = ORIENTED_EDGE ( 'NONE', *, *, #1039, .F. ) ;
#492 = CYLINDRICAL_SURFACE ( 'NONE', #285, 19.99999999999999645 ) ;
#493 = DIRECTION ( 'NONE',  ( -1.000000000000000000, -4.336808689942020201E-17, -0.000000000000000000 ) ) ;
#494 = FACE_OUTER_BOUND ( 'NONE', #1021, .T. ) ;
#495 = VERTEX_POINT ( 'NONE', #156 ) ;
#496 = PLANE ( 'NONE',  #972 ) ;
#497 = EDGE_CURVE ( 'NONE', #1033, #1004, #70, .T. ) ;
#498 = ORIENTED_EDGE ( 'NONE', *, *, #852, .T. ) ;
#499 = DIRECTION ( 'NONE',  ( -0.000000000000000000, -0.000000000000000000, -1.000000000000000000 ) ) ;
#500 = CARTESIAN_POINT ( 'NONE',  ( -13.50000000000000533, -0.3772233983161953352, 7.000000000000000000 ) ) ;
#501 = PRESENTATION_STYLE_ASSIGNMENT (( #174 ) ) ;
#502 = ORIENTED_EDGE ( 'NONE', *, *, #35, .T. ) ;
#503 = ADVANCED_FACE ( 'NONE', ( #402 ), #729, .F. ) ;
#504 = CYLINDRICAL_SURFACE ( 'NONE', #461, 2.000000000000000000 ) ;
#505 = ORIENTED_EDGE ( 'NONE', *, *, #435, .T. ) ;
#506 = UNCERTAINTY_MEASURE_WITH_UNIT (LENGTH_MEASURE( 1.000000000000000082E-05 ), #826, 'distance_accuracy_value', 'NONE');
#507 = ORIENTED_EDGE ( 'NONE', *, *, #779, .T. ) ;
#508 = DIRECTION ( 'NONE',  ( 0.000000000000000000, 0.000000000000000000, 1.000000000000000000 ) ) ;
#509 = CARTESIAN_POINT ( 'NONE',  ( 11.68181818181818166, -7.269709460644049770, 7.000000000000000000 ) ) ;
#510 = ORIENTED_EDGE ( 'NONE', *, *, #341, .F. ) ;
#511 = EDGE_CURVE ( 'NONE', #802, #355, #716, .T. ) ;
#512 = CARTESIAN_POINT ( 'NONE',  ( 3.499999999999996003, -33.14289031656714712, 7.000000000000000000 ) ) ;
#513 = CARTESIAN_POINT ( 'NONE',  ( 4.999999999999997335, -54.89289031656714712, -2.449293598294708880E-16 ) ) ;
#514 = CARTESIAN_POINT ( 'NONE',  ( 3.499999999999999556, -34.03776814162318232, -13.00000000000000178 ) ) ;
#515 = ORIENTED_EDGE ( 'NONE', *, *, #928, .F. ) ;
#516 = VECTOR ( 'NONE', #906, 1000.000000000000000 ) ;
#517 = EDGE_CURVE ( 'NONE', #889, #273, #1037, .T. ) ;
#518 = UNCERTAINTY_MEASURE_WITH_UNIT (LENGTH_MEASURE( 1.000000000000000082E-05 ), #789, 'distance_accuracy_value', 'NONE');
#519 = VECTOR ( 'NONE', #60, 1000.000000000000000 ) ;
#520 = VECTOR ( 'NONE', #191, 1000.000000000000000 ) ;
#521 = CARTESIAN_POINT ( 'NONE',  ( -11.68181818181817633, -7.269709460644047105, 0.000000000000000000 ) ) ;
#522 = LINE ( 'NONE', #849, #571 ) ;
#523 = ORIENTED_EDGE ( 'NONE', *, *, #530, .T. ) ;
#524 = AXIS2_PLACEMENT_3D ( 'NONE', #404, #999, #736 ) ;
#525 = DIRECTION ( 'NONE',  ( -1.000000000000000000, 0.000000000000000000, 0.000000000000000000 ) ) ;
#526 = CARTESIAN_POINT ( 'NONE',  ( -13.50000000000000533, -0.3772233983161953352, 0.000000000000000000 ) ) ;
#527 = ORIENTED_EDGE ( 'NONE', *, *, #535, .F. ) ;
#528 = AXIS2_PLACEMENT_3D ( 'NONE', #351, #263, #919 ) ;
#529 = VECTOR ( 'NONE', #543, 1000.000000000000000 ) ;
#530 = EDGE_CURVE ( 'NONE', #245, #192, #306, .T. ) ;
#531 = FACE_OUTER_BOUND ( 'NONE', #539, .T. ) ;
#532 = DIRECTION ( 'NONE',  ( -1.000000000000000000, -3.469446951953611033E-15, 0.000000000000000000 ) ) ;
#533 = ORIENTED_EDGE ( 'NONE', *, *, #883, .T. ) ;
#534 = VERTEX_POINT ( 'NONE', #705 ) ;
#535 = EDGE_CURVE ( 'NONE', #845, #863, #1061, .T. ) ;
#536 = VERTEX_POINT ( 'NONE', #877 ) ;
#537 = ORIENTED_EDGE ( 'NONE', *, *, #772, .F. ) ;
#538 = FACE_OUTER_BOUND ( 'NONE', #725, .T. ) ;
#539 = EDGE_LOOP ( 'NONE', ( #376, #457, #659, #122 ) ) ;
#540 = EDGE_CURVE ( 'NONE', #600, #182, #297, .T. ) ;
#541 = FACE_OUTER_BOUND ( 'NONE', #236, .T. ) ;
#542 = VERTEX_POINT ( 'NONE', #390 ) ;
#543 = DIRECTION ( 'NONE',  ( 1.000000000000000000, -4.336808689942020201E-17, -0.000000000000000000 ) ) ;
#544 = PRODUCT_DEFINITION_FORMATION_WITH_SPECIFIED_SOURCE ( 'ANY', '', #250, .NOT_KNOWN. ) ;
#545 = CARTESIAN_POINT ( 'NONE',  ( -11.50000000000000533, 1.622776601683803666, 0.000000000000000000 ) ) ;
#546 = ORIENTED_EDGE ( 'NONE', *, *, #704, .T. ) ;
#547 = DIRECTION ( 'NONE',  ( 0.000000000000000000, 1.000000000000000000, 0.000000000000000000 ) ) ;
#548 = EDGE_CURVE ( 'NONE', #830, #780, #1071, .T. ) ;
#549 = ORIENTED_EDGE ( 'NONE', *, *, #130, .F. ) ;
#550 = DIRECTION ( 'NONE',  ( 1.000000000000000000, -0.000000000000000000, -0.000000000000000000 ) ) ;
#551 = CARTESIAN_POINT ( 'NONE',  ( -4.999999999999994671, -54.89289031656714712, 2.500000000000001332 ) ) ;
#552 = ORIENTED_EDGE ( 'NONE', *, *, #374, .F. ) ;
#553 = DIRECTION ( 'NONE',  ( 1.000000000000000000, 0.000000000000000000, 0.000000000000000000 ) ) ;
#554 = ORIENTED_EDGE ( 'NONE', *, *, #720, .T. ) ;
#555 = DIRECTION ( 'NONE',  ( -0.000000000000000000, -0.000000000000000000, -1.000000000000000000 ) ) ;
#556 = VECTOR ( 'NONE', #173, 1000.000000000000000 ) ;
#557 = LINE ( 'NONE', #886, #430 ) ;
#558 = EDGE_LOOP ( 'NONE', ( #366, #896, #411, #451, #958, #37 ) ) ;
#559 = CARTESIAN_POINT ( 'NONE',  ( -4.999999999999997335, -54.89289031656714712, 2.500000000000000444 ) ) ;
#560 = VECTOR ( 'NONE', #550, 1000.000000000000000 ) ;
#561 = DIRECTION ( 'NONE',  ( -0.000000000000000000, -0.000000000000000000, -1.000000000000000000 ) ) ;
#562 = EDGE_CURVE ( 'NONE', #951, #802, #635, .T. ) ;
#563 = CARTESIAN_POINT ( 'NONE',  ( 5.000000000000005329, -55.39289031656714712, 2.500000000000001332 ) ) ;
#564 = VERTEX_POINT ( 'NONE', #424 ) ;
#565 = CIRCLE ( 'NONE', #153, 45.00000000000000000 ) ;
#566 = FACE_OUTER_BOUND ( 'NONE', #64, .T. ) ;
#567 = DIRECTION ( 'NONE',  ( 0.000000000000000000, 0.000000000000000000, 1.000000000000000000 ) ) ;
#568 = EDGE_CURVE ( 'NONE', #69, #652, #1068, .T. ) ;
#569 = DIRECTION ( 'NONE',  ( 0.000000000000000000, 0.000000000000000000, -1.000000000000000000 ) ) ;
#570 = LINE ( 'NONE', #422, #1022 ) ;
#571 = VECTOR ( 'NONE', #33, 1000.000000000000000 ) ;
#572 = ORIENTED_EDGE ( 'NONE', *, *, #740, .T. ) ;
#573 = CARTESIAN_POINT ( 'NONE',  ( -13.50000000000000533, -51.24801249151111904, 23.50000000000000000 ) ) ;
#574 = CARTESIAN_POINT ( 'NONE',  ( -3.499999999999997335, -35.14289031656714712, 6.969444283165395326 ) ) ;
#575 = CARTESIAN_POINT ( 'NONE',  ( -5.499999999999998224, -55.39289031656714712, 2.500000000000000444 ) ) ;
#576 = AXIS2_PLACEMENT_3D ( 'NONE', #50, #956, #372 ) ;
#577 = PLANE ( 'NONE',  #748 ) ;
#578 = EDGE_CURVE ( 'NONE', #219, #945, #738, .T. ) ;
#579 = ORIENTED_EDGE ( 'NONE', *, *, #212, .F. ) ;
#580 = DIRECTION ( 'NONE',  ( -1.000000000000000000, 0.000000000000000000, 0.000000000000000000 ) ) ;
#581 = DIRECTION ( 'NONE',  ( -1.000000000000000000, 4.336808689942020818E-17, 0.000000000000000000 ) ) ;
#582 = DIRECTION ( 'NONE',  ( 1.000000000000000000, 0.000000000000000000, 0.000000000000000000 ) ) ;
#583 = DIRECTION ( 'NONE',  ( -1.000000000000000000, 0.000000000000000000, 0.000000000000000000 ) ) ;
#584 = CARTESIAN_POINT ( 'NONE',  ( 4.673960441951452438, -45.18393934597216344, 4.441484399734767941 ) ) ;
#585 = CIRCLE ( 'NONE', #204, 44.99999999999996447 ) ;
#586 = EDGE_CURVE ( 'NONE', #855, #41, #638, .T. ) ;
#587 = SURFACE_STYLE_FILL_AREA ( #994 ) ;
#588 = PLANE ( 'NONE',  #887 ) ;
#589 = DIRECTION ( 'NONE',  ( -1.000000000000000000, -4.336808689942020818E-17, 0.000000000000000000 ) ) ;
#590 = ORIENTED_EDGE ( 'NONE', *, *, #810, .T. ) ;
#591 = CARTESIAN_POINT ( 'NONE',  ( -3.499999999999997335, -35.14289031656714712, 7.000000000000000000 ) ) ;
#592 = CYLINDRICAL_SURFACE ( 'NONE', #456, 10.00000000000000178 ) ;
#593 = ORIENTED_EDGE ( 'NONE', *, *, #697, .T. ) ;
#594 = EDGE_CURVE ( 'NONE', #825, #774, #673, .T. ) ;
#595 = ORIENTED_EDGE ( 'NONE', *, *, #946, .F. ) ;
#596 = CARTESIAN_POINT ( 'NONE',  ( 13.49999999999999467, -0.3772233983161950022, 0.000000000000000000 ) ) ;
#597 = LINE ( 'NONE', #848, #434 ) ;
#598 = EDGE_CURVE ( 'NONE', #692, #542, #127, .T. ) ;
#599 = PLANE ( 'NONE',  #329 ) ;
#600 = VERTEX_POINT ( 'NONE', #654 ) ;
#601 = LINE ( 'NONE', #843, #241 ) ;
#602 = CARTESIAN_POINT ( 'NONE',  ( -3.499999999999997335, -35.14289031656714712, 0.000000000000000000 ) ) ;
#603 = PRODUCT_DEFINITION_SHAPE ( 'NONE', 'NONE',  #137 ) ;
#604 = VERTEX_POINT ( 'NONE', #745 ) ;
#605 = VECTOR ( 'NONE', #264, 1000.000000000000000 ) ;
#606 = CIRCLE ( 'NONE', #744, 37.87500000000012790 ) ;
#607 = DIRECTION ( 'NONE',  ( 0.000000000000000000, 0.000000000000000000, 1.000000000000000000 ) ) ;
#608 = DIRECTION ( 'NONE',  ( -1.000000000000000000, -0.000000000000000000, -0.000000000000000000 ) ) ;
#609 = ORIENTED_EDGE ( 'NONE', *, *, #511, .F. ) ;
#610 = ADVANCED_FACE ( 'NONE', ( #660 ), #592, .T. ) ;
#611 = AXIS2_PLACEMENT_3D ( 'NONE', #313, #724, #228 ) ;
#612 = CARTESIAN_POINT ( 'NONE',  ( -4.249999999999990230, -42.64289031656714002, 7.000000000000000000 ) ) ;
#613 = CARTESIAN_POINT ( 'NONE',  ( -41.37500000000013500, -35.14289031656714712, 0.000000000000000000 ) ) ;
#614 = ORIENTED_EDGE ( 'NONE', *, *, #562, .F. ) ;
#615 = EDGE_CURVE ( 'NONE', #93, #889, #836, .T. ) ;
#616 = ORIENTED_EDGE ( 'NONE', *, *, #358, .T. ) ;
#617 = VECTOR ( 'NONE', #135, 1000.000000000000000 ) ;
#618 = CARTESIAN_POINT ( 'NONE',  ( -3.499999999999997335, -35.14289031656714712, 0.000000000000000000 ) ) ;
#619 = ORIENTED_EDGE ( 'NONE', *, *, #943, .T. ) ;
#620 = VECTOR ( 'NONE', #92, 1000.000000000000000 ) ;
#621 = EDGE_LOOP ( 'NONE', ( #365, #833, #467, #10, #444, #1066 ) ) ;
#622 = CARTESIAN_POINT ( 'NONE',  ( -3.499999999999993339, -1.520113714883358558, 0.000000000000000000 ) ) ;
#623 = ORIENTED_EDGE ( 'NONE', *, *, #279, .T. ) ;
#624 = LINE ( 'NONE', #1047, #991 ) ;
#625 = EDGE_LOOP ( 'NONE', ( #449, #988, #770, #171 ) ) ;
#626 = CARTESIAN_POINT ( 'NONE',  ( -5.499999999999998224, -55.39289031656714712, -2.449293598294708880E-16 ) ) ;
#627 = CYLINDRICAL_SURFACE ( 'NONE', #410, 1.999999999999998224 ) ;
#628 = EDGE_LOOP ( 'NONE', ( #337, #523, #973, #401, #86 ) ) ;
#629 = ADVANCED_FACE ( 'NONE', ( #336 ), #496, .F. ) ;
#630 = CARTESIAN_POINT ( 'NONE',  ( 11.49999999999999645, -0.3772233983161945581, 0.000000000000000000 ) ) ;
#631 = ORIENTED_EDGE ( 'NONE', *, *, #779, .F. ) ;
#632 = CARTESIAN_POINT ( 'NONE',  ( 4.886318001952413503, -46.79190152735039021, 3.929860069296242653 ) ) ;
#633 = DIRECTION ( 'NONE',  ( 0.000000000000000000, -1.000000000000000000, 0.000000000000000000 ) ) ;
#634 = ORIENTED_EDGE ( 'NONE', *, *, #893, .T. ) ;
#635 = LINE ( 'NONE', #90, #94 ) ;
#636 = DIRECTION ( 'NONE',  ( -0.000000000000000000, -0.000000000000000000, -1.000000000000000000 ) ) ;
#637 = CARTESIAN_POINT ( 'NONE',  ( -13.50000000000000533, -48.14289031656714712, 3.500000000000000000 ) ) ;
#638 = B_SPLINE_CURVE_WITH_KNOTS ( 'NONE', 3,
 ( #257, #412, #253, #818 ),
 .UNSPECIFIED., .F., .F.,
 ( 4, 4 ),
 ( 0.000000000000000000, 0.005052453620520181397 ),
 .UNSPECIFIED. ) ;
#639 = ADVANCED_FACE ( 'NONE', ( #406 ), #492, .F. ) ;
#640 = VERTEX_POINT ( 'NONE', #162 ) ;
#641 = CARTESIAN_POINT ( 'NONE',  ( 48.49999999999995026, -33.14289031656714712, 7.000000000000000000 ) ) ;
#642 = CARTESIAN_POINT ( 'NONE',  ( 4.999999999999997335, -55.39289031656714712, -2.449293598294708880E-16 ) ) ;
#643 = MANIFOLD_SOLID_BREP ( 'Mirror1', #475 ) ;
#644 = PLANE ( 'NONE',  #672 ) ;
#645 = ORIENTED_EDGE ( 'NONE', *, *, #756, .F. ) ;
#646 = ADVANCED_FACE ( 'NONE', ( #338 ), #504, .T. ) ;
#647 = FACE_OUTER_BOUND ( 'NONE', #628, .T. ) ;
#648 = AXIS2_PLACEMENT_3D ( 'NONE', #323, #1001, #262 ) ;
#649 = DIRECTION ( 'NONE',  ( 1.000000000000000000, -0.000000000000000000, 0.000000000000000000 ) ) ;
#650 = LINE ( 'NONE', #675, #290 ) ;
#651 = DIRECTION ( 'NONE',  ( 0.000000000000000000, 0.000000000000000000, 1.000000000000000000 ) ) ;
#652 = VERTEX_POINT ( 'NONE', #837 ) ;
#653 = CIRCLE ( 'NONE', #758, 19.99999999999999645 ) ;
#654 = CARTESIAN_POINT ( 'NONE',  ( -5.499999999999998224, -55.39289031656714712, -2.449293598294708880E-16 ) ) ;
#655 = CARTESIAN_POINT ( 'NONE',  ( 4.250000000000003553, -42.64289031656716134, 0.000000000000000000 ) ) ;
#656 = ADVANCED_FACE ( 'NONE', ( #5 ), #900, .T. ) ;
#657 = CARTESIAN_POINT ( 'NONE',  ( 32.87500000000014921, -50.14289031656715423, 7.000000000000000000 ) ) ;
#658 = CIRCLE ( 'NONE', #193, 10.00000000000000178 ) ;
#659 = ORIENTED_EDGE ( 'NONE', *, *, #310, .F. ) ;
#660 = FACE_OUTER_BOUND ( 'NONE', #681, .T. ) ;
#661 = CARTESIAN_POINT ( 'NONE',  ( -13.50000000000000533, -34.03776814162318232, -13.00000000000000178 ) ) ;
#662 = B_SPLINE_CURVE_WITH_KNOTS ( 'NONE', 3,
 ( #1056, #3, #891, #238 ),
 .UNSPECIFIED., .F., .F.,
 ( 4, 4 ),
 ( 0.000000000000000000, 0.005052453620520189204 ),
 .UNSPECIFIED. ) ;
#663 = FACE_OUTER_BOUND ( 'NONE', #485, .T. ) ;
#664 = VECTOR ( 'NONE', #671, 1000.000000000000000 ) ;
#665 = ADVANCED_FACE ( 'NONE', ( #663 ), #977, .F. ) ;
#666 = CARTESIAN_POINT ( 'NONE',  ( 5.000000000000005329, -70.14289031656714712, 3.500000000000000000 ) ) ;
#667 = FILL_AREA_STYLE_COLOUR ( '', #888 ) ;
#668 = DIRECTION ( 'NONE',  ( 1.000000000000000000, -4.336808689942020201E-17, -0.000000000000000000 ) ) ;
#669 = LINE ( 'NONE', #814, #783 ) ;
#670 = EDGE_LOOP ( 'NONE', ( #425, #860, #203, #922 ) ) ;
#671 = DIRECTION ( 'NONE',  ( -1.214271186538564186E-14, 1.000000000000000000, -0.000000000000000000 ) ) ;
#672 = AXIS2_PLACEMENT_3D ( 'NONE', #382, #868, #709 ) ;
#673 = LINE ( 'NONE', #981, #368 ) ;
#674 = ORIENTED_EDGE ( 'NONE', *, *, #540, .F. ) ;
#675 = CARTESIAN_POINT ( 'NONE',  ( -3.499999999999997335, -35.14289031656714712, 7.000000000000000000 ) ) ;
#676 = ORIENTED_EDGE ( 'NONE', *, *, #594, .T. ) ;
#677 = EDGE_CURVE ( 'NONE', #217, #1033, #344, .T. ) ;
#678 = ORIENTED_EDGE ( 'NONE', *, *, #893, .F. ) ;
#679 = CARTESIAN_POINT ( 'NONE',  ( -4.999999999999993783, -70.14289031656714712, 3.500000000000000000 ) ) ;
#680 = CARTESIAN_POINT ( 'NONE',  ( -5.499999999999998224, -54.89289031656714712, 2.500000000000000444 ) ) ;
#681 = EDGE_LOOP ( 'NONE', ( #74, #944, #296, #383 ) ) ;
#682 = PRODUCT_RELATED_PRODUCT_CATEGORY ( 'part', '', ( #250 ) ) ;
#683 = LINE ( 'NONE', #612, #100 ) ;
#684 = DIRECTION ( 'NONE',  ( -1.214271186538565764E-14, 1.000000000000000000, 0.000000000000000000 ) ) ;
#685 = ORIENTED_EDGE ( 'NONE', *, *, #304, .T. ) ;
#686 = CARTESIAN_POINT ( 'NONE',  ( -32.87500000000013500, -50.14289031656714712, 0.000000000000000000 ) ) ;
#687 = CARTESIAN_POINT ( 'NONE',  ( -3.938515239302859516, -40.95350223947706070, 5.787532569983214081 ) ) ;
#688 = ORIENTED_EDGE ( 'NONE', *, *, #421, .F. ) ;
#689 = EDGE_CURVE ( 'NONE', #301, #69, #912, .T. ) ;
#690 = CARTESIAN_POINT ( 'NONE',  ( -5.499999999999998224, -54.89289031656714712, -2.449293598294708880E-16 ) ) ;
#691 = CARTESIAN_POINT ( 'NONE',  ( -3.826039558048541345, -40.10184128716211660, 6.058515600265236500 ) ) ;
#692 = VERTEX_POINT ( 'NONE', #921 ) ;
#693 = ADVANCED_FACE ( 'NONE', ( #986 ), #426, .T. ) ;
#694 = LINE ( 'NONE', #775, #244 ) ;
#695 = ORIENTED_EDGE ( 'NONE', *, *, #112, .F. ) ;
#696 = VECTOR ( 'NONE', #80, 1000.000000000000000 ) ;
#697 = EDGE_CURVE ( 'NONE', #948, #968, #650, .T. ) ;
#698 = ORIENTED_EDGE ( 'NONE', *, *, #993, .F. ) ;
#699 = LINE ( 'NONE', #545, #31 ) ;
#700 = ORIENTED_EDGE ( 'NONE', *, *, #767, .T. ) ;
#701 = AXIS2_PLACEMENT_3D ( 'NONE', #20, #201, #763 ) ;
#702 = DIRECTION ( 'NONE',  ( 0.000000000000000000, 0.000000000000000000, 1.000000000000000000 ) ) ;
#703 = ORIENTED_EDGE ( 'NONE', *, *, #274, .F. ) ;
#704 = EDGE_CURVE ( 'NONE', #1004, #355, #88, .T. ) ;
#705 = CARTESIAN_POINT ( 'NONE',  ( 3.500000000000003109, -35.14289031656714712, 6.969444283165395326 ) ) ;
#706 = AXIS2_PLACEMENT_3D ( 'NONE', #686, #607, #525 ) ;
#707 = DIRECTION ( 'NONE',  ( -0.000000000000000000, -0.000000000000000000, -1.000000000000000000 ) ) ;
#708 = ORIENTED_EDGE ( 'NONE', *, *, #160, .T. ) ;
#709 = DIRECTION ( 'NONE',  ( 0.000000000000000000, 0.000000000000000000, 1.000000000000000000 ) ) ;
#710 = ORIENTED_EDGE ( 'NONE', *, *, #511, .T. ) ;
#711 = VECTOR ( 'NONE', #89, 1000.000000000000000 ) ;
#712 = LINE ( 'NONE', #959, #16 ) ;
#713 = FACE_OUTER_BOUND ( 'NONE', #17, .T. ) ;
#714 = DIRECTION ( 'NONE',  ( 1.000000000000000000, 0.000000000000000000, 0.000000000000000000 ) ) ;
#715 = ORIENTED_EDGE ( 'NONE', *, *, #279, .F. ) ;
#716 = LINE ( 'NONE', #1055, #529 ) ;
#717 = CARTESIAN_POINT ( 'NONE',  ( -5.499999999999998224, 2.168404344971010101E-17, 0.000000000000000000 ) ) ;
#718 = DIRECTION ( 'NONE',  ( 0.000000000000000000, 0.000000000000000000, 1.000000000000000000 ) ) ;
#719 = CIRCLE ( 'NONE', #256, 2.000000000000000000 ) ;
#720 = EDGE_CURVE ( 'NONE', #604, #452, #420, .T. ) ;
#721 = DIRECTION ( 'NONE',  ( -0.000000000000000000, 1.000000000000000000, -0.000000000000000000 ) ) ;
#722 = ORIENTED_EDGE ( 'NONE', *, *, #38, .T. ) ;
#723 = DIRECTION ( 'NONE',  ( 1.000000000000000000, 0.000000000000000000, 0.000000000000000000 ) ) ;
#724 = DIRECTION ( 'NONE',  ( -0.000000000000000000, -0.000000000000000000, -1.000000000000000000 ) ) ;
#725 = EDGE_LOOP ( 'NONE', ( #147, #776, #208, #908, #131 ) ) ;
#726 = CARTESIAN_POINT ( 'NONE',  ( 5.499999999999998224, -55.39289031656714712, 2.500000000000000444 ) ) ;
#727 = EDGE_CURVE ( 'NONE', #283, #343, #831, .T. ) ;
#728 = ORIENTED_EDGE ( 'NONE', *, *, #677, .F. ) ;
#729 = PLANE ( 'NONE',  #394 ) ;
#730 = CARTESIAN_POINT ( 'NONE',  ( -3.826039558048541345, -40.10184128716211660, 6.058515600265236500 ) ) ;
#731 = LINE ( 'NONE', #1073, #556 ) ;
#732 = VERTEX_POINT ( 'NONE', #259 ) ;
#733 = EDGE_CURVE ( 'NONE', #192, #95, #653, .T. ) ;
#734 = CARTESIAN_POINT ( 'NONE',  ( 11.49999999999999645, 1.622776601683803666, 7.000000000000000000 ) ) ;
#735 = FACE_OUTER_BOUND ( 'NONE', #119, .T. ) ;
#736 = DIRECTION ( 'NONE',  ( -1.000000000000000000, 0.000000000000000000, 0.000000000000000000 ) ) ;
#737 = EDGE_LOOP ( 'NONE', ( #405, #1052, #954, #762, #433 ) ) ;
#738 = LINE ( 'NONE', #14, #234 ) ;
#739 = DIRECTION ( 'NONE',  ( -1.000000000000000000, 0.000000000000000000, 0.000000000000000000 ) ) ;
#740 = EDGE_CURVE ( 'NONE', #69, #825, #319, .T. ) ;
#741 = CARTESIAN_POINT ( 'NONE',  ( 5.499999999999998224, -54.89289031656714712, 2.500000000000000444 ) ) ;
#742 = CARTESIAN_POINT ( 'NONE',  ( 4.420110092721121653, -43.48493527553669225, 4.982076603964237016 ) ) ;
#743 = AXIS2_PLACEMENT_3D ( 'NONE', #661, #649, #403 ) ;
#744 = AXIS2_PLACEMENT_3D ( 'NONE', #613, #97, #926 ) ;
#745 = CARTESIAN_POINT ( 'NONE',  ( 5.000000000000005329, -70.14289031656714712, 0.000000000000000000 ) ) ;
#746 = ORIENTED_EDGE ( 'NONE', *, *, #352, .T. ) ;
#747 = DIRECTION ( 'NONE',  ( 0.000000000000000000, 1.000000000000000000, 0.000000000000000000 ) ) ;
#748 = AXIS2_PLACEMENT_3D ( 'NONE', #340, #992, #815 ) ;
#749 = DIRECTION ( 'NONE',  ( -0.000000000000000000, -0.000000000000000000, -1.000000000000000000 ) ) ;
#750 = DIRECTION ( 'NONE',  ( -0.000000000000000000, -0.000000000000000000, -1.000000000000000000 ) ) ;
#751 = ORIENTED_EDGE ( 'NONE', *, *, #1039, .T. ) ;
#752 = AXIS2_PLACEMENT_3D ( 'NONE', #812, #246, #75 ) ;
#753 = CARTESIAN_POINT ( 'NONE',  ( -11.50000000000000533, -0.3772233983161953352, 7.000000000000000000 ) ) ;
#754 = ORIENTED_EDGE ( 'NONE', *, *, #112, .T. ) ;
#755 = AXIS2_PLACEMENT_3D ( 'NONE', #630, #702, #949 ) ;
#756 = EDGE_CURVE ( 'NONE', #845, #474, #669, .T. ) ;
#757 = ORIENTED_EDGE ( 'NONE', *, *, #615, .T. ) ;
#758 = AXIS2_PLACEMENT_3D ( 'NONE', #179, #414, #508 ) ;
#759 = DIRECTION ( 'NONE',  ( 1.000000000000000000, -0.000000000000000000, -0.000000000000000000 ) ) ;
#760 = ORIENTED_EDGE ( 'NONE', *, *, #586, .T. ) ;
#761 = ADVANCED_FACE ( 'NONE', ( #735 ), #325, .T. ) ;
#762 = ORIENTED_EDGE ( 'NONE', *, *, #517, .T. ) ;
#763 = DIRECTION ( 'NONE',  ( 1.000000000000000000, -4.336808689942020818E-17, 0.000000000000000000 ) ) ;
#764 = DIRECTION ( 'NONE',  ( -0.000000000000000000, -0.000000000000000000, -1.000000000000000000 ) ) ;
#765 = ORIENTED_EDGE ( 'NONE', *, *, #12, .T. ) ;
#766 = B_SPLINE_CURVE_WITH_KNOTS ( 'NONE', 3,
 ( #730, #76, #975, #574 ),
 .UNSPECIFIED., .F., .F.,
 ( 4, 4 ),
 ( 7.006328859705253345E-18, 0.005052453620520189204 ),
 .UNSPECIFIED. ) ;
#767 = EDGE_CURVE ( 'NONE', #301, #258, #597, .T. ) ;
#768 = FACE_OUTER_BOUND ( 'NONE', #260, .T. ) ;
#769 = CARTESIAN_POINT ( 'NONE',  ( -4.947157857531081504, -51.24801249151111904, 3.500000000000000000 ) ) ;
#770 = ORIENTED_EDGE ( 'NONE', *, *, #188, .F. ) ;
#771 = DIRECTION ( 'NONE',  ( 1.000000000000000000, 0.000000000000000000, -0.000000000000000000 ) ) ;
#772 = EDGE_CURVE ( 'NONE', #839, #288, #565, .T. ) ;
#773 = CARTESIAN_POINT ( 'NONE',  ( 13.50000000000000711, -1.520113714883357892, 0.000000000000000000 ) ) ;
#774 = VERTEX_POINT ( 'NONE', #513 ) ;
#775 = CARTESIAN_POINT ( 'NONE',  ( -13.49999999999999112, -1.520113714883358558, 0.000000000000000000 ) ) ;
#776 = ORIENTED_EDGE ( 'NONE', *, *, #1000, .T. ) ;
#777 = ORIENTED_EDGE ( 'NONE', *, *, #292, .T. ) ;
#778 = ORIENTED_EDGE ( 'NONE', *, *, #1067, .F. ) ;
#779 = EDGE_CURVE ( 'NONE', #219, #495, #32, .T. ) ;
#780 = VERTEX_POINT ( 'NONE', #195 ) ;
#781 = CARTESIAN_POINT ( 'NONE',  ( 41.37500000000014921, -35.14289031656714712, 7.000000000000000000 ) ) ;
#782 = ORIENTED_EDGE ( 'NONE', *, *, #689, .T. ) ;
#783 = VECTOR ( 'NONE', #408, 1000.000000000000000 ) ;
#784 = FACE_OUTER_BOUND ( 'NONE', #621, .T. ) ;
#785 = ORIENTED_EDGE ( 'NONE', *, *, #188, .T. ) ;
#786 = AXIS2_PLACEMENT_3D ( 'NONE', #717, #739, #308 ) ;
#787 = CARTESIAN_POINT ( 'NONE',  ( -4.999999999999993783, -51.24801249151111904, 23.50000000000000000 ) ) ;
#788 = VECTOR ( 'NONE', #759, 1000.000000000000000 ) ;
#789 =( LENGTH_UNIT ( ) NAMED_UNIT ( * ) SI_UNIT ( .MILLI., .METRE. ) );
#790 = CARTESIAN_POINT ( 'NONE',  ( 5.499999999999998224, -55.39289031656714712, -2.449293598294708880E-16 ) ) ;
#791 = VERTEX_POINT ( 'NONE', #280 ) ;
#792 = AXIS2_PLACEMENT_3D ( 'NONE', #657, #261, #987 ) ;
#793 = DIRECTION ( 'NONE',  ( 1.000000000000000000, -4.336808689942020201E-17, -0.000000000000000000 ) ) ;
#794 = CARTESIAN_POINT ( 'NONE',  ( 4.999999999999997335, -54.89289031656714712, 2.500000000000000444 ) ) ;
#795 = DIRECTION ( 'NONE',  ( 1.000000000000000000, 2.818925648462309556E-15, -0.000000000000000000 ) ) ;
#796 = EDGE_CURVE ( 'NONE', #27, #363, #683, .T. ) ;
#797 = CARTESIAN_POINT ( 'NONE',  ( -11.50000000000000533, 1.622776601683803666, 7.000000000000000000 ) ) ;
#798 = VECTOR ( 'NONE', #668, 1000.000000000000000 ) ;
#799 = VERTEX_POINT ( 'NONE', #102 ) ;
#800 = CYLINDRICAL_SURFACE ( 'NONE', #289, 37.87500000000012079 ) ;
#801 = CARTESIAN_POINT ( 'NONE',  ( 5.000000000000005329, -50.14289031656715423, 0.000000000000000000 ) ) ;
#802 = VERTEX_POINT ( 'NONE', #690 ) ;
#803 = VECTOR ( 'NONE', #553, 1000.000000000000000 ) ;
#804 = EDGE_CURVE ( 'NONE', #534, #889, #601, .T. ) ;
#805 = DIRECTION ( 'NONE',  ( 0.000000000000000000, 0.9529257800132617806, 0.3032036572769470362 ) ) ;
#806 = EDGE_LOOP ( 'NONE', ( #299, #175, #703, #1043 ) ) ;
#807 = CARTESIAN_POINT ( 'NONE',  ( 5.000000000000005329, -55.39289031656714712, 0.000000000000000000 ) ) ;
#808 = LINE ( 'NONE', #157, #983 ) ;
#809 = FACE_OUTER_BOUND ( 'NONE', #98, .T. ) ;
#810 = EDGE_CURVE ( 'NONE', #855, #861, #938, .T. ) ;
#811 = ORIENTED_EDGE ( 'NONE', *, *, #1006, .F. ) ;
#812 = CARTESIAN_POINT ( 'NONE',  ( 41.37500000000014921, -35.14289031656714712, 0.000000000000000000 ) ) ;
#813 = CARTESIAN_POINT ( 'NONE',  ( -4.249999999999990230, -42.64289031656714002, 5.250000000000002665 ) ) ;
#814 = CARTESIAN_POINT ( 'NONE',  ( -4.999999999999994671, -70.14289031656714712, 7.000000000000000000 ) ) ;
#815 = DIRECTION ( 'NONE',  ( 0.000000000000000000, -0.000000000000000000, 1.000000000000000000 ) ) ;
#816 = ADVANCED_FACE ( 'NONE', ( #768 ), #28, .F. ) ;
#817 = ORIENTED_EDGE ( 'NONE', *, *, #530, .F. ) ;
#818 = CARTESIAN_POINT ( 'NONE',  ( -4.673960441951452438, -45.18393934597217765, 4.441484399734763500 ) ) ;
#819 = CARTESIAN_POINT ( 'NONE',  ( -4.999999999999997335, -55.39289031656714712, -2.449293598294708880E-16 ) ) ;
#820 = AXIS2_PLACEMENT_3D ( 'NONE', #781, #47, #125 ) ;
#821 = CARTESIAN_POINT ( 'NONE',  ( 5.000000000000005329, -70.14289031656714712, 0.000000000000000000 ) ) ;
#822 = CARTESIAN_POINT ( 'NONE',  ( 5.499999999999998224, -54.89289031656714712, 2.500000000000000444 ) ) ;
#823 = ADVANCED_BREP_SHAPE_REPRESENTATION ( 'Lap Shear Coupon 7x7mm', ( #643, #957 ), #128 ) ;
#824 = CARTESIAN_POINT ( 'NONE',  ( 13.49999999999999467, -0.3772233983161950022, 7.000000000000000000 ) ) ;
#825 = VERTEX_POINT ( 'NONE', #930 ) ;
#826 =( LENGTH_UNIT ( ) NAMED_UNIT ( * ) SI_UNIT ( .MILLI., .METRE. ) );
#827 = CARTESIAN_POINT ( 'NONE',  ( -4.999999999999994671, -50.14289031656715423, 0.000000000000000000 ) ) ;
#828 = VECTOR ( 'NONE', #487, 1000.000000000000000 ) ;
#829 = CARTESIAN_POINT ( 'NONE',  ( 4.250000000000003553, -42.64289031656716134, 5.249999999999995559 ) ) ;
#830 = VERTEX_POINT ( 'NONE', #25 ) ;
#831 = LINE ( 'NONE', #77, #605 ) ;
#832 = ADVANCED_FACE ( 'NONE', ( #531 ), #348, .F. ) ;
#833 = ORIENTED_EDGE ( 'NONE', *, *, #920, .T. ) ;
#834 = ORIENTED_EDGE ( 'NONE', *, *, #53, .T. ) ;
#835 = VECTOR ( 'NONE', #561, 1000.000000000000000 ) ;
#836 = CIRCLE ( 'NONE', #752, 37.87500000000014211 ) ;
#837 = CARTESIAN_POINT ( 'NONE',  ( 5.499999999999998224, -54.89289031656714712, -2.449293598294708880E-16 ) ) ;
#838 = DIRECTION ( 'NONE',  ( 1.214271186538565606E-14, -1.000000000000000000, -0.000000000000000000 ) ) ;
#839 = VERTEX_POINT ( 'NONE', #521 ) ;
#840 = EDGE_CURVE ( 'NONE', #39, #93, #105, .T. ) ;
#841 = FACE_OUTER_BOUND ( 'NONE', #198, .T. ) ;
#842 = AXIS2_PLACEMENT_3D ( 'NONE', #176, #569, #996 ) ;
#843 = CARTESIAN_POINT ( 'NONE',  ( 3.500000000000003109, -35.14289031656714712, 7.000000000000000000 ) ) ;
#844 = DIRECTION ( 'NONE',  ( 1.000000000000000000, 3.469446951953611033E-15, -0.000000000000000000 ) ) ;
#845 = VERTEX_POINT ( 'NONE', #679 ) ;
#846 = VECTOR ( 'NONE', #439, 1000.000000000000000 ) ;
#847 = ADVANCED_FACE ( 'NONE', ( #853 ), #113, .F. ) ;
#848 = CARTESIAN_POINT ( 'NONE',  ( 5.499999999999998224, -55.39289031656714712, 2.500000000000000444 ) ) ;
#849 = CARTESIAN_POINT ( 'NONE',  ( -11.50000000000000533, 1.622776601683803666, 7.000000000000000000 ) ) ;
#850 = EDGE_LOOP ( 'NONE', ( #369, #834, #205, #1009, #757 ) ) ;
#851 = CIRCLE ( 'NONE', #1042, 2.000000000000000000 ) ;
#852 = EDGE_CURVE ( 'NONE', #27, #187, #106, .T. ) ;
#853 = FACE_OUTER_BOUND ( 'NONE', #124, .T. ) ;
#854 = CARTESIAN_POINT ( 'NONE',  ( 5.000000000000004441, -70.14289031656714712, 3.500000000000000000 ) ) ;
#855 = VERTEX_POINT ( 'NONE', #450 ) ;
#856 = VECTOR ( 'NONE', #1044, 1000.000000000000000 ) ;
#857 = DIRECTION ( 'NONE',  ( -0.000000000000000000, -0.000000000000000000, -1.000000000000000000 ) ) ;
#858 = CARTESIAN_POINT ( 'NONE',  ( -4.999999999999997335, -50.14289031656714712, 0.000000000000000000 ) ) ;
#859 = ORIENTED_EDGE ( 'NONE', *, *, #796, .F. ) ;
#860 = ORIENTED_EDGE ( 'NONE', *, *, #87, .F. ) ;
#861 = VERTEX_POINT ( 'NONE', #858 ) ;
#862 = EDGE_CURVE ( 'NONE', #968, #363, #606, .T. ) ;
#863 = VERTEX_POINT ( 'NONE', #854 ) ;
#864 = DIRECTION ( 'NONE',  ( -2.818925648462309556E-15, 1.000000000000000000, 0.000000000000000000 ) ) ;
#865 = ORIENTED_EDGE ( 'NONE', *, *, #146, .F. ) ;
#866 = EDGE_LOOP ( 'NONE', ( #440, #379, #42, #817, #8, #1045 ) ) ;
#867 = EDGE_CURVE ( 'NONE', #945, #564, #694, .T. ) ;
#868 = DIRECTION ( 'NONE',  ( -1.000000000000000000, 0.000000000000000000, 0.000000000000000000 ) ) ;
#869 = ORIENTED_EDGE ( 'NONE', *, *, #292, .F. ) ;
#870 = CARTESIAN_POINT ( 'NONE',  ( -4.561484760697133822, -44.33227839365724776, 4.712467430016789471 ) ) ;
#871 = CARTESIAN_POINT ( 'NONE',  ( 11.49999999999999645, -0.3772233983161945581, 7.000000000000000000 ) ) ;
#872 = ORIENTED_EDGE ( 'NONE', *, *, #976, .F. ) ;
#873 = ORIENTED_EDGE ( 'NONE', *, *, #862, .T. ) ;
#874 = DIRECTION ( 'NONE',  ( -0.000000000000000000, -0.000000000000000000, -1.000000000000000000 ) ) ;
#875 = EDGE_CURVE ( 'NONE', #780, #93, #36, .T. ) ;
#876 = ORIENTED_EDGE ( 'NONE', *, *, #249, .T. ) ;
#877 = CARTESIAN_POINT ( 'NONE',  ( 13.50000000000000711, -1.520113714883357892, 7.000000000000000000 ) ) ;
#878 = VECTOR ( 'NONE', #764, 1000.000000000000000 ) ;
#879 = CARTESIAN_POINT ( 'NONE',  ( -4.999999999999994671, -70.14289031656714712, 0.000000000000000000 ) ) ;
#880 = FACE_OUTER_BOUND ( 'NONE', #670, .T. ) ;
#881 = PLANE ( 'NONE',  #387 ) ;
#882 = ORIENTED_EDGE ( 'NONE', *, *, #130, .T. ) ;
#883 = EDGE_CURVE ( 'NONE', #799, #283, #29, .T. ) ;
#884 = CARTESIAN_POINT ( 'NONE',  ( -4.249999999999990230, -42.64289031656714002, 5.250000000000002665 ) ) ;
#885 = DIRECTION ( 'NONE',  ( -1.000000000000000000, 0.000000000000000000, 0.000000000000000000 ) ) ;
#886 = CARTESIAN_POINT ( 'NONE',  ( 13.50000000000000711, -1.520113714883357892, 7.000000000000000000 ) ) ;
#887 = AXIS2_PLACEMENT_3D ( 'NONE', #995, #178, #581 ) ;
#888 = COLOUR_RGB ( '',0.7921568627450980005, 0.8196078431372548767, 0.9333333333333333481 ) ;
#889 = VERTEX_POINT ( 'NONE', #276 ) ;
#890 = CARTESIAN_POINT ( 'NONE',  ( 3.499999999999996003, -33.14289031656714712, 0.000000000000000000 ) ) ;
#891 = CARTESIAN_POINT ( 'NONE',  ( 3.613681998047585164, -38.49387910578390404, 6.570139930703759568 ) ) ;
#892 = AXIS2_PLACEMENT_3D ( 'NONE', #232, #215, #237 ) ;
#893 = EDGE_CURVE ( 'NONE', #363, #861, #278, .T. ) ;
#894 = DIRECTION ( 'NONE',  ( 0.000000000000000000, 0.000000000000000000, 1.000000000000000000 ) ) ;
#895 = VECTOR ( 'NONE', #747, 1000.000000000000000 ) ;
#896 = ORIENTED_EDGE ( 'NONE', *, *, #883, .F. ) ;
#897 = DIRECTION ( 'NONE',  ( -0.000000000000000000, -0.000000000000000000, -1.000000000000000000 ) ) ;
#898 = CARTESIAN_POINT ( 'NONE',  ( 5.000000000000005329, -51.24801249151111904, 3.500000000000000000 ) ) ;
#899 = VECTOR ( 'NONE', #608, 1000.000000000000000 ) ;
#900 = CYLINDRICAL_SURFACE ( 'NONE', #375, 9.999999999999998224 ) ;
#901 = ADVANCED_FACE ( 'NONE', ( #935 ), #364, .F. ) ;
#902 = DIRECTION ( 'NONE',  ( 1.000000000000000000, 0.000000000000000000, -0.000000000000000000 ) ) ;
#903 = ORIENTED_EDGE ( 'NONE', *, *, #810, .F. ) ;
#904 = DIRECTION ( 'NONE',  ( 0.000000000000000000, 0.000000000000000000, 1.000000000000000000 ) ) ;
#905 = LINE ( 'NONE', #642, #1025 ) ;
#906 = DIRECTION ( 'NONE',  ( 0.000000000000000000, 1.000000000000000000, 0.000000000000000000 ) ) ;
#907 = LINE ( 'NONE', #666, #423 ) ;
#908 = ORIENTED_EDGE ( 'NONE', *, *, #212, .T. ) ;
#909 = ORIENTED_EDGE ( 'NONE', *, *, #146, .T. ) ;
#910 = CARTESIAN_POINT ( 'NONE',  ( -3.499999999999993339, -1.520113714883358558, 7.000000000000000000 ) ) ;
#911 = ORIENTED_EDGE ( 'NONE', *, *, #772, .T. ) ;
#912 = LINE ( 'NONE', #158, #516 ) ;
#913 = LINE ( 'NONE', #827, #711 ) ;
#914 = SURFACE_SIDE_STYLE ('',( #587 ) ) ;
#915 = EDGE_CURVE ( 'NONE', #95, #732, #268, .T. ) ;
#916 = ORIENTED_EDGE ( 'NONE', *, *, #35, .F. ) ;
#917 = CARTESIAN_POINT ( 'NONE',  ( 5.499999999999998224, -54.89289031656714712, -2.449293598294708880E-16 ) ) ;
#918 = ORIENTED_EDGE ( 'NONE', *, *, #152, .T. ) ;
#919 = DIRECTION ( 'NONE',  ( 0.000000000000000000, -0.000000000000000000, -1.000000000000000000 ) ) ;
#920 = EDGE_CURVE ( 'NONE', #830, #187, #354, .T. ) ;
#921 = CARTESIAN_POINT ( 'NONE',  ( 13.49999999999999467, -0.3772233983161950022, 7.000000000000000000 ) ) ;
#922 = ORIENTED_EDGE ( 'NONE', *, *, #117, .T. ) ;
#923 = ORIENTED_EDGE ( 'NONE', *, *, #689, .F. ) ;
#924 =( GEOMETRIC_REPRESENTATION_CONTEXT ( 3 ) GLOBAL_UNCERTAINTY_ASSIGNED_CONTEXT ( ( #506 ) ) GLOBAL_UNIT_ASSIGNED_CONTEXT ( ( #826, #333, #248 ) ) REPRESENTATION_CONTEXT ( 'NONE', 'WORKASPACE' ) );
#925 = DIRECTION ( 'NONE',  ( -1.000000000000000000, 0.000000000000000000, 0.000000000000000000 ) ) ;
#926 = DIRECTION ( 'NONE',  ( -1.000000000000000000, 0.000000000000000000, 0.000000000000000000 ) ) ;
#927 = ORIENTED_EDGE ( 'NONE', *, *, #160, .F. ) ;
#928 = EDGE_CURVE ( 'NONE', #288, #968, #197, .T. ) ;
#929 = AXIS2_PLACEMENT_3D ( 'NONE', #1015, #190, #357 ) ;
#930 = CARTESIAN_POINT ( 'NONE',  ( 5.000000000000005329, -54.89289031656714712, 2.500000000000000444 ) ) ;
#931 = LINE ( 'NONE', #21, #933 ) ;
#932 = EDGE_LOOP ( 'NONE', ( #498, #1002, #593, #873, #859 ) ) ;
#933 = VECTOR ( 'NONE', #26, 1000.000000000000000 ) ;
#934 = DIRECTION ( 'NONE',  ( 0.000000000000000000, 0.000000000000000000, 1.000000000000000000 ) ) ;
#935 = FACE_OUTER_BOUND ( 'NONE', #737, .T. ) ;
#936 = ORIENTED_EDGE ( 'NONE', *, *, #358, .F. ) ;
#937 = AXIS2_PLACEMENT_3D ( 'NONE', #822, #651, #902 ) ;
#938 = LINE ( 'NONE', #271, #326 ) ;
#939 = DIRECTION ( 'NONE',  ( 0.000000000000000000, 0.000000000000000000, 1.000000000000000000 ) ) ;
#940 = ORIENTED_EDGE ( 'NONE', *, *, #740, .F. ) ;
#941 = AXIS2_PLACEMENT_3D ( 'NONE', #641, #965, #312 ) ;
#942 = ORIENTED_EDGE ( 'NONE', *, *, #727, .T. ) ;
#943 = EDGE_CURVE ( 'NONE', #143, #454, #362, .T. ) ;
#944 = ORIENTED_EDGE ( 'NONE', *, *, #73, .F. ) ;
#945 = VERTEX_POINT ( 'NONE', #526 ) ;
#946 = EDGE_CURVE ( 'NONE', #182, #474, #931, .T. ) ;
#947 = DIRECTION ( 'NONE',  ( 1.000000000000000000, 0.000000000000000000, 0.000000000000000000 ) ) ;
#948 = VERTEX_POINT ( 'NONE', #349 ) ;
#949 = DIRECTION ( 'NONE',  ( -1.000000000000000000, 0.000000000000000000, 0.000000000000000000 ) ) ;
#950 =( BOUNDED_CURVE ( )  B_SPLINE_CURVE ( 3, ( #316, #870, #132, #884 ),
 .UNSPECIFIED., .F., .T. ) 
 B_SPLINE_CURVE_WITH_KNOTS ( ( 4, 4 ),
 ( 1.702102717188633818, 1.770133631777220273 ),
 .UNSPECIFIED. ) 
 CURVE ( )  GEOMETRIC_REPRESENTATION_ITEM ( )  RATIONAL_B_SPLINE_CURVE ( ( 1.000000000000000000, 0.9996143534082465587, 0.9996143534082465587, 1.000000000000000000 ) ) 
 REPRESENTATION_ITEM ( '' )  );
#951 = VERTEX_POINT ( 'NONE', #680 ) ;
#952 = FACE_OUTER_BOUND ( 'NONE', #345, .T. ) ;
#953 = DIRECTION ( 'NONE',  ( -1.000000000000000000, 0.000000000000000000, 0.000000000000000000 ) ) ;
#954 = ORIENTED_EDGE ( 'NONE', *, *, #804, .T. ) ;
#955 = ADVANCED_FACE ( 'NONE', ( #1008 ), #599, .F. ) ;
#956 = DIRECTION ( 'NONE',  ( 0.000000000000000000, 0.000000000000000000, 1.000000000000000000 ) ) ;
#957 = AXIS2_PLACEMENT_3D ( 'NONE', #1063, #984, #582 ) ;
#958 = ORIENTED_EDGE ( 'NONE', *, *, #920, .F. ) ;
#959 = CARTESIAN_POINT ( 'NONE',  ( 5.000000000000005329, -50.14289031656715423, 7.000000000000000000 ) ) ;
#960 = DIRECTION ( 'NONE',  ( 0.000000000000000000, 0.000000000000000000, 1.000000000000000000 ) ) ;
#961 = CARTESIAN_POINT ( 'NONE',  ( -4.249999999999990230, -42.64289031656714002, 0.000000000000000000 ) ) ;
#962 = EDGE_CURVE ( 'NONE', #283, #534, #416, .T. ) ;
#963 = EDGE_LOOP ( 'NONE', ( #315, #463, #698, #427 ) ) ;
#964 = VECTOR ( 'NONE', #332, 1000.000000000000000 ) ;
#965 = DIRECTION ( 'NONE',  ( -0.000000000000000000, -0.000000000000000000, -1.000000000000000000 ) ) ;
#966 = FACE_OUTER_BOUND ( 'NONE', #558, .T. ) ;
#967 = CARTESIAN_POINT ( 'NONE',  ( 48.49999999999995026, -33.14289031656714712, 0.000000000000000000 ) ) ;
#968 = VERTEX_POINT ( 'NONE', #602 ) ;
#969 = DIRECTION ( 'NONE',  ( 0.000000000000000000, 0.000000000000000000, -1.000000000000000000 ) ) ;
#970 = CARTESIAN_POINT ( 'NONE',  ( -11.50000000000000533, 1.622776601683803666, 0.000000000000000000 ) ) ;
#971 = CARTESIAN_POINT ( 'NONE',  ( -4.999999999999994671, -54.89289031656714712, 0.000000000000000000 ) ) ;
#972 = AXIS2_PLACEMENT_3D ( 'NONE', #824, #417, #9 ) ;
#973 = ORIENTED_EDGE ( 'NONE', *, *, #462, .T. ) ;
#974 = CARTESIAN_POINT ( 'NONE',  ( -32.87500000000013500, -50.14289031656714712, 7.000000000000000000 ) ) ;
#975 = CARTESIAN_POINT ( 'NONE',  ( -3.499999999999997780, -36.84152883506278187, 6.875440510832782515 ) ) ;
#976 = EDGE_CURVE ( 'NONE', #980, #15, #448, .T. ) ;
#977 = PLANE ( 'NONE',  #842 ) ;
#978 = FACE_OUTER_BOUND ( 'NONE', #418, .T. ) ;
#979 = AXIS2_PLACEMENT_3D ( 'NONE', #917, #172, #589 ) ;
#980 = VERTEX_POINT ( 'NONE', #773 ) ;
#981 = CARTESIAN_POINT ( 'NONE',  ( 4.999999999999997335, -54.89289031656714712, -2.449293598294708880E-16 ) ) ;
#982 = CARTESIAN_POINT ( 'NONE',  ( 5.499999999999998224, -55.39289031656714712, -2.449293598294708880E-16 ) ) ;
#983 = VECTOR ( 'NONE', #636, 1000.000000000000000 ) ;
#984 = DIRECTION ( 'NONE',  ( 0.000000000000000000, 0.000000000000000000, 1.000000000000000000 ) ) ;
#985 = AXIS2_PLACEMENT_3D ( 'NONE', #514, #844, #272 ) ;
#986 = FACE_OUTER_BOUND ( 'NONE', #1054, .T. ) ;
#987 = DIRECTION ( 'NONE',  ( -1.000000000000000000, 0.000000000000000000, 0.000000000000000000 ) ) ;
#988 = ORIENTED_EDGE ( 'NONE', *, *, #117, .F. ) ;
#989 = DIRECTION ( 'NONE',  ( -1.000000000000000000, 0.000000000000000000, 0.000000000000000000 ) ) ;
#990 = LINE ( 'NONE', #398, #519 ) ;
#991 = VECTOR ( 'NONE', #721, 1000.000000000000000 ) ;
#992 = DIRECTION ( 'NONE',  ( 0.000000000000000000, 1.000000000000000000, 0.000000000000000000 ) ) ;
#993 = EDGE_CURVE ( 'NONE', #542, #252, #522, .T. ) ;
#994 = FILL_AREA_STYLE ('',( #667 ) ) ;
#995 = CARTESIAN_POINT ( 'NONE',  ( -5.499999999999998224, -55.39289031656714712, -2.449293598294708880E-16 ) ) ;
#996 = DIRECTION ( 'NONE',  ( -1.000000000000000000, 0.000000000000000000, -0.000000000000000000 ) ) ;
#997 = AXIS2_PLACEMENT_3D ( 'NONE', #486, #384, #723 ) ;
#998 = ORIENTED_EDGE ( 'NONE', *, *, #568, .F. ) ;
#999 = DIRECTION ( 'NONE',  ( -0.000000000000000000, -0.000000000000000000, -1.000000000000000000 ) ) ;
#1000 = EDGE_CURVE ( 'NONE', #948, #799, #465, .T. ) ;
#1001 = DIRECTION ( 'NONE',  ( 0.000000000000000000, 0.000000000000000000, 1.000000000000000000 ) ) ;
#1002 = ORIENTED_EDGE ( 'NONE', *, *, #44, .T. ) ;
#1003 = DIRECTION ( 'NONE',  ( -0.000000000000000000, -0.000000000000000000, -1.000000000000000000 ) ) ;
#1004 = VERTEX_POINT ( 'NONE', #551 ) ;
#1005 = ORIENTED_EDGE ( 'NONE', *, *, #767, .F. ) ;
#1006 = EDGE_CURVE ( 'NONE', #564, #839, #658, .T. ) ;
#1007 = DIRECTION ( 'NONE',  ( 0.000000000000000000, 0.000000000000000000, 1.000000000000000000 ) ) ;
#1008 = FACE_OUTER_BOUND ( 'NONE', #161, .T. ) ;
#1009 = ORIENTED_EDGE ( 'NONE', *, *, #875, .T. ) ;
#1010 = DIRECTION ( 'NONE',  ( -0.000000000000000000, -0.000000000000000000, -1.000000000000000000 ) ) ;
#1011 = ADVANCED_FACE ( 'NONE', ( #880 ), #627, .T. ) ;
#1012 = DIRECTION ( 'NONE',  ( -1.000000000000000000, 0.000000000000000000, 0.000000000000000000 ) ) ;
#1013 = ORIENTED_EDGE ( 'NONE', *, *, #915, .T. ) ;
#1014 = AXIS2_PLACEMENT_3D ( 'NONE', #303, #392, #471 ) ;
#1015 = CARTESIAN_POINT ( 'NONE',  ( -5.499999999999998224, -54.89289031656714712, 2.500000000000000444 ) ) ;
#1016 = CARTESIAN_POINT ( 'NONE',  ( 3.499999999999996003, -33.14289031656714712, 7.000000000000000000 ) ) ;
#1017 = ORIENTED_EDGE ( 'NONE', *, *, #367, .F. ) ;
#1018 = VECTOR ( 'NONE', #482, 1000.000000000000000 ) ;
#1019 = DIRECTION ( 'NONE',  ( -1.000000000000000000, -4.336808689942020201E-17, -0.000000000000000000 ) ) ;
#1020 = CARTESIAN_POINT ( 'NONE',  ( -3.500000000000001332, -34.03776814162318232, -13.00000000000000178 ) ) ;
#1021 = EDGE_LOOP ( 'NONE', ( #903, #760, #505, #209, #634 ) ) ;
#1022 = VECTOR ( 'NONE', #749, 1000.000000000000000 ) ;
#1023 = ADVANCED_FACE ( 'NONE', ( #1038 ), #40, .F. ) ;
#1024 = ORIENTED_EDGE ( 'NONE', *, *, #535, .T. ) ;
#1025 = VECTOR ( 'NONE', #567, 1000.000000000000000 ) ;
#1026 = DIRECTION ( 'NONE',  ( 3.469446951953611033E-15, -1.000000000000000000, 0.000000000000000000 ) ) ;
#1027 = ORIENTED_EDGE ( 'NONE', *, *, #540, .T. ) ;
#1028 = VECTOR ( 'NONE', #46, 1000.000000000000000 ) ;
#1029 = CIRCLE ( 'NONE', #1048, 20.00000000000000000 ) ;
#1030 = ADVANCED_FACE ( 'NONE', ( #210 ), #141, .T. ) ;
#1031 = ORIENTED_EDGE ( 'NONE', *, *, #304, .F. ) ;
#1032 = AXIS2_PLACEMENT_3D ( 'NONE', #353, #934, #361 ) ;
#1033 = VERTEX_POINT ( 'NONE', #133 ) ;
#1034 = LINE ( 'NONE', #473, #11 ) ;
#1035 = AXIS2_PLACEMENT_3D ( 'NONE', #1016, #532, #1026 ) ;
#1036 = ORIENTED_EDGE ( 'NONE', *, *, #242, .T. ) ;
#1037 = LINE ( 'NONE', #890, #1028 ) ;
#1038 = FACE_OUTER_BOUND ( 'NONE', #850, .T. ) ;
#1039 = EDGE_CURVE ( 'NONE', #454, #980, #356, .T. ) ;
#1040 = ORIENTED_EDGE ( 'NONE', *, *, #81, .F. ) ;
#1041 = DIRECTION ( 'NONE',  ( 0.000000000000000000, 0.3032036572769470917, -0.9529257800132618916 ) ) ;
#1042 = AXIS2_PLACEMENT_3D ( 'NONE', #484, #1058, #142 ) ;
#1043 = ORIENTED_EDGE ( 'NONE', *, *, #317, .T. ) ;
#1044 = DIRECTION ( 'NONE',  ( -0.000000000000000000, 1.000000000000000000, -0.000000000000000000 ) ) ;
#1045 = ORIENTED_EDGE ( 'NONE', *, *, #586, .F. ) ;
#1046 = ADVANCED_FACE ( 'NONE', ( #713 ), #378, .F. ) ;
#1047 = CARTESIAN_POINT ( 'NONE',  ( -5.499999999999998224, -54.89289031656714712, 2.500000000000000444 ) ) ;
#1048 = AXIS2_PLACEMENT_3D ( 'NONE', #787, #54, #969 ) ;
#1049 = ORIENTED_EDGE ( 'NONE', *, *, #943, .F. ) ;
#1050 = DIRECTION ( 'NONE',  ( -1.000000000000000000, 0.000000000000000000, 0.000000000000000000 ) ) ;
#1051 = DIRECTION ( 'NONE',  ( 1.000000000000000000, 0.000000000000000000, 0.000000000000000000 ) ) ;
#1052 = ORIENTED_EDGE ( 'NONE', *, *, #962, .T. ) ;
#1053 = CARTESIAN_POINT ( 'NONE',  ( -11.50000000000000533, 1.622776601683803666, 7.000000000000000000 ) ) ;
#1054 = EDGE_LOOP ( 'NONE', ( #307, #940, #291, #104 ) ) ;
#1055 = CARTESIAN_POINT ( 'NONE',  ( -5.499999999999998224, -54.89289031656714712, -2.449293598294708880E-16 ) ) ;
#1056 = CARTESIAN_POINT ( 'NONE',  ( 3.500000000000003109, -35.14289031656714712, 6.969444283165395326 ) ) ;
#1057 = ORIENTED_EDGE ( 'NONE', *, *, #840, .F. ) ;
#1058 = DIRECTION ( 'NONE',  ( 0.000000000000000000, 0.000000000000000000, 1.000000000000000000 ) ) ;
#1059 = ADVANCED_FACE ( 'NONE', ( #538 ), #216, .F. ) ;
#1060 = ORIENTED_EDGE ( 'NONE', *, *, #200, .F. ) ;
#1061 = LINE ( 'NONE', #144, #560 ) ;
#1062 = CARTESIAN_POINT ( 'NONE',  ( -11.68181818181817633, -7.269709460644047105, 7.000000000000000000 ) ) ;
#1063 = CARTESIAN_POINT ( 'NONE',  ( 0.000000000000000000, 0.000000000000000000, 0.000000000000000000 ) ) ;
#1064 = CARTESIAN_POINT ( 'NONE',  ( 13.49999999999999467, -0.3772233983161950022, 7.000000000000000000 ) ) ;
#1065 = MECHANICAL_DESIGN_GEOMETRIC_PRESENTATION_REPRESENTATION (  '', ( #320 ), #924 ) ;
#1066 = ORIENTED_EDGE ( 'NONE', *, *, #231, .F. ) ;
#1067 = EDGE_CURVE ( 'NONE', #52, #30, #699, .T. ) ;
#1068 = LINE ( 'NONE', #85, #696 ) ;
#1069 = LINE ( 'NONE', #879, #224 ) ;
#1070 = APPLICATION_PROTOCOL_DEFINITION ( 'draft international standard', 'automotive_design', 1998, #165 ) ;
#1071 =( BOUNDED_CURVE ( )  B_SPLINE_CURVE ( 3, ( #227, #476, #331, #829 ),
 .UNSPECIFIED., .F., .F. ) 
 B_SPLINE_CURVE_WITH_KNOTS ( ( 4, 4 ),
 ( 4.843695370778426934, 4.911726285367013389 ),
 .UNSPECIFIED. ) 
 CURVE ( )  GEOMETRIC_REPRESENTATION_ITEM ( )  RATIONAL_B_SPLINE_CURVE ( ( 1.000000000000000000, 0.9996143534082465587, 0.9996143534082465587, 1.000000000000000000 ) ) 
 REPRESENTATION_ITEM ( '' )  );
#1072 = DIRECTION ( 'NONE',  ( -1.000000000000000000, 0.000000000000000000, 0.000000000000000000 ) ) ;
#1073 = CARTESIAN_POINT ( 'NONE',  ( -3.500000000000003109, -33.14289031656714002, 7.000000000000000000 ) ) ;
ENDSEC;
END-ISO-10303-21;
