ISO-10303-21;
HEADER;
FILE_DESCRIPTION (( 'STEP AP214' ),
    '1' );
FILE_NAME ('Tensile Gripper 7x7mm.STEP',
    '2026-06-09T07:30:11',
    ( '' ),
    ( '' ),
    'SwSTEP 2.0',
    'SolidWorks 2025',
    '' );
FILE_SCHEMA (( 'AUTOMOTIVE_DESIGN' ));
ENDSEC;

DATA;
#1 = AXIS2_PLACEMENT_3D ( 'NONE', #817, #92, #624 ) ;
#2 = VERTEX_POINT ( 'NONE', #760 ) ;
#3 = DIRECTION ( 'NONE',  ( 0.000000000000000000, -0.000000000000000000, -1.000000000000000000 ) ) ;
#4 = CYLINDRICAL_SURFACE ( 'NONE', #443, 45.00000000000000000 ) ;
#5 = VERTEX_POINT ( 'NONE', #291 ) ;
#6 = PLANE ( 'NONE',  #822 ) ;
#7 = LINE ( 'NONE', #545, #429 ) ;
#8 = ADVANCED_FACE ( 'NONE', ( #76 ), #19, .F. ) ;
#9 = DIRECTION ( 'NONE',  ( 1.000000000000000000, 1.486905836551548832E-16, -0.000000000000000000 ) ) ;
#10 = ORIENTED_EDGE ( 'NONE', *, *, #553, .F. ) ;
#11 = CARTESIAN_POINT ( 'NONE',  ( 13.59999999999999964, -1.377223398316196334, 9.000000000000001776 ) ) ;
#12 = PLANE ( 'NONE',  #526 ) ;
#13 = VECTOR ( 'NONE', #46, 1000.000000000000000 ) ;
#14 = ORIENTED_EDGE ( 'NONE', *, *, #308, .T. ) ;
#15 = PRESENTATION_LAYER_ASSIGNMENT (  '', '', ( #274 ) ) ;
#16 = ORIENTED_EDGE ( 'NONE', *, *, #383, .F. ) ;
#17 = CARTESIAN_POINT ( 'NONE',  ( -13.59999999999999964, 3.622776601683804554, 9.000000000000001776 ) ) ;
#18 = DIRECTION ( 'NONE',  ( 1.000000000000000000, 0.000000000000000000, 0.000000000000000000 ) ) ;
#19 = PLANE ( 'NONE',  #835 ) ;
#20 =( LENGTH_UNIT ( ) NAMED_UNIT ( * ) SI_UNIT ( .MILLI., .METRE. ) );
#21 = EDGE_CURVE ( 'NONE', #271, #730, #825, .T. ) ;
#22 = SURFACE_STYLE_FILL_AREA ( #738 ) ;
#23 = DIRECTION ( 'NONE',  ( 0.000000000000000000, 0.000000000000000000, 1.000000000000000000 ) ) ;
#24 = VERTEX_POINT ( 'NONE', #492 ) ;
#25 = CARTESIAN_POINT ( 'NONE',  ( 8.712658649641733533, -29.99999999999999645, -41.73937840852242687 ) ) ;
#26 = PRODUCT_DEFINITION ( 'UNKNOWN', '', #343, #204 ) ;
#27 = CARTESIAN_POINT ( 'NONE',  ( 10.49999999999999467, 25.00000000000000711, 25.00000000000000000 ) ) ;
#28 = DIRECTION ( 'NONE',  ( 0.000000000000000000, 0.000000000000000000, 1.000000000000000000 ) ) ;
#29 = CLOSED_SHELL ( 'NONE', ( #758, #650, #708, #8, #621, #60, #292, #419, #430, #230, #832, #84, #91, #36, #101, #633, #474, #690, #205, #455, #461, #169, #450, #237, #74, #848, #524 ) ) ;
#30 = ORIENTED_EDGE ( 'NONE', *, *, #266, .F. ) ;
#31 = VECTOR ( 'NONE', #348, 1000.000000000000000 ) ;
#32 = VECTOR ( 'NONE', #824, 1000.000000000000000 ) ;
#33 = CARTESIAN_POINT ( 'NONE',  ( -20.50000000000000355, 35.00000000000000711, 0.000000000000000000 ) ) ;
#34 = DIRECTION ( 'NONE',  ( -0.000000000000000000, 1.000000000000000000, -0.000000000000000000 ) ) ;
#35 = DIRECTION ( 'NONE',  ( 1.000000000000000000, 0.000000000000000000, -0.000000000000000000 ) ) ;
#36 = ADVANCED_FACE ( 'NONE', ( #425 ), #161, .F. ) ;
#37 = ORIENTED_EDGE ( 'NONE', *, *, #400, .T. ) ;
#38 = DIRECTION ( 'NONE',  ( 0.000000000000000000, -0.000000000000000000, 1.000000000000000000 ) ) ;
#39 = EDGE_CURVE ( 'NONE', #764, #165, #679, .T. ) ;
#40 = ORIENTED_EDGE ( 'NONE', *, *, #513, .F. ) ;
#41 = AXIS2_PLACEMENT_3D ( 'NONE', #552, #264, #75 ) ;
#42 = CIRCLE ( 'NONE', #41, 5.000000000000000000 ) ;
#43 = CARTESIAN_POINT ( 'NONE',  ( -8.712658649641733533, -29.99999999999999645, 25.00000000000000000 ) ) ;
#44 = CIRCLE ( 'NONE', #630, 5.000000000000000888 ) ;
#45 = DIRECTION ( 'NONE',  ( -4.956352788505162775E-17, 1.000000000000000000, -0.000000000000000000 ) ) ;
#46 = DIRECTION ( 'NONE',  ( -0.000000000000000000, -0.000000000000000000, 1.000000000000000000 ) ) ;
#47 = ORIENTED_EDGE ( 'NONE', *, *, #400, .F. ) ;
#48 = LINE ( 'NONE', #593, #456 ) ;
#49 = CARTESIAN_POINT ( 'NONE',  ( 3.599999999999999201, -1.377223398316196334, 25.00000000000000000 ) ) ;
#50 = APPLICATION_CONTEXT ( 'automotive_design' ) ;
#51 = VERTEX_POINT ( 'NONE', #697 ) ;
#52 = DIRECTION ( 'NONE',  ( 0.000000000000000000, 0.000000000000000000, 1.000000000000000000 ) ) ;
#53 = CIRCLE ( 'NONE', #113, 44.99999999999999289 ) ;
#54 = CIRCLE ( 'NONE', #244, 5.000000000000000888 ) ;
#55 = LINE ( 'NONE', #481, #173 ) ;
#56 = AXIS2_PLACEMENT_3D ( 'NONE', #534, #68, #617 ) ;
#57 = ORIENTED_EDGE ( 'NONE', *, *, #181, .F. ) ;
#58 = CARTESIAN_POINT ( 'NONE',  ( -6.019492300440888739E-15, 10.62277660168381388, 12.49999999999999822 ) ) ;
#59 = FACE_OUTER_BOUND ( 'NONE', #327, .T. ) ;
#60 = ADVANCED_FACE ( 'NONE', ( #150 ), #206, .F. ) ;
#61 = EDGE_LOOP ( 'NONE', ( #627, #155 ) ) ;
#62 = ORIENTED_EDGE ( 'NONE', *, *, #727, .T. ) ;
#63 = DIRECTION ( 'NONE',  ( 0.000000000000000000, 0.000000000000000000, -1.000000000000000000 ) ) ;
#64 = DIRECTION ( 'NONE',  ( -0.000000000000000000, 0.000000000000000000, 1.000000000000000000 ) ) ;
#65 = ORIENTED_EDGE ( 'NONE', *, *, #250, .T. ) ;
#66 = ORIENTED_EDGE ( 'NONE', *, *, #586, .F. ) ;
#67 = DIRECTION ( 'NONE',  ( -0.000000000000000000, 0.000000000000000000, -1.000000000000000000 ) ) ;
#68 = DIRECTION ( 'NONE',  ( -0.000000000000000000, -0.000000000000000000, -1.000000000000000000 ) ) ;
#69 = AXIS2_PLACEMENT_3D ( 'NONE', #380, #248, #449 ) ;
#70 = AXIS2_PLACEMENT_3D ( 'NONE', #287, #685, #757 ) ;
#71 = CARTESIAN_POINT ( 'NONE',  ( 8.712658649641733533, -34.99999999999999289, 25.00000000000000000 ) ) ;
#72 = VERTEX_POINT ( 'NONE', #277 ) ;
#73 = CYLINDRICAL_SURFACE ( 'NONE', #444, 44.99999999999999289 ) ;
#74 = ADVANCED_FACE ( 'NONE', ( #350 ), #550, .F. ) ;
#75 = DIRECTION ( 'NONE',  ( 1.000000000000000000, 0.000000000000000000, 0.000000000000000000 ) ) ;
#76 = FACE_OUTER_BOUND ( 'NONE', #871, .T. ) ;
#77 = VERTEX_POINT ( 'NONE', #354 ) ;
#78 = CARTESIAN_POINT ( 'NONE',  ( 48.59999999999999432, -32.99999999999999289, 25.00000000000000000 ) ) ;
#79 = ADVANCED_BREP_SHAPE_REPRESENTATION ( 'Tensile Gripper 7x7mm', ( #338, #442 ), #231 ) ;
#80 = ORIENTED_EDGE ( 'NONE', *, *, #331, .F. ) ;
#81 = VERTEX_POINT ( 'NONE', #286 ) ;
#82 = CARTESIAN_POINT ( 'NONE',  ( 10.49999999999999467, 35.00000000000000711, 25.00000000000000000 ) ) ;
#83 = CARTESIAN_POINT ( 'NONE',  ( -10.50000000000000178, 35.00000000000000711, 25.00000000000000000 ) ) ;
#84 = ADVANCED_FACE ( 'NONE', ( #820 ), #217, .F. ) ;
#85 = VECTOR ( 'NONE', #394, 1000.000000000000000 ) ;
#86 = DIRECTION ( 'NONE',  ( 1.000000000000000000, 0.000000000000000000, -0.000000000000000000 ) ) ;
#87 = CIRCLE ( 'NONE', #574, 5.000000000000000000 ) ;
#88 = EDGE_LOOP ( 'NONE', ( #668, #648, #30, #521 ) ) ;
#89 = CARTESIAN_POINT ( 'NONE',  ( 3.726740980846951601, -29.62499999999999645, -41.73937840852242687 ) ) ;
#90 = DIRECTION ( 'NONE',  ( -1.486905836551548832E-16, 1.000000000000000000, 0.000000000000000000 ) ) ;
#91 = ADVANCED_FACE ( 'NONE', ( #856 ), #391, .F. ) ;
#92 = DIRECTION ( 'NONE',  ( -0.000000000000000000, -0.000000000000000000, -1.000000000000000000 ) ) ;
#93 = CARTESIAN_POINT ( 'NONE',  ( 13.59999999999999964, 2.722776601683805087, 25.00000000000000000 ) ) ;
#94 = FACE_OUTER_BOUND ( 'NONE', #691, .T. ) ;
#95 = DIRECTION ( 'NONE',  ( -1.000000000000000000, 0.000000000000000000, 0.000000000000000000 ) ) ;
#96 = CARTESIAN_POINT ( 'NONE',  ( -6.019492300440888739E-15, 10.62277660168381388, 12.49999999999999822 ) ) ;
#97 = DIRECTION ( 'NONE',  ( 0.000000000000000000, 0.000000000000000000, 1.000000000000000000 ) ) ;
#98 = CIRCLE ( 'NONE', #185, 0.8999999999999998002 ) ;
#99 = AXIS2_PLACEMENT_3D ( 'NONE', #434, #163, #700 ) ;
#100 = DIRECTION ( 'NONE',  ( 0.000000000000000000, 0.000000000000000000, 1.000000000000000000 ) ) ;
#101 = ADVANCED_FACE ( 'NONE', ( #778 ), #662, .F. ) ;
#102 = ORIENTED_EDGE ( 'NONE', *, *, #260, .F. ) ;
#103 = APPLICATION_PROTOCOL_DEFINITION ( 'draft international standard', 'automotive_design', 1998, #50 ) ;
#104 = LINE ( 'NONE', #784, #502 ) ;
#105 = EDGE_CURVE ( 'NONE', #201, #401, #733, .T. ) ;
#106 = ORIENTED_EDGE ( 'NONE', *, *, #316, .F. ) ;
#107 = DIRECTION ( 'NONE',  ( 0.000000000000000000, -0.000000000000000000, 1.000000000000000000 ) ) ;
#108 = CIRCLE ( 'NONE', #70, 6.999999999999987566 ) ;
#109 = ORIENTED_EDGE ( 'NONE', *, *, #810, .T. ) ;
#110 = AXIS2_PLACEMENT_3D ( 'NONE', #49, #861, #725 ) ;
#111 = AXIS2_PLACEMENT_3D ( 'NONE', #311, #116, #258 ) ;
#112 = CYLINDRICAL_SURFACE ( 'NONE', #247, 10.00000000000000178 ) ;
#113 = AXIS2_PLACEMENT_3D ( 'NONE', #78, #212, #372 ) ;
#114 = DIRECTION ( 'NONE',  ( 1.049727191138618079E-16, 0.5150380749100549327, -0.8571673007021118895 ) ) ;
#115 = ORIENTED_EDGE ( 'NONE', *, *, #671, .T. ) ;
#116 = DIRECTION ( 'NONE',  ( 0.000000000000000000, 0.000000000000000000, 1.000000000000000000 ) ) ;
#117 = DIRECTION ( 'NONE',  ( -1.000000000000000000, 0.000000000000000000, 0.000000000000000000 ) ) ;
#118 = ORIENTED_EDGE ( 'NONE', *, *, #181, .T. ) ;
#119 = ORIENTED_EDGE ( 'NONE', *, *, #127, .F. ) ;
#120 = FACE_OUTER_BOUND ( 'NONE', #667, .T. ) ;
#121 = CYLINDRICAL_SURFACE ( 'NONE', #596, 10.00000000000000000 ) ;
#122 = ORIENTED_EDGE ( 'NONE', *, *, #358, .T. ) ;
#123 = ORIENTED_EDGE ( 'NONE', *, *, #763, .T. ) ;
#124 = CARTESIAN_POINT ( 'NONE',  ( -20.50000000000000355, 35.00000000000000711, 25.00000000000000000 ) ) ;
#125 = CIRCLE ( 'NONE', #303, 0.8999999999999998002 ) ;
#126 = FACE_OUTER_BOUND ( 'NONE', #482, .T. ) ;
#127 = EDGE_CURVE ( 'NONE', #135, #134, #721, .T. ) ;
#128 = VECTOR ( 'NONE', #420, 1000.000000000000000 ) ;
#129 = ORIENTED_EDGE ( 'NONE', *, *, #266, .T. ) ;
#130 = ORIENTED_EDGE ( 'NONE', *, *, #863, .F. ) ;
#131 = LINE ( 'NONE', #198, #643 ) ;
#132 = CARTESIAN_POINT ( 'NONE',  ( 8.712658649641733533, -29.99999999999999645, 9.000000000000001776 ) ) ;
#133 = EDGE_CURVE ( 'NONE', #681, #306, #346, .T. ) ;
#134 = VERTEX_POINT ( 'NONE', #374 ) ;
#135 = VERTEX_POINT ( 'NONE', #594 ) ;
#136 = CARTESIAN_POINT ( 'NONE',  ( 12.69999999999999751, 2.722776601683805087, 25.00000000000000000 ) ) ;
#137 = CARTESIAN_POINT ( 'NONE',  ( -12.69999999999999929, 2.722776601683805087, 9.000000000000001776 ) ) ;
#138 = VERTEX_POINT ( 'NONE', #647 ) ;
#139 = EDGE_CURVE ( 'NONE', #77, #134, #796, .T. ) ;
#140 = FACE_OUTER_BOUND ( 'NONE', #426, .T. ) ;
#141 = LINE ( 'NONE', #549, #347 ) ;
#142 = CIRCLE ( 'NONE', #515, 10.00000000000000000 ) ;
#143 = CIRCLE ( 'NONE', #646, 45.00000000000000000 ) ;
#144 = AXIS2_PLACEMENT_3D ( 'NONE', #58, #808, #334 ) ;
#145 = CARTESIAN_POINT ( 'NONE',  ( -12.69999999999999929, 2.722776601683805087, -41.73937840852242687 ) ) ;
#146 = EDGE_CURVE ( 'NONE', #787, #752, #387, .T. ) ;
#147 = ORIENTED_EDGE ( 'NONE', *, *, #503, .F. ) ;
#148 = CARTESIAN_POINT ( 'NONE',  ( -5.162239541037742702E-15, 35.00000000000000711, 5.500000000000007994 ) ) ;
#149 = SURFACE_STYLE_USAGE ( .BOTH. , #631 ) ;
#150 = FACE_OUTER_BOUND ( 'NONE', #493, .T. ) ;
#151 = VERTEX_POINT ( 'NONE', #240 ) ;
#152 = DIRECTION ( 'NONE',  ( 1.000000000000000000, 0.000000000000000000, 0.000000000000000000 ) ) ;
#153 = DIRECTION ( 'NONE',  ( 1.000000000000000000, 0.000000000000000000, 0.000000000000000000 ) ) ;
#154 = ORIENTED_EDGE ( 'NONE', *, *, #224, .T. ) ;
#155 = ORIENTED_EDGE ( 'NONE', *, *, #763, .F. ) ;
#156 = FACE_OUTER_BOUND ( 'NONE', #88, .T. ) ;
#157 = DIRECTION ( 'NONE',  ( 1.000000000000000000, 0.000000000000000000, 0.000000000000000000 ) ) ;
#158 = EDGE_CURVE ( 'NONE', #618, #242, #142, .T. ) ;
#159 = AXIS2_PLACEMENT_3D ( 'NONE', #145, #416, #684 ) ;
#160 = AXIS2_PLACEMENT_3D ( 'NONE', #200, #307, #239 ) ;
#161 = PLANE ( 'NONE',  #255 ) ;
#162 = ORIENTED_EDGE ( 'NONE', *, *, #704, .T. ) ;
#163 = DIRECTION ( 'NONE',  ( -0.000000000000000000, 0.000000000000000000, -1.000000000000000000 ) ) ;
#164 = DIRECTION ( 'NONE',  ( -0.000000000000000000, 1.000000000000000000, -0.000000000000000000 ) ) ;
#165 = VERTEX_POINT ( 'NONE', #511 ) ;
#166 = DIRECTION ( 'NONE',  ( -0.000000000000000000, 0.000000000000000000, 1.000000000000000000 ) ) ;
#167 = CARTESIAN_POINT ( 'NONE',  ( -20.49999999999999289, -24.99999999999999289, 25.00000000000000000 ) ) ;
#168 = ORIENTED_EDGE ( 'NONE', *, *, #133, .F. ) ;
#169 = ADVANCED_FACE ( 'NONE', ( #171 ), #121, .T. ) ;
#170 = LINE ( 'NONE', #845, #216 ) ;
#171 = FACE_OUTER_BOUND ( 'NONE', #854, .T. ) ;
#172 = VECTOR ( 'NONE', #433, 1000.000000000000000 ) ;
#173 = VECTOR ( 'NONE', #748, 1000.000000000000000 ) ;
#174 = EDGE_LOOP ( 'NONE', ( #102, #10, #498, #66 ) ) ;
#175 = AXIS2_PLACEMENT_3D ( 'NONE', #27, #573, #323 ) ;
#176 = EDGE_CURVE ( 'NONE', #77, #135, #304, .T. ) ;
#177 = CARTESIAN_POINT ( 'NONE',  ( -12.69999999999999929, 3.622776601683804554, 9.000000000000001776 ) ) ;
#178 = ORIENTED_EDGE ( 'NONE', *, *, #194, .F. ) ;
#179 = DIRECTION ( 'NONE',  ( -0.000000000000000000, -0.000000000000000000, -1.000000000000000000 ) ) ;
#180 = PRODUCT ( 'Tensile Gripper 7x7mm', 'Tensile Gripper 7x7mm', '', ( #579 ) ) ;
#181 = EDGE_CURVE ( 'NONE', #151, #359, #833, .T. ) ;
#182 = EDGE_LOOP ( 'NONE', ( #776, #62, #417, #261 ) ) ;
#183 = CARTESIAN_POINT ( 'NONE',  ( -13.59999999999999964, 2.722776601683805087, 25.00000000000000000 ) ) ;
#184 = EDGE_CURVE ( 'NONE', #604, #660, #771, .T. ) ;
#185 = AXIS2_PLACEMENT_3D ( 'NONE', #742, #799, #663 ) ;
#186 = AXIS2_PLACEMENT_3D ( 'NONE', #674, #209, #340 ) ;
#187 = CIRCLE ( 'NONE', #722, 5.000000000000000000 ) ;
#188 = CARTESIAN_POINT ( 'NONE',  ( 0.000000000000000000, 0.000000000000000000, 9.000000000000001776 ) ) ;
#189 = CARTESIAN_POINT ( 'NONE',  ( -6.019492300440888739E-15, 35.00000000000000711, 12.49999999999999822 ) ) ;
#190 = ORIENTED_EDGE ( 'NONE', *, *, #696, .F. ) ;
#191 = ORIENTED_EDGE ( 'NONE', *, *, #176, .T. ) ;
#192 = DIRECTION ( 'NONE',  ( -0.000000000000000000, 1.000000000000000000, -0.000000000000000000 ) ) ;
#193 = DIRECTION ( 'NONE',  ( 0.000000000000000000, 0.5150380749100549327, 0.8571673007021118895 ) ) ;
#194 = EDGE_CURVE ( 'NONE', #532, #864, #470, .T. ) ;
#195 = LINE ( 'NONE', #412, #457 ) ;
#196 = CARTESIAN_POINT ( 'NONE',  ( -11.78181818181818485, -7.126819144076895540, 25.00000000000000000 ) ) ;
#197 = VERTEX_POINT ( 'NONE', #167 ) ;
#198 = CARTESIAN_POINT ( 'NONE',  ( -3.726740980846951601, -29.62499999999999645, -41.73937840852242687 ) ) ;
#199 = EDGE_CURVE ( 'NONE', #72, #407, #709, .T. ) ;
#200 = CARTESIAN_POINT ( 'NONE',  ( -10.50000000000000178, 25.00000000000000711, 0.000000000000000000 ) ) ;
#201 = VERTEX_POINT ( 'NONE', #590 ) ;
#202 = CARTESIAN_POINT ( 'NONE',  ( -10.49999999999999467, -34.99999999999999289, 25.00000000000000000 ) ) ;
#203 = CARTESIAN_POINT ( 'NONE',  ( -6.019492300440888739E-15, 35.00000000000000711, 19.49999999999998934 ) ) ;
#204 = PRODUCT_DEFINITION_CONTEXT ( 'detailed design', #478, 'design' ) ;
#205 = ADVANCED_FACE ( 'NONE', ( #94 ), #840, .F. ) ;
#206 = PLANE ( 'NONE',  #290 ) ;
#207 = ORIENTED_EDGE ( 'NONE', *, *, #488, .F. ) ;
#208 = DIRECTION ( 'NONE',  ( 1.000000000000000000, 0.000000000000000000, 0.000000000000000000 ) ) ;
#209 = DIRECTION ( 'NONE',  ( -0.000000000000000000, 0.000000000000000000, -1.000000000000000000 ) ) ;
#210 = ORIENTED_EDGE ( 'NONE', *, *, #383, .T. ) ;
#211 = ORIENTED_EDGE ( 'NONE', *, *, #645, .F. ) ;
#212 = DIRECTION ( 'NONE',  ( -0.000000000000000000, -0.000000000000000000, -1.000000000000000000 ) ) ;
#213 = CONICAL_SURFACE ( 'NONE', #768, 6.999999999999993783, 1.029744258676653645 ) ;
#214 = DIRECTION ( 'NONE',  ( 1.000000000000000000, 0.000000000000000000, 0.000000000000000000 ) ) ;
#215 = VECTOR ( 'NONE', #701, 1000.000000000000000 ) ;
#216 = VECTOR ( 'NONE', #514, 1000.000000000000000 ) ;
#217 = PLANE ( 'NONE',  #382 ) ;
#218 = VERTEX_POINT ( 'NONE', #459 ) ;
#219 = LINE ( 'NONE', #703, #528 ) ;
#220 =( LENGTH_UNIT ( ) NAMED_UNIT ( * ) SI_UNIT ( .MILLI., .METRE. ) );
#221 = ORIENTED_EDGE ( 'NONE', *, *, #241, .F. ) ;
#222 = ORIENTED_EDGE ( 'NONE', *, *, #308, .F. ) ;
#223 = LINE ( 'NONE', #692, #253 ) ;
#224 = EDGE_CURVE ( 'NONE', #851, #51, #353, .T. ) ;
#225 = LINE ( 'NONE', #294, #558 ) ;
#226 = ORIENTED_EDGE ( 'NONE', *, *, #105, .F. ) ;
#227 = ORIENTED_EDGE ( 'NONE', *, *, #577, .F. ) ;
#228 = DIRECTION ( 'NONE',  ( 1.000000000000000000, 0.000000000000000000, 0.000000000000000000 ) ) ;
#229 = FACE_OUTER_BOUND ( 'NONE', #375, .T. ) ;
#230 = ADVANCED_FACE ( 'NONE', ( #468 ), #4, .T. ) ;
#231 =( GEOMETRIC_REPRESENTATION_CONTEXT ( 3 ) GLOBAL_UNCERTAINTY_ASSIGNED_CONTEXT ( ( #341 ) ) GLOBAL_UNIT_ASSIGNED_CONTEXT ( ( #20, #830, #716 ) ) REPRESENTATION_CONTEXT ( 'NONE', 'WORKASPACE' ) );
#232 = VECTOR ( 'NONE', #376, 1000.000000000000000 ) ;
#233 = CARTESIAN_POINT ( 'NONE',  ( -10.50000000000000178, 35.00000000000000711, 25.00000000000000000 ) ) ;
#234 = AXIS2_PLACEMENT_3D ( 'NONE', #551, #284, #570 ) ;
#235 = ORIENTED_EDGE ( 'NONE', *, *, #744, .T. ) ;
#236 = CYLINDRICAL_SURFACE ( 'NONE', #234, 5.000000000000000000 ) ;
#237 = ADVANCED_FACE ( 'NONE', ( #59 ), #601, .F. ) ;
#238 = CARTESIAN_POINT ( 'NONE',  ( 3.599999999999999201, -1.377223398316196334, -41.73937840852242687 ) ) ;
#239 = DIRECTION ( 'NONE',  ( 1.000000000000000000, 0.000000000000000000, 0.000000000000000000 ) ) ;
#240 = CARTESIAN_POINT ( 'NONE',  ( -10.50000000000000178, 35.00000000000000711, 0.000000000000000000 ) ) ;
#241 = EDGE_CURVE ( 'NONE', #462, #660, #125, .T. ) ;
#242 = VERTEX_POINT ( 'NONE', #196 ) ;
#243 = CARTESIAN_POINT ( 'NONE',  ( -13.59999999999999964, 2.722776601683805087, 25.00000000000000000 ) ) ;
#244 = AXIS2_PLACEMENT_3D ( 'NONE', #477, #64, #876 ) ;
#245 = ORIENTED_EDGE ( 'NONE', *, *, #199, .T. ) ;
#246 = DIRECTION ( 'NONE',  ( 1.000000000000000000, 0.000000000000000000, 0.000000000000000000 ) ) ;
#247 = AXIS2_PLACEMENT_3D ( 'NONE', #788, #458, #658 ) ;
#248 = DIRECTION ( 'NONE',  ( -0.000000000000000000, 0.000000000000000000, 1.000000000000000000 ) ) ;
#249 = DIRECTION ( 'NONE',  ( 1.000000000000000000, 0.000000000000000000, 0.000000000000000000 ) ) ;
#250 = EDGE_CURVE ( 'NONE', #134, #72, #335, .T. ) ;
#251 = CARTESIAN_POINT ( 'NONE',  ( -48.59999999999999432, -33.00000000000000000, 25.00000000000000000 ) ) ;
#252 = CARTESIAN_POINT ( 'NONE',  ( -13.59999999999999964, 3.622776601683804554, -41.73937840852242687 ) ) ;
#253 = VECTOR ( 'NONE', #356, 1000.000000000000000 ) ;
#254 = ORIENTED_EDGE ( 'NONE', *, *, #260, .T. ) ;
#255 = AXIS2_PLACEMENT_3D ( 'NONE', #282, #86, #431 ) ;
#256 = ORIENTED_EDGE ( 'NONE', *, *, #281, .F. ) ;
#257 = COLOUR_RGB ( '',0.7921568627450980005, 0.8196078431372548767, 0.9333333333333333481 ) ;
#258 = DIRECTION ( 'NONE',  ( 1.000000000000000000, 0.000000000000000000, 0.000000000000000000 ) ) ;
#259 = DIRECTION ( 'NONE',  ( 0.000000000000000000, 1.000000000000000000, 0.000000000000000000 ) ) ;
#260 = EDGE_CURVE ( 'NONE', #672, #333, #55, .T. ) ;
#261 = ORIENTED_EDGE ( 'NONE', *, *, #797, .T. ) ;
#262 = ORIENTED_EDGE ( 'NONE', *, *, #405, .F. ) ;
#263 = CARTESIAN_POINT ( 'NONE',  ( -13.59999999999999964, 2.722776601683805087, 9.000000000000001776 ) ) ;
#264 = DIRECTION ( 'NONE',  ( -0.000000000000000000, -0.000000000000000000, -1.000000000000000000 ) ) ;
#265 = VERTEX_POINT ( 'NONE', #683 ) ;
#266 = EDGE_CURVE ( 'NONE', #138, #764, #54, .T. ) ;
#267 = DIRECTION ( 'NONE',  ( -0.000000000000000000, 0.000000000000000000, 1.000000000000000000 ) ) ;
#268 = DIRECTION ( 'NONE',  ( -0.000000000000000000, -0.000000000000000000, -1.000000000000000000 ) ) ;
#269 = ORIENTED_EDGE ( 'NONE', *, *, #696, .T. ) ;
#270 = AXIS2_PLACEMENT_3D ( 'NONE', #476, #267, #802 ) ;
#271 = VERTEX_POINT ( 'NONE', #664 ) ;
#272 = CARTESIAN_POINT ( 'NONE',  ( 48.59999999999999432, -32.99999999999999289, -41.73937840852242687 ) ) ;
#273 = VECTOR ( 'NONE', #811, 1000.000000000000000 ) ;
#274 = STYLED_ITEM ( 'NONE', ( #491 ), #338 ) ;
#275 = DIRECTION ( 'NONE',  ( 0.000000000000000000, -0.000000000000000000, -1.000000000000000000 ) ) ;
#276 = CIRCLE ( 'NONE', #665, 10.00000000000000000 ) ;
#277 = CARTESIAN_POINT ( 'NONE',  ( -6.019492300440888739E-15, 35.00000000000000711, 19.49999999999998579 ) ) ;
#278 = ORIENTED_EDGE ( 'NONE', *, *, #609, .F. ) ;
#279 = LINE ( 'NONE', #202, #765 ) ;
#280 = CARTESIAN_POINT ( 'NONE',  ( -20.49999999999999289, -34.99999999999999289, 25.00000000000000000 ) ) ;
#281 = EDGE_CURVE ( 'NONE', #271, #5, #693, .T. ) ;
#282 = CARTESIAN_POINT ( 'NONE',  ( 13.59999999999999964, 3.622776601683804554, -41.73937840852242687 ) ) ;
#283 = ORIENTED_EDGE ( 'NONE', *, *, #133, .T. ) ;
#284 = DIRECTION ( 'NONE',  ( 0.000000000000000000, 0.000000000000000000, 1.000000000000000000 ) ) ;
#285 = CARTESIAN_POINT ( 'NONE',  ( 3.726740980846958262, -29.62499999999999645, 9.000000000000001776 ) ) ;
#286 = CARTESIAN_POINT ( 'NONE',  ( -8.712658649641733533, -35.00000000000000000, 9.000000000000001776 ) ) ;
#287 = CARTESIAN_POINT ( 'NONE',  ( -6.019492300440888739E-15, 35.00000000000000711, 12.49999999999999822 ) ) ;
#288 = VECTOR ( 'NONE', #836, 1000.000000000000000 ) ;
#289 = CARTESIAN_POINT ( 'NONE',  ( 0.000000000000000000, 0.000000000000000000, 25.00000000000000000 ) ) ;
#290 = AXIS2_PLACEMENT_3D ( 'NONE', #632, #9, #90 ) ;
#291 = CARTESIAN_POINT ( 'NONE',  ( -20.49999999999999289, -24.99999999999999289, 0.000000000000000000 ) ) ;
#292 = ADVANCED_FACE ( 'NONE', ( #126 ), #867, .F. ) ;
#293 = CARTESIAN_POINT ( 'NONE',  ( -11.78181818181817775, -7.126819144076890211, 9.000000000000001776 ) ) ;
#294 = CARTESIAN_POINT ( 'NONE',  ( -20.49999999999999289, -34.99999999999999289, 25.00000000000000000 ) ) ;
#295 = ORIENTED_EDGE ( 'NONE', *, *, #872, .T. ) ;
#296 = EDGE_CURVE ( 'NONE', #764, #598, #7, .T. ) ;
#297 = ORIENTED_EDGE ( 'NONE', *, *, #488, .T. ) ;
#298 = DIRECTION ( 'NONE',  ( 0.000000000000000000, -0.000000000000000000, 1.000000000000000000 ) ) ;
#299 = ORIENTED_EDGE ( 'NONE', *, *, #316, .T. ) ;
#300 = CARTESIAN_POINT ( 'NONE',  ( 20.50000000000000000, -24.99999999999999289, 0.000000000000000000 ) ) ;
#301 = CARTESIAN_POINT ( 'NONE',  ( 0.000000000000000000, 0.000000000000000000, 0.000000000000000000 ) ) ;
#302 = EDGE_CURVE ( 'NONE', #672, #81, #42, .T. ) ;
#303 = AXIS2_PLACEMENT_3D ( 'NONE', #137, #754, #732 ) ;
#304 = LINE ( 'NONE', #439, #362 ) ;
#305 = CIRCLE ( 'NONE', #270, 10.00000000000000178 ) ;
#306 = VERTEX_POINT ( 'NONE', #285 ) ;
#307 = DIRECTION ( 'NONE',  ( 0.000000000000000000, -0.000000000000000000, -1.000000000000000000 ) ) ;
#308 = EDGE_CURVE ( 'NONE', #585, #851, #141, .T. ) ;
#309 = DIRECTION ( 'NONE',  ( -1.000000000000000000, 0.000000000000000000, 0.000000000000000000 ) ) ;
#310 = VERTEX_POINT ( 'NONE', #404 ) ;
#311 = CARTESIAN_POINT ( 'NONE',  ( 12.69999999999999751, 2.722776601683805087, 9.000000000000001776 ) ) ;
#312 = ORIENTED_EDGE ( 'NONE', *, *, #652, .F. ) ;
#313 = DIRECTION ( 'NONE',  ( -0.000000000000000000, -0.000000000000000000, 1.000000000000000000 ) ) ;
#314 = AXIS2_PLACEMENT_3D ( 'NONE', #330, #275, #814 ) ;
#315 = EDGE_LOOP ( 'NONE', ( #556, #254, #16, #535 ) ) ;
#316 = EDGE_CURVE ( 'NONE', #851, #730, #680, .T. ) ;
#317 = CIRCLE ( 'NONE', #471, 5.000000000000000000 ) ;
#318 = DIRECTION ( 'NONE',  ( 0.000000000000000000, 0.000000000000000000, 1.000000000000000000 ) ) ;
#319 = CARTESIAN_POINT ( 'NONE',  ( -3.726740980846958262, -29.62499999999999645, 9.000000000000001776 ) ) ;
#320 = CARTESIAN_POINT ( 'NONE',  ( -6.019492300440888739E-15, 35.00000000000000711, 12.49999999999999822 ) ) ;
#321 = VERTEX_POINT ( 'NONE', #409 ) ;
#322 = ORIENTED_EDGE ( 'NONE', *, *, #39, .T. ) ;
#323 = DIRECTION ( 'NONE',  ( -1.000000000000000000, 0.000000000000000000, 0.000000000000000000 ) ) ;
#324 = DIRECTION ( 'NONE',  ( 1.000000000000000000, 0.000000000000000000, 0.000000000000000000 ) ) ;
#325 = EDGE_CURVE ( 'NONE', #51, #772, #486, .T. ) ;
#326 = AXIS2_PLACEMENT_3D ( 'NONE', #320, #164, #435 ) ;
#327 = EDGE_LOOP ( 'NONE', ( #147, #332, #497, #581 ) ) ;
#328 = CIRCLE ( 'NONE', #160, 10.00000000000000000 ) ;
#329 = CYLINDRICAL_SURFACE ( 'NONE', #397, 6.999999999999990230 ) ;
#330 = CARTESIAN_POINT ( 'NONE',  ( -10.49999999999999467, -24.99999999999999289, 0.000000000000000000 ) ) ;
#331 = EDGE_CURVE ( 'NONE', #864, #604, #655, .T. ) ;
#332 = ORIENTED_EDGE ( 'NONE', *, *, #704, .F. ) ;
#333 = VERTEX_POINT ( 'NONE', #870 ) ;
#334 = DIRECTION ( 'NONE',  ( 0.000000000000000000, 0.000000000000000000, 1.000000000000000000 ) ) ;
#335 = LINE ( 'NONE', #203, #629 ) ;
#336 = ORIENTED_EDGE ( 'NONE', *, *, #602, .F. ) ;
#337 = EDGE_CURVE ( 'NONE', #165, #306, #44, .T. ) ;
#338 = MANIFOLD_SOLID_BREP ( 'Fillet4', #29 ) ;
#339 = CARTESIAN_POINT ( 'NONE',  ( 13.59999999999999964, 3.622776601683804554, 25.00000000000000000 ) ) ;
#340 = DIRECTION ( 'NONE',  ( -1.000000000000000000, 0.000000000000000000, 0.000000000000000000 ) ) ;
#341 = UNCERTAINTY_MEASURE_WITH_UNIT (LENGTH_MEASURE( 1.000000000000000082E-05 ), #20, 'distance_accuracy_value', 'NONE');
#342 = ORIENTED_EDGE ( 'NONE', *, *, #483, .T. ) ;
#343 = PRODUCT_DEFINITION_FORMATION_WITH_SPECIFIED_SOURCE ( 'ANY', '', #180, .NOT_KNOWN. ) ;
#344 = EDGE_CURVE ( 'NONE', #392, #151, #328, .T. ) ;
#345 = CARTESIAN_POINT ( 'NONE',  ( 10.49999999999999467, 25.00000000000000711, 0.000000000000000000 ) ) ;
#346 = CIRCLE ( 'NONE', #819, 44.99999999999999289 ) ;
#347 = VECTOR ( 'NONE', #818, 1000.000000000000000 ) ;
#348 = DIRECTION ( 'NONE',  ( -0.000000000000000000, -0.000000000000000000, 1.000000000000000000 ) ) ;
#349 = CONICAL_SURFACE ( 'NONE', #144, 6.999999999999993783, 1.029744258676653645 ) ;
#350 = FACE_OUTER_BOUND ( 'NONE', #527, .T. ) ;
#351 = ORIENTED_EDGE ( 'NONE', *, *, #436, .T. ) ;
#352 = DIRECTION ( 'NONE',  ( 1.000000000000000000, 0.000000000000000000, 0.000000000000000000 ) ) ;
#353 = LINE ( 'NONE', #800, #85 ) ;
#354 = CARTESIAN_POINT ( 'NONE',  ( -1.302036886916658502E-14, 6.416752268490890643, 12.49999999999999822 ) ) ;
#355 = ORIENTED_EDGE ( 'NONE', *, *, #250, .F. ) ;
#356 = DIRECTION ( 'NONE',  ( -0.000000000000000000, -1.000000000000000000, -0.000000000000000000 ) ) ;
#357 =( NAMED_UNIT ( * ) PLANE_ANGLE_UNIT ( ) SI_UNIT ( $, .RADIAN. ) );
#358 = EDGE_CURVE ( 'NONE', #310, #432, #225, .T. ) ;
#359 = VERTEX_POINT ( 'NONE', #83 ) ;
#360 = LINE ( 'NONE', #148, #172 ) ;
#361 = PLANE ( 'NONE',  #694 ) ;
#362 = VECTOR ( 'NONE', #114, 1000.000000000000000 ) ;
#363 = VECTOR ( 'NONE', #313, 1000.000000000000000 ) ;
#364 = DIRECTION ( 'NONE',  ( -1.000000000000000000, -4.956352788505163391E-17, 0.000000000000000000 ) ) ;
#365 = ORIENTED_EDGE ( 'NONE', *, *, #863, .T. ) ;
#366 = LINE ( 'NONE', #495, #128 ) ;
#367 = ORIENTED_EDGE ( 'NONE', *, *, #857, .F. ) ;
#368 = EDGE_LOOP ( 'NONE', ( #801, #297, #541, #505 ) ) ;
#369 = CARTESIAN_POINT ( 'NONE',  ( 13.59999999999999964, 2.722776601683805087, 9.000000000000001776 ) ) ;
#370 = FACE_OUTER_BOUND ( 'NONE', #512, .T. ) ;
#371 = CARTESIAN_POINT ( 'NONE',  ( -13.59999999999999964, -1.377223398316195446, -41.73937840852242687 ) ) ;
#372 = DIRECTION ( 'NONE',  ( 1.000000000000000000, 0.000000000000000000, 0.000000000000000000 ) ) ;
#373 = DIRECTION ( 'NONE',  ( 0.000000000000000000, 0.000000000000000000, 1.000000000000000000 ) ) ;
#374 = CARTESIAN_POINT ( 'NONE',  ( -6.019492300440888739E-15, 10.62277660168381388, 19.49999999999999289 ) ) ;
#375 = EDGE_LOOP ( 'NONE', ( #653, #569, #256, #698 ) ) ;
#376 = DIRECTION ( 'NONE',  ( 0.000000000000000000, -0.000000000000000000, -1.000000000000000000 ) ) ;
#377 = ORIENTED_EDGE ( 'NONE', *, *, #331, .T. ) ;
#378 = CARTESIAN_POINT ( 'NONE',  ( 12.69999999999999751, 3.622776601683804554, 25.00000000000000000 ) ) ;
#379 = EDGE_CURVE ( 'NONE', #134, #135, #516, .T. ) ;
#380 = CARTESIAN_POINT ( 'NONE',  ( -10.50000000000000178, 25.00000000000000711, 25.00000000000000000 ) ) ;
#381 = AXIS2_PLACEMENT_3D ( 'NONE', #25, #828, #427 ) ;
#382 = AXIS2_PLACEMENT_3D ( 'NONE', #371, #117, #97 ) ;
#383 = EDGE_CURVE ( 'NONE', #432, #333, #317, .T. ) ;
#384 = VECTOR ( 'NONE', #635, 1000.000000000000000 ) ;
#385 = ORIENTED_EDGE ( 'NONE', *, *, #718, .T. ) ;
#386 = CARTESIAN_POINT ( 'NONE',  ( 20.49999999999999645, 35.00000000000000711, 25.00000000000000000 ) ) ;
#387 = LINE ( 'NONE', #729, #215 ) ;
#388 = ORIENTED_EDGE ( 'NONE', *, *, #852, .T. ) ;
#389 = EDGE_CURVE ( 'NONE', #735, #218, #563, .T. ) ;
#390 = CYLINDRICAL_SURFACE ( 'NONE', #613, 5.000000000000000000 ) ;
#391 = PLANE ( 'NONE',  #877 ) ;
#392 = VERTEX_POINT ( 'NONE', #842 ) ;
#393 = FACE_BOUND ( 'NONE', #61, .T. ) ;
#394 = DIRECTION ( 'NONE',  ( -4.956352788505162775E-17, 1.000000000000000000, -0.000000000000000000 ) ) ;
#395 = ORIENTED_EDGE ( 'NONE', *, *, #21, .T. ) ;
#396 = ORIENTED_EDGE ( 'NONE', *, *, #553, .T. ) ;
#397 = AXIS2_PLACEMENT_3D ( 'NONE', #480, #192, #403 ) ;
#398 = LINE ( 'NONE', #339, #875 ) ;
#399 = DIRECTION ( 'NONE',  ( 0.000000000000000000, 0.000000000000000000, 1.000000000000000000 ) ) ;
#400 = EDGE_CURVE ( 'NONE', #265, #359, #366, .T. ) ;
#401 = VERTEX_POINT ( 'NONE', #510 ) ;
#402 = ORIENTED_EDGE ( 'NONE', *, *, #739, .T. ) ;
#403 = DIRECTION ( 'NONE',  ( 0.000000000000000000, 0.000000000000000000, 1.000000000000000000 ) ) ;
#404 = CARTESIAN_POINT ( 'NONE',  ( -10.49999999999999467, -34.99999999999999289, 25.00000000000000000 ) ) ;
#405 = EDGE_CURVE ( 'NONE', #392, #5, #762, .T. ) ;
#406 = ORIENTED_EDGE ( 'NONE', *, *, #544, .T. ) ;
#407 = VERTEX_POINT ( 'NONE', #625 ) ;
#408 = DIRECTION ( 'NONE',  ( 0.000000000000000000, -0.000000000000000000, -1.000000000000000000 ) ) ;
#409 = CARTESIAN_POINT ( 'NONE',  ( 10.49999999999999467, 35.00000000000000711, 0.000000000000000000 ) ) ;
#410 = ORIENTED_EDGE ( 'NONE', *, *, #405, .T. ) ;
#411 = ORIENTED_EDGE ( 'NONE', *, *, #657, .F. ) ;
#412 = CARTESIAN_POINT ( 'NONE',  ( 13.59999999999999964, 2.722776601683805087, 9.000000000000001776 ) ) ;
#413 = MECHANICAL_DESIGN_GEOMETRIC_PRESENTATION_REPRESENTATION (  '', ( #274 ), #711 ) ;
#414 = DIRECTION ( 'NONE',  ( 0.000000000000000000, -0.000000000000000000, -1.000000000000000000 ) ) ;
#415 = CIRCLE ( 'NONE', #1, 10.00000000000000000 ) ;
#416 = DIRECTION ( 'NONE',  ( 0.000000000000000000, 0.000000000000000000, -1.000000000000000000 ) ) ;
#417 = ORIENTED_EDGE ( 'NONE', *, *, #194, .T. ) ;
#418 = CARTESIAN_POINT ( 'NONE',  ( 3.600000000000000089, -35.00000000000000000, 9.000000000000001776 ) ) ;
#419 = ADVANCED_FACE ( 'NONE', ( #686 ), #12, .T. ) ;
#420 = DIRECTION ( 'NONE',  ( -1.000000000000000000, -0.000000000000000000, -0.000000000000000000 ) ) ;
#421 = ORIENTED_EDGE ( 'NONE', *, *, #21, .F. ) ;
#422 = ORIENTED_EDGE ( 'NONE', *, *, #657, .T. ) ;
#423 = DIRECTION ( 'NONE',  ( -0.000000000000000000, 0.000000000000000000, 1.000000000000000000 ) ) ;
#424 = FACE_OUTER_BOUND ( 'NONE', #702, .T. ) ;
#425 = FACE_OUTER_BOUND ( 'NONE', #564, .T. ) ;
#426 = EDGE_LOOP ( 'NONE', ( #466, #858, #565 ) ) ;
#427 = DIRECTION ( 'NONE',  ( 1.000000000000000000, 0.000000000000000000, 0.000000000000000000 ) ) ;
#428 = LINE ( 'NONE', #89, #384 ) ;
#429 = VECTOR ( 'NONE', #743, 1000.000000000000000 ) ;
#430 = ADVANCED_FACE ( 'NONE', ( #424 ), #361, .F. ) ;
#431 = DIRECTION ( 'NONE',  ( -0.000000000000000000, 0.000000000000000000, -1.000000000000000000 ) ) ;
#432 = VERTEX_POINT ( 'NONE', #774 ) ;
#433 = DIRECTION ( 'NONE',  ( -0.000000000000000000, 1.000000000000000000, -0.000000000000000000 ) ) ;
#434 = CARTESIAN_POINT ( 'NONE',  ( -10.49999999999999467, -24.99999999999999289, 25.00000000000000000 ) ) ;
#435 = DIRECTION ( 'NONE',  ( 0.000000000000000000, 0.000000000000000000, 1.000000000000000000 ) ) ;
#436 = EDGE_CURVE ( 'NONE', #306, #138, #428, .T. ) ;
#437 = ORIENTED_EDGE ( 'NONE', *, *, #146, .F. ) ;
#438 = CARTESIAN_POINT ( 'NONE',  ( -8.712658649641733533, -34.99999999999999289, 25.00000000000000000 ) ) ;
#439 = CARTESIAN_POINT ( 'NONE',  ( -5.162239541037741913E-15, 10.62277660168381388, 5.500000000000005329 ) ) ;
#440 = ORIENTED_EDGE ( 'NONE', *, *, #296, .F. ) ;
#441 = LINE ( 'NONE', #243, #734 ) ;
#442 = AXIS2_PLACEMENT_3D ( 'NONE', #582, #780, #246 ) ;
#443 = AXIS2_PLACEMENT_3D ( 'NONE', #607, #399, #809 ) ;
#444 = AXIS2_PLACEMENT_3D ( 'NONE', #272, #52, #208 ) ;
#445 = CARTESIAN_POINT ( 'NONE',  ( -6.019492300440888739E-15, 10.62277660168381388, 12.49999999999999822 ) ) ;
#446 = ORIENTED_EDGE ( 'NONE', *, *, #325, .F. ) ;
#447 = LINE ( 'NONE', #714, #363 ) ;
#448 = ORIENTED_EDGE ( 'NONE', *, *, #577, .T. ) ;
#449 = DIRECTION ( 'NONE',  ( 1.000000000000000000, 0.000000000000000000, 0.000000000000000000 ) ) ;
#450 = ADVANCED_FACE ( 'NONE', ( #229 ), #501, .T. ) ;
#451 = VERTEX_POINT ( 'NONE', #93 ) ;
#452 = LINE ( 'NONE', #386, #751 ) ;
#453 = CIRCLE ( 'NONE', #838, 0.8999999999999998002 ) ;
#454 = VECTOR ( 'NONE', #705, 1000.000000000000000 ) ;
#455 = ADVANCED_FACE ( 'NONE', ( #370 ), #639, .T. ) ;
#456 = VECTOR ( 'NONE', #849, 1000.000000000000000 ) ;
#457 = VECTOR ( 'NONE', #605, 1000.000000000000000 ) ;
#458 = DIRECTION ( 'NONE',  ( 0.000000000000000000, 0.000000000000000000, -1.000000000000000000 ) ) ;
#459 = CARTESIAN_POINT ( 'NONE',  ( -12.69999999999999929, 3.622776601683804554, 25.00000000000000000 ) ) ;
#460 = EDGE_LOOP ( 'NONE', ( #283, #351, #388, #207 ) ) ;
#461 = ADVANCED_FACE ( 'NONE', ( #580 ), #112, .T. ) ;
#462 = VERTEX_POINT ( 'NONE', #724 ) ;
#463 = DIRECTION ( 'NONE',  ( 0.000000000000000000, 0.000000000000000000, 1.000000000000000000 ) ) ;
#464 = CARTESIAN_POINT ( 'NONE',  ( -6.019492300440888739E-15, 10.62277660168381388, 19.49999999999999289 ) ) ;
#465 = ORIENTED_EDGE ( 'NONE', *, *, #520, .T. ) ;
#466 = ORIENTED_EDGE ( 'NONE', *, *, #176, .F. ) ;
#467 = LINE ( 'NONE', #619, #862 ) ;
#468 = FACE_OUTER_BOUND ( 'NONE', #182, .T. ) ;
#469 = ORIENTED_EDGE ( 'NONE', *, *, #797, .F. ) ;
#470 = CIRCLE ( 'NONE', #749, 45.00000000000000000 ) ;
#471 = AXIS2_PLACEMENT_3D ( 'NONE', #567, #759, #644 ) ;
#472 = DIRECTION ( 'NONE',  ( -0.000000000000000000, -0.000000000000000000, -1.000000000000000000 ) ) ;
#473 = FILL_AREA_STYLE_COLOUR ( '', #257 ) ;
#474 = ADVANCED_FACE ( 'NONE', ( #649 ), #777, .T. ) ;
#475 = ORIENTED_EDGE ( 'NONE', *, *, #744, .F. ) ;
#476 = CARTESIAN_POINT ( 'NONE',  ( 10.49999999999999467, 25.00000000000000711, 25.00000000000000000 ) ) ;
#477 = CARTESIAN_POINT ( 'NONE',  ( 8.712658649641733533, -29.99999999999999645, 25.00000000000000000 ) ) ;
#478 = APPLICATION_CONTEXT ( 'automotive_design' ) ;
#479 = ORIENTED_EDGE ( 'NONE', *, *, #184, .T. ) ;
#480 = CARTESIAN_POINT ( 'NONE',  ( -6.019492300440888739E-15, 35.00000000000000711, 12.49999999999999822 ) ) ;
#481 = CARTESIAN_POINT ( 'NONE',  ( -3.712658649641734421, -29.99999999999999645, -41.73937840852242687 ) ) ;
#482 = EDGE_LOOP ( 'NONE', ( #440, #322, #109, #823, #637, #402, #395, #406 ) ) ;
#483 = EDGE_CURVE ( 'NONE', #24, #735, #651, .T. ) ;
#484 = EDGE_LOOP ( 'NONE', ( #119, #841, #123, #355 ) ) ;
#485 = LINE ( 'NONE', #17, #615 ) ;
#486 = LINE ( 'NONE', #677, #31 ) ;
#487 = ORIENTED_EDGE ( 'NONE', *, *, #715, .T. ) ;
#488 = EDGE_CURVE ( 'NONE', #681, #201, #104, .T. ) ;
#489 = ORIENTED_EDGE ( 'NONE', *, *, #379, .F. ) ;
#490 = DIRECTION ( 'NONE',  ( 0.000000000000000000, 0.000000000000000000, 1.000000000000000000 ) ) ;
#491 = PRESENTATION_STYLE_ASSIGNMENT (( #149 ) ) ;
#492 = CARTESIAN_POINT ( 'NONE',  ( 12.69999999999999751, 3.622776601683804554, 9.000000000000001776 ) ) ;
#493 = EDGE_LOOP ( 'NONE', ( #40, #755, #410, #688 ) ) ;
#494 = DIRECTION ( 'NONE',  ( 0.000000000000000000, 0.000000000000000000, 1.000000000000000000 ) ) ;
#495 = CARTESIAN_POINT ( 'NONE',  ( -20.50000000000000355, 35.00000000000000711, 25.00000000000000000 ) ) ;
#496 = EDGE_CURVE ( 'NONE', #5, #197, #587, .T. ) ;
#497 = ORIENTED_EDGE ( 'NONE', *, *, #718, .F. ) ;
#498 = ORIENTED_EDGE ( 'NONE', *, *, #727, .F. ) ;
#499 = CARTESIAN_POINT ( 'NONE',  ( -10.49999999999999467, -24.99999999999999289, 25.00000000000000000 ) ) ;
#500 = VECTOR ( 'NONE', #622, 1000.000000000000000 ) ;
#501 = CYLINDRICAL_SURFACE ( 'NONE', #99, 10.00000000000000178 ) ;
#502 = VECTOR ( 'NONE', #318, 1000.000000000000000 ) ;
#503 = EDGE_CURVE ( 'NONE', #787, #24, #666, .T. ) ;
#504 = DIRECTION ( 'NONE',  ( 1.000000000000000000, 0.000000000000000000, 0.000000000000000000 ) ) ;
#505 = ORIENTED_EDGE ( 'NONE', *, *, #566, .F. ) ;
#506 = CARTESIAN_POINT ( 'NONE',  ( -3.599999999999999201, -1.377223398316196334, -41.73937840852242687 ) ) ;
#507 =( NAMED_UNIT ( * ) SI_UNIT ( $, .STERADIAN. ) SOLID_ANGLE_UNIT ( ) );
#508 = DIRECTION ( 'NONE',  ( -1.000000000000000000, 0.000000000000000000, 0.000000000000000000 ) ) ;
#509 = ORIENTED_EDGE ( 'NONE', *, *, #857, .T. ) ;
#510 = CARTESIAN_POINT ( 'NONE',  ( 13.59999999999999964, -1.377223398316195446, 25.00000000000000000 ) ) ;
#511 = CARTESIAN_POINT ( 'NONE',  ( 8.712658649641733533, -35.00000000000000000, 9.000000000000001776 ) ) ;
#512 = EDGE_LOOP ( 'NONE', ( #713, #446, #475, #367 ) ) ;
#513 = EDGE_CURVE ( 'NONE', #623, #197, #170, .T. ) ;
#514 = DIRECTION ( 'NONE',  ( 1.486905836551548832E-16, -1.000000000000000000, 0.000000000000000000 ) ) ;
#515 = AXIS2_PLACEMENT_3D ( 'NONE', #568, #659, #309 ) ;
#516 = CIRCLE ( 'NONE', #767, 6.999999999999993783 ) ;
#517 = DIRECTION ( 'NONE',  ( 0.000000000000000000, 0.000000000000000000, 1.000000000000000000 ) ) ;
#518 = ORIENTED_EDGE ( 'NONE', *, *, #158, .T. ) ;
#519 = DIRECTION ( 'NONE',  ( 1.000000000000000000, 2.775557561562891351E-14, 0.000000000000000000 ) ) ;
#520 = EDGE_CURVE ( 'NONE', #660, #561, #441, .T. ) ;
#521 = ORIENTED_EDGE ( 'NONE', *, *, #436, .F. ) ;
#522 = DIRECTION ( 'NONE',  ( 1.000000000000000000, 0.000000000000000000, 0.000000000000000000 ) ) ;
#523 = DIRECTION ( 'NONE',  ( 1.000000000000000000, 0.000000000000000000, 0.000000000000000000 ) ) ;
#524 = ADVANCED_FACE ( 'NONE', ( #654 ), #390, .T. ) ;
#525 = VECTOR ( 'NONE', #193, 1000.000000000000000 ) ;
#526 = AXIS2_PLACEMENT_3D ( 'NONE', #289, #559, #153 ) ;
#527 = EDGE_LOOP ( 'NONE', ( #221, #779, #190, #745 ) ) ;
#528 = VECTOR ( 'NONE', #490, 1000.000000000000000 ) ;
#529 = ORIENTED_EDGE ( 'NONE', *, *, #770, .F. ) ;
#530 = FACE_OUTER_BOUND ( 'NONE', #484, .T. ) ;
#531 = CARTESIAN_POINT ( 'NONE',  ( 48.59999999999999432, -32.99999999999999289, 9.000000000000001776 ) ) ;
#532 = VERTEX_POINT ( 'NONE', #319 ) ;
#533 = CARTESIAN_POINT ( 'NONE',  ( -3.712658649641734421, -29.99999999999999645, 9.000000000000001776 ) ) ;
#534 = CARTESIAN_POINT ( 'NONE',  ( -3.599999999999999201, -1.377223398316196334, 9.000000000000001776 ) ) ;
#535 = ORIENTED_EDGE ( 'NONE', *, *, #785, .F. ) ;
#536 = EDGE_CURVE ( 'NONE', #218, #462, #781, .T. ) ;
#537 = EDGE_LOOP ( 'NONE', ( #873, #129, #794, #806, #812, #487, #37, #448, #807, #829, #122, #210, #719, #278, #865, #610, #269, #592, #385, #411, #226 ) ) ;
#538 = CARTESIAN_POINT ( 'NONE',  ( -20.50000000000000355, 25.00000000000000711, 25.00000000000000000 ) ) ;
#539 = DIRECTION ( 'NONE',  ( 1.000000000000000000, 6.938893903907227392E-16, 0.000000000000000000 ) ) ;
#540 = AXIS2_PLACEMENT_3D ( 'NONE', #670, #414, #214 ) ;
#541 = ORIENTED_EDGE ( 'NONE', *, *, #105, .T. ) ;
#542 = VECTOR ( 'NONE', #831, 1000.000000000000000 ) ;
#543 = CARTESIAN_POINT ( 'NONE',  ( -13.59999999999999964, -1.377223398316196334, 25.00000000000000000 ) ) ;
#544 = EDGE_CURVE ( 'NONE', #730, #598, #447, .T. ) ;
#545 = CARTESIAN_POINT ( 'NONE',  ( -20.49999999999999289, -34.99999999999999289, 25.00000000000000000 ) ) ;
#546 = UNCERTAINTY_MEASURE_WITH_UNIT (LENGTH_MEASURE( 1.000000000000000082E-05 ), #220, 'distance_accuracy_value', 'NONE');
#547 = CARTESIAN_POINT ( 'NONE',  ( -20.49999999999999289, -34.99999999999999289, 0.000000000000000000 ) ) ;
#548 = DIRECTION ( 'NONE',  ( 0.000000000000000000, -0.000000000000000000, -1.000000000000000000 ) ) ;
#549 = CARTESIAN_POINT ( 'NONE',  ( 20.50000000000000000, -24.99999999999999289, 25.00000000000000000 ) ) ;
#550 = CYLINDRICAL_SURFACE ( 'NONE', #159, 0.8999999999999998002 ) ;
#551 = CARTESIAN_POINT ( 'NONE',  ( -8.712658649641733533, -29.99999999999999645, -41.73937840852242687 ) ) ;
#552 = CARTESIAN_POINT ( 'NONE',  ( -8.712658649641733533, -29.99999999999999645, 9.000000000000001776 ) ) ;
#553 = EDGE_CURVE ( 'NONE', #532, #672, #187, .T. ) ;
#554 = ORIENTED_EDGE ( 'NONE', *, *, #127, .T. ) ;
#555 = CIRCLE ( 'NONE', #571, 10.00000000000000000 ) ;
#556 = ORIENTED_EDGE ( 'NONE', *, *, #302, .F. ) ;
#557 = LINE ( 'NONE', #438, #32 ) ;
#558 = VECTOR ( 'NONE', #18, 1000.000000000000000 ) ;
#559 = DIRECTION ( 'NONE',  ( -0.000000000000000000, 0.000000000000000000, 1.000000000000000000 ) ) ;
#560 = CARTESIAN_POINT ( 'NONE',  ( 20.49999999999999645, 35.00000000000000711, 25.00000000000000000 ) ) ;
#561 = VERTEX_POINT ( 'NONE', #183 ) ;
#562 = FACE_OUTER_BOUND ( 'NONE', #315, .T. ) ;
#563 = LINE ( 'NONE', #576, #542 ) ;
#564 = EDGE_LOOP ( 'NONE', ( #422, #162, #827, #868 ) ) ;
#565 = ORIENTED_EDGE ( 'NONE', *, *, #379, .T. ) ;
#566 = EDGE_CURVE ( 'NONE', #752, #401, #48, .T. ) ;
#567 = CARTESIAN_POINT ( 'NONE',  ( -8.712658649641733533, -29.99999999999999645, 25.00000000000000000 ) ) ;
#568 = CARTESIAN_POINT ( 'NONE',  ( -3.599999999999999201, -1.377223398316196334, 25.00000000000000000 ) ) ;
#569 = ORIENTED_EDGE ( 'NONE', *, *, #496, .F. ) ;
#570 = DIRECTION ( 'NONE',  ( 1.000000000000000000, 0.000000000000000000, 0.000000000000000000 ) ) ;
#571 = AXIS2_PLACEMENT_3D ( 'NONE', #499, #166, #152 ) ;
#572 = AXIS2_PLACEMENT_3D ( 'NONE', #445, #34, #843 ) ;
#573 = DIRECTION ( 'NONE',  ( 0.000000000000000000, 0.000000000000000000, -1.000000000000000000 ) ) ;
#574 = AXIS2_PLACEMENT_3D ( 'NONE', #43, #853, #249 ) ;
#575 = CARTESIAN_POINT ( 'NONE',  ( -48.59999999999999432, -33.00000000000000000, 9.000000000000001776 ) ) ;
#576 = CARTESIAN_POINT ( 'NONE',  ( -13.59999999999999964, 3.622776601683804554, 25.00000000000000000 ) ) ;
#577 = EDGE_CURVE ( 'NONE', #359, #623, #850, .T. ) ;
#578 = CARTESIAN_POINT ( 'NONE',  ( -13.59999999999999964, -1.377223398316195446, 9.000000000000001776 ) ) ;
#579 = PRODUCT_CONTEXT ( 'NONE', #50, 'mechanical' ) ;
#580 = FACE_OUTER_BOUND ( 'NONE', #591, .T. ) ;
#581 = ORIENTED_EDGE ( 'NONE', *, *, #483, .F. ) ;
#582 = CARTESIAN_POINT ( 'NONE',  ( 0.000000000000000000, 0.000000000000000000, 0.000000000000000000 ) ) ;
#583 = CARTESIAN_POINT ( 'NONE',  ( -8.712658649641733533, -29.99999999999999645, 9.000000000000001776 ) ) ;
#584 = VECTOR ( 'NONE', #107, 1000.000000000000000 ) ;
#585 = VERTEX_POINT ( 'NONE', #859 ) ;
#586 = EDGE_CURVE ( 'NONE', #333, #2, #87, .T. ) ;
#587 = LINE ( 'NONE', #717, #584 ) ;
#588 = ORIENTED_EDGE ( 'NONE', *, *, #302, .T. ) ;
#589 = CARTESIAN_POINT ( 'NONE',  ( -13.59999999999999964, -1.377223398316196334, 9.000000000000001776 ) ) ;
#590 = CARTESIAN_POINT ( 'NONE',  ( 11.78181818181818308, -7.126819144076884882, 25.00000000000000000 ) ) ;
#591 = EDGE_LOOP ( 'NONE', ( #227, #57, #815, #312 ) ) ;
#592 = ORIENTED_EDGE ( 'NONE', *, *, #389, .F. ) ;
#593 = CARTESIAN_POINT ( 'NONE',  ( 13.59999999999999964, -1.377223398316195446, -41.73937840852242687 ) ) ;
#594 = CARTESIAN_POINT ( 'NONE',  ( -5.162239541037741913E-15, 10.62277660168381388, 5.500000000000005329 ) ) ;
#595 = VECTOR ( 'NONE', #95, 1000.000000000000000 ) ;
#596 = AXIS2_PLACEMENT_3D ( 'NONE', #775, #636, #508 ) ;
#597 = VECTOR ( 'NONE', #695, 1000.000000000000000 ) ;
#598 = VERTEX_POINT ( 'NONE', #720 ) ;
#599 = ORIENTED_EDGE ( 'NONE', *, *, #184, .F. ) ;
#600 = LINE ( 'NONE', #795, #656 ) ;
#601 = CYLINDRICAL_SURFACE ( 'NONE', #186, 0.8999999999999998002 ) ;
#602 = EDGE_CURVE ( 'NONE', #585, #772, #452, .T. ) ;
#603 = EDGE_LOOP ( 'NONE', ( #365, #342, #746, #723 ) ) ;
#604 = VERTEX_POINT ( 'NONE', #589 ) ;
#605 = DIRECTION ( 'NONE',  ( -0.000000000000000000, -0.000000000000000000, -1.000000000000000000 ) ) ;
#606 = PRODUCT_DEFINITION_SHAPE ( 'NONE', 'NONE',  #26 ) ;
#607 = CARTESIAN_POINT ( 'NONE',  ( -48.59999999999999432, -33.00000000000000000, -41.73937840852242687 ) ) ;
#608 = ORIENTED_EDGE ( 'NONE', *, *, #139, .F. ) ;
#609 = EDGE_CURVE ( 'NONE', #242, #2, #143, .T. ) ;
#610 = ORIENTED_EDGE ( 'NONE', *, *, #872, .F. ) ;
#611 = CARTESIAN_POINT ( 'NONE',  ( 10.49999999999999822, -34.99999999999999289, 0.000000000000000000 ) ) ;
#612 = DIRECTION ( 'NONE',  ( -0.000000000000000000, 1.000000000000000000, -0.000000000000000000 ) ) ;
#613 = AXIS2_PLACEMENT_3D ( 'NONE', #710, #100, #661 ) ;
#614 = ORIENTED_EDGE ( 'NONE', *, *, #325, .T. ) ;
#615 = VECTOR ( 'NONE', #753, 1000.000000000000000 ) ;
#616 = FACE_OUTER_BOUND ( 'NONE', #460, .T. ) ;
#617 = DIRECTION ( 'NONE',  ( 1.000000000000000000, 1.778091562876227272E-15, 0.000000000000000000 ) ) ;
#618 = VERTEX_POINT ( 'NONE', #543 ) ;
#619 = CARTESIAN_POINT ( 'NONE',  ( -20.50000000000000355, 35.00000000000000711, 0.000000000000000000 ) ) ;
#620 = DIRECTION ( 'NONE',  ( 0.000000000000000000, 1.000000000000000000, 0.000000000000000000 ) ) ;
#621 = ADVANCED_FACE ( 'NONE', ( #393, #737 ), #6, .F. ) ;
#622 = DIRECTION ( 'NONE',  ( 1.000000000000000000, 0.000000000000000000, 0.000000000000000000 ) ) ;
#623 = VERTEX_POINT ( 'NONE', #682 ) ;
#624 = DIRECTION ( 'NONE',  ( 1.000000000000000000, 0.000000000000000000, 0.000000000000000000 ) ) ;
#625 = CARTESIAN_POINT ( 'NONE',  ( -5.162239541037742702E-15, 35.00000000000000711, 5.500000000000010658 ) ) ;
#626 = EDGE_LOOP ( 'NONE', ( #47, #509, #641, #118 ) ) ;
#627 = ORIENTED_EDGE ( 'NONE', *, *, #199, .F. ) ;
#628 = CYLINDRICAL_SURFACE ( 'NONE', #381, 5.000000000000000888 ) ;
#629 = VECTOR ( 'NONE', #612, 1000.000000000000000 ) ;
#630 = AXIS2_PLACEMENT_3D ( 'NONE', #132, #268, #539 ) ;
#631 = SURFACE_SIDE_STYLE ('',( #22 ) ) ;
#632 = CARTESIAN_POINT ( 'NONE',  ( -20.50000000000000355, 35.00000000000000711, 25.00000000000000000 ) ) ;
#633 = ADVANCED_FACE ( 'NONE', ( #616 ), #73, .T. ) ;
#634 = CARTESIAN_POINT ( 'NONE',  ( 10.50000000000000000, -24.99999999999999289, 25.00000000000000000 ) ) ;
#635 = DIRECTION ( 'NONE',  ( 0.000000000000000000, 0.000000000000000000, 1.000000000000000000 ) ) ;
#636 = DIRECTION ( 'NONE',  ( 0.000000000000000000, 0.000000000000000000, -1.000000000000000000 ) ) ;
#637 = ORIENTED_EDGE ( 'NONE', *, *, #358, .F. ) ;
#638 = LINE ( 'NONE', #418, #595 ) ;
#639 = CYLINDRICAL_SURFACE ( 'NONE', #175, 10.00000000000000000 ) ;
#640 = DIRECTION ( 'NONE',  ( -0.000000000000000000, 1.000000000000000000, -0.000000000000000000 ) ) ;
#641 = ORIENTED_EDGE ( 'NONE', *, *, #645, .T. ) ;
#642 = DIRECTION ( 'NONE',  ( 1.000000000000000000, 0.000000000000000000, 0.000000000000000000 ) ) ;
#643 = VECTOR ( 'NONE', #472, 1000.000000000000000 ) ;
#644 = DIRECTION ( 'NONE',  ( 1.000000000000000000, 0.000000000000000000, 0.000000000000000000 ) ) ;
#645 = EDGE_CURVE ( 'NONE', #321, #151, #467, .T. ) ;
#646 = AXIS2_PLACEMENT_3D ( 'NONE', #251, #855, #522 ) ;
#647 = CARTESIAN_POINT ( 'NONE',  ( 3.726740980846958262, -29.62499999999999645, 25.00000000000000000 ) ) ;
#648 = ORIENTED_EDGE ( 'NONE', *, *, #39, .F. ) ;
#649 = FACE_OUTER_BOUND ( 'NONE', #687, .T. ) ;
#650 = ADVANCED_FACE ( 'NONE', ( #530 ), #329, .F. ) ;
#651 = LINE ( 'NONE', #378, #837 ) ;
#652 = EDGE_CURVE ( 'NONE', #623, #392, #731, .T. ) ;
#653 = ORIENTED_EDGE ( 'NONE', *, *, #792, .F. ) ;
#654 = FACE_OUTER_BOUND ( 'NONE', #174, .T. ) ;
#655 = CIRCLE ( 'NONE', #56, 10.00000000000000000 ) ;
#656 = VECTOR ( 'NONE', #463, 1000.000000000000000 ) ;
#657 = EDGE_CURVE ( 'NONE', #401, #451, #398, .T. ) ;
#658 = DIRECTION ( 'NONE',  ( -1.000000000000000000, 0.000000000000000000, 0.000000000000000000 ) ) ;
#659 = DIRECTION ( 'NONE',  ( 0.000000000000000000, 0.000000000000000000, 1.000000000000000000 ) ) ;
#660 = VERTEX_POINT ( 'NONE', #263 ) ;
#661 = DIRECTION ( 'NONE',  ( 1.000000000000000000, 0.000000000000000000, 0.000000000000000000 ) ) ;
#662 = CYLINDRICAL_SURFACE ( 'NONE', #860, 10.00000000000000000 ) ;
#663 = DIRECTION ( 'NONE',  ( 1.000000000000000000, 0.000000000000000000, 0.000000000000000000 ) ) ;
#664 = CARTESIAN_POINT ( 'NONE',  ( -10.49999999999999467, -34.99999999999999289, 0.000000000000000000 ) ) ;
#665 = AXIS2_PLACEMENT_3D ( 'NONE', #634, #423, #642 ) ;
#666 = CIRCLE ( 'NONE', #111, 0.8999999999999998002 ) ;
#667 = EDGE_LOOP ( 'NONE', ( #608, #191, #554 ) ) ;
#668 = ORIENTED_EDGE ( 'NONE', *, *, #337, .F. ) ;
#669 = DIRECTION ( 'NONE',  ( -1.000000000000000000, -0.000000000000000000, -0.000000000000000000 ) ) ;
#670 = CARTESIAN_POINT ( 'NONE',  ( 10.50000000000000000, -24.99999999999999289, 0.000000000000000000 ) ) ;
#671 = EDGE_CURVE ( 'NONE', #604, #618, #600, .T. ) ;
#672 = VERTEX_POINT ( 'NONE', #533 ) ;
#673 = DIRECTION ( 'NONE',  ( 0.000000000000000000, 0.000000000000000000, 1.000000000000000000 ) ) ;
#674 = CARTESIAN_POINT ( 'NONE',  ( 12.69999999999999751, 2.722776601683805087, -41.73937840852242687 ) ) ;
#675 = ORIENTED_EDGE ( 'NONE', *, *, #803, .F. ) ;
#676 = CARTESIAN_POINT ( 'NONE',  ( -6.019492300440888739E-15, 10.62277660168381388, 12.49999999999999822 ) ) ;
#677 = CARTESIAN_POINT ( 'NONE',  ( 20.49999999999999645, 25.00000000000000711, 25.00000000000000000 ) ) ;
#678 = CIRCLE ( 'NONE', #791, 10.00000000000000178 ) ;
#679 = LINE ( 'NONE', #71, #273 ) ;
#680 = CIRCLE ( 'NONE', #540, 10.00000000000000000 ) ;
#681 = VERTEX_POINT ( 'NONE', #728 ) ;
#682 = CARTESIAN_POINT ( 'NONE',  ( -20.50000000000000355, 25.00000000000000711, 25.00000000000000000 ) ) ;
#683 = CARTESIAN_POINT ( 'NONE',  ( 10.49999999999999467, 35.00000000000000711, 25.00000000000000000 ) ) ;
#684 = DIRECTION ( 'NONE',  ( -1.000000000000000000, 0.000000000000000000, 0.000000000000000000 ) ) ;
#685 = DIRECTION ( 'NONE',  ( -0.000000000000000000, 1.000000000000000000, -0.000000000000000000 ) ) ;
#686 = FACE_OUTER_BOUND ( 'NONE', #537, .T. ) ;
#687 = EDGE_LOOP ( 'NONE', ( #437, #844, #130, #783, #599, #80, #178, #396, #588, #740, #706, #168, #741 ) ) ;
#688 = ORIENTED_EDGE ( 'NONE', *, *, #496, .T. ) ;
#689 = CYLINDRICAL_SURFACE ( 'NONE', #834, 10.00000000000000000 ) ;
#690 = ADVANCED_FACE ( 'NONE', ( #140 ), #349, .F. ) ;
#691 = EDGE_LOOP ( 'NONE', ( #529, #489, #65, #245 ) ) ;
#692 = CARTESIAN_POINT ( 'NONE',  ( -13.59999999999999964, -1.377223398316195446, 25.00000000000000000 ) ) ;
#693 = CIRCLE ( 'NONE', #314, 10.00000000000000000 ) ;
#694 = AXIS2_PLACEMENT_3D ( 'NONE', #301, #769, #157 ) ;
#695 = DIRECTION ( 'NONE',  ( 1.486905836551548832E-16, -1.000000000000000000, 0.000000000000000000 ) ) ;
#696 = EDGE_CURVE ( 'NONE', #561, #218, #98, .T. ) ;
#697 = CARTESIAN_POINT ( 'NONE',  ( 20.49999999999999645, 25.00000000000000711, 0.000000000000000000 ) ) ;
#698 = ORIENTED_EDGE ( 'NONE', *, *, #739, .F. ) ;
#699 = CARTESIAN_POINT ( 'NONE',  ( 20.49999999999999645, 25.00000000000000711, 25.00000000000000000 ) ) ;
#700 = DIRECTION ( 'NONE',  ( -1.000000000000000000, 0.000000000000000000, 0.000000000000000000 ) ) ;
#701 = DIRECTION ( 'NONE',  ( 0.000000000000000000, -1.000000000000000000, 0.000000000000000000 ) ) ;
#702 = EDGE_LOOP ( 'NONE', ( #211, #235, #793, #299, #421, #756, #262, #816 ) ) ;
#703 = CARTESIAN_POINT ( 'NONE',  ( -11.78181818181818485, -7.126819144076895540, -41.73937840852242687 ) ) ;
#704 = EDGE_CURVE ( 'NONE', #451, #787, #195, .T. ) ;
#705 = DIRECTION ( 'NONE',  ( 0.000000000000000000, 1.000000000000000000, -0.000000000000000000 ) ) ;
#706 = ORIENTED_EDGE ( 'NONE', *, *, #337, .T. ) ;
#707 = APPLICATION_PROTOCOL_DEFINITION ( 'draft international standard', 'automotive_design', 1998, #478 ) ;
#708 = ADVANCED_FACE ( 'NONE', ( #120 ), #213, .F. ) ;
#709 = CIRCLE ( 'NONE', #326, 6.999999999999987566 ) ;
#710 = CARTESIAN_POINT ( 'NONE',  ( -8.712658649641733533, -29.99999999999999645, -41.73937840852242687 ) ) ;
#711 =( GEOMETRIC_REPRESENTATION_CONTEXT ( 3 ) GLOBAL_UNCERTAINTY_ASSIGNED_CONTEXT ( ( #546 ) ) GLOBAL_UNIT_ASSIGNED_CONTEXT ( ( #220, #357, #507 ) ) REPRESENTATION_CONTEXT ( 'NONE', 'WORKASPACE' ) );
#712 = DIRECTION ( 'NONE',  ( 0.000000000000000000, 0.000000000000000000, 1.000000000000000000 ) ) ;
#713 = ORIENTED_EDGE ( 'NONE', *, *, #715, .F. ) ;
#714 = CARTESIAN_POINT ( 'NONE',  ( 10.49999999999999822, -34.99999999999999289, 25.00000000000000000 ) ) ;
#715 = EDGE_CURVE ( 'NONE', #772, #265, #305, .T. ) ;
#716 =( NAMED_UNIT ( * ) SI_UNIT ( $, .STERADIAN. ) SOLID_ANGLE_UNIT ( ) );
#717 = CARTESIAN_POINT ( 'NONE',  ( -20.49999999999999289, -24.99999999999999289, 25.00000000000000000 ) ) ;
#718 = EDGE_CURVE ( 'NONE', #735, #451, #453, .T. ) ;
#719 = ORIENTED_EDGE ( 'NONE', *, *, #586, .T. ) ;
#720 = CARTESIAN_POINT ( 'NONE',  ( 10.49999999999999822, -34.99999999999999289, 25.00000000000000000 ) ) ;
#721 = CIRCLE ( 'NONE', #572, 6.999999999999993783 ) ;
#722 = AXIS2_PLACEMENT_3D ( 'NONE', #583, #179, #519 ) ;
#723 = ORIENTED_EDGE ( 'NONE', *, *, #536, .T. ) ;
#724 = CARTESIAN_POINT ( 'NONE',  ( -12.69999999999999929, 3.622776601683804554, 9.000000000000001776 ) ) ;
#725 = DIRECTION ( 'NONE',  ( -1.000000000000000000, 0.000000000000000000, 0.000000000000000000 ) ) ;
#726 = ORIENTED_EDGE ( 'NONE', *, *, #671, .F. ) ;
#727 = EDGE_CURVE ( 'NONE', #2, #532, #131, .T. ) ;
#728 = CARTESIAN_POINT ( 'NONE',  ( 11.78181818181818485, -7.126819144076885770, 9.000000000000001776 ) ) ;
#729 = CARTESIAN_POINT ( 'NONE',  ( 13.59999999999999964, 3.622776601683804554, 9.000000000000001776 ) ) ;
#730 = VERTEX_POINT ( 'NONE', #611 ) ;
#731 = LINE ( 'NONE', #538, #782 ) ;
#732 = DIRECTION ( 'NONE',  ( 1.000000000000000000, 0.000000000000000000, 0.000000000000000000 ) ) ;
#733 = CIRCLE ( 'NONE', #110, 10.00000000000000000 ) ;
#734 = VECTOR ( 'NONE', #38, 1000.000000000000000 ) ;
#735 = VERTEX_POINT ( 'NONE', #874 ) ;
#736 = ORIENTED_EDGE ( 'NONE', *, *, #544, .F. ) ;
#737 = FACE_OUTER_BOUND ( 'NONE', #626, .T. ) ;
#738 = FILL_AREA_STYLE ('',( #473 ) ) ;
#739 = EDGE_CURVE ( 'NONE', #310, #271, #279, .T. ) ;
#740 = ORIENTED_EDGE ( 'NONE', *, *, #810, .F. ) ;
#741 = ORIENTED_EDGE ( 'NONE', *, *, #821, .F. ) ;
#742 = CARTESIAN_POINT ( 'NONE',  ( -12.69999999999999929, 2.722776601683805087, 25.00000000000000000 ) ) ;
#743 = DIRECTION ( 'NONE',  ( 1.000000000000000000, 0.000000000000000000, 0.000000000000000000 ) ) ;
#744 = EDGE_CURVE ( 'NONE', #321, #51, #678, .T. ) ;
#745 = ORIENTED_EDGE ( 'NONE', *, *, #520, .F. ) ;
#746 = ORIENTED_EDGE ( 'NONE', *, *, #389, .T. ) ;
#747 = DIRECTION ( 'NONE',  ( -0.000000000000000000, 1.000000000000000000, -0.000000000000000000 ) ) ;
#748 = DIRECTION ( 'NONE',  ( 0.000000000000000000, 0.000000000000000000, 1.000000000000000000 ) ) ;
#749 = AXIS2_PLACEMENT_3D ( 'NONE', #575, #23, #504 ) ;
#750 = DIRECTION ( 'NONE',  ( 4.956352788505163391E-17, -1.000000000000000000, 0.000000000000000000 ) ) ;
#751 = VECTOR ( 'NONE', #45, 1000.000000000000000 ) ;
#752 = VERTEX_POINT ( 'NONE', #11 ) ;
#753 = DIRECTION ( 'NONE',  ( 1.000000000000000000, 0.000000000000000000, 0.000000000000000000 ) ) ;
#754 = DIRECTION ( 'NONE',  ( 0.000000000000000000, 0.000000000000000000, 1.000000000000000000 ) ) ;
#755 = ORIENTED_EDGE ( 'NONE', *, *, #652, .T. ) ;
#756 = ORIENTED_EDGE ( 'NONE', *, *, #281, .T. ) ;
#757 = DIRECTION ( 'NONE',  ( 0.000000000000000000, 0.000000000000000000, 1.000000000000000000 ) ) ;
#758 = ADVANCED_FACE ( 'NONE', ( #562 ), #236, .T. ) ;
#759 = DIRECTION ( 'NONE',  ( -0.000000000000000000, 0.000000000000000000, 1.000000000000000000 ) ) ;
#760 = CARTESIAN_POINT ( 'NONE',  ( -3.726740980846958262, -29.62499999999999645, 25.00000000000000000 ) ) ;
#761 = FACE_OUTER_BOUND ( 'NONE', #798, .T. ) ;
#762 = LINE ( 'NONE', #33, #597 ) ;
#763 = EDGE_CURVE ( 'NONE', #407, #72, #108, .T. ) ;
#764 = VERTEX_POINT ( 'NONE', #773 ) ;
#765 = VECTOR ( 'NONE', #67, 1000.000000000000000 ) ;
#766 = LINE ( 'NONE', #82, #288 ) ;
#767 = AXIS2_PLACEMENT_3D ( 'NONE', #96, #839, #373 ) ;
#768 = AXIS2_PLACEMENT_3D ( 'NONE', #676, #869, #673 ) ;
#769 = DIRECTION ( 'NONE',  ( -0.000000000000000000, 0.000000000000000000, 1.000000000000000000 ) ) ;
#770 = EDGE_CURVE ( 'NONE', #135, #407, #360, .T. ) ;
#771 = LINE ( 'NONE', #578, #454 ) ;
#772 = VERTEX_POINT ( 'NONE', #699 ) ;
#773 = CARTESIAN_POINT ( 'NONE',  ( 8.712658649641733533, -34.99999999999999289, 25.00000000000000000 ) ) ;
#774 = CARTESIAN_POINT ( 'NONE',  ( -8.712658649641733533, -34.99999999999999289, 25.00000000000000000 ) ) ;
#775 = CARTESIAN_POINT ( 'NONE',  ( 10.50000000000000000, -24.99999999999999289, 25.00000000000000000 ) ) ;
#776 = ORIENTED_EDGE ( 'NONE', *, *, #609, .T. ) ;
#777 = PLANE ( 'NONE',  #878 ) ;
#778 = FACE_OUTER_BOUND ( 'NONE', #368, .T. ) ;
#779 = ORIENTED_EDGE ( 'NONE', *, *, #536, .F. ) ;
#780 = DIRECTION ( 'NONE',  ( 0.000000000000000000, 0.000000000000000000, 1.000000000000000000 ) ) ;
#781 = LINE ( 'NONE', #177, #232 ) ;
#782 = VECTOR ( 'NONE', #63, 1000.000000000000000 ) ;
#783 = ORIENTED_EDGE ( 'NONE', *, *, #241, .T. ) ;
#784 = CARTESIAN_POINT ( 'NONE',  ( 11.78181818181818308, -7.126819144076884882, -41.73937840852242687 ) ) ;
#785 = EDGE_CURVE ( 'NONE', #81, #432, #557, .T. ) ;
#786 = DIRECTION ( 'NONE',  ( 0.000000000000000000, -0.000000000000000000, 1.000000000000000000 ) ) ;
#787 = VERTEX_POINT ( 'NONE', #369 ) ;
#788 = CARTESIAN_POINT ( 'NONE',  ( -10.50000000000000178, 25.00000000000000711, 25.00000000000000000 ) ) ;
#789 = AXIS2_PLACEMENT_3D ( 'NONE', #189, #640, #28 ) ;
#790 = DIRECTION ( 'NONE',  ( 0.000000000000000000, 0.000000000000000000, 1.000000000000000000 ) ) ;
#791 = AXIS2_PLACEMENT_3D ( 'NONE', #345, #3, #813 ) ;
#792 = EDGE_CURVE ( 'NONE', #197, #310, #555, .T. ) ;
#793 = ORIENTED_EDGE ( 'NONE', *, *, #224, .F. ) ;
#794 = ORIENTED_EDGE ( 'NONE', *, *, #296, .T. ) ;
#795 = CARTESIAN_POINT ( 'NONE',  ( -13.59999999999999964, -1.377223398316196334, -41.73937840852242687 ) ) ;
#796 = LINE ( 'NONE', #464, #525 ) ;
#797 = EDGE_CURVE ( 'NONE', #864, #242, #219, .T. ) ;
#798 = EDGE_LOOP ( 'NONE', ( #377, #115, #518, #469 ) ) ;
#799 = DIRECTION ( 'NONE',  ( 0.000000000000000000, -0.000000000000000000, -1.000000000000000000 ) ) ;
#800 = CARTESIAN_POINT ( 'NONE',  ( 20.49999999999999645, 35.00000000000000711, 0.000000000000000000 ) ) ;
#801 = ORIENTED_EDGE ( 'NONE', *, *, #821, .T. ) ;
#802 = DIRECTION ( 'NONE',  ( 1.000000000000000000, 0.000000000000000000, 0.000000000000000000 ) ) ;
#803 = EDGE_CURVE ( 'NONE', #598, #585, #276, .T. ) ;
#804 = DIRECTION ( 'NONE',  ( 0.000000000000000000, -0.000000000000000000, 1.000000000000000000 ) ) ;
#805 = AXIS2_PLACEMENT_3D ( 'NONE', #280, #620, #804 ) ;
#806 = ORIENTED_EDGE ( 'NONE', *, *, #803, .T. ) ;
#807 = ORIENTED_EDGE ( 'NONE', *, *, #513, .T. ) ;
#808 = DIRECTION ( 'NONE',  ( -0.000000000000000000, 1.000000000000000000, -0.000000000000000000 ) ) ;
#809 = DIRECTION ( 'NONE',  ( 1.000000000000000000, 0.000000000000000000, 0.000000000000000000 ) ) ;
#810 = EDGE_CURVE ( 'NONE', #165, #81, #638, .T. ) ;
#811 = DIRECTION ( 'NONE',  ( -0.000000000000000000, 0.000000000000000000, -1.000000000000000000 ) ) ;
#812 = ORIENTED_EDGE ( 'NONE', *, *, #602, .T. ) ;
#813 = DIRECTION ( 'NONE',  ( 1.000000000000000000, 0.000000000000000000, 0.000000000000000000 ) ) ;
#814 = DIRECTION ( 'NONE',  ( 1.000000000000000000, 0.000000000000000000, 0.000000000000000000 ) ) ;
#815 = ORIENTED_EDGE ( 'NONE', *, *, #344, .F. ) ;
#816 = ORIENTED_EDGE ( 'NONE', *, *, #344, .T. ) ;
#817 = CARTESIAN_POINT ( 'NONE',  ( 3.599999999999999201, -1.377223398316196334, 9.000000000000001776 ) ) ;
#818 = DIRECTION ( 'NONE',  ( 0.000000000000000000, 0.000000000000000000, -1.000000000000000000 ) ) ;
#819 = AXIS2_PLACEMENT_3D ( 'NONE', #531, #712, #523 ) ;
#820 = FACE_OUTER_BOUND ( 'NONE', #846, .T. ) ;
#821 = EDGE_CURVE ( 'NONE', #752, #681, #415, .T. ) ;
#822 = AXIS2_PLACEMENT_3D ( 'NONE', #124, #866, #408 ) ;
#823 = ORIENTED_EDGE ( 'NONE', *, *, #785, .T. ) ;
#824 = DIRECTION ( 'NONE',  ( 0.000000000000000000, -0.000000000000000000, 1.000000000000000000 ) ) ;
#825 = LINE ( 'NONE', #547, #500 ) ;
#826 = PRODUCT_RELATED_PRODUCT_CATEGORY ( 'part', '', ( #180 ) ) ;
#827 = ORIENTED_EDGE ( 'NONE', *, *, #146, .T. ) ;
#828 = DIRECTION ( 'NONE',  ( 0.000000000000000000, 0.000000000000000000, 1.000000000000000000 ) ) ;
#829 = ORIENTED_EDGE ( 'NONE', *, *, #792, .T. ) ;
#830 =( NAMED_UNIT ( * ) PLANE_ANGLE_UNIT ( ) SI_UNIT ( $, .RADIAN. ) );
#831 = DIRECTION ( 'NONE',  ( -1.000000000000000000, -0.000000000000000000, -0.000000000000000000 ) ) ;
#832 = ADVANCED_FACE ( 'NONE', ( #761 ), #689, .F. ) ;
#833 = LINE ( 'NONE', #233, #13 ) ;
#834 = AXIS2_PLACEMENT_3D ( 'NONE', #506, #494, #228 ) ;
#835 = AXIS2_PLACEMENT_3D ( 'NONE', #560, #364, #750 ) ;
#836 = DIRECTION ( 'NONE',  ( 0.000000000000000000, 0.000000000000000000, -1.000000000000000000 ) ) ;
#837 = VECTOR ( 'NONE', #786, 1000.000000000000000 ) ;
#838 = AXIS2_PLACEMENT_3D ( 'NONE', #136, #548, #352 ) ;
#839 = DIRECTION ( 'NONE',  ( -0.000000000000000000, 1.000000000000000000, -0.000000000000000000 ) ) ;
#840 = CYLINDRICAL_SURFACE ( 'NONE', #789, 6.999999999999990230 ) ;
#841 = ORIENTED_EDGE ( 'NONE', *, *, #770, .T. ) ;
#842 = CARTESIAN_POINT ( 'NONE',  ( -20.50000000000000355, 25.00000000000000711, 0.000000000000000000 ) ) ;
#843 = DIRECTION ( 'NONE',  ( 0.000000000000000000, 0.000000000000000000, 1.000000000000000000 ) ) ;
#844 = ORIENTED_EDGE ( 'NONE', *, *, #503, .T. ) ;
#845 = CARTESIAN_POINT ( 'NONE',  ( -20.50000000000000355, 35.00000000000000711, 25.00000000000000000 ) ) ;
#846 = EDGE_LOOP ( 'NONE', ( #479, #465, #295, #726 ) ) ;
#847 = SHAPE_DEFINITION_REPRESENTATION ( #606, #79 ) ;
#848 = ADVANCED_FACE ( 'NONE', ( #156 ), #628, .T. ) ;
#849 = DIRECTION ( 'NONE',  ( 0.000000000000000000, 0.000000000000000000, 1.000000000000000000 ) ) ;
#850 = CIRCLE ( 'NONE', #69, 10.00000000000000000 ) ;
#851 = VERTEX_POINT ( 'NONE', #300 ) ;
#852 = EDGE_CURVE ( 'NONE', #138, #201, #53, .T. ) ;
#853 = DIRECTION ( 'NONE',  ( -0.000000000000000000, 0.000000000000000000, 1.000000000000000000 ) ) ;
#854 = EDGE_LOOP ( 'NONE', ( #675, #736, #106, #222 ) ) ;
#855 = DIRECTION ( 'NONE',  ( -0.000000000000000000, -0.000000000000000000, -1.000000000000000000 ) ) ;
#856 = FACE_OUTER_BOUND ( 'NONE', #603, .T. ) ;
#857 = EDGE_CURVE ( 'NONE', #265, #321, #766, .T. ) ;
#858 = ORIENTED_EDGE ( 'NONE', *, *, #139, .T. ) ;
#859 = CARTESIAN_POINT ( 'NONE',  ( 20.50000000000000000, -24.99999999999999289, 25.00000000000000000 ) ) ;
#860 = AXIS2_PLACEMENT_3D ( 'NONE', #238, #790, #324 ) ;
#861 = DIRECTION ( 'NONE',  ( 0.000000000000000000, 0.000000000000000000, 1.000000000000000000 ) ) ;
#862 = VECTOR ( 'NONE', #669, 1000.000000000000000 ) ;
#863 = EDGE_CURVE ( 'NONE', #462, #24, #485, .T. ) ;
#864 = VERTEX_POINT ( 'NONE', #293 ) ;
#865 = ORIENTED_EDGE ( 'NONE', *, *, #158, .F. ) ;
#866 = DIRECTION ( 'NONE',  ( 0.000000000000000000, -1.000000000000000000, 0.000000000000000000 ) ) ;
#867 = PLANE ( 'NONE',  #805 ) ;
#868 = ORIENTED_EDGE ( 'NONE', *, *, #566, .T. ) ;
#869 = DIRECTION ( 'NONE',  ( -0.000000000000000000, 1.000000000000000000, -0.000000000000000000 ) ) ;
#870 = CARTESIAN_POINT ( 'NONE',  ( -3.712658649641734421, -29.99999999999999645, 25.00000000000000000 ) ) ;
#871 = EDGE_LOOP ( 'NONE', ( #154, #614, #336, #14 ) ) ;
#872 = EDGE_CURVE ( 'NONE', #561, #618, #223, .T. ) ;
#873 = ORIENTED_EDGE ( 'NONE', *, *, #852, .F. ) ;
#874 = CARTESIAN_POINT ( 'NONE',  ( 12.69999999999999751, 3.622776601683804554, 25.00000000000000000 ) ) ;
#875 = VECTOR ( 'NONE', #747, 1000.000000000000000 ) ;
#876 = DIRECTION ( 'NONE',  ( 1.000000000000000000, 0.000000000000000000, 0.000000000000000000 ) ) ;
#877 = AXIS2_PLACEMENT_3D ( 'NONE', #252, #259, #298 ) ;
#878 = AXIS2_PLACEMENT_3D ( 'NONE', #188, #517, #35 ) ;
ENDSEC;
END-ISO-10303-21;
