ISO-10303-21;
HEADER;
FILE_DESCRIPTION (( 'STEP AP214' ),
    '1' );
FILE_NAME ('Tensile_3mm_15mm.STEP',
    '2026-05-31T01:21:42',
    ( '' ),
    ( '' ),
    'SwSTEP 2.0',
    'SolidWorks 2025',
    '' );
FILE_SCHEMA (( 'AUTOMOTIVE_DESIGN' ));
ENDSEC;

DATA;
#1 = DIRECTION ( 'NONE',  ( -1.000000000000000000, 0.000000000000000000, 0.000000000000000000 ) ) ;
#2 = CARTESIAN_POINT ( 'NONE',  ( 3.527031964372276285, 30.00000000000000000, 15.00000000000000000 ) ) ;
#3 = CARTESIAN_POINT ( 'NONE',  ( -3.527031964372290496, 29.50000000000000000, 15.00000000000000000 ) ) ;
#4 = CIRCLE ( 'NONE', #432, 0.5000000000000004441 ) ;
#5 = DIRECTION ( 'NONE',  ( 0.000000000000000000, 0.000000000000000000, -1.000000000000000000 ) ) ;
#6 = VECTOR ( 'NONE', #519, 1000.000000000000000 ) ;
#7 = VERTEX_POINT ( 'NONE', #254 ) ;
#8 = CIRCLE ( 'NONE', #247, 76.00000000000000000 ) ;
#9 = EDGE_CURVE ( 'NONE', #250, #154, #50, .T. ) ;
#10 = CIRCLE ( 'NONE', #458, 76.00000000000000000 ) ;
#11 = FACE_OUTER_BOUND ( 'NONE', #167, .T. ) ;
#12 = DIRECTION ( 'NONE',  ( -4.082155997157840121E-17, 1.000000000000000000, 0.000000000000000000 ) ) ;
#13 = ORIENTED_EDGE ( 'NONE', *, *, #445, .T. ) ;
#14 = DIRECTION ( 'NONE',  ( -0.000000000000000000, -0.000000000000000000, -1.000000000000000000 ) ) ;
#15 = ADVANCED_FACE ( 'NONE', ( #132 ), #513, .T. ) ;
#16 = DIRECTION ( 'NONE',  ( 0.000000000000000000, 0.000000000000000000, 1.000000000000000000 ) ) ;
#17 = EDGE_CURVE ( 'NONE', #313, #154, #97, .T. ) ;
#18 = CARTESIAN_POINT ( 'NONE',  ( -1.500000000000000444, 10.00000000000000000, 0.000000000000000000 ) ) ;
#19 = ORIENTED_EDGE ( 'NONE', *, *, #445, .F. ) ;
#20 = DIRECTION ( 'NONE',  ( -1.000000000000000000, 0.000000000000000000, 0.000000000000000000 ) ) ;
#21 = EDGE_CURVE ( 'NONE', #206, #313, #47, .T. ) ;
#22 = CARTESIAN_POINT ( 'NONE',  ( -3.527031964372290496, -29.50000000000000000, 15.00000000000000000 ) ) ;
#23 = CARTESIAN_POINT ( 'NONE',  ( -3.527031964372290496, 29.50000000000000000, 0.000000000000000000 ) ) ;
#24 = AXIS2_PLACEMENT_3D ( 'NONE', #490, #37, #205 ) ;
#25 = ORIENTED_EDGE ( 'NONE', *, *, #472, .T. ) ;
#26 = CARTESIAN_POINT ( 'NONE',  ( 3.527031964372276285, 29.50000000000000000, 0.000000000000000000 ) ) ;
#27 = ORIENTED_EDGE ( 'NONE', *, *, #147, .T. ) ;
#28 = FILL_AREA_STYLE ('',( #365 ) ) ;
#29 = EDGE_CURVE ( 'NONE', #466, #130, #359, .T. ) ;
#30 = ORIENTED_EDGE ( 'NONE', *, *, #352, .F. ) ;
#31 = CIRCLE ( 'NONE', #150, 76.00000000000000000 ) ;
#32 = CARTESIAN_POINT ( 'NONE',  ( 1.500000000000000000, -10.00000000000000000, 0.000000000000000000 ) ) ;
#33 = CIRCLE ( 'NONE', #347, 0.5000000000000004441 ) ;
#34 = ORIENTED_EDGE ( 'NONE', *, *, #123, .T. ) ;
#35 = DIRECTION ( 'NONE',  ( -1.000000000000000000, 0.000000000000000000, 0.000000000000000000 ) ) ;
#36 = ORIENTED_EDGE ( 'NONE', *, *, #325, .T. ) ;
#37 = DIRECTION ( 'NONE',  ( -0.000000000000000000, -0.000000000000000000, -1.000000000000000000 ) ) ;
#38 = ORIENTED_EDGE ( 'NONE', *, *, #9, .F. ) ;
#39 = FACE_OUTER_BOUND ( 'NONE', #281, .T. ) ;
#40 = AXIS2_PLACEMENT_3D ( 'NONE', #106, #198, #202 ) ;
#41 = ORIENTED_EDGE ( 'NONE', *, *, #208, .F. ) ;
#42 = DIRECTION ( 'NONE',  ( -0.000000000000000000, 0.000000000000000000, -1.000000000000000000 ) ) ;
#43 = DIRECTION ( 'NONE',  ( -1.000000000000000000, -4.082155997157840121E-17, 0.000000000000000000 ) ) ;
#44 = VERTEX_POINT ( 'NONE', #277 ) ;
#45 = PRODUCT ( 'Tensile_3mm_15mm', 'Tensile_3mm_15mm', '', ( #392 ) ) ;
#46 = CARTESIAN_POINT ( 'NONE',  ( 4.178788880706563624, 30.00000000000000000, 0.000000000000000000 ) ) ;
#47 = LINE ( 'NONE', #60, #207 ) ;
#48 = EDGE_CURVE ( 'NONE', #415, #7, #523, .T. ) ;
#49 = DIRECTION ( 'NONE',  ( -0.000000000000000000, -0.000000000000000000, -1.000000000000000000 ) ) ;
#50 = LINE ( 'NONE', #268, #133 ) ;
#51 = AXIS2_PLACEMENT_3D ( 'NONE', #262, #171, #210 ) ;
#52 = CARTESIAN_POINT ( 'NONE',  ( 3.527031964372276285, -30.00000000000000000, 15.00000000000000000 ) ) ;
#53 = ORIENTED_EDGE ( 'NONE', *, *, #479, .F. ) ;
#54 = CARTESIAN_POINT ( 'NONE',  ( -77.50000000000000000, 9.999999999999996447, 15.00000000000000000 ) ) ;
#55 = DIRECTION ( 'NONE',  ( 1.000000000000000000, -4.565061778886334167E-17, 0.000000000000000000 ) ) ;
#56 = EDGE_LOOP ( 'NONE', ( #372, #89, #388, #297 ) ) ;
#57 = AXIS2_PLACEMENT_3D ( 'NONE', #189, #145, #110 ) ;
#58 = CIRCLE ( 'NONE', #105, 0.5000000000000000000 ) ;
#59 = DIRECTION ( 'NONE',  ( -0.000000000000000000, 0.000000000000000000, -1.000000000000000000 ) ) ;
#60 = CARTESIAN_POINT ( 'NONE',  ( 4.178788880706563624, -30.00000000000000000, 0.000000000000000000 ) ) ;
#61 = LINE ( 'NONE', #320, #188 ) ;
#62 = ORIENTED_EDGE ( 'NONE', *, *, #510, .T. ) ;
#63 = VECTOR ( 'NONE', #448, 1000.000000000000000 ) ;
#64 = VECTOR ( 'NONE', #90, 1000.000000000000000 ) ;
#65 = ORIENTED_EDGE ( 'NONE', *, *, #385, .T. ) ;
#66 = FACE_OUTER_BOUND ( 'NONE', #95, .T. ) ;
#67 = ADVANCED_BREP_SHAPE_REPRESENTATION ( 'Tensile_3mm_15mm', ( #265, #324 ), #492 ) ;
#68 = ORIENTED_EDGE ( 'NONE', *, *, #175, .T. ) ;
#69 = LINE ( 'NONE', #244, #63 ) ;
#70 = ORIENTED_EDGE ( 'NONE', *, *, #316, .T. ) ;
#71 = FACE_OUTER_BOUND ( 'NONE', #285, .T. ) ;
#72 = EDGE_CURVE ( 'NONE', #144, #415, #229, .T. ) ;
#73 = ORIENTED_EDGE ( 'NONE', *, *, #414, .T. ) ;
#74 =( LENGTH_UNIT ( ) NAMED_UNIT ( * ) SI_UNIT ( .MILLI., .METRE. ) );
#75 = ORIENTED_EDGE ( 'NONE', *, *, #199, .F. ) ;
#76 = ADVANCED_FACE ( 'NONE', ( #181 ), #470, .T. ) ;
#77 = DIRECTION ( 'NONE',  ( 0.000000000000000000, -1.000000000000000000, 0.000000000000000000 ) ) ;
#78 = ORIENTED_EDGE ( 'NONE', *, *, #364, .F. ) ;
#79 = DIRECTION ( 'NONE',  ( 0.000000000000000000, 0.000000000000000000, 1.000000000000000000 ) ) ;
#80 = DIRECTION ( 'NONE',  ( 0.000000000000000000, 0.000000000000000000, 1.000000000000000000 ) ) ;
#81 = ORIENTED_EDGE ( 'NONE', *, *, #21, .T. ) ;
#82 = AXIS2_PLACEMENT_3D ( 'NONE', #454, #79, #1 ) ;
#83 = EDGE_CURVE ( 'NONE', #466, #153, #219, .T. ) ;
#84 = CARTESIAN_POINT ( 'NONE',  ( 1.500000000000000000, 10.00000000000000000, 15.00000000000000000 ) ) ;
#85 = PLANE ( 'NONE',  #315 ) ;
#86 = DIRECTION ( 'NONE',  ( -0.000000000000000000, -0.000000000000000000, -1.000000000000000000 ) ) ;
#87 = DIRECTION ( 'NONE',  ( -1.000000000000000000, 0.000000000000000000, 0.000000000000000000 ) ) ;
#88 = LINE ( 'NONE', #420, #174 ) ;
#89 = ORIENTED_EDGE ( 'NONE', *, *, #48, .T. ) ;
#90 = DIRECTION ( 'NONE',  ( -1.000000000000000000, 0.000000000000000000, 0.000000000000000000 ) ) ;
#91 = ORIENTED_EDGE ( 'NONE', *, *, #251, .T. ) ;
#92 = AXIS2_PLACEMENT_3D ( 'NONE', #339, #102, #438 ) ;
#93 = DIRECTION ( 'NONE',  ( -0.000000000000000000, 0.000000000000000000, -1.000000000000000000 ) ) ;
#94 = DIRECTION ( 'NONE',  ( -1.000000000000000000, 0.000000000000000000, 0.000000000000000000 ) ) ;
#95 = EDGE_LOOP ( 'NONE', ( #413, #78, #103, #75 ) ) ;
#96 = CARTESIAN_POINT ( 'NONE',  ( -1.500000000000000444, -10.00000000000000000, 15.00000000000000000 ) ) ;
#97 = CIRCLE ( 'NONE', #169, 0.5000000000000004441 ) ;
#98 = CIRCLE ( 'NONE', #115, 0.5000000000000000000 ) ;
#99 = DIRECTION ( 'NONE',  ( -1.000000000000000000, 0.000000000000000000, 0.000000000000000000 ) ) ;
#100 = CARTESIAN_POINT ( 'NONE',  ( -1.500000000000000000, -6.123233995736761105E-17, 0.000000000000000000 ) ) ;
#101 = SURFACE_STYLE_USAGE ( .BOTH. , #363 ) ;
#102 = DIRECTION ( 'NONE',  ( -0.000000000000000000, 0.000000000000000000, -1.000000000000000000 ) ) ;
#103 = ORIENTED_EDGE ( 'NONE', *, *, #346, .F. ) ;
#104 = EDGE_CURVE ( 'NONE', #227, #44, #8, .T. ) ;
#105 = AXIS2_PLACEMENT_3D ( 'NONE', #499, #350, #263 ) ;
#106 = CARTESIAN_POINT ( 'NONE',  ( 1.500000000000000000, 0.000000000000000000, 15.00000000000000000 ) ) ;
#107 = ORIENTED_EDGE ( 'NONE', *, *, #476, .T. ) ;
#108 = CARTESIAN_POINT ( 'NONE',  ( -77.50000000000000000, 9.999999999999996447, 0.000000000000000000 ) ) ;
#109 = ORIENTED_EDGE ( 'NONE', *, *, #201, .T. ) ;
#110 = DIRECTION ( 'NONE',  ( -1.000000000000000000, 0.000000000000000000, 0.000000000000000000 ) ) ;
#111 = ORIENTED_EDGE ( 'NONE', *, *, #453, .T. ) ;
#112 = CIRCLE ( 'NONE', #321, 76.00000000000000000 ) ;
#113 = DIRECTION ( 'NONE',  ( -0.000000000000000000, -0.000000000000000000, -1.000000000000000000 ) ) ;
#114 = PRODUCT_RELATED_PRODUCT_CATEGORY ( 'part', '', ( #45 ) ) ;
#115 = AXIS2_PLACEMENT_3D ( 'NONE', #241, #378, #159 ) ;
#116 = ORIENTED_EDGE ( 'NONE', *, *, #387, .T. ) ;
#117 = CARTESIAN_POINT ( 'NONE',  ( 3.527031964372276285, -30.00000000000000000, 15.00000000000000000 ) ) ;
#118 = DIRECTION ( 'NONE',  ( -0.000000000000000000, -0.000000000000000000, -1.000000000000000000 ) ) ;
#119 = EDGE_LOOP ( 'NONE', ( #195, #485, #418, #337 ) ) ;
#120 = DIRECTION ( 'NONE',  ( -0.000000000000000000, -0.000000000000000000, -1.000000000000000000 ) ) ;
#121 = DIRECTION ( 'NONE',  ( -1.000000000000000000, 0.000000000000000000, 0.000000000000000000 ) ) ;
#122 = ORIENTED_EDGE ( 'NONE', *, *, #528, .F. ) ;
#123 = EDGE_CURVE ( 'NONE', #294, #466, #186, .T. ) ;
#124 = EDGE_CURVE ( 'NONE', #530, #227, #61, .T. ) ;
#125 = CARTESIAN_POINT ( 'NONE',  ( -4.010515415585544474, -29.37254901960784181, 15.00000000000000000 ) ) ;
#126 = DIRECTION ( 'NONE',  ( -1.000000000000000000, 0.000000000000000000, 0.000000000000000000 ) ) ;
#127 = AXIS2_PLACEMENT_3D ( 'NONE', #129, #299, #121 ) ;
#128 = CARTESIAN_POINT ( 'NONE',  ( -3.527031964372290496, -30.00000000000000000, 0.000000000000000000 ) ) ;
#129 = CARTESIAN_POINT ( 'NONE',  ( 77.50000000000000000, 10.00000000000000000, 15.00000000000000000 ) ) ;
#130 = VERTEX_POINT ( 'NONE', #18 ) ;
#131 = DIRECTION ( 'NONE',  ( 0.000000000000000000, -0.000000000000000000, 1.000000000000000000 ) ) ;
#132 = FACE_OUTER_BOUND ( 'NONE', #379, .T. ) ;
#133 = VECTOR ( 'NONE', #351, 1000.000000000000000 ) ;
#134 = DIRECTION ( 'NONE',  ( 1.000000000000000000, 4.565061778886334167E-17, 0.000000000000000000 ) ) ;
#135 = PRODUCT_DEFINITION ( 'UNKNOWN', '', #447, #261 ) ;
#136 = FACE_OUTER_BOUND ( 'NONE', #452, .T. ) ;
#137 = DIRECTION ( 'NONE',  ( -0.000000000000000000, 0.000000000000000000, -1.000000000000000000 ) ) ;
#138 = CARTESIAN_POINT ( 'NONE',  ( 77.50000000000000000, 10.00000000000000000, 0.000000000000000000 ) ) ;
#139 = VECTOR ( 'NONE', #494, 1000.000000000000000 ) ;
#140 = CARTESIAN_POINT ( 'NONE',  ( 3.527031964372276285, -30.00000000000000000, 0.000000000000000000 ) ) ;
#141 = APPLICATION_CONTEXT ( 'automotive_design' ) ;
#142 = EDGE_CURVE ( 'NONE', #530, #441, #112, .T. ) ;
#143 = PRESENTATION_STYLE_ASSIGNMENT (( #101 ) ) ;
#144 = VERTEX_POINT ( 'NONE', #356 ) ;
#145 = DIRECTION ( 'NONE',  ( 0.000000000000000000, 0.000000000000000000, 1.000000000000000000 ) ) ;
#146 = CARTESIAN_POINT ( 'NONE',  ( -1.500000000000000000, -6.123233995736761105E-17, 15.00000000000000000 ) ) ;
#147 = EDGE_CURVE ( 'NONE', #239, #306, #31, .T. ) ;
#148 = ORIENTED_EDGE ( 'NONE', *, *, #104, .T. ) ;
#149 = CLOSED_SHELL ( 'NONE', ( #15, #76, #255, #496, #366, #360, #190, #164, #467, #179, #373, #376, #223, #436, #406, #307 ) ) ;
#150 = AXIS2_PLACEMENT_3D ( 'NONE', #54, #318, #134 ) ;
#151 = AXIS2_PLACEMENT_3D ( 'NONE', #26, #287, #487 ) ;
#152 = CYLINDRICAL_SURFACE ( 'NONE', #535, 0.5000000000000004441 ) ;
#153 = VERTEX_POINT ( 'NONE', #398 ) ;
#154 = VERTEX_POINT ( 'NONE', #272 ) ;
#155 = LINE ( 'NONE', #329, #371 ) ;
#156 = EDGE_LOOP ( 'NONE', ( #517, #36, #178, #446 ) ) ;
#157 = VECTOR ( 'NONE', #477, 1000.000000000000000 ) ;
#158 = LINE ( 'NONE', #117, #139 ) ;
#159 = DIRECTION ( 'NONE',  ( -1.000000000000000000, 0.000000000000000000, 0.000000000000000000 ) ) ;
#160 = ORIENTED_EDGE ( 'NONE', *, *, #278, .F. ) ;
#161 = DIRECTION ( 'NONE',  ( -0.000000000000000000, 0.000000000000000000, -1.000000000000000000 ) ) ;
#162 = LINE ( 'NONE', #46, #170 ) ;
#163 = ORIENTED_EDGE ( 'NONE', *, *, #352, .T. ) ;
#164 = ADVANCED_FACE ( 'NONE', ( #516 ), #185, .F. ) ;
#165 = DIRECTION ( 'NONE',  ( -1.000000000000000000, 0.000000000000000000, 0.000000000000000000 ) ) ;
#166 = CARTESIAN_POINT ( 'NONE',  ( -1.500000000000000444, -10.00000000000000000, 0.000000000000000000 ) ) ;
#167 = EDGE_LOOP ( 'NONE', ( #163, #203, #116, #389, #73, #402, #68, #173, #382, #425, #70, #200, #349, #19 ) ) ;
#168 = AXIS2_PLACEMENT_3D ( 'NONE', #368, #113, #35 ) ;
#169 = AXIS2_PLACEMENT_3D ( 'NONE', #461, #86, #423 ) ;
#170 = VECTOR ( 'NONE', #177, 1000.000000000000000 ) ;
#171 = DIRECTION ( 'NONE',  ( -0.000000000000000000, -0.000000000000000000, -1.000000000000000000 ) ) ;
#172 = CARTESIAN_POINT ( 'NONE',  ( -4.010515415585516941, -29.37254901960784892, 15.00000000000000000 ) ) ;
#173 = ORIENTED_EDGE ( 'NONE', *, *, #243, .T. ) ;
#174 = VECTOR ( 'NONE', #451, 1000.000000000000000 ) ;
#175 = EDGE_CURVE ( 'NONE', #530, #405, #518, .T. ) ;
#176 = DIRECTION ( 'NONE',  ( -1.000000000000000000, 0.000000000000000000, 0.000000000000000000 ) ) ;
#177 = DIRECTION ( 'NONE',  ( -1.000000000000000000, 0.000000000000000000, 0.000000000000000000 ) ) ;
#178 = ORIENTED_EDGE ( 'NONE', *, *, #21, .F. ) ;
#179 = ADVANCED_FACE ( 'NONE', ( #235 ), #473, .F. ) ;
#180 = LINE ( 'NONE', #384, #64 ) ;
#181 = FACE_OUTER_BOUND ( 'NONE', #480, .T. ) ;
#182 = DIRECTION ( 'NONE',  ( 0.000000000000000000, -0.000000000000000000, 1.000000000000000000 ) ) ;
#183 = PRESENTATION_LAYER_ASSIGNMENT (  '', '', ( #354 ) ) ;
#184 = ORIENTED_EDGE ( 'NONE', *, *, #9, .T. ) ;
#185 = CYLINDRICAL_SURFACE ( 'NONE', #291, 76.00000000000000000 ) ;
#186 = LINE ( 'NONE', #96, #400 ) ;
#187 = DIRECTION ( 'NONE',  ( -1.000000000000000000, 0.000000000000000000, 0.000000000000000000 ) ) ;
#188 = VECTOR ( 'NONE', #93, 1000.000000000000000 ) ;
#189 = CARTESIAN_POINT ( 'NONE',  ( -3.527031964372290496, 29.50000000000000000, 15.00000000000000000 ) ) ;
#190 = ADVANCED_FACE ( 'NONE', ( #136 ), #434, .T. ) ;
#191 = SURFACE_STYLE_FILL_AREA ( #28 ) ;
#192 = LINE ( 'NONE', #146, #411 ) ;
#193 = ORIENTED_EDGE ( 'NONE', *, *, #453, .F. ) ;
#194 = CARTESIAN_POINT ( 'NONE',  ( -4.010515415585544474, 29.37254901960784181, 15.00000000000000000 ) ) ;
#195 = ORIENTED_EDGE ( 'NONE', *, *, #142, .T. ) ;
#196 = AXIS2_PLACEMENT_3D ( 'NONE', #22, #271, #471 ) ;
#197 = CIRCLE ( 'NONE', #82, 0.5000000000000004441 ) ;
#198 = DIRECTION ( 'NONE',  ( -1.000000000000000000, 0.000000000000000000, 0.000000000000000000 ) ) ;
#199 = EDGE_CURVE ( 'NONE', #441, #44, #234, .T. ) ;
#200 = ORIENTED_EDGE ( 'NONE', *, *, #278, .T. ) ;
#201 = EDGE_CURVE ( 'NONE', #260, #439, #426, .T. ) ;
#202 = DIRECTION ( 'NONE',  ( 0.000000000000000000, 0.000000000000000000, 1.000000000000000000 ) ) ;
#203 = ORIENTED_EDGE ( 'NONE', *, *, #528, .T. ) ;
#204 = CARTESIAN_POINT ( 'NONE',  ( -77.50000000000000000, -9.999999999999996447, 15.00000000000000000 ) ) ;
#205 = DIRECTION ( 'NONE',  ( -1.000000000000000000, 0.000000000000000000, 0.000000000000000000 ) ) ;
#206 = VERTEX_POINT ( 'NONE', #140 ) ;
#207 = VECTOR ( 'NONE', #94, 1000.000000000000000 ) ;
#208 = EDGE_CURVE ( 'NONE', #130, #260, #491, .T. ) ;
#209 = AXIS2_PLACEMENT_3D ( 'NONE', #273, #230, #20 ) ;
#210 = DIRECTION ( 'NONE',  ( -1.000000000000000000, 0.000000000000000000, 0.000000000000000000 ) ) ;
#211 = AXIS2_PLACEMENT_3D ( 'NONE', #383, #252, #377 ) ;
#212 = APPLICATION_PROTOCOL_DEFINITION ( 'draft international standard', 'automotive_design', 1998, #141 ) ;
#213 = VERTEX_POINT ( 'NONE', #327 ) ;
#214 = DIRECTION ( 'NONE',  ( -0.000000000000000000, -0.000000000000000000, -1.000000000000000000 ) ) ;
#215 = LINE ( 'NONE', #2, #305 ) ;
#216 = ORIENTED_EDGE ( 'NONE', *, *, #476, .F. ) ;
#217 = CARTESIAN_POINT ( 'NONE',  ( -4.027031964372290496, 29.50000000000000000, 15.00000000000000000 ) ) ;
#218 = ORIENTED_EDGE ( 'NONE', *, *, #124, .T. ) ;
#219 = CIRCLE ( 'NONE', #506, 76.00000000000000000 ) ;
#220 = CARTESIAN_POINT ( 'NONE',  ( -1.500000000000000444, 10.00000000000000000, 15.00000000000000000 ) ) ;
#221 = DIRECTION ( 'NONE',  ( -0.000000000000000000, -0.000000000000000000, -1.000000000000000000 ) ) ;
#222 = VERTEX_POINT ( 'NONE', #409 ) ;
#223 = ADVANCED_FACE ( 'NONE', ( #478 ), #152, .T. ) ;
#224 =( NAMED_UNIT ( * ) PLANE_ANGLE_UNIT ( ) SI_UNIT ( $, .RADIAN. ) );
#225 = EDGE_LOOP ( 'NONE', ( #38, #122, #216, #310 ) ) ;
#226 = CARTESIAN_POINT ( 'NONE',  ( -77.50000000000000000, 9.999999999999996447, 15.00000000000000000 ) ) ;
#227 = VERTEX_POINT ( 'NONE', #32 ) ;
#228 = APPLICATION_CONTEXT ( 'automotive_design' ) ;
#229 = CIRCLE ( 'NONE', #246, 76.00000000000000000 ) ;
#230 = DIRECTION ( 'NONE',  ( -0.000000000000000000, 0.000000000000000000, -1.000000000000000000 ) ) ;
#231 = MECHANICAL_DESIGN_GEOMETRIC_PRESENTATION_REPRESENTATION (  '', ( #354 ), #457 ) ;
#232 = VECTOR ( 'NONE', #42, 1000.000000000000000 ) ;
#233 = DIRECTION ( 'NONE',  ( -0.000000000000000000, 0.000000000000000000, -1.000000000000000000 ) ) ;
#234 = LINE ( 'NONE', #358, #330 ) ;
#235 = FACE_OUTER_BOUND ( 'NONE', #119, .T. ) ;
#236 = AXIS2_PLACEMENT_3D ( 'NONE', #23, #353, #187 ) ;
#237 = DIRECTION ( 'NONE',  ( -0.000000000000000000, -0.000000000000000000, 1.000000000000000000 ) ) ;
#238 = CARTESIAN_POINT ( 'NONE',  ( 4.010515415585530263, -29.37254901960784181, 15.00000000000000000 ) ) ;
#239 = VERTEX_POINT ( 'NONE', #336 ) ;
#240 =( NAMED_UNIT ( * ) PLANE_ANGLE_UNIT ( ) SI_UNIT ( $, .RADIAN. ) );
#241 = CARTESIAN_POINT ( 'NONE',  ( 3.527031964372276285, -29.50000000000000000, 15.00000000000000000 ) ) ;
#242 = ORIENTED_EDGE ( 'NONE', *, *, #29, .T. ) ;
#243 = EDGE_CURVE ( 'NONE', #405, #7, #266, .T. ) ;
#244 = CARTESIAN_POINT ( 'NONE',  ( 1.500000000000000000, 0.000000000000000000, 0.000000000000000000 ) ) ;
#245 = ORIENTED_EDGE ( 'NONE', *, *, #175, .F. ) ;
#246 = AXIS2_PLACEMENT_3D ( 'NONE', #138, #393, #429 ) ;
#247 = AXIS2_PLACEMENT_3D ( 'NONE', #435, #322, #475 ) ;
#248 = DIRECTION ( 'NONE',  ( -0.000000000000000000, 0.000000000000000000, -1.000000000000000000 ) ) ;
#249 = ORIENTED_EDGE ( 'NONE', *, *, #403, .F. ) ;
#250 = VERTEX_POINT ( 'NONE', #279 ) ;
#251 = EDGE_CURVE ( 'NONE', #227, #144, #69, .T. ) ;
#252 = DIRECTION ( 'NONE',  ( -0.000000000000000000, 0.000000000000000000, -1.000000000000000000 ) ) ;
#253 = DIRECTION ( 'NONE',  ( -1.000000000000000000, 0.000000000000000000, 0.000000000000000000 ) ) ;
#254 = CARTESIAN_POINT ( 'NONE',  ( 4.010515415585530263, 29.37254901960784181, 15.00000000000000000 ) ) ;
#255 = ADVANCED_FACE ( 'NONE', ( #524 ), #531, .F. ) ;
#256 = CARTESIAN_POINT ( 'NONE',  ( -4.010515415585516941, 29.37254901960784892, 15.00000000000000000 ) ) ;
#257 = CARTESIAN_POINT ( 'NONE',  ( 1.500000000000000000, -10.00000000000000000, 15.00000000000000000 ) ) ;
#258 = VERTEX_POINT ( 'NONE', #437 ) ;
#259 = CARTESIAN_POINT ( 'NONE',  ( 4.178788880706563624, -30.00000000000000000, 15.00000000000000000 ) ) ;
#260 = VERTEX_POINT ( 'NONE', #401 ) ;
#261 = PRODUCT_DEFINITION_CONTEXT ( 'detailed design', #228, 'design' ) ;
#262 = CARTESIAN_POINT ( 'NONE',  ( 3.527031964372276285, -29.50000000000000000, 0.000000000000000000 ) ) ;
#263 = DIRECTION ( 'NONE',  ( -1.000000000000000000, 0.000000000000000000, 0.000000000000000000 ) ) ;
#264 = ORIENTED_EDGE ( 'NONE', *, *, #275, .F. ) ;
#265 = MANIFOLD_SOLID_BREP ( 'Fillet1', #149 ) ;
#266 = CIRCLE ( 'NONE', #314, 76.00000000000000000 ) ;
#267 = CARTESIAN_POINT ( 'NONE',  ( -4.027031964372290496, 29.50000000000000000, 15.00000000000000000 ) ) ;
#268 = CARTESIAN_POINT ( 'NONE',  ( -4.027031964372290496, -29.50000000000000000, 15.00000000000000000 ) ) ;
#269 = CIRCLE ( 'NONE', #51, 0.5000000000000000000 ) ;
#270 = APPLICATION_PROTOCOL_DEFINITION ( 'draft international standard', 'automotive_design', 1998, #228 ) ;
#271 = DIRECTION ( 'NONE',  ( -0.000000000000000000, 0.000000000000000000, -1.000000000000000000 ) ) ;
#272 = CARTESIAN_POINT ( 'NONE',  ( -4.027031964372290496, -29.50000000000000000, 0.000000000000000000 ) ) ;
#273 = CARTESIAN_POINT ( 'NONE',  ( 77.50000000000000000, -10.00000000000000000, 15.00000000000000000 ) ) ;
#274 = CIRCLE ( 'NONE', #469, 0.5000000000000004441 ) ;
#275 = EDGE_CURVE ( 'NONE', #532, #415, #395, .T. ) ;
#276 = DIRECTION ( 'NONE',  ( -1.000000000000000000, 0.000000000000000000, 0.000000000000000000 ) ) ;
#277 = CARTESIAN_POINT ( 'NONE',  ( 4.010515415585530263, -29.37254901960784181, 0.000000000000000000 ) ) ;
#278 = EDGE_CURVE ( 'NONE', #497, #306, #303, .T. ) ;
#279 = CARTESIAN_POINT ( 'NONE',  ( -4.027031964372290496, -29.50000000000000000, 15.00000000000000000 ) ) ;
#280 = VECTOR ( 'NONE', #317, 1000.000000000000000 ) ;
#281 = EDGE_LOOP ( 'NONE', ( #25, #331, #509, #111 ) ) ;
#282 = AXIS2_PLACEMENT_3D ( 'NONE', #343, #49, #87 ) ;
#283 = CARTESIAN_POINT ( 'NONE',  ( 3.527031964372276285, 30.00000000000000000, 15.00000000000000000 ) ) ;
#284 = CARTESIAN_POINT ( 'NONE',  ( 4.010515415585530263, 29.37254901960784181, 0.000000000000000000 ) ) ;
#285 = EDGE_LOOP ( 'NONE', ( #53, #493, #264, #193 ) ) ;
#286 = EDGE_CURVE ( 'NONE', #405, #144, #155, .T. ) ;
#287 = DIRECTION ( 'NONE',  ( -0.000000000000000000, -0.000000000000000000, -1.000000000000000000 ) ) ;
#288 = ORIENTED_EDGE ( 'NONE', *, *, #403, .T. ) ;
#289 = CARTESIAN_POINT ( 'NONE',  ( -1.500000000000000444, -10.00000000000000000, 15.00000000000000000 ) ) ;
#290 = VERTEX_POINT ( 'NONE', #283 ) ;
#291 = AXIS2_PLACEMENT_3D ( 'NONE', #226, #14, #276 ) ;
#292 = AXIS2_PLACEMENT_3D ( 'NONE', #298, #161, #176 ) ;
#293 = DIRECTION ( 'NONE',  ( 0.000000000000000000, 0.000000000000000000, 1.000000000000000000 ) ) ;
#294 = VERTEX_POINT ( 'NONE', #289 ) ;
#295 = DIRECTION ( 'NONE',  ( 0.000000000000000000, 1.000000000000000000, 0.000000000000000000 ) ) ;
#296 =( NAMED_UNIT ( * ) SI_UNIT ( $, .STERADIAN. ) SOLID_ANGLE_UNIT ( ) );
#297 = ORIENTED_EDGE ( 'NONE', *, *, #286, .T. ) ;
#298 = CARTESIAN_POINT ( 'NONE',  ( -77.50000000000000000, -9.999999999999996447, 15.00000000000000000 ) ) ;
#299 = DIRECTION ( 'NONE',  ( -0.000000000000000000, -0.000000000000000000, -1.000000000000000000 ) ) ;
#300 = ORIENTED_EDGE ( 'NONE', *, *, #385, .F. ) ;
#301 = UNCERTAINTY_MEASURE_WITH_UNIT (LENGTH_MEASURE( 1.000000000000000082E-05 ), #74, 'distance_accuracy_value', 'NONE');
#302 = AXIS2_PLACEMENT_3D ( 'NONE', #108, #237, #333 ) ;
#303 = CIRCLE ( 'NONE', #57, 0.5000000000000004441 ) ;
#304 = LINE ( 'NONE', #256, #362 ) ;
#305 = VECTOR ( 'NONE', #5, 1000.000000000000000 ) ;
#306 = VERTEX_POINT ( 'NONE', #194 ) ;
#307 = ADVANCED_FACE ( 'NONE', ( #71 ), #412, .T. ) ;
#308 = PLANE ( 'NONE',  #522 ) ;
#309 = DIRECTION ( 'NONE',  ( 0.000000000000000000, 0.000000000000000000, 1.000000000000000000 ) ) ;
#310 = ORIENTED_EDGE ( 'NONE', *, *, #486, .F. ) ;
#311 = CYLINDRICAL_SURFACE ( 'NONE', #24, 0.5000000000000004441 ) ;
#312 = CYLINDRICAL_SURFACE ( 'NONE', #127, 76.00000000000000000 ) ;
#313 = VERTEX_POINT ( 'NONE', #527 ) ;
#314 = AXIS2_PLACEMENT_3D ( 'NONE', #404, #482, #374 ) ;
#315 = AXIS2_PLACEMENT_3D ( 'NONE', #341, #43, #465 ) ;
#316 = EDGE_CURVE ( 'NONE', #222, #497, #4, .T. ) ;
#317 = DIRECTION ( 'NONE',  ( -4.082155997157840121E-17, 1.000000000000000000, 0.000000000000000000 ) ) ;
#318 = DIRECTION ( 'NONE',  ( -0.000000000000000000, -0.000000000000000000, 1.000000000000000000 ) ) ;
#319 = DIRECTION ( 'NONE',  ( 1.000000000000000000, 0.000000000000000000, 0.000000000000000000 ) ) ;
#320 = CARTESIAN_POINT ( 'NONE',  ( 1.500000000000000000, -10.00000000000000000, 15.00000000000000000 ) ) ;
#321 = AXIS2_PLACEMENT_3D ( 'NONE', #514, #182, #99 ) ;
#322 = DIRECTION ( 'NONE',  ( 0.000000000000000000, -0.000000000000000000, 1.000000000000000000 ) ) ;
#323 = VECTOR ( 'NONE', #221, 1000.000000000000000 ) ;
#324 = AXIS2_PLACEMENT_3D ( 'NONE', #348, #16, #319 ) ;
#325 = EDGE_CURVE ( 'NONE', #213, #313, #419, .T. ) ;
#326 = CARTESIAN_POINT ( 'NONE',  ( 1.500000000000000000, 0.000000000000000000, 15.00000000000000000 ) ) ;
#327 = CARTESIAN_POINT ( 'NONE',  ( -3.527031964372290496, -30.00000000000000000, 15.00000000000000000 ) ) ;
#328 = ORIENTED_EDGE ( 'NONE', *, *, #472, .F. ) ;
#329 = CARTESIAN_POINT ( 'NONE',  ( 1.500000000000000000, 10.00000000000000000, 15.00000000000000000 ) ) ;
#330 = VECTOR ( 'NONE', #137, 1000.000000000000000 ) ;
#331 = ORIENTED_EDGE ( 'NONE', *, *, #520, .T. ) ;
#332 = AXIS2_PLACEMENT_3D ( 'NONE', #259, #295, #534 ) ;
#333 = DIRECTION ( 'NONE',  ( 1.000000000000000000, 4.565061778886334167E-17, 0.000000000000000000 ) ) ;
#334 = ORIENTED_EDGE ( 'NONE', *, *, #346, .T. ) ;
#335 = EDGE_LOOP ( 'NONE', ( #483, #391, #13, #288 ) ) ;
#336 = CARTESIAN_POINT ( 'NONE',  ( -1.500000000000000444, 10.00000000000000000, 15.00000000000000000 ) ) ;
#337 = ORIENTED_EDGE ( 'NONE', *, *, #124, .F. ) ;
#338 = PLANE ( 'NONE',  #211 ) ;
#339 = CARTESIAN_POINT ( 'NONE',  ( 3.527031964372276285, -29.50000000000000000, 15.00000000000000000 ) ) ;
#340 = ORIENTED_EDGE ( 'NONE', *, *, #286, .F. ) ;
#341 = CARTESIAN_POINT ( 'NONE',  ( -1.500000000000000000, -6.123233995736761105E-17, 15.00000000000000000 ) ) ;
#342 = ORIENTED_EDGE ( 'NONE', *, *, #72, .F. ) ;
#343 = CARTESIAN_POINT ( 'NONE',  ( -3.527031964372290496, 29.50000000000000000, 0.000000000000000000 ) ) ;
#344 = FACE_OUTER_BOUND ( 'NONE', #335, .T. ) ;
#345 = ORIENTED_EDGE ( 'NONE', *, *, #390, .T. ) ;
#346 = EDGE_CURVE ( 'NONE', #44, #206, #269, .T. ) ;
#347 = AXIS2_PLACEMENT_3D ( 'NONE', #463, #80, #427 ) ;
#348 = CARTESIAN_POINT ( 'NONE',  ( 0.000000000000000000, 0.000000000000000000, 0.000000000000000000 ) ) ;
#349 = ORIENTED_EDGE ( 'NONE', *, *, #147, .F. ) ;
#350 = DIRECTION ( 'NONE',  ( 0.000000000000000000, 0.000000000000000000, 1.000000000000000000 ) ) ;
#351 = DIRECTION ( 'NONE',  ( -0.000000000000000000, 0.000000000000000000, -1.000000000000000000 ) ) ;
#352 = EDGE_CURVE ( 'NONE', #294, #394, #10, .T. ) ;
#353 = DIRECTION ( 'NONE',  ( -0.000000000000000000, -0.000000000000000000, -1.000000000000000000 ) ) ;
#354 = STYLED_ITEM ( 'NONE', ( #143 ), #265 ) ;
#355 = CIRCLE ( 'NONE', #282, 0.5000000000000004441 ) ;
#356 = CARTESIAN_POINT ( 'NONE',  ( 1.500000000000000000, 10.00000000000000000, 0.000000000000000000 ) ) ;
#357 = ORIENTED_EDGE ( 'NONE', *, *, #520, .F. ) ;
#358 = CARTESIAN_POINT ( 'NONE',  ( 4.010515415585544474, -29.37254901960783471, 15.00000000000000000 ) ) ;
#359 = LINE ( 'NONE', #100, #280 ) ;
#360 = ADVANCED_FACE ( 'NONE', ( #11 ), #338, .F. ) ;
#361 = CARTESIAN_POINT ( 'NONE',  ( -77.50000000000000000, -9.999999999999996447, 0.000000000000000000 ) ) ;
#362 = VECTOR ( 'NONE', #120, 1000.000000000000000 ) ;
#363 = SURFACE_SIDE_STYLE ('',( #191 ) ) ;
#364 = EDGE_CURVE ( 'NONE', #206, #500, #158, .T. ) ;
#365 = FILL_AREA_STYLE_COLOUR ( '', #481 ) ;
#366 = ADVANCED_FACE ( 'NONE', ( #39 ), #308, .F. ) ;
#367 = EDGE_LOOP ( 'NONE', ( #27, #65, #41, #249 ) ) ;
#368 = CARTESIAN_POINT ( 'NONE',  ( 3.527031964372276285, 29.50000000000000000, 15.00000000000000000 ) ) ;
#369 = CARTESIAN_POINT ( 'NONE',  ( -4.027031964372290496, 29.50000000000000000, 0.000000000000000000 ) ) ;
#370 = ORIENTED_EDGE ( 'NONE', *, *, #208, .T. ) ;
#371 = VECTOR ( 'NONE', #444, 1000.000000000000000 ) ;
#372 = ORIENTED_EDGE ( 'NONE', *, *, #72, .T. ) ;
#373 = ADVANCED_FACE ( 'NONE', ( #416 ), #498, .F. ) ;
#374 = DIRECTION ( 'NONE',  ( -1.000000000000000000, 0.000000000000000000, 0.000000000000000000 ) ) ;
#375 = ORIENTED_EDGE ( 'NONE', *, *, #17, .F. ) ;
#376 = ADVANCED_FACE ( 'NONE', ( #462 ), #422, .F. ) ;
#377 = DIRECTION ( 'NONE',  ( -1.000000000000000000, 0.000000000000000000, 0.000000000000000000 ) ) ;
#378 = DIRECTION ( 'NONE',  ( 0.000000000000000000, 0.000000000000000000, 1.000000000000000000 ) ) ;
#379 = EDGE_LOOP ( 'NONE', ( #160, #62, #526, #300 ) ) ;
#380 = CARTESIAN_POINT ( 'NONE',  ( 4.178788880706563624, 30.00000000000000000, 15.00000000000000000 ) ) ;
#381 = CARTESIAN_POINT ( 'NONE',  ( 3.527031964372276285, 30.00000000000000000, 0.000000000000000000 ) ) ;
#382 = ORIENTED_EDGE ( 'NONE', *, *, #479, .T. ) ;
#383 = CARTESIAN_POINT ( 'NONE',  ( 77.50000000000000000, 10.00000000000000000, 15.00000000000000000 ) ) ;
#384 = CARTESIAN_POINT ( 'NONE',  ( 4.178788880706563624, 30.00000000000000000, 15.00000000000000000 ) ) ;
#385 = EDGE_CURVE ( 'NONE', #306, #260, #304, .T. ) ;
#386 = ORIENTED_EDGE ( 'NONE', *, *, #83, .T. ) ;
#387 = EDGE_CURVE ( 'NONE', #250, #213, #197, .T. ) ;
#388 = ORIENTED_EDGE ( 'NONE', *, *, #243, .F. ) ;
#389 = ORIENTED_EDGE ( 'NONE', *, *, #533, .F. ) ;
#390 = EDGE_CURVE ( 'NONE', #439, #258, #355, .T. ) ;
#391 = ORIENTED_EDGE ( 'NONE', *, *, #123, .F. ) ;
#392 = PRODUCT_CONTEXT ( 'NONE', #141, 'mechanical' ) ;
#393 = DIRECTION ( 'NONE',  ( -0.000000000000000000, -0.000000000000000000, -1.000000000000000000 ) ) ;
#394 = VERTEX_POINT ( 'NONE', #125 ) ;
#395 = CIRCLE ( 'NONE', #151, 0.5000000000000000000 ) ;
#396 = VECTOR ( 'NONE', #459, 1000.000000000000000 ) ;
#397 = DIRECTION ( 'NONE',  ( -0.000000000000000000, -0.000000000000000000, -1.000000000000000000 ) ) ;
#398 = CARTESIAN_POINT ( 'NONE',  ( -4.010515415585544474, -29.37254901960784181, 0.000000000000000000 ) ) ;
#399 = CARTESIAN_POINT ( 'NONE',  ( 4.010515415585544474, 29.37254901960783471, 15.00000000000000000 ) ) ;
#400 = VECTOR ( 'NONE', #233, 1000.000000000000000 ) ;
#401 = CARTESIAN_POINT ( 'NONE',  ( -4.010515415585544474, 29.37254901960784181, 0.000000000000000000 ) ) ;
#402 = ORIENTED_EDGE ( 'NONE', *, *, #142, .F. ) ;
#403 = EDGE_CURVE ( 'NONE', #239, #130, #424, .T. ) ;
#404 = CARTESIAN_POINT ( 'NONE',  ( 77.50000000000000000, 10.00000000000000000, 15.00000000000000000 ) ) ;
#405 = VERTEX_POINT ( 'NONE', #84 ) ;
#406 = ADVANCED_FACE ( 'NONE', ( #511 ), #311, .T. ) ;
#407 = CYLINDRICAL_SURFACE ( 'NONE', #92, 0.5000000000000000000 ) ;
#408 = ORIENTED_EDGE ( 'NONE', *, *, #83, .F. ) ;
#409 = CARTESIAN_POINT ( 'NONE',  ( -3.527031964372290496, 30.00000000000000000, 15.00000000000000000 ) ) ;
#410 = ORIENTED_EDGE ( 'NONE', *, *, #390, .F. ) ;
#411 = VECTOR ( 'NONE', #12, 1000.000000000000000 ) ;
#412 = CYLINDRICAL_SURFACE ( 'NONE', #168, 0.5000000000000000000 ) ;
#413 = ORIENTED_EDGE ( 'NONE', *, *, #414, .F. ) ;
#414 = EDGE_CURVE ( 'NONE', #500, #441, #98, .T. ) ;
#415 = VERTEX_POINT ( 'NONE', #284 ) ;
#416 = FACE_OUTER_BOUND ( 'NONE', #156, .T. ) ;
#417 = CARTESIAN_POINT ( 'NONE',  ( -3.527031964372290496, -29.50000000000000000, 0.000000000000000000 ) ) ;
#418 = ORIENTED_EDGE ( 'NONE', *, *, #104, .F. ) ;
#419 = LINE ( 'NONE', #128, #232 ) ;
#420 = CARTESIAN_POINT ( 'NONE',  ( 4.178788880706563624, -30.00000000000000000, 15.00000000000000000 ) ) ;
#421 = EDGE_LOOP ( 'NONE', ( #91, #340, #245, #218 ) ) ;
#422 = CYLINDRICAL_SURFACE ( 'NONE', #292, 76.00000000000000000 ) ;
#423 = DIRECTION ( 'NONE',  ( -1.000000000000000000, 0.000000000000000000, 0.000000000000000000 ) ) ;
#424 = LINE ( 'NONE', #220, #396 ) ;
#425 = ORIENTED_EDGE ( 'NONE', *, *, #502, .T. ) ;
#426 = CIRCLE ( 'NONE', #236, 0.5000000000000004441 ) ;
#427 = DIRECTION ( 'NONE',  ( -1.000000000000000000, -6.938893903907222067E-15, 0.000000000000000000 ) ) ;
#428 = ORIENTED_EDGE ( 'NONE', *, *, #251, .F. ) ;
#429 = DIRECTION ( 'NONE',  ( -1.000000000000000000, 0.000000000000000000, 0.000000000000000000 ) ) ;
#430 = SHAPE_DEFINITION_REPRESENTATION ( #468, #67 ) ;
#431 = CARTESIAN_POINT ( 'NONE',  ( 77.50000000000000000, 10.00000000000000000, 0.000000000000000000 ) ) ;
#432 = AXIS2_PLACEMENT_3D ( 'NONE', #442, #293, #165 ) ;
#433 = DIRECTION ( 'NONE',  ( -1.000000000000000000, 0.000000000000000000, 0.000000000000000000 ) ) ;
#434 = PLANE ( 'NONE',  #521 ) ;
#435 = CARTESIAN_POINT ( 'NONE',  ( 77.50000000000000000, -10.00000000000000000, 0.000000000000000000 ) ) ;
#436 = ADVANCED_FACE ( 'NONE', ( #66 ), #407, .T. ) ;
#437 = CARTESIAN_POINT ( 'NONE',  ( -3.527031964372290496, 30.00000000000000000, 0.000000000000000000 ) ) ;
#438 = DIRECTION ( 'NONE',  ( -1.000000000000000000, 0.000000000000000000, 0.000000000000000000 ) ) ;
#439 = VERTEX_POINT ( 'NONE', #369 ) ;
#440 = CARTESIAN_POINT ( 'NONE',  ( -3.527031964372290496, -29.50000000000000000, 15.00000000000000000 ) ) ;
#441 = VERTEX_POINT ( 'NONE', #238 ) ;
#442 = CARTESIAN_POINT ( 'NONE',  ( -3.527031964372290496, 29.50000000000000000, 15.00000000000000000 ) ) ;
#443 = ORIENTED_EDGE ( 'NONE', *, *, #17, .T. ) ;
#444 = DIRECTION ( 'NONE',  ( -0.000000000000000000, -0.000000000000000000, -1.000000000000000000 ) ) ;
#445 = EDGE_CURVE ( 'NONE', #294, #239, #192, .T. ) ;
#446 = ORIENTED_EDGE ( 'NONE', *, *, #364, .T. ) ;
#447 = PRODUCT_DEFINITION_FORMATION_WITH_SPECIFIED_SOURCE ( 'ANY', '', #45, .NOT_KNOWN. ) ;
#448 = DIRECTION ( 'NONE',  ( 0.000000000000000000, 1.000000000000000000, 0.000000000000000000 ) ) ;
#449 = EDGE_LOOP ( 'NONE', ( #456, #464, #357, #410 ) ) ;
#450 = DIRECTION ( 'NONE',  ( 1.000000000000000000, -4.565061778886334167E-17, 0.000000000000000000 ) ) ;
#451 = DIRECTION ( 'NONE',  ( -1.000000000000000000, 0.000000000000000000, 0.000000000000000000 ) ) ;
#452 = EDGE_LOOP ( 'NONE', ( #81, #443, #537, #408, #242, #370, #109, #345, #328, #525, #342, #428, #148, #334 ) ) ;
#453 = EDGE_CURVE ( 'NONE', #290, #532, #215, .T. ) ;
#454 = CARTESIAN_POINT ( 'NONE',  ( -3.527031964372290496, -29.50000000000000000, 15.00000000000000000 ) ) ;
#455 = LINE ( 'NONE', #460, #507 ) ;
#456 = ORIENTED_EDGE ( 'NONE', *, *, #510, .F. ) ;
#457 =( GEOMETRIC_REPRESENTATION_CONTEXT ( 3 ) GLOBAL_UNCERTAINTY_ASSIGNED_CONTEXT ( ( #301 ) ) GLOBAL_UNIT_ASSIGNED_CONTEXT ( ( #74, #240, #489 ) ) REPRESENTATION_CONTEXT ( 'NONE', 'WORKASPACE' ) );
#458 = AXIS2_PLACEMENT_3D ( 'NONE', #204, #214, #450 ) ;
#459 = DIRECTION ( 'NONE',  ( -0.000000000000000000, -0.000000000000000000, -1.000000000000000000 ) ) ;
#460 = CARTESIAN_POINT ( 'NONE',  ( -3.527031964372290496, 30.00000000000000000, 15.00000000000000000 ) ) ;
#461 = CARTESIAN_POINT ( 'NONE',  ( -3.527031964372290496, -29.50000000000000000, 0.000000000000000000 ) ) ;
#462 = FACE_OUTER_BOUND ( 'NONE', #536, .T. ) ;
#463 = CARTESIAN_POINT ( 'NONE',  ( -3.527031964372290496, -29.50000000000000000, 15.00000000000000000 ) ) ;
#464 = ORIENTED_EDGE ( 'NONE', *, *, #316, .F. ) ;
#465 = DIRECTION ( 'NONE',  ( 4.082155997157840121E-17, -1.000000000000000000, 0.000000000000000000 ) ) ;
#466 = VERTEX_POINT ( 'NONE', #166 ) ;
#467 = ADVANCED_FACE ( 'NONE', ( #344 ), #85, .T. ) ;
#468 = PRODUCT_DEFINITION_SHAPE ( 'NONE', 'NONE',  #135 ) ;
#469 = AXIS2_PLACEMENT_3D ( 'NONE', #417, #118, #253 ) ;
#470 = CYLINDRICAL_SURFACE ( 'NONE', #196, 0.5000000000000004441 ) ;
#471 = DIRECTION ( 'NONE',  ( -1.000000000000000000, 0.000000000000000000, 0.000000000000000000 ) ) ;
#472 = EDGE_CURVE ( 'NONE', #532, #258, #162, .T. ) ;
#473 = CYLINDRICAL_SURFACE ( 'NONE', #209, 76.00000000000000000 ) ;
#474 = VECTOR ( 'NONE', #131, 1000.000000000000000 ) ;
#475 = DIRECTION ( 'NONE',  ( -1.000000000000000000, 0.000000000000000000, 0.000000000000000000 ) ) ;
#476 = EDGE_CURVE ( 'NONE', #153, #394, #508, .T. ) ;
#477 = DIRECTION ( 'NONE',  ( 0.000000000000000000, 1.000000000000000000, 0.000000000000000000 ) ) ;
#478 = FACE_OUTER_BOUND ( 'NONE', #225, .T. ) ;
#479 = EDGE_CURVE ( 'NONE', #7, #290, #58, .T. ) ;
#480 = EDGE_LOOP ( 'NONE', ( #488, #184, #375, #529 ) ) ;
#481 = COLOUR_RGB ( '',0.7921568627450980005, 0.8196078431372548767, 0.9333333333333333481 ) ;
#482 = DIRECTION ( 'NONE',  ( -0.000000000000000000, -0.000000000000000000, -1.000000000000000000 ) ) ;
#483 = ORIENTED_EDGE ( 'NONE', *, *, #29, .F. ) ;
#484 = DIRECTION ( 'NONE',  ( -1.000000000000000000, 0.000000000000000000, 0.000000000000000000 ) ) ;
#485 = ORIENTED_EDGE ( 'NONE', *, *, #199, .T. ) ;
#486 = EDGE_CURVE ( 'NONE', #154, #153, #274, .T. ) ;
#487 = DIRECTION ( 'NONE',  ( -1.000000000000000000, 0.000000000000000000, 0.000000000000000000 ) ) ;
#488 = ORIENTED_EDGE ( 'NONE', *, *, #387, .F. ) ;
#489 =( NAMED_UNIT ( * ) SI_UNIT ( $, .STERADIAN. ) SOLID_ANGLE_UNIT ( ) );
#490 = CARTESIAN_POINT ( 'NONE',  ( -3.527031964372290496, 29.50000000000000000, 15.00000000000000000 ) ) ;
#491 = CIRCLE ( 'NONE', #302, 76.00000000000000000 ) ;
#492 =( GEOMETRIC_REPRESENTATION_CONTEXT ( 3 ) GLOBAL_UNCERTAINTY_ASSIGNED_CONTEXT ( ( #501 ) ) GLOBAL_UNIT_ASSIGNED_CONTEXT ( ( #495, #224, #296 ) ) REPRESENTATION_CONTEXT ( 'NONE', 'WORKASPACE' ) );
#493 = ORIENTED_EDGE ( 'NONE', *, *, #48, .F. ) ;
#494 = DIRECTION ( 'NONE',  ( 0.000000000000000000, -0.000000000000000000, 1.000000000000000000 ) ) ;
#495 =( LENGTH_UNIT ( ) NAMED_UNIT ( * ) SI_UNIT ( .MILLI., .METRE. ) );
#496 = ADVANCED_FACE ( 'NONE', ( #504 ), #312, .F. ) ;
#497 = VERTEX_POINT ( 'NONE', #217 ) ;
#498 = PLANE ( 'NONE',  #332 ) ;
#499 = CARTESIAN_POINT ( 'NONE',  ( 3.527031964372276285, 29.50000000000000000, 15.00000000000000000 ) ) ;
#500 = VERTEX_POINT ( 'NONE', #52 ) ;
#501 = UNCERTAINTY_MEASURE_WITH_UNIT (LENGTH_MEASURE( 1.000000000000000082E-05 ), #495, 'distance_accuracy_value', 'NONE');
#502 = EDGE_CURVE ( 'NONE', #290, #222, #180, .T. ) ;
#503 = DIRECTION ( 'NONE',  ( 0.000000000000000000, -0.000000000000000000, -1.000000000000000000 ) ) ;
#504 = FACE_OUTER_BOUND ( 'NONE', #56, .T. ) ;
#505 = DIRECTION ( 'NONE',  ( -0.000000000000000000, -0.000000000000000000, -1.000000000000000000 ) ) ;
#506 = AXIS2_PLACEMENT_3D ( 'NONE', #361, #397, #55 ) ;
#507 = VECTOR ( 'NONE', #309, 1000.000000000000000 ) ;
#508 = LINE ( 'NONE', #172, #474 ) ;
#509 = ORIENTED_EDGE ( 'NONE', *, *, #502, .F. ) ;
#510 = EDGE_CURVE ( 'NONE', #497, #439, #512, .T. ) ;
#511 = FACE_OUTER_BOUND ( 'NONE', #449, .T. ) ;
#512 = LINE ( 'NONE', #267, #323 ) ;
#513 = CYLINDRICAL_SURFACE ( 'NONE', #515, 0.5000000000000004441 ) ;
#514 = CARTESIAN_POINT ( 'NONE',  ( 77.50000000000000000, -10.00000000000000000, 15.00000000000000000 ) ) ;
#515 = AXIS2_PLACEMENT_3D ( 'NONE', #3, #505, #126 ) ;
#516 = FACE_OUTER_BOUND ( 'NONE', #367, .T. ) ;
#517 = ORIENTED_EDGE ( 'NONE', *, *, #533, .T. ) ;
#518 = LINE ( 'NONE', #326, #157 ) ;
#519 = DIRECTION ( 'NONE',  ( 0.000000000000000000, 0.000000000000000000, 1.000000000000000000 ) ) ;
#520 = EDGE_CURVE ( 'NONE', #258, #222, #455, .T. ) ;
#521 = AXIS2_PLACEMENT_3D ( 'NONE', #431, #59, #433 ) ;
#522 = AXIS2_PLACEMENT_3D ( 'NONE', #380, #77, #503 ) ;
#523 = LINE ( 'NONE', #399, #6 ) ;
#524 = FACE_OUTER_BOUND ( 'NONE', #421, .T. ) ;
#525 = ORIENTED_EDGE ( 'NONE', *, *, #275, .T. ) ;
#526 = ORIENTED_EDGE ( 'NONE', *, *, #201, .F. ) ;
#527 = CARTESIAN_POINT ( 'NONE',  ( -3.527031964372290496, -30.00000000000000000, 0.000000000000000000 ) ) ;
#528 = EDGE_CURVE ( 'NONE', #394, #250, #33, .T. ) ;
#529 = ORIENTED_EDGE ( 'NONE', *, *, #325, .F. ) ;
#530 = VERTEX_POINT ( 'NONE', #257 ) ;
#531 = PLANE ( 'NONE',  #40 ) ;
#532 = VERTEX_POINT ( 'NONE', #381 ) ;
#533 = EDGE_CURVE ( 'NONE', #500, #213, #88, .T. ) ;
#534 = DIRECTION ( 'NONE',  ( 0.000000000000000000, 0.000000000000000000, -1.000000000000000000 ) ) ;
#535 = AXIS2_PLACEMENT_3D ( 'NONE', #440, #248, #484 ) ;
#536 = EDGE_LOOP ( 'NONE', ( #386, #107, #30, #34 ) ) ;
#537 = ORIENTED_EDGE ( 'NONE', *, *, #486, .T. ) ;
ENDSEC;
END-ISO-10303-21;
