ISO-10303-21;
HEADER;
FILE_DESCRIPTION (( 'STEP AP214' ),
    '1' );
FILE_NAME ('Tensile Coupon 7x7mm.STEP',
    '2026-06-16T07:00:27',
    ( '' ),
    ( '' ),
    'SwSTEP 2.0',
    'SolidWorks 2025',
    '' );
FILE_SCHEMA (( 'AUTOMOTIVE_DESIGN' ));
ENDSEC;

DATA;
#1 = CARTESIAN_POINT ( 'NONE',  ( 11.49999999999999645, -80.90855723481810458, 7.000000000000000000 ) ) ;
#2 = VECTOR ( 'NONE', #516, 1000.000000000000000 ) ;
#3 = VERTEX_POINT ( 'NONE', #281 ) ;
#4 = CIRCLE ( 'NONE', #146, 10.00000000000000178 ) ;
#5 = EDGE_CURVE ( 'NONE', #173, #252, #223, .T. ) ;
#6 = DIRECTION ( 'NONE',  ( -1.000000000000000000, 0.000000000000000000, 0.000000000000000000 ) ) ;
#7 = EDGE_LOOP ( 'NONE', ( #245, #346, #578, #227 ) ) ;
#8 = AXIS2_PLACEMENT_3D ( 'NONE', #306, #248, #425 ) ;
#9 = LINE ( 'NONE', #524, #451 ) ;
#10 = EDGE_LOOP ( 'NONE', ( #350, #68, #560, #258, #667, #366, #104, #488, #112, #233, #548, #598, #395, #698, #414, #675, #495, #250, #455, #630 ) ) ;
#11 = VERTEX_POINT ( 'NONE', #517 ) ;
#12 = EDGE_CURVE ( 'NONE', #3, #64, #229, .T. ) ;
#13 = CARTESIAN_POINT ( 'NONE',  ( 13.49999999999999467, -0.3772233983161950022, 7.000000000000000000 ) ) ;
#14 = VECTOR ( 'NONE', #674, 1000.000000000000000 ) ;
#15 = CARTESIAN_POINT ( 'NONE',  ( -11.50000000000000533, 1.622776601683803666, 0.000000000000000000 ) ) ;
#16 = CARTESIAN_POINT ( 'NONE',  ( 13.49999999999999467, -80.90855723481810458, 0.000000000000000000 ) ) ;
#17 = DIRECTION ( 'NONE',  ( -1.000000000000000000, 0.000000000000000000, 0.000000000000000000 ) ) ;
#18 = EDGE_CURVE ( 'NONE', #398, #686, #496, .T. ) ;
#19 = CARTESIAN_POINT ( 'NONE',  ( -13.49999999999999112, -1.520113714883358558, 7.000000000000000000 ) ) ;
#20 = CARTESIAN_POINT ( 'NONE',  ( -13.49999999999999112, -79.76566691825092903, 0.000000000000000000 ) ) ;
#21 = CARTESIAN_POINT ( 'NONE',  ( 11.68181818181818166, -7.269709460644049770, 0.000000000000000000 ) ) ;
#22 = DIRECTION ( 'NONE',  ( -0.000000000000000000, -0.000000000000000000, -1.000000000000000000 ) ) ;
#23 = VERTEX_POINT ( 'NONE', #535 ) ;
#24 = EDGE_CURVE ( 'NONE', #680, #47, #703, .T. ) ;
#25 = AXIS2_PLACEMENT_3D ( 'NONE', #373, #28, #82 ) ;
#26 = DIRECTION ( 'NONE',  ( -0.000000000000000000, -0.000000000000000000, -1.000000000000000000 ) ) ;
#27 = CIRCLE ( 'NONE', #8, 44.99999999999996447 ) ;
#28 = DIRECTION ( 'NONE',  ( -0.000000000000000000, -0.000000000000000000, -1.000000000000000000 ) ) ;
#29 = ORIENTED_EDGE ( 'NONE', *, *, #115, .F. ) ;
#30 = CARTESIAN_POINT ( 'NONE',  ( 3.499999999999996003, -33.14289031656714712, 7.000000000000000000 ) ) ;
#31 = PRODUCT_RELATED_PRODUCT_CATEGORY ( 'part', '', ( #304 ) ) ;
#32 = CARTESIAN_POINT ( 'NONE',  ( -11.68181818181817633, -74.01607117249024270, 7.000000000000000000 ) ) ;
#33 = AXIS2_PLACEMENT_3D ( 'NONE', #620, #333, #401 ) ;
#34 = AXIS2_PLACEMENT_3D ( 'NONE', #44, #625, #266 ) ;
#35 = DIRECTION ( 'NONE',  ( 7.517135062566164733E-16, -1.000000000000000000, -0.000000000000000000 ) ) ;
#36 = CARTESIAN_POINT ( 'NONE',  ( -11.68181818181817633, -7.269709460644047105, 0.000000000000000000 ) ) ;
#37 = CARTESIAN_POINT ( 'NONE',  ( -11.50000000000000533, -80.90855723481810458, 7.000000000000000000 ) ) ;
#38 = AXIS2_PLACEMENT_3D ( 'NONE', #66, #214, #117 ) ;
#39 = VECTOR ( 'NONE', #591, 1000.000000000000000 ) ;
#40 = EDGE_CURVE ( 'NONE', #351, #207, #368, .T. ) ;
#41 = ORIENTED_EDGE ( 'NONE', *, *, #468, .T. ) ;
#42 = CARTESIAN_POINT ( 'NONE',  ( 11.49999999999999645, 1.622776601683803666, 7.000000000000000000 ) ) ;
#43 = EDGE_CURVE ( 'NONE', #566, #52, #583, .T. ) ;
#44 = CARTESIAN_POINT ( 'NONE',  ( 0.000000000000000000, 0.000000000000000000, 0.000000000000000000 ) ) ;
#45 = DIRECTION ( 'NONE',  ( 0.000000000000000000, -1.000000000000000000, 0.000000000000000000 ) ) ;
#46 = EDGE_LOOP ( 'NONE', ( #278, #100, #381, #388 ) ) ;
#47 = VERTEX_POINT ( 'NONE', #586 ) ;
#48 = CARTESIAN_POINT ( 'NONE',  ( -13.49999999999999112, -79.76566691825092903, 7.000000000000000000 ) ) ;
#49 = CIRCLE ( 'NONE', #294, 45.00000000000000000 ) ;
#50 = FACE_OUTER_BOUND ( 'NONE', #46, .T. ) ;
#51 = EDGE_LOOP ( 'NONE', ( #283, #83, #279, #673 ) ) ;
#52 = VERTEX_POINT ( 'NONE', #21 ) ;
#53 = DIRECTION ( 'NONE',  ( -1.000000000000000000, 0.000000000000000000, 0.000000000000000000 ) ) ;
#54 = ORIENTED_EDGE ( 'NONE', *, *, #595, .F. ) ;
#55 = ORIENTED_EDGE ( 'NONE', *, *, #329, .F. ) ;
#56 = CIRCLE ( 'NONE', #571, 1.999999999999998224 ) ;
#57 = CARTESIAN_POINT ( 'NONE',  ( -48.50000000000000000, -33.14289031656714712, 0.000000000000000000 ) ) ;
#58 = UNCERTAINTY_MEASURE_WITH_UNIT (LENGTH_MEASURE( 1.000000000000000082E-05 ), #91, 'distance_accuracy_value', 'NONE');
#59 = VERTEX_POINT ( 'NONE', #710 ) ;
#60 = PLANE ( 'NONE',  #638 ) ;
#61 = DIRECTION ( 'NONE',  ( -0.000000000000000000, -0.000000000000000000, -1.000000000000000000 ) ) ;
#62 = VERTEX_POINT ( 'NONE', #184 ) ;
#63 = FACE_OUTER_BOUND ( 'NONE', #7, .T. ) ;
#64 = VERTEX_POINT ( 'NONE', #590 ) ;
#65 = EDGE_CURVE ( 'NONE', #62, #101, #541, .T. ) ;
#66 = CARTESIAN_POINT ( 'NONE',  ( -48.50000000000000000, -48.14289031656714712, 7.000000000000000000 ) ) ;
#67 = DIRECTION ( 'NONE',  ( -1.000000000000000000, 0.000000000000000000, 0.000000000000000000 ) ) ;
#68 = ORIENTED_EDGE ( 'NONE', *, *, #234, .F. ) ;
#69 = PLANE ( 'NONE',  #246 ) ;
#70 = CARTESIAN_POINT ( 'NONE',  ( -11.50000000000000533, 1.622776601683803666, 7.000000000000000000 ) ) ;
#71 = AXIS2_PLACEMENT_3D ( 'NONE', #95, #196, #187 ) ;
#72 = AXIS2_PLACEMENT_3D ( 'NONE', #169, #61, #700 ) ;
#73 = CARTESIAN_POINT ( 'NONE',  ( -11.50000000000000533, 1.622776601683803666, 0.000000000000000000 ) ) ;
#74 = CARTESIAN_POINT ( 'NONE',  ( 13.50000000000000711, -1.520113714883357892, 7.000000000000000000 ) ) ;
#75 = ADVANCED_FACE ( 'NONE', ( #705 ), #69, .T. ) ;
#76 = VERTEX_POINT ( 'NONE', #484 ) ;
#77 = FACE_OUTER_BOUND ( 'NONE', #188, .T. ) ;
#78 = ADVANCED_FACE ( 'NONE', ( #716 ), #124, .T. ) ;
#79 = ORIENTED_EDGE ( 'NONE', *, *, #458, .T. ) ;
#80 = AXIS2_PLACEMENT_3D ( 'NONE', #670, #45, #267 ) ;
#81 = DIRECTION ( 'NONE',  ( -0.000000000000000000, -0.000000000000000000, -1.000000000000000000 ) ) ;
#82 = DIRECTION ( 'NONE',  ( -1.000000000000000000, 0.000000000000000000, 0.000000000000000000 ) ) ;
#83 = ORIENTED_EDGE ( 'NONE', *, *, #85, .F. ) ;
#84 = FILL_AREA_STYLE_COLOUR ( '', #652 ) ;
#85 = EDGE_CURVE ( 'NONE', #207, #204, #90, .T. ) ;
#86 = AXIS2_PLACEMENT_3D ( 'NONE', #603, #436, #668 ) ;
#87 = CARTESIAN_POINT ( 'NONE',  ( 3.499999999999996003, -33.14289031656714712, 0.000000000000000000 ) ) ;
#88 = ORIENTED_EDGE ( 'NONE', *, *, #534, .F. ) ;
#89 = CARTESIAN_POINT ( 'NONE',  ( -3.500000000000003109, -33.14289031656714002, 7.000000000000000000 ) ) ;
#90 = LINE ( 'NONE', #493, #325 ) ;
#91 =( LENGTH_UNIT ( ) NAMED_UNIT ( * ) SI_UNIT ( .MILLI., .METRE. ) );
#92 = EDGE_CURVE ( 'NONE', #290, #385, #202, .T. ) ;
#93 = DIRECTION ( 'NONE',  ( 0.000000000000000000, -0.000000000000000000, 1.000000000000000000 ) ) ;
#94 = DIRECTION ( 'NONE',  ( -1.000000000000000000, 0.000000000000000000, 0.000000000000000000 ) ) ;
#95 = CARTESIAN_POINT ( 'NONE',  ( 48.49999999999995026, -33.14289031656714712, 7.000000000000000000 ) ) ;
#96 = ORIENTED_EDGE ( 'NONE', *, *, #534, .T. ) ;
#97 = ORIENTED_EDGE ( 'NONE', *, *, #640, .F. ) ;
#98 = CARTESIAN_POINT ( 'NONE',  ( 11.49999999999999645, 1.622776601683803666, 0.000000000000000000 ) ) ;
#99 = MECHANICAL_DESIGN_GEOMETRIC_PRESENTATION_REPRESENTATION (  '', ( #437 ), #377 ) ;
#100 = ORIENTED_EDGE ( 'NONE', *, *, #167, .F. ) ;
#101 = VERTEX_POINT ( 'NONE', #611 ) ;
#102 = DIRECTION ( 'NONE',  ( -0.000000000000000000, -0.000000000000000000, -1.000000000000000000 ) ) ;
#103 = FACE_OUTER_BOUND ( 'NONE', #324, .T. ) ;
#104 = ORIENTED_EDGE ( 'NONE', *, *, #133, .F. ) ;
#105 = CARTESIAN_POINT ( 'NONE',  ( -13.50000000000000533, -0.3772233983161953352, 0.000000000000000000 ) ) ;
#106 = ORIENTED_EDGE ( 'NONE', *, *, #441, .F. ) ;
#107 = EDGE_CURVE ( 'NONE', #337, #515, #544, .T. ) ;
#108 = DIRECTION ( 'NONE',  ( -1.000000000000000000, 0.000000000000000000, 0.000000000000000000 ) ) ;
#109 = CIRCLE ( 'NONE', #711, 2.000000000000000000 ) ;
#110 = CARTESIAN_POINT ( 'NONE',  ( -48.50000000000000000, -33.14289031656714712, 7.000000000000000000 ) ) ;
#111 = FACE_OUTER_BOUND ( 'NONE', #317, .T. ) ;
#112 = ORIENTED_EDGE ( 'NONE', *, *, #282, .F. ) ;
#113 = EDGE_CURVE ( 'NONE', #52, #173, #631, .T. ) ;
#114 = PLANE ( 'NONE',  #297 ) ;
#115 = EDGE_CURVE ( 'NONE', #334, #204, #307, .T. ) ;
#116 = ORIENTED_EDGE ( 'NONE', *, *, #43, .F. ) ;
#117 = DIRECTION ( 'NONE',  ( -1.000000000000000000, 0.000000000000000000, 0.000000000000000000 ) ) ;
#118 = VECTOR ( 'NONE', #490, 1000.000000000000000 ) ;
#119 = CIRCLE ( 'NONE', #183, 1.999999999999998224 ) ;
#120 = CARTESIAN_POINT ( 'NONE',  ( 13.50000000000000711, -1.520113714883357892, 7.000000000000000000 ) ) ;
#121 = EDGE_CURVE ( 'NONE', #351, #334, #249, .T. ) ;
#122 = CARTESIAN_POINT ( 'NONE',  ( 11.49999999999999645, -0.3772233983161945581, 7.000000000000000000 ) ) ;
#123 = VECTOR ( 'NONE', #339, 1000.000000000000000 ) ;
#124 = CYLINDRICAL_SURFACE ( 'NONE', #511, 9.999999999999998224 ) ;
#125 = CARTESIAN_POINT ( 'NONE',  ( -11.50000000000000533, -80.90855723481810458, 7.000000000000000000 ) ) ;
#126 = ORIENTED_EDGE ( 'NONE', *, *, #85, .T. ) ;
#127 = VECTOR ( 'NONE', #384, 1000.000000000000000 ) ;
#128 = CIRCLE ( 'NONE', #557, 2.000000000000000000 ) ;
#129 = DIRECTION ( 'NONE',  ( -0.000000000000000000, -0.000000000000000000, -1.000000000000000000 ) ) ;
#130 = CARTESIAN_POINT ( 'NONE',  ( -13.49999999999999112, -1.520113714883358558, 7.000000000000000000 ) ) ;
#131 = DIRECTION ( 'NONE',  ( -1.214271186538564186E-14, -1.000000000000000000, 0.000000000000000000 ) ) ;
#132 = CARTESIAN_POINT ( 'NONE',  ( -13.50000000000000533, -80.90855723481810458, 0.000000000000000000 ) ) ;
#133 = EDGE_CURVE ( 'NONE', #409, #680, #692, .T. ) ;
#134 = ORIENTED_EDGE ( 'NONE', *, *, #161, .F. ) ;
#135 = DIRECTION ( 'NONE',  ( -1.214271186538564186E-14, -1.000000000000000000, 0.000000000000000000 ) ) ;
#136 = VECTOR ( 'NONE', #241, 1000.000000000000000 ) ;
#137 = DIRECTION ( 'NONE',  ( 9.251858538542971828E-16, -1.000000000000000000, 0.000000000000000000 ) ) ;
#138 = DIRECTION ( 'NONE',  ( -1.000000000000000000, 0.000000000000000000, 0.000000000000000000 ) ) ;
#139 = CYLINDRICAL_SURFACE ( 'NONE', #450, 44.99999999999995737 ) ;
#140 = CARTESIAN_POINT ( 'NONE',  ( 11.49999999999999645, -0.3772233983161945581, 7.000000000000000000 ) ) ;
#141 = EDGE_CURVE ( 'NONE', #499, #340, #601, .T. ) ;
#142 = ADVANCED_FACE ( 'NONE', ( #487 ), #139, .F. ) ;
#143 = CARTESIAN_POINT ( 'NONE',  ( -11.68181818181817633, -7.269709460644047105, 7.000000000000000000 ) ) ;
#144 = ORIENTED_EDGE ( 'NONE', *, *, #354, .T. ) ;
#145 = ORIENTED_EDGE ( 'NONE', *, *, #440, .F. ) ;
#146 = AXIS2_PLACEMENT_3D ( 'NONE', #254, #614, #491 ) ;
#147 = PLANE ( 'NONE',  #194 ) ;
#148 = VERTEX_POINT ( 'NONE', #74 ) ;
#149 = ORIENTED_EDGE ( 'NONE', *, *, #378, .T. ) ;
#150 = DIRECTION ( 'NONE',  ( -0.000000000000000000, -0.000000000000000000, -1.000000000000000000 ) ) ;
#151 = PRODUCT_DEFINITION_SHAPE ( 'NONE', 'NONE',  #634 ) ;
#152 = FACE_OUTER_BOUND ( 'NONE', #606, .T. ) ;
#153 = VECTOR ( 'NONE', #299, 1000.000000000000000 ) ;
#154 = EDGE_CURVE ( 'NONE', #76, #62, #176, .T. ) ;
#155 = AXIS2_PLACEMENT_3D ( 'NONE', #623, #150, #618 ) ;
#156 = ORIENTED_EDGE ( 'NONE', *, *, #597, .T. ) ;
#157 = EDGE_LOOP ( 'NONE', ( #579, #602, #330, #144 ) ) ;
#158 = CARTESIAN_POINT ( 'NONE',  ( -3.499999999999997335, -40.64289031656714712, 7.000000000000000000 ) ) ;
#159 = LINE ( 'NONE', #568, #123 ) ;
#160 = VERTEX_POINT ( 'NONE', #605 ) ;
#161 = EDGE_CURVE ( 'NONE', #515, #148, #365, .T. ) ;
#162 = CARTESIAN_POINT ( 'NONE',  ( 3.500000000000008438, -1.520113714883359224, 7.000000000000000000 ) ) ;
#163 = ORIENTED_EDGE ( 'NONE', *, *, #65, .T. ) ;
#164 = DIRECTION ( 'NONE',  ( -1.000000000000000000, 0.000000000000000000, -0.000000000000000000 ) ) ;
#165 = VERTEX_POINT ( 'NONE', #423 ) ;
#166 = AXIS2_PLACEMENT_3D ( 'NONE', #122, #81, #296 ) ;
#167 = EDGE_CURVE ( 'NONE', #23, #11, #656, .T. ) ;
#168 = EDGE_CURVE ( 'NONE', #520, #165, #189, .T. ) ;
#169 = CARTESIAN_POINT ( 'NONE',  ( -3.499999999999993339, -79.76566691825092903, 7.000000000000000000 ) ) ;
#170 = PRODUCT_DEFINITION_CONTEXT ( 'detailed design', #589, 'design' ) ;
#171 = VERTEX_POINT ( 'NONE', #719 ) ;
#172 = DIRECTION ( 'NONE',  ( 1.214271186538565606E-14, -1.000000000000000000, -0.000000000000000000 ) ) ;
#173 = VERTEX_POINT ( 'NONE', #427 ) ;
#174 = ORIENTED_EDGE ( 'NONE', *, *, #243, .F. ) ;
#175 = CYLINDRICAL_SURFACE ( 'NONE', #593, 10.00000000000000178 ) ;
#176 = CIRCLE ( 'NONE', #238, 9.999999999999998224 ) ;
#177 = DIRECTION ( 'NONE',  ( -1.000000000000000000, 0.000000000000000000, -0.000000000000000000 ) ) ;
#178 = CARTESIAN_POINT ( 'NONE',  ( -13.50000000000000533, -80.90855723481810458, 7.000000000000000000 ) ) ;
#179 = DIRECTION ( 'NONE',  ( 0.000000000000000000, -1.000000000000000000, 0.000000000000000000 ) ) ;
#180 = CARTESIAN_POINT ( 'NONE',  ( 11.49999999999999645, -82.90855723481810458, 7.000000000000000000 ) ) ;
#181 = LINE ( 'NONE', #650, #655 ) ;
#182 = DIRECTION ( 'NONE',  ( 0.000000000000000000, 0.000000000000000000, 1.000000000000000000 ) ) ;
#183 = AXIS2_PLACEMENT_3D ( 'NONE', #708, #475, #17 ) ;
#184 = CARTESIAN_POINT ( 'NONE',  ( 13.50000000000000711, -79.76566691825092903, 0.000000000000000000 ) ) ;
#185 = CARTESIAN_POINT ( 'NONE',  ( -3.500000000000003109, -48.14289031656715423, 7.000000000000000000 ) ) ;
#186 = ADVANCED_FACE ( 'NONE', ( #553 ), #199, .F. ) ;
#187 = DIRECTION ( 'NONE',  ( 1.000000000000000000, 0.000000000000000000, 0.000000000000000000 ) ) ;
#188 = EDGE_LOOP ( 'NONE', ( #323, #725, #621, #198 ) ) ;
#189 = LINE ( 'NONE', #32, #118 ) ;
#190 = DIRECTION ( 'NONE',  ( 0.000000000000000000, 0.000000000000000000, 1.000000000000000000 ) ) ;
#191 = LINE ( 'NONE', #706, #261 ) ;
#192 = DIRECTION ( 'NONE',  ( -0.000000000000000000, -0.000000000000000000, -1.000000000000000000 ) ) ;
#193 = MANIFOLD_SOLID_BREP ( 'Mirror1', #681 ) ;
#194 = AXIS2_PLACEMENT_3D ( 'NONE', #30, #664, #137 ) ;
#195 = PLANE ( 'NONE',  #358 ) ;
#196 = DIRECTION ( 'NONE',  ( -0.000000000000000000, -0.000000000000000000, -1.000000000000000000 ) ) ;
#197 = EDGE_CURVE ( 'NONE', #404, #290, #56, .T. ) ;
#198 = ORIENTED_EDGE ( 'NONE', *, *, #301, .T. ) ;
#199 = CYLINDRICAL_SURFACE ( 'NONE', #86, 44.99999999999995737 ) ;
#200 = DIRECTION ( 'NONE',  ( -0.000000000000000000, 0.000000000000000000, -1.000000000000000000 ) ) ;
#201 = CARTESIAN_POINT ( 'NONE',  ( 13.49999999999999467, -0.3772233983161950022, 7.000000000000000000 ) ) ;
#202 = LINE ( 'NONE', #671, #127 ) ;
#203 = ORIENTED_EDGE ( 'NONE', *, *, #113, .T. ) ;
#204 = VERTEX_POINT ( 'NONE', #449 ) ;
#205 = EDGE_CURVE ( 'NONE', #385, #160, #109, .T. ) ;
#206 = DIRECTION ( 'NONE',  ( -1.000000000000000000, -0.000000000000000000, -0.000000000000000000 ) ) ;
#207 = VERTEX_POINT ( 'NONE', #48 ) ;
#208 = DIRECTION ( 'NONE',  ( -1.000000000000000000, 0.000000000000000000, 0.000000000000000000 ) ) ;
#209 = ADVANCED_FACE ( 'NONE', ( #111 ), #356, .F. ) ;
#210 =( NAMED_UNIT ( * ) PLANE_ANGLE_UNIT ( ) SI_UNIT ( $, .RADIAN. ) );
#211 = DIRECTION ( 'NONE',  ( -1.214271186538564186E-14, 1.000000000000000000, -0.000000000000000000 ) ) ;
#212 = ORIENTED_EDGE ( 'NONE', *, *, #361, .F. ) ;
#213 = EDGE_LOOP ( 'NONE', ( #513, #641, #699, #466 ) ) ;
#214 = DIRECTION ( 'NONE',  ( 0.000000000000000000, -0.000000000000000000, 1.000000000000000000 ) ) ;
#215 = CARTESIAN_POINT ( 'NONE',  ( -11.68181818181817633, -74.01607117249024270, 7.000000000000000000 ) ) ;
#216 = AXIS2_PLACEMENT_3D ( 'NONE', #481, #434, #537 ) ;
#217 = EDGE_CURVE ( 'NONE', #148, #173, #677, .T. ) ;
#218 = VECTOR ( 'NONE', #26, 1000.000000000000000 ) ;
#219 = ORIENTED_EDGE ( 'NONE', *, *, #243, .T. ) ;
#220 = ORIENTED_EDGE ( 'NONE', *, *, #418, .T. ) ;
#221 = DIRECTION ( 'NONE',  ( -0.000000000000000000, -0.000000000000000000, -1.000000000000000000 ) ) ;
#222 = DIRECTION ( 'NONE',  ( -0.000000000000000000, -0.000000000000000000, -1.000000000000000000 ) ) ;
#223 = LINE ( 'NONE', #343, #666 ) ;
#224 = EDGE_LOOP ( 'NONE', ( #96, #514, #470, #663 ) ) ;
#225 = ADVANCED_FACE ( 'NONE', ( #332 ), #228, .T. ) ;
#226 = ADVANCED_FACE ( 'NONE', ( #63 ), #114, .F. ) ;
#227 = ORIENTED_EDGE ( 'NONE', *, *, #217, .T. ) ;
#228 = PLANE ( 'NONE',  #724 ) ;
#229 = CIRCLE ( 'NONE', #288, 44.99999999999996447 ) ;
#230 = VERTEX_POINT ( 'NONE', #389 ) ;
#231 = AXIS2_PLACEMENT_3D ( 'NONE', #577, #102, #208 ) ;
#232 = DIRECTION ( 'NONE',  ( -0.000000000000000000, -0.000000000000000000, -1.000000000000000000 ) ) ;
#233 = ORIENTED_EDGE ( 'NONE', *, *, #12, .F. ) ;
#234 = EDGE_CURVE ( 'NONE', #520, #230, #723, .T. ) ;
#235 = DIRECTION ( 'NONE',  ( 1.214271186538564186E-14, -1.000000000000000000, 0.000000000000000000 ) ) ;
#236 = DIRECTION ( 'NONE',  ( -0.000000000000000000, -0.000000000000000000, -1.000000000000000000 ) ) ;
#237 = ADVANCED_FACE ( 'NONE', ( #694 ), #352, .T. ) ;
#238 = AXIS2_PLACEMENT_3D ( 'NONE', #302, #661, #375 ) ;
#239 = LINE ( 'NONE', #538, #683 ) ;
#240 = CARTESIAN_POINT ( 'NONE',  ( -3.499999999999993339, -79.76566691825092903, 7.000000000000000000 ) ) ;
#241 = DIRECTION ( 'NONE',  ( 1.214271186538565606E-14, 1.000000000000000000, 0.000000000000000000 ) ) ;
#242 = EDGE_CURVE ( 'NONE', #686, #11, #562, .T. ) ;
#243 = EDGE_CURVE ( 'NONE', #340, #275, #408, .T. ) ;
#244 = CARTESIAN_POINT ( 'NONE',  ( 11.49999999999999645, -80.90855723481810458, 0.000000000000000000 ) ) ;
#245 = ORIENTED_EDGE ( 'NONE', *, *, #5, .T. ) ;
#246 = AXIS2_PLACEMENT_3D ( 'NONE', #308, #179, #419 ) ;
#247 = CIRCLE ( 'NONE', #713, 1.999999999999998224 ) ;
#248 = DIRECTION ( 'NONE',  ( 0.000000000000000000, -0.000000000000000000, 1.000000000000000000 ) ) ;
#249 = LINE ( 'NONE', #714, #642 ) ;
#250 = ORIENTED_EDGE ( 'NONE', *, *, #316, .T. ) ;
#251 = CYLINDRICAL_SURFACE ( 'NONE', #588, 2.000000000000000000 ) ;
#252 = VERTEX_POINT ( 'NONE', #585 ) ;
#253 = VECTOR ( 'NONE', #206, 1000.000000000000000 ) ;
#254 = CARTESIAN_POINT ( 'NONE',  ( -3.499999999999993339, -79.76566691825092903, 0.000000000000000000 ) ) ;
#255 = LINE ( 'NONE', #262, #14 ) ;
#256 = ADVANCED_BREP_SHAPE_REPRESENTATION ( 'Tensile Coupon 7x7mm', ( #193, #34 ), #580 ) ;
#257 = ADVANCED_FACE ( 'NONE', ( #292 ), #396, .F. ) ;
#258 = ORIENTED_EDGE ( 'NONE', *, *, #40, .F. ) ;
#259 = SURFACE_STYLE_FILL_AREA ( #599 ) ;
#260 = VECTOR ( 'NONE', #177, 1000.000000000000000 ) ;
#261 = VECTOR ( 'NONE', #236, 1000.000000000000000 ) ;
#262 = CARTESIAN_POINT ( 'NONE',  ( 13.50000000000000711, -79.76566691825092903, 7.000000000000000000 ) ) ;
#263 = ORIENTED_EDGE ( 'NONE', *, *, #576, .F. ) ;
#264 = EDGE_LOOP ( 'NONE', ( #55, #399, #505, #41 ) ) ;
#265 = CARTESIAN_POINT ( 'NONE',  ( 13.49999999999999467, -0.3772233983161950022, 7.000000000000000000 ) ) ;
#266 = DIRECTION ( 'NONE',  ( 1.000000000000000000, 0.000000000000000000, 0.000000000000000000 ) ) ;
#267 = DIRECTION ( 'NONE',  ( 0.000000000000000000, -0.000000000000000000, -1.000000000000000000 ) ) ;
#268 = EDGE_LOOP ( 'NONE', ( #149, #616, #733, #510 ) ) ;
#269 = ORIENTED_EDGE ( 'NONE', *, *, #468, .F. ) ;
#270 = DIRECTION ( 'NONE',  ( -7.517135062566164733E-16, 1.000000000000000000, 0.000000000000000000 ) ) ;
#271 = ADVANCED_FACE ( 'NONE', ( #527 ), #348, .F. ) ;
#272 =( LENGTH_UNIT ( ) NAMED_UNIT ( * ) SI_UNIT ( .MILLI., .METRE. ) );
#273 = LINE ( 'NONE', #322, #335 ) ;
#274 = ORIENTED_EDGE ( 'NONE', *, *, #40, .T. ) ;
#275 = VERTEX_POINT ( 'NONE', #345 ) ;
#276 = LINE ( 'NONE', #342, #459 ) ;
#277 = AXIS2_PLACEMENT_3D ( 'NONE', #646, #416, #357 ) ;
#278 = ORIENTED_EDGE ( 'NONE', *, *, #242, .T. ) ;
#279 = ORIENTED_EDGE ( 'NONE', *, *, #349, .T. ) ;
#280 = CARTESIAN_POINT ( 'NONE',  ( -11.50000000000000533, -82.90855723481810458, 0.000000000000000000 ) ) ;
#281 = CARTESIAN_POINT ( 'NONE',  ( 3.499999999999996003, -48.14289031656714712, 7.000000000000000000 ) ) ;
#282 = EDGE_CURVE ( 'NONE', #64, #555, #619, .T. ) ;
#283 = ORIENTED_EDGE ( 'NONE', *, *, #739, .F. ) ;
#284 = CARTESIAN_POINT ( 'NONE',  ( -48.50000000000000000, -33.14289031656714712, 7.000000000000000000 ) ) ;
#285 = FACE_OUTER_BOUND ( 'NONE', #695, .T. ) ;
#286 = ORIENTED_EDGE ( 'NONE', *, *, #43, .T. ) ;
#287 = DIRECTION ( 'NONE',  ( -1.000000000000000000, 0.000000000000000000, 0.000000000000000000 ) ) ;
#288 = AXIS2_PLACEMENT_3D ( 'NONE', #347, #461, #522 ) ;
#289 = ORIENTED_EDGE ( 'NONE', *, *, #167, .T. ) ;
#290 = VERTEX_POINT ( 'NONE', #42 ) ;
#291 = ADVANCED_FACE ( 'NONE', ( #285 ), #175, .T. ) ;
#292 = FACE_OUTER_BOUND ( 'NONE', #224, .T. ) ;
#293 = EDGE_CURVE ( 'NONE', #3, #628, #9, .T. ) ;
#294 = AXIS2_PLACEMENT_3D ( 'NONE', #442, #452, #678 ) ;
#295 = LINE ( 'NONE', #180, #659 ) ;
#296 = DIRECTION ( 'NONE',  ( -1.000000000000000000, 0.000000000000000000, 0.000000000000000000 ) ) ;
#297 = AXIS2_PLACEMENT_3D ( 'NONE', #265, #465, #235 ) ;
#298 = AXIS2_PLACEMENT_3D ( 'NONE', #158, #506, #270 ) ;
#299 = DIRECTION ( 'NONE',  ( 1.214271186538565606E-14, 1.000000000000000000, 0.000000000000000000 ) ) ;
#300 = DIRECTION ( 'NONE',  ( -0.000000000000000000, -0.000000000000000000, -1.000000000000000000 ) ) ;
#301 = EDGE_CURVE ( 'NONE', #404, #252, #469, .T. ) ;
#302 = CARTESIAN_POINT ( 'NONE',  ( 3.500000000000008438, -79.76566691825092903, 0.000000000000000000 ) ) ;
#303 = EDGE_CURVE ( 'NONE', #252, #612, #119, .T. ) ;
#304 = PRODUCT ( 'Tensile Coupon 7x7mm', 'Tensile Coupon 7x7mm', '', ( #321 ) ) ;
#305 = CARTESIAN_POINT ( 'NONE',  ( -11.50000000000000533, -82.90855723481810458, 7.000000000000000000 ) ) ;
#306 = CARTESIAN_POINT ( 'NONE',  ( 48.49999999999995026, -48.14289031656714712, 0.000000000000000000 ) ) ;
#307 = LINE ( 'NONE', #20, #136 ) ;
#308 = CARTESIAN_POINT ( 'NONE',  ( -11.50000000000000533, -82.90855723481810458, 7.000000000000000000 ) ) ;
#309 = DIRECTION ( 'NONE',  ( -0.000000000000000000, -0.000000000000000000, -1.000000000000000000 ) ) ;
#310 = CARTESIAN_POINT ( 'NONE',  ( -3.500000000000003109, -33.14289031656714002, 7.000000000000000000 ) ) ;
#311 = EDGE_LOOP ( 'NONE', ( #569, #54, #79, #679 ) ) ;
#312 = VECTOR ( 'NONE', #543, 1000.000000000000000 ) ;
#313 = DIRECTION ( 'NONE',  ( 1.000000000000000000, 0.000000000000000000, 0.000000000000000000 ) ) ;
#314 = ORIENTED_EDGE ( 'NONE', *, *, #730, .T. ) ;
#315 = CARTESIAN_POINT ( 'NONE',  ( 11.68181818181818166, -7.269709460644049770, 7.000000000000000000 ) ) ;
#316 = EDGE_CURVE ( 'NONE', #160, #23, #536, .T. ) ;
#317 = EDGE_LOOP ( 'NONE', ( #219, #212, #263, #435 ) ) ;
#318 = APPLICATION_CONTEXT ( 'automotive_design' ) ;
#319 = AXIS2_PLACEMENT_3D ( 'NONE', #110, #221, #53 ) ;
#320 = AXIS2_PLACEMENT_3D ( 'NONE', #684, #93, #507 ) ;
#321 = PRODUCT_CONTEXT ( 'NONE', #318, 'mechanical' ) ;
#322 = CARTESIAN_POINT ( 'NONE',  ( -13.50000000000000533, -0.3772233983161953352, 7.000000000000000000 ) ) ;
#323 = ORIENTED_EDGE ( 'NONE', *, *, #303, .T. ) ;
#324 = EDGE_LOOP ( 'NONE', ( #676, #617, #608, #453 ) ) ;
#325 = VECTOR ( 'NONE', #722, 1000.000000000000000 ) ;
#326 = VECTOR ( 'NONE', #129, 1000.000000000000000 ) ;
#327 = DIRECTION ( 'NONE',  ( -1.000000000000000000, 0.000000000000000000, 0.000000000000000000 ) ) ;
#328 = PLANE ( 'NONE',  #80 ) ;
#329 = EDGE_CURVE ( 'NONE', #101, #59, #247, .T. ) ;
#330 = ORIENTED_EDGE ( 'NONE', *, *, #205, .F. ) ;
#331 = ORIENTED_EDGE ( 'NONE', *, *, #5, .F. ) ;
#332 = FACE_OUTER_BOUND ( 'NONE', #311, .T. ) ;
#333 = DIRECTION ( 'NONE',  ( -1.000000000000000000, 1.214271186538565764E-14, 0.000000000000000000 ) ) ;
#334 = VERTEX_POINT ( 'NONE', #132 ) ;
#335 = VECTOR ( 'NONE', #554, 1000.000000000000000 ) ;
#336 = CARTESIAN_POINT ( 'NONE',  ( -11.50000000000000533, -82.90855723481810458, 7.000000000000000000 ) ) ;
#337 = VERTEX_POINT ( 'NONE', #542 ) ;
#338 = ORIENTED_EDGE ( 'NONE', *, *, #654, .T. ) ;
#339 = DIRECTION ( 'NONE',  ( -9.251858538542971828E-16, 1.000000000000000000, -0.000000000000000000 ) ) ;
#340 = VERTEX_POINT ( 'NONE', #530 ) ;
#341 = AXIS2_PLACEMENT_3D ( 'NONE', #479, #182, #596 ) ;
#342 = CARTESIAN_POINT ( 'NONE',  ( -11.50000000000000533, -82.90855723481810458, 0.000000000000000000 ) ) ;
#343 = CARTESIAN_POINT ( 'NONE',  ( 13.49999999999999467, -0.3772233983161950022, 0.000000000000000000 ) ) ;
#344 = EDGE_CURVE ( 'NONE', #337, #566, #181, .T. ) ;
#345 = CARTESIAN_POINT ( 'NONE',  ( -3.500000000000003109, -48.14289031656715423, 0.000000000000000000 ) ) ;
#346 = ORIENTED_EDGE ( 'NONE', *, *, #301, .F. ) ;
#347 = CARTESIAN_POINT ( 'NONE',  ( 48.49999999999995026, -48.14289031656714712, 7.000000000000000000 ) ) ;
#348 = CYLINDRICAL_SURFACE ( 'NONE', #155, 45.00000000000000000 ) ;
#349 = EDGE_CURVE ( 'NONE', #207, #520, #584, .T. ) ;
#350 = ORIENTED_EDGE ( 'NONE', *, *, #576, .T. ) ;
#351 = VERTEX_POINT ( 'NONE', #178 ) ;
#352 = CYLINDRICAL_SURFACE ( 'NONE', #72, 10.00000000000000178 ) ;
#353 = AXIS2_PLACEMENT_3D ( 'NONE', #690, #575, #407 ) ;
#354 = EDGE_CURVE ( 'NONE', #385, #398, #704, .T. ) ;
#355 =( NAMED_UNIT ( * ) SI_UNIT ( $, .STERADIAN. ) SOLID_ANGLE_UNIT ( ) );
#356 = PLANE ( 'NONE',  #298 ) ;
#357 = DIRECTION ( 'NONE',  ( 1.000000000000000000, 0.000000000000000000, 0.000000000000000000 ) ) ;
#358 = AXIS2_PLACEMENT_3D ( 'NONE', #736, #433, #685 ) ;
#359 = DIRECTION ( 'NONE',  ( -9.251858538542971828E-16, 1.000000000000000000, -0.000000000000000000 ) ) ;
#360 = ORIENTED_EDGE ( 'NONE', *, *, #154, .T. ) ;
#361 = EDGE_CURVE ( 'NONE', #230, #275, #712, .T. ) ;
#362 = CARTESIAN_POINT ( 'NONE',  ( 3.500000000000008438, -79.76566691825092903, 7.000000000000000000 ) ) ;
#363 = DIRECTION ( 'NONE',  ( -0.000000000000000000, -0.000000000000000000, -1.000000000000000000 ) ) ;
#364 = EDGE_CURVE ( 'NONE', #409, #101, #239, .T. ) ;
#365 = CIRCLE ( 'NONE', #341, 9.999999999999998224 ) ;
#366 = ORIENTED_EDGE ( 'NONE', *, *, #24, .F. ) ;
#367 = VECTOR ( 'NONE', #428, 1000.000000000000000 ) ;
#368 = LINE ( 'NONE', #474, #153 ) ;
#369 = CARTESIAN_POINT ( 'NONE',  ( 3.499999999999996003, -33.14289031656714712, 0.000000000000000000 ) ) ;
#370 = DIRECTION ( 'NONE',  ( -0.000000000000000000, -0.000000000000000000, -1.000000000000000000 ) ) ;
#371 = CARTESIAN_POINT ( 'NONE',  ( -11.50000000000000533, 1.622776601683803666, 7.000000000000000000 ) ) ;
#372 = CIRCLE ( 'NONE', #400, 10.00000000000000178 ) ;
#373 = CARTESIAN_POINT ( 'NONE',  ( 11.49999999999999645, -80.90855723481810458, 7.000000000000000000 ) ) ;
#374 = CYLINDRICAL_SURFACE ( 'NONE', #688, 2.000000000000000000 ) ;
#375 = DIRECTION ( 'NONE',  ( -1.000000000000000000, 0.000000000000000000, 0.000000000000000000 ) ) ;
#376 = ORIENTED_EDGE ( 'NONE', *, *, #113, .F. ) ;
#377 =( GEOMETRIC_REPRESENTATION_CONTEXT ( 3 ) GLOBAL_UNCERTAINTY_ASSIGNED_CONTEXT ( ( #58 ) ) GLOBAL_UNIT_ASSIGNED_CONTEXT ( ( #91, #613, #355 ) ) REPRESENTATION_CONTEXT ( 'NONE', 'WORKASPACE' ) );
#378 = EDGE_CURVE ( 'NONE', #628, #566, #477, .T. ) ;
#379 = SHAPE_DEFINITION_REPRESENTATION ( #151, #256 ) ;
#380 = LINE ( 'NONE', #502, #410 ) ;
#381 = ORIENTED_EDGE ( 'NONE', *, *, #316, .F. ) ;
#382 = SURFACE_SIDE_STYLE ('',( #259 ) ) ;
#383 = DIRECTION ( 'NONE',  ( -0.000000000000000000, -0.000000000000000000, -1.000000000000000000 ) ) ;
#384 = DIRECTION ( 'NONE',  ( -1.000000000000000000, -0.000000000000000000, -0.000000000000000000 ) ) ;
#385 = VERTEX_POINT ( 'NONE', #70 ) ;
#386 = ORIENTED_EDGE ( 'NONE', *, *, #329, .T. ) ;
#387 = CARTESIAN_POINT ( 'NONE',  ( 11.49999999999999645, 1.622776601683803666, 7.000000000000000000 ) ) ;
#388 = ORIENTED_EDGE ( 'NONE', *, *, #529, .T. ) ;
#389 = CARTESIAN_POINT ( 'NONE',  ( -3.500000000000003109, -48.14289031656715423, 7.000000000000000000 ) ) ;
#390 = VECTOR ( 'NONE', #644, 1000.000000000000000 ) ;
#391 = VECTOR ( 'NONE', #500, 1000.000000000000000 ) ;
#392 = APPLICATION_PROTOCOL_DEFINITION ( 'draft international standard', 'automotive_design', 1998, #589 ) ;
#393 = PLANE ( 'NONE',  #33 ) ;
#394 = ORIENTED_EDGE ( 'NONE', *, *, #378, .F. ) ;
#395 = ORIENTED_EDGE ( 'NONE', *, *, #161, .T. ) ;
#396 = CYLINDRICAL_SURFACE ( 'NONE', #483, 45.00000000000000000 ) ;
#397 = DIRECTION ( 'NONE',  ( -0.000000000000000000, 0.000000000000000000, -1.000000000000000000 ) ) ;
#398 = VERTEX_POINT ( 'NONE', #15 ) ;
#399 = ORIENTED_EDGE ( 'NONE', *, *, #364, .F. ) ;
#400 = AXIS2_PLACEMENT_3D ( 'NONE', #604, #563, #498 ) ;
#401 = DIRECTION ( 'NONE',  ( -1.214271186538565764E-14, -1.000000000000000000, 0.000000000000000000 ) ) ;
#402 = EDGE_LOOP ( 'NONE', ( #439, #106, #622, #457 ) ) ;
#403 = FACE_OUTER_BOUND ( 'NONE', #525, .T. ) ;
#404 = VERTEX_POINT ( 'NONE', #594 ) ;
#405 = AXIS2_PLACEMENT_3D ( 'NONE', #657, #22, #717 ) ;
#406 = ORIENTED_EDGE ( 'NONE', *, *, #217, .F. ) ;
#407 = DIRECTION ( 'NONE',  ( -1.000000000000000000, 0.000000000000000000, 0.000000000000000000 ) ) ;
#408 = LINE ( 'NONE', #682, #391 ) ;
#409 = VERTEX_POINT ( 'NONE', #600 ) ;
#410 = VECTOR ( 'NONE', #35, 1000.000000000000000 ) ;
#411 = PRODUCT_DEFINITION_FORMATION_WITH_SPECIFIED_SOURCE ( 'ANY', '', #304, .NOT_KNOWN. ) ;
#412 = DIRECTION ( 'NONE',  ( 0.000000000000000000, 0.000000000000000000, 1.000000000000000000 ) ) ;
#413 = ADVANCED_FACE ( 'NONE', ( #77 ), #485, .T. ) ;
#414 = ORIENTED_EDGE ( 'NONE', *, *, #197, .T. ) ;
#415 = DIRECTION ( 'NONE',  ( -0.000000000000000000, -0.000000000000000000, -1.000000000000000000 ) ) ;
#416 = DIRECTION ( 'NONE',  ( -0.000000000000000000, -0.000000000000000000, -1.000000000000000000 ) ) ;
#417 = LINE ( 'NONE', #73, #253 ) ;
#418 = EDGE_CURVE ( 'NONE', #628, #76, #27, .T. ) ;
#419 = DIRECTION ( 'NONE',  ( 0.000000000000000000, -0.000000000000000000, -1.000000000000000000 ) ) ;
#420 = CIRCLE ( 'NONE', #472, 10.00000000000000178 ) ;
#421 = DIRECTION ( 'NONE',  ( -0.000000000000000000, -0.000000000000000000, -1.000000000000000000 ) ) ;
#422 = DIRECTION ( 'NONE',  ( 1.000000000000000000, 0.000000000000000000, 0.000000000000000000 ) ) ;
#423 = CARTESIAN_POINT ( 'NONE',  ( -11.68181818181817633, -74.01607117249024270, 0.000000000000000000 ) ) ;
#424 = VECTOR ( 'NONE', #172, 1000.000000000000000 ) ;
#425 = DIRECTION ( 'NONE',  ( 1.000000000000000000, 0.000000000000000000, 0.000000000000000000 ) ) ;
#426 = ORIENTED_EDGE ( 'NONE', *, *, #303, .F. ) ;
#427 = CARTESIAN_POINT ( 'NONE',  ( 13.50000000000000711, -1.520113714883357892, 0.000000000000000000 ) ) ;
#428 = DIRECTION ( 'NONE',  ( -0.000000000000000000, -0.000000000000000000, -1.000000000000000000 ) ) ;
#429 = VECTOR ( 'NONE', #615, 1000.000000000000000 ) ;
#430 = DIRECTION ( 'NONE',  ( -1.000000000000000000, 0.000000000000000000, 0.000000000000000000 ) ) ;
#431 = EDGE_CURVE ( 'NONE', #672, #334, #643, .T. ) ;
#432 = ORIENTED_EDGE ( 'NONE', *, *, #521, .F. ) ;
#433 = DIRECTION ( 'NONE',  ( 1.000000000000000000, 1.214271186538565764E-14, -0.000000000000000000 ) ) ;
#434 = DIRECTION ( 'NONE',  ( 0.000000000000000000, 0.000000000000000000, 1.000000000000000000 ) ) ;
#435 = ORIENTED_EDGE ( 'NONE', *, *, #141, .T. ) ;
#436 = DIRECTION ( 'NONE',  ( -0.000000000000000000, -0.000000000000000000, -1.000000000000000000 ) ) ;
#437 = STYLED_ITEM ( 'NONE', ( #609 ), #193 ) ;
#438 = FACE_OUTER_BOUND ( 'NONE', #448, .T. ) ;
#439 = ORIENTED_EDGE ( 'NONE', *, *, #154, .F. ) ;
#440 = EDGE_CURVE ( 'NONE', #515, #52, #191, .T. ) ;
#441 = EDGE_CURVE ( 'NONE', #64, #76, #587, .T. ) ;
#442 = CARTESIAN_POINT ( 'NONE',  ( -48.50000000000000000, -33.14289031656714712, 0.000000000000000000 ) ) ;
#443 = ORIENTED_EDGE ( 'NONE', *, *, #24, .T. ) ;
#444 = ORIENTED_EDGE ( 'NONE', *, *, #344, .T. ) ;
#445 = CARTESIAN_POINT ( 'NONE',  ( 13.49999999999999467, -80.90855723481810458, 7.000000000000000000 ) ) ;
#446 = CARTESIAN_POINT ( 'NONE',  ( 3.499999999999996003, -48.14289031656714712, 0.000000000000000000 ) ) ;
#447 = ORIENTED_EDGE ( 'NONE', *, *, #549, .F. ) ;
#448 = EDGE_LOOP ( 'NONE', ( #559, #482, #518, #156 ) ) ;
#449 = CARTESIAN_POINT ( 'NONE',  ( -13.49999999999999112, -79.76566691825092903, 0.000000000000000000 ) ) ;
#450 = AXIS2_PLACEMENT_3D ( 'NONE', #718, #192, #430 ) ;
#451 = VECTOR ( 'NONE', #232, 1000.000000000000000 ) ;
#452 = DIRECTION ( 'NONE',  ( -0.000000000000000000, -0.000000000000000000, -1.000000000000000000 ) ) ;
#453 = ORIENTED_EDGE ( 'NONE', *, *, #121, .T. ) ;
#454 = ORIENTED_EDGE ( 'NONE', *, *, #486, .F. ) ;
#455 = ORIENTED_EDGE ( 'NONE', *, *, #521, .T. ) ;
#456 = CYLINDRICAL_SURFACE ( 'NONE', #539, 9.999999999999998224 ) ;
#457 = ORIENTED_EDGE ( 'NONE', *, *, #595, .T. ) ;
#458 = EDGE_CURVE ( 'NONE', #555, #409, #647, .T. ) ;
#459 = VECTOR ( 'NONE', #164, 1000.000000000000000 ) ;
#460 = FACE_OUTER_BOUND ( 'NONE', #264, .T. ) ;
#461 = DIRECTION ( 'NONE',  ( 0.000000000000000000, -0.000000000000000000, 1.000000000000000000 ) ) ;
#462 = ORIENTED_EDGE ( 'NONE', *, *, #440, .T. ) ;
#463 = DIRECTION ( 'NONE',  ( -1.214271186538564186E-14, 1.000000000000000000, -0.000000000000000000 ) ) ;
#464 = VECTOR ( 'NONE', #135, 1000.000000000000000 ) ;
#465 = DIRECTION ( 'NONE',  ( -1.000000000000000000, -1.214271186538564186E-14, 0.000000000000000000 ) ) ;
#466 = ORIENTED_EDGE ( 'NONE', *, *, #361, .T. ) ;
#467 = EDGE_CURVE ( 'NONE', #47, #351, #128, .T. ) ;
#468 = EDGE_CURVE ( 'NONE', #680, #59, #295, .T. ) ;
#469 = LINE ( 'NONE', #13, #523 ) ;
#470 = ORIENTED_EDGE ( 'NONE', *, *, #696, .F. ) ;
#471 = ORIENTED_EDGE ( 'NONE', *, *, #441, .T. ) ;
#472 = AXIS2_PLACEMENT_3D ( 'NONE', #558, #508, #313 ) ;
#473 = DIRECTION ( 'NONE',  ( -0.000000000000000000, -0.000000000000000000, -1.000000000000000000 ) ) ;
#474 = CARTESIAN_POINT ( 'NONE',  ( -13.49999999999999112, -79.76566691825092903, 7.000000000000000000 ) ) ;
#475 = DIRECTION ( 'NONE',  ( 0.000000000000000000, 0.000000000000000000, 1.000000000000000000 ) ) ;
#476 = VECTOR ( 'NONE', #131, 1000.000000000000000 ) ;
#477 = LINE ( 'NONE', #369, #693 ) ;
#478 = DIRECTION ( 'NONE',  ( -0.000000000000000000, -0.000000000000000000, -1.000000000000000000 ) ) ;
#479 = CARTESIAN_POINT ( 'NONE',  ( 3.500000000000008438, -1.520113714883359224, 7.000000000000000000 ) ) ;
#480 = DIRECTION ( 'NONE',  ( -0.000000000000000000, -0.000000000000000000, -1.000000000000000000 ) ) ;
#481 = CARTESIAN_POINT ( 'NONE',  ( 3.500000000000008438, -1.520113714883359224, 0.000000000000000000 ) ) ;
#482 = ORIENTED_EDGE ( 'NONE', *, *, #354, .F. ) ;
#483 = AXIS2_PLACEMENT_3D ( 'NONE', #728, #473, #636 ) ;
#484 = CARTESIAN_POINT ( 'NONE',  ( 11.68181818181818166, -74.01607117249024270, 0.000000000000000000 ) ) ;
#485 = CYLINDRICAL_SURFACE ( 'NONE', #166, 1.999999999999998224 ) ;
#486 = EDGE_CURVE ( 'NONE', #612, #398, #417, .T. ) ;
#487 = FACE_OUTER_BOUND ( 'NONE', #658, .T. ) ;
#488 = ORIENTED_EDGE ( 'NONE', *, *, #458, .F. ) ;
#489 = FACE_OUTER_BOUND ( 'NONE', #157, .T. ) ;
#490 = DIRECTION ( 'NONE',  ( -0.000000000000000000, -0.000000000000000000, -1.000000000000000000 ) ) ;
#491 = DIRECTION ( 'NONE',  ( 1.000000000000000000, 0.000000000000000000, 0.000000000000000000 ) ) ;
#492 = LINE ( 'NONE', #387, #429 ) ;
#493 = CARTESIAN_POINT ( 'NONE',  ( -13.49999999999999112, -79.76566691825092903, 7.000000000000000000 ) ) ;
#494 = ADVANCED_FACE ( 'NONE', ( #489 ), #374, .T. ) ;
#495 = ORIENTED_EDGE ( 'NONE', *, *, #205, .T. ) ;
#496 = CIRCLE ( 'NONE', #353, 2.000000000000000000 ) ;
#497 = SURFACE_STYLE_USAGE ( .BOTH. , #382 ) ;
#498 = DIRECTION ( 'NONE',  ( 1.000000000000000000, 0.000000000000000000, 0.000000000000000000 ) ) ;
#499 = VERTEX_POINT ( 'NONE', #89 ) ;
#500 = DIRECTION ( 'NONE',  ( 7.517135062566164733E-16, -1.000000000000000000, -0.000000000000000000 ) ) ;
#501 = APPLICATION_PROTOCOL_DEFINITION ( 'draft international standard', 'automotive_design', 1998, #318 ) ;
#502 = CARTESIAN_POINT ( 'NONE',  ( -3.499999999999997335, -40.64289031656714712, 7.000000000000000000 ) ) ;
#503 = VECTOR ( 'NONE', #383, 1000.000000000000000 ) ;
#504 = ORIENTED_EDGE ( 'NONE', *, *, #549, .T. ) ;
#505 = ORIENTED_EDGE ( 'NONE', *, *, #133, .T. ) ;
#506 = DIRECTION ( 'NONE',  ( 1.000000000000000000, 7.517135062566164733E-16, -0.000000000000000000 ) ) ;
#507 = DIRECTION ( 'NONE',  ( -1.000000000000000000, 0.000000000000000000, 0.000000000000000000 ) ) ;
#508 = DIRECTION ( 'NONE',  ( 0.000000000000000000, 0.000000000000000000, 1.000000000000000000 ) ) ;
#509 = ORIENTED_EDGE ( 'NONE', *, *, #242, .F. ) ;
#510 = ORIENTED_EDGE ( 'NONE', *, *, #293, .T. ) ;
#511 = AXIS2_PLACEMENT_3D ( 'NONE', #362, #665, #138 ) ;
#512 = PLANE ( 'NONE',  #551 ) ;
#513 = ORIENTED_EDGE ( 'NONE', *, *, #730, .F. ) ;
#514 = ORIENTED_EDGE ( 'NONE', *, *, #141, .F. ) ;
#515 = VERTEX_POINT ( 'NONE', #315 ) ;
#516 = DIRECTION ( 'NONE',  ( -0.000000000000000000, -0.000000000000000000, -1.000000000000000000 ) ) ;
#517 = CARTESIAN_POINT ( 'NONE',  ( -13.49999999999999112, -1.520113714883358558, 0.000000000000000000 ) ) ;
#518 = ORIENTED_EDGE ( 'NONE', *, *, #92, .F. ) ;
#519 = CARTESIAN_POINT ( 'NONE',  ( -11.50000000000000533, -0.3772233983161953352, 7.000000000000000000 ) ) ;
#520 = VERTEX_POINT ( 'NONE', #215 ) ;
#521 = EDGE_CURVE ( 'NONE', #23, #171, #372, .T. ) ;
#522 = DIRECTION ( 'NONE',  ( 1.000000000000000000, 0.000000000000000000, 0.000000000000000000 ) ) ;
#523 = VECTOR ( 'NONE', #300, 1000.000000000000000 ) ;
#524 = CARTESIAN_POINT ( 'NONE',  ( 3.499999999999996003, -48.14289031656714712, 7.000000000000000000 ) ) ;
#525 = EDGE_LOOP ( 'NONE', ( #394, #220, #360, #163, #386, #338, #715, #691, #737, #314, #174, #88, #447, #509, #570, #454, #426, #331, #376, #116 ) ) ;
#526 = ORIENTED_EDGE ( 'NONE', *, *, #654, .F. ) ;
#527 = FACE_OUTER_BOUND ( 'NONE', #213, .T. ) ;
#528 = VECTOR ( 'NONE', #211, 1000.000000000000000 ) ;
#529 = EDGE_CURVE ( 'NONE', #160, #686, #273, .T. ) ;
#530 = CARTESIAN_POINT ( 'NONE',  ( -3.500000000000003109, -33.14289031656714002, 0.000000000000000000 ) ) ;
#531 = UNCERTAINTY_MEASURE_WITH_UNIT (LENGTH_MEASURE( 1.000000000000000082E-05 ), #272, 'distance_accuracy_value', 'NONE');
#532 = CARTESIAN_POINT ( 'NONE',  ( 13.49999999999999467, -80.90855723481810458, 7.000000000000000000 ) ) ;
#533 = VECTOR ( 'NONE', #370, 1000.000000000000000 ) ;
#534 = EDGE_CURVE ( 'NONE', #732, #340, #49, .T. ) ;
#535 = CARTESIAN_POINT ( 'NONE',  ( -13.49999999999999112, -1.520113714883358558, 7.000000000000000000 ) ) ;
#536 = LINE ( 'NONE', #19, #39 ) ;
#537 = DIRECTION ( 'NONE',  ( -1.000000000000000000, 0.000000000000000000, 0.000000000000000000 ) ) ;
#538 = CARTESIAN_POINT ( 'NONE',  ( 13.49999999999999467, -80.90855723481810458, 7.000000000000000000 ) ) ;
#539 = AXIS2_PLACEMENT_3D ( 'NONE', #162, #222, #574 ) ;
#540 = ADVANCED_FACE ( 'NONE', ( #103 ), #251, .T. ) ;
#541 = LINE ( 'NONE', #16, #476 ) ;
#542 = CARTESIAN_POINT ( 'NONE',  ( 3.499999999999996003, -33.14289031656714712, 7.000000000000000000 ) ) ;
#543 = DIRECTION ( 'NONE',  ( -0.000000000000000000, -0.000000000000000000, -1.000000000000000000 ) ) ;
#544 = CIRCLE ( 'NONE', #71, 44.99999999999996447 ) ;
#545 = ORIENTED_EDGE ( 'NONE', *, *, #293, .F. ) ;
#546 = AXIS2_PLACEMENT_3D ( 'NONE', #240, #478, #422 ) ;
#547 = CARTESIAN_POINT ( 'NONE',  ( 13.50000000000000711, -79.76566691825092903, 7.000000000000000000 ) ) ;
#548 = ORIENTED_EDGE ( 'NONE', *, *, #662, .T. ) ;
#549 = EDGE_CURVE ( 'NONE', #11, #732, #420, .T. ) ;
#550 = DIRECTION ( 'NONE',  ( -1.000000000000000000, 0.000000000000000000, 0.000000000000000000 ) ) ;
#551 = AXIS2_PLACEMENT_3D ( 'NONE', #57, #397, #626 ) ;
#552 = EDGE_LOOP ( 'NONE', ( #203, #406, #134, #462 ) ) ;
#553 = FACE_OUTER_BOUND ( 'NONE', #727, .T. ) ;
#554 = DIRECTION ( 'NONE',  ( -0.000000000000000000, -0.000000000000000000, -1.000000000000000000 ) ) ;
#555 = VERTEX_POINT ( 'NONE', #547 ) ;
#556 = ORIENTED_EDGE ( 'NONE', *, *, #107, .F. ) ;
#557 = AXIS2_PLACEMENT_3D ( 'NONE', #125, #363, #67 ) ;
#558 = CARTESIAN_POINT ( 'NONE',  ( -3.499999999999993339, -1.520113714883358558, 0.000000000000000000 ) ) ;
#559 = ORIENTED_EDGE ( 'NONE', *, *, #486, .T. ) ;
#560 = ORIENTED_EDGE ( 'NONE', *, *, #349, .F. ) ;
#561 = ADVANCED_FACE ( 'NONE', ( #50 ), #195, .F. ) ;
#562 = LINE ( 'NONE', #697, #424 ) ;
#563 = DIRECTION ( 'NONE',  ( 0.000000000000000000, 0.000000000000000000, 1.000000000000000000 ) ) ;
#564 = AXIS2_PLACEMENT_3D ( 'NONE', #1, #629, #108 ) ;
#565 = EDGE_LOOP ( 'NONE', ( #526, #269, #443, #627 ) ) ;
#566 = VERTEX_POINT ( 'NONE', #87 ) ;
#567 = ADVANCED_FACE ( 'NONE', ( #726 ), #147, .F. ) ;
#568 = CARTESIAN_POINT ( 'NONE',  ( 3.499999999999996003, -33.14289031656714712, 7.000000000000000000 ) ) ;
#569 = ORIENTED_EDGE ( 'NONE', *, *, #65, .F. ) ;
#570 = ORIENTED_EDGE ( 'NONE', *, *, #18, .F. ) ;
#571 = AXIS2_PLACEMENT_3D ( 'NONE', #140, #190, #573 ) ;
#572 = LINE ( 'NONE', #336, #2 ) ;
#573 = DIRECTION ( 'NONE',  ( -1.000000000000000000, 0.000000000000000000, 0.000000000000000000 ) ) ;
#574 = DIRECTION ( 'NONE',  ( -1.000000000000000000, 0.000000000000000000, 0.000000000000000000 ) ) ;
#575 = DIRECTION ( 'NONE',  ( 0.000000000000000000, 0.000000000000000000, 1.000000000000000000 ) ) ;
#576 = EDGE_CURVE ( 'NONE', #499, #230, #380, .T. ) ;
#577 = CARTESIAN_POINT ( 'NONE',  ( 3.500000000000008438, -79.76566691825092903, 7.000000000000000000 ) ) ;
#578 = ORIENTED_EDGE ( 'NONE', *, *, #624, .F. ) ;
#579 = ORIENTED_EDGE ( 'NONE', *, *, #18, .T. ) ;
#580 =( GEOMETRIC_REPRESENTATION_CONTEXT ( 3 ) GLOBAL_UNCERTAINTY_ASSIGNED_CONTEXT ( ( #531 ) ) GLOBAL_UNIT_ASSIGNED_CONTEXT ( ( #272, #210, #735 ) ) REPRESENTATION_CONTEXT ( 'NONE', 'WORKASPACE' ) );
#581 = CARTESIAN_POINT ( 'NONE',  ( -3.499999999999993339, -1.520113714883358558, 7.000000000000000000 ) ) ;
#582 = ORIENTED_EDGE ( 'NONE', *, *, #12, .T. ) ;
#583 = CIRCLE ( 'NONE', #277, 44.99999999999996447 ) ;
#584 = CIRCLE ( 'NONE', #546, 10.00000000000000178 ) ;
#585 = CARTESIAN_POINT ( 'NONE',  ( 13.49999999999999467, -0.3772233983161950022, 0.000000000000000000 ) ) ;
#586 = CARTESIAN_POINT ( 'NONE',  ( -11.50000000000000533, -82.90855723481810458, 7.000000000000000000 ) ) ;
#587 = LINE ( 'NONE', #592, #367 ) ;
#588 = AXIS2_PLACEMENT_3D ( 'NONE', #37, #720, #550 ) ;
#589 = APPLICATION_CONTEXT ( 'automotive_design' ) ;
#590 = CARTESIAN_POINT ( 'NONE',  ( 11.68181818181818166, -74.01607117249024270, 7.000000000000000000 ) ) ;
#591 = DIRECTION ( 'NONE',  ( 1.214271186538565606E-14, -1.000000000000000000, -0.000000000000000000 ) ) ;
#592 = CARTESIAN_POINT ( 'NONE',  ( 11.68181818181818166, -74.01607117249024270, 7.000000000000000000 ) ) ;
#593 = AXIS2_PLACEMENT_3D ( 'NONE', #581, #415, #287 ) ;
#594 = CARTESIAN_POINT ( 'NONE',  ( 13.49999999999999467, -0.3772233983161950022, 7.000000000000000000 ) ) ;
#595 = EDGE_CURVE ( 'NONE', #555, #62, #255, .T. ) ;
#596 = DIRECTION ( 'NONE',  ( -1.000000000000000000, 0.000000000000000000, 0.000000000000000000 ) ) ;
#597 = EDGE_CURVE ( 'NONE', #290, #612, #492, .T. ) ;
#598 = ORIENTED_EDGE ( 'NONE', *, *, #107, .T. ) ;
#599 = FILL_AREA_STYLE ('',( #84 ) ) ;
#600 = CARTESIAN_POINT ( 'NONE',  ( 13.49999999999999467, -80.90855723481810458, 7.000000000000000000 ) ) ;
#601 = LINE ( 'NONE', #310, #312 ) ;
#602 = ORIENTED_EDGE ( 'NONE', *, *, #529, .F. ) ;
#603 = CARTESIAN_POINT ( 'NONE',  ( 48.49999999999995026, -48.14289031656714712, 7.000000000000000000 ) ) ;
#604 = CARTESIAN_POINT ( 'NONE',  ( -3.499999999999993339, -1.520113714883358558, 7.000000000000000000 ) ) ;
#605 = CARTESIAN_POINT ( 'NONE',  ( -13.50000000000000533, -0.3772233983161953352, 7.000000000000000000 ) ) ;
#606 = EDGE_LOOP ( 'NONE', ( #29, #637, #274, #126 ) ) ;
#607 = DIRECTION ( 'NONE',  ( -0.000000000000000000, -0.000000000000000000, -1.000000000000000000 ) ) ;
#608 = ORIENTED_EDGE ( 'NONE', *, *, #467, .T. ) ;
#609 = PRESENTATION_STYLE_ASSIGNMENT (( #497 ) ) ;
#610 = CARTESIAN_POINT ( 'NONE',  ( -11.50000000000000533, -0.3772233983161953352, 7.000000000000000000 ) ) ;
#611 = CARTESIAN_POINT ( 'NONE',  ( 13.49999999999999467, -80.90855723481810458, 0.000000000000000000 ) ) ;
#612 = VERTEX_POINT ( 'NONE', #98 ) ;
#613 =( NAMED_UNIT ( * ) PLANE_ANGLE_UNIT ( ) SI_UNIT ( $, .RADIAN. ) );
#614 = DIRECTION ( 'NONE',  ( -0.000000000000000000, -0.000000000000000000, -1.000000000000000000 ) ) ;
#615 = DIRECTION ( 'NONE',  ( -0.000000000000000000, -0.000000000000000000, -1.000000000000000000 ) ) ;
#616 = ORIENTED_EDGE ( 'NONE', *, *, #344, .F. ) ;
#617 = ORIENTED_EDGE ( 'NONE', *, *, #701, .F. ) ;
#618 = DIRECTION ( 'NONE',  ( -1.000000000000000000, 0.000000000000000000, 0.000000000000000000 ) ) ;
#619 = CIRCLE ( 'NONE', #231, 9.999999999999998224 ) ;
#620 = CARTESIAN_POINT ( 'NONE',  ( -13.49999999999999112, -79.76566691825092903, 7.000000000000000000 ) ) ;
#621 = ORIENTED_EDGE ( 'NONE', *, *, #197, .F. ) ;
#622 = ORIENTED_EDGE ( 'NONE', *, *, #282, .T. ) ;
#623 = CARTESIAN_POINT ( 'NONE',  ( -48.50000000000000000, -48.14289031656714712, 7.000000000000000000 ) ) ;
#624 = EDGE_CURVE ( 'NONE', #148, #404, #721, .T. ) ;
#625 = DIRECTION ( 'NONE',  ( 0.000000000000000000, 0.000000000000000000, 1.000000000000000000 ) ) ;
#626 = DIRECTION ( 'NONE',  ( -1.000000000000000000, 0.000000000000000000, 0.000000000000000000 ) ) ;
#627 = ORIENTED_EDGE ( 'NONE', *, *, #701, .T. ) ;
#628 = VERTEX_POINT ( 'NONE', #446 ) ;
#629 = DIRECTION ( 'NONE',  ( -0.000000000000000000, -0.000000000000000000, -1.000000000000000000 ) ) ;
#630 = ORIENTED_EDGE ( 'NONE', *, *, #696, .T. ) ;
#631 = CIRCLE ( 'NONE', #216, 9.999999999999998224 ) ;
#632 = ADVANCED_FACE ( 'NONE', ( #438 ), #328, .F. ) ;
#633 = CARTESIAN_POINT ( 'NONE',  ( 11.49999999999999645, -82.90855723481810458, 7.000000000000000000 ) ) ;
#634 = PRODUCT_DEFINITION ( 'UNKNOWN', '', #411, #170 ) ;
#635 = ORIENTED_EDGE ( 'NONE', *, *, #418, .F. ) ;
#636 = DIRECTION ( 'NONE',  ( -1.000000000000000000, 0.000000000000000000, 0.000000000000000000 ) ) ;
#637 = ORIENTED_EDGE ( 'NONE', *, *, #121, .F. ) ;
#638 = AXIS2_PLACEMENT_3D ( 'NONE', #284, #200, #327 ) ;
#639 = DIRECTION ( 'NONE',  ( 1.214271186538564186E-14, 1.000000000000000000, 0.000000000000000000 ) ) ;
#640 = EDGE_CURVE ( 'NONE', #171, #732, #731, .T. ) ;
#641 = ORIENTED_EDGE ( 'NONE', *, *, #168, .F. ) ;
#642 = VECTOR ( 'NONE', #709, 1000.000000000000000 ) ;
#643 = CIRCLE ( 'NONE', #405, 2.000000000000000000 ) ;
#644 = DIRECTION ( 'NONE',  ( -0.000000000000000000, -0.000000000000000000, -1.000000000000000000 ) ) ;
#645 = ADVANCED_FACE ( 'NONE', ( #152 ), #393, .T. ) ;
#646 = CARTESIAN_POINT ( 'NONE',  ( 48.49999999999995026, -33.14289031656714712, 0.000000000000000000 ) ) ;
#647 = LINE ( 'NONE', #532, #464 ) ;
#648 = CIRCLE ( 'NONE', #319, 45.00000000000000000 ) ;
#649 = CIRCLE ( 'NONE', #320, 45.00000000000000000 ) ;
#650 = CARTESIAN_POINT ( 'NONE',  ( 3.499999999999996003, -33.14289031656714712, 7.000000000000000000 ) ) ;
#651 = ADVANCED_FACE ( 'NONE', ( #460 ), #738, .T. ) ;
#652 = COLOUR_RGB ( '',0.7921568627450980005, 0.8196078431372548767, 0.9333333333333333481 ) ;
#653 = DIRECTION ( 'NONE',  ( -1.000000000000000000, 0.000000000000000000, 0.000000000000000000 ) ) ;
#654 = EDGE_CURVE ( 'NONE', #59, #672, #276, .T. ) ;
#655 = VECTOR ( 'NONE', #660, 1000.000000000000000 ) ;
#656 = LINE ( 'NONE', #130, #533 ) ;
#657 = CARTESIAN_POINT ( 'NONE',  ( -11.50000000000000533, -80.90855723481810458, 0.000000000000000000 ) ) ;
#658 = EDGE_LOOP ( 'NONE', ( #286, #145, #556, #444 ) ) ;
#659 = VECTOR ( 'NONE', #421, 1000.000000000000000 ) ;
#660 = DIRECTION ( 'NONE',  ( -0.000000000000000000, -0.000000000000000000, -1.000000000000000000 ) ) ;
#661 = DIRECTION ( 'NONE',  ( -0.000000000000000000, -0.000000000000000000, -1.000000000000000000 ) ) ;
#662 = EDGE_CURVE ( 'NONE', #3, #337, #159, .T. ) ;
#663 = ORIENTED_EDGE ( 'NONE', *, *, #640, .T. ) ;
#664 = DIRECTION ( 'NONE',  ( -1.000000000000000000, -9.251858538542971828E-16, 0.000000000000000000 ) ) ;
#665 = DIRECTION ( 'NONE',  ( -0.000000000000000000, -0.000000000000000000, -1.000000000000000000 ) ) ;
#666 = VECTOR ( 'NONE', #463, 1000.000000000000000 ) ;
#667 = ORIENTED_EDGE ( 'NONE', *, *, #467, .F. ) ;
#668 = DIRECTION ( 'NONE',  ( -1.000000000000000000, 0.000000000000000000, 0.000000000000000000 ) ) ;
#669 = ADVANCED_FACE ( 'NONE', ( #403 ), #512, .T. ) ;
#670 = CARTESIAN_POINT ( 'NONE',  ( -11.50000000000000533, 1.622776601683803666, 7.000000000000000000 ) ) ;
#671 = CARTESIAN_POINT ( 'NONE',  ( -11.50000000000000533, 1.622776601683803666, 7.000000000000000000 ) ) ;
#672 = VERTEX_POINT ( 'NONE', #280 ) ;
#673 = ORIENTED_EDGE ( 'NONE', *, *, #168, .T. ) ;
#674 = DIRECTION ( 'NONE',  ( -0.000000000000000000, -0.000000000000000000, -1.000000000000000000 ) ) ;
#675 = ORIENTED_EDGE ( 'NONE', *, *, #92, .T. ) ;
#676 = ORIENTED_EDGE ( 'NONE', *, *, #431, .F. ) ;
#677 = LINE ( 'NONE', #120, #390 ) ;
#678 = DIRECTION ( 'NONE',  ( -1.000000000000000000, 0.000000000000000000, 0.000000000000000000 ) ) ;
#679 = ORIENTED_EDGE ( 'NONE', *, *, #364, .T. ) ;
#680 = VERTEX_POINT ( 'NONE', #633 ) ;
#681 = CLOSED_SHELL ( 'NONE', ( #567, #142, #707, #226, #413, #632, #494, #561, #291, #257, #209, #729, #669, #271, #237, #645, #540, #75, #651, #225, #78, #186 ) ) ;
#682 = CARTESIAN_POINT ( 'NONE',  ( -3.499999999999997335, -40.64289031656714712, 0.000000000000000000 ) ) ;
#683 = VECTOR ( 'NONE', #309, 1000.000000000000000 ) ;
#684 = CARTESIAN_POINT ( 'NONE',  ( -48.50000000000000000, -48.14289031656714712, 0.000000000000000000 ) ) ;
#685 = DIRECTION ( 'NONE',  ( -1.214271186538565764E-14, 1.000000000000000000, 0.000000000000000000 ) ) ;
#686 = VERTEX_POINT ( 'NONE', #105 ) ;
#687 = FACE_OUTER_BOUND ( 'NONE', #552, .T. ) ;
#688 = AXIS2_PLACEMENT_3D ( 'NONE', #610, #607, #94 ) ;
#689 = FACE_OUTER_BOUND ( 'NONE', #10, .T. ) ;
#690 = CARTESIAN_POINT ( 'NONE',  ( -11.50000000000000533, -0.3772233983161953352, 0.000000000000000000 ) ) ;
#691 = ORIENTED_EDGE ( 'NONE', *, *, #115, .T. ) ;
#692 = CIRCLE ( 'NONE', #25, 1.999999999999998224 ) ;
#693 = VECTOR ( 'NONE', #359, 1000.000000000000000 ) ;
#694 = FACE_OUTER_BOUND ( 'NONE', #51, .T. ) ;
#695 = EDGE_LOOP ( 'NONE', ( #504, #97, #432, #289 ) ) ;
#696 = EDGE_CURVE ( 'NONE', #171, #499, #648, .T. ) ;
#697 = CARTESIAN_POINT ( 'NONE',  ( -13.49999999999999112, -1.520113714883358558, 0.000000000000000000 ) ) ;
#698 = ORIENTED_EDGE ( 'NONE', *, *, #624, .T. ) ;
#699 = ORIENTED_EDGE ( 'NONE', *, *, #234, .T. ) ;
#700 = DIRECTION ( 'NONE',  ( -1.000000000000000000, 0.000000000000000000, 0.000000000000000000 ) ) ;
#701 = EDGE_CURVE ( 'NONE', #47, #672, #572, .T. ) ;
#702 = PRESENTATION_LAYER_ASSIGNMENT (  '', '', ( #437 ) ) ;
#703 = LINE ( 'NONE', #305, #260 ) ;
#704 = LINE ( 'NONE', #371, #326 ) ;
#705 = FACE_OUTER_BOUND ( 'NONE', #565, .T. ) ;
#706 = CARTESIAN_POINT ( 'NONE',  ( 11.68181818181818166, -7.269709460644049770, 7.000000000000000000 ) ) ;
#707 = ADVANCED_FACE ( 'NONE', ( #687 ), #456, .T. ) ;
#708 = CARTESIAN_POINT ( 'NONE',  ( 11.49999999999999645, -0.3772233983161945581, 0.000000000000000000 ) ) ;
#709 = DIRECTION ( 'NONE',  ( -0.000000000000000000, -0.000000000000000000, -1.000000000000000000 ) ) ;
#710 = CARTESIAN_POINT ( 'NONE',  ( 11.49999999999999645, -82.90855723481810458, 0.000000000000000000 ) ) ;
#711 = AXIS2_PLACEMENT_3D ( 'NONE', #519, #412, #6 ) ;
#712 = LINE ( 'NONE', #185, #218 ) ;
#713 = AXIS2_PLACEMENT_3D ( 'NONE', #244, #480, #653 ) ;
#714 = CARTESIAN_POINT ( 'NONE',  ( -13.50000000000000533, -80.90855723481810458, 7.000000000000000000 ) ) ;
#715 = ORIENTED_EDGE ( 'NONE', *, *, #431, .T. ) ;
#716 = FACE_OUTER_BOUND ( 'NONE', #402, .T. ) ;
#717 = DIRECTION ( 'NONE',  ( -1.000000000000000000, 0.000000000000000000, 0.000000000000000000 ) ) ;
#718 = CARTESIAN_POINT ( 'NONE',  ( 48.49999999999995026, -33.14289031656714712, 7.000000000000000000 ) ) ;
#719 = CARTESIAN_POINT ( 'NONE',  ( -11.68181818181817633, -7.269709460644047105, 7.000000000000000000 ) ) ;
#720 = DIRECTION ( 'NONE',  ( -0.000000000000000000, -0.000000000000000000, -1.000000000000000000 ) ) ;
#721 = LINE ( 'NONE', #201, #528 ) ;
#722 = DIRECTION ( 'NONE',  ( -0.000000000000000000, -0.000000000000000000, -1.000000000000000000 ) ) ;
#723 = CIRCLE ( 'NONE', #38, 45.00000000000000000 ) ;
#724 = AXIS2_PLACEMENT_3D ( 'NONE', #445, #734, #639 ) ;
#725 = ORIENTED_EDGE ( 'NONE', *, *, #597, .F. ) ;
#726 = FACE_OUTER_BOUND ( 'NONE', #268, .T. ) ;
#727 = EDGE_LOOP ( 'NONE', ( #635, #545, #582, #471 ) ) ;
#728 = CARTESIAN_POINT ( 'NONE',  ( -48.50000000000000000, -33.14289031656714712, 7.000000000000000000 ) ) ;
#729 = ADVANCED_FACE ( 'NONE', ( #689 ), #60, .F. ) ;
#730 = EDGE_CURVE ( 'NONE', #165, #275, #649, .T. ) ;
#731 = LINE ( 'NONE', #143, #503 ) ;
#732 = VERTEX_POINT ( 'NONE', #36 ) ;
#733 = ORIENTED_EDGE ( 'NONE', *, *, #662, .F. ) ;
#734 = DIRECTION ( 'NONE',  ( 1.000000000000000000, -1.214271186538564186E-14, 0.000000000000000000 ) ) ;
#735 =( NAMED_UNIT ( * ) SI_UNIT ( $, .STERADIAN. ) SOLID_ANGLE_UNIT ( ) );
#736 = CARTESIAN_POINT ( 'NONE',  ( -13.49999999999999112, -1.520113714883358558, 7.000000000000000000 ) ) ;
#737 = ORIENTED_EDGE ( 'NONE', *, *, #739, .T. ) ;
#738 = CYLINDRICAL_SURFACE ( 'NONE', #564, 1.999999999999998224 ) ;
#739 = EDGE_CURVE ( 'NONE', #204, #165, #4, .T. ) ;
ENDSEC;
END-ISO-10303-21;
