ISO-10303-21;
HEADER;
FILE_DESCRIPTION (( 'STEP AP203' ),
    '1' );
FILE_NAME ('93475A240_18-8 Stainless Steel Washer.STEP',
    '2021-09-09T01:12:51',
    ( 'Administrator' ),
    ( 'Managed by Terraform' ),
    'SwSTEP 2.0',
    'SolidWorks 2017',
    '' );
FILE_SCHEMA (( 'CONFIG_CONTROL_DESIGN' ));
ENDSEC;

DATA;
#1 = DIRECTION ( 'NONE',  ( 0.0000000000000000000, 0.0000000000000000000, 1.000000000000000000 ) ) ;
#2 = DIRECTION ( 'NONE',  ( 1.000000000000000000, 0.0000000000000000000, 0.0000000000000000000 ) ) ;
#3 = EDGE_LOOP ( 'NONE', ( #145, #35, #34, #6 ) ) ;
#4 = PERSON_AND_ORGANIZATION ( #239, #240 ) ;
#5 = ORIENTED_EDGE ( 'NONE', *, *, #194, .T. ) ;
#6 = ORIENTED_EDGE ( 'NONE', *, *, #160, .F. ) ;
#7 = EDGE_CURVE ( 'NONE', #198, #101, #129, .T. ) ;
#8 = CARTESIAN_POINT ( 'NONE',  ( 0.0000000000000000000, 0.0000000000000000000, 0.0000000000000000000 ) ) ;
#9 = DIRECTION ( 'NONE',  ( 1.000000000000000000, 0.0000000000000000000, -0.0000000000000000000 ) ) ;
#10 = FACE_OUTER_BOUND ( 'NONE', #201, .T. ) ;
#11 = DIRECTION ( 'NONE',  ( -0.0000000000000000000, -0.0000000000000000000, -1.000000000000000000 ) ) ;
#12 = APPROVAL_ROLE ( '' ) ;
#13 = DATE_AND_TIME ( #200, #63 ) ;
#14 = MANIFOLD_SOLID_BREP ( 'Boss-Extrude1', #38 ) ;
#15 = VERTEX_POINT ( 'NONE', #36 ) ;
#16 = EDGE_CURVE ( 'NONE', #241, #15, #161, .T. ) ;
#17 = CARTESIAN_POINT ( 'NONE',  ( 2.649999999999999900, 3.245314017740486000E-016, 0.0000000000000000000 ) ) ;
#18 = DATE_AND_TIME ( #126, #21 ) ;
#19 = AXIS2_PLACEMENT_3D ( 'NONE', #185, #152, #23 ) ;
#20 = COORDINATED_UNIVERSAL_TIME_OFFSET ( 6, 0, .BEHIND. ) ;
#21 = LOCAL_TIME ( 20, 12, 51.00000000000000000, #134 ) ;
#22 = FACE_OUTER_BOUND ( 'NONE', #39, .T. ) ;
#23 = DIRECTION ( 'NONE',  ( -1.000000000000000000, 0.0000000000000000000, 0.0000000000000000000 ) ) ;
#24 = CIRCLE ( 'NONE', #223, 5.000000000000000000 ) ;
#25 = PLANE ( 'NONE',  #54 ) ;
#26 = AXIS2_PLACEMENT_3D ( 'NONE', #97, #137, #2 ) ;
#27 = CARTESIAN_POINT ( 'NONE',  ( 0.0000000000000000000, 0.0000000000000000000, 0.0000000000000000000 ) ) ;
#28 = CARTESIAN_POINT ( 'NONE',  ( 0.0000000000000000000, 0.0000000000000000000, 1.100000000000000100 ) ) ;
#29 = CARTESIAN_POINT ( 'NONE',  ( 0.0000000000000000000, 0.0000000000000000000, 1.100000000000000100 ) ) ;
#30 = CALENDAR_DATE ( 2021, 8, 9 ) ;
#31 = ORIENTED_EDGE ( 'NONE', *, *, #194, .F. ) ;
#32 = PERSON_AND_ORGANIZATION_ROLE ( 'design_owner' ) ;
#33 = APPROVAL ( #49, 'UNSPECIFIED' ) ;
#34 = ORIENTED_EDGE ( 'NONE', *, *, #187, .F. ) ;
#35 = ORIENTED_EDGE ( 'NONE', *, *, #99, .T. ) ;
#36 = CARTESIAN_POINT ( 'NONE',  ( -2.649999999999999900, 0.0000000000000000000, 1.100000000000000100 ) ) ;
#37 = AXIS2_PLACEMENT_3D ( 'NONE', #56, #76, #195 ) ;
#38 = CLOSED_SHELL ( 'NONE', ( #108, #113, #186, #244, #87, #130 ) ) ;
#39 = EDGE_LOOP ( 'NONE', ( #98, #246, #91, #220 ) ) ;
#40 = EDGE_CURVE ( 'NONE', #103, #198, #213, .T. ) ;
#41 = ORIENTED_EDGE ( 'NONE', *, *, #7, .T. ) ;
#42 = ADVANCED_BREP_SHAPE_REPRESENTATION ( '93475A240_18-8 Stainless Steel Washer', ( #14, #102 ), #128 ) ;
#43 = APPROVAL_PERSON_ORGANIZATION ( #204, #74, #53 ) ;
#44 = CC_DESIGN_PERSON_AND_ORGANIZATION_ASSIGNMENT ( #133, #70, ( #146 ) ) ;
#45 = CARTESIAN_POINT ( 'NONE',  ( -5.000000000000000000, 0.0000000000000000000, 1.100000000000000100 ) ) ;
#46 = DIRECTION ( 'NONE',  ( 1.000000000000000000, 0.0000000000000000000, 0.0000000000000000000 ) ) ;
#47 = CARTESIAN_POINT ( 'NONE',  ( 5.000000000000000000, 6.123233995736766300E-016, 1.100000000000000100 ) ) ;
#48 = DIRECTION ( 'NONE',  ( 0.0000000000000000000, 0.0000000000000000000, 1.000000000000000000 ) ) ;
#49 = APPROVAL_STATUS ( 'not_yet_approved' ) ;
#50 = ORIENTED_EDGE ( 'NONE', *, *, #40, .T. ) ;
#51 = PERSON_AND_ORGANIZATION ( #239, #240 ) ;
#52 = ORIENTED_EDGE ( 'NONE', *, *, #109, .T. ) ;
#53 = APPROVAL_ROLE ( '' ) ;
#54 = AXIS2_PLACEMENT_3D ( 'NONE', #28, #169, #9 ) ;
#55 = CARTESIAN_POINT ( 'NONE',  ( 5.000000000000000000, 6.123233995736766300E-016, 1.100000000000000100 ) ) ;
#56 = CARTESIAN_POINT ( 'NONE',  ( 0.0000000000000000000, 0.0000000000000000000, 1.100000000000000100 ) ) ;
#57 = DIRECTION ( 'NONE',  ( -0.0000000000000000000, -0.0000000000000000000, -1.000000000000000000 ) ) ;
#58 = APPROVAL_PERSON_ORGANIZATION ( #82, #181, #12 ) ;
#59 = ORIENTED_EDGE ( 'NONE', *, *, #67, .F. ) ;
#60 = CYLINDRICAL_SURFACE ( 'NONE', #19, 2.649999999999999900 ) ;
#61 = CC_DESIGN_DATE_AND_TIME_ASSIGNMENT ( #13, #157, ( #146 ) ) ;
#62 = AXIS2_PLACEMENT_3D ( 'NONE', #88, #11, #110 ) ;
#63 = LOCAL_TIME ( 20, 12, 51.00000000000000000, #159 ) ;
#64 = CARTESIAN_POINT ( 'NONE',  ( -2.649999999999999900, 0.0000000000000000000, 0.0000000000000000000 ) ) ;
#65 = ORIENTED_EDGE ( 'NONE', *, *, #160, .T. ) ;
#66 = DIRECTION ( 'NONE',  ( -0.0000000000000000000, -0.0000000000000000000, -1.000000000000000000 ) ) ;
#67 = EDGE_CURVE ( 'NONE', #211, #101, #118, .T. ) ;
#68 = DIRECTION ( 'NONE',  ( 0.0000000000000000000, 0.0000000000000000000, 1.000000000000000000 ) ) ;
#69 = PERSON_AND_ORGANIZATION ( #239, #240 ) ;
#70 = PERSON_AND_ORGANIZATION_ROLE ( 'classification_officer' ) ;
#71 = EDGE_LOOP ( 'NONE', ( #140, #52 ) ) ;
#72 = PERSON_AND_ORGANIZATION_ROLE ( 'design_supplier' ) ;
#73 = APPLICATION_CONTEXT ( 'configuration controlled 3d designs of mechanical parts and assemblies' ) ;
#74 = APPROVAL ( #175, 'UNSPECIFIED' ) ;
#75 = APPLICATION_PROTOCOL_DEFINITION ( 'international standard', 'config_control_design', 1994, #73 ) ;
#76 = DIRECTION ( 'NONE',  ( -0.0000000000000000000, -0.0000000000000000000, -1.000000000000000000 ) ) ;
#77 = AXIS2_PLACEMENT_3D ( 'NONE', #29, #48, #85 ) ;
#78 = DATE_AND_TIME ( #30, #249 ) ;
#79 = VECTOR ( 'NONE', #57, 1000.000000000000000 ) ;
#80 = VERTEX_POINT ( 'NONE', #17 ) ;
#81 = AXIS2_PLACEMENT_3D ( 'NONE', #184, #66, #167 ) ;
#82 = PERSON_AND_ORGANIZATION ( #239, #240 ) ;
#83 = ORIENTED_EDGE ( 'NONE', *, *, #109, .F. ) ;
#84 = EDGE_CURVE ( 'NONE', #101, #198, #111, .T. ) ;
#85 = DIRECTION ( 'NONE',  ( 1.000000000000000000, 0.0000000000000000000, 0.0000000000000000000 ) ) ;
#86 =( NAMED_UNIT ( * ) SI_UNIT ( $, .STERADIAN. ) SOLID_ANGLE_UNIT ( ) );
#87 = ADVANCED_FACE ( 'NONE', ( #196 ), #219, .T. ) ;
#88 = CARTESIAN_POINT ( 'NONE',  ( 0.0000000000000000000, 0.0000000000000000000, 1.100000000000000100 ) ) ;
#89 = PRODUCT_DEFINITION_SHAPE ( 'NONE', 'NONE',  #121 ) ;
#90 = PERSON_AND_ORGANIZATION ( #239, #240 ) ;
#91 = ORIENTED_EDGE ( 'NONE', *, *, #84, .T. ) ;
#92 = PLANE ( 'NONE',  #116 ) ;
#93 = EDGE_LOOP ( 'NONE', ( #5, #218 ) ) ;
#94 = CIRCLE ( 'NONE', #226, 2.649999999999999900 ) ;
#95 = DIRECTION ( 'NONE',  ( 1.000000000000000000, 0.0000000000000000000, 0.0000000000000000000 ) ) ;
#96 = CARTESIAN_POINT ( 'NONE',  ( -5.000000000000000000, 0.0000000000000000000, 1.100000000000000100 ) ) ;
#97 = CARTESIAN_POINT ( 'NONE',  ( 0.0000000000000000000, 0.0000000000000000000, 0.0000000000000000000 ) ) ;
#98 = ORIENTED_EDGE ( 'NONE', *, *, #151, .F. ) ;
#99 = EDGE_CURVE ( 'NONE', #241, #80, #166, .T. ) ;
#100 = ORIENTED_EDGE ( 'NONE', *, *, #229, .F. ) ;
#101 = VERTEX_POINT ( 'NONE', #132 ) ;
#102 = AXIS2_PLACEMENT_3D ( 'NONE', #8, #243, #210 ) ;
#103 = VERTEX_POINT ( 'NONE', #45 ) ;
#104 = PERSON_AND_ORGANIZATION ( #239, #240 ) ;
#105 = PRODUCT ( '93475A240_18-8 Stainless Steel Washer', '93475A240_18-8 Stainless Steel Washer', '', ( #191 ) ) ;
#106 = ORIENTED_EDGE ( 'NONE', *, *, #84, .F. ) ;
#107 = CARTESIAN_POINT ( 'NONE',  ( 0.0000000000000000000, 0.0000000000000000000, 1.100000000000000100 ) ) ;
#108 = ADVANCED_FACE ( 'NONE', ( #119 ), #60, .F. ) ;
#109 = EDGE_CURVE ( 'NONE', #80, #192, #94, .T. ) ;
#110 = DIRECTION ( 'NONE',  ( -1.000000000000000000, 0.0000000000000000000, 0.0000000000000000000 ) ) ;
#111 = CIRCLE ( 'NONE', #206, 5.000000000000000000 ) ;
#112 = CARTESIAN_POINT ( 'NONE',  ( 0.0000000000000000000, 0.0000000000000000000, 0.0000000000000000000 ) ) ;
#113 = ADVANCED_FACE ( 'NONE', ( #22 ), #238, .T. ) ;
#114 = CC_DESIGN_APPROVAL ( #74, ( #146 ) ) ;
#115 = VECTOR ( 'NONE', #205, 1000.000000000000000 ) ;
#116 = AXIS2_PLACEMENT_3D ( 'NONE', #27, #228, #127 ) ;
#117 = APPLICATION_CONTEXT ( 'configuration controlled 3d designs of mechanical parts and assemblies' ) ;
#118 = LINE ( 'NONE', #55, #141 ) ;
#119 = FACE_OUTER_BOUND ( 'NONE', #3, .T. ) ;
#120 = CARTESIAN_POINT ( 'NONE',  ( 0.0000000000000000000, 0.0000000000000000000, 0.0000000000000000000 ) ) ;
#121 = PRODUCT_DEFINITION ( 'UNKNOWN', '', #158, #212 ) ;
#122 = CARTESIAN_POINT ( 'NONE',  ( 0.0000000000000000000, 0.0000000000000000000, 1.100000000000000100 ) ) ;
#123 = DATE_AND_TIME ( #173, #221 ) ;
#124 = CC_DESIGN_PERSON_AND_ORGANIZATION_ASSIGNMENT ( #104, #32, ( #105 ) ) ;
#125 = APPROVAL_DATE_TIME ( #18, #33 ) ;
#126 = CALENDAR_DATE ( 2021, 8, 9 ) ;
#127 = DIRECTION ( 'NONE',  ( 1.000000000000000000, 0.0000000000000000000, -0.0000000000000000000 ) ) ;
#128 =( GEOMETRIC_REPRESENTATION_CONTEXT ( 3 ) GLOBAL_UNCERTAINTY_ASSIGNED_CONTEXT ( ( #168 ) ) GLOBAL_UNIT_ASSIGNED_CONTEXT ( ( #225, #207, #86 ) ) REPRESENTATION_CONTEXT ( 'NONE', 'WORKASPACE' ) );
#129 = CIRCLE ( 'NONE', #26, 5.000000000000000000 ) ;
#130 = ADVANCED_FACE ( 'NONE', ( #10 ), #163, .F. ) ;
#131 = CARTESIAN_POINT ( 'NONE',  ( 0.0000000000000000000, 0.0000000000000000000, 0.0000000000000000000 ) ) ;
#132 = CARTESIAN_POINT ( 'NONE',  ( 5.000000000000000000, 6.123233995736766300E-016, 0.0000000000000000000 ) ) ;
#133 = PERSON_AND_ORGANIZATION ( #239, #240 ) ;
#134 = COORDINATED_UNIVERSAL_TIME_OFFSET ( 6, 0, .BEHIND. ) ;
#135 = VECTOR ( 'NONE', #138, 1000.000000000000000 ) ;
#136 = PERSON_AND_ORGANIZATION_ROLE ( 'creator' ) ;
#137 = DIRECTION ( 'NONE',  ( 0.0000000000000000000, 0.0000000000000000000, 1.000000000000000000 ) ) ;
#138 = DIRECTION ( 'NONE',  ( -0.0000000000000000000, -0.0000000000000000000, -1.000000000000000000 ) ) ;
#139 = CIRCLE ( 'NONE', #236, 2.649999999999999900 ) ;
#140 = ORIENTED_EDGE ( 'NONE', *, *, #187, .T. ) ;
#141 = VECTOR ( 'NONE', #234, 1000.000000000000000 ) ;
#142 = CC_DESIGN_PERSON_AND_ORGANIZATION_ASSIGNMENT ( #69, #136, ( #121 ) ) ;
#143 = COORDINATED_UNIVERSAL_TIME_OFFSET ( 6, 0, .BEHIND. ) ;
#144 = CC_DESIGN_DATE_AND_TIME_ASSIGNMENT ( #123, #193, ( #121 ) ) ;
#145 = ORIENTED_EDGE ( 'NONE', *, *, #229, .T. ) ;
#146 = SECURITY_CLASSIFICATION ( '', '', #154 ) ;
#147 = LOCAL_TIME ( 20, 12, 51.00000000000000000, #20 ) ;
#148 = DIRECTION ( 'NONE',  ( 0.0000000000000000000, 0.0000000000000000000, 1.000000000000000000 ) ) ;
#149 = CARTESIAN_POINT ( 'NONE',  ( 2.649999999999999900, 3.245314017740486000E-016, 1.100000000000000100 ) ) ;
#150 = EDGE_LOOP ( 'NONE', ( #202, #106 ) ) ;
#151 = EDGE_CURVE ( 'NONE', #211, #103, #24, .T. ) ;
#152 = DIRECTION ( 'NONE',  ( -0.0000000000000000000, -0.0000000000000000000, -1.000000000000000000 ) ) ;
#153 = DIRECTION ( 'NONE',  ( 1.000000000000000000, 0.0000000000000000000, 0.0000000000000000000 ) ) ;
#154 = SECURITY_CLASSIFICATION_LEVEL ( 'unclassified' ) ;
#155 = FACE_OUTER_BOUND ( 'NONE', #150, .T. ) ;
#156 = APPROVAL_ROLE ( '' ) ;
#157 = DATE_TIME_ROLE ( 'classification_date' ) ;
#158 = PRODUCT_DEFINITION_FORMATION_WITH_SPECIFIED_SOURCE ( 'ANY', '', #105, .NOT_KNOWN. ) ;
#159 = COORDINATED_UNIVERSAL_TIME_OFFSET ( 6, 0, .BEHIND. ) ;
#160 = EDGE_CURVE ( 'NONE', #15, #192, #215, .T. ) ;
#161 = CIRCLE ( 'NONE', #214, 2.649999999999999900 ) ;
#162 = CC_DESIGN_SECURITY_CLASSIFICATION ( #146, ( #158 ) ) ;
#163 = CYLINDRICAL_SURFACE ( 'NONE', #81, 2.649999999999999900 ) ;
#164 = DATE_AND_TIME ( #216, #147 ) ;
#165 = SHAPE_DEFINITION_REPRESENTATION ( #89, #42 ) ;
#166 = LINE ( 'NONE', #231, #79 ) ;
#167 = DIRECTION ( 'NONE',  ( -1.000000000000000000, 0.0000000000000000000, 0.0000000000000000000 ) ) ;
#168 = UNCERTAINTY_MEASURE_WITH_UNIT (LENGTH_MEASURE( 1.000000000000000100E-005 ), #225, 'distance_accuracy_value', 'NONE');
#169 = DIRECTION ( 'NONE',  ( 0.0000000000000000000, 0.0000000000000000000, 1.000000000000000000 ) ) ;
#170 = CARTESIAN_POINT ( 'NONE',  ( 0.0000000000000000000, 0.0000000000000000000, 1.100000000000000100 ) ) ;
#171 = CARTESIAN_POINT ( 'NONE',  ( -5.000000000000000000, 0.0000000000000000000, 0.0000000000000000000 ) ) ;
#172 = DIRECTION ( 'NONE',  ( 1.000000000000000000, 0.0000000000000000000, 0.0000000000000000000 ) ) ;
#173 = CALENDAR_DATE ( 2021, 8, 9 ) ;
#174 = CC_DESIGN_APPROVAL ( #33, ( #121 ) ) ;
#175 = APPROVAL_STATUS ( 'not_yet_approved' ) ;
#176 = DIRECTION ( 'NONE',  ( 1.000000000000000000, 0.0000000000000000000, 0.0000000000000000000 ) ) ;
#177 = APPROVAL_PERSON_ORGANIZATION ( #4, #33, #156 ) ;
#178 = ORIENTED_EDGE ( 'NONE', *, *, #99, .F. ) ;
#179 = FACE_OUTER_BOUND ( 'NONE', #93, .T. ) ;
#180 = FACE_BOUND ( 'NONE', #71, .T. ) ;
#181 = APPROVAL ( #190, 'UNSPECIFIED' ) ;
#182 = CC_DESIGN_APPROVAL ( #181, ( #158 ) ) ;
#183 = ORIENTED_EDGE ( 'NONE', *, *, #16, .T. ) ;
#184 = CARTESIAN_POINT ( 'NONE',  ( 0.0000000000000000000, 0.0000000000000000000, 1.100000000000000100 ) ) ;
#185 = CARTESIAN_POINT ( 'NONE',  ( 0.0000000000000000000, 0.0000000000000000000, 1.100000000000000100 ) ) ;
#186 = ADVANCED_FACE ( 'NONE', ( #179, #199 ), #25, .T. ) ;
#187 = EDGE_CURVE ( 'NONE', #192, #80, #139, .T. ) ;
#188 = CIRCLE ( 'NONE', #77, 5.000000000000000000 ) ;
#189 = PERSON_AND_ORGANIZATION_ROLE ( 'creator' ) ;
#190 = APPROVAL_STATUS ( 'not_yet_approved' ) ;
#191 = MECHANICAL_CONTEXT ( 'NONE', #117, 'mechanical' ) ;
#192 = VERTEX_POINT ( 'NONE', #64 ) ;
#193 = DATE_TIME_ROLE ( 'creation_date' ) ;
#194 = EDGE_CURVE ( 'NONE', #103, #211, #188, .T. ) ;
#195 = DIRECTION ( 'NONE',  ( -1.000000000000000000, 0.0000000000000000000, 0.0000000000000000000 ) ) ;
#196 = FACE_OUTER_BOUND ( 'NONE', #203, .T. ) ;
#197 = CC_DESIGN_PERSON_AND_ORGANIZATION_ASSIGNMENT ( #51, #189, ( #158 ) ) ;
#198 = VERTEX_POINT ( 'NONE', #171 ) ;
#199 = FACE_BOUND ( 'NONE', #247, .T. ) ;
#200 = CALENDAR_DATE ( 2021, 8, 9 ) ;
#201 = EDGE_LOOP ( 'NONE', ( #178, #183, #65, #83 ) ) ;
#202 = ORIENTED_EDGE ( 'NONE', *, *, #7, .F. ) ;
#203 = EDGE_LOOP ( 'NONE', ( #59, #31, #50, #41 ) ) ;
#204 = PERSON_AND_ORGANIZATION ( #239, #240 ) ;
#205 = DIRECTION ( 'NONE',  ( -0.0000000000000000000, -0.0000000000000000000, -1.000000000000000000 ) ) ;
#206 = AXIS2_PLACEMENT_3D ( 'NONE', #120, #1, #176 ) ;
#207 =( NAMED_UNIT ( * ) PLANE_ANGLE_UNIT ( ) SI_UNIT ( $, .RADIAN. ) );
#208 = DIRECTION ( 'NONE',  ( 1.000000000000000000, 0.0000000000000000000, 0.0000000000000000000 ) ) ;
#209 = CARTESIAN_POINT ( 'NONE',  ( -2.649999999999999900, 0.0000000000000000000, 1.100000000000000100 ) ) ;
#210 = DIRECTION ( 'NONE',  ( 1.000000000000000000, 0.0000000000000000000, 0.0000000000000000000 ) ) ;
#211 = VERTEX_POINT ( 'NONE', #47 ) ;
#212 = DESIGN_CONTEXT ( 'detailed design', #73, 'design' ) ;
#213 = LINE ( 'NONE', #96, #135 ) ;
#214 = AXIS2_PLACEMENT_3D ( 'NONE', #122, #230, #95 ) ;
#215 = LINE ( 'NONE', #209, #115 ) ;
#216 = CALENDAR_DATE ( 2021, 8, 9 ) ;
#217 = APPROVAL_DATE_TIME ( #164, #74 ) ;
#218 = ORIENTED_EDGE ( 'NONE', *, *, #151, .T. ) ;
#219 = CYLINDRICAL_SURFACE ( 'NONE', #37, 5.000000000000000000 ) ;
#220 = ORIENTED_EDGE ( 'NONE', *, *, #40, .F. ) ;
#221 = LOCAL_TIME ( 20, 12, 51.00000000000000000, #237 ) ;
#222 = PRODUCT_RELATED_PRODUCT_CATEGORY ( 'detail', '', ( #105 ) ) ;
#223 = AXIS2_PLACEMENT_3D ( 'NONE', #107, #68, #172 ) ;
#224 = ORIENTED_EDGE ( 'NONE', *, *, #16, .F. ) ;
#225 =( LENGTH_UNIT ( ) NAMED_UNIT ( * ) SI_UNIT ( .MILLI., .METRE. ) );
#226 = AXIS2_PLACEMENT_3D ( 'NONE', #131, #148, #208 ) ;
#227 = DIRECTION ( 'NONE',  ( 0.0000000000000000000, 0.0000000000000000000, 1.000000000000000000 ) ) ;
#228 = DIRECTION ( 'NONE',  ( 0.0000000000000000000, 0.0000000000000000000, 1.000000000000000000 ) ) ;
#229 = EDGE_CURVE ( 'NONE', #15, #241, #232, .T. ) ;
#230 = DIRECTION ( 'NONE',  ( 0.0000000000000000000, 0.0000000000000000000, 1.000000000000000000 ) ) ;
#231 = CARTESIAN_POINT ( 'NONE',  ( 2.649999999999999900, 3.245314017740486000E-016, 1.100000000000000100 ) ) ;
#232 = CIRCLE ( 'NONE', #235, 2.649999999999999900 ) ;
#233 = APPROVAL_DATE_TIME ( #78, #181 ) ;
#234 = DIRECTION ( 'NONE',  ( -0.0000000000000000000, -0.0000000000000000000, -1.000000000000000000 ) ) ;
#235 = AXIS2_PLACEMENT_3D ( 'NONE', #170, #227, #46 ) ;
#236 = AXIS2_PLACEMENT_3D ( 'NONE', #112, #245, #153 ) ;
#237 = COORDINATED_UNIVERSAL_TIME_OFFSET ( 6, 0, .BEHIND. ) ;
#238 = CYLINDRICAL_SURFACE ( 'NONE', #62, 5.000000000000000000 ) ;
#239 = PERSON ( 'UNSPECIFIED', 'UNSPECIFIED', 'UNSPECIFIED', ('UNSPECIFIED'), ('UNSPECIFIED'), ('UNSPECIFIED') ) ;
#240 = ORGANIZATION ( 'UNSPECIFIED', 'UNSPECIFIED', '' ) ;
#241 = VERTEX_POINT ( 'NONE', #149 ) ;
#242 = CC_DESIGN_PERSON_AND_ORGANIZATION_ASSIGNMENT ( #90, #72, ( #158 ) ) ;
#243 = DIRECTION ( 'NONE',  ( 0.0000000000000000000, 0.0000000000000000000, 1.000000000000000000 ) ) ;
#244 = ADVANCED_FACE ( 'NONE', ( #155, #180 ), #92, .F. ) ;
#245 = DIRECTION ( 'NONE',  ( 0.0000000000000000000, 0.0000000000000000000, 1.000000000000000000 ) ) ;
#246 = ORIENTED_EDGE ( 'NONE', *, *, #67, .T. ) ;
#247 = EDGE_LOOP ( 'NONE', ( #100, #224 ) ) ;
#248 = APPLICATION_PROTOCOL_DEFINITION ( 'international standard', 'config_control_design', 1994, #117 ) ;
#249 = LOCAL_TIME ( 20, 12, 51.00000000000000000, #143 ) ;
ENDSEC;
END-ISO-10303-21;
